<svg width="640" height="640" viewBox="0 0 640 640" fill="none" xmlns="http://www.w3.org/2000/svg">
  <circle cx="320" cy="320" r="220" fill="#F5EE30" fill-opacity="0.08" />
  <circle cx="320" cy="320" r="170" fill="url(#paint0_radial)" />
  <rect x="150" y="110" width="270" height="360" rx="28" fill="#0B0B0B" stroke="#F5EE30" stroke-width="10" />
  <rect x="190" y="155" width="110" height="16" rx="8" fill="#F5EE30" />
  <rect x="190" y="190" width="180" height="12" rx="6" fill="white" fill-opacity="0.32" />
  <rect x="190" y="216" width="150" height="12" rx="6" fill="white" fill-opacity="0.16" />
  <rect x="190" y="262" width="190" height="78" rx="20" fill="#111111" stroke="white" stroke-opacity="0.18" />
  <rect x="212" y="286" width="88" height="12" rx="6" fill="#F5EE30" />
  <rect x="212" y="309" width="136" height="10" rx="5" fill="white" fill-opacity="0.24" />
  <rect x="212" y="328" width="122" height="10" rx="5" fill="white" fill-opacity="0.18" />
  <rect x="190" y="366" width="148" height="16" rx="8" fill="white" fill-opacity="0.14" />
  <rect x="190" y="395" width="170" height="16" rx="8" fill="white" fill-opacity="0.1" />
  <rect x="390" y="196" width="118" height="170" rx="26" fill="white" fill-opacity="0.06" stroke="white" stroke-opacity="0.2" />
  <rect x="414" y="225" width="58" height="14" rx="7" fill="#F5EE30" />
  <rect x="414" y="255" width="70" height="12" rx="6" fill="white" fill-opacity="0.28" />
  <rect x="414" y="278" width="55" height="12" rx="6" fill="white" fill-opacity="0.18" />
  <path d="M432 335C451.882 329.769 468.16 315.97 476 296.852" stroke="#F5EE30" stroke-width="10" stroke-linecap="round" />
  <path d="M469 298L478 289L484 302" stroke="#F5EE30" stroke-width="10" stroke-linecap="round" stroke-linejoin="round" />
  <path d="M480 132L486 147L501 153L486 159L480 174L474 159L459 153L474 147L480 132Z" fill="#F5EE30" />
  <path d="M518 390L522 400L532 404L522 408L518 418L514 408L504 404L514 400L518 390Z" fill="white" fill-opacity="0.75" />
  <path d="M122 272L128 287L143 293L128 299L122 314L116 299L101 293L116 287L122 272Z" fill="white" fill-opacity="0.75" />
  <rect x="376" y="418" width="148" height="70" rx="22" fill="#F5EE30" fill-opacity="0.12" stroke="#F5EE30" stroke-opacity="0.45" />
  <rect x="401" y="441" width="69" height="11" rx="5.5" fill="#F5EE30" />
  <rect x="401" y="463" width="94" height="9" rx="4.5" fill="white" fill-opacity="0.28" />
  <defs>
    <radialGradient id="paint0_radial" cx="0" cy="0" r="1" gradientUnits="userSpaceOnUse" gradientTransform="translate(320 320) rotate(90) scale(170)">
      <stop stop-color="#F5EE30" stop-opacity="0.18" />
      <stop offset="1" stop-color="#F5EE30" stop-opacity="0" />
    </radialGradient>
  </defs>
</svg>
