<svg width="9" height="9" viewBox="0 0 9 9" fill="none" xmlns="http://www.w3.org/2000/svg">
<g clip-path="url(#clip0_261_15518)">
<path d="M8.619 0.238768C8.62733 0.203778 8.62543 0.167129 8.61351 0.133192C8.60159 0.0992545 8.58017 0.069461 8.55179 0.0473646C8.5234 0.0252681 8.48927 0.0118015 8.45344 0.00857056C8.41762 0.00533966 8.38162 0.0124809 8.34975 0.0291427L0.668621 4.05664C0.583631 4.10144 0.511917 4.1678 0.46067 4.24907C0.409424 4.33033 0.380448 4.42364 0.376649 4.51964C0.37285 4.61564 0.394362 4.71095 0.439026 4.79601C0.483691 4.88107 0.549937 4.95289 0.631121 5.00427L2.34112 6.08502C2.35831 6.09594 2.37858 6.10097 2.39888 6.09934C2.41917 6.09772 2.43839 6.08953 2.45362 6.07602L7.0125 2.00052C7.02984 1.98408 7.05282 1.97492 7.07672 1.97492C7.10061 1.97492 7.1236 1.98407 7.14094 2.00051C7.15829 2.01694 7.16868 2.0394 7.16996 2.06326C7.17125 2.08712 7.16335 2.11056 7.14787 2.12877L3.50475 6.69852C3.49655 6.70882 3.49061 6.72073 3.48732 6.73348C3.48403 6.74623 3.48346 6.75954 3.48566 6.77252C3.48785 6.7855 3.49275 6.79788 3.50005 6.80884C3.50734 6.8198 3.51687 6.82911 3.528 6.83614L5.94 8.36202C6.0134 8.40827 6.09678 8.43634 6.18322 8.44389C6.26965 8.45145 6.35663 8.43826 6.43695 8.40544C6.51726 8.37262 6.58858 8.32111 6.64499 8.25518C6.70139 8.18925 6.74125 8.11082 6.76125 8.02639L8.619 0.238768Z" fill="#F5EE30"/>
<path d="M2.95688 7.19422C2.94267 7.18525 2.92632 7.18025 2.90953 7.17973C2.89274 7.17921 2.87612 7.1832 2.86139 7.19127C2.84666 7.19934 2.83435 7.21121 2.82576 7.22565C2.81716 7.24008 2.81258 7.25655 2.8125 7.27335C2.8125 7.66935 2.8125 8.61772 2.8125 8.61772C2.81252 8.69188 2.83452 8.76437 2.87572 8.82602C2.91693 8.88767 2.97549 8.93573 3.044 8.9641C3.11252 8.99248 3.1879 8.99991 3.26064 8.98544C3.33337 8.97098 3.40018 8.93528 3.45262 8.88285L4.20938 8.12647C4.21925 8.1165 4.22677 8.10445 4.23139 8.09119C4.236 8.07794 4.23759 8.06382 4.23605 8.04987C4.2345 8.03593 4.22986 8.0225 4.22245 8.01058C4.21505 7.99866 4.20507 7.98854 4.19325 7.98097L2.95688 7.19422Z" fill="#F5EE30"/>
</g>
<defs>
<clipPath id="clip0_261_15518">
<rect width="9" height="9" fill="white"/>
</clipPath>
</defs>
</svg>
