<svg width="546" height="542" viewBox="0 0 546 542" fill="none" xmlns="http://www.w3.org/2000/svg">
<path d="M252.503 435.274L332.313 436.772L389.65 511.406H299.354L252.503 435.274Z" fill="#F5EE30"/>
<path d="M253.593 432.413L284.918 432.958L328.908 433.775C330.27 433.775 331.768 433.775 333.13 433.911C334.22 434.047 335.173 434.592 335.718 435.545L343.072 445.079L371.809 482.532L385.156 499.829C387.608 502.961 390.059 505.957 392.238 509.226L392.511 509.634C394.009 511.541 391.285 514.265 389.378 514.265H299.218C297.72 514.401 296.358 513.584 295.813 512.222L293.089 507.728L268.983 468.504C262.582 458.153 256.045 447.939 249.916 437.452L249.644 436.907C247.737 433.911 253.593 430.234 255.5 433.366L271.298 459.243L296.494 500.101L302.214 509.498L299.49 508.409H389.787L386.654 513.176L367.315 487.98L336.399 447.803L329.317 438.678L331.224 439.767L304.121 439.222L261.22 438.405L251.278 438.269C249.916 438.133 248.963 436.907 249.099 435.681C249.099 435.409 249.235 435.273 249.235 435C250.188 433.23 251.823 432.277 253.593 432.413Z" fill="#F5EE30"/>
<path d="M282.059 441.538L294.725 462.103L314.882 494.926L319.512 502.416C320.057 503.37 317.333 503.097 316.924 503.097C315.971 502.961 313.52 502.825 312.839 501.871L300.173 481.306L280.016 448.484L275.385 440.993C274.841 440.04 277.565 440.312 277.837 440.312C278.926 440.312 281.378 440.584 282.059 441.538Z" fill="white"/>
<path d="M302.215 438.133L316.515 459.106L339.395 492.474L344.707 500.237C345.66 501.599 345.388 503.369 344.026 504.323C344.026 504.323 344.026 504.323 343.89 504.323C342.664 505.14 340.213 505.548 339.259 504.186L324.959 483.213L302.078 449.845L296.767 442.082C295.813 440.72 296.086 438.95 297.448 437.996C297.448 437.996 297.584 437.996 297.584 437.86C298.81 437.043 301.261 436.771 302.215 438.133Z" fill="white"/>
<path d="M322.371 440.448C322.235 440.176 322.644 440.857 322.78 440.993C323.052 441.538 323.461 441.947 323.869 442.491C324.959 443.99 326.185 445.624 327.41 447.122C331.088 452.025 334.901 456.928 338.578 461.695C346.886 472.454 355.194 483.077 363.502 493.836L369.222 501.191C369.63 501.736 366.907 501.191 366.77 501.191C365.681 500.918 363.502 500.646 362.821 499.693C357.509 493.019 352.334 486.21 347.022 479.4C338.578 468.504 330.134 457.745 321.826 446.713C320.465 444.943 318.966 443.036 317.604 441.129C316.924 440.312 316.379 439.495 315.834 438.542C315.698 438.269 318.966 438.814 319.239 438.95C319.92 439.223 321.963 439.631 322.371 440.448Z" fill="white"/>
<path d="M272.659 450.391L294.858 450.255L330.405 449.983H338.576C340.074 449.983 340.347 451.209 339.53 452.162C338.44 453.388 336.806 454.069 335.171 454.069L312.972 454.205L277.562 454.477H269.39C267.892 454.477 267.619 453.252 268.437 452.298C269.526 451.072 271.16 450.255 272.659 450.391Z" fill="white"/>
<path d="M284.1 472.182L306.299 470.82L341.437 468.777L349.473 468.232C350.562 468.232 353.014 468.096 353.695 469.322C354.376 470.548 352.06 470.956 351.243 471.092L329.044 472.454L293.906 474.497L285.87 475.042C284.781 475.042 282.329 475.178 281.648 473.952C280.967 472.727 283.282 472.182 284.1 472.182Z" fill="white"/>
<path d="M296.221 493.972L318.421 492.61L353.559 490.567L361.594 490.023C362.82 489.886 365.135 489.75 366.225 490.704C367.314 491.657 365.68 491.657 364.863 491.793L342.663 493.155L307.526 495.198L299.49 495.743C298.264 495.743 295.949 496.015 294.86 495.062C293.77 494.108 295.404 494.108 296.221 493.972Z" fill="white"/>
<path d="M148.724 321.008C125.435 334.082 113.178 326.183 111.952 343.071C111.952 343.071 82.5344 372.625 78.7209 341.028C78.1762 336.125 64.8292 275.383 101.738 255.09C101.738 255.09 122.848 244.875 118.762 224.991C118.762 224.991 133.607 241.334 149.269 240.517C164.931 239.7 195.303 233.435 198.98 248.961C202.657 264.487 181.819 270.48 168.336 268.301L166.702 291.454C151.993 295.267 145.728 279.469 145.728 279.469C145.728 279.469 136.058 293.905 139.191 300.306C142.323 306.707 157.305 308.614 157.305 308.614C156.624 313.653 153.491 318.42 148.724 321.008Z" fill="white"/>
<path d="M151.311 321.688C145.455 324.957 139.19 327.544 132.653 329.451C130.473 330.132 128.158 330.677 125.843 331.222C124.89 331.494 123.936 331.63 123.119 331.903C122.574 332.039 123.8 331.63 122.983 331.903L122.438 332.039C122.029 332.175 121.621 332.311 121.076 332.584C120.531 332.72 119.987 332.992 119.442 333.401C118.897 333.809 118.352 334.218 117.944 334.626C116.854 335.852 116.173 337.35 115.765 338.848C115.356 340.21 115.628 342.389 114.675 343.479C114.266 343.888 113.858 344.296 113.449 344.569C108.955 348.927 103.643 352.332 98.0594 354.919C91.3859 357.643 82.2609 358.324 78.1751 351.242C75.4513 346.475 75.0427 340.619 74.2255 335.307C73.136 328.634 72.5912 321.96 72.455 315.287C72.0464 297.718 74.6341 278.515 86.2106 264.623C89.343 260.946 92.8841 257.813 97.1061 255.226C98.7404 254.136 100.647 253.319 102.281 252.229C105.141 250.323 107.729 248.007 109.908 245.42C114.811 239.836 116.718 232.345 115.22 225.127C114.947 224.037 117.399 223.493 117.944 223.356C119.169 223.22 120.94 223.084 121.757 224.037C126.796 229.621 133.061 233.979 140.007 236.839C142.459 237.793 144.91 238.474 147.498 238.746C149.677 238.746 151.72 238.746 153.899 238.474C158.802 238.065 163.569 237.52 168.471 237.248C173.647 236.839 178.958 236.839 184.134 237.248C188.492 237.52 192.714 238.746 196.527 240.789C204.018 245.42 204.427 255.77 198.298 261.763C194.484 265.576 189.037 267.755 183.725 268.845C178.005 270.207 172.285 270.343 166.429 269.526L171.468 267.619L169.697 290.772C169.561 291.862 168.199 292.27 167.382 292.406C160.3 294.177 153.082 292.951 147.634 287.912C145.182 285.597 143.276 282.737 141.914 279.604L148.587 279.332C145.591 283.69 143.276 288.457 141.914 293.632C141.233 296.492 141.233 299.489 143.684 301.531C146.272 303.574 149.132 304.936 152.264 305.617C154.307 306.162 156.35 306.707 158.393 306.979C158.938 306.979 160.3 307.252 160.164 308.069C160.3 313.925 156.214 318.964 151.311 321.688C149.949 322.505 148.179 322.778 146.544 322.233C145.319 321.824 145.182 320.871 146.272 320.19C150.222 317.875 153.626 313.38 153.899 308.613L155.669 309.703C150.085 309.022 143.82 307.524 139.19 304.255C136.33 302.621 134.832 299.489 135.104 296.22C135.649 292.543 136.738 288.865 138.509 285.597C139.598 283.281 140.824 281.102 142.186 279.059C143.276 277.561 148.042 276.608 148.86 278.787C148.723 278.515 148.996 279.059 148.996 279.059C149.268 279.604 149.541 280.149 149.813 280.694C150.766 282.328 151.856 283.826 153.082 285.324C156.35 288.865 160.708 290.908 165.339 289.819L163.024 291.453L164.658 268.3C164.794 266.53 168.335 266.257 169.561 266.53C173.511 267.211 177.596 267.074 181.546 266.121C185.496 265.44 189.037 263.533 192.033 260.946C197.617 255.498 196.664 245.828 189.582 242.287C186.177 240.789 182.499 239.972 178.686 239.972C174.055 239.836 169.561 239.972 164.93 240.381C155.125 241.198 145.046 243.241 135.649 239.7C127.75 236.567 120.804 231.8 115.084 225.535L121.757 224.446C124.345 237.929 115.492 249.369 104.188 255.498C91.6583 262.308 84.4401 274.974 81.3076 288.457C78.3114 301.395 78.4475 315.151 79.9457 328.225C80.3543 331.903 80.899 335.58 81.58 339.257C82.3971 344.16 82.9419 350.425 87.8449 353.285C88.2535 353.557 88.5259 353.694 88.9345 353.694C89.6154 353.966 88.7982 353.694 89.2068 353.83H89.6154C90.2964 353.966 89.2068 353.83 89.6154 353.83H90.4326C89.4792 353.83 90.5688 353.83 90.705 353.83H91.1135C91.6583 353.83 90.4326 353.966 90.9774 353.83L92.0669 353.557C92.6117 353.421 91.6583 353.694 92.3393 353.421L93.1564 353.149L93.9736 352.876L94.5184 352.74L94.6546 352.604C95.8803 352.059 97.1061 351.378 98.1956 350.697C101.737 348.518 104.869 345.931 107.865 342.934L108.41 342.389L108.002 343.207C108.41 338.031 110.044 333.537 114.947 331.085C120.123 328.498 126.251 327.817 131.699 326.046C136.602 324.548 141.233 322.505 145.727 319.918C147.225 319.1 148.86 318.964 150.494 319.373C152.264 320.054 152.537 321.007 151.311 321.688Z" fill="#262626"/>
<path d="M63.6047 308.34C63.6047 308.34 44.129 319.099 37.8641 308.476C31.5992 297.853 45.7633 297.308 45.7633 297.308C45.7633 297.308 24.5171 277.969 44.8099 268.571C44.8099 268.571 22.7466 255.497 32.6887 235.613C42.6308 215.728 73.002 219.405 73.002 219.405C73.002 219.405 66.0561 194.346 88.5281 192.167C111 189.988 109.502 206.467 109.502 206.467C109.502 206.467 123.802 204.833 126.39 213.413C128.978 221.993 119.308 227.986 119.308 227.986C119.308 227.986 121.487 253.726 101.603 254.816L90.9796 290.499C90.9796 290.499 100.241 300.304 96.1549 313.651C92.0691 326.998 66.6009 324.683 63.6047 308.34Z" fill="#262626"/>
<path d="M61.5591 310.521C55.9752 313.517 48.8931 316.241 42.492 315.288C38.1338 314.743 34.5928 311.474 33.7756 307.252C32.9585 302.894 37.3166 299.217 40.7215 297.31C42.9006 296.084 45.4883 295.267 48.076 295.131L43.173 299.762C37.1805 294.314 30.0984 284.372 35.1376 276.2C37.9976 271.978 42.0835 268.573 46.714 266.53L42.2196 271.025C33.0947 265.577 25.7402 254.954 27.9193 243.922C29.6898 235.206 36.2271 228.124 43.5816 223.493C49.5741 219.952 56.2476 217.773 63.1934 217.228C67.2792 216.82 71.2289 216.82 75.3147 217.228L70.4117 221.859C69.0498 216.956 68.9136 211.781 70.1393 206.878C71.5012 202.247 74.3613 198.161 78.3109 195.165C82.8053 191.624 88.3892 189.717 93.9732 189.854C101.872 189.717 110.18 192.577 111.815 201.158C111.951 202.111 112.087 202.928 112.087 203.881C112.087 204.154 112.087 204.29 112.087 204.562C112.087 204.562 111.678 204.426 112.087 204.426C113.449 204.29 114.947 204.29 116.309 204.426C118.488 204.562 120.667 204.971 122.71 205.652C125.162 206.333 127.204 208.103 128.43 210.283C129.656 213.006 129.656 216.275 128.43 218.999C126.387 223.63 122.029 227.715 117.807 230.303L121.893 226.081C122.165 229.35 121.893 232.618 121.348 235.887C120.122 242.56 116.581 248.553 111.134 252.775C107.729 255.499 103.643 257.133 99.2847 257.406L104.188 253.047L93.837 287.913C93.7008 288.185 93.7008 288.321 93.7008 288.594C93.7008 288.866 93.5646 288.321 93.7008 288.594C94.3818 289.547 94.9266 290.501 95.7437 291.318C98.3314 295.404 99.8295 300.17 99.8295 305.073C99.9657 310.521 97.7866 315.696 93.7008 319.237C90.5684 322.234 86.6187 324.277 82.2605 324.821C72.8632 325.911 62.9211 320.463 61.0144 310.793C60.8782 309.976 62.6487 308.614 63.1934 308.07C63.3296 307.933 66.0535 305.89 66.0535 306.163C67.6878 314.334 75.0423 319.51 83.0777 320.191C84.9844 320.327 86.8911 320.191 88.7978 319.782C89.615 319.646 90.2959 319.374 91.1131 319.101C91.6579 318.829 92.7475 318.284 92.8837 318.284C93.4284 318.012 93.0198 318.148 92.8837 318.284C92.7475 318.42 92.0665 319.51 92.0665 318.965C92.0665 318.965 92.2027 318.829 92.3389 318.556C92.8837 317.739 93.2922 316.922 93.5646 315.969C94.518 312.973 94.7903 309.976 94.5179 306.844C93.9732 302.486 92.4751 298.4 90.0236 294.859C89.615 294.314 88.6616 293.497 88.5254 292.952C88.3892 292.68 88.6617 292.271 88.7978 291.862L94.2456 273.885L99.2847 256.997C99.8295 256.044 100.51 255.09 101.464 254.545C102.145 254.001 103.234 252.775 104.188 252.639C105.822 252.503 107.456 252.23 109.091 251.822C109.772 251.549 112.223 250.868 112.359 250.187C112.359 250.323 111.815 250.596 111.815 250.732C112.223 250.46 111.815 250.868 112.087 250.46C112.087 250.323 112.768 249.642 112.904 249.234C113.585 248.144 114.13 247.055 114.675 245.965C116.309 241.879 117.126 237.521 117.126 233.163C117.126 232.346 117.126 230.984 117.126 230.303C117.126 229.622 117.943 228.941 118.352 228.532C119.169 227.579 120.122 226.762 121.212 226.081C121.757 225.672 120.667 226.49 121.212 226.081C121.757 225.672 120.803 226.353 121.348 225.945C121.893 225.536 121.893 225.536 121.484 225.809C121.757 225.536 121.893 225.264 122.165 224.991C122.71 224.31 123.119 223.766 123.391 222.949C125.298 219.408 124.753 215.049 121.893 212.053C118.352 208.648 112.087 208.103 107.32 208.648C107.184 208.648 107.048 208.648 107.184 208.376C107.865 201.43 102.281 195.982 95.7437 194.62C91.9303 193.939 87.9807 193.939 84.1673 194.62C82.5329 194.893 80.8986 195.437 79.4005 196.118C78.8557 196.391 78.3109 196.663 77.9024 196.936C78.0386 196.936 77.63 197.344 77.9024 196.936C78.0386 196.799 78.1747 196.663 78.1747 196.663C78.5833 196.391 78.0385 196.936 78.1747 196.663C78.3109 196.391 78.0386 196.799 78.0386 196.799C78.0386 196.799 77.7661 197.072 77.63 197.344C77.2214 197.889 76.949 198.434 76.6766 198.978C76.1319 199.932 75.7232 201.021 75.4508 202.111C74.9061 204.29 74.6337 206.469 74.6337 208.784C74.6337 211.644 74.9061 214.368 75.5871 217.092C75.8594 218.182 71.7736 221.723 70.6841 221.723C61.8315 220.633 52.7065 221.859 44.5349 225.264C43.0368 225.945 41.5387 226.762 40.1767 227.579C39.7681 227.852 39.2234 228.396 39.0872 228.396L38.8148 228.669C38.5424 228.941 38.27 229.213 38.1338 229.486C35.6823 232.482 33.9118 236.023 33.2308 239.7C31.8689 246.51 34.1842 253.047 38.5424 258.359C40.9939 261.491 44.1263 264.215 47.5312 266.394C48.2121 266.803 43.4454 270.616 43.0368 270.889C42.0834 271.297 41.1301 271.706 40.3129 272.387C40.8577 271.842 40.1767 272.659 40.0405 272.932C39.3595 274.157 38.8148 275.519 38.8148 277.017C38.6786 280.15 39.4958 283.146 41.1301 285.734C43.0368 289.275 45.4883 292.407 48.4845 295.131C49.1655 295.676 44.3987 299.626 43.5816 299.762C41.9472 299.898 40.4491 300.17 38.951 300.715C38.6786 300.851 37.4528 301.396 37.4528 301.396C38.1338 300.851 38.8148 300.17 39.4958 299.489C39.3596 299.762 39.2234 299.898 39.2234 300.17C38.8148 301.805 39.0872 303.575 39.9044 305.073C43.5816 312.836 52.9789 311.202 59.6524 308.75C61.6953 308.07 63.7382 307.116 65.7811 306.027C67.0069 305.346 65.5087 307.252 65.3725 307.389C64.1468 308.75 62.9211 309.704 61.5591 310.521Z" fill="#262626"/>
<path d="M105.959 258.902C105.959 258.902 98.8768 242.695 87.4365 249.096C75.9963 255.497 80.8992 294.857 102.418 288.32" fill="white"/>
<path d="M103.508 261.218C102.01 257.541 99.5589 254.408 96.4264 252.093C94.2473 250.323 91.251 249.778 88.5272 250.459C87.8462 250.731 87.3014 251.004 86.7567 251.276C87.1652 251.004 87.1652 251.14 86.7567 251.276C86.7567 251.276 87.3014 250.731 87.029 251.004C86.7566 251.276 87.029 251.14 87.1652 250.867C86.8928 251.14 86.8928 251.276 87.1652 250.867L86.7567 251.412L86.4843 251.821C86.4843 251.821 86.7567 251.412 86.6205 251.684L86.2119 252.365C84.3052 256.315 84.0328 261.763 84.4414 266.393C84.8499 271.705 86.6204 276.744 89.7529 281.102C93.0215 285.733 98.8779 287.64 104.326 285.869C105.824 285.46 105.007 287.503 104.598 287.912C103.645 289.274 102.419 290.227 100.785 290.772C95.473 292.543 89.4805 291.044 85.6671 286.822C81.8537 282.6 79.947 276.608 79.266 271.024C78.4489 265.44 79.1298 259.72 81.4451 254.408C84.169 248.688 91.1149 243.513 97.7884 245.556C102.828 247.054 106.641 251.957 108.684 256.587C109.365 258.63 104.053 262.444 103.508 261.218Z" fill="#262626"/>
<path d="M132.107 249.233C133.742 249.233 134.968 250.595 134.831 252.229C134.831 252.365 134.831 252.502 134.831 252.638C134.287 255.77 130.337 255.089 130.065 252.229C129.792 250.867 130.473 249.641 131.835 249.233C131.971 249.369 131.971 249.369 132.107 249.233Z" fill="#262626"/>
<path d="M155.534 435.273L230.849 435.818C230.849 435.818 230.849 410.213 198.844 406.4C166.839 402.587 155.534 435.273 155.534 435.273Z" fill="#F5EE30"/>
<path d="M155.127 432.958L180.595 433.094L221.181 433.366H230.579L227.718 435.001C227.718 436.09 227.718 435.273 227.718 434.864C227.718 434.183 227.582 433.503 227.446 432.822C227.31 431.868 227.037 430.779 226.765 429.825C226.629 429.281 226.493 428.736 226.22 428.191C226.084 427.919 226.084 427.51 225.948 427.238L225.812 426.693C225.676 426.284 225.812 426.829 225.812 426.557C223.224 420.019 218.049 414.708 211.648 411.848C202.795 407.898 191.9 406.945 182.775 410.486C175.693 413.346 169.564 418.385 165.206 424.786C163.435 427.374 161.801 429.961 160.439 432.822C160.166 433.23 160.03 433.775 159.758 434.183C159.622 434.32 159.622 434.592 159.485 434.728C159.622 434.32 159.213 435.273 159.485 434.728C159.349 435.137 159.213 435.409 159.077 435.682C158.532 437.18 156.762 437.588 155.263 437.18C154.174 437.044 151.859 435.818 152.403 434.32C156.353 422.743 165.478 412.256 176.51 407.081C187.133 402.178 199.663 402.723 210.558 406.4C219.002 409.26 226.629 414.844 230.715 422.879C232.894 426.965 234.12 431.46 234.256 436.09C234.256 437.316 232.213 437.725 231.396 437.725L205.927 437.588L165.342 437.316H156.081C154.719 437.316 152.54 436.635 152.267 435.001C151.995 433.366 153.902 432.958 155.127 432.958Z" fill="#F5EE30"/>
<path d="M216.41 425.468C216.274 424.515 216.001 423.425 215.729 422.472C215.593 422.063 215.457 421.655 215.184 421.11C214.912 420.429 215.457 421.655 215.048 420.974C214.912 420.838 214.912 420.565 214.776 420.293C214.367 419.476 213.822 418.659 213.141 417.841C212.869 417.433 212.46 417.024 212.188 416.616L212.052 416.48L211.507 415.935C210.826 415.254 210.145 414.709 209.328 414.164C208.919 413.892 208.511 413.619 208.102 413.347L207.83 413.211H207.966L207.285 412.938C206.468 412.53 205.515 412.258 204.697 411.985L204.016 411.849C204.697 411.985 204.016 411.849 203.88 411.849C203.335 411.713 202.791 411.713 202.246 411.713C201.02 411.713 199.931 410.623 199.931 409.261C199.931 408.989 199.931 408.853 200.067 408.58C200.612 406.946 202.246 405.856 204.016 405.856C213.005 406.265 221.449 413.483 222.675 422.472C222.947 424.106 221.858 425.741 220.223 426.422C218.998 427.239 216.682 427.239 216.41 425.468Z" fill="white"/>
<path d="M177.054 396.867C177.054 396.867 189.72 390.466 195.304 383.112C200.888 375.757 204.701 377.528 204.974 384.201C205.246 390.875 193.806 398.774 193.806 398.774L177.054 396.867Z" fill="white"/>
<path d="M177.733 394.28C178.142 394.144 178.551 393.871 178.959 393.599L180.321 392.782H180.185L180.73 392.509L181.819 391.828C184.815 390.058 187.676 388.015 190.399 385.7C191.761 384.61 192.851 383.384 193.94 382.022C195.439 379.98 197.209 378.209 199.252 376.711C201.84 375.077 204.972 374.532 206.47 377.664C207.832 380.797 207.696 384.338 206.198 387.334C204.427 390.739 201.976 393.735 199.116 396.323C197.481 397.957 195.711 399.319 193.804 400.681C192.306 401.634 190.944 401.226 189.31 401.09L175.146 399.591C173.648 399.455 174.873 397.14 175.146 396.459C175.827 395.369 177.189 393.871 178.687 394.007L195.439 395.914L193.668 396.459C194.349 396.05 194.894 395.506 195.575 395.097C196.256 394.688 195.166 395.369 195.575 395.097L196.119 394.688L196.937 394.007C197.754 393.327 198.435 392.646 199.116 391.965L199.661 391.284C199.933 390.875 200.342 390.603 200.614 390.194C200.886 389.785 200.75 390.058 200.614 390.194L201.022 389.513C201.159 389.241 201.295 389.105 201.431 388.832C201.159 389.241 201.567 388.56 201.567 388.424C201.84 387.879 201.976 387.334 202.112 386.653C202.248 385.563 202.112 384.61 201.84 383.521C201.431 382.295 200.75 380.933 199.524 380.933C199.116 380.933 198.707 381.205 198.299 381.614C197.345 382.431 196.528 383.521 195.847 384.474C192.578 388.424 188.765 391.692 184.407 394.416C181.683 396.187 178.823 397.957 175.963 399.319C174.737 400 173.92 399.183 174.329 397.821C174.873 396.459 176.099 395.097 177.733 394.28Z" fill="#262626"/>
<path d="M151.855 409.669C151.855 409.669 173.782 389.376 190.262 392.1C206.741 394.824 220.633 410.486 215.73 412.256C210.827 414.027 199.659 404.085 188.491 407.081C177.323 410.077 174.327 414.163 174.327 414.163C174.327 414.163 192.985 418.657 189.989 424.65C186.993 430.642 138.099 425.331 138.099 425.331L151.855 409.669Z" fill="white"/>
<path d="M149.404 407.353C154.035 403.131 159.074 399.454 164.386 396.321C173.238 391.01 183.317 387.196 193.803 389.92C199.524 391.418 204.835 394.006 209.466 397.547C213.143 399.999 216.275 403.267 218.727 407.081C220.361 410.077 220.906 414.299 216.548 415.252C212.19 416.206 207.287 413.209 203.337 411.711C200.477 410.485 197.481 409.668 194.348 409.396C190.943 409.396 187.539 410.213 184.542 411.575C183.18 412.12 181.955 412.665 180.729 413.346C180.048 413.754 179.367 414.163 178.822 414.571C178.277 414.98 177.869 415.388 177.46 415.797C177.052 416.206 176.915 416.478 177.46 415.797L175.145 411.303C180.184 412.528 185.496 414.299 189.718 417.295C192.305 419.202 194.893 422.334 193.395 425.739C192.578 427.782 190.399 428.463 188.492 429.008C182.908 430.506 176.779 430.234 171.059 430.234C164.113 430.097 157.304 429.689 150.358 429.144C146.408 428.872 142.459 428.463 138.645 428.054C136.057 427.782 134.015 425.058 135.921 422.743L149.404 407.353C150.358 405.991 152.809 406.808 153.899 407.762C155.124 408.715 155.397 410.485 154.307 411.847L154.171 411.984L140.552 427.646L137.828 422.334C146.817 423.288 155.805 423.969 164.794 424.241C168.063 424.377 171.195 424.377 174.464 424.377C177.052 424.377 179.639 424.241 182.091 423.969C183.18 423.832 184.134 423.696 185.223 423.424L185.904 423.288L186.994 422.879C187.675 422.607 186.721 423.288 187.13 422.743C187.539 422.198 186.994 422.879 186.994 423.015C187.13 422.879 187.266 422.743 187.266 422.607C187.266 423.288 187.13 422.743 187.13 422.743C187.266 422.743 187.13 422.47 187.13 422.743V422.879C187.13 422.743 187.13 422.743 187.13 422.607C187.13 422.607 187.266 422.743 187.13 422.879C186.994 423.015 186.994 422.47 186.994 422.47C186.994 422.47 187.266 423.015 187.13 422.743L186.994 422.47C187.13 422.607 186.585 422.334 186.994 422.47L186.177 421.789C185.632 421.245 186.449 421.926 185.768 421.517C185.087 421.109 184.406 420.7 183.589 420.291C183.044 420.019 182.363 419.747 181.818 419.474C181.001 419.202 180.32 418.793 179.503 418.657C177.596 417.976 175.69 417.431 173.783 416.887C172.149 416.478 170.106 414.026 171.468 412.392C172.966 410.622 174.736 409.123 176.779 408.17C181.818 405.174 187.402 403.54 193.259 403.54C198.706 403.676 203.746 405.855 208.649 407.898C209.602 408.306 210.555 408.715 211.645 408.987L213.007 409.396C213.688 409.532 213.279 409.396 213.007 409.396C213.279 409.396 213.552 409.532 213.824 409.532C214.369 409.668 214.096 409.532 213.824 409.532C213.96 409.532 214.096 409.532 214.369 409.396C213.824 409.668 214.641 408.851 213.96 409.668C214.096 409.532 214.096 409.396 213.688 409.941C213.824 409.804 213.824 409.532 213.552 410.349C213.688 409.668 213.552 410.894 213.552 410.349C213.552 409.804 213.824 410.758 213.552 410.213C213.415 409.941 213.415 409.668 213.279 409.396C213.143 409.124 213.552 409.941 213.279 409.532C213.143 409.396 213.143 409.26 213.007 409.123C212.871 408.987 212.598 408.443 212.326 408.034C211.236 406.536 210.01 405.174 208.512 404.084C204.971 400.952 200.886 398.5 196.391 396.73C192.169 394.959 187.539 394.551 182.908 395.368C178.414 396.457 174.192 398.228 170.106 400.543C164.386 403.676 158.938 407.625 154.171 412.12C151.72 414.299 146.544 409.941 149.404 407.353Z" fill="#262626"/>
<path d="M102.281 465.917C102.281 465.917 116.717 504.46 152.264 526.387C187.81 548.314 294.586 486.618 305.209 476.948C315.832 467.279 317.33 469.185 324.957 475.042C332.584 480.898 335.989 473.952 334.218 469.322C332.448 464.691 327.273 461.695 327.273 461.695C327.273 461.695 328.634 452.025 317.33 452.434C317.33 452.434 322.37 448.484 317.603 445.488C312.836 442.491 303.03 440.857 292.407 450.799C292.407 450.799 300.306 441.81 295.403 438.542C290.5 435.273 289.138 442.9 275.519 452.842C261.9 462.784 189.308 482.396 189.308 482.396L166.837 430.643L102.281 465.917Z" fill="white"/>
<path d="M105.277 464.283C107.184 469.05 109.363 473.68 111.95 478.175C117.807 488.661 125.161 498.467 133.605 507.048C138.781 512.359 144.501 517.126 150.629 521.348C152.672 522.846 154.851 524.072 157.167 525.161L158.256 525.706L158.937 525.978C158.801 525.978 158.256 525.706 158.937 525.978C159.891 526.251 160.844 526.523 161.797 526.796C169.424 528.702 178.685 528.158 186.312 526.932C196.799 525.161 207.15 522.437 217.092 518.76C227.715 515.083 237.793 510.861 248.144 505.958C264.896 498.331 280.967 489.615 296.493 479.809C297.582 479.128 298.672 478.311 299.898 477.63C298.808 478.311 300.306 477.357 300.715 477.085L301.804 476.268C305.618 473.408 308.886 469.594 313.517 467.96C319.101 465.917 323.187 469.731 327.409 472.727C328.226 473.272 329.043 473.816 329.996 474.225C330.405 474.361 330.677 474.361 331.086 474.361C331.222 474.225 330.677 474.225 331.086 474.361C330.95 474.497 331.631 474.225 330.95 474.497C331.086 474.497 331.631 473.816 331.222 474.361C331.358 474.225 331.631 473.544 331.358 474.089C331.767 473.272 331.903 472.454 331.631 471.637C331.358 470.411 330.813 469.186 329.996 468.232C329.043 467.143 328.09 466.19 326.864 465.236C327.272 465.509 326.319 464.964 326.183 464.828L325.638 464.555C324.685 464.01 324.14 462.921 324.276 461.967C324.276 461.559 324.276 460.333 324.276 461.287C324.276 460.742 324.14 460.333 324.14 459.788C324.14 459.652 324.004 459.38 324.004 459.107C323.868 458.29 324.14 459.244 323.868 458.835C323.595 458.426 323.595 458.29 323.459 458.018C323.323 457.745 322.914 457.201 323.323 457.882C323.05 457.609 322.914 457.337 322.642 457.065L322.233 456.656C322.506 456.792 322.506 456.792 322.097 456.656C320.599 455.839 318.965 455.43 317.194 455.566C315.56 455.566 314.334 454.341 314.198 452.706C314.198 451.753 314.606 450.936 315.287 450.391L315.696 450.119C316.241 449.438 315.832 449.982 315.696 450.119L316.105 449.71C316.105 449.71 316.649 448.893 316.377 449.438C316.513 449.029 316.513 449.438 316.513 449.165C316.513 448.893 316.513 449.029 316.377 448.757C314.879 447.531 313.108 446.714 311.065 446.578C308.75 446.305 306.299 446.578 303.983 447.259C300.579 448.484 297.446 450.527 294.722 453.115C293.496 454.204 291.726 454.341 290.364 453.524C289.138 452.57 288.866 450.936 289.819 449.71C289.819 449.71 289.819 449.574 289.955 449.574C290.909 448.484 291.862 447.259 292.543 446.033C293.088 445.08 293.633 444.126 293.769 443.173C294.041 442.628 293.905 441.947 293.633 441.538C294.041 442.083 293.224 441.266 293.633 441.538C293.496 441.402 293.224 441.266 293.088 441.266C292.407 440.721 293.496 441.402 292.815 441.13C293.36 441.402 293.36 441.13 293.088 441.13C292.815 441.13 293.905 440.994 293.36 441.13C292.815 441.266 292.952 441.402 293.496 440.994C293.36 441.13 293.088 441.13 292.952 441.266C293.496 440.721 292.407 441.675 292.952 441.266C292.815 441.402 292.543 441.538 292.407 441.675C292.271 441.811 291.726 442.219 291.454 442.628C290.636 443.445 289.819 444.399 289.002 445.216C284.916 449.846 280.286 453.796 275.11 457.065C271.978 458.835 268.709 460.333 265.304 461.695C246.101 469.594 225.944 475.451 206.06 481.171C200.749 482.669 195.437 484.167 190.262 485.665C188.9 486.074 187.402 485.529 186.721 484.303L166.973 439.087L164.113 432.686L168.471 433.639L146.544 445.624L111.814 464.691L103.779 469.05C102.417 470.003 100.646 469.731 99.5568 468.505C98.6034 467.143 98.8758 465.372 100.102 464.283C100.374 464.147 100.646 463.874 100.919 463.874L122.846 451.889L157.575 432.822L165.611 428.464C166.973 427.783 169.288 427.783 169.969 429.417L189.717 474.634L192.577 481.035L189.036 479.673C203.881 475.723 218.59 471.365 233.163 466.734C238.61 464.964 244.058 463.193 249.506 461.287C251.957 460.469 254.545 459.516 256.997 458.563C259.448 457.609 260.538 457.201 263.125 456.111C266.53 454.749 269.799 453.251 272.931 451.344L273.748 450.8C274.293 450.527 273.067 451.344 273.476 450.936L274.157 450.391C276.064 449.029 277.834 447.531 279.605 445.897C282.056 443.718 284.235 441.402 286.414 439.087C287.912 437.18 290.092 435.682 292.407 435.001C295.267 434.456 298.127 435.682 299.761 438.134C302.485 442.764 298.399 449.029 295.403 452.434L290.5 448.893C296.901 442.9 305.754 438.678 314.606 440.857C317.739 441.675 321.825 443.309 322.778 446.714C323.731 449.71 321.825 452.843 319.509 454.749L317.603 449.574C322.233 449.438 327.136 450.936 329.452 455.294C330.405 457.337 330.813 459.516 330.541 461.831L329.179 459.244C333.81 461.967 338.44 466.87 337.896 472.727C337.759 475.723 335.853 478.447 333.129 479.809C329.315 481.579 325.502 479.809 322.369 477.494C321.28 476.676 320.19 475.859 319.237 475.178C318.692 474.77 318.147 474.497 317.603 474.225L317.058 473.953L316.513 473.68C316.922 473.816 316.786 473.816 316.513 473.68C316.105 473.544 315.151 473.544 315.832 473.544H315.015C315.832 473.544 315.015 473.544 314.879 473.544C314.743 473.544 313.925 473.953 314.606 473.544L314.062 473.816C313.381 474.089 312.836 474.497 312.155 474.906C309.295 476.949 306.843 479.4 304.12 481.443C298.399 485.529 292.407 489.07 286.278 492.611C277.426 497.65 268.437 502.417 259.312 506.911C238.747 516.99 217.092 526.251 194.62 531.29C185.223 533.333 175.417 534.831 165.747 533.878C161.525 533.469 157.303 532.516 153.353 530.881C147.497 528.294 142.185 524.072 137.419 520.122C126.795 511.133 117.534 500.646 110.18 488.798C105.958 482.397 102.417 475.587 99.4206 468.641C99.2844 468.369 99.1482 467.96 99.012 467.688C98.3311 466.053 99.012 464.283 100.646 463.466C102.144 462.648 104.596 462.648 105.277 464.283Z" fill="#262626"/>
<path d="M309.022 460.198C311.474 458.972 314.198 458.019 316.921 457.474C321.416 456.521 326.319 456.793 330.132 459.517C331.222 460.334 329.724 461.696 329.043 462.241C328.362 462.786 327.545 463.194 326.727 463.466C326.183 463.603 325.365 463.875 324.957 463.603C323.323 462.377 321.28 461.696 319.237 461.424C318.692 461.424 318.283 461.287 317.739 461.287H316.921C316.921 461.287 316.241 461.287 316.513 461.287C315.56 461.424 314.742 461.56 313.789 461.696L313.108 461.832C312.563 461.968 313.653 461.696 312.972 461.832C312.563 461.968 312.155 461.968 311.882 462.105C311.201 462.241 310.657 462.513 309.976 462.786C310.112 462.786 310.793 462.513 310.248 462.649L309.976 462.786L309.431 463.058L308.886 463.33C308.341 463.603 306.026 464.42 305.89 463.058C305.754 461.696 308.069 460.606 309.022 460.198Z" fill="#262626"/>
<path d="M300.988 454.069C303.031 452.708 305.074 451.618 307.253 450.665C311.339 448.758 315.833 447.805 320.327 447.941C323.324 448.077 320.872 454.478 318.285 454.206C314.199 454.069 310.113 455.023 306.3 456.793L305.755 457.066L305.346 457.202L305.074 457.338L304.529 457.611C303.984 457.883 303.439 458.291 302.895 458.564C302.35 458.836 301.805 459.245 301.397 459.517C300.716 460.062 299.762 459.926 299.217 459.381C298.945 459.109 298.809 458.7 298.809 458.292C298.809 456.793 299.626 455.159 300.988 454.069Z" fill="#262626"/>
<path d="M2.72528 523.664C2.72528 523.664 12.8036 363.773 83.2157 332.448C122.576 314.879 150.223 372.898 167.111 429.009C171.878 439.224 188.63 474.362 195.031 474.362C202.521 474.362 257.271 456.384 257.271 456.384C257.271 456.384 276.202 496.017 271.435 503.507C266.668 510.998 210.148 539.326 177.189 538.373C166.43 538.1 153.628 530.746 141.507 520.94" fill="white"/>
<path d="M3.05176e-05 525.297C0.27243 519.849 0.9534 514.538 1.49817 509.226C2.99631 496.288 4.90305 483.485 7.21832 470.683C10.3508 453.795 14.4366 437.18 19.6119 420.836C24.7873 403.812 31.7332 387.469 40.5858 372.079C48.7574 358.051 59.3804 344.84 72.9998 335.579C80.0819 330.812 88.2535 326.727 96.8337 326.318C106.095 325.773 114.539 329.587 121.757 335.171C130.201 341.98 136.738 351.105 142.322 360.366C148.86 371.671 154.444 383.656 159.074 395.913C161.662 402.45 163.841 409.124 166.02 415.797C167.11 419.202 168.063 422.743 169.289 426.148C169.833 427.646 170.514 429.008 171.195 430.37C175.145 438.678 179.231 446.849 183.725 454.885C185.768 458.698 188.083 462.375 190.671 465.916C191.624 467.142 192.578 468.368 193.667 469.457C194.076 469.866 194.484 470.275 195.029 470.683C195.302 470.956 195.71 471.092 195.983 471.228C196.527 471.364 196.255 471.364 195.983 471.228H196.391C196.8 471.228 197.208 471.092 197.617 471.092C198.706 470.956 199.796 470.683 201.022 470.411C204.29 469.73 207.15 468.913 210.419 467.959C225.264 463.874 239.973 459.107 254.682 454.34L257.678 453.387C258.359 453.114 259.176 453.114 259.585 453.931C263.398 461.967 266.803 470.138 269.799 478.582C271.979 484.03 273.477 489.75 274.43 495.47C275.247 499.556 273.749 503.914 270.617 506.638C267.076 509.635 263.262 512.222 259.176 514.401C253.184 517.806 246.919 520.939 240.654 523.663C226.081 530.472 210.691 535.648 194.893 539.052C187.811 540.414 180.32 541.64 173.102 540.823C163.16 539.733 153.899 534.286 146 528.566C143.548 526.931 141.233 525.024 139.054 523.254C137.147 521.62 141.505 516.444 143.412 518.079C151.447 524.48 160.164 530.745 170.106 533.741C177.052 535.92 184.406 535.375 191.488 534.286C206.606 532.107 221.315 526.931 235.479 521.075C246.374 516.444 257.542 511.405 267.212 504.459L267.757 504.051C268.029 503.778 268.301 503.506 268.71 503.37C268.982 503.097 269.255 502.825 269.527 502.689C269.255 503.234 268.982 503.097 269.527 502.689C269.799 502.144 269.391 502.961 269.255 503.097C269.527 502.825 269.255 502.825 269.255 503.097C269.255 503.37 269.119 503.37 269.255 502.961C269.255 502.825 269.255 502.689 269.391 502.416C269.527 502.008 269.391 502.28 269.391 502.28C269.391 501.872 269.391 501.327 269.391 500.918C269.255 495.879 267.484 490.704 265.85 485.937C263.943 480.217 261.628 474.633 259.313 469.049C257.951 465.644 256.044 462.375 254.818 458.971C254.818 458.834 254.682 458.562 254.546 458.426L256.453 458.971C244.876 462.784 233.163 466.461 221.451 470.002C214.096 472.181 206.742 474.361 199.251 476.131C197.345 476.676 195.438 476.948 193.531 477.084C190.943 477.084 188.901 474.633 187.402 472.726C181.818 465.78 177.596 457.609 173.511 449.709C171.468 445.76 169.425 441.81 167.518 437.724C166.701 436.09 166.02 434.592 165.203 432.958C164.25 430.779 163.432 428.463 162.751 426.148C158.802 412.937 154.035 399.999 148.587 387.469C143.82 376.029 137.964 365.269 130.882 355.055C125.162 347.156 118.08 339.529 109.227 335.171C101.328 331.357 92.2031 330.949 84.0315 334.353C77.358 337.214 71.0931 341.027 65.7816 345.93C64.2834 347.156 62.9215 348.518 61.5596 349.88L61.1509 350.288L60.1976 351.378C59.5166 352.059 58.8357 352.876 58.1547 353.693C56.929 355.191 55.567 356.689 54.4775 358.187L52.707 360.503C51.8898 361.592 52.026 361.456 51.2088 362.546C41.2667 376.573 34.3208 391.827 28.4645 408.034C22.7444 424.105 18.1138 440.721 14.709 457.472C11.8489 471.364 9.3974 485.256 7.62689 499.284C7.08212 504.051 6.53732 508.817 5.99255 513.584L5.72018 516.308C5.72018 516.444 5.72018 516.717 5.72018 516.853C5.72018 516.444 5.72018 517.534 5.72018 516.853C5.72018 517.261 5.72018 517.67 5.58398 517.942C5.44778 518.896 5.44778 519.985 5.31158 520.939C5.31158 521.211 5.31158 521.62 5.31158 521.892C5.17538 523.526 4.22205 525.025 2.86011 525.842C2.04294 526.523 3.05176e-05 527.067 3.05176e-05 525.297Z" fill="#262626"/>
<path d="M136.332 518.487C121.487 502.689 109.774 484.166 101.739 464.01C99.4232 458.153 97.3803 452.297 95.746 446.305C95.4736 445.351 98.0613 446.168 98.3337 446.305C99.1508 446.577 101.738 447.394 102.011 448.484C107.731 469.185 117.401 488.525 130.203 505.821C133.88 510.724 137.83 515.491 142.052 519.985C143.005 521.075 140.962 520.666 140.554 520.53C138.919 520.121 137.421 519.44 136.332 518.487Z" fill="#262626"/>
<path d="M86.2112 305.616C68.535 305.616 54.2057 291.287 54.2057 273.611C54.2057 255.935 68.535 241.605 86.2112 241.605C103.887 241.605 118.217 255.935 118.217 273.611C118.217 291.287 103.887 305.616 86.2112 305.616Z" fill="#F5EE30"/>
<path d="M57.6104 274.429C57.7466 286.414 64.9649 298.535 76.5413 302.621C88.1178 306.707 100.92 301.804 108.274 292.406C116.174 282.192 117.127 268.3 110.59 257.132C104.461 246.781 92.7483 241.197 81.0357 243.921C67.1439 247.326 57.6104 260.401 57.6104 274.429C57.6104 276.063 50.9369 275.246 50.9369 273.067C51.0731 258.766 60.3343 246.237 73.9536 241.878C87.8454 237.52 104.461 241.878 113.858 253.183C122.983 264.078 124.073 279.604 116.582 291.725C108.819 304.255 93.5655 309.43 79.5375 306.434C63.4667 303.166 51.0731 289.682 51.0731 273.067C50.9369 271.296 57.6104 272.113 57.6104 274.429Z" fill="#F5EE30"/>
<path d="M68.7771 215.321C66.1894 223.221 63.8741 231.392 67.0066 239.564C68.6409 243.377 70.4114 246.918 72.4543 250.459C74.6334 254.273 76.8125 257.95 79.1278 261.627C80.6259 263.942 73.9525 264.896 72.5905 262.717C70.139 258.903 67.8237 254.954 65.6447 251.004C63.4656 247.327 61.695 243.513 60.1969 239.564C57.2007 231.12 59.6521 222.676 62.376 214.368C62.9208 212.053 69.7304 212.461 68.7771 215.321Z" fill="#F5EE30"/>
<path d="M107.32 288.322C112.495 298.809 122.165 306.3 133.605 308.751C137.827 309.568 136.057 315.833 132.243 315.016C118.624 312.292 107.184 303.303 101.191 290.773C100.374 289.139 101.872 287.232 103.37 286.688C105.005 286.007 106.775 286.688 107.32 288.322C107.456 288.322 107.456 288.322 107.32 288.322Z" fill="#F5EE30"/>
<path d="M75.3168 271.705C75.3168 276.745 78.1768 281.375 82.6712 283.827C84.9865 285.052 87.5742 285.461 90.1619 285.189C90.4342 285.189 90.8428 285.052 91.1152 285.052C91.7961 284.78 91.3876 285.052 91.1152 285.052C88.9361 286.006 90.298 285.461 90.8428 285.052C91.9324 284.235 92.7495 283.418 93.5667 282.329C97.9249 276.336 96.6991 267.892 90.7066 263.534C88.2551 261.763 85.3951 260.81 82.3988 260.946C81.7178 260.946 81.0369 261.082 80.3559 261.219C79.2663 261.355 80.9007 260.946 80.9007 260.946C81.9902 260.538 81.3093 260.81 81.0369 260.946C79.9473 261.627 78.994 262.58 78.1768 263.534C76.4063 265.713 75.3168 268.709 75.3168 271.705C75.3168 272.386 72.8653 273.204 72.3205 273.34C72.0481 273.476 69.0518 274.565 69.0518 274.157C69.0518 271.161 70.1414 268.164 71.9119 265.713C74.2272 263.125 77.0873 261.082 80.3559 259.857C83.6245 258.222 87.3018 257.677 90.979 258.086C98.4697 259.312 103.509 266.258 102.283 273.612C102.011 275.519 101.33 277.289 100.24 278.924C98.3335 281.648 95.7458 283.69 92.7495 285.052C89.3447 286.823 85.5313 287.776 81.7178 287.776C74.6358 287.231 69.0518 281.375 68.9156 274.157C68.9156 273.476 71.3671 272.659 71.9119 272.386C72.3205 272.523 75.3168 271.433 75.3168 271.705Z" fill="white"/>
<path d="M147.908 304.255H136.604C132.791 304.255 129.522 307.388 129.522 311.337C129.522 315.151 132.654 318.419 136.604 318.419H147.908C151.721 318.419 154.99 315.287 154.99 311.337C154.99 307.524 151.858 304.255 147.908 304.255Z" fill="#F5EE30"/>
<path d="M136.604 319.101H147.908C152.13 319.237 155.807 315.968 155.943 311.746C156.079 307.524 152.811 303.847 148.589 303.711C148.316 303.711 148.18 303.711 147.908 303.711H136.604C132.382 303.574 128.704 306.843 128.568 311.065C128.432 315.287 131.701 318.964 135.923 319.101C136.195 319.101 136.467 319.101 136.604 319.101ZM147.908 304.936C151.449 304.8 154.445 307.524 154.581 310.929C154.717 314.47 151.993 317.466 148.589 317.602C148.452 317.602 148.18 317.602 148.044 317.602H136.74C133.199 317.739 130.202 315.015 130.066 311.61C129.93 308.069 132.654 305.073 136.059 304.936C136.195 304.936 136.467 304.936 136.604 304.936H147.908Z" fill="#F5EE30"/>
<path d="M158.94 8.44345C155.807 8.85203 152.811 9.533 149.951 10.7587L143.414 5.311L132.246 13.755L135.787 21.518C133.88 23.9695 132.382 26.5572 131.156 29.4173L122.712 30.0982L120.806 44.1262L128.841 47.1224C129.25 50.1187 129.931 53.1149 131.156 55.975L125.709 62.5123L134.153 73.8164L141.916 70.2753C144.367 72.182 146.955 73.8164 149.815 74.9059L150.496 83.3499L164.524 85.2566L167.384 77.3574C170.38 76.9488 173.376 76.2678 176.236 75.0421L182.774 80.4898L194.078 72.0458L190.537 64.2828C192.443 61.8313 194.078 59.2437 195.167 56.3836L203.611 55.7026L205.654 41.8109L197.755 38.8146C197.346 35.8184 196.529 32.8221 195.44 29.962L200.887 23.4248L192.307 12.1207L184.544 15.6617C182.093 13.755 179.505 12.2569 176.645 11.0311L175.964 2.58713L161.936 0.68042L158.94 8.44345ZM165.749 24.1057C176.236 25.4677 183.455 35.1374 182.093 45.6243C180.731 56.1112 171.061 63.3295 160.574 61.9675C150.087 60.6056 142.869 50.9358 144.231 40.4489V40.3127C145.729 29.962 155.263 22.7438 165.749 24.1057Z" fill="#F5EE30"/>
<path d="M164.659 86.2105L167.655 78.1751C170.515 77.7665 173.239 77.0856 175.963 75.996L182.636 81.58L194.757 72.455L191.216 64.5558C192.987 62.2405 194.485 59.789 195.575 57.2013L204.155 56.5203L206.334 41.539L198.162 38.5428C197.754 35.6827 197.073 32.9589 195.983 30.235L201.567 23.5615L192.442 11.4403L184.543 14.9813C182.228 13.2108 179.776 11.7127 177.052 10.6231L176.371 2.0429L161.39 0L158.394 8.03542C155.534 8.444 152.81 9.12497 150.086 10.2145L143.412 4.63058L131.291 13.7556L134.832 21.6548C133.062 23.9701 131.564 26.4216 130.474 29.0092L121.894 29.6902L119.851 44.6715L127.886 47.6678C128.295 50.5278 128.976 53.2517 130.065 55.9756L124.482 62.5129L133.47 74.7703L141.37 71.2292C143.685 72.9998 146.136 74.3617 148.724 75.5874L149.405 84.1676L164.659 86.2105ZM176.235 74.3617L175.827 74.4979C172.966 75.5874 170.106 76.4046 167.11 76.8132H166.702L163.705 84.7124L150.767 82.9419L150.086 74.6341L149.677 74.4979C146.953 73.2722 144.23 71.774 141.914 69.8673L141.642 69.5949L134.015 72.9998L126.116 62.649L131.564 56.248L131.427 55.8394C130.338 52.9793 129.521 50.1192 129.112 47.123V46.7144L121.213 43.7181L122.983 30.7797L131.291 30.0988L131.427 29.6902C132.653 26.9663 134.151 24.2425 136.058 21.9272L136.33 21.6548L132.926 14.0279L143.276 6.12871L149.677 11.5765L150.086 11.4403C152.81 10.3507 155.534 9.66975 158.394 9.26117L158.939 9.94214L162.207 1.36194L175.146 3.13246L175.827 11.4403L176.235 11.5765C178.959 12.8022 181.683 14.3003 183.998 16.0708L184.271 16.3432L191.897 12.9384L199.797 23.2891L194.349 29.6902L194.485 30.0988C195.575 32.8227 196.392 35.8189 196.8 38.8152V39.2238L204.7 42.22L202.929 55.1584L194.621 55.8394L194.485 56.248C193.259 58.9718 191.761 61.6957 189.854 64.011L189.582 64.2834L193.123 72.0464L182.636 79.8094L176.235 74.3617ZM163.024 62.649C173.92 62.649 182.772 53.7965 182.772 43.0372C182.772 33.2312 175.69 24.9234 166.021 23.5615H165.748C154.989 22.1996 145.047 29.8264 143.685 40.5857C142.323 51.2088 149.677 60.8785 160.3 62.5129C161.254 62.6491 162.207 62.649 163.024 62.649ZM165.612 24.7872C175.418 24.9234 183.317 32.8227 183.181 42.6286C183.045 52.4345 175.146 60.3338 165.34 60.1976C155.534 60.0614 147.634 52.1621 147.771 42.3562C147.907 32.6865 155.67 24.9234 165.34 24.7872H165.612Z" fill="#F5EE30"/>
<path d="M83.3501 49.1641C80.8987 49.4365 78.5834 50.1175 76.4043 50.9346L71.2289 46.5764L62.3763 53.2499L65.1002 59.3786C63.6021 61.2853 62.3763 63.3283 61.423 65.6435L54.7495 66.1883L53.2514 77.0838L59.5163 79.3991C59.7887 81.8506 60.4696 84.1659 61.2868 86.345L56.9286 91.5203L63.6021 100.373L69.7308 97.649C71.6375 99.1472 73.6804 100.373 75.9957 101.326L76.5405 108L87.436 109.498L89.8874 103.369C92.3389 103.097 94.6542 102.416 96.8333 101.599L102.009 105.957L110.861 99.2834L108.137 93.1546C109.635 91.2479 110.861 89.205 111.815 86.8897L118.488 86.345L119.986 75.4495L113.721 73.1342C113.449 70.6827 112.768 68.3674 111.951 66.1883L116.309 61.013L109.635 52.1604L103.507 54.8842C101.6 53.3861 99.5572 52.1604 97.2419 51.207L96.6971 44.5335L85.8016 43.0354L83.3501 49.1641ZM88.7979 61.4215C96.9695 62.5111 102.69 70.1379 101.6 78.3095C100.511 86.4812 92.8837 92.2013 84.7121 91.1117C76.5405 90.0222 70.8203 82.3953 71.9099 74.2237V74.0875C72.9994 66.0521 80.6263 60.332 88.7979 61.4215Z" fill="#F5EE30"/>
<path d="M87.9833 110.316L90.4348 103.915C92.6139 103.642 94.793 103.098 96.8359 102.28L102.011 106.639L111.681 99.2841L108.821 93.0192C110.183 91.2487 111.272 89.342 112.226 87.2991L119.035 86.7543L120.67 74.7693L114.269 72.3178C113.996 70.1387 113.452 67.9596 112.634 65.9167L116.993 60.7413L109.638 51.0716L103.373 53.9316C101.603 52.5697 99.696 51.4802 97.6531 50.663L97.1083 43.8533L85.1233 42.219L82.6718 48.6201C80.4927 48.8925 78.3136 49.4373 76.2707 50.2544L71.0953 45.8962L61.4256 53.2507L64.2857 59.5156C62.9237 61.2861 61.8342 63.1928 60.8808 65.2357L54.0712 65.7805L52.4368 77.7655L58.8379 80.217C59.1103 82.3961 59.6551 84.5752 60.4722 86.6181L56.1141 91.7935L63.4685 101.463L69.7334 98.6031C71.5039 99.9651 73.4106 101.055 75.3174 101.872L75.8621 108.681L87.9833 110.316ZM96.9721 100.782L96.5635 100.918C94.3844 101.872 92.0691 102.417 89.7538 102.689H89.3453L87.03 108.818L77.2241 107.456L76.6793 100.918L76.2707 100.782C74.0916 99.8289 72.0487 98.6031 70.142 97.2412L69.8696 96.9688L63.8771 99.6927L57.8846 91.7935L62.1066 86.7543L61.9704 86.3457C61.017 84.1666 60.4722 81.8513 60.1999 79.536V79.1274L54.0712 76.8122L55.4331 67.0062L61.9704 66.4615L62.1066 66.0529C63.0599 63.8738 64.2857 61.8309 65.6476 60.0603L65.92 59.788L63.1961 53.7954L71.2315 47.6667L76.2707 51.8887L76.6793 51.7525C78.7222 50.9354 80.9013 50.3906 83.0804 50.1182L83.6251 50.7992L86.2128 43.8533L96.0188 45.2153L96.5635 51.7525L96.9721 51.8887C99.1512 52.8421 101.194 54.0678 103.101 55.4298L103.373 55.7022L109.366 52.9783L115.358 60.8775L111.136 65.9167L111.272 66.3253C112.226 68.5044 112.771 70.8196 113.043 73.1349V73.5435L119.172 75.8588L117.81 85.6647L111.272 86.2095L111.136 86.6181C110.183 88.7972 108.957 90.8401 107.595 92.6106L107.323 92.883L110.047 98.8755L102.147 104.868L96.9721 100.782ZM86.6214 91.9296C95.2016 91.9296 102.284 84.9838 102.284 76.4036C102.284 72.9987 101.194 69.7301 99.1512 67.0062C96.6997 63.7376 93.0225 61.5585 88.8005 61.0137C80.3565 59.6518 72.1849 65.3719 70.8229 73.8159C69.461 82.2599 75.1811 90.4315 83.6251 91.7935C83.8975 91.7935 84.1699 91.9296 84.4423 91.9296C85.2595 91.9296 85.9404 91.9296 86.6214 91.9296ZM88.6643 61.5585L88.5281 62.2395C96.2911 63.329 101.739 70.5473 100.649 78.3103C99.5598 86.0733 92.3415 91.5211 84.5785 90.4315C76.8155 89.342 71.3677 82.1237 72.4573 74.3607C73.5468 66.5976 80.7651 61.1499 88.5281 62.2395C88.5281 62.2395 88.5281 62.2395 88.6643 62.2395V61.5585Z" fill="#F5EE30"/>
<path d="M410.625 492.475L363.365 441.539H421.52L456.658 479.128L410.625 492.475Z" fill="white"/>
<path d="M407.629 492.067L391.558 474.771L366.226 447.396L360.37 441.131C359.689 440.314 360.642 440.042 361.323 440.042H418.797C421.384 440.042 423.836 441.131 425.606 443.038L443.312 461.969L459.655 479.401C460.063 479.946 459.927 480.219 459.382 480.491L419.069 492.204L413.349 493.838C411.715 493.974 410.217 493.566 408.855 492.748C408.174 492.34 406.812 491.386 408.174 490.978L448.487 479.265L454.207 477.631L453.935 478.72L423.155 445.762L418.797 441.131L423.836 443.038H365.681L366.635 441.948L382.706 459.245L408.174 486.62L414.03 493.021C414.983 494.11 413.077 494.11 412.396 493.974C410.353 493.702 408.855 493.157 407.629 492.067Z" fill="#262626"/>
<path d="M455.569 416.07L456.795 479.128C456.795 479.128 424.108 448.893 421.657 441.538C419.205 434.184 433.778 397.957 433.778 397.957L455.569 416.07Z" fill="white"/>
<path d="M457.339 413.345L457.747 434.591L458.428 468.504L458.564 476.267C458.564 477.084 455.432 482.395 454.887 481.851C445.081 472.862 435.411 463.601 426.559 453.658C424.38 451.343 422.473 448.892 420.703 446.304C419.613 444.533 419.068 442.491 419.341 440.448C420.022 432.548 422.882 424.649 425.469 417.295C427.512 411.302 429.691 405.446 432.007 399.59C432.279 399.045 434.867 394.414 435.411 394.823L457.202 413.073C458.02 413.754 454.07 419.202 453.525 418.793L431.734 400.543L435.139 395.776C433.232 400.407 431.598 405.037 429.964 409.804C427.376 417.295 424.516 425.058 423.29 432.957C423.018 435.136 422.609 437.451 423.699 439.494C425.197 441.946 426.831 444.261 428.874 446.304C434.322 452.569 440.314 458.561 446.307 464.418C450.257 468.367 454.342 472.181 458.428 475.994L454.751 481.578L454.342 460.332L453.661 426.42L453.525 418.657C453.525 417.431 454.751 415.933 455.432 414.843C455.704 414.707 457.339 412.664 457.339 413.345Z" fill="#262626"/>
<path d="M518.217 440.722C516.174 474.634 502.827 476.54 501.601 476.268C480.9 472.182 373.715 385.563 349.2 365.543C346.068 362.955 344.434 359.005 344.978 354.92L347.566 333.129L518.217 440.722Z" fill="white"/>
<path d="M521.213 439.086C520.941 446.305 519.715 453.387 517.536 460.196C516.31 464.146 514.267 467.959 511.543 471.092C509.092 473.68 506.096 475.722 502.691 477.084C501.329 477.902 499.831 478.174 498.196 478.038C493.157 476.948 488.254 473.816 483.896 471.228C476.405 466.734 469.051 461.831 461.969 456.792C443.447 443.853 425.469 430.234 407.628 416.342C391.285 403.676 375.077 390.874 359.143 377.935L350.835 371.262C347.839 368.81 344.298 366.495 342.8 362.954C341.301 359.413 342.119 355.327 342.527 351.514L344.162 337.895L344.434 335.034C344.57 334.217 346.477 333.264 347.158 332.992C347.839 332.719 349.609 331.357 350.426 331.766L423.018 377.527L494.111 422.062L521.213 439.086C521.486 439.223 518.762 441.129 518.489 441.129C517.945 441.402 516.038 442.764 515.221 442.355L459.109 407.081L383.385 359.413L344.434 334.898L350.426 331.63L347.975 352.603C347.294 357.37 349.337 362.137 353.287 364.861L360.096 370.309C374.669 382.157 389.242 393.734 404.087 405.31C421.792 419.202 439.633 432.958 457.883 446.168C465.646 451.752 473.545 457.336 481.581 462.512C487.165 466.325 493.021 469.73 499.014 472.59C500.648 473.543 502.555 474.224 504.461 474.633H504.87C505.006 474.633 505.006 474.633 505.142 474.633C505.415 474.633 504.87 474.633 505.279 474.633L505.687 474.497C506.232 474.36 505.279 474.633 505.687 474.497L505.415 474.633C505.279 474.769 504.87 474.905 504.461 475.178C504.734 475.041 505.006 474.769 504.189 475.314C504.734 474.905 504.325 475.178 504.189 475.314L504.87 474.769C504.461 475.041 505.142 474.497 505.279 474.36C505.415 474.224 505.823 473.816 506.096 473.543C507.185 472.318 508.139 470.956 508.956 469.594C511.543 464.691 513.314 459.515 513.995 454.068C514.676 450.254 515.084 446.305 515.357 442.355C515.357 441.538 517.536 440.584 518.081 440.312C519.034 439.767 519.987 439.359 521.213 439.086Z" fill="#262626"/>
<path d="M381.209 200.611L532.793 254.952C539.466 257.267 543.416 264.077 542.19 271.023C537.015 302.347 523.259 387.877 518.22 440.856L347.433 333.263L361.87 212.732C362.823 204.833 370.041 199.112 378.077 200.066C379.166 200.066 380.256 200.338 381.209 200.611Z" fill="#262626"/>
<path d="M382.297 198.435L392.375 201.976L417.707 210.964L451.483 223.086L486.349 235.479L515.767 245.966L532.382 251.959C535.243 252.776 537.83 254.138 540.146 255.908C543.55 258.904 545.593 263.126 546.002 267.621C546.002 270.617 545.593 273.613 544.912 276.61C542.597 290.774 540.282 305.074 538.103 319.238C535.243 337.624 532.519 356.01 529.931 374.397C527.343 392.647 525.028 410.76 522.985 429.01C522.577 432.96 522.168 436.773 521.759 440.723C521.487 443.447 517.537 443.174 515.903 442.085L459.927 406.811L384.204 359.143L345.252 334.628C344.708 334.219 344.299 333.539 344.299 332.858L346.07 318.012L350.155 283.692L354.786 245.013L358.055 217.365C358.191 215.731 358.463 214.097 358.599 212.326C359.825 204.018 366.635 197.754 374.943 197.345C377.394 197.209 379.982 197.481 382.297 198.298C383.659 198.707 385.157 199.796 384.476 201.431C383.795 203.065 381.48 203.337 380.254 202.929C373.172 200.477 366.363 205.517 365.409 212.871C365.273 214.369 365.001 215.867 364.864 217.365L361.732 243.378L357.238 280.832L353.152 315.425L351.79 327.137C351.654 329.044 351.517 330.951 351.109 332.721C351.109 332.721 351.109 332.858 351.109 332.994L350.155 331.223L422.747 376.984L493.84 421.792L520.806 438.816L514.95 440.178C516.584 422.745 518.763 405.449 521.078 388.152C523.53 369.63 526.254 351.107 529.114 332.585C531.429 316.923 534.017 301.261 536.468 285.598C537.013 282.602 537.422 279.742 537.966 276.746C538.511 274.022 538.92 271.298 539.192 268.438C539.328 264.352 537.422 260.403 534.017 257.951C533.608 257.679 533.336 257.406 532.927 257.27L532.246 256.998C532.11 256.998 531.157 256.589 531.702 256.725C531.974 256.862 531.838 256.862 531.838 256.725L531.565 256.589C527.207 254.955 522.713 253.457 518.355 251.822L491.252 242.153L457.204 230.031L422.883 217.774L395.236 207.968L381.071 202.929L380.39 202.657C379.029 202.248 377.53 201.158 378.211 199.524C378.892 197.89 380.935 197.89 382.297 198.435Z" fill="#262626"/>
<path d="M448.349 250.459C448.349 255.362 447.805 260.401 447.396 265.304C446.715 274.974 445.898 284.507 445.081 294.041C443.31 315.423 441.54 336.669 439.905 358.052C439.497 363.908 438.816 369.9 438.68 375.757C438.407 377.391 437.59 378.753 436.364 379.843C435.82 380.387 434.185 381.341 434.322 379.843C434.322 374.94 434.866 369.9 435.275 364.861C435.956 355.328 436.773 345.658 437.59 336.124C439.361 314.742 441.131 293.496 442.766 272.113C443.174 266.257 443.855 260.265 443.991 254.408C444.264 252.774 445.081 251.276 446.307 250.323C446.851 249.914 448.349 248.961 448.349 250.459Z" fill="white"/>
<path d="M427.651 395.369C428.196 395.505 428.74 395.778 429.149 396.05C429.558 396.322 429.966 396.731 430.375 397.14C430.511 397.276 430.783 397.548 430.92 397.82C431.192 398.229 431.464 398.774 431.601 399.319C431.737 399.727 431.737 400.136 431.873 400.544V400.953C431.873 401.361 431.873 401.77 431.737 402.179L431.601 402.587C431.328 403.541 430.92 404.358 430.511 405.175C430.375 405.311 430.375 405.447 430.239 405.447C429.966 405.856 429.558 406.128 429.285 406.537C427.515 408.035 425.199 408.58 423.02 407.899C422.884 407.899 422.748 407.763 422.612 407.763C422.203 407.626 421.795 407.354 421.522 407.218C421.114 406.945 420.705 406.537 420.296 406.128C419.616 405.175 419.207 404.222 419.207 403.132C419.207 402.996 419.207 402.86 419.207 402.723C419.207 402.315 419.207 401.77 419.343 401.361C419.343 401.225 419.343 401.089 419.479 400.953C419.615 400.544 419.752 400 419.888 399.591C420.16 399.182 420.296 398.774 420.569 398.365C420.705 398.229 420.705 398.093 420.841 397.957C421.522 397.276 422.203 396.595 423.02 396.05C423.429 395.778 423.838 395.641 424.382 395.641C424.791 395.505 425.336 395.641 425.744 395.778C426.153 395.914 426.561 396.186 426.834 396.459C427.242 396.731 427.379 397.139 427.515 397.548C428.06 399.591 427.106 401.77 425.199 402.723L425.063 402.86L425.88 402.315C425.744 402.451 425.608 402.587 425.472 402.723L426.153 401.906C426.017 402.042 425.88 402.179 425.88 402.315L426.425 401.361C426.289 401.498 426.153 401.77 426.153 401.906L426.425 400.953C426.289 401.225 426.289 401.361 426.289 401.634L426.425 400.681C426.425 400.953 426.425 401.089 426.425 401.361L426.289 400.408C426.289 400.681 426.425 400.953 426.561 401.089L426.153 400.272C426.289 400.544 426.425 400.681 426.561 400.817L425.88 400.136C426.017 400.272 426.289 400.544 426.425 400.544L425.608 400.136C425.88 400.272 426.153 400.408 426.425 400.408L425.472 400.272C425.744 400.272 426.017 400.272 426.289 400.272L425.336 400.408C425.608 400.408 425.88 400.272 426.153 400.272L425.199 400.681C425.472 400.544 425.608 400.544 425.744 400.408L424.927 400.953C425.063 400.817 425.199 400.681 425.336 400.544L424.655 401.361C424.791 401.225 424.927 401.089 424.927 400.953L424.382 401.906C424.518 401.77 424.518 401.634 424.655 401.361L424.382 402.315C424.382 402.179 424.518 401.906 424.518 401.77L424.382 402.723C424.382 402.451 424.382 402.315 424.382 402.042L424.518 402.996C424.518 402.723 424.382 402.451 424.246 402.179L424.655 402.996C424.518 402.723 424.382 402.451 424.11 402.179L424.791 402.86C424.655 402.723 424.382 402.451 424.11 402.315L424.927 402.723C424.791 402.587 424.518 402.587 424.382 402.587C423.974 402.451 423.565 402.179 423.293 401.906C422.884 401.634 422.748 401.225 422.612 400.817C422.476 400.408 422.476 399.863 422.476 399.455C422.476 398.91 422.612 398.501 422.748 397.957C423.157 397.003 423.974 396.186 424.927 395.641L425.88 395.233C426.425 395.097 427.106 395.097 427.651 395.369Z" fill="#F5EE30"/>
<path d="M510.046 294.722C506.778 292.406 504.326 289.138 502.964 285.46C502.419 283.962 501.738 281.919 502.556 280.421C502.964 279.74 503.645 279.332 504.326 279.196C505.824 278.787 507.459 278.651 508.957 278.515C510.591 278.515 511.953 278.787 512.361 280.557C512.498 282.328 512.089 284.098 510.863 285.46C508.139 289.546 503.1 290.636 498.334 290.363C493.975 290.091 492.75 286.005 492.341 282.192L499.015 281.511C497.244 283.009 495.201 284.371 493.022 285.46C491.796 285.869 490.571 286.141 489.345 286.141C488.8 286.141 486.757 286.55 486.349 286.005C485.259 284.235 485.395 281.783 486.893 280.285C487.847 279.332 488.936 278.787 490.298 278.515C492.205 277.97 494.112 277.97 496.154 278.106C499.559 278.787 496.018 282.192 494.793 283.281C492.477 285.052 489.753 286.278 486.893 286.686C486.076 286.822 485.123 286.959 484.306 286.959C483.625 287.095 482.944 287.095 482.263 286.959C481.99 286.822 481.854 286.959 481.854 286.686C481.854 286.414 483.216 286.278 483.352 286.278C484.987 285.869 486.621 285.052 487.983 283.962C488.936 283.145 491.796 281.102 490.843 279.604C490.707 279.468 490.571 279.332 490.434 279.196C488.936 278.515 490.298 278.378 494.929 278.651C494.656 278.787 494.384 278.923 494.112 279.196C493.567 279.74 493.158 280.285 492.886 280.966C492.341 282.328 492.477 283.962 493.294 285.188L486.621 285.869C488.8 284.916 490.843 283.554 492.613 282.056C493.158 281.511 499.151 280.694 499.287 281.375C499.423 283.281 499.968 285.052 500.785 286.686C501.194 287.503 501.738 288.048 502.419 288.593C504.19 289.682 503.509 287.64 500.24 289.41C500.785 289.138 501.194 288.865 501.738 288.593C503.509 287.367 504.871 285.733 505.552 283.69C505.824 282.873 505.96 282.056 505.824 281.238C505.824 280.83 505.688 280.421 505.416 280.013C504.871 279.059 503.917 279.468 506.369 279.332L509.638 278.787C510.182 278.651 509.638 278.923 509.501 279.196C509.365 279.332 509.365 279.604 509.229 279.876C509.093 280.557 509.093 281.102 509.229 281.783C509.501 283.281 510.046 284.779 510.727 286.141C512.089 289.001 514.132 291.453 516.72 293.36C517.264 293.768 514.677 294.177 514.404 294.177C513.587 294.313 512.634 294.449 511.817 294.449C511.272 294.722 510.455 294.994 510.046 294.722Z" fill="white"/>
<path d="M503.102 327C498.744 324.14 495.884 319.373 495.066 314.198C494.385 309.159 496.156 302.213 502.285 301.532C503.102 301.396 503.51 302.077 503.51 302.758C503.919 307.661 503.102 312.564 500.923 317.058C498.88 321.28 495.203 326.183 490.027 326.047C485.397 325.911 482.264 322.097 480.902 317.875C479.404 313.245 480.357 308.75 484.171 305.618C484.852 305.073 487.031 303.983 487.44 305.482C488.393 309.023 487.848 312.7 485.941 315.832C484.171 318.829 480.221 323.187 476.135 322.233C472.867 321.552 471.232 316.786 470.824 313.926C470.279 309.84 472.458 305.89 476.272 304.12C477.497 303.575 479.54 303.575 478.723 305.618C476.68 310.929 470.688 315.696 464.695 313.789C459.247 312.019 457.749 305.482 460.065 300.715C460.609 299.489 462.244 297.855 463.742 297.855C465.24 297.855 465.104 299.353 464.695 300.442C463.469 303.03 465.24 306.571 467.419 307.933C469.053 308.886 472.731 309.295 473.412 307.252L475.863 308.75C474.774 309.295 476.135 308.478 476.135 308.478C476.135 308.478 475.999 309.431 475.999 309.295C475.999 310.248 476.135 311.338 476.544 312.291C477.089 313.653 477.906 316.377 479.54 316.922C480.766 317.33 481.447 315.832 481.856 314.879C482.4 313.245 482.537 311.338 481.992 309.704L485.26 309.567C485.805 309.023 485.669 308.886 485.533 309.704C485.397 310.385 485.397 311.066 485.533 311.746C485.669 313.108 486.078 314.334 486.622 315.56C487.712 318.148 490.027 320.871 493.16 320.735C493.568 320.735 493.977 320.599 494.385 320.463C494.385 320.463 494.93 319.782 495.203 319.51C496.02 318.284 496.565 316.922 497.109 315.56C498.063 312.427 498.471 309.159 498.063 305.89L499.288 307.116C499.561 306.98 499.833 306.707 500.106 306.435C500.65 305.754 500.787 305.754 500.514 306.163C500.514 306.299 500.378 306.707 500.242 306.844C500.106 307.524 500.106 308.342 500.106 309.023C500.106 310.793 500.514 312.564 501.195 314.198C502.421 317.467 504.736 320.327 507.732 322.233C509.775 323.323 505.281 328.362 503.102 327Z" fill="white"/>
<path d="M475.728 358.324C473.004 356.009 470.961 353.012 469.871 349.607C469.054 347.837 468.918 345.93 469.327 344.024C469.871 341.981 471.642 340.619 473.685 340.346C474.638 340.21 475.728 340.21 476.681 340.482C477.226 340.619 478.315 341.027 478.588 341.708C479.677 345.249 477.226 348.654 473.957 349.88C469.327 351.378 464.287 350.561 460.338 347.837C459.929 347.565 459.384 347.156 459.384 346.611C459.384 346.066 460.065 345.658 460.474 345.522C462.108 344.977 463.743 345.113 465.241 345.794C465.785 346.203 466.466 346.611 467.011 346.884C466.466 346.611 467.42 347.02 467.556 347.156L468.101 347.292C467.692 347.156 467.692 347.156 468.101 347.292L468.646 347.428H468.509H469.054C468.646 347.428 468.509 347.428 468.918 347.428C469.327 347.428 469.19 347.428 468.918 347.428L469.463 347.292C468.782 347.428 469.735 347.156 469.871 347.156C469.463 347.292 470.144 346.884 470.28 346.884C470.552 346.747 470.825 346.475 470.961 346.339C471.233 345.93 471.506 345.522 471.778 345.113C472.323 344.296 472.459 343.206 472.187 342.253L477.09 343.615C476.953 343.615 476.817 343.615 477.09 343.615C477.226 343.479 477.226 343.615 477.09 343.615C476.953 343.751 476.681 343.887 476.545 344.16C476.136 344.704 476 345.385 476 346.066C476 347.565 476.409 349.063 476.953 350.561C478.043 353.285 479.677 355.6 481.856 357.37C483.082 358.46 481.448 359.413 480.494 359.55C478.86 359.686 477.09 359.413 475.728 358.324Z" fill="white"/>
<path d="M417.98 335.851C414.031 331.901 410.081 327.816 408.038 322.504C406.949 319.916 406.676 317.193 406.949 314.469C407.63 311.2 410.762 309.157 413.895 309.702C414.031 309.702 414.031 309.702 414.167 309.702C417.708 310.655 417.436 314.469 417.163 317.465C416.891 320.325 415.665 323.049 413.622 325.092C409.809 328.905 404.089 329.995 399.186 327.952C393.874 325.364 391.287 319.235 393.193 313.652C394.147 311.064 398.369 310.247 399.594 312.971C401.501 317.193 397.688 321.687 393.329 321.959C391.15 322.096 388.971 321.278 387.473 319.644C386.928 318.963 386.52 318.146 386.247 317.193C386.111 316.648 385.975 316.239 385.975 315.694C385.975 315.558 385.839 315.422 385.839 315.15C386.656 315.831 387.882 315.694 388.699 314.877L389.516 313.515V313.379C389.516 316.784 382.706 317.874 382.843 314.06C382.979 309.43 390.197 308.612 391.967 312.426C392.24 313.379 392.512 314.333 392.648 315.286C392.785 315.558 392.921 315.967 393.057 316.239C393.193 316.375 393.329 316.375 393.466 316.375C393.602 316.375 393.602 316.512 393.738 316.375H393.193C393.193 316.512 393.057 316.375 393.057 316.375C393.057 316.375 393.057 315.286 393.193 315.831C393.193 315.558 393.057 315.286 392.921 315.013L399.322 314.333C398.096 317.874 400.275 323.185 404.497 323.321C406.132 323.321 407.766 322.64 408.855 321.415C409.673 320.461 410.081 319.235 410.217 318.01C410.626 316.648 410.49 315.15 410.081 313.788L410.898 314.877C412.805 313.515 413.622 313.243 413.214 314.196C413.214 314.332 413.077 314.605 413.077 314.741C413.077 315.15 413.077 315.694 413.077 316.103C413.077 316.92 413.35 317.874 413.622 318.691C414.167 320.325 414.848 321.959 415.801 323.457C417.98 326.59 420.568 329.586 423.428 332.174C424.654 333.4 423.292 335.443 422.202 336.123C421.113 337.213 419.206 337.077 417.98 335.851Z" fill="white"/>
<path d="M419.887 273.203C416.346 271.024 413.486 267.755 411.988 263.805C410.626 260.128 410.354 255.498 413.486 252.774C414.576 251.956 415.801 251.412 417.027 251.276C417.436 251.276 419.751 251.003 419.751 251.82C419.342 259.447 414.984 266.393 408.175 270.07C404.906 271.841 398.505 274.292 396.189 270.07C394.01 266.257 394.147 261.218 395.236 257.132L401.501 256.451C398.369 259.583 394.691 262.035 390.061 262.307C388.29 262.443 386.656 262.035 385.158 261.081C384.613 260.673 384.204 260.264 383.932 259.583C383.796 259.175 383.66 258.766 383.523 258.358C383.387 257.54 382.979 257.404 384.068 257.404L386.656 256.859L386.384 256.996L388.29 255.906V256.042C388.018 257.677 381.481 258.902 381.753 256.996C382.025 255.089 385.566 254.544 386.928 254.408C388.426 253.999 389.925 254.953 390.197 256.451C390.197 256.587 390.197 256.723 390.197 256.859C390.333 257.54 390.742 258.221 391.287 258.63C391.559 258.902 392.785 259.175 392.921 259.311C392.785 259.175 391.967 259.856 392.376 259.311C392.648 259.039 392.921 258.766 393.329 258.63C394.147 257.949 394.828 257.268 395.509 256.587C396.598 255.634 398.096 255.089 399.458 255.089C400.139 255.089 402.046 254.953 401.773 256.042C400.956 259.175 400.956 262.443 401.91 265.576C402.046 266.257 402.318 267.074 402.727 267.755C402.863 268.164 403.135 268.436 403.408 268.844L403.816 269.117L403.135 269.389C403.544 269.117 404.089 268.844 404.497 268.708C405.178 268.3 405.723 267.891 406.268 267.483C410.49 263.942 413.077 258.766 413.35 253.318L419.615 252.365C416.755 254.953 417.708 259.447 418.934 262.58C420.432 266.121 422.883 268.981 426.152 271.024C427.242 271.705 424.518 272.93 424.245 273.066C422.883 273.339 421.113 273.747 419.887 273.203Z" fill="white"/>
<path d="M258.497 66.3242H367.724C369.222 66.3242 370.584 67.55 370.584 69.1843V145.044L370.039 165.337C369.903 166.971 368.677 168.061 367.043 168.061C366.089 168.061 365.272 167.516 364.728 166.699L352.334 146.406C351.789 145.589 350.836 145.044 349.882 145.044H258.497C256.998 145.044 255.637 143.818 255.637 142.184V69.1843C255.637 67.6862 256.862 66.3242 258.497 66.3242Z" fill="white"/>
<path d="M260.675 65.0995H367.859C369.358 65.0995 371.128 64.9633 372.49 65.9167C374.124 67.1424 373.852 69.1853 373.852 71.092V122.028C373.852 134.15 373.852 146.271 373.58 158.392L373.443 163.704C373.58 165.474 372.626 167.108 371.128 167.926C368.54 169.424 363.637 170.786 361.595 167.789C361.05 166.972 360.505 166.155 360.096 165.338L352.878 153.625L349.882 148.859C349.337 148.041 348.792 146.816 347.839 146.679C346.613 146.543 345.524 146.543 344.298 146.679H259.586C258.496 146.679 257.543 146.679 256.453 146.679C254.274 146.543 252.64 145.454 252.504 143.275C252.504 142.73 252.504 142.049 252.504 141.504V71.6368C252.504 71.2282 252.504 70.8196 252.504 70.4111C252.64 66.87 257.134 65.6443 260.13 65.3719C260.811 65.3719 262.582 65.2357 261.629 66.3252C260.675 67.4148 258.496 67.8234 257.27 67.8234C260.811 67.551 259.313 66.4614 259.177 68.5043V68.6405C259.177 68.7767 259.177 69.0491 259.177 69.1853C259.177 70.0025 259.177 70.8196 259.177 71.6368V140.551C259.177 142.049 259.313 143.819 261.22 143.956C262.718 144.092 264.352 143.956 265.851 143.956H349.337C350.427 143.956 351.652 143.956 352.742 143.956C356.011 144.228 357.509 148.45 359.007 150.901L366.225 162.614C366.906 163.704 367.451 164.793 368.132 165.883C368.54 166.291 368.949 166.7 369.358 166.972L366.361 167.789L366.498 167.517C366.634 167.108 366.77 166.836 366.77 166.428C366.77 166.291 366.77 166.291 366.77 166.155C367.451 155.123 367.315 143.956 367.315 132.924V72.0454C367.315 70.5472 367.451 68.3681 365.544 67.9596C364.455 67.8234 363.365 67.8234 362.276 67.9596H256.317C255.091 67.9596 254.955 67.2786 255.908 66.5976C257.406 65.5081 259.041 65.0995 260.675 65.0995Z" fill="#F5EE30"/>
<path d="M345.796 115.491C344.842 111.405 342.936 107.592 340.075 104.323C338.714 102.689 337.079 101.327 335.309 100.238C335.036 99.9652 332.312 98.8757 332.312 98.8757C332.312 99.0119 333.538 97.3776 332.857 99.0119C332.585 99.5567 332.312 100.101 332.176 100.782C330.678 105.277 330.814 110.18 332.585 114.538C332.721 115.083 332.993 115.491 333.266 116.036C333.402 116.172 333.947 116.717 334.083 116.853C334.219 116.989 334.083 116.717 333.947 116.989C334.083 116.717 333.674 117.126 333.674 117.126C333.266 117.262 333.811 117.534 333.538 117.126C333.266 116.717 333.402 116.036 333.13 115.627C332.857 115.083 332.585 114.538 332.312 114.129C331.631 113.176 330.814 112.223 329.861 111.269C326.728 107.864 322.915 105.277 318.557 103.642C316.786 103.098 314.471 102.553 312.701 103.506C311.339 104.187 310.93 105.822 310.521 107.183C309.977 109.09 309.704 110.997 309.704 112.904C309.704 113.585 310.521 115.491 311.339 115.083C312.428 114.674 310.794 111.405 310.385 110.725C309.16 108.818 307.525 107.047 305.755 105.685C303.167 103.37 296.902 100.238 294.723 104.596C293.906 106.503 293.497 108.682 293.77 110.861C293.77 111.814 294.042 112.904 294.451 113.857C294.723 114.538 295.54 116.036 296.357 116.036L294.859 116.308C293.633 118.215 293.089 118.624 293.225 117.67C293.361 117.262 293.361 116.989 293.497 116.581C293.633 116.036 293.633 115.628 293.77 115.083C293.906 113.721 293.77 112.495 293.633 111.133C293.225 108.818 292.408 106.503 291.046 104.596C288.322 100.782 284.1 98.3309 279.469 97.6499C275.792 97.2414 279.333 91.6574 282.057 91.9298C290.365 92.747 297.174 98.7395 299.081 106.775C299.898 110.452 300.171 115.764 297.855 119.169C296.357 121.211 293.906 122.437 291.591 120.803C290.092 119.713 289.003 118.215 288.458 116.445C286.143 108.954 289.82 98.8757 297.992 96.969C302.214 96.1518 306.436 97.2414 309.704 100.101C312.701 102.417 315.969 105.822 316.923 109.499C317.876 113.721 315.833 118.079 311.883 119.85C308.07 121.756 304.257 119.849 303.848 115.627C303.576 111.814 304.393 108.001 306.027 104.596C307.798 100.646 311.339 97.9223 315.561 97.2414C319.646 96.969 323.596 98.0585 327.001 100.238C330.678 102.417 333.947 105.277 336.534 108.545C339.258 112.086 340.075 116.581 336.534 119.986C335.172 121.484 333.13 122.301 331.087 122.165C329.044 122.029 327.818 120.258 327.137 118.488C325.367 113.993 324.822 109.09 325.775 104.323C326.592 99.829 328.908 92.747 334.628 92.8832C336.807 93.1556 338.986 94.1089 340.62 95.607C342.391 96.8328 343.889 98.1947 345.251 99.829C348.111 103.098 350.154 107.047 351.107 111.405C351.38 113.04 350.699 114.674 349.2 115.491C348.519 116.308 346.068 117.126 345.796 115.491Z" fill="#F5EE30"/>
</svg>
