<svg width="673" height="487" viewBox="0 0 673 487" fill="none" xmlns="http://www.w3.org/2000/svg">
<g opacity="0.1">
<path d="M476.63 307.413C479.806 308.302 484.57 304.812 483.776 305.383C482.982 305.954 483.855 312.188 483.855 312.188L487.031 310.396C487.73 312.807 488.413 315.155 489.096 317.597L492.542 314.425C493.447 317.597 497.306 325.735 498.243 326.655L501.705 324.466C502.038 327.242 502.356 330.018 502.689 332.794L504.944 331.97C505.595 334.476 506.246 336.998 506.881 339.505C508.088 338.267 509.279 337.014 510.47 335.777V345.818L512.345 344.613L512.916 352.687L515.886 350.038L515.219 358.493L516.934 357.573C516.934 358.683 516.934 360.238 516.934 362.078C517.077 364.743 517.315 365.251 517.728 365.473C518.617 365.869 520.062 364.426 520.348 364.108C520.348 364.108 519.919 370.977 520.904 371.183C521.888 371.39 524.89 367.218 524.89 367.218C524.247 369.425 524.247 371.768 524.89 373.975C525.247 375.11 525.783 376.181 526.478 377.148C527.056 377.04 527.601 376.795 528.066 376.434C528.412 376.16 528.708 375.827 528.939 375.451C528.673 377.151 528.7 378.883 529.019 380.574C529.305 382.066 529.511 383.176 530.257 383.557C531.48 384.175 533.751 382.716 535.942 380.067C535.79 382.583 536.271 385.097 537.34 387.38C537.607 387.927 537.909 388.457 538.245 388.966C541.421 384.926 544.597 380.537 547.773 375.8C549.885 372.627 551.87 369.454 553.697 366.456C555.829 362.747 557.549 358.816 558.826 354.733C559.366 353.02 559.794 351.37 560.144 349.816C561.001 352.592 560.144 359.81 560.144 359.81C562.444 354.902 563.699 349.57 563.828 344.152C563.884 341.444 563.65 338.737 563.129 336.078C566.559 337.807 568.29 337.411 569.196 336.871C570.101 336.332 572.117 334.111 569.878 316.503C569.243 311.554 568.56 307.461 568.036 304.59C565.89 289.639 559.745 275.544 550.25 263.789C550.25 263.789 549.504 262.869 548.662 261.902C525.652 235.267 461.321 211.869 461.321 211.869C433.491 201.646 406.426 189.454 380.333 175.384C379.234 179.548 378.747 183.85 378.888 188.154C379.729 211.425 399.357 226.479 403.708 229.652C403.708 229.652 376.918 229.414 379.491 232.301C382.064 235.188 405.947 243.12 409.012 242.58C412.077 242.041 387.447 248.307 393.132 250.512C398.817 252.717 433.658 256.508 433.658 256.508C433.658 256.508 423.384 261.489 425.94 262.743C428.497 263.996 434.468 268.39 451.777 265.915C451.777 265.915 442.98 275.893 446.108 275.306C446.108 275.306 450.237 280.065 463.577 277.019C463.577 277.019 450.301 290.646 453.89 295.452C453.89 295.452 458.654 298.038 462.608 295.167C462.608 295.167 460.003 302.559 463.211 303.225C466.382 303.878 469.683 303.377 472.517 301.814C472.517 301.814 473.343 306.541 476.63 307.413Z" fill="white" stroke="white" stroke-miterlimit="10"/>
<path d="M221.69 247.26C235.474 241.581 270.49 227.51 283.623 222.101L271.379 243.167C267.06 248.148 262.614 253.415 260.263 259.443C259.987 260.156 259.841 260.914 259.835 261.68C259.946 261.854 259.628 261.346 259.835 261.521C261.775 262.527 263.922 263.07 266.107 263.107C289.324 264.44 320.338 252.939 342.919 247.165L315.923 270.452C308.533 276.749 302.49 284.47 298.153 293.152C294.501 301.084 293.786 309.285 298.598 316.519L290.975 312.997C297.756 312.172 322.958 308.936 329.088 308.238L329.628 316.661L331.12 340.218L321.767 332.921C323.641 332.493 350.351 327.75 351.336 327.512L353.94 329.098L369.121 338.442L359.228 339.711C365.374 333.254 383.175 314.726 389.003 308.619L393.482 320.326L402.47 343.867L389.909 340.694L406.011 326.941L410.648 335.713L421.193 355.733L407.663 354.908C411.617 349.34 419.366 338.045 423.289 332.493L443.298 370.327L440.408 367.249L450.904 373.594L441.249 374.673C445.743 370.343 454.732 361.618 459.226 357.224C461.767 364.822 468.642 385.349 471.279 393.202L459.543 388.982L473.168 380.527C475.773 385.809 484.729 403.941 487.46 409.509L473.597 408.827L481.886 395.533L492.431 378.639C494.797 390.203 500.07 416.14 502.467 427.815L489.128 423.738L503.42 409.699L507.073 422.533L513.79 446.074L499.752 443.535L506.882 433.843L518.617 417.98L521.158 437.603L524.461 462.984L511.471 457.923C514.33 455.496 523.572 447.755 526.605 445.233C528.32 455.068 530.035 468.139 533.529 477.419C533.608 477.705 533.862 477.832 533.068 476.943C532.429 476.313 531.656 475.835 530.807 475.544C529.957 475.253 529.053 475.157 528.161 475.262C527.592 475.301 527.043 475.493 526.573 475.817C527.796 475.325 538.88 456.575 540.008 455.1C541.596 464.618 543.565 482.495 546.455 491.585C546.581 492.004 546.74 492.413 546.932 492.807C546.932 492.902 546.932 492.807 546.567 492.331C546.085 491.744 545.491 491.259 544.82 490.903C543.788 490.345 542.634 490.053 541.461 490.053C540.288 490.053 539.134 490.345 538.102 490.903C537.885 491.035 537.678 491.184 537.483 491.347C537.356 491.442 537.372 491.458 537.483 491.347C538.202 490.451 538.845 489.496 539.405 488.492C542.152 484.018 558.778 447.025 561.383 441.41L558.683 484.447C558.418 488.547 559.007 492.658 560.414 496.519C561.848 500.305 564.116 503.721 567.052 506.512L558.619 504.926C559.054 504.753 559.448 504.489 559.774 504.153C560.099 503.816 560.35 503.415 560.509 502.975L574.087 466.141L575.913 505.291C576.255 511.186 577.881 516.935 580.677 522.138C580.193 521.703 579.618 521.384 578.994 521.202C578.734 521.108 578.46 521.06 578.184 521.059C577.773 521.01 577.357 521.048 576.961 521.17C580.168 518.478 582.743 515.115 584.504 511.319L595.795 490.046L599.384 513.841C600.462 521.622 604.014 528.851 609.515 534.463L596.811 536.605C606.714 516.388 615.514 495.651 623.172 474.485C631.682 454.258 636.185 432.574 636.432 410.635L636.718 379.321L651.312 406.86C652.762 409.681 653.876 412.662 654.631 415.743C656.55 423.565 657.887 431.519 658.633 439.538L642.991 438.491C645.142 427.297 645.618 415.846 644.404 404.512C643.176 393.323 640.207 382.394 635.606 372.119L627.396 353.829C630.573 354.464 650.184 359.603 653.376 359.445C654.449 359.559 655.534 359.435 656.552 359.08C656.552 359.08 656.552 359.08 656.473 359.08C656.394 359.08 656.346 359.08 656.092 359.381C655.818 359.643 655.596 359.955 655.441 360.301C655.441 360.412 655.346 360.396 655.33 360.46C655.45 358.916 655.413 357.364 655.219 355.828C654.075 346.611 650.851 336.379 647.977 327.147C643.213 312.363 637.75 297.515 631.891 283.047C622.807 259.157 611.612 235.854 596.335 215.391C584.4 198.988 570.425 184.169 554.745 171.291L550.473 162.328C548.98 163.47 548.107 165.612 549.139 166.865L548.79 166.595C546.185 164.724 543.644 162.788 541.024 160.932C506.548 137.851 467.42 123.289 427.942 110.535C370.374 92.6707 311.563 79.0812 251.99 69.8774C239.953 67.9104 227.947 65.753 215.957 63.5322C144.097 49.944 73.1006 32.1357 3.33824 10.2L9.10255 6.12318C6.88759 37.2279 15.9893 68.0857 34.7333 93.0218C53.4084 118.276 79.1978 137.915 107.465 151.716L107.242 152.207C47.3897 127.159 -2.90269 73.9701 0.130415 5.59966L0.30488 0L5.87883 1.58632C75.9176 20.8667 146.954 36.3297 218.673 47.9068C235.808 50.5084 255.277 53.5065 272.665 55.8384C327.182 64.0556 381.191 75.1281 434.119 90.8327C475.408 103.38 517.283 118.324 553.919 142.103C557.413 144.53 561.002 146.957 564.384 149.574C568.473 153.053 571.659 157.466 573.674 162.439L569.402 153.477C577.93 160.425 586.048 167.862 593.715 175.749C620.822 203.573 640.196 238.091 653.218 274.418C660.872 294.802 668.177 315.202 673.258 336.475C675.1 344.66 677.181 354.321 675.958 363.252C674.18 375.609 662.634 380.844 651.899 379.654C648.602 379.347 645.342 378.72 642.165 377.782L653.996 364.219C661.373 382.767 664.099 402.835 661.936 422.675C661.031 436.413 649.47 472.454 646.056 486.128C644.611 470.646 643.261 434.208 639.1 419.725C638.667 417.897 638.039 416.121 637.226 414.426L652.122 410.651C651.936 428.526 649.165 446.281 643.896 463.364C640.72 472.978 635.273 486.43 631.811 495.995C624.252 515.491 615.248 534.67 606.022 553.436L598.082 545.504C590.205 537.494 585.097 527.178 583.503 516.062L598.383 518.537C596.291 522.648 593.682 526.476 590.618 529.927C585.664 535.764 575.961 540.158 569.164 533.099C567.189 530.916 565.652 528.374 564.638 525.612C561.809 519.39 560.193 512.688 559.874 505.862L575.278 508.178C574.359 510.723 572.913 513.045 571.032 514.991C569.152 516.938 566.881 518.465 564.368 519.473L559.604 521.376C547.932 511.493 541.659 498.676 542.628 483.305L557.81 487.048C554.014 494.567 548.059 510.256 536.943 504.815C532.798 502.436 531.591 497.899 530.416 493.933C529.119 488.878 528.096 483.758 527.352 478.593L541.929 481.671C540.919 483.297 539.761 484.827 538.468 486.239C534.545 490.887 526.684 493.378 521.587 488.048C518.633 484.716 518.236 482.273 517.125 479.006C515.435 473.275 514.094 467.448 513.107 461.556L526.049 466.315L521.539 470.106L510.423 479.466C509.296 470.773 506.437 448.58 505.262 439.601L519.555 443.282C515.505 448.802 506.85 460.446 502.817 466.029L498.386 450.452L491.669 426.927L504.865 430.417C501.689 433.589 492.923 442.108 489.652 445.328L480.68 401.292L495.194 403.893C491.24 410.239 483.284 423.008 479.314 429.274L462.576 395.343L473.899 398.516L467.721 402.354L459.178 407.669C457.098 401.466 450.142 380.701 447.935 374.118L461.004 377.291L447.681 390.187L431.943 380.67L430.07 379.527L429.038 377.592L415.111 351.275L428.641 352.1C424.798 357.684 416.857 368.947 412.999 374.515L406.932 362.982L396.372 342.963L408.552 345.31C404.328 348.943 395.673 356.272 391.433 359.92C388.749 352.956 381.206 333.08 378.427 325.878L391.576 328.527L370.471 350.561L366.041 355.193L360.578 351.83L345.381 342.487L350.986 343.534L324.403 348.404L315.621 349.99L315.05 341.091L313.557 317.534L322.482 324.895L292.802 328.638L287.895 329.273L285.163 325.132C269.585 301.734 287.18 273.974 305.49 258.269L312.842 271.927C301.328 275.288 289.535 277.608 277.604 278.859C270.927 279.62 264.169 279.223 257.627 277.686C247.035 275.036 241.35 265.169 245.304 254.446C248.242 245.959 253.927 239.201 259.596 232.65L267.203 245.658L221.754 247.244L221.69 247.26Z" fill="white"/>
<g opacity="0.25">
<path d="M372.583 116.341C424.766 130.38 474.328 158.14 512.805 196.117C490.24 181.253 467.769 166.722 444.266 153.492C420.764 140.262 396.832 128.301 372.583 116.341Z" fill="white"/>
</g>
</g>
</svg>
