<svg width="48" height="48" viewBox="0 0 48 48" fill="none" xmlns="http://www.w3.org/2000/svg">
<g clip-path="url(#clip0_284_239)">
<path d="M40 4H8C5.79 4 4.02 5.79 4.02 8L4 44L12 36H40C42.21 36 44 34.21 44 32V8C44 5.79 42.21 4 40 4ZM12 28V23.05L25.76 9.29C26.15 8.9 26.78 8.9 27.17 9.29L30.71 12.83C31.1 13.22 31.1 13.85 30.71 14.24L16.95 28H12ZM36 28H21L25 24H36V28Z" fill="#F5EE30"/>
</g>
<defs>
<clipPath id="clip0_284_239">
<rect width="48" height="48" fill="white"/>
</clipPath>
</defs>
</svg>
