<svg width="82" height="100" viewBox="0 0 82 100" fill="none" xmlns="http://www.w3.org/2000/svg">
<path d="M31.6981 90.2385L31.3127 90.3166C30.4741 90.5458 30.0106 91.3895 30.245 92.2333C30.396 92.9208 31.0835 93.3791 31.6981 93.3791C31.9273 93.3791 32.2346 93.301 32.4637 93.228C33.3075 92.9989 33.7658 92.1551 33.5366 91.3114C33.3804 90.4676 32.5419 90.0093 31.6981 90.2385Z" fill="#F5EE30"/>
<path d="M58.9583 17.6556C58.9583 12.14 54.5156 7.69727 49 7.69727C43.4896 7.69727 39.0469 12.14 39.0469 17.6556C39.0469 23.166 43.4896 27.6087 49 27.6087C54.5156 27.6087 58.9583 23.166 58.9583 17.6556ZM52.9062 18.4212L48.6198 21.0983C48.0052 21.4837 47.1667 21.3275 46.6302 20.791L44.7917 18.6504C44.2552 18.0358 44.3333 17.041 44.9427 16.5046C45.5573 15.9681 46.5521 16.0462 47.0885 16.6556L48.0833 17.8066L51.2969 15.8171C51.9896 15.3587 52.9844 15.5879 53.4427 16.2754C53.901 16.9629 53.5937 17.9577 52.9062 18.4212Z" fill="#F5EE30"/>
<mask id="mask0_284_300" style="mask-type:luminance" maskUnits="userSpaceOnUse" x="14" y="90" width="15" height="10">
<path d="M14.1667 90.666H28.8334V99.5671H14.1667V90.666Z" fill="white"/>
</mask>
<g mask="url(#mask0_284_300)">
<path d="M26.1094 92L21.8177 91.2344C20.9791 91.0834 20.2135 91.6198 20.0573 92.4636C19.9062 93.1511 20.2864 93.7657 20.8229 94.0677L16.1562 95.9063C15.3906 96.2136 15.0052 97.1302 15.3125 97.8959C15.6198 98.6615 16.5364 99.0469 17.3021 98.7396L22.125 96.8282C22.0521 97.3646 22.3541 97.8959 22.8177 98.2032C23.5052 98.6615 24.5 98.4323 24.9583 97.7448L27.2552 94.3021C27.5625 93.8386 27.5625 93.3021 27.4114 92.8438C27.026 92.3854 26.6458 92.0782 26.1094 92Z" fill="#F5EE30"/>
</g>
<mask id="mask1_284_300" style="mask-type:luminance" maskUnits="userSpaceOnUse" x="0" y="65" width="24" height="31">
<path d="M0 65.332H23.5V95.9987H0V65.332Z" fill="white"/>
</mask>
<g mask="url(#mask1_284_300)">
<path d="M22.9688 76.7637C22.9688 70.7897 17.7604 65.8887 11.4844 65.8887C5.20313 65.8887 0 70.7897 0 76.7637C0 78.5241 0.53125 80.3626 1.53125 82.123L9.1875 93.7637C10.2604 95.3678 12.7083 95.5241 13.7812 93.7637L21.4375 82.0449C22.4323 80.3626 22.9688 78.5241 22.9688 76.7637ZM18.8333 80.3626L11.4844 91.6178L4.13021 80.4408C3.44271 79.2116 3.0625 77.9876 3.0625 76.7637C3.0625 72.4772 6.89063 68.9512 11.4844 68.9512C16.0781 68.9512 19.9062 72.4772 19.9062 76.7637C19.9062 77.9876 19.5208 79.2116 18.8333 80.3626Z" fill="#F5EE30"/>
</g>
<path d="M16.0781 77.3802C16.0781 77.9896 15.9583 78.5729 15.7292 79.1354C15.4948 79.6979 15.1615 80.1979 14.7292 80.625C14.3021 81.0573 13.8021 81.3906 13.2396 81.6198C12.6771 81.8542 12.0938 81.974 11.4844 81.974C10.875 81.974 10.2865 81.8542 9.72396 81.6198C9.16146 81.3906 8.66667 81.0573 8.23438 80.625C7.80208 80.1979 7.47396 79.6979 7.23958 79.1354C7.00521 78.5729 6.89062 77.9896 6.89062 77.3802C6.89062 76.7708 7.00521 76.1823 7.23958 75.6198C7.47396 75.0573 7.80208 74.5625 8.23438 74.1302C8.66667 73.6979 9.16146 73.3646 9.72396 73.1354C10.2865 72.901 10.875 72.7812 11.4844 72.7812C12.0938 72.7812 12.6771 72.901 13.2396 73.1354C13.8021 73.3646 14.3021 73.6979 14.7292 74.1302C15.1615 74.5625 15.4948 75.0573 15.7292 75.6198C15.9583 76.1823 16.0781 76.7708 16.0781 77.3802Z" fill="#F5EE30"/>
<path d="M22.7396 52.4158C22.5105 52.2647 22.3542 52.1866 22.1251 52.0304C21.4376 51.4991 20.5209 51.6502 19.9844 52.3377C19.448 53.0304 19.599 53.947 20.2865 54.4835C20.5209 54.6345 20.7501 54.7908 20.9792 54.9418C21.6667 55.4002 22.6615 55.171 23.1199 54.4835C23.5834 53.796 23.4271 52.8741 22.7396 52.4158Z" fill="#F5EE30"/>
<path d="M29.4011 55.5575C29.1719 55.4794 28.9427 55.4012 28.7136 55.3283C27.948 55.021 27.0261 55.4012 26.7188 56.245C26.4167 57.0106 26.7969 57.9273 27.6407 58.2346C27.8698 58.3127 28.099 58.3908 28.4063 58.5419C29.1719 58.8492 30.0886 58.3908 30.3959 57.6252C30.5469 56.7033 30.1667 55.8648 29.4011 55.5575Z" fill="#F5EE30"/>
<path d="M27.948 39.8586C28.3282 39.8586 28.7136 39.7076 29.0938 39.6294C29.9376 39.4003 30.3959 38.6346 30.2449 37.7909C30.0105 36.9471 29.2449 36.4888 28.4063 36.6398C28.1772 36.718 27.8699 36.7961 27.6407 36.8742C26.797 37.1034 26.3386 37.9419 26.5678 38.7076C26.6459 39.4003 27.2553 39.8586 27.948 39.8586Z" fill="#F5EE30"/>
<path d="M43.2605 37.3329C43.5678 37.3329 43.8699 37.2548 44.2553 37.2548C45.0991 37.1767 45.7084 36.4111 45.5574 35.5725C45.4793 34.7288 44.7137 34.1142 43.8699 34.2704L43.1043 34.3434C42.2657 34.4215 41.6512 35.1871 41.8022 36.0309C41.8022 36.7184 42.4949 37.3329 43.2605 37.3329Z" fill="#F5EE30"/>
<path d="M51.4531 33.0478L50.6875 33.1988C49.8437 33.3499 49.3073 34.1155 49.4635 34.9593C49.6146 35.7249 50.2292 36.2613 50.9948 36.2613C51.2969 36.2613 51.6823 36.1832 51.9896 36.1103C52.8281 35.954 53.3646 35.1884 53.2135 34.3447C53.0625 33.5061 52.2187 32.8915 51.4531 33.0478Z" fill="#F5EE30"/>
<path d="M57.9583 31.4374C57.1927 31.7447 56.7344 32.5832 57.0417 33.427C57.2708 34.1145 58.0364 34.578 58.7239 34.4218C59.1094 34.3436 59.4167 34.1926 59.7239 34.0416C60.4896 33.7343 60.8698 32.8124 60.5625 32.0468C60.2552 31.2811 59.3385 30.9009 58.5729 31.2082C58.3437 31.2811 58.1927 31.3593 57.9583 31.4374Z" fill="#F5EE30"/>
<path d="M17.4531 49.1973C18.1458 49.1973 18.8333 48.666 18.9844 47.9733C18.9844 47.8223 18.9844 47.0566 18.9844 46.9004C18.9844 46.0618 18.2969 45.3691 17.4531 45.3691C16.6146 45.3691 15.9219 46.0618 15.9219 46.9004C15.9219 47.2077 15.9219 47.515 16 47.8223C16 48.666 16.6875 49.1973 17.4531 49.1973Z" fill="#F5EE30"/>
<path d="M36.6719 57.7762L35.9063 57.5471C35.0677 57.3179 34.224 57.7762 33.9948 58.62C33.7656 59.4585 34.224 60.3023 35.0677 60.5314C35.4479 60.6096 35.8334 60.7606 36.2136 60.7606C36.9063 60.7606 37.5156 60.3023 37.6719 59.6148C37.974 58.8491 37.5156 58.0054 36.6719 57.7762Z" fill="#F5EE30"/>
<path d="M35.5261 38.3269C35.8334 38.3269 36.2136 38.2488 36.5209 38.1759C37.3646 38.0196 37.9011 37.254 37.823 36.4103C37.6719 35.5717 36.9063 35.0353 36.0625 35.1082L35.2969 35.2644C34.4532 35.4155 33.9167 36.1811 33.9948 37.0248C34.1459 37.7905 34.8386 38.3269 35.5261 38.3269Z" fill="#F5EE30"/>
<path d="M67.2241 69.1099C67.6824 68.3443 67.3803 67.4224 66.6876 67.0422C66.4584 66.8859 66.2293 66.7349 66.0001 66.6568C65.2345 66.2765 64.3178 66.5057 63.9324 67.2713C63.5522 68.037 63.7814 68.9536 64.547 69.3391C64.7761 69.4901 65.0053 69.5682 65.1564 69.7193C65.8491 70.0266 66.7657 69.7974 67.2241 69.1099Z" fill="#F5EE30"/>
<path d="M61.7137 82.8127C61.4845 82.8908 61.2553 82.9689 61.021 83.12C60.2553 83.4272 59.8751 84.271 60.1043 85.1095C60.3335 85.7241 60.948 86.1043 61.5574 86.1043C62.021 86.1043 62.4793 85.8752 62.8595 85.7241C63.6251 85.4168 64.0105 84.5002 63.7033 83.7345C63.396 82.9689 62.4793 82.5106 61.7137 82.8127Z" fill="#F5EE30"/>
<path d="M72.1251 72.6304C71.8179 71.8648 70.9793 71.4065 70.1356 71.7138C69.3699 72.0159 68.9116 72.8596 69.2189 73.7034C69.2918 73.8544 69.3699 74.0836 69.3699 74.2398C69.521 75.0836 70.3647 75.5419 71.2085 75.3856C72.047 75.2346 72.5106 74.3909 72.3543 73.5471C72.2814 73.245 72.2033 72.9377 72.1251 72.6304Z" fill="#F5EE30"/>
<path d="M67.7606 79.1406C67.6095 79.2917 67.4533 79.4427 67.3023 79.599C66.6877 80.1354 66.6148 81.1302 67.1512 81.7448C67.6825 82.3542 68.6825 82.4323 69.2918 81.8958C69.521 81.6667 69.7502 81.5104 69.9064 81.2813C70.5158 80.6719 70.5158 79.6771 69.9064 79.1406C69.2918 78.526 68.297 78.526 67.7606 79.1406Z" fill="#F5EE30"/>
<path d="M59.2605 63.8217L58.4949 63.5925C57.7293 63.3634 56.8126 63.7488 56.5835 64.5873C56.3543 65.4311 56.7345 66.2748 57.5783 66.504L58.2658 66.7331C58.9585 66.9623 59.797 66.655 60.1043 65.9675C60.5626 65.1238 60.1043 64.0561 59.2605 63.8217Z" fill="#F5EE30"/>
<path d="M47.0106 86.7957L46.2449 86.9467C45.4012 87.103 44.8699 87.9415 45.0991 88.7853C45.2501 89.4728 45.8647 90.0092 46.6303 90.0092C47.0106 90.0092 47.396 89.8582 47.6981 89.7801C48.5418 89.629 49.0783 88.7853 48.8491 87.9415C48.6199 87.103 47.8543 86.6394 47.0106 86.7957Z" fill="#F5EE30"/>
<path d="M44.1773 59.6937L43.4117 59.5375C42.5679 59.3083 41.7294 59.8448 41.5731 60.6885C41.3439 61.5271 41.8804 62.3708 42.7242 62.5271C43.1044 62.6 43.4898 62.7562 43.87 62.7562C44.5627 62.7562 45.1721 62.2927 45.3283 61.6052C45.4794 60.7614 44.9429 59.9229 44.1773 59.6937Z" fill="#F5EE30"/>
<path d="M39.4324 88.406L38.6668 88.5571C37.823 88.7081 37.2866 89.5519 37.5157 90.3956C37.672 91.0831 38.2814 91.6196 39.047 91.6196C39.4324 91.6196 39.8126 91.4685 40.1199 91.3904C40.9637 91.2342 41.5001 90.3956 41.271 89.5519C41.0366 88.7863 40.271 88.2498 39.4324 88.406Z" fill="#F5EE30"/>
<path d="M51.6825 61.6029L50.9168 61.3737C50.0731 61.1445 49.2293 61.681 49.0783 62.4466C48.8491 63.2904 49.3856 64.1289 50.1512 64.2852C50.5314 64.3581 50.9168 64.5143 51.2971 64.5143C51.9898 64.5143 52.5991 64.056 52.7554 63.3633C53.0627 62.6758 52.5262 61.832 51.6825 61.6029Z" fill="#F5EE30"/>
<path d="M54.5157 85.1096L53.7501 85.2658C52.9063 85.495 52.448 86.3387 52.6772 87.1043C52.8282 87.7918 53.4428 88.2502 54.1303 88.2502C54.5157 88.2502 54.8959 88.0991 55.2813 88.021C56.1251 87.7918 56.5834 86.9481 56.3543 86.1825C56.1251 85.3387 55.2813 84.8804 54.5157 85.1096Z" fill="#F5EE30"/>
<mask id="mask2_284_300" style="mask-type:luminance" maskUnits="userSpaceOnUse" x="60" y="0" width="22" height="31">
<path d="M60.8335 0H81.9585V30.6667H60.8335V0Z" fill="white"/>
</mask>
<g mask="url(#mask2_284_300)">
<path d="M81.0054 2.4946C80.396 2.18731 79.7085 2.26544 79.0939 2.64564C77.1772 3.8696 75.3439 3.26023 72.5106 2.18731C69.6772 1.03627 66.4585 -0.187691 63.1668 2.03627C62.4793 2.4946 62.021 3.33314 62.021 4.09877V28.3748C62.021 29.2134 62.7085 29.9061 63.5522 29.9061C64.3908 29.9061 65.0835 29.2134 65.0835 28.3748V14.5154C66.9168 13.4425 68.6825 14.0571 71.4377 15.1248C73.12 15.8175 74.9585 16.505 76.8752 16.505C78.1772 16.505 79.4741 16.1977 80.7762 15.2811C81.4689 14.8227 81.9272 13.979 81.9272 13.2134V4.02585C81.9272 3.41127 81.62 2.80189 81.0054 2.4946Z" fill="#F5EE30"/>
</g>
<path d="M21.0522 42.6145C21.4376 42.5364 21.7449 42.3073 22.1251 42.1562C22.8907 41.7708 23.198 40.8541 22.8907 40.0885C22.5105 39.3229 21.5886 39.0156 20.823 39.3229C20.5938 39.401 20.3647 39.552 20.1355 39.6302C19.3699 40.0104 19.0626 40.9323 19.448 41.6979C19.6772 42.4635 20.3647 42.7708 21.0522 42.6145Z" fill="#F5EE30"/>
</svg>
