<svg width="677" height="554" viewBox="0 0 677 554" fill="none" xmlns="http://www.w3.org/2000/svg">
<path d="M221.912 247.507C235.71 241.822 270.76 227.737 283.906 222.323L271.651 243.41C267.327 248.396 262.876 253.668 260.523 259.702C260.246 260.416 260.101 261.175 260.094 261.941C260.205 262.116 259.887 261.608 260.094 261.782C262.036 262.789 264.185 263.332 266.373 263.37C289.613 264.704 320.658 253.192 343.262 247.412L316.239 270.722C308.842 277.026 302.792 284.754 298.451 293.445C294.795 301.385 294.08 309.594 298.896 316.835L291.266 313.31C298.054 312.484 323.281 309.245 329.416 308.546L329.957 316.978L331.451 340.558L322.089 333.254C323.964 332.825 350.701 328.077 351.687 327.839L354.294 329.427L369.49 338.78L359.587 340.05C365.739 333.587 383.558 315.041 389.392 308.927L393.875 320.646L402.872 344.21L390.298 341.035L406.417 327.268L411.059 336.049L421.613 356.088L408.07 355.262C412.028 349.689 419.785 338.383 423.712 332.825L443.741 370.697L440.848 367.616L451.355 373.968L441.69 375.048C446.189 370.713 455.186 361.979 459.685 357.581C462.228 365.187 469.111 385.734 471.749 393.594L460.003 389.37L473.641 380.907C476.248 386.195 485.213 404.344 487.947 409.918L474.07 409.235L482.368 395.929L492.923 379.017C495.292 390.593 500.569 416.556 502.969 428.243L489.617 424.162L503.923 410.109L507.579 422.955L514.303 446.519L500.251 443.979L507.388 434.277L519.136 418.397L521.679 438.04L524.985 463.446L511.982 458.381C514.844 455.951 524.095 448.202 527.131 445.678C528.848 455.523 530.565 468.607 534.062 477.896C534.141 478.182 534.396 478.309 533.601 477.42C532.961 476.789 532.187 476.311 531.337 476.019C530.487 475.728 529.582 475.631 528.689 475.737C528.119 475.776 527.57 475.968 527.1 476.292C528.324 475.8 539.419 457.031 540.548 455.554C542.137 465.082 544.108 482.978 547.001 492.076C547.127 492.496 547.286 492.905 547.478 493.299C547.478 493.394 547.478 493.299 547.113 492.823C546.63 492.235 546.036 491.749 545.364 491.393C544.332 490.835 543.176 490.542 542.002 490.542C540.828 490.542 539.672 490.835 538.64 491.393C538.423 491.526 538.215 491.675 538.02 491.838C537.893 491.933 537.909 491.949 538.02 491.838C538.74 490.941 539.384 489.985 539.944 488.98C542.694 484.502 559.337 447.472 561.944 441.851L559.241 484.931C558.976 489.035 559.566 493.15 560.974 497.015C562.409 500.805 564.68 504.224 567.618 507.019L559.178 505.431C559.613 505.257 560.007 504.993 560.333 504.656C560.659 504.32 560.91 503.918 561.069 503.477L574.66 466.606L576.489 505.796C576.83 511.697 578.458 517.452 581.257 522.659C580.773 522.225 580.197 521.905 579.572 521.723C579.312 521.629 579.038 521.581 578.762 521.58C578.35 521.531 577.933 521.569 577.538 521.691C580.747 518.996 583.325 515.63 585.088 511.83L596.39 490.536L599.983 514.355C601.062 522.143 604.617 529.38 610.124 534.997L597.408 537.141C607.32 516.904 616.129 496.147 623.795 474.959C632.313 454.711 636.82 433.007 637.068 411.045L637.354 379.7L651.963 407.266C653.415 410.09 654.529 413.075 655.285 416.158C657.206 423.989 658.545 431.95 659.291 439.977L643.633 438.929C645.786 427.724 646.263 416.261 645.048 404.916C643.818 393.716 640.847 382.776 636.241 372.491L628.023 354.183C631.203 354.818 650.834 359.962 654.029 359.804C655.103 359.918 656.189 359.794 657.208 359.439C657.208 359.439 657.209 359.439 657.129 359.439C657.05 359.439 657.002 359.439 656.748 359.74C656.473 360.002 656.251 360.315 656.096 360.661C656.096 360.772 656 360.756 655.985 360.82C656.105 359.275 656.067 357.721 655.873 356.183C654.729 346.958 651.502 336.716 648.625 327.474C643.856 312.675 638.388 297.812 632.522 283.33C623.43 259.416 612.223 236.09 596.931 215.606C584.984 199.187 570.995 184.353 555.299 171.462L551.023 162.49C549.529 163.634 548.654 165.777 549.688 167.032L549.338 166.762C546.731 164.888 544.188 162.951 541.565 161.093C507.054 137.989 467.887 123.412 428.369 110.645C370.744 92.7633 311.874 79.1602 252.242 69.9473C240.192 67.9783 228.175 65.8187 216.173 63.5956C144.241 49.9939 73.1737 32.1678 3.34157 10.2102L9.11164 6.1293C6.89447 37.2651 16.0052 68.1537 34.768 93.1148C53.4618 118.394 79.277 138.053 107.572 151.867L107.349 152.36C47.437 127.287 -2.90559 74.044 0.130546 5.60526L0.305185 0L5.8847 1.58791C75.9934 20.8876 147.101 36.366 218.891 47.9547C236.043 50.5589 255.532 53.56 272.938 55.8942C327.509 64.1196 381.571 75.2032 434.553 90.9234C475.883 103.484 517.8 118.442 554.472 142.245C557.97 144.674 561.562 147.104 564.948 149.724C569.041 153.206 572.231 157.624 574.247 162.602L569.971 153.63C578.508 160.585 586.634 168.029 594.308 175.924C621.442 203.776 640.836 238.329 653.87 274.692C661.532 295.097 668.844 315.517 673.931 336.811C675.775 345.004 677.857 354.675 676.633 363.615C674.853 375.984 663.297 381.225 652.551 380.034C649.25 379.726 645.986 379.098 642.807 378.16L654.649 364.583C662.034 383.149 664.762 403.237 662.597 423.098C661.691 436.849 650.119 472.926 646.701 486.614C645.255 471.116 643.903 434.642 639.739 420.144C639.305 418.314 638.676 416.536 637.863 414.841L652.774 411.061C652.587 428.954 649.813 446.727 644.539 463.827C641.36 473.45 635.908 486.916 632.443 496.491C624.876 516.006 615.863 535.204 606.627 553.989L598.679 546.049C590.794 538.031 585.681 527.704 584.087 516.578L598.981 519.055C596.887 523.171 594.275 527.002 591.208 530.456C586.249 536.299 576.536 540.698 569.733 533.632C567.755 531.447 566.217 528.902 565.202 526.137C562.371 519.909 560.752 513.2 560.433 506.367L575.853 508.686C574.933 511.233 573.485 513.557 571.603 515.506C569.721 517.454 567.448 518.983 564.932 519.992L560.163 521.897C548.48 512.005 542.201 499.174 543.17 483.787L558.367 487.535C554.568 495.062 548.607 510.766 537.48 505.319C533.331 502.938 532.123 498.396 530.946 494.426C529.648 489.367 528.624 484.241 527.878 479.071L542.471 482.152C541.46 483.78 540.3 485.311 539.006 486.725C535.079 491.378 527.211 493.871 522.108 488.535C519.151 485.201 518.754 482.755 517.641 479.484C515.95 473.748 514.607 467.915 513.62 462.017L526.575 466.781L522.061 470.576L510.933 479.945C509.805 471.243 506.944 449.028 505.767 440.041L520.074 443.725C516.02 449.251 507.357 460.906 503.319 466.495L498.884 450.902L492.16 427.353L505.37 430.847C502.191 434.022 493.416 442.55 490.141 445.773L481.16 401.693L495.689 404.297C491.731 410.648 483.767 423.431 479.793 429.703L463.038 395.738L474.373 398.914L468.189 402.757L459.637 408.076C457.555 401.867 450.592 381.082 448.382 374.492L461.465 377.668L448.128 390.577L432.375 381.05L430.499 379.907L429.466 377.969L415.525 351.626L429.069 352.452C425.222 358.041 417.274 369.315 413.411 374.889L407.339 363.345L396.768 343.305L408.96 345.655C404.732 349.292 396.068 356.628 391.824 360.28C389.138 353.309 381.587 333.413 378.805 326.204L391.967 328.855L370.842 350.911L366.407 355.548L360.938 352.182L345.726 342.829L351.337 343.877L324.727 348.752L315.937 350.34L315.365 341.432L313.87 317.851L322.804 325.219L293.094 328.967L288.182 329.602L285.448 325.457C269.854 302.036 287.467 274.247 305.795 258.527L313.155 272.199C301.629 275.563 289.824 277.885 277.882 279.138C271.198 279.899 264.433 279.502 257.884 277.963C247.282 275.311 241.591 265.434 245.549 254.7C248.49 246.205 254.181 239.44 259.855 232.882L267.47 245.903L221.975 247.491L221.912 247.507Z" fill="white"/>
</svg>
