<svg width="504" height="556" viewBox="0 0 504 556" fill="none" xmlns="http://www.w3.org/2000/svg">
<path d="M452.754 3.18164H70.2891V510.517H452.754V3.18164Z" fill="white"/>
<path d="M452.757 507.484H85.866C80.9043 507.484 75.8048 507.071 70.9809 507.484C70.7053 507.484 70.5674 507.484 70.2918 507.484L73.7374 510.93V23.9932C73.7374 17.5154 74.1509 10.762 73.7374 4.28421C73.7374 4.00856 73.7374 3.73291 73.7374 3.45726L70.4296 6.35159H437.321C442.282 6.35159 447.382 6.76507 452.206 6.35159H452.895L449.449 2.90596V489.705C449.449 496.321 449.311 502.798 449.449 509.414V510.241C449.449 514.1 456.065 515.065 456.065 510.792V23.9932C456.065 17.3776 456.203 10.762 456.065 4.28421C456.065 4.00856 456.065 3.73291 456.065 3.45726C455.927 1.66554 454.411 0.149457 452.619 0.0116313H85.866C80.9043 0.0116313 75.9426 0.0116313 70.9809 0.0116313C70.7053 0.0116313 70.5674 0.0116313 70.2918 0.0116313C68.7757 -0.126194 67.2596 0.976407 67.1218 2.49249C67.1218 2.63031 67.1218 2.63031 67.1218 2.76814V489.567C67.1218 496.183 66.984 502.661 67.1218 509.276V510.103C67.2596 511.895 68.7757 513.411 70.5674 513.549H437.458C442.42 513.549 447.382 513.549 452.344 513.549H453.033C457.443 513.687 456.754 507.484 452.757 507.484Z" fill="#262626"/>
<path d="M418.713 104.346H102.404V428.924H418.713V104.346Z" fill="#F5EE30"/>
<path d="M418.024 427.408H114.671C110.536 427.408 106.401 427.27 102.404 427.408H101.853L105.85 429.613V118.128C105.85 113.993 106.125 109.583 105.85 105.448C105.85 105.31 105.85 105.034 105.85 104.897L103.093 105.861H406.585C410.719 105.861 414.854 105.999 418.851 105.861H419.402L415.406 103.656V415.141C415.406 419.414 415.406 423.549 415.406 427.821V428.373C415.406 430.716 422.159 431.543 422.159 429.613V118.128C422.159 113.855 422.297 109.72 422.159 105.448V104.897C422.159 103.243 419.265 102.691 418.162 102.691H101.853C101.302 102.691 99.0964 102.691 99.0964 103.656V415.141C99.0964 419.414 98.9586 423.549 99.0964 427.821V428.373C99.0964 429.889 101.991 430.578 103.093 430.578H419.402C420.229 430.578 422.435 430.578 422.159 429.2C421.883 427.821 419.127 427.408 418.024 427.408Z" fill="#F5EE30"/>
<g opacity="0.41">
<path d="M231.408 473.716C235.138 473.716 238.161 470.692 238.161 466.962C238.161 463.233 235.138 460.209 231.408 460.209C227.678 460.209 224.654 463.233 224.654 466.962C224.654 470.692 227.678 473.716 231.408 473.716Z" fill="#F5EE30"/>
<path d="M234.856 466.412C234.856 466.549 234.856 466.825 234.856 466.963C234.856 466.412 234.856 466.825 234.856 466.963C234.856 467.101 234.718 467.514 234.718 467.79C234.58 468.066 234.58 468.341 234.443 468.617C234.443 468.755 234.167 469.168 234.443 468.755L234.167 469.168C233.891 469.719 233.478 470.133 232.926 470.409C233.478 469.995 232.651 470.546 232.513 470.546L232.237 470.684C232.099 470.684 231.548 470.96 231.962 470.822H231.686L231.273 470.96C230.859 471.098 230.997 470.822 231.41 470.96C231.273 470.96 231.135 470.96 230.997 470.96H230.583C229.894 470.96 231.135 470.96 230.721 470.96H230.308C229.619 470.822 231.135 471.236 230.446 470.96C230.308 470.96 230.032 470.96 229.894 470.822C229.756 470.684 230.721 471.236 230.308 470.96L229.756 470.684C229.481 470.546 229.481 470.409 230.032 470.822C229.894 470.684 229.481 470.409 229.343 470.271C228.93 469.857 229.619 470.684 229.481 470.409C229.343 470.133 229.205 470.133 229.067 469.995L228.93 469.719C228.516 469.306 229.205 470.271 228.93 469.719C228.792 469.444 228.654 469.168 228.516 468.893L228.378 468.617C228.24 468.066 228.516 469.168 228.378 468.479C228.378 468.203 228.24 467.79 228.24 467.514C228.24 467.239 228.24 466.963 228.24 466.687C228.24 466.136 228.103 467.101 228.24 466.549C228.24 466.412 228.24 466.274 228.24 466.136C228.24 465.86 228.378 465.585 228.516 465.309C228.516 465.171 228.654 465.033 228.654 464.758C228.654 464.62 228.93 464.206 228.654 464.62C228.93 464.069 229.343 463.655 229.756 463.242C229.894 463.104 230.032 463.104 230.032 462.966C229.481 463.242 230.032 462.828 230.032 462.966C230.583 462.69 230.583 462.553 230.997 462.415L231.273 462.277L231.548 462.139C231.686 462.139 232.1 462.139 231.686 462.139C231.273 462.139 231.686 462.139 231.824 462.139H232.237C232.651 462.139 232.513 462.277 232.1 462.139C232.237 462.139 232.513 462.277 232.651 462.139C233.34 462.277 231.824 461.863 232.513 462.139C232.651 462.139 232.926 462.277 233.064 462.277C232.375 462.139 232.513 462.001 232.789 462.139C232.926 462.277 233.202 462.415 233.34 462.415C232.789 462.277 232.789 462.001 233.064 462.277C233.34 462.553 233.478 462.553 233.616 462.69C233.753 462.828 233.616 462.828 233.478 462.553C233.478 462.69 233.753 462.828 233.891 462.966C234.029 463.104 234.167 463.242 234.167 463.38C233.891 462.828 234.58 463.793 234.167 463.38C234.305 463.655 234.443 464.069 234.58 464.344C234.58 464.344 234.718 464.896 234.58 464.62C234.443 464.344 234.718 464.896 234.718 465.033C234.718 465.723 234.718 466.136 234.856 466.412C234.856 467.101 235.269 467.79 235.821 468.203C236.51 468.755 237.337 469.168 238.302 469.168C239.68 469.306 241.472 469.03 241.472 467.376C241.334 458.693 228.792 454.559 223.279 461.036C220.936 463.793 220.66 467.652 222.452 470.684C224.933 474.543 229.343 476.611 233.891 475.922C238.164 475.37 241.334 471.787 241.472 467.376C241.334 466.687 240.92 465.998 240.369 465.585C239.68 465.033 238.853 464.62 237.888 464.62C236.648 464.482 234.856 464.758 234.856 466.412Z" fill="#F5EE30"/>
</g>
<path d="M260.214 472.753C263.944 472.753 266.968 469.729 266.968 466C266.968 462.27 263.944 459.246 260.214 459.246C256.485 459.246 253.461 462.27 253.461 466C253.461 469.729 256.485 472.753 260.214 472.753Z" fill="#F5EE30"/>
<path d="M263.934 464.62C263.934 467.101 262.418 469.168 260.213 470.271C259.937 470.409 259.662 470.547 259.386 470.547L258.973 470.684C259.248 470.684 258.835 470.684 258.835 470.684C258.559 470.684 258.146 470.684 257.87 470.684C257.319 470.684 257.732 470.684 257.87 470.684L257.319 470.547C256.767 470.409 257.87 470.684 257.319 470.547C257.181 470.547 257.043 470.409 257.043 470.409C257.87 470.547 257.457 470.684 257.181 470.409L257.457 470.547C256.905 470.271 258.146 470.96 257.732 470.684C257.319 470.409 257.594 470.271 257.87 470.822C257.87 470.684 257.594 470.271 257.732 470.684C257.87 471.098 257.594 470.547 257.457 470.409L257.319 470.133C257.594 470.684 257.319 470.133 257.319 469.995C257.181 469.72 257.043 469.444 256.905 469.168C256.905 469.031 256.767 468.755 256.767 468.617C256.63 468.341 256.63 467.928 256.63 467.652C256.492 465.171 257.732 462.966 259.937 461.864C260.489 461.588 260.902 461.45 261.591 461.312C261.867 461.312 261.178 461.312 261.729 461.312H262.143H262.556C262.694 461.312 263.107 461.312 262.694 461.312C262.832 461.312 263.107 461.312 263.245 461.45C262.694 461.312 263.797 461.588 263.245 461.45C263.383 461.45 263.934 461.726 263.383 461.45C263.107 461.312 263.107 461.312 263.383 461.45L263.107 461.312C263.245 461.45 263.245 461.45 263.383 461.45C262.832 461.174 262.694 461.037 263.107 461.312L262.832 461.174L263.107 461.45C262.832 461.174 262.832 461.037 262.97 461.312L263.107 461.45L263.383 461.864C263.107 461.45 263.383 461.864 263.383 462.001C263.521 462.277 263.659 462.691 263.797 462.966C263.659 462.691 263.797 463.104 263.797 463.104C263.797 463.38 263.934 463.518 263.934 463.793C263.934 463.931 264.072 464.344 263.934 464.62C264.072 465.171 264.624 465.723 265.037 465.998C265.726 466.55 266.415 467.101 267.242 467.377C267.793 467.652 270.137 468.617 270.137 467.239C270.137 462.966 266.415 459.658 262.694 458.142C258.973 456.626 254.976 456.626 252.219 459.658C250.014 462.139 249.876 465.861 251.668 468.617C253.046 470.684 255.114 472.476 257.319 473.441C259.111 474.406 261.178 474.819 263.245 474.681C266.967 474.268 269.861 471.098 269.999 467.377C269.999 466.825 269.31 466.136 269.034 465.861C268.345 465.309 267.656 464.758 266.829 464.482C266.14 464.344 263.934 463.38 263.934 464.62Z" fill="#F5EE30"/>
<g opacity="0.41">
<path d="M288.744 473.304C292.473 473.304 295.497 470.28 295.497 466.55C295.497 462.82 292.473 459.797 288.744 459.797C285.014 459.797 281.99 462.82 281.99 466.55C281.99 470.28 285.014 473.304 288.744 473.304Z" fill="#F5EE30"/>
<path d="M292.19 466.137C292.19 466.275 292.19 466.55 292.19 466.688C292.19 466.137 292.19 466.55 292.19 466.688C292.19 466.826 292.052 467.239 292.052 467.515C291.914 467.791 291.914 468.066 291.776 468.342C291.776 468.48 291.501 468.893 291.776 468.48L291.501 468.893C291.225 469.445 290.812 469.858 290.26 470.134L289.847 470.409L289.571 470.547C289.433 470.547 288.882 470.823 289.296 470.685C289.709 470.547 289.158 470.685 289.158 470.685L288.744 470.823C288.331 470.961 288.469 470.685 288.882 470.823C288.744 470.823 288.606 470.823 288.469 470.823H288.055C287.366 470.823 288.744 470.961 288.193 470.823H287.779C287.09 470.823 288.606 471.098 287.917 470.823C287.779 470.823 287.504 470.685 287.366 470.685C287.366 470.685 288.193 471.098 287.779 470.823L287.366 470.547C287.09 470.409 287.09 470.271 287.642 470.685C287.504 470.547 287.228 470.271 286.953 470.134C286.539 469.72 287.228 470.547 287.09 470.271C286.953 469.996 286.815 469.996 286.677 469.858L286.539 469.582C286.126 469.031 286.815 470.134 286.539 469.582C286.401 469.307 286.263 469.031 286.126 468.755L285.988 468.48C285.712 467.928 285.988 469.031 285.988 468.342C285.988 468.066 285.85 467.653 285.85 467.377C285.85 467.102 285.85 466.826 285.85 466.55C285.85 465.999 285.712 466.964 285.85 466.412C285.85 466.275 285.85 466.137 285.85 465.999C285.85 465.723 285.988 465.448 286.126 465.172L286.263 464.621C286.263 464.483 286.539 464.069 286.263 464.483C286.539 463.932 286.953 463.518 287.366 463.105C287.504 462.967 287.642 462.967 287.642 462.829C287.228 463.105 287.642 462.691 287.642 462.829C288.055 462.553 288.193 462.415 288.606 462.278C288.744 462.278 288.882 462.14 288.882 462.14L289.296 462.002C289.433 462.002 289.847 462.002 289.433 462.002C289.02 462.002 289.433 462.002 289.571 462.002H289.985C290.398 462.002 290.26 462.14 289.847 462.002C289.985 462.002 290.26 462.002 290.398 462.002C291.087 462.002 289.571 461.726 290.26 462.002C290.398 462.002 290.674 462.14 290.812 462.14C290.122 462.002 290.123 461.864 290.536 462.002C290.674 462.14 290.949 462.278 291.087 462.278C290.536 462.14 290.536 461.864 290.812 462.14L291.363 462.553C291.639 462.829 291.363 462.691 291.225 462.415C291.225 462.553 291.501 462.691 291.639 462.829L291.914 463.242C291.639 462.691 292.328 463.656 291.914 463.242C292.052 463.518 292.19 463.931 292.328 464.207C292.328 464.207 292.466 464.758 292.466 464.345C292.466 463.932 292.466 464.621 292.466 464.758C292.19 465.31 292.19 465.723 292.19 466.137C292.328 466.826 292.741 467.515 293.292 467.791C293.982 468.342 294.809 468.755 295.773 468.755C297.152 468.893 298.943 468.618 298.943 466.826C298.805 458.281 286.263 454.008 280.75 460.486C278.407 463.242 278.132 467.102 280.061 470.271C282.542 474.131 286.953 476.198 291.501 475.509C295.773 474.958 298.943 471.374 299.081 466.964C298.943 466.275 298.53 465.585 297.979 465.31C297.289 464.758 296.462 464.345 295.498 464.345C293.844 464.069 292.19 464.483 292.19 466.137Z" fill="#F5EE30"/>
</g>
<path d="M115.359 468.341C113.429 467.377 111.775 466.136 110.259 464.62C108.743 463.104 107.502 461.312 106.813 459.245C106.262 457.178 107.64 455.937 109.432 455.248L110.259 454.972C109.983 454.972 109.708 454.972 109.57 454.835L109.432 454.697C109.57 454.972 109.846 455.248 110.121 455.524L112.602 458.969C113.842 460.761 117.702 461.588 118.666 459.107C119.218 457.591 119.769 456.075 120.458 454.697C120.734 454.145 121.009 453.594 121.423 453.181C121.285 453.318 121.836 452.905 121.561 453.043L121.974 452.905C122.388 452.905 122.388 452.905 121.974 452.905H122.25C121.699 452.492 122.388 452.905 122.525 453.043C121.698 452.767 122.939 453.181 122.388 452.905C122.663 453.181 122.663 453.181 122.525 453.043L122.801 453.318C123.49 454.283 123.766 455.524 123.766 456.626C123.766 459.521 121.836 462.277 120.182 464.482C118.253 467.101 116.048 469.582 113.705 471.649C112.464 472.752 113.98 474.681 115.083 475.233C116.461 476.06 118.391 475.922 119.631 474.957C122.663 472.201 125.42 469.031 127.625 465.585C129.83 462.139 131.346 458.142 129.968 454.008C128.452 449.873 124.179 447.254 119.769 447.805C117.702 448.081 115.91 449.184 114.807 450.975C113.842 452.905 112.878 454.835 112.189 456.902L118.253 457.04C117.15 455.386 116.048 453.87 114.945 452.354C113.291 450.424 110.948 449.459 108.467 449.597C104.884 450.011 100.749 452.354 100.336 456.213C99.9221 459.658 102.127 462.966 104.195 465.447C106.538 468.204 109.294 470.547 112.464 472.201C113.842 472.89 115.91 473.165 117.012 471.925C118.115 470.684 116.461 469.031 115.359 468.341Z" fill="#262626"/>
<path d="M155.054 467.241C152.022 468.894 147.749 471.1 145.269 467.378C144.304 465.724 143.752 463.795 143.752 461.728C143.477 459.66 143.752 457.455 144.855 455.525C144.993 455.25 145.131 455.112 145.406 454.836C145.544 454.698 146.233 454.147 145.958 454.285C146.371 454.009 146.785 453.734 147.198 453.458C147.198 453.458 147.749 453.182 147.336 453.32C147.612 453.182 147.887 453.045 148.163 452.907C148.439 452.769 148.99 452.631 149.403 452.493C149.679 452.355 149.817 452.355 150.092 452.218H150.23C151.195 452.08 152.16 451.804 153.125 451.666C153.952 451.528 154.778 451.528 155.605 451.666C156.432 452.08 157.122 452.769 157.673 453.596C158.913 455.112 159.602 457.041 160.016 458.971C160.154 459.936 160.154 461.038 159.878 462.003C159.465 463.381 158.638 464.484 158.913 465.862C159.465 467.241 160.154 468.481 161.118 469.584L163.737 473.443L166.631 469.032C164.426 469.308 162.083 469.032 160.016 468.343C156.984 467.24 152.711 471.927 156.708 473.443C159.878 474.545 163.324 474.821 166.631 474.27C168.699 473.994 170.904 471.927 169.526 469.859L166.769 465.862C166.356 465.173 165.942 464.484 165.529 463.933C165.667 463.933 165.391 464.346 165.529 464.484C165.667 464.622 166.218 463.106 166.218 462.968C167.045 460.349 167.045 457.455 166.08 454.836C165.253 452.08 163.599 449.737 161.394 447.945C158.775 446.015 155.468 446.291 152.435 446.705C147.336 447.532 141.685 449.599 138.791 454.147C137.275 456.766 136.586 459.798 136.999 462.968C137.137 465.724 137.964 468.343 139.48 470.686C141.409 473.305 144.579 474.683 147.887 474.545C151.609 474.27 155.33 473.029 158.5 470.962C159.74 470.273 160.705 468.481 159.602 467.241C158.5 466 156.295 466.551 155.054 467.241Z" fill="#F5EE30"/>
<path d="M186.063 459.934C183.307 457.04 180.826 453.87 178.759 450.562L177.105 455.662C184.823 455.11 192.541 455.524 200.259 457.04L197.779 451.665C192.817 458.142 190.75 466.825 185.099 472.476L190.336 474.957L187.58 462.415L187.442 461.726C187.304 461.037 187.166 461.45 186.89 462.966L187.166 462.828L187.855 462.553L190.612 461.175L196.4 458.142C197.916 457.453 198.606 455.524 197.779 454.008C197.09 452.629 195.16 451.113 193.506 451.94L186.753 455.386C184.547 456.489 181.377 457.453 181.102 460.21C181.102 461.588 181.377 462.828 181.791 464.207L182.618 467.928L184.272 475.371C184.547 476.611 185.374 477.576 186.477 478.127C187.442 478.678 188.682 478.541 189.509 477.851C195.711 471.512 198.054 462.829 203.292 455.799C204.808 453.87 202.878 450.838 200.811 450.424C192.679 448.908 184.41 448.357 176.14 448.908C175.037 449.046 174.073 449.735 173.797 450.7C173.521 451.802 173.797 453.043 174.486 454.008C176.554 457.453 179.034 460.485 181.791 463.38C182.894 464.62 184.685 465.447 186.201 464.345C187.166 463.242 187.304 461.312 186.063 459.934Z" fill="#262626"/>
<path d="M398.454 464.069C395.421 466.825 392.527 469.72 389.908 472.89L396.524 471.374L395.697 459.521L395.284 453.87L395.008 450.838C395.008 450.011 394.594 448.908 395.421 448.357L391.424 449.597C388.944 450.148 390.322 449.873 391.149 449.735H392.665H395.421C397.351 449.735 399.143 449.873 401.072 449.873C403.002 449.873 404.794 450.148 406.723 450.286C407.412 450.286 408.928 450.286 409.48 450.7C410.031 451.113 409.893 452.216 409.893 452.767L412.374 475.508L419.127 473.854C414.028 470.96 409.617 466.963 406.034 462.139C405.62 461.588 403.14 462.553 402.588 462.691C401.486 462.966 400.383 463.38 399.28 463.931C402.726 468.755 407.274 472.614 412.374 475.646C413.063 476.06 419.127 474.681 419.127 473.992L417.473 458.831L416.646 451.389C416.509 450.562 416.646 449.321 415.957 448.77C414.855 448.357 413.752 448.219 412.65 448.357C407.826 447.943 402.864 447.668 398.04 447.805C396.8 447.805 395.559 447.805 394.457 448.081C392.665 448.219 390.873 448.77 389.219 449.597C388.392 450.148 388.53 450.838 388.53 451.665L388.806 455.524L390.184 472.752C392.389 472.614 394.732 472.063 396.8 471.236C399.418 468.066 402.313 465.171 405.345 462.415C405.62 462.139 405.069 462.277 404.931 462.277C404.242 462.277 403.553 462.415 402.864 462.553C402.037 462.691 401.21 462.966 400.245 463.242C399.556 463.517 399.005 463.793 398.454 464.069Z" fill="#262626"/>
<path d="M166.768 45.2178C162.495 49.3526 157.947 53.763 157.12 59.9651C156.155 66.3051 159.601 72.5072 165.527 74.8502C171.04 77.0554 177.105 75.1259 181.377 71.4046C183.72 69.6129 185.65 67.2698 187.028 64.5133C188.406 61.3434 187.441 57.6221 184.685 55.4169C179.861 51.4199 173.108 54.8656 172.281 60.792C171.454 67.132 176.967 72.9207 182.618 74.7124C188.268 76.5041 195.435 76.2285 201.362 75.1259C207.288 74.0233 212.664 70.8533 216.523 66.1672C220.382 61.4812 223.138 55.9682 224.654 50.0417C226.17 43.8395 225.068 36.9483 219.83 32.8135C215.144 29.0922 208.942 30.1948 205.083 34.4674C200.811 39.1535 200.535 46.3204 200.811 52.3847C200.948 55.9682 201.362 59.6895 202.189 63.1351C202.74 66.3051 203.843 69.1994 205.772 71.8181C209.769 77.0554 217.074 77.8824 223.138 77.6067C229.478 77.3311 235.543 75.4015 240.78 72.0937C245.604 69.0616 249.601 63.8242 247.809 57.7599C246.982 54.8656 245.19 52.3847 242.572 50.8686C241.469 50.1795 240.229 49.9038 238.988 49.9038C237.472 49.9038 236.232 50.7308 235.543 52.1091C232.648 56.2438 232.648 61.7568 234.302 66.4429C235.956 71.5424 239.815 75.5394 244.777 77.4689C249.739 79.1228 255.252 78.5715 259.8 75.9528C262.005 74.7124 263.935 72.9207 265.451 70.8533C267.242 68.3724 262.694 63.2729 260.627 66.1672C256.768 71.4046 248.36 74.2989 242.572 70.4398C237.748 67.2698 237.472 59.8273 241.469 55.5547L240.366 56.2438C242.709 55.9682 242.985 58.5868 242.434 60.3786C241.331 63.5486 238.299 65.6159 235.68 67.2698C229.065 71.129 221.347 72.3694 213.904 70.9911C212.388 70.8533 211.01 70.1642 209.769 69.3372C208.942 68.3724 208.253 67.132 208.115 65.7538C207.013 61.619 206.461 57.4842 206.324 53.2117C206.186 49.6282 206.324 45.6313 207.84 42.3235C209.08 39.2913 211.837 37.2239 215.007 36.8104C217.487 36.6726 219.555 38.4643 219.83 40.9452C220.52 44.5287 219.003 48.3878 217.625 51.6956C215.007 58.1734 210.872 64.5133 204.256 67.4077C200.811 68.7859 196.951 69.6129 193.23 69.7507C189.647 69.8885 185.512 70.0263 182.066 68.7859C179.861 67.959 177.38 66.3051 177.656 63.6864C177.932 62.3081 178.758 61.0677 179.999 60.3786C180.55 60.1029 181.101 59.9651 181.653 59.9651C181.377 59.9651 182.48 60.1029 182.342 60.1029C182.48 60.2407 182.48 60.1029 182.204 59.8273C182.066 59.276 182.066 59.1381 182.066 59.5516C182.066 59.5516 181.101 61.7568 180.964 62.0325C179.31 64.3755 177.105 66.4429 174.486 67.8211C171.592 69.475 167.595 70.302 164.562 68.5103C161.53 66.7185 161.944 63.1351 163.046 60.3786C164.425 56.5195 167.595 53.6251 170.489 50.8686C171.454 49.6282 171.454 47.9743 170.489 46.7339C169.8 45.7691 167.732 44.1152 166.63 45.2178H166.768Z" fill="#262626"/>
<path d="M267.521 57.8977V56.106C267.383 55.9682 267.245 55.8303 267.107 55.6925C266.832 55.5547 266.556 55.5547 266.28 55.5547C265.867 55.5547 265.453 55.5547 265.178 55.6925C264.764 55.6925 264.351 55.8303 263.937 55.9682L263.11 56.2438C262.559 56.5195 262.146 56.7951 261.732 57.0708L261.319 57.4842C261.181 57.6221 261.043 58.0355 261.043 58.3112V60.1029C261.181 60.2407 261.319 60.3786 261.456 60.5164C261.732 60.6542 262.008 60.6542 262.283 60.6542C262.697 60.6542 263.11 60.6542 263.386 60.5164C263.799 60.5164 264.213 60.3786 264.626 60.2407L265.453 59.9651C266.005 59.8273 266.418 59.5516 266.832 59.1381L267.245 58.7247C267.521 58.449 267.521 58.1734 267.521 57.8977Z" fill="#262626"/>
<path d="M120.322 72.3703C130.37 72.3703 138.515 64.225 138.515 54.1773C138.515 44.1296 130.37 35.9844 120.322 35.9844C110.274 35.9844 102.129 44.1296 102.129 54.1773C102.129 64.225 110.274 72.3703 120.322 72.3703Z" fill="#F5EE30"/>
<path d="M136.586 51.8342C136.586 58.8633 132.313 65.0654 125.973 67.8219C119.633 70.5785 112.328 69.338 107.367 64.5141C102.956 60.1037 103.37 52.799 106.54 47.5616C110.123 41.4973 117.015 38.1895 124.044 39.0165C127.627 39.4299 130.935 41.0838 133.416 43.5647C135.621 45.9077 136.861 49.0777 136.724 52.3855C136.861 54.0394 137.688 55.5555 139.067 56.6581C140.169 57.4851 140.858 57.0716 140.72 55.6933C140.583 47.0103 135.07 37.9139 127.076 34.3304C119.495 30.8848 110.399 32.8143 104.886 39.1543C92.7573 52.9368 106.126 77.7454 124.319 75.1267C133.691 73.7484 140.72 65.7546 140.72 56.2446C140.72 54.5907 140.031 53.0746 138.929 51.8342C138.24 51.5586 136.586 50.1803 136.586 51.8342Z" fill="#F5EE30"/>
<path d="M375.023 40.119C377.84 40.119 380.123 37.8359 380.123 35.0195C380.123 32.2031 377.84 29.9199 375.023 29.9199C372.207 29.9199 369.924 32.2031 369.924 35.0195C369.924 37.8359 372.207 40.119 375.023 40.119Z" fill="#262626"/>
<path d="M396.66 39.5682C399.476 39.5682 401.76 37.2851 401.76 34.4687C401.76 31.6523 399.476 29.3691 396.66 29.3691C393.844 29.3691 391.561 31.6523 391.561 34.4687C391.561 37.2851 393.844 39.5682 396.66 39.5682Z" fill="#262626"/>
<path d="M417.887 39.8436C420.703 39.8436 422.986 37.5605 422.986 34.7441C422.986 31.9277 420.703 29.6445 417.887 29.6445C415.07 29.6445 412.787 31.9277 412.787 34.7441C412.787 37.5605 415.07 39.8436 417.887 39.8436Z" fill="#262626"/>
<path d="M188.406 429.476L207.426 379.859L301.561 381.789L311.484 429.476H188.406Z" fill="#262626"/>
<path d="M191.576 430.716L208.253 387.163L210.596 380.961L210.044 381.236L241.882 381.926L292.602 383.028L304.179 383.304L298.39 380.823L306.936 422.584L308.176 428.51L308.727 427.959H190.749C189.095 427.821 187.579 427.821 185.925 427.959H185.649C184.133 427.959 186.063 429.337 186.338 429.475C187.717 430.302 189.233 430.716 190.887 430.854H308.865C310.381 430.854 312.173 430.991 313.689 430.854H313.965C314.378 430.854 314.654 430.716 314.516 430.302L305.971 388.541L304.73 382.615C304.593 381.926 302.801 381.236 302.25 380.961C301.147 380.409 300.044 380.134 298.942 380.134L267.104 379.445L216.384 378.342L204.807 378.066C204.531 378.066 204.394 378.066 204.256 378.342L187.579 421.895L185.236 428.097C184.685 429.475 191.162 431.956 191.576 430.716Z" fill="#262626"/>
<path d="M296.737 159.615C296.737 159.615 286.675 197.792 279.508 208.818C272.342 219.845 276.752 224.944 282.265 220.947C282.265 220.947 279.922 227.287 289.018 225.22C298.115 223.152 314.792 201.927 314.792 201.927C314.792 201.927 322.097 246.858 340.703 266.429C359.309 286.001 345.665 304.194 345.665 304.194C345.665 304.194 326.507 325.557 332.02 328.727C337.533 331.896 358.896 330.518 360.274 310.12L361.652 289.722C366.614 306.261 365.511 323.903 358.482 339.753C346.629 365.664 351.591 380.273 366.614 365.25C381.637 350.227 409.34 288.206 396.522 227.701C383.704 167.195 371.162 130.534 294.669 121.713L296.737 159.615Z" fill="#262626"/>
<path d="M293.708 158.373C293.57 158.786 293.845 157.821 293.708 158.511C293.57 159.2 293.432 159.613 293.294 160.027C292.743 161.818 292.329 163.61 291.778 165.264C290.262 170.639 288.608 176.014 286.954 181.252C285.025 187.178 283.095 192.967 280.752 198.618C279.787 200.823 278.822 203.028 277.72 205.096C276.066 208.128 274.136 210.884 273.309 214.192C272.482 217.362 273.034 220.394 275.79 222.462C278.547 224.667 282.406 224.667 285.162 222.599L279.512 218.878C278.547 221.221 279.374 223.978 281.441 225.494C285.162 228.388 290.4 228.112 294.397 226.045C297.98 223.978 301.288 221.497 304.182 218.602C307.352 215.57 310.384 212.262 313.279 208.955C314.795 207.163 316.449 205.371 317.827 203.442L311.625 200.547C313.692 212.952 316.862 225.08 321.273 236.795C324.58 245.754 328.715 254.713 334.504 262.293C338.087 266.841 342.36 270.7 344.841 276.076C346.908 280.486 347.597 285.31 347.184 290.272C346.77 294.682 345.116 298.955 342.498 302.538C338.639 306.948 335.055 311.497 331.747 316.321C329.956 318.801 328.577 321.558 327.888 324.59C327.337 327.898 330.231 329.965 332.988 331.068C338.914 333.273 346.357 332.308 351.87 329.414C355.315 327.76 358.21 325.141 360.139 321.834C362.896 317.285 363.171 312.186 363.447 307.086L364.274 294.269C364.412 293.166 364.55 292.063 364.55 290.823L358.348 288.893C359.45 292.063 360.139 295.371 360.553 298.679C361.793 306.811 361.518 315.08 360.002 323.074C359.037 328.174 357.383 333.135 355.178 337.821C353.248 342.094 351.594 346.366 350.354 350.777C348.838 356.152 347.046 363.181 349.802 368.419C352.283 372.967 357.934 374.621 362.482 372.002C367.031 369.659 370.614 365.386 373.646 361.389C381.227 350.915 386.602 338.648 390.874 326.52C396.801 309.843 400.66 292.339 402.038 274.697C402.865 265.05 402.727 255.402 401.9 245.754C400.936 236.933 399.42 228.25 397.49 219.705C392.528 196.964 386.464 173.12 371.579 154.651C355.315 134.529 330.369 125.019 305.423 120.884C301.288 120.195 297.015 119.644 292.881 119.093C292.191 118.955 291.227 119.368 291.227 120.195L293.018 153.549L293.708 158.373C293.708 159.889 295.361 160.991 296.602 161.543C297.291 161.818 299.91 162.37 299.772 160.854L297.98 127.5L297.704 122.814L296.051 123.916C310.109 125.57 324.167 128.327 337.26 133.84C346.77 137.699 355.453 143.488 362.758 150.792C377.643 166.229 384.397 188.143 389.358 208.955C390.874 215.57 392.39 222.186 393.769 228.801C395.56 238.036 396.525 247.546 396.525 256.918C396.663 274.973 394.32 292.89 389.358 310.256C385.637 324.039 380.262 337.132 373.371 349.674C371.028 353.947 368.271 357.944 365.239 361.665C363.585 363.595 361.793 365.249 359.726 366.765C358.761 367.454 357.796 368.005 356.694 368.556C356.28 368.694 355.867 368.832 355.453 368.832C355.178 368.832 355.04 368.832 354.764 368.97C355.178 368.832 354.764 368.97 354.626 368.97C354.764 368.97 355.453 368.97 354.626 368.97C355.729 369.245 354.351 368.694 355.453 369.245C354.902 368.832 356.142 369.797 355.591 369.383C356.005 369.659 355.867 369.383 356.005 369.797C355.591 369.108 355.315 368.419 355.178 367.729C354.764 365.249 354.764 362.768 355.315 360.287C355.867 356.566 356.832 352.982 358.21 349.399C359.864 344.575 362.207 340.026 363.861 335.34C368.547 321.696 368.96 306.811 365.239 292.89C364.963 292.063 364.825 291.374 364.55 290.547C363.861 289.169 362.62 288.204 361.104 287.791C360.277 287.515 358.485 287.239 358.348 288.618L357.796 296.336C357.521 301.573 357.521 307.086 356.556 312.186C355.867 316.045 353.937 319.628 351.181 322.385C348.7 324.728 345.668 326.244 342.498 327.209C341.119 327.622 339.603 327.76 338.225 327.898C337.536 327.898 336.985 327.898 336.296 327.898C336.02 327.898 335.606 327.898 335.331 327.898C335.055 327.898 334.09 327.76 334.779 327.898C334.228 327.76 333.677 327.622 333.263 327.622C332.85 327.622 333.677 327.898 333.126 327.622C332.436 327.209 332.574 327.347 333.126 327.622C332.436 327.209 333.677 328.174 333.815 328.174C333.953 328.174 334.366 328.725 334.09 328.449C334.366 328.725 334.09 328.725 334.228 328.587C334.366 328.449 334.228 327.898 334.228 328.725C334.228 328.587 334.228 328.587 334.228 328.449C334.228 328.174 334.228 327.898 334.228 327.622C334.504 325.004 336.433 322.247 337.949 319.904C341.257 315.218 344.703 310.67 348.424 306.259C350.767 302.952 352.421 299.23 353.11 295.233C355.178 284.621 350.629 274.422 343.462 266.566C337.536 259.812 332.712 251.956 329.542 243.549C324.305 230.593 320.446 217.224 317.965 203.442C317.827 202.615 317.965 203.717 317.965 203.166C317.689 201.236 313.554 198.066 311.9 200.272C308.868 204.131 305.561 207.852 302.115 211.435C299.496 214.192 296.602 216.811 293.57 219.292C290.951 221.221 288.195 223.151 284.887 223.288C284.611 223.288 284.335 223.288 284.06 223.288C283.646 223.426 283.784 223.151 284.06 223.288C284.335 223.426 284.749 223.702 285.025 223.84C285.3 223.978 285.3 224.115 285.438 224.253C285.162 224.115 285.438 224.391 285.438 224.253C285.438 224.115 285.3 223.978 285.3 223.978C285.3 223.702 285.3 224.529 285.3 223.978C285.3 223.564 285.3 223.151 285.438 222.737C285.438 222.324 285.3 223.013 285.438 222.599C286.265 220.394 281.579 217.638 279.787 218.878C279.374 219.154 278.96 219.429 278.409 219.705C278.271 219.843 277.995 219.843 277.858 219.843H277.582C277.306 219.843 277.306 219.843 277.582 219.843C276.893 219.705 277.582 219.981 277.582 219.843C278.271 219.981 278.822 220.394 279.374 220.945C279.649 221.221 279.374 221.221 279.374 221.083C279.374 221.359 279.236 220.808 279.236 220.532C278.685 217.775 280.338 214.468 281.717 212.125C284.06 207.99 286.127 203.717 287.919 199.307C291.778 189.246 294.948 178.909 297.842 168.434C298.531 165.815 299.221 163.334 299.91 160.716C300.461 158.648 294.397 155.616 293.708 158.373Z" fill="#262626"/>
<path d="M296.324 156.581C296.324 156.581 288.055 175.601 267.657 170.915C252.771 167.332 249.877 148.863 249.601 134.805C249.601 134.805 239.402 123.228 242.986 121.712C246.569 120.195 258.422 120.058 258.422 120.058C258.422 120.058 268.621 113.166 285.712 115.509C302.802 117.852 312.174 136.734 296.324 156.581Z" fill="#262626"/>
<path d="M293.016 155.755C289.846 163.06 282.679 169.124 274.685 169.538C268.07 170.089 261.868 166.781 258.56 160.992C254.976 154.928 253.736 147.348 253.185 140.456C253.047 138.665 253.047 137.011 252.909 135.219C252.909 134.53 252.496 133.841 251.944 133.289C250.428 131.498 248.912 129.568 247.672 127.639C246.983 126.674 246.431 125.571 245.88 124.469C245.742 124.193 245.604 123.228 245.604 123.504C245.604 123.366 245.604 123.09 245.604 122.953C245.604 122.953 245.329 123.09 245.191 123.228C245.329 123.09 245.467 123.228 245.329 123.228C245.191 123.228 245.742 123.09 245.88 123.09C246.018 123.09 246.431 122.953 246.845 122.953L247.534 122.815C249.188 122.539 250.704 122.401 252.358 122.263C254.563 122.126 256.906 122.126 259.111 121.988C259.938 121.85 260.627 121.574 261.316 121.299C261.73 121.161 261.041 121.437 261.041 121.437C261.592 121.161 262.143 120.885 262.695 120.472C268.621 117.715 275.099 116.475 281.577 117.026C285.16 117.026 288.744 117.991 291.914 119.645C294.808 121.299 297.151 123.78 298.667 126.674C302.388 133.979 301.01 142.386 297.289 149.277C296.048 151.482 294.67 153.688 293.016 155.755C292.051 156.995 294.257 158.098 295.221 158.374C296.738 158.925 298.391 158.512 299.494 157.409C304.042 151.758 307.488 144.867 307.764 137.562C308.039 131.773 306.11 125.985 302.251 121.574C297.978 117.026 292.327 114.27 286.125 113.443C279.096 112.34 271.791 112.891 264.9 114.683C261.592 115.51 258.422 116.888 255.528 118.68L257.595 117.991C254.701 117.991 251.944 118.129 249.05 118.404C246.983 118.542 244.915 118.818 242.848 119.369C241.47 119.783 239.678 120.196 238.989 121.574C237.748 124.193 240.643 128.052 242.159 129.982C243.537 131.911 244.915 133.703 246.569 135.495L246.156 134.392C246.431 146.659 248.085 162.784 259.663 169.675C271.102 176.291 285.574 174.224 294.532 164.576C296.6 162.371 298.254 159.89 299.494 157.271C300.734 154.515 294.119 153.274 293.016 155.755Z" fill="#262626"/>
<path d="M281.715 132.049C283.231 130.947 284.885 129.982 286.539 129.017C287.228 128.604 287.917 128.19 288.606 127.914C289.02 127.777 289.295 127.639 289.709 127.363C289.157 127.639 289.295 127.639 289.709 127.363L290.26 127.087C290.949 126.812 291.638 126.536 292.327 126.398L292.741 126.261C293.017 126.261 291.914 126.398 292.465 126.261C292.741 126.261 293.706 126.123 293.017 126.123C292.327 126.123 292.879 126.123 293.017 126.123L292.603 125.985C292.741 125.985 293.154 126.261 292.603 125.985C292.052 125.709 292.327 125.847 292.327 125.847C292.603 125.985 291.914 125.434 291.914 125.571C292.327 125.985 291.5 124.744 291.776 125.434C291.776 125.571 291.638 124.607 291.638 125.02C291.638 125.158 291.638 125.296 291.638 125.296C291.776 125.571 291.638 124.469 291.638 125.02C291.638 125.158 291.638 125.296 291.638 125.296C291.638 125.571 291.638 125.847 291.5 126.123C291.5 126.398 291.363 126.674 291.363 126.95C291.225 127.501 291.5 126.674 291.363 126.812L291.225 127.363C290.122 130.257 288.744 133.152 287.09 135.77C285.987 137.562 285.023 139.354 283.782 141.146C282.817 142.524 284.471 144.316 285.712 144.729C287.366 145.418 289.157 144.729 290.122 143.351C291.225 141.835 292.19 140.181 293.154 138.527C294.946 135.633 296.324 132.6 297.565 129.43C298.116 127.914 298.392 126.261 298.392 124.607C298.116 122.815 296.738 121.299 294.946 120.748C291.225 119.507 287.09 121.574 283.92 123.228C281.577 124.331 279.372 125.709 277.304 127.225C276.202 127.914 275.788 129.293 276.478 130.533C276.615 130.671 276.753 130.947 276.891 131.084C278.269 132.6 280.199 132.876 281.715 132.049Z" fill="white"/>
<path d="M323.476 177.67C320.995 186.353 317.273 194.485 312.45 202.065C311.485 203.581 311.623 205.511 312.863 206.751C313.828 207.716 316.171 208.543 317.136 207.027C322.649 198.619 326.783 189.523 329.54 179.875C329.816 178.083 328.851 176.292 327.059 175.602C325.681 175.051 324.165 175.74 323.613 177.119C323.613 177.256 323.613 177.394 323.476 177.67Z" fill="white"/>
<path d="M324.028 318.114C326.095 318.114 378.882 318.114 386.876 281.453C394.87 244.791 363.17 179.462 363.17 179.462C363.17 179.462 379.847 146.659 361.792 145.281C361.792 145.281 362.619 129.569 352.971 136.047C352.971 136.047 349.525 125.159 343.323 129.431C337.121 133.704 338.499 163.612 336.708 168.436C334.916 173.26 329.679 178.497 329.679 178.497C329.679 178.497 346.769 240.243 341.532 259.125C339.74 265.74 317.412 266.567 317.412 266.567L324.028 318.114Z" fill="white"/>
<path d="M325.406 321.146C332.987 321.146 340.429 320.181 347.734 318.389C360.414 315.495 373.232 309.982 381.501 299.507C391.287 287.241 391.287 270.702 389.357 255.816C387.152 239.14 382.19 222.738 376.402 207.026C374.059 200.824 371.716 194.76 369.097 188.695C367.857 185.663 366.616 182.631 365.1 179.737C364.962 179.599 364.962 179.461 364.962 179.323L365.376 182.08C367.305 178.083 368.959 173.948 370.337 169.813C372.405 163.336 374.059 155.617 370.751 149.277C368.821 145.28 364.962 142.662 360.552 142.386L364.273 147.486C364.549 144.316 363.997 141.146 363.033 138.114C362.206 135.495 360.414 133.29 357.933 132.049C355.728 131.084 353.385 132.049 351.455 133.428L355.452 137.011C354.074 132.876 351.593 128.052 347.458 126.261C342.91 124.193 339.878 128.328 338.775 132.187C335.743 142.11 336.432 152.999 335.468 163.198C335.33 164.025 335.33 164.852 335.192 165.679C335.192 165.816 335.192 165.954 335.054 166.092C334.916 166.506 335.192 165.679 335.054 166.092C334.641 167.057 334.227 168.022 333.676 168.986C332.16 171.467 330.368 173.81 328.301 175.878C327.749 176.429 327.749 177.394 328.025 178.083C331.333 189.936 334.089 201.789 336.432 213.917C338.362 223.014 339.602 232.248 340.429 241.483C340.705 245.204 340.705 248.787 340.429 252.509C340.154 255.541 340.016 257.746 337.259 259.4C333.538 261.605 328.852 262.294 324.579 262.983C321.823 263.397 319.066 263.672 316.448 263.81C315.621 263.81 315.483 264.775 315.621 265.464L321.272 310.671L322.099 317.011C322.374 318.665 323.339 320.181 324.717 321.146C325.958 321.835 326.785 321.283 326.647 319.905L321.134 274.698L320.307 268.358L319.48 270.012C325.958 269.737 332.849 268.91 338.913 266.567C340.429 266.015 341.808 265.189 343.048 263.948C344.013 262.845 344.702 261.329 344.84 259.813C345.391 256.23 345.667 252.509 345.391 248.925C344.978 239.553 343.737 230.319 341.945 221.222C340.292 212.126 338.224 203.029 336.157 193.933C335.054 189.247 333.814 184.423 332.573 179.737L332.298 181.942C335.468 178.772 339.051 174.637 340.016 170.089C340.567 166.23 340.981 162.371 340.981 158.512C341.256 153.274 341.532 147.899 342.359 142.662C342.772 139.63 343.461 134.806 345.805 133.014C346.631 132.325 347.872 132.049 348.975 132.325C349.388 132.463 349.25 132.325 349.664 132.738C350.077 133.152 349.112 132.187 349.801 132.876C349.939 133.014 350.353 133.565 349.939 133.014C350.077 133.29 350.904 134.668 350.491 133.979C350.766 134.392 350.904 134.806 351.18 135.357C351.18 135.495 351.318 135.633 351.318 135.771C351.042 134.944 351.593 136.322 351.318 135.771L351.455 136.184C351.731 137.287 353.798 140.87 355.452 139.767C356.693 138.803 358.209 138.251 359.725 138.389C359.863 138.389 359.311 137.838 359.174 137.838C359.036 137.838 359.036 137.562 359.174 137.976C359.311 138.251 359.311 138.389 359.174 137.976C359.311 138.389 359.449 138.665 359.449 139.078C359.587 139.767 359.449 138.941 359.587 139.63C359.587 140.043 359.725 140.319 359.725 140.732C359.863 141.421 359.863 141.973 359.863 142.662C359.863 143.075 359.863 143.351 359.863 142.937C359.863 143.075 359.863 143.351 359.863 143.489C359.863 143.627 359.863 143.902 359.863 144.04C359.725 145.97 361.379 149.002 363.584 149.14C364.411 149.14 365.238 149.415 366.065 149.691C366.203 149.691 367.03 150.104 366.754 149.967C366.892 150.104 367.167 150.104 367.305 150.242C367.857 150.518 367.305 150.242 367.443 150.38C367.581 150.518 367.857 150.793 367.581 150.518C367.305 150.242 367.719 150.793 367.719 150.793C367.719 150.656 367.167 150.242 367.581 150.656C367.994 151.069 367.581 150.656 367.443 150.518C367.581 150.656 367.581 150.931 367.719 151.069C367.857 151.483 367.581 150.518 367.719 150.931C367.719 151.069 368.132 152.31 367.994 151.758C368.546 155.204 368.27 158.65 367.305 161.957C366.065 167.47 363.584 172.432 361.517 177.669C360.965 179.048 361.792 180.426 362.344 181.666C363.17 183.596 363.997 185.388 364.824 187.317C367.994 194.484 370.751 201.375 373.232 208.542C376.815 218.19 379.71 228.113 382.19 238.037C384.671 247.96 386.05 258.022 386.05 268.221C385.912 277.317 384.12 286.276 378.745 293.856C373.921 300.61 366.892 305.434 359.311 308.741C348.148 313.565 336.019 316.046 323.752 316.184H322.65C320.307 315.081 323.201 321.146 325.406 321.146Z" fill="#262626"/>
<path d="M184.135 390.471C184.135 390.471 203.706 269.323 221.348 262.432C238.989 255.54 318.239 264.499 318.239 264.499C318.239 264.499 347.32 320.043 309.418 382.34C271.516 444.637 184.135 390.471 184.135 390.471Z" fill="white"/>
<path d="M187.303 389.506C188.957 379.721 190.749 369.797 192.678 360.012C196.399 340.854 200.534 321.558 205.634 302.814C207.839 294.407 210.595 286.137 213.765 277.868C215.006 274.698 216.384 271.666 218.038 268.771C218.589 267.944 219.278 266.704 219.968 265.739C220.243 265.326 220.657 264.912 220.932 264.499L221.484 263.947C221.07 264.361 221.759 263.534 221.484 263.947L221.759 263.672L222.311 263.258C221.621 263.672 222.724 262.983 222.311 263.258C223 262.845 221.484 263.672 222.173 263.396C221.208 263.672 222.035 263.396 222.173 263.396H222.311L223.275 263.12L223.827 262.983C224.24 262.845 223 263.12 223.689 262.983L225.067 262.707C228.788 262.156 232.51 261.742 236.231 261.604C246.568 261.191 256.905 261.604 267.242 262.018C283.092 262.845 298.941 264.085 314.654 265.877L315.48 266.015L314.791 265.601C316.17 268.496 317.41 271.39 318.513 274.422C321.269 282.14 323.199 289.996 324.301 298.128C327.885 324.453 323.199 351.329 310.657 374.897C305.281 384.958 298.804 394.744 289.294 401.359C285.71 403.84 281.851 405.77 277.716 407.286C275.787 407.975 273.719 408.526 271.652 409.077C269.998 409.491 267.517 409.904 265.45 410.18C248.497 412.247 230.856 408.113 215.006 402.324C205.496 398.603 196.262 394.33 187.441 389.368L187.027 389.093C185.925 388.404 183.857 389.231 182.755 389.782C182.341 390.057 179.998 391.298 181.101 391.987C189.508 397.087 198.467 401.359 207.701 404.667C225.618 411.42 245.052 415.831 264.072 413.212C274.822 411.834 285.021 407.837 293.98 401.773C304.868 394.054 312.173 383.304 318.099 371.589C330.779 346.505 334.914 317.975 329.952 290.41C328.574 282.692 326.369 275.249 323.474 267.944C322.923 266.428 322.372 265.05 321.545 263.672C320.994 262.845 320.304 262.983 319.477 262.845C303.628 261.191 287.915 259.95 272.066 258.986C262.004 258.434 251.943 258.159 241.882 258.434C237.747 258.572 233.612 258.848 229.478 259.399C226.17 259.675 222.862 260.64 219.692 262.018C214.868 264.361 212.112 269.323 209.906 273.871C206.736 280.9 203.98 288.067 201.912 295.371C196.262 313.702 192.127 332.446 188.268 351.191C185.649 363.871 183.306 376.551 181.101 389.368C180.963 390.057 180.825 390.609 180.825 391.298C180.55 392.952 187.027 391.436 187.303 389.506Z" fill="#262626"/>
<path d="M357.518 144.59C357.518 143.074 357.38 141.696 357.242 140.18C357.104 137.699 356.553 135.218 355.726 132.738C355.175 131.359 354.072 130.394 352.694 129.843C351.867 129.568 350.902 129.43 350.075 129.43C349.386 129.43 348.697 129.568 348.008 129.843C346.63 130.67 348.284 131.497 349.111 131.773C349.111 131.773 348.284 131.497 348.697 131.635C348.008 131.221 348.284 131.359 348.421 131.497C348.559 131.635 348.697 131.773 348.421 131.497C348.146 131.221 348.421 131.497 348.421 131.635C348.697 132.048 348.835 132.324 349.111 132.875C349.248 133.427 349.524 133.84 349.662 134.391C349.662 134.529 349.662 134.529 349.662 134.667C349.662 134.529 349.662 134.943 349.662 134.943C349.662 135.218 349.8 135.494 349.8 135.907C350.213 138.113 350.489 140.318 350.489 142.523C350.489 143.074 350.489 143.488 350.489 144.039C350.489 145.28 352.97 145.555 353.797 145.693C354.624 145.831 355.45 145.693 356.277 145.555C356.691 145.28 357.38 145.142 357.518 144.59Z" fill="#262626"/>
<path d="M364.686 153.688L364.548 146.245V145.142C364.41 144.591 364.134 144.04 363.859 143.626C363.308 142.937 362.756 142.248 362.067 141.697C361.516 141.145 360.964 140.732 360.275 140.594C360 140.456 359.448 140.456 359.586 140.87L359.724 148.312V149.415C359.862 149.966 360.138 150.518 360.413 150.931C360.964 151.62 361.516 152.309 362.205 152.861C362.756 153.412 363.308 153.688 363.997 153.963C364.272 154.101 364.686 154.239 364.686 153.688Z" fill="#262626"/>
<path d="M207.84 259.674L215.558 214.33C215.558 214.33 204.394 177.531 198.192 174.774C190.06 171.053 174.899 174.223 160.152 188.419C146.094 202.064 133.414 215.846 151.607 251.129C154.363 256.505 159.876 265.877 165.251 268.495C174.486 273.044 193.781 276.076 207.84 259.674Z" fill="#262626"/>
<path d="M244.916 258.986C244.916 258.986 242.159 257.332 238.989 254.989C235.819 252.646 234.992 250.441 240.919 239.414C252.496 217.776 235.406 203.993 235.406 203.993C237.611 202.064 239.54 199.721 240.781 196.964C242.986 192.554 241.332 183.182 228.652 189.246C225.758 190.624 222.037 191.865 217.626 189.384C211.837 186.214 207.978 182.63 197.641 176.842L199.295 181.803C203.706 194.897 202.052 209.231 194.885 221.084L193.645 221.635C208.805 238.588 206.324 256.78 206.324 256.78C208.668 259.95 210.735 263.258 212.389 266.704C212.251 266.704 238.438 274.009 244.916 258.986Z" fill="white"/>
<path d="M247.673 257.883C245.606 256.642 243.538 255.264 241.609 253.748C240.782 253.197 240.093 252.37 239.955 251.267C239.817 249.475 240.23 247.684 241.057 246.168C242.298 242.998 244.227 240.103 245.606 236.933C250.016 227.561 249.051 216.397 242.987 207.99C241.609 206.06 240.093 204.406 238.301 202.89L238.025 204.958C242.711 201.65 248.362 192.691 242.849 187.592C239.128 184.284 233.063 185.524 228.929 187.04C226.861 187.867 224.656 189.521 222.313 188.97C220.108 188.143 218.04 187.04 216.111 185.662C210.874 182.217 205.774 178.771 200.399 175.739C199.158 175.188 197.78 175.05 196.402 175.325C195.713 175.463 193.783 176.152 194.059 177.117C195.988 183.044 197.918 188.97 198.056 195.31C198.331 204.269 195.988 213.227 191.302 220.946L192.129 220.119C193.37 219.292 191.992 220.119 191.578 220.256C191.165 220.394 189.373 221.359 190.2 222.324C196.54 229.353 200.812 238.036 202.328 247.27C202.742 249.751 202.88 252.37 202.88 254.988C202.88 256.091 202.604 256.918 203.155 257.883C205.223 260.639 207.014 263.671 208.668 266.704C209.358 268.22 211.149 268.357 212.665 268.633C218.04 269.873 223.691 270.287 229.204 269.873C236.785 269.184 244.779 266.29 248.086 258.985C249.051 256.78 242.298 256.642 241.333 258.71C240.093 261.604 237.612 263.947 234.717 265.187C231.961 266.152 229.067 266.703 226.172 266.566C224.656 266.566 223.002 266.428 221.486 266.29C222.175 266.29 220.935 266.152 220.935 266.152L219.832 266.014C219.143 265.877 218.454 265.877 217.903 265.739C216.938 265.601 216.111 265.325 215.146 265.187C214.733 265.05 213.354 264.636 214.595 265.05L215.56 265.739C214.044 262.569 212.252 259.537 210.047 256.642C209.771 256.367 209.633 256.091 209.495 255.815C209.633 256.091 209.495 256.367 209.633 255.953C209.771 255.402 209.771 254.851 209.771 254.299C209.909 247.821 208.668 241.481 206.188 235.555C203.982 230.042 200.675 224.942 196.815 220.532L195.437 222.599C196.126 222.324 196.678 222.048 197.229 221.772C197.918 221.083 198.607 220.256 198.883 219.429C200.123 217.224 201.226 214.881 202.053 212.538C203.707 207.852 204.671 202.89 204.947 197.929C205.223 190.348 203.293 183.457 200.95 176.29L194.61 177.668C199.296 180.287 203.844 183.181 208.255 186.214C212.39 188.97 216.662 192.14 221.9 192.14C224.794 192.14 227.688 191.451 230.307 190.21C231.41 189.659 232.512 189.246 233.753 188.832C234.166 188.694 234.58 188.694 234.993 188.557C235.269 188.557 235.544 188.557 235.682 188.557C235.682 188.557 235.682 188.557 235.958 188.694C236.233 188.832 236.371 188.832 236.509 188.97C236.923 189.384 237.336 189.797 237.612 190.348C238.163 191.451 238.301 192.691 238.163 193.932C237.887 195.861 237.06 197.791 235.82 199.307C235.131 200.272 234.442 201.236 233.615 202.063C233.339 202.339 233.063 202.477 232.926 202.753C232.788 203.028 233.063 202.753 233.063 202.753C232.237 203.304 231.823 204.131 232.788 204.82L233.063 205.096L233.339 205.371C232.926 204.958 233.339 205.371 233.477 205.509C234.442 206.474 235.269 207.439 236.096 208.541C238.576 211.711 240.23 215.432 241.057 219.429C242.16 225.356 241.333 231.42 238.714 236.795C237.336 239.965 235.406 242.86 234.166 246.168C233.339 247.821 233.063 249.751 233.201 251.543C233.477 253.059 234.304 254.437 235.682 255.264C237.75 256.918 239.955 258.434 242.16 259.674C243.676 260.364 245.33 260.501 246.846 259.812C247.535 259.95 249.051 258.71 247.673 257.883Z" fill="#262626"/>
<path d="M222.175 216.949C226.998 219.567 233.201 220.394 238.162 218.189C240.368 217.087 242.297 215.57 243.675 213.503C244.64 212.125 242.986 210.609 241.746 210.195C240.23 209.506 238.438 209.92 237.335 211.16C237.198 211.436 236.922 211.711 236.784 211.987C237.06 211.574 236.508 212.263 236.371 212.263C235.957 212.676 235.681 212.952 235.268 213.227C234.992 213.365 234.854 213.503 235.13 213.365L234.441 213.779C234.028 213.917 233.614 214.054 233.201 214.33C233.614 214.192 233.752 214.192 233.476 214.192L233.063 214.33L232.511 214.468C232.236 214.468 232.098 214.606 231.822 214.606C232.098 214.606 232.787 214.33 231.822 214.606C231.547 214.606 230.995 214.606 230.582 214.606H230.031C231.271 214.606 230.444 214.606 230.168 214.606C229.479 214.468 228.79 214.33 228.101 214.192C229.479 214.468 228.239 214.192 227.963 214.054C227.688 213.917 227.412 213.917 227.136 213.779C226.861 213.641 226.309 213.503 226.034 213.365C225.758 213.227 226.998 213.779 226.447 213.503L226.309 213.365C224.931 212.676 222.726 212.263 221.485 213.503C220.658 214.33 220.658 215.708 221.485 216.397C221.761 216.811 221.899 216.949 222.175 216.949Z" fill="#262626"/>
<path d="M212.252 197.93C213.768 198.205 214.733 199.721 214.457 201.237C214.457 201.375 214.319 201.651 214.319 201.789C213.217 204.683 209.633 203.305 209.771 200.548C209.633 199.308 210.598 198.068 211.976 197.93C211.976 197.93 212.114 197.93 212.252 197.93Z" fill="#262626"/>
<path d="M176.416 251.543C176.416 251.543 210.597 210.334 239.403 244.376C239.403 244.376 266.83 220.808 281.577 255.678C296.324 290.548 246.57 295.096 246.57 295.096C246.57 295.096 269.035 305.157 247.121 326.245C225.207 347.332 207.703 316.046 207.703 316.046C207.703 316.046 203.155 360.701 167.044 350.088C130.934 339.476 151.057 314.667 151.057 314.667C151.057 314.667 126.386 314.667 128.867 295.51C131.348 276.352 165.804 263.121 165.804 263.121L176.416 251.543Z" fill="#262626"/>
<path d="M179.171 252.784C180.274 251.544 181.376 250.304 182.617 249.201C183.857 248.098 185.236 246.72 186.2 245.893C187.854 244.377 189.646 242.999 191.438 241.758C199.432 236.108 208.666 231.973 218.451 234.04C225.618 235.556 231.683 240.38 236.507 245.893C237.885 247.271 240.228 247.409 241.744 246.169C242.984 245.204 244.225 244.239 245.465 243.412L246.292 242.861L246.706 242.723C246.017 243.137 247.395 242.31 246.706 242.723C247.395 242.31 248.222 241.896 248.911 241.621C249.6 241.345 250.565 240.932 251.392 240.518C251.667 240.38 252.908 239.967 251.943 240.242C252.494 240.105 252.908 239.967 253.459 239.829C254.286 239.553 255.251 239.415 256.078 239.278C256.905 239.14 255.251 239.415 256.216 239.278H256.905C257.456 239.278 258.007 239.278 258.559 239.278C258.834 239.278 260.213 239.415 259.523 239.278C260.075 239.278 260.488 239.415 260.902 239.415C261.315 239.415 261.866 239.553 262.28 239.691C262.693 239.829 263.107 239.967 263.52 240.105C268.482 241.896 272.203 246.031 274.96 250.717C280.059 259.124 283.092 269.875 277.579 278.42C277.027 279.109 277.854 278.007 277.441 278.696L277.165 279.109C276.889 279.385 276.614 279.798 276.338 280.212C275.649 281.039 274.96 281.728 274.133 282.417C274.684 282.003 273.582 282.83 273.444 282.968C273.306 283.106 272.755 283.52 272.341 283.795C271.514 284.346 270.687 284.898 269.86 285.449L269.171 285.863C268.482 286.276 269.585 285.587 269.171 285.863L267.793 286.552C266.966 286.965 266.001 287.379 265.174 287.792C264.347 288.206 263.52 288.481 262.693 288.757L261.315 289.308L260.764 289.446L260.213 289.584L259.937 289.722L258.972 289.997L257.594 290.411C256.767 290.686 255.802 290.824 254.975 291.1C253.459 291.513 251.943 291.789 250.427 292.065C249.324 292.34 248.36 292.478 247.257 292.616C248.497 292.754 247.67 292.616 247.119 292.616H246.843C245.465 292.616 244.087 293.305 243.26 294.546C242.847 295.51 243.26 296.751 244.225 297.302H244.363L245.052 297.578L245.327 297.716C245.879 297.991 244.776 297.44 245.19 297.578L246.154 298.129C246.981 298.68 247.67 299.232 248.36 299.783C248.773 300.196 249.187 300.472 249.6 300.886C250.013 301.299 249.462 300.748 249.738 301.023C250.013 301.299 250.151 301.575 250.427 301.712C252.081 303.504 253.046 305.847 253.183 308.19C253.183 311.498 252.219 314.806 250.289 317.562C247.67 321.697 244.225 325.281 240.09 327.899C239.401 328.313 238.712 328.726 238.023 329.002C237.334 329.415 236.507 329.691 235.817 329.829C235.128 330.104 234.301 330.242 233.474 330.38C234.026 330.38 232.923 330.38 232.785 330.38C232.372 330.38 231.821 330.38 231.407 330.38C230.856 330.38 230.304 330.242 229.753 330.242C229.064 330.105 228.513 329.967 227.824 329.829C226.445 329.415 225.205 328.726 223.827 328.037C221.346 326.521 219.141 324.729 217.211 322.662C214.592 320.043 212.387 317.149 210.595 313.979C209.355 311.774 204.393 312.876 204.118 315.495C203.98 316.598 203.842 317.7 203.566 318.803C203.291 319.905 203.015 321.146 202.739 322.386C202.602 323.075 202.464 323.765 202.188 324.454C202.05 324.867 202.05 325.143 201.912 325.556L201.775 326.245C201.637 326.797 201.912 325.832 201.637 326.521C200.534 329.967 199.018 333.274 197.226 336.444C196.399 337.961 195.297 339.477 194.194 340.855C193.643 341.544 192.954 342.233 192.265 342.922C191.713 343.611 191.024 344.163 190.335 344.576C189.646 345.127 188.819 345.679 187.992 346.23C187.441 346.506 187.854 346.23 187.992 346.23L187.165 346.644C186.614 346.919 186.2 347.057 185.649 347.333C185.098 347.608 184.684 347.746 184.271 347.884C183.857 348.022 185.098 347.608 184.133 347.884L183.444 348.16C182.893 348.297 182.479 348.435 181.928 348.573C181.652 348.573 180.136 348.849 180.687 348.711C175.174 349.124 169.523 348.297 164.424 346.092C159.462 344.301 154.363 341.682 151.193 337.409C150.09 336.031 149.263 334.377 148.85 332.585C148.574 331.758 148.436 330.931 148.436 330.105C148.436 329.967 148.436 329.691 148.436 329.553C148.436 329.14 148.436 330.105 148.436 329.415C148.436 328.864 148.436 328.451 148.436 328.037C148.436 327.21 148.574 326.245 148.85 325.418C148.988 325.005 148.988 324.592 149.125 324.178C149.263 323.765 149.539 322.8 149.401 323.351C149.952 321.835 150.504 320.319 151.331 318.941C151.882 317.976 152.433 317.011 153.122 316.046C152.571 317.011 153.26 315.771 153.536 315.495C155.19 313.428 153.26 311.912 151.193 311.774C150.779 311.774 150.366 311.774 149.952 311.774C149.539 311.774 150.917 311.912 150.09 311.774H149.401C148.85 311.774 148.298 311.636 147.747 311.498C146.369 311.36 144.991 310.947 143.475 310.671C142.923 310.533 143.337 310.671 143.475 310.671L142.785 310.533L141.683 310.12C140.856 309.844 140.167 309.569 139.34 309.155C138.651 308.879 138.099 308.466 137.548 308.052C136.859 307.639 136.17 307.088 135.481 306.536C134.378 305.434 133.551 304.193 132.862 302.953C131.346 299.232 131.484 294.959 133 291.376C136.17 283.382 143.75 277.731 150.779 273.32C155.879 270.288 161.116 267.67 166.629 265.327C168.834 264.362 170.488 262.019 172.004 260.227L179.171 252.784C179.998 251.958 179.998 250.717 179.171 249.89C178.896 249.615 178.758 249.477 178.344 249.339C176.69 248.788 174.761 249.201 173.658 250.441L163.046 261.881L164.424 260.916C160.84 262.294 157.395 263.948 154.087 265.74C146.92 269.324 140.442 273.872 134.654 279.385C129.141 284.898 124.868 291.789 125.282 299.921C125.695 306.95 130.795 311.912 136.997 314.53C141.269 316.322 145.818 317.149 150.504 317.149L148.161 313.428C145.128 317.149 143.061 321.697 142.234 326.521C141.545 330.38 142.096 334.515 143.888 338.098C146.369 343.06 151.055 346.368 155.879 348.849C166.491 354.224 179.998 356.843 190.886 350.916C198.605 346.781 203.842 339.339 207.15 331.345C209.217 326.383 210.458 321.284 211.147 316.046L204.669 317.562C209.631 326.383 218.589 335.204 228.926 336.169C239.263 337.134 247.946 330.794 254.01 323.075C258.972 317.011 262.28 309.017 258.145 301.575C255.94 297.853 252.494 294.821 248.497 293.03L246.154 297.853C250.978 297.44 255.664 296.475 260.213 295.097C268.344 292.616 276.889 288.895 282.402 282.003C285.297 278.558 287.088 274.285 287.502 269.737C288.053 263.535 286.124 257.608 283.367 252.095C280.473 246.031 276.338 240.518 270.549 237.21C266.277 234.867 261.315 233.902 256.491 234.592C249.462 235.556 242.709 238.451 237.334 242.999L242.571 243.275C237.609 237.624 231.683 232.524 224.378 230.319C218.314 228.389 211.836 228.252 205.634 229.768C195.297 232.249 186.063 238.451 178.482 245.755C176.828 247.271 175.174 249.063 173.658 250.717C172.831 251.544 172.831 252.785 173.658 253.611C173.934 253.887 174.072 254.025 174.485 254.163C176.001 254.438 177.931 254.025 179.171 252.784Z" fill="#262626"/>
<path d="M211.976 194.898C214.319 192.004 215.283 188.282 214.594 184.561C213.767 180.84 211.286 177.67 207.841 175.878C203.568 173.535 198.055 171.605 193.093 171.743C189.097 172.019 185.237 173.811 182.481 176.705C178.76 180.288 176.554 185.25 174.487 189.936C174.211 190.488 180.689 192.968 181.103 191.866C183.032 187.455 185.1 182.907 188.407 179.324C191.164 176.429 195.85 173.259 200.123 173.948C203.844 174.5 207.014 178.359 207.841 181.805C208.806 185.664 207.979 189.661 205.36 192.693C205.084 193.106 208.254 194.209 208.53 194.209C209.081 194.622 211.424 195.587 211.976 194.898Z" fill="#262626"/>
<path d="M225.07 176.429C222.314 171.881 218.041 168.573 213.079 166.92C207.842 165.403 202.053 165.541 196.954 167.609C191.992 169.538 187.306 172.157 183.171 175.602C179.312 178.772 175.866 182.907 174.902 187.869C174.488 189.523 175.591 191.315 177.245 191.866C178.623 192.279 181.104 191.866 181.517 190.074C182.344 186.353 184.549 183.045 187.582 180.702C190.889 177.808 194.611 175.603 198.608 173.811C202.329 172.157 206.739 171.192 210.736 172.433C214.32 173.397 217.352 175.74 219.281 178.91C220.246 180.426 222.176 181.116 223.967 180.426C225.346 179.875 226.173 178.359 225.621 176.843C225.208 176.843 225.07 176.567 225.07 176.429Z" fill="#262626"/>
<path d="M252.771 239.691C261.179 236.797 271.516 233.351 279.509 239.14C286.263 243.964 287.779 252.922 289.019 260.641C289.433 262.846 295.911 260.916 295.497 258.298C294.119 249.477 292.052 239.691 283.644 234.867C273.721 229.216 261.592 232.938 251.669 236.383C250.704 236.659 248.637 237.899 249.05 239.14C249.464 240.38 251.807 239.829 252.771 239.691Z" fill="#262626"/>
<path d="M162.082 257.608C144.165 254.162 126.799 265.602 122.939 283.519C122.113 287.792 128.452 287.654 129.142 284.07C131.485 270.15 144.716 260.916 158.498 263.259C159.05 263.397 159.601 263.535 160.152 263.535C163.874 264.224 166.354 258.435 162.082 257.608Z" fill="#262626"/>
<path d="M266.14 144.178C267.656 144.453 268.621 145.969 268.346 147.486C268.346 147.623 268.208 147.899 268.208 148.037C267.105 150.931 263.522 149.553 263.66 146.796C263.522 145.556 264.486 144.316 265.865 144.178C265.865 144.178 266.003 144.178 266.14 144.178Z" fill="white"/>
<path d="M264.762 170.227C265.451 169.676 266.278 169.125 266.829 168.573L260.765 166.506C260.903 167.471 260.903 168.435 260.903 169.4V168.711C260.903 168.987 260.903 169.125 260.903 169.4L264.9 167.471H264.762L265.589 167.746C265.451 167.746 265.313 167.608 265.313 167.608L266.002 168.022L265.727 167.884L266.278 168.435L266.14 168.298C265.589 167.608 264.762 167.195 263.935 166.919C263.521 166.782 262.97 166.782 262.557 166.919C262.143 166.919 261.73 167.057 261.316 167.195C260.627 167.471 260.076 168.16 259.938 168.849C259.8 169.538 259.938 170.365 260.489 170.916C260.765 171.192 261.04 171.468 261.178 171.605C261.454 171.881 261.73 172.019 262.143 172.157C262.557 172.432 263.108 172.57 263.521 172.708C263.935 172.846 264.486 172.846 264.9 172.708C265.313 172.708 265.727 172.57 266.14 172.432L266.829 172.019C267.243 171.743 267.518 171.192 267.656 170.778C267.794 169.4 267.794 167.884 267.656 166.506L267.518 165.817L267.105 165.128L266.553 164.576C266.278 164.301 265.864 164.025 265.313 164.025C265.037 163.887 264.762 163.749 264.486 163.887C264.21 163.887 263.935 163.887 263.659 163.887C263.384 163.887 263.108 163.887 262.832 164.025C262.419 164.163 262.143 164.301 261.73 164.576C261.04 165.265 260.351 165.817 259.662 166.23C259.387 166.506 259.111 166.782 259.111 167.195C258.973 167.471 258.835 167.884 258.973 168.298C258.973 168.711 259.111 168.987 259.387 169.4C259.524 169.814 259.8 170.089 260.214 170.365C260.903 170.916 261.867 171.192 262.694 171.192L263.521 171.054C263.935 170.778 264.348 170.503 264.762 170.227Z" fill="white"/>
<path d="M495.206 469.445L414.992 438.434C410.03 436.505 404.379 438.986 402.312 443.947L384.946 489.016C383.016 493.978 385.497 499.629 390.459 501.696L422.71 514.1C423.399 519.476 424.777 526.642 425.604 531.328C425.88 532.707 427.12 533.534 428.499 533.396C429.05 533.258 429.464 533.12 429.739 532.707L441.316 521.405L470.673 532.707C475.635 534.636 481.286 532.155 483.353 527.194L500.719 482.125C502.649 477.163 500.168 471.512 495.206 469.445Z" fill="#F5EE30"/>
<path d="M494.379 466.962L463.368 454.972L419.264 437.881L414.716 436.089C411.27 434.573 407.136 434.711 403.966 436.779C401.485 438.432 400.244 440.913 399.28 443.67L396.11 451.939L386.6 476.334L383.292 484.88C382.189 487.36 381.776 490.117 382.051 492.736C383.154 497.973 386.875 502.383 391.975 504.313L400.244 507.483L422.159 516.028L423.675 516.579L420.367 512.307C421.194 517.958 422.159 523.471 423.123 529.122C423.812 532.843 428.499 538.632 432.496 534.91C436.492 531.189 440.076 527.605 443.797 523.884H442.281L461.577 531.327L470.949 534.91C475.497 536.702 480.734 536.426 484.042 532.567C485.42 530.638 486.523 528.57 487.074 526.365L490.933 516.442L500.581 491.495C501.546 489.152 502.373 486.809 503.338 484.466C505.819 477.437 500.995 469.581 494.379 466.962C493.276 466.411 492.587 466.962 492.863 468.341C493.414 469.994 494.517 471.235 496.033 472.062C498.376 473.027 499.203 474.956 498.927 477.575C498.789 478.54 498.514 479.504 498.1 480.469C497.273 482.674 496.309 485.017 495.482 487.223L486.385 510.929C484.593 515.615 482.802 520.301 480.872 524.987C479.08 529.535 474.119 531.74 469.571 530.086C466.814 529.122 464.058 528.019 461.439 526.916L440.765 518.922C440.352 518.785 439.662 518.509 439.249 518.922L429.188 528.708C428.636 529.259 428.223 529.811 427.672 530.224C427.12 530.638 426.707 530.5 426.431 530.775C426.156 531.051 428.223 534.221 428.085 532.429C428.085 531.878 427.947 531.327 427.809 530.775C426.982 525.952 426.018 520.99 425.329 516.028C424.915 514.099 423.675 512.582 422.021 511.756L405.206 505.278L394.042 501.005C392.113 500.454 390.183 499.627 388.391 498.662C385.773 497.008 386.738 493.011 387.702 490.668L390.459 483.639L399.417 460.347C401.209 455.661 402.863 450.975 404.793 446.426C406.584 442.016 411.408 439.811 415.819 441.189C416.921 441.602 418.024 442.016 419.126 442.429L460.474 458.417C472.051 462.965 483.766 467.376 495.344 471.924L495.895 472.2C497.136 472.751 497.825 472.2 497.549 470.821C497.136 469.03 495.895 467.651 494.379 466.962Z" fill="#F5EE30"/>
<path d="M438.146 500.178C432.909 502.935 426.156 499.765 423.261 495.079C419.54 488.463 419.954 480.469 424.088 474.267C428.223 468.065 438.009 467.1 444.762 468.754C452.205 470.546 457.166 476.886 456.339 484.604C456.064 486.947 455.513 489.152 454.548 491.22C453.721 493.425 452.343 495.492 452.48 497.835C452.756 500.454 453.307 502.935 454.134 505.416L456.064 513.134L461.439 510.653C455.788 507.483 450.275 504.037 444.9 500.454C443.384 499.489 441.454 499.627 440.076 500.867C439.111 501.97 439.249 503.486 440.352 504.451C440.49 504.589 440.627 504.727 440.765 504.727C446.14 508.31 451.653 511.756 457.304 514.926C459.096 515.89 463.506 515.477 462.679 512.445L460.612 504.727L459.647 500.867C459.234 499.765 459.096 498.524 459.234 497.284C459.647 496.181 460.061 495.079 460.612 494.114C461.026 493.011 461.439 491.771 461.852 490.668C462.679 488.188 463.093 485.431 463.093 482.812C462.955 472.475 454.823 465.309 445.176 463.379C436.217 461.449 423.95 463.103 418.162 470.959C412.787 478.402 411.96 489.428 416.784 497.284C422.021 505.829 433.323 509.413 442.281 504.864C443.522 504.175 443.797 502.659 443.246 501.557C443.108 501.419 442.97 501.143 442.833 501.005C441.592 499.489 439.663 499.214 438.146 500.178Z" fill="white"/>
<path d="M73.1852 219.98L7.7182 254.849C3.58344 257.055 2.06736 262.154 4.27256 266.151L23.8438 302.813C26.049 306.947 31.1485 308.463 35.1454 306.258L61.4701 292.2C65.3292 294.681 70.8422 297.989 74.2878 300.056C75.2526 300.607 76.6309 300.332 77.1822 299.229C77.4578 298.816 77.4578 298.402 77.4578 297.989L76.6309 284.068L100.612 271.388C104.747 269.183 106.263 264.084 104.058 260.087L84.4869 223.425C82.2817 219.29 77.32 217.774 73.1852 219.98Z" fill="#262626"/>
<path d="M70.0153 218.878L44.3797 232.522L8.54517 251.68C4.54823 253.885 0 255.815 0 261.328C0.137825 263.533 0.826952 265.6 2.06738 267.392L5.92648 274.697L16.4012 294.406L19.9847 301.021C21.2251 303.502 23.1547 305.432 25.6355 306.534C29.7703 308.326 34.732 309.291 38.8667 307.086L45.4824 303.64L63.5375 293.992L64.7779 293.303L58.5758 291.925C62.297 294.268 66.0183 296.611 69.8774 298.816C71.807 300.057 73.8744 300.884 75.9417 301.297C77.5957 301.573 80.0765 301.848 80.7656 299.919C81.1791 298.541 80.7656 296.611 80.6278 295.233L80.2143 287.515C80.2143 286.825 80.0765 286.136 80.0765 285.447C80.0765 285.034 79.8009 285.447 80.2143 285.171C81.4548 284.482 82.833 283.793 84.0734 283.104L97.4425 275.937C100.199 274.421 103.92 273.043 106.263 270.7C108.606 268.081 109.158 264.36 107.642 261.19C107.366 260.501 106.952 259.812 106.539 259.123L93.7212 235.003L88.2082 224.666C87.2434 222.874 85.8652 221.358 84.0734 220.256C79.9387 218.188 74.2878 216.948 70.0153 218.878C69.1883 219.429 71.9448 220.394 72.2205 220.394C73.1852 220.669 75.3904 221.496 76.4931 220.945C77.0444 220.669 77.5956 220.394 78.2848 220.256C78.8361 220.256 79.3874 220.118 80.0765 220.118C74.7013 222.323 78.4226 219.429 78.6983 219.842C78.8361 219.98 79.2496 220.256 79.3874 220.394C79.9387 220.945 80.49 221.496 81.0413 222.185C81.3169 222.737 81.5926 223.15 81.8682 223.701L84.9004 229.352L95.2373 248.648C97.3047 252.507 99.6477 256.228 101.439 260.225C102.956 264.222 101.302 268.77 97.4425 270.7C95.2373 271.94 93.0321 273.043 90.8269 274.283L73.8744 283.38L73.7365 283.518L74.4257 295.508C74.4257 296.06 74.5635 296.749 74.5635 297.3C74.5635 297.714 74.4257 298.265 74.2878 298.678C74.15 298.954 73.8744 299.23 73.5987 299.368L77.32 300.47C76.9065 300.194 76.493 299.919 76.0796 299.781C72.3583 297.576 68.4992 295.371 64.7779 292.89C63.8131 292.338 62.7105 291.925 61.6079 291.787C60.9188 291.649 59.4027 291.098 58.7136 291.511L45.0689 298.816L35.9724 303.64C34.4563 304.605 32.8024 305.432 31.1485 306.121C30.5972 306.259 29.9081 306.259 29.3568 306.397C28.1164 306.81 30.735 306.534 30.4594 306.672L30.0459 306.397C29.0811 305.707 28.2542 304.743 27.5651 303.64L27.1516 302.675L23.9816 296.611L13.7825 277.453C11.853 273.732 9.37212 270.011 7.71822 266.152C6.20214 262.155 7.71821 257.744 11.4395 255.677C12.4043 255.126 13.2312 254.712 14.196 254.161L47.8254 236.244C57.3353 231.144 66.9831 226.458 76.2174 221.083C76.3552 220.945 76.493 220.945 76.7687 220.807C77.5956 220.394 74.8391 219.429 74.7013 219.429C73.1852 219.153 70.98 218.326 70.0153 218.878Z" fill="#262626"/>
<path d="M58.5777 276.213C53.2025 274.835 47.8273 272.767 42.8656 270.149C40.6604 269.184 38.7309 267.53 37.2148 265.6C35.8365 263.533 35.9744 260.777 37.4904 258.847C39.42 256.917 42.59 257.331 45.0708 258.296C48.103 259.398 50.8595 261.052 53.2025 263.12C50.3082 256.642 52.3756 249.061 58.1642 245.064C59.129 244.375 60.0938 243.962 61.1964 243.824C65.0555 243.273 68.639 246.994 69.1903 250.991C69.7416 254.988 68.0877 258.847 66.5716 262.43L61.3342 275.11" fill="white"/>
<path d="M147.611 463.517C136.723 466.825 124.87 473.992 123.63 486.396C122.665 496.596 128.04 506.795 135.62 513.272C146.233 522.507 160.291 527.331 173.936 530.363C188.821 533.533 204.257 534.36 219.418 532.706C232.925 531.328 246.845 528.02 258.974 521.404C264.211 518.648 268.76 515.064 272.619 510.516C274.273 508.449 276.064 505.141 273.308 503.211C270.965 501.557 267.657 501.833 265.038 502.384C258.423 503.762 251.669 507.622 248.913 514.099C246.57 519.612 248.775 525.677 252.221 530.225C256.493 535.876 262.695 539.873 269.035 543.043C275.651 546.35 282.542 548.831 289.709 550.623C322.649 559.168 358.07 556.412 390.597 547.315C394.456 546.213 398.453 544.972 402.175 543.732C403.415 543.318 405.482 542.491 406.171 541.251C406.861 540.011 405.207 540.148 404.38 540.424C374.885 550.347 342.91 554.62 311.899 550.347C298.116 548.418 284.058 544.834 271.792 538.081C266.141 534.911 260.628 531.052 257.044 525.539C254.15 521.128 252.634 515.34 255.528 510.516C256.493 508.586 258.147 507.208 260.077 506.381C262.282 505.692 265.176 505.416 267.244 506.657C271.654 509.551 263.384 515.891 261.041 517.545C252.221 523.747 240.368 526.641 229.479 528.295C215.973 530.363 202.19 530.363 188.545 528.433C175.038 526.504 161.256 522.645 149.403 515.615C140.582 510.378 133.415 502.798 130.659 492.736C128.453 484.191 130.521 474.819 138.239 469.995C140.444 468.617 142.787 467.652 145.268 466.963C146.509 466.55 148.576 465.723 149.265 464.482C149.954 463.242 148.3 463.242 147.611 463.517Z" fill="#F5EE30"/>
</svg>
