<svg width="464" height="528" viewBox="0 0 464 528" fill="none" xmlns="http://www.w3.org/2000/svg">
<path d="M367.821 339.473H87.2501L31.833 1.27814H312.404L367.821 339.473Z" fill="white"/>
<path d="M369.449 338.079H100.379C96.7779 338.079 93.0602 337.731 89.4587 338.079H88.994L90.0396 338.544L88.5292 329.482L84.463 304.968L78.4217 268.488L71.2187 224.224L63.2024 175.546L55.186 126.518L47.7506 80.6278L41.3608 41.9404L36.8299 14.1738C36.1328 9.75899 35.6681 5.34421 34.6225 1.04561C34.6225 0.813249 34.6225 0.69707 34.5063 0.464713L30.0915 2.78828H299.277C302.878 2.78828 306.596 3.13682 310.198 2.78828H310.662L309.617 2.32357L311.127 11.3855L315.193 36.0153L321.235 72.4953L328.438 116.759L336.454 165.438L344.47 214.582L352.022 260.356L358.412 299.043L362.943 326.81C363.64 331.225 364.104 335.639 365.15 339.938C365.15 340.17 365.15 340.287 365.266 340.519C365.499 341.913 371.075 340.403 370.727 338.66L369.216 329.598L365.15 305.085L359.109 268.605L351.906 224.341L343.889 175.662L335.873 126.634L328.321 80.8602L321.932 41.9404L317.401 14.1738C316.704 9.87516 316.239 5.34421 315.193 1.04561C315.193 0.813249 315.193 0.69707 315.077 0.464713C315.077 0.116178 314.264 0 314.032 0H44.8462C41.2446 0 37.5269 0 33.9254 0H33.4607C32.4151 0 28.8135 0.697071 29.0459 2.32357L30.5562 11.3855L34.6225 35.8991L40.6637 72.3792L47.8668 116.643L55.8831 165.322L63.8994 214.465L71.451 260.24L77.8408 298.927L82.3718 326.694C83.0689 331.108 83.5336 335.523 84.5792 339.822C84.5792 340.054 84.6954 340.17 84.6954 340.403C84.6954 340.751 85.5086 340.867 85.741 340.867H354.926C358.528 340.867 362.246 340.867 365.847 340.867H366.312C367.706 340.867 369.1 340.403 370.146 339.59C370.727 338.892 370.727 338.079 369.449 338.079Z" fill="#F5EE30"/>
<path d="M115.018 272.322C110.138 269.302 106.188 265.003 103.516 259.891C103.168 259.194 102.819 258.497 102.587 257.684C102.471 257.335 102.354 256.987 102.354 256.638C102.354 256.29 102.354 255.941 102.354 255.593C102.238 255.36 102.471 255.476 102.354 255.36C102.587 255.593 101.193 255.825 101.193 255.825C101.193 255.825 101.89 256.174 102.006 256.174C102.238 256.406 102.471 256.638 102.703 256.871C103.516 258.265 104.213 259.659 104.91 261.169C105.724 262.563 106.537 263.958 107.582 265.352C108.976 267.21 112.229 264.771 112.694 263.26C113.391 260.356 114.785 257.684 116.877 255.36C117.458 254.779 117.69 254.547 118.503 255.012C119.433 255.709 120.13 256.638 120.246 257.8C121.64 264.074 116.063 268.605 111.649 271.974C110.835 272.555 110.022 274.181 111.068 274.878C112.113 275.575 113.856 274.762 114.785 274.065C118.271 271.393 121.64 268.488 123.731 264.655C125.59 261.285 126.519 256.871 124.661 253.385C122.337 249.087 117.109 250.365 114.088 253.037C110.835 256.174 108.628 260.007 107.582 264.422L112.694 262.331C111.416 260.704 110.371 258.962 109.441 257.103C108.628 255.36 107.931 253.385 106.188 252.34C102.006 249.9 96.8939 254.431 97.2425 258.729C97.591 260.705 98.2881 262.563 99.4499 264.306C100.379 265.933 101.425 267.443 102.587 268.837C104.91 271.741 107.699 274.181 110.835 276.156C112.694 277.318 117.225 273.6 115.018 272.322Z" fill="#F5EE30"/>
<path d="M144.292 270.463C147.196 272.787 150.449 274.762 153.935 276.272C155.097 276.737 159.395 276.156 159.279 274.413C159.163 271.625 158.35 268.953 156.955 266.629L155.213 268.14C158.001 266.862 160.789 265.351 163.345 263.725C165.32 262.447 167.992 260.704 168.457 258.148C169.503 252.688 161.835 250.248 157.769 249.783C152.076 248.97 145.57 248.854 140.226 251.178C137.786 252.107 135.579 253.85 134.184 256.057C132.906 258.497 132.326 261.285 132.558 264.073C132.79 270.812 139.645 271.16 144.873 270.696C146.035 270.579 147.894 270.231 148.591 269.185C149.288 268.14 147.894 268.14 147.196 268.14C143.943 268.372 139.761 268.256 138.483 264.654C137.902 262.563 137.902 260.24 138.483 258.148C138.715 256.057 139.877 254.198 141.504 252.92C143.014 252.107 144.757 251.642 146.383 251.759C148.474 251.759 150.682 251.759 152.773 251.991C156.375 252.339 161.719 253.85 162.764 257.8C163.461 260.123 161.486 261.634 159.744 262.912C157.652 264.422 155.445 265.7 153.005 266.746C152.773 266.862 150.914 267.675 151.263 268.256C152.657 270.579 153.47 273.368 153.586 276.04L158.93 274.181C155.445 272.671 152.192 270.696 149.288 268.372C148.242 267.443 143.246 269.766 144.292 270.463Z" fill="#F5EE30"/>
<path d="M115.829 297.765C111.879 299.74 108.278 302.18 108.045 306.943C107.929 311.126 110.253 315.076 114.086 316.818C117.572 318.329 121.987 317.98 124.543 314.96C127.215 311.707 127.447 307.176 125.24 303.574C124.543 302.529 123.265 301.251 121.87 301.715C119.198 302.761 117.456 305.433 117.572 308.337C117.688 311.59 119.547 314.611 122.335 316.238C128.725 320.188 135.928 316.238 140.924 311.939C143.48 309.732 145.803 307.176 147.778 304.504C149.869 301.599 151.844 298.23 151.961 294.628C152.077 291.143 150.45 287.89 147.43 285.915C144.641 284.172 141.04 284.521 138.6 286.728C135.928 289.052 134.999 292.653 134.65 296.023C134.185 299.159 134.069 302.412 134.418 305.549C134.766 309.035 136.509 312.288 139.065 314.727C141.853 316.935 145.222 318.213 148.708 318.329C155.33 319.026 163.23 316.354 164.74 309.035C165.437 305.782 164.276 302.412 161.72 300.205C159.164 297.998 155.446 298.114 153.587 301.251C151.728 304.387 152.89 308.454 154.865 311.242C156.956 314.146 160.093 316.121 163.578 316.935C170.665 318.329 177.985 315.424 182.051 309.383C183.561 307.176 179.379 303.226 177.636 305.781C175.196 309.383 171.13 311.707 166.715 312.171C163.578 312.404 159.048 311.474 157.77 308.105C157.305 306.943 157.305 304.387 158.931 304.039C159.977 303.806 159.977 305.317 159.861 306.246C159.164 311.126 153.819 313.333 149.405 313.333C147.081 313.449 144.758 312.985 142.666 312.171C140.924 311.474 139.762 309.964 139.413 308.105C138.949 306.014 138.832 303.923 139.065 301.831C139.181 299.392 139.53 296.952 140.11 294.512C140.691 292.421 142.202 290.794 144.177 290.097C145.803 289.633 146.616 290.446 146.849 291.956C147.197 294.28 145.803 296.72 144.525 298.578C143.247 300.67 141.737 302.645 139.994 304.387C136.625 307.989 131.513 312.636 126.285 312.636C124.775 312.636 122.451 312.055 122.103 310.429C121.754 308.802 122.684 307.292 124.194 306.711L120.825 304.852C123.381 308.918 118.734 313.914 114.435 312.055C112.925 311.242 112.228 309.615 112.692 307.989C113.157 305.201 115.829 303.806 118.153 302.645C120.825 301.367 117.804 296.487 115.481 297.649L115.829 297.765Z" fill="#F5EE30"/>
<path d="M322.512 220.971H89.1094L61.1104 40.3137H294.513L322.512 220.971Z" fill="#F5EE30"/>
<path d="M322.975 221.32H88.7597V220.971L60.6445 39.9653H294.86V40.3139L322.975 221.32ZM89.4568 220.507H321.93L294.047 40.7786H61.574L89.4568 220.507Z" fill="#F5EE30"/>
<path d="M248.737 23.5843C248.737 23.5843 244.671 23.2357 245.136 26.6049C245.6 29.9741 250.828 28.5799 250.828 26.6049C250.828 24.6299 249.783 23.5843 248.737 23.5843Z" fill="#F5EE30"/>
<path d="M247.577 21.8414C246.764 21.7252 245.95 21.8414 245.253 22.1899C244.672 22.4222 244.208 22.7708 243.975 23.3517C243.627 24.1649 243.627 24.9782 243.975 25.7914C244.324 26.7208 244.905 27.5341 245.486 28.2312C245.95 28.8121 246.531 29.393 247.112 29.8577C247.693 30.2062 248.39 30.4386 249.087 30.3224C250.249 30.3224 251.411 29.7415 251.992 28.6959C252.108 28.3473 252.108 27.8826 252.108 27.4179C251.992 26.6047 251.759 25.7914 251.295 25.2105C250.83 24.3973 250.249 23.7002 249.668 23.1193C249.436 22.7708 249.087 22.5384 248.739 22.3061C248.506 21.9575 248.042 21.8414 247.577 21.8414C247.344 21.8414 247.344 21.9575 247.461 22.1899C247.577 22.6546 247.809 23.0031 248.042 23.3517C248.39 23.8164 248.739 24.2811 249.087 24.6296L249.436 24.9782C249.552 25.0944 249.784 25.2105 249.9 25.3267C250.133 25.3267 250.365 25.4429 250.597 25.4429C250.365 25.3267 250.714 25.4429 250.597 25.4429C250.365 25.2105 250.83 25.5591 250.597 25.4429C250.365 25.2105 250.249 25.0944 250.365 25.2105C250.133 24.9782 250.017 24.7458 249.784 24.5135C249.552 24.2811 249.436 24.0487 249.319 23.8164L249.203 23.584C249.087 23.3517 249.319 23.8164 249.203 23.584L249.319 23.8164V23.9326V24.2811C249.319 24.6296 249.319 24.862 249.319 25.2105V25.0944C248.971 26.2561 247.461 26.7209 246.299 26.837H246.415C246.066 26.837 245.718 26.837 245.369 26.7208L245.137 26.6047C245.137 26.6047 244.789 26.4885 245.021 26.6047L245.137 26.7208L245.369 27.0694C245.486 27.3017 245.718 27.4179 245.834 27.6503L245.95 27.7665C246.066 27.9988 246.299 28.3473 246.299 28.3473V28.2312C246.415 28.3473 246.531 28.5797 246.299 28.2312C246.299 28.2312 246.299 28.115 246.299 27.9988C246.183 27.5341 246.299 27.0694 246.415 26.6047V26.7208C246.996 25.5591 248.158 24.9782 249.319 24.9782H249.203C249.436 24.9782 249.552 24.9782 249.784 24.9782C250.365 24.9782 249.319 23.584 249.319 23.4679C248.971 23.0031 248.622 22.5384 248.274 22.1899L247.925 21.8414C247.925 22.0737 247.693 21.9575 247.577 21.8414Z" fill="#F5EE30"/>
<path d="M264.654 23.3519C264.654 23.3519 260.588 23.0034 261.053 26.2564C261.517 29.5094 266.745 28.3476 266.745 26.2564C266.745 24.1652 265.7 23.3519 264.654 23.3519Z" fill="#F5EE30"/>
<path d="M265.584 21.7252C264.539 21.609 263.377 21.7252 262.448 22.1899C261.286 22.6547 260.24 23.4679 259.543 24.5135C259.078 25.3268 258.846 26.3724 259.078 27.3018C259.195 28.115 259.776 28.8121 260.473 29.393C261.402 29.8577 262.331 30.0901 263.377 29.9739C264.307 29.8577 265.352 29.6254 266.165 29.1606C267.095 28.6959 267.908 27.9989 268.489 27.0694C269.07 25.9076 268.954 24.6297 268.373 23.5841C267.908 22.5385 266.746 21.8414 265.584 21.7252C265.12 21.8414 264.539 21.9576 264.074 22.1899C263.609 22.4223 263.145 22.7708 262.912 23.2355C262.68 23.5841 262.68 24.0488 262.796 24.3973C263.029 24.7459 263.377 24.9782 263.842 24.9782H264.19L263.726 24.862C263.842 24.862 264.074 24.9782 264.19 25.0944L263.842 24.862C264.074 24.9782 264.306 25.0944 264.423 25.3268L264.19 25.0944C264.423 25.4429 264.655 25.7915 264.771 26.14L264.655 25.7915C264.771 26.2562 264.887 26.7209 264.771 27.1856V26.8371C264.771 26.9533 264.771 27.0694 264.655 27.1856L264.771 26.8371C264.771 26.9533 264.771 26.9533 264.655 27.0694C264.539 27.418 265.004 26.6047 264.771 26.8371L264.655 27.0694C264.539 27.1856 265.12 26.6047 264.887 26.8371L264.655 26.9533C264.423 27.1856 265.236 26.6047 265.004 26.7209V26.6047L264.771 26.7209C264.423 26.9533 265.468 26.4885 265.004 26.6047C264.887 26.7209 264.655 26.7209 264.539 26.7209C264.307 26.8371 265.12 26.6047 264.887 26.6047H264.771H264.539H264.306C264.074 26.6047 264.887 26.6047 264.539 26.6047H264.423H263.842L264.306 26.7209C264.074 26.7209 263.842 26.6047 263.609 26.4885L263.958 26.7209C263.726 26.6047 263.493 26.4885 263.377 26.2562L263.609 26.4885C263.377 26.2562 263.261 26.0238 263.145 25.6753L263.261 26.0238C263.145 25.6753 263.145 25.2106 263.145 24.862V25.2106C263.145 24.9782 263.261 24.7459 263.261 24.5135L263.145 24.9782C263.145 24.862 263.261 24.7459 263.261 24.6297C263.377 24.3973 263.145 24.862 263.145 24.862L263.261 24.7459L263.377 24.6297C263.029 24.9782 262.912 24.9782 263.145 24.862L263.261 24.7459C263.493 24.6297 262.68 25.0944 262.912 24.9782L263.145 24.862C263.377 24.7459 262.564 25.0944 262.796 24.9782H262.912L263.145 24.862C263.493 24.7459 262.564 24.9782 262.796 24.9782H262.912C263.029 24.9782 263.261 24.9782 263.377 24.862H263.609C263.842 24.862 263.029 24.862 263.377 24.862H263.842C264.887 24.862 265.933 24.2811 266.514 23.4679C266.746 23.1194 266.746 22.6546 266.63 22.3061C266.398 22.0738 266.049 21.7252 265.584 21.7252Z" fill="#F5EE30"/>
<path d="M280.688 23.3519C280.688 23.3519 276.622 23.0034 277.087 26.2564C277.552 29.5094 282.78 28.3476 282.78 26.2564C282.78 24.1652 281.734 23.3519 280.688 23.3519Z" fill="#F5EE30"/>
<path d="M279.991 21.3766C279.759 21.3766 279.527 21.3766 279.294 21.3766C278.597 21.3766 278.016 21.4927 277.435 21.7251C276.622 22.0736 276.041 22.6545 275.577 23.3516C275.112 24.3972 275.112 25.559 275.46 26.7208C276.157 28.9282 278.249 30.3223 280.456 30.2061C281.269 30.2061 281.966 29.9738 282.663 29.6252C283.36 29.2767 283.941 28.6958 284.406 28.1149C284.638 27.534 284.755 26.9531 284.638 26.3722C284.522 25.559 284.29 24.6296 283.941 23.9325C283.128 22.4222 281.618 21.4927 279.991 21.3766C278.946 21.3766 278.597 22.5383 278.946 23.3516C279.294 24.3972 280.224 25.0943 281.269 25.2104H281.502H281.037C281.153 25.2104 281.269 25.2104 281.385 25.3266L280.921 25.2104L281.153 25.3266C281.269 25.3266 281.385 25.4428 281.037 25.3266C280.688 25.2104 280.805 25.2104 280.921 25.2104C281.037 25.2104 281.269 25.4428 280.921 25.2104C280.572 24.9781 280.805 25.0943 280.921 25.2104C281.037 25.3266 280.688 24.8619 280.688 24.8619C280.688 24.8619 280.688 24.9781 280.805 24.9781L280.921 25.0943C281.037 25.3266 280.805 24.7457 280.805 24.7457C280.805 24.9781 280.921 25.2104 281.037 25.4428L280.921 24.9781C281.037 25.3266 281.037 25.6752 281.037 26.0237V25.4428C281.037 25.559 281.037 25.6752 281.037 25.7913L281.153 25.4428C281.153 25.559 281.037 25.7913 280.921 25.9075L281.153 25.559C280.921 25.7913 280.688 26.0237 280.456 26.1399L280.805 25.9075C280.34 26.1399 279.875 26.3722 279.41 26.3722L279.875 26.2561C279.527 26.2561 279.062 26.2561 278.713 26.2561H279.178C278.946 26.2561 278.713 26.1399 278.481 26.1399L278.946 26.3722C278.83 26.3722 278.713 26.256 278.481 26.1399C279.178 26.4884 278.946 26.3722 278.713 26.2561C278.481 26.1399 279.178 26.7208 278.946 26.4884L278.83 26.3722C278.713 26.1399 279.178 26.9531 279.062 26.7208L278.946 26.4884C278.83 26.3722 278.83 26.1399 279.062 26.8369V26.7208C279.062 26.6046 278.946 26.4884 278.946 26.4884L279.062 26.9531C279.062 26.7208 278.946 26.3722 278.946 26.1399V26.6046C278.946 26.3722 278.946 26.1399 279.062 25.9075L278.946 26.2561C279.062 26.0237 279.178 25.7913 279.294 25.559L279.062 25.9075C279.178 25.6752 279.41 25.559 279.643 25.3266L279.294 25.559C279.643 25.3266 279.991 25.2104 280.456 25.0943L279.991 25.2104C280.456 25.0943 280.921 25.0943 281.385 25.0943C281.85 25.0943 282.199 24.8619 282.431 24.5134C282.663 24.0487 282.663 23.5839 282.431 23.1192C282.199 22.5383 281.85 22.0736 281.385 21.7251C281.037 21.6089 280.456 21.3766 279.991 21.3766Z" fill="#F5EE30"/>
<path d="M311.36 269.883C311.36 265.235 311.36 260.704 311.36 256.057C311.36 255.709 311.36 255.36 311.36 255.012C311.824 256.406 309.269 255.593 310.43 255.709C310.663 255.709 311.011 255.709 311.244 255.709H319.608C319.841 255.709 319.841 255.709 319.841 255.709C320.422 256.174 320.538 257.568 320.77 258.149L321.932 261.75L324.023 268.372C324.139 268.721 324.256 269.069 324.372 269.534C324.372 269.883 324.372 270.231 324.488 270.58V270.696C324.372 270.463 326.463 270.347 326.463 270.347H326.579L326.347 270.231C326.231 270.115 325.998 269.883 325.882 269.766C325.301 269.186 324.836 268.488 324.256 267.791C323.559 266.978 322.745 266.397 321.7 265.933C320.189 265.352 318.563 265.352 317.053 265.933C315.891 266.513 314.961 267.327 314.264 268.256L309.036 274.181C308.107 275.227 309.269 276.389 310.198 276.621C311.592 277.086 313.102 276.737 314.148 275.692L319.492 269.534C319.725 269.302 319.957 269.069 320.073 268.837C320.538 268.372 319.957 268.488 318.214 269.069C318.214 269.069 318.795 269.534 318.911 269.65C319.608 270.463 320.189 271.393 321.003 272.09C323.094 273.833 326.231 274.646 328.554 272.903C330.878 271.161 330.065 268.837 329.367 266.746L326.812 258.962C326.114 256.638 325.65 253.734 323.326 252.572C322.048 251.991 320.654 251.759 319.26 251.875C317.866 251.875 316.472 251.875 315.078 251.875H311.476C309.966 251.759 308.339 251.991 306.945 252.804C305.899 253.618 305.318 255.012 305.551 256.29C305.551 257.8 305.551 259.31 305.551 260.937V270.115C305.551 272.787 311.36 272.439 311.36 269.883Z" fill="#F5EE30"/>
<path d="M185.305 258.148L182.982 255.825L181.82 254.663L181.239 254.082C181.588 254.082 181.704 254.431 181.704 254.895L181.82 256.057C181.82 255.012 184.957 255.476 185.77 255.476H191.23H202.616L199.711 250.713C195.994 258.962 189.72 265.584 183.563 272.09L187.28 275.575C187.164 273.6 187.048 271.625 186.932 269.65C186.932 268.14 186.583 266.049 187.396 264.771C188.21 263.493 189.952 262.679 191.347 261.982C192.973 261.053 194.6 260.24 196.226 259.426C197.853 258.613 195.064 253.501 193.205 254.431C191.347 255.36 189.488 256.406 187.629 257.451C186.235 258.265 184.492 259.194 183.679 260.821C182.866 262.447 182.982 264.654 182.982 266.513C182.982 268.721 183.098 271.044 183.33 273.252C183.446 274.53 185.421 278.364 187.048 276.737C193.205 270.231 199.479 263.609 203.197 255.36C203.894 253.734 202.151 250.597 200.292 250.597H182.168C181.007 250.481 179.845 250.597 178.799 251.062C177.521 251.875 177.754 253.734 178.218 255.012C178.915 256.638 180.077 258.032 181.355 259.194L184.608 262.447C185.305 263.144 186.583 263.609 186.816 262.331C186.816 260.937 186.235 259.543 185.189 258.613L185.305 258.148Z" fill="#262626"/>
<path d="M187.745 167.413C187.745 167.413 156.958 211.329 139.647 204.009C122.336 196.69 114.901 183.678 126.983 170.434C139.066 157.19 197.039 147.547 187.745 167.413Z" fill="white"/>
<path d="M185.073 166.832C180.077 173.919 174.616 180.541 168.575 186.815C166.252 189.138 163.928 191.462 161.372 193.669C159.049 195.761 156.609 197.619 153.937 199.362C152.659 200.175 151.497 200.872 150.103 201.453C149.87 201.569 149.522 201.686 149.173 201.918C148.709 202.15 149.057 201.918 149.173 201.918L148.825 202.034C148.128 202.267 147.547 202.499 146.85 202.731C146.617 202.731 145.804 202.964 146.501 202.847C146.269 202.964 145.92 202.964 145.688 202.964C145.456 202.964 145.107 203.08 144.875 203.08C144.642 203.08 144.294 203.08 144.991 203.08H144.526H143.713C143.016 203.08 144.062 203.196 143.481 203.08L142.667 202.964L142.319 202.847C142.087 202.731 142.667 202.964 142.319 202.847C134.883 200.059 125.938 194.25 124.427 185.885C123.847 182.051 124.776 178.218 126.867 175.081C127.448 174.151 128.145 173.222 128.958 172.292C129.307 171.944 129.655 171.479 130.004 171.131C129.655 171.595 130.236 170.898 130.353 170.782C131.166 170.085 131.979 169.388 132.908 168.807L133.257 168.575C132.908 168.807 133.606 168.342 133.257 168.575L133.954 168.11C134.535 167.762 135.116 167.413 135.697 167.181C136.975 166.484 138.253 165.903 139.531 165.322C142.203 164.16 144.875 163.231 147.663 162.301C153.704 160.326 159.978 159.048 166.368 158.467C167.065 158.351 167.878 158.351 168.575 158.235L169.621 158.119H170.202H170.434C171.828 158.119 173.222 158.003 174.616 158.119C175.314 158.119 175.894 158.235 176.475 158.235L177.405 158.351H177.869C178.218 158.351 177.405 158.235 177.986 158.351C179.147 158.467 180.309 158.7 181.355 159.048L181.703 159.164H181.355L182.052 159.397C182.517 159.513 182.981 159.745 183.33 159.978L183.562 160.094C183.795 160.21 183.214 159.861 183.446 159.978C183.678 160.094 183.795 160.21 183.911 160.326C184.259 160.558 184.492 160.791 184.84 161.139C184.492 160.791 185.073 161.604 185.189 161.72L185.421 162.185C185.653 162.65 185.421 161.953 185.537 162.534C185.653 162.882 185.653 163.231 185.77 163.579C185.886 163.928 185.886 164.276 185.77 164.509C185.537 165.554 185.305 166.484 184.84 167.413C184.259 168.691 186.351 169.272 187.164 169.272C188.558 169.388 189.836 168.807 190.533 167.529C191.462 165.67 191.811 163.579 191.346 161.488C190.649 159.513 189.255 157.886 187.396 156.957C182.865 154.285 176.824 154.169 171.712 154.285C164.625 154.517 157.538 155.563 150.684 157.305C144.178 158.816 138.02 161.139 132.095 164.16C125.938 167.529 120.477 172.641 118.735 179.612C116.411 188.79 122.685 196.574 130.004 201.337C133.606 203.661 137.672 206.1 142.087 206.449C145.107 206.681 148.128 206.217 150.916 205.171C157.306 202.731 162.882 198.433 167.994 193.786C176.243 186.118 183.562 177.637 190.068 168.459C190.184 168.342 190.301 168.11 190.417 167.994C191.23 166.832 190.068 165.903 189.023 165.67C187.628 165.438 186.118 165.787 185.073 166.832Z" fill="#262626"/>
<path d="M192.276 148.592C192.276 148.592 160.907 116.294 138.253 122.684C115.598 129.074 112.345 155.911 146.617 160.094C180.89 164.276 193.67 156.492 192.276 148.592Z" fill="white"/>
<path d="M193.322 147.663C186.467 140.692 178.915 134.651 170.667 129.423C159.049 122.104 144.41 115.83 131.05 122.568C126.17 125.008 121.988 128.842 119.897 133.954C118.038 138.833 118.619 144.294 121.523 148.592C125.241 154.634 131.631 158.351 138.253 160.443C143.016 161.72 147.78 162.65 152.659 162.998C157.655 163.463 162.65 163.695 167.646 163.579C174.268 163.463 181.239 162.882 187.28 159.978C190.417 158.467 193.902 156.028 194.367 152.31C194.483 151.497 194.483 150.8 194.367 149.986C194.135 148.592 193.205 147.431 192.044 146.733C191.463 146.385 189.72 145.92 189.952 147.314C189.952 147.663 190.069 148.011 190.069 148.244C190.069 148.36 190.069 148.592 190.069 148.708C190.069 149.173 190.069 148.708 190.069 148.941C189.952 149.638 189.72 150.219 189.488 150.916C188.674 152.194 187.629 153.356 186.351 154.169C182.052 157.19 176.36 158.119 171.364 158.584C162.186 159.397 152.892 159.048 143.83 157.654C139.996 157.073 136.162 156.028 132.56 154.517C131.282 153.937 130.004 153.239 128.726 152.426C128.494 152.31 128.029 151.845 127.448 151.497C127.332 151.381 126.519 150.684 126.984 151.148L126.287 150.451C126.054 150.219 125.822 149.986 125.706 149.754C125.357 149.406 125.938 150.103 125.706 149.754C125.59 149.638 125.473 149.522 125.357 149.406C125.241 149.289 125.009 148.941 124.893 148.708C124.66 148.244 124.776 148.476 124.893 148.708L124.66 148.36C124.079 147.547 123.731 146.617 123.498 145.572C123.034 143.597 123.034 141.505 123.498 139.647C124.893 134.999 127.913 130.933 132.096 128.493C137.091 125.24 143.133 123.846 149.174 124.543C155.68 125.357 161.837 128.145 167.53 131.398C172.99 134.535 178.102 138.252 182.866 142.319C184.724 143.829 186.467 145.455 188.21 146.966L188.442 147.198C188.674 147.431 187.977 146.733 188.326 147.082L188.791 147.431L189.604 148.244L190.649 149.289L190.998 149.638C191.579 150.219 193.089 151.613 194.019 150.8C194.948 149.986 193.786 148.128 193.322 147.663Z" fill="#262626"/>
<path d="M204.243 141.621C204.243 141.621 184.376 86.9015 169.854 85.0426C155.332 83.1837 146.734 92.3618 149.523 108.394C152.311 124.427 185.538 148.825 195.529 147.547C205.521 146.269 204.243 141.621 204.243 141.621Z" fill="white"/>
<path d="M206.682 139.995C203.661 131.746 200.292 123.73 196.574 115.83C193.67 109.44 190.3 103.166 186.583 97.2414C183.794 92.7104 180.425 87.7148 175.894 84.8103C173.687 83.5323 171.247 82.9514 168.691 83.0676C164.741 82.9514 160.907 83.8809 157.422 85.8559C153.82 87.7148 150.8 90.6192 148.825 94.1046C147.082 97.5899 146.269 101.424 146.617 105.374C146.733 108.859 147.547 112.228 149.057 115.365C150.684 118.502 152.775 121.523 155.098 124.195C160.443 130.352 166.484 135.813 173.222 140.344C178.334 143.829 184.143 147.663 190.3 148.941C193.553 149.406 196.923 148.825 199.827 147.314C202.267 146.153 206.217 143.945 206.682 140.924C206.682 140.808 206.682 140.344 206.682 139.995C206.565 139.763 201.57 141.97 201.918 143.364C202.034 143.597 202.034 143.945 201.918 144.177C201.802 144.41 201.802 144.758 201.686 144.991C201.686 145.107 201.454 145.455 201.454 145.339C201.105 145.572 201.454 145.455 201.454 145.339C201.57 145.223 202.383 144.758 202.383 144.642C201.802 144.875 201.221 145.107 200.524 145.339C199.478 145.688 198.433 145.804 197.271 145.92C196.342 145.92 195.412 145.92 194.483 145.688C188.674 144.526 183.214 140.924 178.45 137.671C172.177 133.489 166.484 128.493 161.372 122.917C157.306 118.386 153.007 113.042 151.845 106.884C151.032 102.934 151.148 98.7517 152.194 94.9178C152.659 93.4075 153.356 91.8972 154.169 90.503C154.517 89.9222 154.982 89.3413 155.563 88.8765C155.563 88.8765 156.144 88.4118 155.912 88.528C155.679 88.6442 156.26 88.2957 156.028 88.4118C160.326 86.3206 167.181 85.6236 171.596 88.6442C175.778 91.5487 178.915 96.0796 181.587 100.378C185.072 105.839 188.093 111.531 190.881 117.456C193.437 122.801 195.877 128.261 198.084 133.838C198.898 135.813 199.595 137.788 200.408 139.763C200.873 140.808 201.105 141.97 201.686 143.016C201.802 143.132 201.802 143.364 201.802 143.48C202.034 143.713 207.03 141.157 206.682 139.995Z" fill="#262626"/>
<path d="M214.929 138.717C214.929 138.717 239.558 76.213 220.854 66.9187C202.149 57.6245 187.743 67.2673 187.859 89.1088C187.975 110.95 201.103 138.02 206.68 139.995C212.257 141.97 214.929 138.717 214.929 138.717Z" fill="white"/>
<path d="M217.602 138.485C220.507 131.049 222.947 123.498 225.154 115.83C227.013 109.324 228.523 102.702 229.569 96.0795C230.731 90.0382 230.963 83.7646 230.266 77.7233C229.685 73.3085 228.058 68.4291 224.108 65.9893C217.254 61.8069 208.192 60.5289 200.64 63.201C182.168 69.8232 183.911 93.6398 187.861 108.975C190.068 117.921 193.437 126.518 198.084 134.418C199.362 136.858 201.105 139.066 203.196 140.924C206.333 143.364 211.445 142.899 214.698 141.041C215.627 140.576 216.557 139.879 217.254 139.066C217.951 138.136 217.719 137.323 216.557 137.207C215.163 137.09 213.768 137.671 212.723 138.717C212.607 138.833 212.142 139.298 212.607 138.833C212.491 138.949 211.91 139.414 212.374 138.949C212.142 139.182 212.491 138.949 212.258 139.066C211.561 139.182 210.864 139.182 210.283 139.066C209.702 138.949 209.238 138.833 208.773 138.601C208.657 138.485 208.889 138.717 208.54 138.485C206.682 137.09 205.171 135.232 204.009 133.257C199.711 126.17 196.342 118.386 194.134 110.369C191.578 101.54 189.72 91.8971 190.998 82.719C191.462 79.0013 192.624 75.2836 194.599 72.0306C195.412 70.7526 196.342 69.5908 197.503 68.5452C197.968 68.0805 198.549 67.732 199.13 67.3834C198.781 67.6158 199.711 67.0349 199.711 67.0349C199.711 67.0349 200.757 66.5702 200.292 66.6864C200.64 66.5702 200.989 66.3378 201.337 66.2217L201.918 65.9893C201.454 66.1055 201.918 65.9893 202.034 65.9893C202.732 65.757 203.429 65.6408 204.126 65.5246C205.752 65.2922 207.379 65.2922 208.889 65.5246C212.491 65.9893 216.092 67.1511 219.229 69.0099C222.83 71.3335 224.225 75.5159 224.805 79.5822C225.386 85.1587 225.27 90.8515 224.225 96.3119C223.295 102.586 221.901 108.859 220.158 115.017C217.951 123.149 215.395 131.049 212.374 138.833L212.258 139.182C211.445 141.389 216.905 140.111 217.602 138.485Z" fill="#262626"/>
<path d="M223.645 141.389C223.645 141.389 272.207 115.481 270.929 102.353C269.651 89.2251 254.316 80.6279 244.673 83.7647C235.03 86.9015 209.355 133.489 214.931 138.717C220.508 143.945 223.645 141.389 223.645 141.389Z" fill="white"/>
<path d="M224.691 141.738C233.172 137.207 241.304 132.211 249.32 126.867C255.245 123.033 260.706 118.734 265.934 113.855C269.071 110.718 273.602 106.419 273.602 101.656C273.602 93.4073 266.399 86.2043 259.195 83.2998C252.69 80.3953 245.138 81.4409 239.678 85.9719C235.147 89.6896 231.661 94.9176 228.524 99.681C224.458 105.838 220.74 112.344 217.604 119.083C215.164 124.195 212.608 129.655 211.679 135.232C211.446 136.626 211.214 138.485 212.143 139.646C213.421 141.157 215.164 142.318 217.023 143.015C218.533 143.48 220.16 143.48 221.786 143.015C223.296 142.551 224.574 141.854 225.736 140.924C226.549 140.227 226.201 139.763 225.271 139.995C223.877 140.227 222.599 140.924 221.554 141.738C221.786 141.505 222.135 141.273 222.367 141.157C222.715 140.924 223.064 140.808 223.413 140.692C224.226 140.343 223.877 140.576 223.645 140.576C223.877 140.576 223.993 140.46 223.645 140.576C223.296 140.576 222.832 140.576 222.483 140.46C220.508 139.995 218.649 138.833 217.371 137.323C216.674 136.161 216.442 134.883 216.79 133.605C217.371 128.493 219.695 123.614 221.786 118.967C224.691 112.693 227.944 106.652 231.545 100.843C234.566 95.7309 238.051 91.0837 242.001 86.669C242.698 85.9719 243.395 85.391 244.092 84.6939C243.511 85.1586 245.138 84.113 244.208 84.5778C244.789 84.2292 244.092 84.5778 244.092 84.5778C244.092 84.5778 244.557 84.3454 243.976 84.5778C243.744 84.6939 243.628 84.8101 243.395 84.8101C246.648 84.113 250.134 84.3454 253.27 85.6234C260.706 88.2955 266.979 94.8015 268.025 102.818C268.606 107.116 265.004 110.95 262.216 113.739C257.801 118.037 253.038 121.987 247.81 125.356C239.794 130.817 231.429 135.929 222.948 140.576L222.483 140.808C222.018 141.04 220.392 141.97 221.089 142.551C221.786 143.132 224.226 141.97 224.691 141.738Z" fill="#262626"/>
<path d="M215.975 164.393C215.975 164.393 186.698 174.965 183.678 167.762C180.657 160.559 189.138 138.833 210.631 136.278C232.124 133.722 228.406 150.684 215.975 164.393Z" fill="white"/>
<path d="M213.189 163.695C207.729 165.67 202.269 167.181 196.576 168.343C194.601 168.807 192.626 169.04 190.651 169.272C189.837 169.388 189.14 169.388 188.327 169.388H187.281C187.63 169.388 186.817 169.388 186.933 169.388C186.352 169.388 187.281 169.504 186.817 169.388C186.352 169.272 187.514 169.504 186.817 169.388C186.701 169.388 187.862 169.737 187.398 169.504C186.933 169.272 187.862 169.737 187.398 169.504C187.746 169.737 187.281 169.388 187.281 169.388C186.933 169.156 186.584 168.691 186.352 168.343C185.887 167.297 185.655 166.019 185.771 164.857C185.771 157.073 190.767 149.173 196.46 144.294C200.293 140.924 205.057 138.601 210.052 137.555C212.725 136.974 215.513 136.742 218.185 136.974C218.417 136.974 218.766 137.091 218.533 136.974C218.766 136.974 218.882 137.091 219.114 137.207C219.811 137.555 220.392 138.02 220.973 138.485C223.762 141.505 223.181 146.036 221.903 149.638C219.928 154.866 216.907 159.745 212.957 163.812C212.608 164.16 215.397 164.973 215.629 164.973C216.326 165.09 218.069 165.67 218.65 164.973C222.6 160.907 225.62 156.144 227.595 150.8C228.757 147.314 229.454 142.899 226.898 139.879C225.504 138.368 223.762 137.207 221.786 136.626C218.766 135.58 215.513 135.115 212.26 135.115C206.219 135.115 200.293 136.742 195.065 139.879C187.514 144.526 181.124 153.007 180.195 162.069C179.846 164.973 180.195 167.994 183.099 169.388C187.165 171.363 191.929 171.363 196.343 170.782C204.011 169.737 211.447 167.762 218.65 165.09C219.347 164.857 216.907 163.928 216.791 163.928C215.629 163.579 214.467 163.463 213.189 163.695Z" fill="#262626"/>
<path d="M221.67 217.138C222.483 214.582 222.948 211.91 222.948 209.121C223.18 205.404 223.18 201.57 223.064 197.852C222.832 189.952 221.786 182.052 220.044 174.268C219.463 171.131 218.301 168.227 216.674 165.438C215.513 163.696 210.052 165.438 211.33 167.413C212.608 169.621 213.538 172.06 214.118 174.616C215.048 178.218 215.745 181.819 216.21 185.421C217.371 192.973 217.72 200.64 217.371 208.308C217.371 211.445 216.907 214.466 215.977 217.486C215.164 219.577 220.973 219.113 221.67 217.138Z" fill="#262626"/>
<path d="M199.827 155.795C203.429 155.795 201.454 150.916 198.782 150.916C195.064 150.799 197.039 155.795 199.827 155.795Z" fill="#262626"/>
<path d="M210.052 147.082C210.516 147.43 211.33 146.733 211.097 146.269C210.749 146.152 210.284 146.152 209.936 146.385" fill="white"/>
<path d="M207.379 146.385C207.611 146.501 207.844 146.733 208.192 146.733C209.122 147.082 210.051 147.43 210.98 147.547C211.445 147.663 211.794 147.779 212.258 147.779L212.723 147.895H213.188C213.304 147.895 213.42 147.779 213.536 147.779C213.652 147.779 213.652 147.663 213.769 147.663C213.885 147.547 214.001 147.43 214.001 147.198V147.082C214.001 147.082 214.001 147.082 214.001 146.966C213.885 146.85 213.769 146.733 213.652 146.733L213.188 146.501L212.607 146.269C212.142 146.152 211.677 145.92 211.213 145.804C210.632 145.688 210.283 145.572 209.702 145.455L208.889 145.339C208.657 145.339 208.424 145.223 208.192 145.223H207.727C207.611 145.223 207.379 145.339 207.263 145.339C207.146 145.339 207.146 145.339 207.146 145.455C207.263 145.572 207.263 145.688 207.495 145.688C207.727 145.804 207.96 145.92 208.192 146.036C208.541 146.152 208.773 146.269 209.122 146.385C209.819 146.617 210.516 146.85 211.329 146.966L211.91 147.082C212.142 147.082 212.375 147.082 212.723 147.082C212.955 146.966 213.188 146.966 213.42 146.966H213.304H212.839H212.955L212.375 146.85H212.491L211.794 146.733H211.91L211.213 146.501L208.541 145.339C208.657 145.688 208.541 146.036 208.192 146.152H208.308C208.192 146.152 208.076 146.269 207.96 146.269H208.192H208.657L209.238 146.385L209.935 146.501L210.632 146.733L211.329 146.966L212.026 147.198L212.607 147.43L213.072 147.663H212.955L213.188 147.779C212.839 147.547 212.375 147.314 211.91 147.198C211.561 147.082 211.213 146.966 210.864 146.85C210.516 146.733 210.167 146.617 209.702 146.617L209.005 146.501C208.657 146.385 208.308 146.385 207.96 146.385H207.611C207.495 146.385 207.495 146.501 207.495 146.617L207.379 146.385Z" fill="#262626"/>
<path d="M208.308 158.816C211.793 158.816 210.747 153.239 207.727 153.239C204.242 153.239 205.287 158.816 208.308 158.816Z" fill="#262626"/>
<path d="M222.829 205.868C223.991 198.898 226.895 192.392 231.426 186.931C233.169 184.724 235.376 182.749 238.165 182.284C241.65 181.819 245.019 184.259 246.297 187.512C247.459 190.881 247.11 194.483 245.368 197.62C243.625 200.64 241.301 203.312 238.513 205.404C236.19 207.262 233.866 209.005 231.426 210.632C228.987 212.142 225.85 213.536 223.41 211.91" fill="white"/>
<path d="M224.108 208.308C224.921 203.428 226.78 198.665 229.336 194.367C231.543 190.765 234.68 185.769 239.211 184.956C241.418 184.608 243.626 185.305 245.136 186.815C245.485 187.163 245.833 187.628 246.182 187.977C244.904 186.931 245.136 185.421 245.485 186.815C245.485 187.163 245.601 187.396 245.601 187.744C245.717 189.022 245.601 190.3 245.252 191.578C244.09 196.342 240.373 200.059 236.655 203.08C234.448 204.939 232.124 206.565 229.801 208.076C227.593 209.47 224.573 210.864 222.133 209.354C221.784 209.121 222.597 211.212 222.714 211.329C223.062 212.142 223.643 214.001 224.456 214.465C226.896 215.86 229.568 214.93 231.776 213.652C234.332 212.142 236.771 210.399 239.095 208.424C243.277 205.055 247.343 200.873 248.157 195.296C248.389 192.392 247.808 189.487 246.414 186.931C245.252 184.491 243.858 181.935 241.302 180.541C236.19 177.637 231.776 181.819 228.871 185.769C225.037 190.881 222.597 196.922 221.436 203.196C221.32 204.126 222.365 205.752 222.83 206.449C223.062 206.914 224.108 208.657 224.108 208.308Z" fill="#262626"/>
<path d="M199.595 492.248L186.234 493.758C186.234 493.758 150.567 506.305 154.634 513.508C158.7 520.711 178.915 522.686 205.055 519.898C231.195 517.11 240.141 507.932 229.22 489.808L199.595 492.248Z" fill="#262626"/>
<path d="M198.318 489.808L186.119 491.202C184.028 491.55 181.937 492.247 179.962 493.177C175.315 494.919 170.668 496.894 166.137 499.102C161.954 501.193 157.307 503.517 153.938 506.886C152.66 508.048 151.963 509.558 151.73 511.301C151.73 513.508 153.357 515.599 154.983 516.993C159.398 520.827 165.788 521.989 171.481 522.802C180.194 523.732 189.024 523.848 197.737 523.035C206.218 522.454 214.932 521.64 223.064 518.852C227.944 517.11 232.939 514.321 235.263 509.442C237.586 504.562 236.076 498.753 233.985 493.99C233.288 492.363 232.474 490.853 231.545 489.459C230.848 488.181 229.57 487.368 228.06 487.484L202.152 489.575L198.318 489.808C196.924 489.924 196.808 491.55 197.389 492.596C198.086 493.874 199.364 494.687 200.874 494.571L226.898 492.48L230.616 492.247L227.13 490.272C228.641 492.712 229.919 495.384 230.732 498.172C231.08 499.218 231.197 500.264 231.313 501.425C231.313 502.355 231.313 503.284 231.197 504.33C230.267 508.629 226.898 511.417 222.948 513.276C216.558 516.296 209.239 517.226 202.268 517.923C193.555 518.852 184.725 519.201 176.012 518.736C172.643 518.62 169.273 518.155 166.02 517.458C164.742 517.226 163.464 516.877 162.187 516.412C161.722 516.296 161.141 516.064 160.676 515.832L160.211 515.599C160.211 515.599 160.56 515.715 160.328 515.599L159.514 515.134C159.05 514.902 158.701 514.67 158.236 514.321C158.817 514.786 157.772 513.857 157.539 513.74C157.075 513.392 157.888 514.205 157.539 513.74C157.423 513.624 157.307 513.392 157.075 513.276C156.842 513.159 157.307 513.74 157.075 513.276C156.842 512.811 157.075 513.159 157.075 513.276C156.959 513.043 157.075 512.927 157.075 513.159C156.959 513.74 157.191 512.927 157.075 513.043C157.191 513.043 156.959 513.276 157.075 513.159C157.191 513.043 157.191 512.811 157.191 512.695C157.191 512.579 157.307 512.462 157.307 512.346C157.191 512.695 157.191 512.462 157.423 512.23C157.656 511.881 157.888 511.649 158.12 511.301C159.398 509.906 160.792 508.745 162.303 507.931C164.394 506.653 166.485 505.492 168.576 504.33C172.875 502.123 177.406 500.264 181.821 498.405C183.331 497.824 184.841 497.243 186.352 496.662L187.63 496.197C188.327 495.965 187.513 496.314 187.513 496.197C188.094 496.197 188.675 496.197 189.256 495.965L192.625 495.617L199.596 494.803L200.874 494.687C202.268 494.571 202.384 492.944 201.803 491.899C201.222 490.505 199.828 489.691 198.318 489.808Z" fill="#262626"/>
<path d="M222.946 441.245C222.946 441.245 198.549 479.7 197.154 483.65C195.76 487.6 168.575 500.38 172.525 500.612C175.545 500.728 182.748 506.421 205.635 502.936C228.871 499.45 227.709 496.546 228.871 491.666C230.033 486.787 252.804 445.66 252.804 445.66L222.946 441.245Z" fill="white"/>
<path d="M221.203 439.038C214.116 450.191 207.029 461.344 200.291 472.729C198.781 475.285 197.27 477.725 195.876 480.281C195.528 480.862 195.295 481.443 194.947 482.024C195.179 481.326 195.063 481.907 194.831 482.024C194.598 482.14 194.482 482.372 194.366 482.488C193.901 482.953 193.553 483.301 192.972 483.65C186.93 488.181 179.96 491.318 173.57 495.384C172.524 495.965 171.479 496.662 170.665 497.475C169.504 498.986 169.736 501.193 171.246 502.355C171.246 502.355 171.246 502.355 171.362 502.355C172.176 502.819 172.989 503.168 173.918 503.284C174.848 503.517 175.777 503.865 176.707 504.214C186.117 507.35 196.225 506.886 205.867 505.492C211.793 504.795 217.601 503.517 223.294 501.774C225.502 500.961 228.058 499.915 229.336 497.824C229.916 496.894 230.265 495.849 230.497 494.803C230.613 494.455 230.613 493.99 230.73 493.641L230.846 493.06C230.73 493.409 230.962 492.363 230.846 493.06C231.775 491.085 232.588 488.994 233.518 487.019C240.024 473.775 247.111 460.995 254.198 448.216L254.662 447.286C255.476 445.776 253.965 443.104 252.339 442.871L226.315 439.038L222.597 438.457C219.344 437.992 220.622 443.452 223.062 443.801L249.086 447.635L252.804 448.216L250.48 443.801C244.323 454.954 238.165 466.223 232.356 477.609C230.033 482.024 227.244 486.671 226.199 491.55C226.199 491.783 226.083 491.899 226.083 492.131C225.966 492.712 226.083 492.015 226.083 492.131C225.966 492.48 225.85 492.828 225.734 493.293C225.618 493.409 225.618 493.641 225.502 493.758C225.85 493.177 225.618 493.641 225.385 493.874C225.153 494.222 224.805 494.571 224.456 494.919C224.921 494.455 224.224 495.036 224.107 495.152C223.991 495.268 223.643 495.5 223.41 495.616C222.713 495.965 222.132 496.313 221.435 496.546C219.577 497.243 217.601 497.824 215.626 498.289C209.004 499.799 202.266 500.844 195.411 501.309C190.648 501.658 185.769 501.425 181.121 500.612C178.566 500.031 176.126 499.334 173.686 498.521C173.105 498.289 172.408 498.056 171.827 498.056C173.57 497.824 172.989 505.956 173.918 502.239C174.035 502.006 173.454 502.703 173.802 502.471C174.151 502.239 173.918 502.239 174.035 502.239C174.499 502.006 173.918 502.239 174.151 502.122L174.848 501.658C180.889 497.591 187.511 494.455 193.553 490.505C195.644 489.11 197.967 487.716 199.013 485.509C199.942 483.65 200.872 481.907 201.917 480.165C208.888 468.314 216.44 456.348 223.875 444.614C223.991 444.382 224.224 444.033 224.456 443.801C225.153 442.523 225.037 441.013 223.991 439.967C223.643 438.921 221.9 437.76 221.203 439.038Z" fill="#262626"/>
<path d="M384.901 457.51C384.901 457.51 292.191 364.451 271.047 369.679C249.902 374.907 173.921 449.843 187.863 474.937C201.804 500.032 227.363 502.355 263.146 477.725C289.751 459.369 382.578 362.012 382.578 362.012L383.972 444.15L384.901 457.51Z" fill="#262626"/>
<path d="M219.344 495.733C216.556 495.733 213.768 495.384 210.98 494.803C201.221 492.48 193.32 485.974 187.395 475.285C184.491 470.057 185.188 462.622 189.37 453.095C195.76 438.457 210.166 419.404 229.103 400.583C246.298 383.504 262.679 371.19 270.928 369.098C281.616 366.426 309.499 387.687 335.058 409.993C360.153 384.666 381.646 362.244 382.11 361.779L383.04 360.734L384.434 444.266L385.596 459.02L384.434 457.859C383.969 457.394 360.734 434.042 334.942 411.62C307.872 438.805 276.853 468.896 263.376 478.306C246.646 489.924 231.775 495.733 219.344 495.733ZM273.135 370.028C272.554 370.028 271.857 370.144 271.276 370.26C254.779 374.443 204.241 421.727 190.416 453.56C186.466 462.738 185.769 469.825 188.441 474.705C194.134 485.044 201.801 491.434 211.212 493.642C225.037 496.895 242.348 491.434 262.795 477.26C276.272 467.966 307.175 437.876 334.245 410.806C310.312 390.01 284.404 370.028 273.135 370.028ZM335.988 410.806C358.526 430.557 379.09 450.888 384.318 456L383.388 444.382L382.11 363.638C377.579 368.285 358.178 388.5 335.988 410.806Z" fill="#262626"/>
<path d="M429.281 421.146C429.281 421.146 470.175 482.837 457.861 504.33C445.546 525.823 303.924 535.117 275.344 513.624C246.764 492.131 298.58 441.129 429.281 421.146Z" fill="#262626"/>
<path d="M426.491 421.844C432.881 431.486 438.573 441.594 443.685 452.05C447.984 460.299 451.469 468.896 454.257 477.725C456.349 484.696 458.324 492.829 456.581 500.032C456.232 501.542 455.652 502.936 454.954 504.214C454.838 504.33 454.49 504.911 454.838 504.446C454.722 504.563 454.606 504.795 454.49 504.911C454.257 505.26 453.909 505.608 453.56 505.957C453.212 506.305 452.979 506.538 452.631 506.886C452.515 507.002 452.282 507.118 452.747 506.77C452.631 506.886 452.515 506.886 452.398 507.002L451.701 507.467C450.772 508.164 449.843 508.745 448.913 509.21C448.216 509.558 449.146 509.094 448.565 509.442L447.868 509.791C447.287 510.139 446.59 510.372 446.009 510.72C444.731 511.301 443.453 511.766 442.175 512.347L441.245 512.695C441.129 512.695 440.432 512.927 441.129 512.695L440.548 512.927C439.851 513.16 439.038 513.392 438.341 513.625C436.598 514.205 434.972 514.67 433.229 515.135C429.628 516.064 426.026 516.994 422.308 517.691L421.147 517.923L419.752 518.155L416.383 518.736C414.292 519.085 412.201 519.433 410.11 519.782C400.931 521.176 391.753 522.222 382.459 522.919C377.812 523.267 373.049 523.616 368.169 523.848C363.29 524.081 358.526 524.197 353.647 524.313C344.236 524.429 334.71 524.313 325.299 523.616C317.167 523.151 308.918 522.222 300.902 520.711C297.649 520.13 294.396 519.433 291.259 518.504C289.749 518.039 288.238 517.575 286.728 517.11L284.869 516.413L283.824 515.948L283.127 515.716C275.691 512.347 269.766 506.421 270.463 497.824C270.579 496.895 270.695 495.965 270.928 495.152C271.16 494.107 271.509 493.177 271.857 492.248C272.206 491.202 272.67 490.156 273.251 489.227C273.716 488.298 274.529 486.903 274.994 486.206C278.363 481.327 282.429 477.028 286.96 473.311C299.972 462.274 316.237 454.257 332.27 447.751C356.203 437.992 381.53 431.37 406.973 426.375C414.408 424.98 421.844 423.586 429.395 422.541C430.208 422.424 432.183 421.96 432.067 420.798C431.951 419.636 429.744 419.636 429.047 419.752C400.467 424.167 372.119 430.325 344.817 439.851C325.88 446.473 307.059 454.49 290.562 465.991C284.753 469.941 279.409 474.472 274.646 479.584C271.044 483.302 268.256 487.717 266.281 492.596C264.77 496.314 264.538 500.38 265.467 504.33C266.745 508.28 269.185 511.766 272.554 514.205C276.969 517.691 282.429 519.55 287.658 521.06C295.093 523.035 302.761 524.545 310.428 525.359C329.482 527.334 348.767 527.914 367.937 526.753C386.99 526.056 405.927 523.848 424.516 520.13C431.719 518.736 438.806 516.761 445.66 514.205C450.307 512.463 455.303 510.255 458.904 506.654C463.087 502.239 463.435 495.268 462.855 489.576C461.925 480.746 458.904 472.149 455.535 464.016C449.378 449.61 442.059 435.785 433.578 422.541C433.113 421.727 432.532 421.03 432.067 420.217C430.905 418.823 425.329 420.101 426.491 421.844Z" fill="#262626"/>
<path d="M248.274 319.839C246.415 309.615 232.125 266.164 226.432 267.21C220.74 268.256 221.669 287.541 221.669 287.541C221.669 287.541 217.37 286.844 208.076 271.508C197.969 255.011 187.396 257.219 193.321 271.741C195.645 277.201 198.549 282.429 202.151 287.076C194.832 287.773 201.222 297.532 201.222 297.532C190.068 295.325 185.421 310.544 234.681 344.701L248.274 319.839Z" fill="white"/>
<path d="M251.177 320.536C250.015 315.308 248.621 310.196 246.878 305.2C244.671 298.229 242.231 291.143 239.443 284.288C237.352 279.292 235.377 273.716 231.891 269.417C230.265 267.442 227.941 266.28 225.501 266.164C222.829 265.932 221.319 267.791 220.506 270.114C218.647 275.226 218.647 281.267 218.879 286.728L221.087 286.612C221.667 286.728 222.365 286.844 222.945 287.076C222.597 286.96 223.642 287.309 223.062 287.192C222.945 287.192 222.945 287.076 222.829 287.076C222.481 286.844 223.062 287.309 222.829 287.076C221.667 286.263 220.622 285.334 219.576 284.172C217.717 282.081 215.975 279.873 214.464 277.55C212.025 274.064 209.933 270.23 207.261 266.861C205.402 264.422 202.963 262.33 200.291 260.82C197.967 259.658 194.83 258.496 192.158 259.077C187.279 260.007 189.021 266.861 190.183 269.998C192.39 276.039 195.527 281.616 199.477 286.612L199.942 286.147C196.689 286.612 195.527 288.703 196.224 291.723C196.689 293.582 197.502 295.441 198.664 297.068L200.872 296.719C196.689 295.906 190.88 296.603 191.345 302.063C191.577 305.316 193.32 308.337 195.063 311.009C198.432 315.772 202.266 320.187 206.68 324.137C214.697 331.456 223.294 338.311 232.356 344.352C233.285 344.933 234.331 345.398 235.493 345.514C235.957 345.63 237.468 345.979 237.7 345.398L249.666 323.556L251.177 320.536C251.525 319.955 246.297 317.864 245.6 319.025L233.634 340.983L231.891 344.12L237.235 345.166C229.335 339.821 221.784 334.012 214.581 327.739C209.933 323.789 205.635 319.258 201.801 314.378C199.71 311.59 197.619 308.569 196.921 305.084C196.573 303.341 196.573 301.018 197.851 299.856C198.199 299.507 198.548 299.275 198.896 299.043C199.129 298.926 199.245 298.81 199.477 298.81C199.826 298.694 199.477 298.81 199.942 298.694L200.639 298.578C200.523 298.578 201.104 298.462 200.639 298.578H200.988C201.801 298.578 200.755 298.462 201.336 298.578C202.149 298.694 200.872 298.462 201.685 298.578C201.801 298.578 204.357 298.926 203.892 298.229C202.033 295.441 199.013 288.935 204.357 288.238C204.473 288.238 205.054 288.122 204.822 287.773C201.917 283.823 199.361 279.641 197.27 275.226C195.876 272.322 194.482 269.069 194.366 265.699C194.366 264.189 194.482 262.214 195.992 261.401C196.224 261.285 196.689 261.285 196.805 261.168C196.689 261.285 197.038 261.285 196.689 261.168L196.108 261.052C195.295 260.936 195.876 261.052 196.341 261.285C196.921 261.633 197.502 262.098 198.083 262.563C200.755 264.886 203.079 267.675 204.822 270.695C207.958 275.691 211.211 280.803 215.51 284.985C217.253 286.844 219.576 288.122 222.132 288.587C222.365 288.587 224.456 288.935 224.34 288.47C224.107 284.056 224.34 279.641 225.153 275.342C225.501 273.251 226.082 269.998 228.057 268.72C228.173 268.604 228.406 268.604 228.522 268.488C228.638 268.372 228.754 268.604 228.406 268.488C227.36 268.255 226.547 268.139 225.501 267.791C225.501 267.791 224.92 267.558 225.269 267.674C225.037 267.442 225.385 267.674 225.269 267.674C225.734 268.139 226.198 268.604 226.547 269.185C229.684 273.367 231.659 278.595 233.634 283.359C236.19 289.748 238.513 296.254 240.605 302.76C242.463 308.221 244.09 313.681 245.252 319.258C245.368 320.187 247.111 320.536 247.924 320.652C248.388 320.536 251.293 321.117 251.177 320.536Z" fill="#262626"/>
<path d="M208.425 305.433L204.243 297.068L203.662 295.906C202.848 294.628 201.338 293.931 199.944 294.396C198.666 294.744 197.737 295.906 198.318 297.3L202.5 305.665L203.081 306.827C203.894 308.105 205.404 308.686 206.799 308.337C208.077 307.989 209.006 306.827 208.425 305.433Z" fill="#262626"/>
<path d="M199.478 288.238L206.681 296.719L207.727 297.997C207.959 298.23 208.424 298.113 208.656 298.113C209.353 297.997 210.05 297.765 210.631 297.533C210.863 297.416 213.419 296.255 213.071 295.906L205.868 287.425L204.822 286.147C204.59 285.915 204.125 286.031 203.893 286.031C203.196 286.147 202.499 286.379 201.918 286.612C201.685 286.728 199.129 287.89 199.478 288.238Z" fill="#262626"/>
<path d="M382.228 312.287L355.274 265.235C355.274 265.235 349.001 226.083 353.299 220.855C359.224 213.768 374.56 209.702 394.775 216.092C414.061 222.249 432.068 229.452 431.255 270.231C431.139 276.388 438.807 309.964 435.089 314.959C428.699 323.324 405.115 329.714 382.228 312.287Z" fill="#262626"/>
<path d="M348.651 319.955C348.651 319.955 350.394 317.167 352.369 313.565C354.344 309.964 353.995 307.524 343.539 299.972C322.976 285.218 332.502 264.77 332.502 264.77C332.502 264.77 329.133 264.305 324.37 260.704C320.304 257.683 317.515 248.157 332.154 248.04C335.523 248.04 339.357 247.46 342.494 243.045C346.328 237.468 348.419 232.356 355.273 222.365L355.97 227.709C357.945 241.767 365.962 254.43 377.928 262.098L379.206 261.982C372.816 284.52 383.388 300.321 383.388 300.321C383.388 300.321 381.994 308.453 382.227 312.403C382.227 312.287 361.431 330.876 348.651 319.955Z" fill="white"/>
<path d="M350.859 320.768C352.369 318.445 353.647 316.005 354.925 313.565C355.622 312.171 355.971 310.661 355.855 309.15C355.506 307.292 354.461 305.549 353.066 304.271C350.743 301.947 348.187 299.972 345.515 298.113C340.519 294.512 336.221 289.749 334.246 283.823C332.851 279.757 332.503 275.342 333.2 271.16C333.316 270.231 333.549 269.417 333.781 268.488C333.665 269.069 333.897 267.907 334.013 267.791C334.129 267.675 334.129 267.21 334.246 266.978C334.478 266.397 334.71 265.7 334.943 265.119C335.407 264.189 334.943 263.028 334.013 262.679C333.781 262.563 333.549 262.563 333.316 262.563C333.084 262.563 332.851 262.447 333.549 262.679C333.316 262.563 332.968 262.563 332.735 262.447C331.69 262.098 330.644 261.633 329.715 261.169C328.437 260.472 327.275 259.775 326.229 258.845C325.997 258.613 325.765 258.497 325.532 258.264L325.416 257.799C325.648 258.032 325.184 257.451 325.184 257.451C324.835 256.986 324.487 256.405 324.254 255.824C324.254 255.708 324.022 255.36 324.254 255.708C324.254 255.592 324.138 255.476 324.138 255.36C324.022 255.011 324.022 254.663 323.906 254.198C323.906 254.198 323.906 253.617 323.906 253.966C323.906 254.314 323.906 253.733 323.906 253.733C323.906 253.385 324.022 253.152 324.022 252.804C323.906 253.385 324.138 252.571 324.254 252.455C323.906 252.92 324.37 252.107 324.254 252.455C324.37 252.339 324.487 252.107 324.603 251.991C324.022 252.688 325.416 251.41 324.603 251.991C324.719 251.874 325.765 251.294 325.3 251.526C326.229 251.061 327.275 250.829 328.204 250.713C330.76 250.248 333.432 250.596 335.988 250.016C339.009 249.318 341.797 247.576 343.772 245.136C345.166 243.393 346.444 241.418 347.49 239.443C350.743 233.983 353.88 228.523 357.481 223.295L352.602 223.411C353.299 228.987 354.112 234.331 356.087 239.559C358.875 246.879 363.29 253.501 369.099 258.729C370.726 260.239 372.468 261.633 374.211 262.911C375.024 263.608 375.954 264.189 376.999 264.422C377.696 264.422 378.277 264.422 378.974 264.305L376.651 261.75C373.165 274.181 373.746 287.774 379.555 299.391C379.904 300.205 380.368 301.018 380.833 301.715L380.601 300.553C379.788 304.736 379.323 308.918 379.439 313.217L380.368 310.893C379.788 311.474 379.09 311.939 378.393 312.52L377.929 312.868L376.651 313.798C375.721 314.495 374.676 315.075 373.63 315.773C369.331 318.445 364.22 320.884 359.108 320.884C355.971 320.884 352.95 319.839 350.627 317.864C348.536 316.121 344.121 319.839 346.444 321.814C357.365 330.992 372.933 322.395 382.343 314.959C382.808 314.611 383.273 314.262 383.738 313.798C384.667 312.984 385.016 311.706 384.899 310.428C385.016 307.059 385.364 303.69 385.945 300.321C386.177 298.927 385.596 298.23 384.899 297.184C383.854 295.209 382.924 293.234 382.227 291.143C379.09 281.732 378.858 271.625 381.53 262.098C381.995 260.355 380.949 259.426 379.207 259.542C378.742 259.542 377.232 259.426 378.626 259.542L379.788 260.007C372.352 255.244 366.311 248.389 362.477 240.373C359.572 234.331 358.643 227.942 357.714 221.319C357.365 218.764 353.647 220.158 352.834 221.436C349.349 226.431 346.328 231.659 343.308 236.887C342.262 238.979 340.868 240.954 339.474 242.812C337.847 244.555 335.64 245.485 333.2 245.368C328.437 245.601 322.512 246.065 319.491 250.596C317.748 253.501 317.864 257.219 319.839 260.007C321.35 261.982 323.209 263.608 325.416 264.654C327.275 265.816 329.25 266.513 331.341 266.978L329.715 264.422C327.275 269.998 326.694 276.272 327.856 282.197C329.018 287.89 331.806 293.118 335.988 297.3C338.66 299.856 341.565 302.18 344.585 304.271C346.561 305.665 348.303 307.291 349.814 309.267L350.162 309.847C350.162 309.964 350.278 310.08 350.278 310.196C350.162 309.964 350.162 309.964 350.278 310.196C350.394 310.544 350.394 310.777 350.511 311.125C350.511 310.544 350.394 311.474 350.394 311.706C350.511 311.009 350.278 311.939 350.162 312.171C349.116 314.495 347.838 316.818 346.328 318.909C345.631 319.955 345.631 321.465 347.025 321.93C348.536 322.511 350.046 321.93 350.859 320.768Z" fill="#262626"/>
<path d="M450.889 430.789C466.457 418.823 401.513 304.735 401.513 304.735C353.764 294.047 296.023 354.576 296.023 354.576L252.689 307.524L215.512 344.817C215.512 344.817 219.462 394.89 264.423 426.839C264.423 426.723 355.739 503.981 450.889 430.789Z" fill="white"/>
<path d="M453.444 430.905C457.162 428.001 456.233 421.727 455.652 417.661C454.374 409.645 451.585 401.977 448.681 394.425C444.963 384.782 440.781 375.372 436.482 366.078C432.068 356.551 427.304 347.257 422.541 337.846C418.707 330.411 414.757 322.975 410.691 315.54C408.716 311.822 406.624 308.105 404.533 304.503C404.069 303.69 403.836 303.574 402.674 303.341C399.654 302.644 396.517 302.296 393.38 302.18C386.874 301.947 380.252 302.644 373.862 304.155C360.734 307.175 348.419 312.868 337.034 319.839C327.042 325.996 317.516 332.851 308.57 340.518C303.574 344.701 298.695 349.116 294.164 353.763L293.467 354.46L298.695 353.763L284.056 337.846L260.704 312.519L255.36 306.71C254.315 305.549 251.062 306.478 250.132 307.408L234.099 323.44L213.884 343.771C213.42 344.236 212.839 344.701 212.723 345.282C212.723 345.746 212.723 346.211 212.839 346.676C213.187 349.58 213.768 352.485 214.349 355.273C216.905 366.659 221.088 377.695 226.78 387.919C234.913 402.79 246.066 415.802 259.659 425.91C263.26 428.698 266.862 431.486 270.696 434.042C278.944 439.619 287.658 444.498 296.72 448.564C309.151 454.257 322.395 458.439 335.872 460.879C352.137 463.9 368.75 464.016 385.131 461.344C404.533 457.975 423.006 450.888 439.619 440.316C444.266 437.411 448.797 434.274 453.096 430.905C453.909 430.208 453.909 429.627 452.747 429.279C451.353 429.046 449.959 429.279 448.681 429.976C436.018 439.851 421.844 447.751 406.857 453.328C394.31 457.742 381.065 460.298 367.705 460.647C345.515 461.228 323.441 456 303.226 447.054C291.143 441.826 279.758 435.204 269.185 427.187C263.725 423.121 258.497 418.823 253.501 414.292C244.556 405.578 237.12 395.471 231.311 384.434C224.921 372.119 219.926 358.294 218.415 344.468C218.415 344.236 218.415 344.004 218.415 343.888L218.183 344.468L230.73 331.921L250.713 311.822L255.36 307.175L250.132 307.872L264.771 323.789L288.122 349.116L293.467 354.925C294.512 356.086 297.765 355.157 298.695 354.227C305.433 347.257 312.636 340.867 320.304 334.942C335.059 323.324 351.44 312.752 369.564 307.291C379.323 304.387 389.43 303.109 399.77 305.433L398.957 305.084C398.84 304.735 399.073 305.316 398.957 305.084C399.073 305.316 399.189 305.549 399.305 305.665L400.583 307.988C402.093 310.777 403.72 313.565 405.23 316.353C410.226 325.531 415.105 334.826 419.869 344.12C425.678 355.505 431.254 367.007 436.366 378.625C441.129 388.849 445.079 399.537 448.332 410.342C449.494 414.176 450.308 418.126 450.656 422.192C450.772 424.748 450.772 427.304 449.378 429.511C449.262 429.743 449.61 429.279 449.378 429.511C449.262 429.627 449.262 429.743 449.146 429.743C449.03 429.743 448.797 430.092 448.565 430.208C447.519 431.021 449.262 431.486 449.843 431.486C451.121 432.067 452.399 431.718 453.444 430.905Z" fill="#262626"/>
<path d="M351.092 248.505C351.092 248.505 348.653 250.829 350.976 252.92C353.3 255.011 355.972 252.223 354.578 249.667C354.113 248.389 352.719 247.808 351.441 248.273C351.325 248.389 351.208 248.389 351.092 248.505Z" fill="#262626"/>
<path d="M351.556 240.837C348.187 239.443 346.793 236.539 347.025 232.937C347.374 228.29 350.859 223.991 354.577 221.435C358.527 218.763 363.755 218.647 368.17 220.274C372.933 221.9 376.883 225.269 380.601 228.522C381.414 229.219 381.879 228.639 381.647 227.709C381.182 226.431 380.369 225.269 379.207 224.34C372.585 218.647 364.22 212.374 354.926 214.929C350.627 216.091 347.258 219.577 345.05 223.294C342.959 226.78 342.727 231.078 344.237 234.796C345.864 239.211 349.233 243.393 353.648 245.368C354.809 245.833 354.345 244.323 354.112 243.742C353.648 242.696 352.718 241.534 351.556 240.837Z" fill="#262626"/>
<path d="M335.291 235.028C335.639 230.73 337.614 226.78 340.867 223.875C344.353 221.087 348.535 219.46 353.066 219.344C357.481 219.112 362.012 219.46 366.427 220.506C370.144 221.436 374.327 222.83 376.65 225.967C377.464 227.012 378.858 228.058 380.252 227.244C381.414 226.315 381.646 224.689 380.833 223.527C375.721 216.788 367.356 214.697 359.224 214C350.859 213.303 341.913 214.465 335.872 220.971C332.735 224.34 330.76 228.755 330.295 233.402C330.179 234.912 330.992 236.306 332.386 236.887C333.548 237.352 334.826 236.771 335.175 235.609C335.291 235.377 335.291 235.261 335.291 235.028Z" fill="#262626"/>
<path d="M372.119 270.928C372.119 270.928 377.347 256.986 385.944 265.119C394.542 273.251 383.04 286.379 373.629 286.728" fill="white"/>
<path d="M374.327 272.787C374.908 271.392 375.605 269.998 376.418 268.836C376.65 268.604 376.766 268.372 376.999 268.023L377.347 267.559C377.812 267.094 378.277 266.629 378.741 266.164C378.974 265.932 379.206 265.816 379.439 265.7C378.974 265.932 379.787 265.583 379.903 265.467C380.019 265.351 380.484 265.351 380.716 265.235C381.297 265.119 380.252 265.235 380.833 265.235H381.414C381.646 265.235 381.762 265.235 381.994 265.235C381.53 265.119 381.994 265.235 382.111 265.235L382.575 265.351C383.156 265.467 382.227 265.119 382.808 265.467L383.272 265.7C383.272 265.7 383.969 266.164 383.505 265.816C383.969 266.164 384.434 266.513 384.783 266.861C384.434 266.513 384.783 266.861 384.899 266.978L385.364 267.442C385.945 268.023 385.131 266.978 385.48 267.675C385.596 267.791 385.596 267.907 385.712 268.139C385.944 268.604 386.177 269.185 386.293 269.766C386.409 271.276 386.177 272.787 385.596 274.181C384.899 275.807 383.969 277.201 382.808 278.479C381.414 279.99 379.787 281.268 378.044 282.313C377.115 282.778 376.186 283.243 375.14 283.475C374.327 283.707 373.397 283.94 372.468 283.94C369.215 284.056 371.655 289.168 374.094 289.052C382.459 288.703 391.289 280.687 391.056 271.973C390.94 266.861 386.99 262.214 382.343 260.355C379.09 259.194 375.372 260.239 373.281 262.911C371.771 264.654 370.493 266.629 369.68 268.836C369.215 270.231 369.796 271.625 370.841 272.438C371.771 273.251 373.746 273.948 374.327 272.787Z" fill="#262626"/>
<path d="M348.421 279.06C352.022 280.338 355.856 278.479 357.25 274.994C357.25 274.878 357.367 274.878 357.367 274.762C357.715 273.6 357.831 272.438 357.715 271.276C357.599 270.114 356.669 269.185 355.508 269.185C354.462 269.069 353.649 269.882 353.533 270.928C353.533 271.044 353.533 271.044 353.533 271.16C353.533 271.625 353.533 272.089 353.533 272.554V272.089C353.533 272.67 353.3 273.251 353.184 273.832L353.416 273.367C353.184 273.832 352.952 274.297 352.603 274.762L352.952 274.413C352.603 274.762 352.255 275.11 351.906 275.459L352.371 275.226C352.022 275.459 351.674 275.691 351.209 275.807L351.674 275.691C351.441 275.807 351.209 275.807 350.861 275.923H350.512C351.325 275.807 350.861 275.923 350.628 275.923H350.28H350.047C349.699 275.923 350.628 276.039 350.28 275.923C350.047 275.923 349.815 275.807 349.583 275.691C348.537 275.342 347.491 275.807 347.143 276.853V276.969C346.678 277.666 347.375 278.712 348.421 279.06Z" fill="#262626"/>
<path d="M377.35 288.471C377.35 288.471 377.814 325.067 400.353 335.058C422.892 345.05 442.874 330.527 432.883 298.462C422.892 266.397 377.35 288.471 377.35 288.471Z" fill="#262626"/>
<path d="M373.861 285.915C372.583 294.628 372.119 303.458 372.583 312.287C373.048 319.955 375.72 327.507 382.807 331.34C383.853 331.921 385.595 332.618 386.757 332.154C387.919 331.689 386.873 330.876 386.176 330.527C379.786 327.042 378.276 318.677 378.044 312.171C377.811 304.039 378.276 295.79 379.438 287.657C379.554 286.031 373.978 284.637 373.861 285.915Z" fill="#262626"/>
<path d="M422.542 79.3503C405.696 76.562 389.779 88.1798 386.875 105.374C385.365 114.088 387.572 122.917 392.916 129.888L383.041 142.087L400.235 136.742C403.837 139.182 407.903 140.809 412.202 141.506C429.048 144.294 444.964 132.56 447.869 115.366C450.773 98.1712 439.388 82.1385 422.542 79.3503Z" fill="#262626"/>
<path d="M421.611 76.9106C412.084 75.4003 402.325 78.3047 395.122 84.6946C387.454 91.7814 383.504 102.005 384.434 112.461C385.131 119.2 387.687 125.589 391.753 130.934L391.172 127.681L381.297 139.879C380.135 141.273 382.691 145.224 384.55 144.643L401.744 139.298L400.234 138.834C407.321 143.597 416.15 145.456 424.631 143.946C431.835 142.551 438.224 138.601 442.988 133.025C453.095 120.71 452.747 103.051 443.336 90.3873C437.992 83.3004 430.208 78.4209 421.611 76.9106C420.333 76.6783 420.333 78.0724 420.681 79.0018C421.146 80.2798 422.192 81.3254 423.586 81.7901C432.183 83.1842 439.618 88.6446 443.569 96.4286C447.402 104.793 447.17 114.552 442.988 122.801C438.921 130.934 431.37 136.742 422.54 138.834C417.777 139.879 412.781 139.763 408.134 138.485C405.462 137.672 402.906 136.51 400.466 135C399.769 134.419 398.724 134.419 397.91 134.884L381.762 139.879L385.015 144.643L394.89 132.444C395.703 131.514 394.89 130.12 394.309 129.191C388.151 120.942 387.222 109.789 391.056 100.495C394.309 92.4785 400.815 86.3211 408.947 83.3004C413.595 81.6739 418.706 81.2092 423.586 81.9063C424.864 82.1386 424.864 80.7445 424.515 79.8151C423.934 78.4209 422.889 77.2591 421.611 76.9106Z" fill="#262626"/>
<path d="M415.803 102.47C415.803 102.47 414.409 93.8725 413.363 93.524C412.318 93.1754 409.994 92.8269 408.949 93.4078C407.903 93.9887 403.488 96.4284 405.928 106.42C408.368 116.411 416.965 123.963 423.122 125.357C429.28 126.751 432.068 121.639 431.836 120.594C431.603 119.548 426.027 114.552 425.097 114.785C423.355 115.598 421.728 116.411 420.218 117.341C420.218 117.341 413.48 110.137 412.318 107.465C411.156 104.793 416.036 103.515 415.803 102.47Z" fill="white"/>
<path d="M418.707 102.353C418.359 100.03 417.894 97.7062 417.197 95.3827C416.965 94.4532 416.616 93.4076 415.687 93.1753C413.247 92.4782 410.691 92.362 408.135 92.8267C401.745 93.8723 401.745 101.656 402.907 106.652C404.766 114.552 410.807 122.104 418.359 125.124C422.193 126.635 427.537 126.983 431.255 125.008C432.533 124.311 435.437 121.988 434.508 120.245C433.694 118.967 432.533 117.921 431.371 116.992C430.325 115.946 429.163 115.133 427.769 114.552C423.935 113.39 420.566 115.598 417.313 117.457L422.89 117.224C420.566 114.784 418.475 112.229 416.5 109.556C415.571 108.278 414.293 106.652 415.571 105.258C416.152 104.328 418.707 103.515 418.707 102.353C418.707 101.54 412.898 101.656 412.898 102.586C412.898 103.167 411.969 103.515 411.621 103.864C410.807 104.328 410.226 104.909 409.646 105.606C408.6 107.233 409.878 108.743 410.807 110.021C412.782 112.693 414.99 115.249 417.313 117.689C417.778 118.154 419.521 118.037 420.102 118.037C421.031 118.037 421.96 117.921 422.89 117.573C424.284 116.527 425.91 115.714 427.537 115.133L425.794 115.482H425.91H423.006C422.309 115.365 423.238 115.714 423.471 115.83C423.935 116.062 424.284 116.411 424.633 116.759C425.562 117.573 426.491 118.386 427.421 119.199C428.583 120.361 429.28 120.942 428.35 122.452C427.886 123.265 427.188 123.963 426.375 124.543C425.91 124.776 425.446 125.008 425.097 125.241C424.516 125.589 424.865 124.66 426.027 125.241C425.678 125.124 425.213 125.008 424.865 125.008C422.425 124.195 420.102 122.917 418.127 121.174C412.898 116.876 409.413 110.834 408.368 104.212C407.903 101.656 408.135 99.1004 409.065 96.6606C409.646 95.615 410.459 94.6856 411.504 93.8723L411.737 93.7562C411.737 93.7562 409.065 93.64 410.226 93.9885C410.807 94.1047 410.807 94.1047 411.04 94.4532C411.504 95.3827 411.853 96.4283 411.969 97.4739C412.434 99.2166 412.782 101.075 413.015 102.818C413.015 103.515 418.824 102.934 418.707 102.353Z" fill="white"/>
<path d="M168.343 244.208C152.078 231.312 135.116 218.532 115.598 210.864C98.9843 204.358 80.512 202.151 63.2014 207.495C55.0689 209.935 47.6335 214.117 41.476 219.926C35.0862 226.084 29.1611 235.727 33.1112 244.672C35.0862 248.739 38.3392 252.108 42.4054 254.315C45.8908 256.29 50.6541 258.033 54.7203 256.755C58.7866 255.477 58.6704 250.133 56.8116 247.112C54.3718 243.394 50.7703 240.722 46.4717 239.444C37.6421 236.772 30.7876 244.091 27.3022 251.294C23.0036 259.892 20.9124 270.348 23.1198 279.874C23.7007 282.198 24.514 284.405 25.5596 286.613C26.3728 287.774 27.4184 288.588 28.6964 289.052C29.1611 289.285 30.6714 289.982 30.0905 288.82C26.1405 280.571 26.489 270.929 29.0449 262.331C31.2523 255.012 35.0862 246.183 42.754 243.162C45.0775 242.233 47.6335 242.116 49.957 242.93C50.1894 243.046 51.1188 243.511 51.0026 243.394C53.5586 245.137 53.7909 249.552 52.0482 251.875C49.957 254.664 44.1481 253.734 41.5922 252.108C39.0362 250.481 37.1774 246.88 36.8289 243.859C35.5509 235.262 41.5922 227.362 47.6335 221.901C53.4424 216.906 60.1807 213.072 67.5 210.864C82.7193 206.217 99.3328 207.263 114.204 212.491C131.398 218.416 146.501 228.988 160.791 240.141C162.65 241.535 164.393 242.93 166.135 244.324C166.6 244.788 168.575 246.415 169.388 245.95C170.202 245.486 168.808 244.44 168.343 244.208Z" fill="#262626"/>
<path d="M235.146 244.905C253.386 246.996 271.858 241.535 287.194 231.893C302.181 222.366 314.379 208.889 324.022 194.135C328.669 187.048 334.246 178.799 332.271 169.737C331.458 165.555 328.785 161.953 325.184 159.978C321.931 158.352 318.213 158.236 314.844 159.862C311.475 161.489 309.616 164.974 310.081 168.692C310.545 172.525 313.45 175.778 316.587 177.986C322.86 182.284 331.225 183.33 338.661 182.633C353.183 181.355 367.357 173.223 374.792 160.443C375.722 158.816 376.535 157.19 377.348 155.447C378.51 152.775 373.514 149.871 372.236 152.891C367.24 164.742 356.087 173.339 343.772 176.476C337.615 178.102 331.225 178.102 325.068 176.708C321.931 176.127 319.143 174.501 316.935 172.177C315.309 170.202 314.728 167.53 316.703 165.555C318.446 163.928 321.002 163.464 323.209 164.277C325.881 165.322 327.043 168.459 327.391 171.131C327.856 174.965 326.462 178.799 324.719 182.168C322.86 185.654 320.769 189.023 318.562 192.276C309.732 205.404 299.044 217.37 285.799 226.2C270.696 236.307 252.456 242 234.216 239.909C233.054 239.909 232.125 240.722 232.125 241.884C232.125 242.116 232.125 242.233 232.241 242.465C232.241 243.743 233.635 244.788 235.146 244.905Z" fill="#262626"/>
<path d="M9.17975 301.948H49.9584C53.6761 301.948 56.6967 304.969 56.6967 308.686V348.652C56.6967 352.369 53.6761 355.39 49.9584 355.39H9.17975C5.46204 355.39 2.44141 352.369 2.44141 348.652V308.686C2.44141 304.969 5.46204 301.948 9.17975 301.948Z" fill="#262626"/>
<path d="M48.6788 353.531H8.01631C6.73835 353.647 5.57656 352.718 5.34421 351.556C4.76331 349.813 4.99567 347.606 4.99567 345.863V312.404C4.99567 309.964 4.87949 307.408 6.85452 305.55C8.82956 303.691 10.9208 304.039 13.2443 304.039H50.1891C50.77 303.923 51.467 304.039 52.0479 304.155C54.1391 304.852 53.9068 308.105 53.9068 309.964V343.307C54.023 345.05 54.023 346.793 53.9068 348.536C53.6744 351.208 51.467 353.299 48.6788 353.531C47.517 353.531 47.0523 354.344 47.7493 355.39C48.5626 356.552 49.9567 357.249 51.3509 357.365C55.7656 357.481 59.3672 353.996 59.4833 349.581C59.4833 349.349 59.4833 349.233 59.4833 349V315.425C59.4833 313.566 59.4833 311.707 59.4833 309.732C59.3672 304.155 53.9068 300.089 48.5626 300.089C41.9404 300.089 35.3182 300.089 28.5799 300.089C21.8415 300.089 15.1032 300.089 8.36484 300.089C3.83388 300.089 0.116178 303.11 0 307.757C0 309.732 0 311.823 0 313.798V339.357C0 342.03 0 344.585 0 347.258C0 352.602 4.64714 356.784 9.87517 357.249C11.734 357.481 13.7091 357.249 15.5679 357.249H51.2347C52.3965 357.249 52.8612 356.436 52.1641 355.39C51.3509 354.228 50.0729 353.531 48.6788 353.531Z" fill="#262626"/>
<path d="M27.3041 327.972H21.6113V333.897H27.3041V357.016L35.9013 356.9V333.316H41.8264V327.972L35.4366 326.81C35.4366 326.81 32.7645 316.702 41.8264 319.955V314.263C41.8264 314.379 25.6776 310.196 27.3041 327.972Z" fill="white"/>
</svg>
