<svg width="644" height="592" viewBox="0 0 644 592" fill="none" xmlns="http://www.w3.org/2000/svg">
<path d="M486.703 192.056C530.988 188.936 564.482 152.267 561.515 110.154C558.548 68.0413 520.243 36.4314 475.958 39.5514C431.674 42.6715 398.18 79.34 401.147 121.453C404.114 163.566 442.419 195.176 486.703 192.056Z" fill="white"/>
<path d="M408.14 121.302C407.155 105.675 411.097 90.1896 419.403 76.8156C427.709 63.7231 439.816 53.3054 453.894 47.1111C455.442 46.4072 457.132 45.7033 458.821 45.1402C460.933 44.2955 462.34 43.8732 464.171 43.4509C466.001 43.0285 467.972 42.4654 469.942 42.0431C471.491 41.7615 468.816 42.1838 470.506 41.9023L471.913 41.6207C473.04 41.4799 474.166 41.3392 475.433 41.1984C473.744 41.48 475.433 41.1984 475.714 41.1984L477.263 41.0576L478.812 40.9168C479.234 40.9168 480.782 40.4945 478.952 40.9168C479.938 40.7761 480.923 40.7761 481.909 40.9168C482.331 40.9168 484.02 40.7761 482.05 40.9168C482.753 40.9168 483.317 40.9168 484.02 40.9168L485.569 41.0576C485.851 41.0576 487.54 41.1984 485.851 41.0576C486.836 41.1984 487.821 41.1984 488.807 41.3392C489.792 41.48 490.778 41.6207 491.763 41.7615L492.326 41.9023L494.297 42.3246C509.361 45.5625 523.157 53.1646 533.856 64.1454C556.24 86.9517 561.308 121.724 546.245 149.88C538.924 163.395 527.944 174.376 514.429 181.696C507.531 185.497 500.069 188.172 492.326 189.58L491.763 189.721L490.355 190.002C489.37 190.143 488.385 190.284 487.399 190.425C489.088 190.284 487.399 190.425 487.118 190.425L485.569 190.565L484.02 190.706H483.035H483.317H480.36C478.671 190.706 481.909 190.706 480.219 190.706H478.671L477.122 190.565C476.841 190.565 475.151 190.424 476.841 190.565C475.714 190.424 474.588 190.284 473.462 190.143L472.054 190.002C471.913 190.002 470.365 189.721 471.491 189.861C470.506 189.721 469.52 189.58 468.675 189.298C467.831 189.017 466.845 188.876 465.86 188.594L464.874 188.313L463.607 188.031C459.806 186.905 456.146 185.497 452.486 183.949C445.447 180.711 439.112 176.628 433.34 171.56C421.655 161.424 413.49 147.768 409.97 132.705C408.985 128.904 408.422 125.103 408.14 121.302C408.14 119.472 402.228 119.612 401.242 119.753C400.398 119.753 394.062 119.753 394.203 121.443C395.47 137.773 401.946 153.259 412.786 165.507C423.908 177.895 438.549 186.623 454.738 190.706C474.025 195.633 494.438 194.929 513.443 188.735C529.211 183.667 543.007 173.953 553.143 160.861C563.138 148.05 568.629 132.423 568.91 116.234C569.051 99.7626 563.842 83.7137 553.847 70.4805C543.852 57.388 530.055 47.6742 514.429 42.6062C495.564 36.5527 475.292 35.8488 456.146 40.7761C439.816 44.7179 424.893 53.587 413.49 65.9756C402.65 77.9418 395.893 93.146 394.203 109.336C393.781 113.418 393.781 117.501 394.062 121.443C394.203 123.132 399.975 122.991 401.101 122.991C401.946 123.132 408.14 122.991 408.14 121.302Z" fill="#262626"/>
<path d="M475.574 89.7673C477.122 97.2286 476.277 104.831 475.01 112.151C474.588 115.53 473.884 118.768 472.758 122.006C472.336 123.414 471.491 124.681 470.224 125.525C469.942 125.666 469.802 125.807 469.52 125.948C469.52 125.948 470.646 125.666 470.224 125.807C470.505 125.666 470.505 126.088 470.224 125.666C469.942 125.244 469.661 125.244 469.52 124.962C467.971 123.132 468.957 120.035 470.646 118.627C472.617 116.938 475.855 117.923 478.248 118.205C485.428 119.472 492.326 121.443 499.084 124.117C506.827 127.074 514.147 130.593 521.608 133.972C523.157 134.535 524.846 134.535 526.395 133.972C527.099 133.69 528.929 132.564 527.521 132.001C519.215 128.059 510.909 124.258 502.322 121.02C493.734 117.782 484.865 115.108 475.855 114.685C471.913 114.544 466.986 114.967 464.03 117.923C461.918 119.894 460.792 123.554 462.622 126.088C464.874 129.326 470.224 128.904 473.462 127.778C477.263 126.37 479.234 123.414 480.219 119.613C481.486 114.685 482.331 109.758 482.894 104.69C483.598 99.4811 483.457 94.1315 482.472 88.9226C482.049 86.9517 475.151 87.9372 475.574 89.7673Z" fill="#F5EE30"/>
<path d="M487.117 176.769L486.554 169.167L487.117 176.769Z" fill="white"/>
<path d="M490.494 175.783L489.931 168.181C489.931 167.618 488.946 167.337 488.523 167.337C487.679 167.196 486.834 167.337 485.989 167.618C485.144 167.9 484.441 168.322 483.737 168.885L483.314 169.448C483.174 169.73 483.033 170.152 483.174 170.434L483.737 178.036C483.737 178.599 484.722 178.881 485.144 178.881C485.989 179.021 486.834 178.881 487.679 178.599C488.523 178.317 489.227 177.895 489.931 177.332L490.353 176.769C490.494 176.487 490.635 176.065 490.494 175.783Z" fill="#262626"/>
<path d="M477.122 66.6793L476.418 58.0918L477.122 66.6793Z" fill="white"/>
<path d="M480.502 66.1159L479.939 57.5284C479.939 57.1061 479.095 56.9653 478.813 56.8245C477.124 56.6837 475.434 56.9653 473.886 57.6692C473.604 57.9507 473.041 58.2323 473.041 58.6546L473.604 67.2422C473.604 67.6645 474.449 67.8053 474.73 67.9461C476.42 68.0869 478.109 67.8053 479.658 67.1014C480.08 66.9606 480.643 66.6791 480.502 66.1159Z" fill="#262626"/>
<path d="M428.553 122.569L421.373 123.132L428.553 122.569Z" fill="white"/>
<path d="M427.146 120.739L419.966 121.302C419.262 121.302 418.699 121.584 418.136 122.147C417.854 122.569 417.854 123.132 418.276 123.554C419.543 124.681 421.233 125.244 422.922 125.103L430.102 124.54C430.806 124.54 431.369 124.258 431.932 123.695C432.214 123.273 432.214 122.71 431.791 122.287C430.524 121.02 428.835 120.457 427.146 120.739Z" fill="#262626"/>
<path d="M547.371 109.195L540.613 109.617L547.371 109.195Z" fill="white"/>
<path d="M544.697 107.928L537.94 108.35C537.658 108.35 537.236 108.491 537.377 108.773C537.517 109.054 538.503 109.617 538.784 109.758C539.629 110.18 540.474 110.462 541.318 110.743C542.022 110.884 542.726 111.025 543.43 111.025L550.188 110.603C550.469 110.603 550.891 110.462 550.751 110.18C550.61 109.899 549.624 109.336 549.343 109.195C548.498 108.773 547.654 108.491 546.809 108.209C546.105 108.069 545.401 107.928 544.697 107.928Z" fill="#262626"/>
<path d="M536.111 45.8442C545.261 48.3782 553.567 53.4463 559.903 60.626C560.184 61.0484 562.014 63.4416 562.859 62.8785C563.704 62.3154 561.592 59.9221 561.451 59.4998C553.99 50.2084 543.854 43.5917 532.31 40.213C531.184 39.9315 532.873 42.747 533.014 42.8878C533.577 44.1548 534.703 45.2811 536.111 45.8442Z" fill="#F5EE30"/>
<path d="M564.124 50.7715L565.25 51.6161L564.828 51.3346C567.502 53.4463 569.896 55.8395 572.007 58.3735C572.57 58.7959 573.134 59.0774 573.837 59.0774C574.823 59.0774 575.668 58.9367 576.512 58.6551C577.216 58.3735 577.92 57.9512 578.342 57.3881C578.624 56.9658 578.624 56.4026 578.342 55.8395C575.808 52.7424 572.852 50.0676 569.755 47.6743C569.051 47.3928 568.206 47.252 567.502 47.3928C566.658 47.3928 565.672 47.6743 564.968 48.2374C564.405 48.519 563.701 49.0821 563.701 49.6452C563.42 50.0676 563.561 50.4899 564.124 50.7715Z" fill="#F5EE30"/>
<path d="M399.834 70.1986C399.975 69.7763 400.256 69.2132 400.538 68.7908C400.679 68.5093 400.819 68.3685 401.101 67.8054C401.664 66.8199 402.227 65.8345 402.79 64.9898C403.353 64.1451 403.917 63.1597 404.48 62.315C404.761 61.8926 405.184 61.3295 405.606 60.9072C405.747 60.7664 405.887 60.6256 406.028 60.4848C405.606 60.9072 406.31 60.2033 406.31 60.2033C407.718 58.5139 409.125 57.1061 410.815 55.6983L412.082 54.7129L412.363 54.4313C412.504 54.2906 412.786 54.1498 413.067 54.009C413.912 53.3051 414.897 52.742 415.883 52.1789C417.291 51.3342 418.135 49.5041 417.15 48.0963C415.883 46.8292 413.912 46.6885 412.363 47.6739C403.917 52.742 397.441 60.4849 393.64 69.4947C392.936 71.0433 394.625 72.5919 396.033 72.7326C397.441 72.8734 399.13 71.7472 399.834 70.1986Z" fill="#F5EE30"/>
<path d="M407.717 45.4213L407.858 45.2806L407.295 45.8437C409.547 43.732 411.941 41.7611 414.475 40.2125C415.038 39.7902 415.46 38.9455 415.46 38.2416C415.46 37.3969 415.179 36.4115 414.756 35.7076C413.912 34.159 411.941 33.7367 410.392 34.4405C407.436 36.2707 404.761 38.3824 402.368 40.7756C401.945 41.4795 401.805 42.3242 401.945 43.0281C402.086 44.0135 402.649 44.7174 403.353 45.4213C403.916 45.9845 404.761 46.4068 405.606 46.4068L406.31 46.266C407.013 46.1252 407.436 45.8437 407.717 45.4213Z" fill="#F5EE30"/>
<path d="M184.863 349.224C184.863 349.224 147.557 351.195 143.755 335.568C139.954 319.942 162.761 326.84 162.761 326.84C162.761 326.84 140.095 292.771 177.965 292.63C177.965 292.63 150.372 265.319 177.824 247.44C205.276 229.561 251.452 250.397 251.452 250.397C251.452 250.397 254.83 217.454 291.996 227.027C329.162 236.6 317.055 255.042 317.055 255.042C317.055 255.042 340.847 260.955 339.861 272.358C338.876 283.761 320.152 285.591 320.152 285.591C320.152 285.591 308.749 316.985 276.51 307.412L238.922 343.452C238.922 343.452 248.073 359.923 233.713 373.297C219.354 386.671 180.217 370.059 184.863 349.224Z" fill="#262626"/>
<path d="M184.018 346.408C183.174 346.408 182.329 346.408 181.484 346.408H178.669H177.12H176.557H175.853C172.897 346.267 170.081 345.986 167.125 345.704C165.576 345.564 164.028 345.282 162.479 345L160.227 344.578L159.664 344.437C159.804 344.437 160.227 344.578 159.804 344.437L158.537 344.015C157.129 343.593 155.722 343.17 154.314 342.466L153.469 342.044C152.906 341.762 153.751 342.185 153.047 341.762C152.343 341.34 151.78 341.059 151.217 340.636L150.372 340.073C149.809 339.651 150.654 340.355 150.231 339.932C149.668 339.51 149.246 339.088 148.824 338.525C148.401 338.102 148.964 338.806 148.542 338.243C148.401 337.961 148.26 337.821 148.12 337.539C147.979 337.257 147.838 336.976 147.697 336.694C147.979 337.117 147.556 336.413 147.556 336.272C147.134 335.005 146.853 333.738 146.853 332.33C146.853 331.908 146.853 331.486 146.993 330.922C147.134 330.641 147.134 330.359 147.275 330.078C147.416 329.796 146.993 330.219 147.416 329.796C147.556 329.655 147.697 329.374 147.979 329.233C148.26 329.092 147.697 329.374 148.12 329.092L148.824 328.67C147.697 329.374 147.275 330.782 147.979 331.908C148.683 333.034 150.091 333.456 151.217 332.753C152.343 332.049 152.765 330.641 152.061 329.515C151.498 328.529 150.091 328.107 148.964 328.529C149.527 328.248 150.091 328.107 150.513 327.966C151.076 327.825 150.091 327.966 150.654 327.966C150.935 327.966 151.358 327.825 151.639 327.825C152.343 327.825 152.906 327.685 153.61 327.685C153.892 327.685 154.595 327.685 153.892 327.685H155.018C156.285 327.825 157.411 327.966 158.678 328.248L160.227 328.529C160.649 328.67 161.775 328.952 160.649 328.67C160.931 328.811 161.353 328.811 161.775 328.952C162.901 329.374 164.309 329.233 165.295 328.529C166.139 327.685 166.28 326.417 165.576 325.573C164.872 324.587 164.309 323.461 163.746 322.335C163.465 321.772 163.183 321.349 162.901 320.786C162.761 320.646 162.338 319.66 162.761 320.505L162.198 319.379C161.634 317.971 161.071 316.563 160.649 315.155C159.523 312.34 159.1 309.242 159.382 306.145C159.382 305.723 159.523 305.441 159.523 305.019C159.382 305.723 159.664 304.597 159.664 304.456C159.804 303.752 160.086 303.048 160.508 302.344C160.649 302.203 160.649 301.922 160.79 301.781C160.508 302.203 160.79 301.922 160.79 301.781C161.071 301.359 161.212 301.077 161.494 300.796C161.775 300.514 162.057 300.233 162.338 299.951L162.761 299.529L163.183 299.247C167.547 296.009 173.178 295.446 178.81 295.446C180.217 295.446 181.344 294.32 181.344 293.053C181.344 292.349 181.062 291.504 180.499 291.082C180.217 290.8 179.936 290.519 179.654 290.096C179.373 289.674 179.091 289.393 178.81 289.111C178.669 288.97 178.106 288.266 178.387 288.689C178.669 289.111 177.965 288.126 177.824 287.985C175.572 285.169 173.601 282.072 172.052 278.693C170.363 275.033 169.377 271.091 169.377 267.149C169.518 262.363 171.489 257.858 174.868 254.338C182.47 246.314 193.873 243.358 204.572 243.076C209.922 242.935 215.412 243.358 220.621 244.202C230.898 245.892 241.034 248.848 250.748 252.931C252.156 253.775 253.986 253.212 254.83 251.664C254.971 251.382 255.112 251.101 255.112 250.819C255.112 250.537 255.112 250.397 255.253 250.115C255.393 249.411 255.112 250.96 255.253 249.974L255.534 248.707C256.097 246.596 256.66 244.625 257.505 242.654C259.758 237.163 263.981 232.658 269.331 230.124C278.763 226.042 289.884 228.435 299.457 231.955C303.822 233.362 308.045 235.756 311.564 238.712C311.846 238.994 312.128 239.275 312.55 239.697C312.972 240.12 313.395 240.824 312.972 240.261C313.395 240.824 313.958 241.528 314.239 242.231C314.38 242.513 314.662 242.935 314.802 243.217C314.521 242.654 314.802 243.358 314.943 243.498C315.225 244.062 315.365 244.765 315.506 245.329C315.506 245.469 315.506 245.61 315.647 245.751C315.647 245.188 315.788 246.314 315.647 245.751C315.647 246.033 315.647 246.314 315.788 246.596C315.788 247.159 315.788 247.722 315.788 248.285C315.788 248.567 315.788 248.848 315.647 249.13C315.506 249.974 315.647 249.13 315.647 249.27C315.506 249.693 315.506 250.256 315.365 250.678C315.084 251.382 314.943 252.086 314.521 252.649C314.38 252.79 314.38 253.071 314.239 253.212C314.521 252.368 314.662 252.508 314.38 252.79C312.831 255.042 315.225 256.873 317.336 257.436C315.225 256.873 317.899 257.576 318.463 257.717C320.011 258.14 321.56 258.703 323.108 259.266C324.938 259.97 326.628 260.674 328.317 261.518C329.162 262.081 330.147 262.504 330.992 263.067C331.837 263.63 332.541 264.193 333.244 264.756C333.667 265.038 333.948 265.46 334.371 265.742L334.934 266.305C335.075 266.445 335.497 266.868 335.075 266.446C335.356 266.727 335.497 267.149 335.778 267.431C335.919 267.572 336.06 267.853 336.201 268.135C336.342 268.276 336.342 268.416 336.201 268.135C336.201 268.276 336.342 268.416 336.342 268.557C337.045 270.247 336.905 272.077 336.201 273.766C334.793 277.286 330.851 279.397 327.472 280.523C325.642 281.227 323.671 281.65 321.701 282.072C322.545 281.931 321.419 282.072 321.137 282.213L320.293 282.354L319.589 282.494C318.603 282.494 317.618 283.057 317.196 284.043C316.773 285.31 316.21 286.436 315.647 287.562C315.506 287.844 315.365 288.126 315.225 288.266C315.084 288.407 314.662 289.252 314.943 288.689C314.521 289.393 314.098 290.096 313.676 290.8C312.691 292.208 311.705 293.616 310.579 294.883C305.229 301.64 297.064 305.723 288.336 306.004C285.379 306.004 282.423 305.723 279.608 305.019C277.355 304.456 275.525 303.752 273.695 305.441C272.146 306.99 270.457 308.539 268.908 310.087L249.762 328.529L235.966 341.762C235.262 342.607 235.262 343.733 235.966 344.578L236.107 344.86C236.388 345.563 235.825 344.296 236.107 345C236.388 345.704 236.811 346.69 237.092 347.675C237.937 350.35 238.359 353.306 238.359 356.122C238.218 359.923 237.092 363.724 234.98 366.962C233.713 368.792 232.306 370.481 230.616 371.889C230.053 372.312 229.49 372.734 228.927 373.015L228.082 373.438C227.941 373.438 227.238 373.86 227.519 373.719C224.985 374.846 222.31 375.409 219.636 375.409C216.679 375.409 213.582 375.127 210.626 374.423C210.344 374.282 210.063 374.282 209.922 374.282L208.795 374.001C207.951 373.719 207.247 373.438 206.402 373.156C204.994 372.593 203.587 372.03 202.32 371.326C200.912 370.622 199.504 369.778 198.096 368.792C196.829 367.947 195.703 367.103 194.718 366.117C190.213 362.035 186.834 356.544 188.101 350.491C188.382 348.801 187.397 347.253 185.708 346.831C184.441 346.408 181.907 346.408 181.484 348.238C178.246 363.583 193.873 374.986 206.684 379.069C213.723 381.321 221.606 382.166 228.786 379.914C236.951 377.38 243.005 369.496 244.694 361.19C245.961 354.855 244.835 348.379 241.879 342.748V345.563L274.68 314.029L279.326 309.524L275.525 310.228C286.224 313.325 297.486 313.043 307.059 307.131C313.113 303.048 318.181 297.558 321.419 291.082C322.123 289.815 322.827 288.407 323.39 286.999L320.997 288.548C328.458 287.844 338.031 284.888 341.832 277.989C347.745 267.29 335.075 259.266 326.769 255.746C323.671 254.479 320.293 253.353 317.055 252.508L320.011 257.154C321.841 254.338 322.545 250.96 322.264 247.581C321.419 238.994 313.958 233.222 306.637 229.702C300.161 226.605 293.122 224.352 285.943 223.226C280.452 222.382 274.962 222.522 269.471 223.789C261.869 225.901 255.534 230.969 251.874 237.867C249.762 241.668 248.355 245.892 247.791 250.115L252.156 248.003C247.369 245.892 242.583 244.202 237.514 242.795C226.956 239.557 215.975 237.727 204.854 237.586C193.028 237.586 180.358 240.401 171.207 248.285C166.702 251.945 163.605 257.013 162.479 262.644C161.775 267.431 162.198 272.358 164.028 276.863C166.562 283.48 170.363 289.393 175.431 294.461L176.979 290.096C167.829 290.237 155.44 292.49 153.047 303.048C151.498 310.087 154.173 317.408 157.27 323.602C157.974 325.15 158.819 326.558 159.804 327.966L163.746 324.447C155.862 322.053 138.969 320.223 139.954 332.893C141.081 347.816 160.508 351.054 172.334 351.899C176.839 352.321 181.344 352.321 185.708 352.18C187.115 352.18 188.242 351.195 188.242 349.787C188.242 349.505 188.242 349.365 188.101 349.083C187.538 347.394 185.848 346.408 184.018 346.408Z" fill="#262626"/>
<path d="M311.987 394.414C335.92 368.51 316.633 290.941 316.633 290.941C289.885 293.334 250.748 262.504 250.748 262.504C260.743 288.407 232.869 330.782 232.869 330.782C224.563 307.694 200.771 306.004 200.771 328.107C200.771 350.209 221.607 354.01 221.607 354.01C221.607 354.01 204.432 422.288 205.84 431.157C207.247 440.026 256.239 454.949 273.695 413.701C273.695 413.56 291.011 417.079 311.987 394.414Z" fill="white"/>
<path d="M314.38 395.822C325.783 383.292 327.332 364.287 327.332 348.098C327.05 331.767 325.361 315.578 321.982 299.669C321.278 296.291 320.715 292.912 319.87 289.674C319.589 288.266 317.618 288.266 316.633 288.266C305.933 289.111 294.108 284.465 284.394 279.679C275.243 275.174 266.515 269.824 258.209 263.912C256.52 262.645 254.83 261.518 253.282 260.251C251.311 258.703 246.665 261.237 247.651 263.771C251.733 274.47 249.199 286.718 245.68 297.276C242.442 306.849 238.359 316 233.291 324.587C232.306 326.418 231.179 328.248 230.053 329.937L236.248 329.374C233.573 322.053 228.645 314.733 221.325 311.354C215.131 308.539 207.81 308.961 202.742 313.888C196.97 319.379 196.548 328.388 198.237 335.709C199.786 342.466 203.868 348.238 209.64 352.039C212.737 354.151 216.257 355.7 220.058 356.544L218.369 353.87C216.538 361.331 214.708 368.933 212.878 376.394C209.781 389.628 206.684 402.861 204.291 416.235C203.305 420.74 202.742 425.245 202.46 429.75C202.32 433.128 204.009 435.381 206.825 437.211C210.766 439.745 214.99 441.434 219.636 442.42C225.689 443.828 232.024 444.109 238.218 443.405C253.282 441.857 266.656 433.128 274.117 419.754C275.243 417.783 276.229 415.672 277.074 413.56L272.146 416.094C275.103 416.516 278.059 416.516 281.015 415.953C288.054 414.686 294.812 412.011 300.584 407.929C305.652 404.409 310.297 400.468 314.38 395.822C315.506 394.696 315.929 393.006 314.38 392.162C312.691 391.458 310.861 391.739 309.594 393.006C305.37 397.652 300.724 401.594 295.375 404.972C291.996 407.084 288.336 408.774 284.394 409.9C283.549 410.181 281.578 410.604 280.311 410.744C279.748 410.885 279.044 410.885 278.341 410.885C279.326 410.744 277.777 410.885 277.496 410.885C276.792 410.885 276.088 410.885 275.243 410.885C274.117 410.885 275.666 411.026 275.243 410.885C273.272 410.463 271.161 411.448 270.316 413.419C268.768 417.22 266.656 420.74 264.263 423.837C261.306 427.779 257.505 431.017 253.141 433.551L252.015 434.114L251.592 434.255C250.889 434.536 250.044 434.958 249.34 435.24C248.636 435.522 247.932 435.803 247.228 436.085L246.102 436.507C245.961 436.507 244.694 436.929 245.398 436.789C243.99 437.211 242.442 437.492 240.893 437.774C238.078 438.337 235.262 438.478 232.587 438.337C231.179 438.337 229.772 438.196 228.364 438.056L226.393 437.774C226.956 437.774 226.111 437.774 225.83 437.633L224.844 437.492C222.451 437.07 219.917 436.366 217.665 435.662L216.116 435.099C216.679 435.24 215.975 435.099 215.835 434.958L214.99 434.536C214.145 434.114 213.3 433.691 212.456 433.269C212.174 433.128 211.752 432.847 211.47 432.565L210.907 432.143C210.344 431.721 209.922 431.298 209.499 430.735C209.359 430.594 209.359 430.594 209.218 430.453C209.077 430.313 209.499 431.017 209.359 430.594C209.218 430.313 209.218 430.172 209.077 429.89C208.936 429.609 209.077 430.594 209.077 430.172C209.077 430.031 209.077 430.031 209.077 429.89C209.077 429.75 209.077 429.327 209.077 429.046C209.077 427.356 209.218 425.808 209.499 424.118C209.781 421.584 210.063 419.895 210.485 417.502C212.737 404.832 215.694 392.162 218.65 379.632C220.621 371.185 222.733 362.879 224.704 354.433C224.704 354.292 224.704 354.151 224.844 354.01C225.126 352.884 224.563 351.758 223.437 351.336H223.296C222.592 351.195 221.888 351.054 221.325 350.772L220.339 350.491L219.776 350.35C219.213 350.209 219.636 350.35 219.636 350.35C218.791 349.928 217.805 349.505 216.961 349.083C212.315 346.831 208.655 343.03 206.543 338.384C204.009 332.753 203.164 324.306 206.262 318.956C206.543 318.393 206.965 317.83 207.247 317.408L207.529 317.126L208.232 316.422C208.655 316 207.951 316.563 208.373 316.281L209.077 315.859C209.64 315.437 208.655 316 209.218 315.718L210.063 315.437C210.766 315.155 210.063 315.437 210.203 315.437L211.048 315.296C211.189 315.296 211.893 315.155 211.611 315.296C211.893 315.296 212.033 315.296 212.315 315.296H213.16C213.723 315.296 213.019 315.296 213.582 315.296C214.286 315.437 214.849 315.578 215.553 315.859C222.451 318.112 227.238 325.432 229.631 332.19C230.616 334.864 234.699 333.457 235.825 331.626C239.204 326.418 242.16 320.927 244.835 315.296C250.185 304.315 254.549 292.771 255.957 280.664C256.801 274.048 256.097 267.431 253.845 261.237L248.214 264.756C253 268.557 258.068 272.077 263.277 275.315C273.554 281.791 284.676 287.703 296.36 291.223C302.836 293.334 309.594 294.179 316.351 293.616L313.113 292.208C315.225 301.077 316.914 310.087 318.04 319.097C320.293 335.991 321.701 353.729 318.744 370.622C318.04 374.986 316.773 379.351 315.084 383.574C314.38 385.404 313.535 387.093 312.409 388.783C311.424 390.331 310.438 391.739 309.171 393.147C308.186 394.273 307.763 395.963 309.312 396.807C311.283 397.511 313.254 397.089 314.38 395.822Z" fill="#262626"/>
<path d="M260.462 358.093C260.603 357.108 260.603 356.122 260.462 355.137C260.039 352.884 258.772 350.913 256.942 349.646C255.394 348.52 253.564 347.816 251.733 347.253C251.029 347.112 250.185 347.253 249.481 347.535C248.636 347.816 247.792 348.379 247.228 349.083C246.665 349.505 246.384 350.209 246.384 350.913C246.525 351.476 246.947 351.899 247.369 352.039C247.932 352.18 248.495 352.321 249.059 352.603L248.495 352.462C249.903 353.025 251.311 353.87 252.437 354.855L252.015 354.433C252.86 355.277 253.564 356.404 253.845 357.53L253.986 356.826C254.267 357.811 254.408 358.797 254.267 359.782L254.408 359.219V359.501C254.267 360.064 254.408 360.627 254.831 360.909C255.394 361.19 256.098 361.19 256.801 361.049C257.646 360.768 258.491 360.345 259.195 359.782C259.758 359.36 260.321 358.797 260.462 358.093Z" fill="#262626"/>
<path d="M69.002 564.898C69.002 564.898 129.959 406.099 194.999 392.302C260.04 378.506 290.729 564.898 290.729 564.898" fill="#262626"/>
<path d="M71.9587 564.616C74.352 558.562 76.886 552.509 79.42 546.596C85.7551 532.096 92.5125 517.877 99.6922 503.799C108.561 486.202 118.557 469.308 129.397 452.978C139.955 437.351 151.499 422.57 165.718 410.322L166.844 409.336L167.407 408.773C166.844 409.196 167.266 408.914 167.407 408.773C168.252 408.069 169.096 407.365 169.941 406.802C171.49 405.535 173.179 404.409 174.868 403.283C175.713 402.72 176.417 402.297 177.262 401.734L178.529 400.89C177.825 401.312 179.092 400.608 179.233 400.467C180.922 399.623 182.471 398.778 184.301 397.933C185.145 397.511 185.99 397.229 186.835 396.807C186.975 396.666 187.257 396.666 187.539 396.525L188.806 396.103C190.495 395.54 192.184 395.118 194.014 394.695C194.155 394.695 195.281 394.414 194.578 394.554L195.563 394.414C196.267 394.273 197.112 394.273 197.815 394.132C198.519 393.991 199.223 393.991 199.927 393.991H201.194H201.617C213.583 394.836 223.578 402.438 231.321 411.448C241.457 423.273 248.778 437.492 254.972 451.57C261.729 467.197 267.36 483.245 272.006 499.576C276.089 513.654 279.608 527.732 282.705 542.091C284.395 549.693 285.943 557.436 287.21 565.038C287.21 565.32 287.351 565.742 287.351 566.024C287.773 568.98 293.968 565.742 293.545 563.067C292.701 557.577 291.575 551.946 290.448 546.455C287.633 533.081 284.536 519.848 281.016 506.615C276.652 490.003 271.302 473.673 265.108 457.764C259.054 442.56 252.156 427.497 242.583 414.123C235.122 403.705 225.408 393.71 212.879 389.909C198.942 385.826 184.582 391.88 173.038 399.341C157.553 409.477 144.882 423.837 133.902 438.478C121.795 454.808 110.814 472.124 101.241 490.003C92.7941 505.489 85.0512 521.256 77.7307 537.446C73.7889 546.033 70.1286 554.761 66.6091 563.49C66.4683 563.912 66.3275 564.334 66.1868 564.757C65.6236 566.165 66.3275 567.15 67.8761 567.15C69.5655 567.432 71.114 566.305 71.9587 564.616Z" fill="#262626"/>
<path d="M281.157 314.31C281.157 314.31 279.75 318.393 283.832 319.379C287.915 320.364 289.041 315.437 285.803 313.466C284.395 312.34 282.424 312.621 281.439 313.888C281.439 314.029 281.298 314.17 281.157 314.31Z" fill="#262626"/>
<path d="M298.05 317.126C298.05 317.126 296.642 321.208 300.725 322.194C304.807 323.179 305.934 318.252 302.696 316.281C301.288 315.155 299.317 315.437 298.332 316.704C298.191 316.844 298.05 316.985 298.05 317.126Z" fill="#262626"/>
<path d="M223.576 491.27L262.854 430.313C251.45 414.123 233.431 383.855 245.96 386.671C258.489 389.487 274.397 408.633 274.397 408.633C302.272 409.9 323.389 374.142 327.612 372.593C340.282 367.947 333.806 390.472 333.806 390.472C348.588 393.006 336.903 415.249 336.903 415.249C356.472 415.531 323.67 472.687 300.16 469.872C300.16 469.872 273.553 564.194 211.047 583.903C148.541 603.612 149.385 484.794 149.385 484.794L217.241 453.823L223.576 491.27Z" fill="white"/>
<path d="M226.956 491.692L240.189 471.139L261.306 438.337L266.093 430.876C266.234 430.594 266.234 430.313 266.093 430.031C261.447 423.414 257.083 416.516 253.141 409.477C251.311 406.099 249.481 402.72 247.932 399.341C246.665 396.807 245.821 394.132 245.257 391.317C245.117 390.472 245.117 389.627 245.257 388.783C245.257 388.783 245.539 388.22 245.68 388.079C245.539 388.501 245.539 388.079 245.821 388.079C245.68 388.079 245.398 388.22 245.257 388.22C245.539 388.22 243.85 388.36 244.413 388.36C243.85 388.22 243.85 388.36 244.413 388.36C243.568 388.22 244.694 388.501 244.976 388.501C245.257 388.501 245.821 388.783 246.243 388.923C247.791 389.627 249.34 390.331 250.889 391.317C257.083 395.399 262.714 400.186 267.641 405.676C268.908 406.943 269.612 408.069 270.879 409.196C272.287 410.744 274.54 410.603 276.37 410.603C278.622 410.603 280.734 410.322 282.986 409.9C290.448 408.351 297.627 405.254 303.681 400.608C309.453 396.244 314.662 391.457 319.307 385.967C321.278 383.855 323.108 381.603 324.939 379.491C325.642 378.647 326.487 377.661 327.191 376.816C327.473 376.394 327.754 376.113 328.176 375.69C328.599 375.268 328.458 375.409 328.599 375.268L328.88 374.986C329.303 374.564 329.725 374.282 330.147 373.86C329.584 374.001 330.57 373.438 330.147 373.86C330.288 373.86 330.992 373.578 330.851 373.719H330.57C330.429 373.719 330.147 373.719 330.007 373.578C330.288 374.001 330.57 374.001 330.71 374.282C331.133 375.127 331.555 375.972 331.696 376.816C332.4 381.04 331.555 385.545 330.57 389.627C330.57 389.909 330.429 390.19 330.288 390.472C330.007 391.457 332.4 392.021 332.822 392.021C333.948 392.161 334.934 392.724 335.779 393.569C336.482 394.414 337.046 395.399 337.468 396.385C338.031 399.06 338.031 401.734 337.327 404.268C336.623 407.929 335.215 411.448 333.526 414.686C332.681 416.235 336.06 416.798 336.905 416.798C337.468 416.798 337.186 416.798 336.764 416.798C336.905 416.798 337.609 416.939 337.046 416.798C336.482 416.657 337.186 416.798 337.186 416.798C337.89 417.22 337.186 416.657 337.609 417.079C337.749 417.22 337.89 417.361 337.89 417.361C338.172 417.642 337.749 417.22 338.031 417.502C338.876 418.628 339.298 420.176 339.298 421.584C339.439 426.089 337.749 430.594 335.919 434.536C330.992 445.658 323.531 455.371 313.958 462.833C311.705 464.522 309.171 466.071 306.637 467.056L305.511 467.478C305.37 467.478 305.229 467.619 305.089 467.619C304.385 467.76 303.822 467.901 303.118 468.041C303.822 467.901 303.118 468.041 302.836 468.041H301.992C302.836 468.041 301.991 468.041 301.71 468.041H301.288C300.724 468.041 302.132 468.182 301.288 468.041C300.021 467.901 297.205 467.76 296.783 469.449C296.501 470.435 296.22 471.42 295.938 472.406C295.797 473.109 295.797 472.828 295.516 473.673C295.234 474.517 295.093 474.94 294.812 475.644C294.249 477.192 293.686 478.741 293.122 480.289C289.884 489.44 286.083 498.309 281.86 507.037C276.37 518.581 269.753 529.562 262.292 539.98C254.549 551.101 245.117 560.815 234.417 569.121C229.068 573.204 223.155 576.582 217.102 579.398C214.145 580.665 211.189 581.791 208.092 582.777C205.698 583.48 203.305 583.903 200.771 584.184L199.082 584.325C198.378 584.325 199.645 584.325 198.941 584.325H197.815C197.252 584.325 196.689 584.325 196.125 584.325C195.562 584.325 195.422 584.325 195.985 584.325L194.999 584.184C194.436 584.184 194.014 584.044 193.451 583.903L192.747 583.762C192.043 583.621 193.028 583.762 192.465 583.762C191.339 583.481 190.353 583.199 189.368 582.917C189.227 582.917 188.664 582.636 189.086 582.777L188.383 582.495C187.819 582.354 187.397 582.073 186.975 581.791C186.13 581.369 185.004 580.806 184.3 580.383C182.611 579.257 180.921 577.99 179.373 576.723C172.615 570.67 168.11 562.364 164.732 553.917C161.071 544.625 158.537 535.052 156.848 525.198C155.299 516.61 154.314 508.023 153.751 499.435C153.469 494.789 153.61 490.144 153.188 485.498C153.188 485.357 153.188 485.076 153.188 484.794L152.061 485.92L175.009 475.503L211.611 458.891L220.058 455.09L214.145 453.823L219.636 486.484L220.48 491.27C220.903 493.663 227.801 493.382 227.519 491.411L221.888 458.609L221.043 453.823C220.762 451.711 216.538 451.993 215.131 452.556L192.184 462.973L155.581 479.585L146.993 483.527C146.571 483.668 145.867 484.09 145.867 484.653C145.867 488.032 146.008 491.552 146.149 494.93C146.571 503.236 147.416 511.401 148.683 519.567C150.091 529.703 152.484 539.557 155.581 549.271C158.678 558.281 162.901 567.291 169.237 574.611C175.431 581.791 184.018 586.437 193.451 587.422C206.262 588.689 218.791 584.044 229.912 577.849C242.019 570.951 252.578 561.378 261.447 550.82C270.035 540.402 277.496 529.28 283.831 517.314C289.04 507.6 293.686 497.605 297.627 487.187C299.739 481.697 301.71 476.207 303.399 470.716C303.54 470.435 303.54 470.153 303.681 470.012L299.176 471.42C312.409 472.969 323.531 463.114 331.274 453.682C335.497 448.473 339.157 442.842 342.114 436.788C344.225 432.283 346.337 427.075 346.337 422.007C346.337 419.895 345.633 417.924 344.366 416.375C342.254 414.545 339.72 413.701 336.905 413.841L340.283 415.953C342.395 412.011 343.803 407.788 344.507 403.424C345.211 400.467 344.788 397.37 343.662 394.555C341.973 391.176 338.313 389.768 334.793 389.064L337.327 390.894C338.594 386.953 339.016 382.87 338.876 378.787C338.735 376.394 338.172 373.86 336.06 372.311C333.104 370.059 328.176 370.341 324.939 371.889C323.39 372.734 322.123 374.001 320.997 375.409C319.167 377.52 317.336 379.632 315.506 381.744C310.579 387.656 305.089 393.147 299.035 397.933C291.855 403.424 283.127 407.929 274.258 407.647L277.637 408.914C274.68 405.395 271.583 402.157 268.204 399.06C262.714 393.851 256.52 388.783 249.199 386.389C244.835 384.982 237.515 384.7 238.078 391.035C238.5 393.71 239.204 396.244 240.33 398.637C241.738 402.016 243.286 405.254 245.117 408.351C249.481 416.235 254.127 423.837 259.335 431.157V430.313L246.102 450.866L224.985 483.668L220.199 491.129C218.932 492.678 225.689 493.663 226.956 491.692Z" fill="#262626"/>
<path d="M308.75 427.356C308.75 427.356 330.712 405.817 333.809 390.331L308.75 427.356Z" fill="white"/>
<path d="M311.424 427.357C319.73 419.473 326.91 410.322 332.681 400.468C334.652 397.089 336.201 393.288 337.046 389.487C337.468 387.657 330.992 389.346 330.57 391.458C329.162 398.356 325.079 404.55 320.997 410.181C317.337 415.25 313.254 420.036 308.89 424.682C308.045 425.667 307.06 426.653 306.074 427.497C305.089 428.342 305.511 429.327 306.919 429.327C308.467 429.187 310.016 428.483 311.424 427.357Z" fill="#262626"/>
<path d="M336.906 415.249C336.906 415.249 329.726 430.453 322.405 437.774L336.906 415.249Z" fill="white"/>
<path d="M334.369 412.715C332.961 415.672 331.412 418.487 329.864 421.303C327.189 426.371 323.81 431.157 320.009 435.381C319.587 435.803 324.655 440.73 324.937 440.449C328.878 436.225 332.116 431.439 334.932 426.371C336.481 423.555 338.029 420.74 339.437 417.783C339.718 417.22 337.607 415.39 337.184 414.968C336.34 414.123 335.495 413.278 334.369 412.715Z" fill="#262626"/>
<path d="M289.182 367.666C289.182 367.666 336.483 390.754 353.659 367.807C370.834 344.86 339.158 321.068 304.245 333.738" fill="white"/>
<path d="M288.618 369.778C293.686 372.171 298.895 374.282 304.244 375.831C314.24 379.069 324.939 381.321 335.497 380.336C340.565 380.054 345.493 378.506 349.857 375.972C354.503 373.015 358.163 368.651 360.134 363.442C364.498 352.462 358.163 341.34 349.012 335.146C335.216 325.854 317.337 325.714 301.992 331.204C300.443 331.767 301.71 334.02 302.414 334.723C303.4 335.99 305.089 336.554 306.778 336.131C318.745 331.908 333.104 331.204 344.507 337.257C348.449 339.228 351.687 342.326 353.799 346.127C355.77 350.209 356.051 354.855 354.503 359.078C347.464 379.491 321.56 375.972 305.511 371.185C301.569 369.918 297.628 368.511 293.827 366.962L292.841 366.54C292.56 366.399 291.293 365.836 292.419 366.399L291.011 365.836L289.744 365.273C288.618 364.709 286.647 364.287 286.225 365.836C285.802 367.384 287.492 369.214 288.618 369.778Z" fill="#262626"/>
<path d="M207.389 522.242C207.389 522.945 207.248 522.523 207.53 522.101C207.811 521.678 208.093 521.256 208.374 520.693L208.938 519.848C209.078 519.567 209.219 519.426 208.938 519.848L209.36 519.144L210.908 516.61C213.724 512.105 216.68 507.46 219.637 502.955C226.113 492.959 232.588 482.964 239.064 472.969L243.428 466.211C244.132 465.085 243.71 464.24 242.302 464.24C240.613 464.381 239.064 465.226 237.938 466.634C233.715 472.969 229.632 479.304 225.409 485.639C218.792 495.775 212.175 505.911 205.84 516.047C204.714 517.877 203.447 519.848 202.462 521.678C201.899 522.523 201.335 523.509 201.195 524.494C200.913 527.028 207.248 524.494 207.389 522.242Z" fill="#262626"/>
<path d="M256.801 558.281C261.869 558.281 373.366 556.733 373.366 556.733L429.678 403.424L637.328 406.38L584.817 583.762H254.83L256.801 558.281Z" fill="#F5EE30"/>
<path d="M252.86 561.801C266.797 561.801 280.593 561.519 294.53 561.238L355.629 560.393L369.425 560.252C372.663 560.252 378.717 558.281 379.984 554.903L385.615 539.698L398.989 503.237L415.319 458.891L429.397 420.599C431.65 414.405 434.184 408.211 436.295 402.016C436.295 401.875 436.295 401.875 436.436 401.735L425.878 407.084L446.572 407.366L496.127 408.07L556.099 408.914L607.905 409.618L624.799 409.9C627.474 409.9 630.289 410.181 632.964 410.041H633.246L630.571 408.351L625.503 425.949L612.973 468.183L597.769 519.285L584.677 563.631C582.565 570.811 580.172 577.85 578.342 585.17C578.342 585.311 578.342 585.311 578.201 585.452L588.759 580.102H272.006C267.782 580.102 263.418 579.821 259.195 580.102H258.632L261.307 581.791L263.277 556.31C263.418 553.636 258.913 554.762 257.505 555.184C255.816 555.747 254.127 556.451 252.578 557.437C251.734 558 250.185 558.985 250.185 560.111L248.214 585.593C248.073 587.141 249.622 587.282 250.748 587.282H567.502C571.725 587.282 576.089 587.282 580.313 587.282H580.876C583.128 587.141 585.521 586.437 587.492 585.311C588.9 584.607 590.871 583.481 591.434 581.791L596.643 564.053L609.172 521.819L624.236 470.717L637.328 426.371L641.692 411.73C642.396 409.478 643.241 407.225 643.804 404.832C643.804 404.691 643.804 404.691 643.945 404.55C644.367 403.002 642.256 402.861 641.27 402.861L620.575 402.579L571.021 401.875L511.049 401.031L459.242 400.327C450.936 400.186 442.49 399.905 434.184 399.905H433.902C431.65 400.045 429.256 400.608 427.285 401.735C425.596 402.439 424.188 403.565 423.344 405.254L417.712 420.458L404.338 457.061L388.008 501.406L373.93 539.698C371.678 545.893 369.144 552.087 367.032 558.281L366.891 558.563L377.45 553.213L339.439 553.776L277.215 554.621C271.724 554.621 266.234 554.762 260.884 554.762C257.505 554.903 254.127 556.17 251.593 558.422C249.622 560.252 250.185 561.801 252.86 561.801Z" fill="#F5EE30"/>
<path d="M370.552 578.131L377.31 557.155L388.15 523.79L390.684 516.188C391.106 515.062 384.348 513.795 383.645 515.625L376.887 536.601L366.047 569.966L363.513 577.568C363.091 578.694 369.848 579.961 370.552 578.131Z" fill="#262626"/>
<path d="M483.455 525.198C494.295 529.422 507.529 527.169 515.835 518.863C523.577 511.12 526.393 498.028 521.747 488.032C518.932 481.838 513.16 477.052 505.98 477.192C504.572 477.192 503.164 478.319 503.728 479.867C504.572 481.416 506.262 482.26 507.951 482.12C511.752 482.12 514.427 486.484 515.553 489.581C517.102 493.804 517.383 498.309 516.538 502.533C514.849 511.543 508.232 518.863 499.363 521.397C494.577 522.805 489.509 522.523 484.863 520.693C483.596 520.13 481.344 520.271 480.78 521.819C480.217 523.368 482.188 524.635 483.455 525.198Z" fill="white"/>
<path d="M249.199 41.9026L212.737 2.62515C211.048 0.935797 134.604 74.9857 132.774 76.6751C130.944 78.3644 183.455 137.633 186.552 134.817C189.649 132.001 244.412 83.4325 244.412 83.4325C250.466 68.9322 249.199 41.9026 249.199 41.9026Z" fill="white"/>
<path d="M250.185 41.058L224.563 13.4652C221.043 9.66418 217.524 5.72237 213.864 1.92132C212.456 0.513531 211.189 -0.612707 209.499 0.372749C208.232 1.21742 207.106 2.0621 206.121 3.04756C195.985 11.4943 186.412 20.7858 176.698 29.9364C165.295 40.7764 153.892 51.6164 142.489 62.5972L132.352 72.311C131.649 72.8741 131.085 73.4372 130.522 74.0003C129.818 75.1266 130.945 76.8159 131.508 77.8014C134.605 82.4471 137.984 86.8113 141.785 90.8939C146.853 96.9474 152.062 102.86 157.411 108.773C162.62 114.545 167.97 120.176 173.601 125.807C177.402 129.608 181.344 133.972 185.989 136.647C187.116 137.21 188.242 137.773 189.227 137.069C190.213 136.366 191.48 134.958 192.606 133.972L207.388 120.739L242.02 90.0492L246.102 86.3889C247.791 84.8404 248.214 82.3063 248.777 80.1946C251.452 70.3401 251.874 59.7816 251.874 49.5047C251.874 47.5338 251.874 45.4221 251.733 43.4512C251.733 41.9027 250.044 40.3541 248.918 39.5094C248.073 38.9463 246.665 38.2424 246.665 39.791C246.947 46.5484 246.806 53.3058 246.243 60.0632C245.821 65.4128 244.976 70.6216 243.709 75.8305C243.146 77.8014 243.005 79.9131 241.456 81.1801L213.019 106.38C203.728 114.686 194.295 122.851 185.004 131.298L184.582 131.72C185.145 131.72 184.722 131.72 184.722 131.72C184.582 131.72 184.441 131.579 184.3 131.438C185.145 131.861 184.441 131.438 184.018 131.298C183.596 131.157 182.611 130.171 183.455 130.875C182.611 130.171 181.766 129.467 180.921 128.623C180.077 127.778 178.95 126.793 177.965 125.948C177.402 125.385 176.839 124.962 176.416 124.399L175.572 123.555H175.712L175.149 122.992C172.615 120.458 170.081 117.783 167.547 115.108C162.057 109.195 156.566 103.282 151.217 97.0882C148.824 94.2726 146.43 91.5978 144.037 88.7822C143.052 87.5152 141.925 86.2482 140.94 84.9811L140.658 84.5588C140.658 84.6996 141.222 85.1219 140.799 84.6996L140.236 83.9957C139.814 83.4326 139.391 82.8694 138.969 82.3063C138.265 81.4617 137.561 80.4762 136.857 79.6315C136.576 79.35 136.294 78.9276 136.013 78.5053C135.731 78.083 135.168 76.9567 135.731 78.2237C135.59 77.9422 135.45 77.8014 135.309 77.5198C135.027 76.9567 135.59 78.3645 135.309 77.5198C135.45 78.0829 135.168 78.6461 135.59 78.3645C137.984 76.5344 140.095 74.0003 142.207 71.8887C152.343 62.0341 162.62 52.3203 172.897 42.6066C183.596 32.4704 194.295 22.3343 205.276 12.4798C208.092 9.80497 211.048 7.27094 214.145 5.01847L214.708 4.73691C215.131 4.45535 214.708 4.73691 214.849 4.73691C214.99 4.73691 214.99 4.73691 214.99 4.73691H214.568C208.232 3.75146 211.47 2.20288 212.174 3.04756C212.315 3.18834 212.456 3.32912 212.597 3.4699L216.82 8.11561L246.243 39.791L248.495 42.325C249.059 42.8881 250.889 44.859 251.874 44.0144C252.86 43.1697 250.748 41.6211 250.185 41.058Z" fill="#262626"/>
<path d="M244.13 42.184C237.936 46.1259 231.601 50.2085 225.547 54.4318C223.436 55.9804 218.79 58.0921 220.198 61.33C221.042 62.8786 221.887 64.2864 223.013 65.5534C224.562 67.6651 226.392 69.636 228.081 71.7477C232.305 76.675 237.091 81.8838 242.722 85.2625C243.989 86.1072 246.101 86.8111 247.368 85.4033C248.635 83.9955 247.65 82.3061 246.523 81.4615C242.159 78.5051 238.358 74.9856 234.979 71.0438C233.149 69.0729 231.46 67.102 229.771 64.9903C229.067 64.1456 228.363 63.3009 227.8 62.4563L227.518 62.0339C227.237 61.7524 227.096 61.33 226.814 61.0485C226.673 60.9077 226.673 60.6261 226.533 60.4853C226.392 60.3446 226.533 59.7815 226.673 60.9077C226.673 60.4854 226.533 62.1747 226.533 62.0339C226.392 62.3155 225.97 62.4563 226.392 62.3155C226.533 62.1747 226.673 62.0339 226.955 61.8931C228.081 60.9077 229.348 60.063 230.474 59.2183C231.601 58.3737 233.994 56.8251 235.543 55.6988C237.373 54.4318 239.344 53.1648 241.174 51.8978L248.635 47.1113C251.873 44.9996 246.805 40.4947 244.13 42.184Z" fill="#262626"/>
<path d="M192.748 53.4468C189.37 58.9372 185.428 64.146 180.923 68.7918C178.67 71.0442 176.277 73.0151 173.602 74.5637C172.195 75.4084 170.646 76.1123 169.097 76.6754C168.253 76.957 167.408 77.0977 166.423 77.0977C166 77.0977 165.578 76.957 165.015 76.957C163.607 76.8162 164.029 75.1268 166.141 78.9279L166.986 80.8988C166.563 78.7871 169.238 76.957 170.928 76.2531C173.18 75.2676 175.573 74.5637 177.967 74.1414C183.879 72.7336 190.074 72.1705 196.127 72.452C198.943 72.5928 201.899 72.8744 204.715 73.2967C205.841 73.4375 206.967 73.719 207.953 74.0006C208.375 74.1414 208.797 74.4229 209.22 74.5637C210.487 74.986 207.249 72.8744 207.671 72.5928C207.53 73.0151 207.389 73.2967 207.389 73.719C206.263 76.1123 204.715 78.3648 202.885 80.1949C201.336 82.025 199.506 83.5736 197.676 84.9814C195.423 86.6707 193.171 87.9378 190.637 89.064C189.37 89.6271 188.103 90.0494 186.836 90.4718C185.569 91.0349 184.161 91.4572 182.753 91.4572L184.02 92.5835L183.739 92.3019L186.132 96.5253C185.006 91.7388 189.37 86.6707 194.015 86.1076C194.719 85.9668 195.423 85.9668 196.127 86.1076C196.409 86.1076 197.816 86.8115 197.957 86.8115C196.972 85.1222 196.69 84.6998 196.972 85.5445C197.113 85.8261 197.113 86.1076 197.113 86.53C197.113 87.0931 197.113 87.5154 197.113 88.0785C196.972 91.1757 196.268 94.132 195.001 96.9476C194.579 97.9331 196.268 100.186 196.831 100.889C197.113 101.171 198.661 103.283 199.083 102.297C200.491 99.2001 201.195 95.8214 201.195 92.4427C201.054 89.3455 199.787 86.2484 197.816 83.8551C195.986 81.4619 193.593 79.7725 190.496 80.0541C187.68 80.3357 185.146 81.8842 183.598 84.2775C182.049 86.3892 181.486 89.064 181.908 91.598C182.472 93.5689 183.457 95.2583 184.865 96.6661C185.991 97.7923 186.976 97.5107 188.525 97.0884C194.438 95.5398 199.928 92.5835 204.433 88.5009C206.686 86.53 208.656 84.2775 210.346 81.7435C211.191 80.6172 211.754 79.0686 211.894 77.6609C211.754 75.8307 211.05 74.1414 209.923 72.7336C208.375 70.1995 205.841 68.5102 203.025 67.8063C199.506 67.1024 195.986 66.6801 192.467 66.6801C185.146 66.3985 177.967 67.2432 170.928 69.2141C168.394 69.918 165.578 70.7627 163.889 72.8744C161.636 75.8307 163.607 78.9279 165.719 81.3211C170.505 86.6707 179.515 79.6318 183.316 76.1123C188.666 71.3258 192.608 65.2723 196.549 59.3595C197.676 57.6702 193.03 53.0245 192.748 53.4468Z" fill="#262626"/>
<path d="M46.195 484.372L2.83496 417.502C2.83496 417.502 54.2194 399.904 84.0647 348.238C84.0647 348.238 136.012 397.23 140.236 407.084C144.459 416.939 99.4096 473.954 46.195 484.372Z" fill="white"/>
<path d="M48.7291 485.217L34.088 462.551L10.8595 426.653L5.50984 418.347L5.36906 419.895C12.1265 417.502 18.4615 414.405 24.6558 410.744C39.4377 402.438 52.9525 392.021 64.7779 379.773C73.2247 370.904 80.686 361.049 86.8803 350.35L82.5161 348.661C88.8512 354.714 95.1863 360.768 101.381 366.962C106.871 372.312 112.221 377.661 117.57 383.152C122.497 388.22 127.002 393.006 131.367 397.934C132.915 399.764 134.464 401.594 136.012 403.565L136.435 404.128C136.716 404.409 136.153 403.706 136.435 404.269C136.716 404.55 136.857 404.973 137.139 405.254C137.42 405.536 137.702 406.24 137.42 405.817C137.139 405.395 137.561 406.24 137.561 406.38C137.42 405.958 137.561 406.521 137.561 406.943C137.561 407.366 137.561 407.647 137.42 408.07C137.279 408.914 137.139 409.618 136.857 410.463C136.012 412.575 135.027 414.686 133.901 416.657C126.158 430.031 114.614 441.716 102.788 451.57C87.5842 464.381 69.9868 475.081 50.7 480.43C48.3068 481.134 45.9135 481.697 43.5203 482.12C42.1125 482.401 44.0834 484.654 44.3649 484.935C45.2096 485.78 46.899 487.188 48.3068 486.906C68.4382 482.824 86.8803 472.687 102.929 460.158C116.022 450.022 128.41 437.915 137.42 423.978C139.813 420.317 142.629 415.953 143.051 411.448C143.474 407.788 140.376 404.55 138.265 401.875C129.255 390.754 118.837 380.618 108.701 370.622C101.099 363.02 93.4969 355.559 85.6133 348.238L85.1909 347.816C84.7686 347.394 81.6715 344.86 80.9676 346.127C70.9722 363.865 57.3166 379.351 40.9862 391.88C30.5686 400.045 19.1654 406.943 7.05841 412.434C4.94672 413.419 2.69425 414.405 0.441779 415.109C-0.262118 415.39 0.0194399 416.235 0.300999 416.657L14.9421 439.323L38.1706 475.221L43.5203 483.527C44.3649 484.935 45.7727 486.061 47.4621 486.625C48.7291 487.047 49.5738 486.484 48.7291 485.217Z" fill="#262626"/>
<path d="M49.1514 420.317C57.7389 420.74 66.608 421.021 74.6324 417.643C81.1083 414.827 86.8802 409.618 88.5696 402.579C88.7104 402.016 88.5696 401.453 88.1472 401.171C84.3462 398.356 79.8412 401.171 76.7441 403.706C69.9867 409.196 64.4963 416.235 60.6953 424.119C59.1467 427.497 56.1903 432.847 58.302 436.507C60.4137 440.167 66.4672 440.59 70.409 439.886C75.1955 439.041 79.4189 436.366 83.3607 433.41C85.0501 432.424 86.3171 430.876 86.8802 429.046C87.3026 427.497 86.5987 425.949 85.0501 425.526C84.6278 425.386 84.3462 425.386 83.9238 425.386C79.8412 425.245 76.0402 429.327 74.2101 432.565C72.9431 434.677 72.0984 437.07 71.6761 439.463C70.9722 442.138 70.6906 444.813 70.6906 447.488C70.8314 450.444 73.2246 450.867 75.6179 451.148C78.4335 451.43 81.3898 451.43 84.3462 451.289C87.021 451.148 88.7104 446.925 85.1909 447.206C83.5015 447.347 81.8122 447.347 80.1228 447.206C78.9966 447.206 76.0402 447.347 75.7587 446.362C75.7587 445.658 75.7586 444.954 75.8994 444.25C76.0402 443.405 76.0402 442.561 76.181 441.716C76.4625 440.027 76.7441 438.337 77.3072 436.789C78.0111 434.255 79.5597 432.002 81.6714 430.313L82.9384 429.609C82.7976 428.483 81.8122 430.031 81.8122 430.031C80.6859 431.017 79.4189 432.002 78.1519 432.847C75.6179 434.677 72.5207 435.944 69.4236 436.226C66.608 436.366 62.5254 435.522 63.0885 432.002C63.6516 429.046 64.7779 426.23 66.3264 423.696C67.5934 421.021 69.142 418.628 70.8314 416.235C72.6615 413.701 74.7732 411.308 77.1664 409.055C78.4335 407.929 79.7005 406.803 81.1083 405.676C81.9529 404.973 83.5015 403.706 84.6277 404.55L84.2054 403.142C82.7976 408.633 78.2927 412.575 73.2246 414.546C66.4672 417.08 58.8651 416.657 51.8262 416.376C50.4184 416.235 49.1514 416.939 48.4475 418.065C48.0251 418.769 48.3067 419.754 49.0106 420.177C48.729 420.177 49.0106 420.317 49.1514 420.317Z" fill="#262626"/>
<path d="M504.151 361.472C504.151 361.472 477.121 353.588 455.16 353.448C433.198 353.307 409.266 327.263 409.266 327.263L441.082 267.009C441.082 267.009 465.577 295.869 485.568 287.844C505.559 279.82 532.87 294.883 532.87 294.883C532.87 294.883 508.093 360.487 504.151 361.472Z" fill="white"/>
<path d="M501.755 359.642C489.085 355.841 476.133 353.447 462.9 352.04C458.395 351.617 453.89 351.758 449.385 351.336C445.443 350.913 441.642 349.787 438.123 348.238C431.788 345.423 426.016 341.622 420.807 336.976C417.569 334.301 414.613 331.486 411.797 328.529L412.079 329.092L422.778 308.679L439.953 276.3L443.895 268.839L438.264 265.601C440.938 268.557 443.754 271.373 446.71 274.048C453.046 279.82 460.084 284.606 467.827 288.126C471.347 289.815 475.148 290.801 479.09 291.223C483.172 291.504 486.41 290.378 490.211 289.111C499.221 286.155 509.357 287.422 518.367 290.097C522.309 291.223 526.11 292.631 529.77 294.179C530.474 294.461 531.178 294.742 531.882 295.165L532.164 295.305C531.741 295.024 532.445 295.446 532.164 295.305L532.867 295.587C533.29 295.728 533.712 296.009 534.134 296.291L529.911 293.053C527.095 300.374 524.28 307.835 521.324 315.155C516.537 327.122 511.891 339.229 506.401 350.913C505.415 353.025 504.43 355.137 503.163 357.108C502.881 357.671 502.459 358.375 502.037 358.938C501.896 359.219 501.333 359.782 501.333 359.782C500.629 359.923 502.881 361.472 503.022 361.753C503.726 362.176 505.838 364.006 506.823 363.724C507.809 363.443 508.231 362.457 508.653 361.753C509.639 360.205 510.483 358.515 511.328 356.826C513.862 351.617 516.115 346.268 518.367 340.918C523.294 329.093 528.081 317.126 532.586 305.16C533.571 302.485 534.698 299.67 535.683 296.995C535.965 296.15 532.023 294.038 531.46 293.757C527.377 291.645 523.294 289.815 518.93 288.267C510.765 285.451 502.037 283.339 493.449 283.902C491.197 284.043 488.944 284.325 486.692 284.888C484.58 285.451 482.75 286.296 480.638 286.859C477.119 287.844 473.459 287.844 469.939 287.14C466.56 286.436 463.322 285.169 460.366 283.339C458.958 282.495 457.691 281.65 456.424 280.664C455.439 279.961 454.031 278.834 452.905 277.849C449.526 275.033 446.429 271.936 443.473 268.698C443.05 268.135 438.264 264.616 437.841 265.319L427.142 285.732L410.108 318.112L406.166 325.573C406.166 325.714 406.307 325.995 406.448 326.136C414.894 335.287 424.608 342.889 435.448 348.802C439.249 350.913 443.332 352.743 447.414 354.01C451.497 355.137 455.58 355.7 459.803 355.7C469.798 356.122 479.653 357.389 489.367 359.501C494.998 360.627 500.629 362.035 506.26 363.583C507.668 364.006 505.838 362.457 505.556 362.316C504.571 361.049 503.304 360.205 501.755 359.642Z" fill="#262626"/>
<path d="M473.178 336.272L460.649 321.491C460.227 320.927 458.256 319.379 458.678 318.675C459.1 317.971 461.635 318.253 462.198 318.112C465.154 317.83 468.251 317.971 471.207 318.253C474.305 318.534 477.261 319.097 480.217 320.083C481.625 320.364 482.751 321.35 483.315 322.476C483.455 323.039 483.596 323.462 483.455 324.025C483.455 324.025 483.174 324.729 483.455 324.306C483.737 323.884 483.455 324.306 483.174 324.306C480.921 324.025 478.81 323.039 477.12 321.491C475.431 319.801 474.727 317.267 475.29 314.874C475.853 312.199 477.965 311.354 480.358 311.073C482.751 310.791 486.271 310.369 488.664 311.918C490.213 313.044 494.718 310.369 493.028 309.243C489.931 307.131 485.989 307.272 482.329 307.553C478.669 307.835 474.586 308.961 472.052 311.918C469.8 314.592 469.377 318.253 470.785 321.35C472.334 324.588 475.431 326.699 478.95 327.403C482.048 327.966 486.552 326.981 487.96 323.743C489.79 319.66 485.426 317.126 482.188 316.282C477.824 315.015 473.178 314.311 468.533 314.311C464.591 314.311 459.523 314.029 456.003 316.141C454.736 316.845 452.906 318.534 453.329 320.364C453.751 321.209 454.314 321.913 455.018 322.617L457.693 325.714L468.392 338.384C469.94 340.214 474.586 337.962 473.178 336.272Z" fill="#262626"/>
<path d="M16.4902 588.267L19.0243 508.164L303.821 512.387L305.792 586.015L214.708 589.957L16.4902 588.267Z" fill="white"/>
<path d="M19.8694 589.253L20.7141 562.223L22.1219 519.004L22.4034 509.149L21.8403 509.29L29.4424 509.431L50.137 509.712L80.8269 510.135L118.133 510.698L159.1 511.261L200.489 511.824L239.063 512.387L271.583 512.95L294.952 513.232C298.613 513.232 302.414 513.373 306.074 513.373H306.496L300.302 511.261L301.006 536.179L301.991 575.879L302.273 585.029L302.836 584.889L282.001 585.733L241.315 587.423L213.159 588.69C210.485 588.83 207.81 588.69 205.135 588.69L180.217 588.549L143.333 588.267L101.521 587.845L61.3993 587.563L30.0055 587.282L14.2382 587.141H13.5343C12.1265 587.141 14.2382 588.126 14.5198 588.267C15.9276 588.971 17.6169 589.393 19.1655 589.534L30.1463 589.675L58.4429 589.957L97.0165 590.238L139.11 590.661L177.824 590.942L206.261 591.224C209.922 591.224 213.723 591.364 217.524 591.364C224.281 591.224 231.038 590.801 237.655 590.52L278.34 588.83L307.059 587.563H308.608C308.749 587.563 309.03 587.563 309.171 587.423L308.467 562.505L307.341 522.805L307.059 513.654C307.059 513.091 305.088 512.528 304.807 512.387C303.54 511.824 302.273 511.543 300.865 511.543L293.263 511.402L272.568 511.12L241.878 510.698L204.431 510.135L163.464 509.572L122.075 509.008L83.5017 508.445L51.2632 507.46L27.753 507.178C24.0928 507.178 20.2917 507.038 16.6315 507.038H16.2091C16.0683 507.038 15.7868 507.038 15.646 507.178L14.8013 534.208L13.3935 577.427L13.112 587.282C13.112 588.549 19.8694 589.534 19.8694 589.253Z" fill="#262626"/>
<path d="M209.921 518.722L209.358 542.373L208.513 580.102L208.372 588.83C208.372 590.801 214.707 588.267 214.707 586.296L215.27 562.645L216.115 524.917L216.256 516.188C216.256 514.217 209.921 516.751 209.921 518.722Z" fill="#262626"/>
<path d="M19.0244 508.164L95.7492 493.804C95.7492 493.804 223.154 514.921 267.782 462.551C267.782 462.551 264.403 487.047 213.018 517.455L19.0244 508.164Z" fill="white"/>
<path d="M20.5726 511.12L63.6511 503.096L90.1176 498.169C92.2293 497.746 94.4818 497.465 96.7342 496.902C97.2974 496.761 97.7197 496.902 96.875 496.761C97.1566 496.761 97.4381 496.902 97.7197 496.902C110.249 498.732 122.778 499.999 135.308 500.562C157.832 501.688 180.639 501.125 202.882 497.324C224.843 493.523 247.931 486.484 264.543 470.998C266.373 469.168 268.203 467.338 269.893 465.367L265.247 460.581C265.247 460.862 265.106 461.003 265.106 461.284C265.106 461.425 264.966 461.566 264.966 461.707C264.825 462.27 265.106 461.144 264.966 461.707C264.825 462.27 264.684 462.551 264.543 462.974C263.558 465.508 262.432 468.042 261.024 470.294C255.252 480.149 246.946 488.455 238.217 495.635C229.63 502.674 220.479 509.009 210.906 514.499L211.892 514.358L192.464 513.373L146.148 511.12L90.1176 508.446L41.6895 506.193L18.1794 505.067H17.8978C14.5191 504.926 17.6163 510.98 20.0095 511.12L28.7378 511.543L51.6849 512.669L84.0641 514.217L120.667 515.907L156.847 517.596L187.818 519.145L208.372 520.13L213.3 520.412H214.144C215.693 520.412 217.241 519.004 218.508 518.3C221.042 516.751 223.576 515.203 225.97 513.514C239.203 504.785 252.014 494.649 261.728 481.838C265.388 476.911 269.048 471.28 270.456 465.226C270.456 464.945 270.597 464.663 270.597 464.522C270.597 463.115 270.034 461.707 268.907 460.862C268.344 460.299 266.655 458.891 265.951 459.877C251.169 477.052 229.067 485.358 207.528 490.003C185.144 494.79 162.056 495.775 139.25 494.931C125.172 494.508 111.094 493.241 97.1566 491.27C96.3119 491.13 95.608 490.989 94.7633 490.989C93.4963 490.989 92.0885 491.27 90.8215 491.552L67.5929 495.916L18.4609 505.067L17.4755 505.208C14.8007 505.63 18.1794 511.683 20.5726 511.12Z" fill="#262626"/>
<path d="M52.107 540.965L90.6805 541.529L151.779 542.373L165.857 542.514C167.405 542.514 165.434 541.106 165.153 540.965C163.745 540.121 162.196 539.698 160.507 539.558L121.934 538.995L60.8353 538.15L46.7574 538.009C45.2088 538.009 47.1797 539.417 47.4613 539.558C48.869 540.402 50.5584 540.965 52.107 540.965Z" fill="#262626"/>
<path d="M213.02 517.455C215.554 516.611 303.681 512.387 303.681 512.387L213.02 517.455Z" fill="white"/>
<path d="M215.553 519.849C216.539 519.708 217.524 519.567 218.651 519.567C220.903 519.426 223.296 519.286 225.549 519.145C232.869 518.722 240.19 518.3 247.37 517.878C263.278 517.033 279.327 516.188 295.235 515.485L306.075 514.921C306.779 514.921 304.948 512.81 304.808 512.669C304.244 511.965 302.555 509.853 301.429 509.853C291.434 510.276 281.297 510.839 271.302 511.261C255.112 512.106 238.923 512.81 222.733 513.795C219.918 513.936 217.102 514.077 214.286 514.358C213.019 514.358 211.752 514.499 210.485 514.781C210.063 514.921 212.456 517.455 212.597 517.596C213.16 518.159 214.709 519.989 215.553 519.849Z" fill="#262626"/>
<path d="M238.781 538.009C247.65 535.616 256.801 534.208 265.951 533.645C267.5 533.504 266.233 531.955 265.67 531.533C264.403 530.407 262.854 529.703 261.165 529.703C251.733 530.266 242.3 531.815 233.15 534.208C231.883 534.489 234.276 536.601 234.558 536.742C235.684 537.727 237.232 538.15 238.781 538.009Z" fill="#262626"/>
<path d="M284.112 531.815L291.011 530.548C291.996 530.407 292.7 529.844 293.404 529.14C293.967 528.436 294.248 527.591 294.108 526.747C293.967 525.902 293.545 525.198 292.841 524.635C292.137 524.213 291.151 524.072 290.307 524.213L283.408 525.48C282.423 525.62 281.719 526.183 281.015 526.887C280.452 527.591 280.17 528.436 280.311 529.281C280.452 530.125 280.874 530.829 281.578 531.252C282.423 531.815 283.268 531.955 284.112 531.815Z" fill="#262626"/>
<path d="M227.801 560.534L288.195 558C289.603 557.718 291.011 557.155 292.137 556.31C292.419 556.169 294.53 554.48 293.967 554.48L233.573 557.014C232.165 557.296 230.757 557.859 229.631 558.703C229.35 558.844 227.238 560.534 227.801 560.534Z" fill="#262626"/>
<path d="M81.3903 544.626C86.3176 546.738 90.9633 549.553 95.0459 553.073C97.1576 554.903 99.1285 556.874 100.818 558.845C102.789 561.097 105.323 563.209 108.561 561.942C111.376 560.675 114.192 559.126 116.726 557.296L125.173 552.369L142.207 542.373C145.867 540.262 141.785 534.49 138.406 536.601L107.012 555.044L106.167 555.607C105.464 555.888 105.604 556.029 106.59 556.029C106.59 556.029 105.886 555.325 105.745 555.325C104.9 554.48 104.056 553.495 103.211 552.51C101.522 550.679 99.5508 548.99 97.5799 547.301C93.4973 543.922 88.8516 541.247 83.9243 539.136C82.3757 538.432 80.4048 538.432 79.5602 540.262C79.1378 541.81 79.8417 543.781 81.3903 544.626Z" fill="#262626"/>
<path d="M237.092 562.505C240.893 563.912 244.272 566.306 246.806 569.403C250.185 573.063 253.423 577.568 257.927 580.102C260.321 581.369 260.884 579.398 262.01 577.568C263.418 575.456 264.826 573.345 266.374 571.374C269.612 567.15 273.132 563.349 277.073 559.83C277.355 559.548 272.428 554.762 271.583 555.466C267.641 558.985 264.122 562.786 260.884 567.009C259.335 569.121 257.787 571.233 256.379 573.485C256.097 574.189 255.675 574.752 255.253 575.456L254.971 575.738C254.69 576.019 254.408 576.16 253.986 576.16C257.083 578.835 258.068 579.68 256.942 578.413C256.801 578.272 256.52 577.99 256.379 577.85L255.112 576.442C248.495 569.262 241.316 561.238 231.743 558.14C231.179 558 233.15 559.971 233.291 560.111C234.558 561.238 235.684 561.941 237.092 562.505Z" fill="#262626"/>
</svg>
