<svg width="613" height="600" viewBox="0 0 613 600" fill="none" xmlns="http://www.w3.org/2000/svg">
<path d="M167.098 162.448C167.098 162.448 203.891 145.8 191.3 121.878C173.953 89.002 161.922 80.7481 152.829 86.7637C143.735 92.7792 155.347 118.8 155.347 118.8L155.906 121.038C155.906 121.038 157.305 163.847 167.098 162.448Z" fill="white"/>
<path d="M170.033 162.448C173.67 160.769 177.028 158.81 180.246 156.432C186.121 152.235 191.857 147.199 195.075 140.484C196.753 137.126 197.453 133.209 197.173 129.432C196.613 123.976 193.536 119.359 191.018 114.603C185.981 105.65 180.385 96.2765 172.691 89.4215C170.453 87.3231 167.935 85.7842 165.137 84.805C161.779 83.8257 158.282 83.8257 154.924 84.6651C152.406 85.2246 149.468 86.3438 147.79 88.5822C145.831 91.3801 145.691 95.0174 145.971 98.3749C146.81 105.23 148.629 111.945 151.427 118.38C152.686 121.318 152.546 124.116 152.686 127.194C153.106 134.188 153.945 141.183 155.204 148.178C155.764 151.396 156.743 154.613 157.862 157.691C158.702 159.65 159.821 161.888 161.779 162.867C163.458 163.427 165.277 163.567 166.955 163.287C167.375 163.287 170.453 163.007 170.313 162.168C170.173 161.328 167.095 161.888 166.815 161.888C167.375 161.748 167.935 161.888 168.494 161.888C168.774 161.888 168.634 162.028 168.634 161.888C168.634 161.748 168.494 161.888 168.354 161.748C167.935 161.608 167.655 161.328 167.235 161.049C166.536 160.349 165.836 159.37 165.417 158.53C164.157 155.872 163.178 153.074 162.619 150.277C161.08 143.561 160.1 136.707 159.681 129.712C159.401 126.214 159.681 122.297 158.562 118.8C158.142 117.401 157.442 116.002 156.883 114.603C155.624 111.385 154.644 108.168 153.805 104.81C152.546 99.4941 150.308 89.8412 156.183 86.3438C156.603 86.064 157.023 85.9241 157.442 85.6443L157.722 85.5044L156.603 85.6443H156.743C156.883 85.6443 157.023 85.6443 157.163 85.6443C156.603 85.3645 157.163 85.6443 157.442 85.6443L158.002 85.7842C160.52 86.4837 162.758 87.7428 164.717 89.4215C171.992 95.1573 177.168 103.551 181.924 111.525C186.681 119.499 192.556 128.033 189.759 137.546C187.8 144.401 182.484 149.997 177.028 154.334C173.251 157.271 169.194 159.929 164.857 162.028L164.157 162.448C162.759 163.007 165.137 163.287 165.556 163.287C166.955 163.287 168.634 163.007 170.033 162.448Z" fill="#262626"/>
<path d="M151.147 211.131C151.147 211.131 82.5975 232.955 47.4835 226.52C47.4835 226.52 42.727 97.1158 111.976 109.986L155.903 121.178L154.924 152.655L151.147 211.131Z" fill="white"/>
<path d="M148.771 209.593L148.351 209.732L147.792 209.872L147.512 210.012L142.336 211.551C136.46 213.23 130.444 214.909 124.429 216.308C107.921 220.365 91.1335 223.862 74.0661 225.261C69.4495 225.681 64.833 225.82 60.2164 225.82C58.3977 225.82 56.2993 225.681 54.2008 225.541C53.2215 225.401 52.2423 225.401 51.263 225.261L49.5842 224.981C49.3044 224.981 48.0454 224.701 48.605 224.841L50.9832 226.94C50.7034 220.085 50.9832 213.23 51.4029 206.375C52.1024 191.546 54.2008 176.857 57.5583 162.587C61.1956 148.318 66.7915 133.069 77.1438 122.577C79.5221 120.059 82.1801 117.96 85.118 116.142C86.5169 115.302 87.9159 114.603 89.3148 113.903C90.0143 113.623 90.8537 113.344 91.5532 112.924C92.2527 112.644 92.9521 112.364 93.7915 112.225C97.2889 111.245 100.786 110.826 104.424 111.105C103.584 111.105 105.123 111.105 105.263 111.105C105.683 111.105 106.242 111.105 106.662 111.245C107.781 111.385 108.9 111.525 110.02 111.665C110.299 111.665 111.418 111.945 110.719 111.805H110.859L111.558 111.945L153.387 122.577L154.646 122.857L152.268 120.758C151.988 131.53 151.988 142.302 151.289 152.934C150.31 167.064 149.47 181.194 148.491 195.323L147.512 210.991C147.372 213.65 154.367 214.349 154.507 211.691L157.025 173.639C157.724 163.567 158.424 153.354 158.703 143.282L159.403 121.598C159.403 120.478 158.004 119.779 157.025 119.499L116.175 109.147C102.325 105.649 87.4962 107.048 75.8848 115.862C63.7138 125.235 56.9987 140.204 52.5221 154.473C48.1853 169.442 45.5272 184.831 44.6879 200.499C43.8485 208.893 43.7086 217.427 43.9884 225.96C43.9884 226.1 43.9884 226.24 43.9884 226.38C43.9884 227.499 45.2474 228.339 46.3666 228.479C63.5739 231.556 81.6205 229.318 98.6879 226.38C113.937 223.722 128.906 220.225 143.874 215.888C147.092 214.909 150.31 214.069 153.527 212.95C154.926 212.53 154.926 210.991 153.807 210.292C152.268 209.173 150.45 208.893 148.771 209.593Z" fill="#262626"/>
<path d="M117.293 76.691C117.293 76.691 118.972 49.8309 95.749 46.4733C72.5262 43.1158 50.1427 66.7583 56.2982 94.3179C62.4536 121.878 96.5884 115.862 96.5884 115.862L117.293 76.691Z" fill="#262626"/>
<path d="M120.51 76.2714C121.21 64.3802 116.033 50.9501 104.702 45.774C95.0489 41.2973 83.2976 42.8361 74.0644 47.8724C64.2717 53.3284 56.997 62.2817 53.7794 72.9139C50.7017 83.2662 50.9815 95.9968 56.8571 105.37C61.3338 112.365 68.6084 116.422 76.4427 118.24C82.1784 119.499 88.0541 119.779 93.7898 119.22C95.7484 119.08 97.9867 118.94 99.1059 117.121C99.8054 116.002 100.365 114.743 100.925 113.624L119.251 78.7895L119.671 77.9502C120.37 76.5512 120.51 74.7325 118.831 74.033C117.153 73.4735 115.194 74.173 114.215 75.7118L96.1681 110.126L93.6499 115.023L96.7276 113.204C94.909 113.484 93.0903 113.624 91.4116 113.624C90.9919 113.624 90.5722 113.624 90.1525 113.624H89.5929C88.6137 113.624 87.4945 113.624 86.5152 113.484C84.2769 113.344 81.8986 113.064 79.6603 112.505C75.0437 111.525 70.8468 109.567 67.2095 106.629C62.8727 102.712 60.0748 97.3958 59.0955 91.66C56.4375 77.3906 62.1732 61.8621 74.624 53.888C84.4168 47.5926 99.5256 46.7532 107.5 56.2662C110.717 60.1833 112.676 64.9398 113.375 69.9761C113.515 70.9553 113.655 71.9346 113.795 73.0538C113.795 73.4735 113.935 74.0331 113.935 74.4527C113.935 73.7533 113.935 74.8724 113.935 74.4527C113.935 74.5926 113.935 74.7325 113.935 74.8724C113.935 75.5719 113.935 76.4113 113.935 77.1108C113.655 81.1678 120.37 79.7688 120.51 76.2714Z" fill="#262626"/>
<path d="M122.888 99.0745C127.925 87.4631 111.277 55.7066 111.277 55.7066C103.303 48.5719 76.3028 62.1419 76.3028 62.1419C82.738 69.6963 85.5359 84.2455 85.5359 84.2455C79.9401 77.3906 71.8261 83.4061 74.4841 90.8206C77.1421 98.2352 86.6551 97.9554 86.6551 97.9554C86.6551 97.9554 88.7536 114.743 90.2924 117.541C91.8313 120.339 107.22 120.619 112.256 109.986C112.256 110.126 118.552 109.147 122.888 99.0745Z" fill="white"/>
<path d="M126.105 97.9553C128.484 92.3595 126.385 85.0849 124.846 79.489C122.888 72.774 120.37 66.3387 117.292 60.0434C116.453 58.3646 115.753 56.546 114.774 54.8672C113.795 53.4683 112.396 52.6289 110.857 52.3491C104.142 50.8102 96.5873 53.1885 90.2919 55.2869C85.1158 56.9657 80.0795 59.0641 75.0432 61.5823C74.7634 61.7222 72.5251 62.8413 73.0847 63.4009C78.1209 69.4165 80.9189 77.8102 82.3178 85.5046L88.7531 82.8465C85.3956 78.9294 80.779 79.0693 76.3023 81.3077C72.5251 83.1263 70.0069 86.6237 70.8463 90.9605C72.1054 96.8362 78.5406 99.6341 83.9966 99.4942L83.437 99.2144C83.9966 105.37 84.9759 111.385 86.5147 117.401C87.2142 119.919 89.0329 120.479 91.4111 120.758C95.4681 121.178 99.5251 120.479 103.302 118.94C108.339 117.121 113.095 113.904 115.613 108.867L110.297 111.525C117.712 110.546 123.168 104.67 126.105 97.9553C126.525 96.9761 123.727 97.8154 123.447 97.8154C122.328 98.0952 120.23 98.9346 119.67 100.054C118.551 102.992 116.732 105.65 114.494 107.748C114.214 108.028 113.795 108.308 113.375 108.587C112.675 109.147 113.655 108.308 113.375 108.587C112.535 109.147 113.934 108.448 113.095 108.727C114.354 108.168 112.675 108.727 113.934 108.448C113.375 108.587 114.074 108.448 114.354 108.448C113.515 108.587 112.675 108.867 111.976 109.147C110.857 109.567 109.877 110.126 109.178 111.106C108.758 111.665 108.478 112.365 108.059 112.924C107.359 113.904 106.66 114.743 105.82 115.442C105.401 115.722 104.981 116.142 104.561 116.422C104.282 116.562 104.002 116.701 103.722 116.841C103.023 117.121 102.323 117.261 101.484 117.401C100.644 117.541 99.665 117.681 98.8256 117.681C97.2867 117.821 95.7479 117.541 94.3489 116.981C93.3697 116.422 93.0899 115.303 92.8101 114.183C92.2505 112.085 91.8308 109.986 91.551 107.888C90.8515 104.111 90.2919 100.473 89.8722 96.6963C89.7323 96.5564 89.4526 96.4165 89.3127 96.4165C85.5354 96.5564 81.7582 95.0175 79.2401 92.2196C77.1417 89.8413 76.722 86.4838 77.981 83.546C78.2608 82.9864 78.8204 82.5667 79.1002 82.147C79.38 82.0071 79.2401 82.0071 78.8204 82.2869L77.2815 82.8465C77.5613 82.8465 77.8411 82.8465 78.1209 82.8465C79.7997 83.2662 81.3386 84.1056 82.3178 85.5046C83.2971 86.6237 89.0329 84.2455 88.7531 82.8465C87.3541 75.1522 84.5562 66.7584 79.5199 60.7429L77.5613 62.5615L78.4007 62.1418L79.38 61.7222L79.9396 61.4424C80.3593 61.1626 79.2401 61.7221 80.0795 61.3025C81.1987 60.7429 82.3178 60.3232 83.5769 59.7636C84.2764 59.4838 84.836 59.204 85.5354 58.9242L86.5147 58.5045L87.0743 58.3646L87.3541 58.2247C92.6702 56.4061 98.8256 54.0278 104.701 55.147C106.24 55.2869 107.639 55.9864 108.618 57.2455C109.458 58.7843 110.157 60.3232 110.857 61.862C113.655 67.5978 116.033 73.6133 117.991 79.6289C119.251 83.2662 120.09 87.0434 120.649 90.8206C121.209 93.7584 120.929 96.8362 119.95 99.774C119.53 100.893 122.328 100.054 122.608 99.9139C123.447 99.9139 125.546 99.2144 126.105 97.9553Z" fill="#262626"/>
<path d="M109.877 86.6237C109.877 86.6237 128.484 83.2662 128.484 72.9138C128.484 62.5615 114.354 62.5615 106.939 73.6133" fill="white"/>
<path d="M112.816 87.463C114.914 87.0433 116.873 86.4837 118.831 85.7842C122.608 84.6651 126.106 82.7065 128.904 80.0485C131.842 77.3904 132.681 73.1935 131.282 69.5562C130.443 67.7376 128.904 66.4785 127.085 65.6391C124.147 64.3801 120.93 63.8205 117.852 64.1003C112.116 64.6599 106.8 67.8775 103.722 72.7739C103.303 73.3334 106.8 74.1728 107.08 74.1728C107.919 74.3127 110.018 74.8723 110.717 73.893C113.235 69.9759 117.013 67.178 121.489 66.1987C121.629 66.1987 122.049 66.0588 121.769 66.1987H122.469C122.748 66.1987 123.028 66.1987 122.608 66.1987H122.888C123.308 66.1987 122.189 66.0588 122.608 66.1987C123.308 66.1987 122.329 66.1987 122.469 66.1987L122.049 66.0588C121.769 66.0588 121.769 66.0588 122.049 66.0588C122.469 66.1987 122.049 66.0588 121.909 66.0588L122.189 66.1987C121.909 66.0588 122.469 66.3386 122.189 66.1987C123.448 66.8982 124.427 68.1573 124.847 69.6961C127.225 77.2505 118.971 81.8671 113.235 83.9656C111.277 84.6651 109.178 85.2246 107.08 85.6443C105.541 85.9241 107.779 86.9034 108.059 87.0433C109.598 87.6029 111.277 87.7428 112.816 87.6029V87.463Z" fill="#262626"/>
<path d="M93.9318 91.2402C95.1908 94.0382 97.2893 96.2765 99.9473 97.6755C101.206 98.375 102.605 98.7946 104.004 99.0744C104.284 99.0744 104.564 99.0744 104.564 98.6548C104.564 98.2351 104.004 97.8154 103.864 97.5356C103.025 96.6962 101.906 96.1366 100.647 95.8568H100.507C100.227 95.8568 100.927 95.9967 100.647 95.8568H100.367L99.8074 95.7169C99.8074 95.7169 100.367 95.8568 100.087 95.8568H99.9473L99.6675 95.7169H99.5276C99.3877 95.577 99.1079 95.4371 99.9473 95.9967L99.8074 95.8568L99.5276 95.7169L99.9473 95.9967L99.8074 95.8568C99.1079 95.2972 99.5276 95.7169 99.8074 95.8568L99.5276 95.577L99.3877 95.4371C99.2478 95.2972 99.8074 95.8568 99.5276 95.577C99.3877 95.4371 99.3877 95.4371 99.2478 95.2972L98.968 95.0174L98.8281 94.8775C98.6882 94.5978 99.1079 95.2972 98.968 95.0174C98.6882 94.7376 98.5483 94.318 98.4084 94.0382C98.2686 93.8983 98.2685 93.6185 98.1286 93.4786L98.2685 93.7584C98.1286 93.3387 97.8489 92.919 97.5691 92.6392C97.0095 92.2195 96.4499 91.7998 95.8903 91.52C95.4706 91.2402 94.911 91.1003 94.3514 90.9604C94.2116 90.9604 93.652 90.9604 93.9318 91.2402Z" fill="#262626"/>
<path d="M104.56 68.1574C103.861 68.5771 103.581 69.5563 104.001 70.3957L104.141 70.5356C105.26 71.9346 106.939 70.5356 106.379 69.1366C106.239 68.2973 105.4 67.8776 104.56 68.1574Z" fill="#262626"/>
<path d="M93.79 72.2142C93.0905 72.6339 92.8107 73.6131 93.2304 74.3126L93.3703 74.4525C94.4895 75.8515 96.1682 74.4525 95.6086 73.0536C95.4687 72.3541 94.7693 71.9344 94.0698 72.0743C93.9299 72.2142 93.9299 72.2142 93.79 72.2142Z" fill="#262626"/>
<path d="M166.117 233.935C166.117 233.935 157.023 174.339 167.096 116.981C177.168 59.6238 191.997 21.0123 209.065 10.2403C209.065 10.2403 210.464 2.26621 196.894 14.8569C183.324 27.4476 158.282 73.3336 150.728 126.215C143.174 179.095 149.469 233.375 149.469 233.375L166.117 233.935Z" fill="#F5EE30"/>
<path d="M162.059 167.484C162.059 167.484 164.577 152.235 175.909 155.033C187.241 157.831 186.681 170.282 183.464 176.017C180.246 181.753 175.769 184.551 169.194 181.613C162.619 178.675 159.821 171.401 162.059 167.484Z" fill="#262626"/>
<path d="M165.137 166.225C165.557 163.567 166.536 161.049 167.935 158.81C168.355 157.971 168.915 157.271 169.614 156.712L169.894 156.432C169.894 156.432 169.614 156.712 169.754 156.572C169.894 156.432 169.894 156.432 170.034 156.432C169.474 156.852 169.754 156.572 169.894 156.572C169.334 156.852 170.453 156.292 169.894 156.572C169.054 156.992 169.474 156.712 169.754 156.712C169.334 156.992 169.474 156.572 169.614 156.712C168.915 156.852 169.754 156.852 169.614 156.712H170.034C170.174 156.712 170.453 156.712 170.593 156.712C171.293 156.712 171.852 156.712 172.552 156.852C174.091 157.131 175.49 157.831 176.889 158.53C181.225 161.328 182.624 166.784 182.065 171.541C181.785 173.779 180.946 176.017 179.826 177.976C179.127 179.235 178.148 180.214 177.168 181.194C176.889 181.473 177.448 181.194 177.029 181.334C176.609 181.473 177.029 181.334 177.168 181.194C177.308 181.054 177.868 181.054 177.308 181.054C176.749 181.054 176.049 181.054 175.49 181.054C171.712 180.494 168.215 178.116 166.257 174.898C164.578 172.24 163.738 169.023 165.137 166.225C165.697 165.106 162.619 166.085 162.339 166.085C160.94 166.504 159.681 167.344 158.842 168.603C157.443 171.401 158.282 174.898 159.681 177.416C161.78 180.914 165.137 183.292 169.194 184.271C177.168 185.95 185.282 179.375 187.661 171.96C189.339 166.644 188.78 159.929 184.303 156.152C178.428 150.976 169.894 152.375 164.438 157.411C161.36 160.489 159.402 164.406 158.702 168.603C158.562 169.862 161.08 168.883 161.5 168.743C162.619 168.463 164.997 167.484 165.137 166.225Z" fill="#262626"/>
<path d="M160.52 167.484C160.52 167.484 162.199 157.551 169.753 159.37C177.308 161.189 176.888 169.303 174.79 173.08C172.691 176.857 169.614 178.676 165.277 176.717C160.94 174.758 159.121 170.142 160.52 167.484Z" fill="white"/>
<path d="M163.876 168.323C164.016 167.764 164.156 167.204 164.296 166.785C164.436 166.225 164.716 165.665 164.856 165.246C164.996 164.966 165.135 164.686 165.275 164.406L165.415 163.987C165.275 164.266 165.555 163.847 165.555 163.707C165.975 163.147 166.394 162.588 166.814 162.168C166.954 162.028 167.094 161.888 167.234 161.888C167.234 161.888 167.654 161.608 167.374 161.748C167.094 161.888 167.654 161.608 167.654 161.608L168.213 161.329C168.353 161.329 168.353 161.329 168.493 161.189C168.633 161.049 168.073 161.329 168.353 161.189C168.633 161.049 168.633 161.049 168.773 161.049C168.353 161.049 169.472 160.909 168.773 161.049C168.913 161.049 169.053 161.049 169.053 161.049C168.913 161.049 168.353 160.909 168.773 161.049H169.053C169.472 161.049 168.353 160.909 168.773 161.049L169.472 161.189C169.892 161.329 168.773 160.909 169.192 161.049C169.332 161.049 169.332 161.189 169.472 161.189L169.752 161.329C170.172 161.468 169.192 161.049 169.612 161.329C169.752 161.468 170.312 161.888 170.032 161.468C169.752 161.049 170.172 161.608 170.312 161.608L170.871 162.028C170.451 161.608 170.871 162.028 171.011 162.168C171.291 162.448 171.431 162.728 171.711 163.147C171.571 162.867 171.85 163.427 171.711 163.147C171.711 163.287 171.85 163.287 171.85 163.427C171.99 163.567 171.99 163.847 172.13 164.126C172.69 165.525 172.83 167.064 172.55 168.603C172.41 170.002 171.85 171.401 171.151 172.52C170.591 173.5 169.892 174.199 169.053 174.899C169.053 174.899 168.633 175.178 168.773 175.038C168.633 175.178 168.353 175.318 168.213 175.318C168.073 175.458 167.514 175.598 167.933 175.458C167.654 175.598 167.094 175.598 167.654 175.598C167.514 175.598 167.374 175.598 167.374 175.598C167.234 175.598 167.234 175.598 167.514 175.598C167.793 175.598 167.793 175.598 167.514 175.598C166.954 175.458 167.374 175.598 167.514 175.598C168.073 175.738 167.514 175.598 167.374 175.598C166.954 175.598 167.933 175.878 167.514 175.598L166.954 175.458C166.674 175.318 167.094 175.458 167.094 175.598L166.534 175.318L166.255 175.178C166.814 175.458 166.255 175.178 166.115 175.038C165.975 174.899 165.555 174.619 165.415 174.479C165.275 174.339 165.135 174.199 165.135 174.199C164.996 173.919 164.716 173.779 164.576 173.5C163.317 171.961 163.177 170.002 163.876 168.323C164.016 167.764 163.317 167.064 163.177 166.924C162.477 166.365 161.778 166.085 160.939 165.805C159.819 165.525 157.861 165.246 157.161 166.505C156.042 168.603 156.882 170.981 158.001 172.94C159.819 175.738 162.617 177.696 165.695 178.536C168.913 179.795 172.41 179.375 175.208 177.417C176.887 176.018 178.146 174.059 178.845 171.961C180.244 168.044 179.125 163.707 176.187 160.769C173.809 158.671 170.731 157.551 167.654 157.272C165.135 156.992 162.757 157.691 160.799 159.23C158.84 161.189 157.581 163.707 157.161 166.365C156.882 167.764 159.12 168.603 160.099 168.743C161.078 168.883 163.736 169.722 163.876 168.323Z" fill="#F5EE30"/>
<path d="M142.755 164.126C142.755 164.126 145.833 145.1 160.382 148.877C174.931 152.655 174.232 167.903 170.175 175.038C166.118 182.173 160.242 185.67 151.849 181.753C143.455 177.836 139.957 169.022 142.755 164.126Z" fill="#262626"/>
<path d="M145.69 162.448C146.25 159.09 147.509 155.872 149.328 153.074C150.027 152.095 150.867 151.256 151.566 150.416C151.706 150.137 151.146 150.696 151.007 150.836C150.867 150.976 150.167 151.116 150.727 150.976C150.447 150.976 151.007 150.836 151.007 150.836C151.426 150.696 151.846 150.556 152.126 150.556C155.903 150.137 159.68 150.976 162.758 153.074C168.354 156.572 170.452 163.287 169.473 169.722C169.053 172.52 168.214 175.178 166.675 177.556C166.115 178.536 165.416 179.375 164.716 180.214C164.437 180.494 164.017 180.774 163.737 181.194C163.178 181.753 164.297 180.634 164.437 180.774C163.737 180.914 162.898 181.054 162.198 181.334C161.079 181.473 160.1 181.473 158.981 181.194C154.084 180.354 149.608 177.416 146.95 173.22C145.131 170.002 143.872 165.805 145.69 162.448C146.11 161.748 143.452 163.007 143.312 163.147C141.913 163.707 140.794 164.686 139.955 165.805C138.136 169.302 139.255 173.499 141.074 176.577C143.732 180.914 148.069 183.852 153.105 184.831C158.421 185.95 163.597 183.152 167.654 179.795C170.872 177.137 173.39 173.639 174.789 169.722C177.027 163.007 176.048 154.753 170.452 150.137C167.095 147.479 162.898 146.08 158.701 146.359C154.364 146.779 150.167 149.437 146.95 152.375C143.172 156.012 140.794 160.629 139.955 165.805C139.815 166.644 142.193 165.245 142.473 165.106C143.032 164.686 145.411 163.427 145.69 162.448Z" fill="#262626"/>
<path d="M138.978 163.427C138.978 163.427 142.055 144.541 156.605 148.178C171.154 151.816 170.454 167.204 166.397 174.339C162.34 181.474 156.465 184.971 148.071 181.054C139.677 177.137 136.32 168.323 138.978 163.427Z" fill="#F5EE30"/>
<path d="M141.635 163.846C142.194 160.489 143.453 157.271 145.272 154.473C146.671 152.235 148.629 150.416 151.008 149.297C153.806 148.318 157.023 148.598 159.541 150.276C165.277 153.634 167.096 160.489 166.256 166.784C165.837 169.722 164.857 172.38 163.318 174.898C161.22 178.116 158.142 181.333 154.085 181.613C149.749 181.893 145.132 177.976 142.894 174.479C140.935 171.401 139.676 167.344 141.635 163.846C141.914 163.147 137.018 161.608 136.318 163.007C134.5 166.504 135.619 170.701 137.578 173.919C140.375 178.256 144.712 181.333 149.749 182.732C154.505 184.131 159.681 183.991 163.738 181.054C166.956 178.536 169.194 175.178 170.453 171.401C172.692 164.686 171.572 156.572 166.116 151.815C160.241 146.639 149.329 144.541 143.034 150.137C139.396 153.634 137.018 158.251 136.318 163.287C136.179 164.126 141.355 165.105 141.635 163.846Z" fill="#262626"/>
<path d="M137.718 176.577C137.718 176.577 126.526 203.017 100.505 213.09C85.2565 219.245 68.3291 220.225 52.3809 216.028C52.3809 216.028 52.6607 202.598 64.8316 186.789C77.0026 170.981 111.977 161.328 137.018 157.551C162.06 153.774 178.148 173.919 164.158 174.339C164.158 174.339 163.599 182.593 158.422 178.675C158.422 178.675 155.205 185.53 148.07 183.572C144.013 182.313 140.376 179.935 137.718 176.577Z" fill="white"/>
<path d="M134.36 176.717C133.241 179.095 132.122 181.473 130.723 183.572C127.365 189.168 123.308 194.344 118.552 198.821C105.262 211.691 86.7953 217.567 68.3289 216.448C63.7123 216.308 59.0958 215.608 54.6191 214.209L55.8781 215.328C55.8781 215.049 56.018 214.769 55.8781 215.328C56.018 214.909 56.018 214.489 56.018 214.069C56.2978 212.391 56.5776 210.852 56.9973 209.173C58.3963 203.577 60.7745 198.261 63.7123 193.365C66.5103 188.468 70.2875 184.131 74.7642 180.494C79.101 177.276 83.8574 174.618 88.8937 172.52C100.085 167.624 111.837 164.126 123.868 161.748C134.64 159.51 145.832 156.992 156.324 161.888C159.821 163.567 163.738 165.945 165.417 169.442C165.977 170.282 165.977 171.261 165.557 172.24C165.557 172.1 165.837 171.821 165.557 172.24C165.277 172.66 165.557 172.1 165.697 172.24C165.837 172.38 164.997 172.52 165.557 172.38C164.858 172.52 166.117 172.24 165.557 172.38C166.117 172.24 165.557 172.38 165.417 172.38C165.277 172.38 166.256 172.24 165.417 172.38C165.277 172.38 164.718 172.52 165.277 172.38C165.837 172.24 164.718 172.38 164.578 172.38C163.598 172.38 160.661 172.94 160.521 174.339C160.521 175.178 160.241 176.017 159.961 176.857C159.821 177.276 159.402 178.116 159.402 178.116C159.402 178.116 158.982 178.256 159.681 177.976C160.381 177.836 161.08 177.696 161.92 177.556L160.94 176.857C158.702 175.738 156.184 176.437 154.785 178.396C154.505 178.955 154.925 178.116 154.645 178.675C154.225 179.235 153.806 179.935 153.246 180.354C152.826 180.774 152.267 181.194 151.567 181.473C151.567 181.473 151.567 181.473 151.427 181.473C151.008 181.473 150.448 181.333 150.028 181.333C146.251 180.354 143.034 178.116 140.655 175.178C139.256 173.219 132.681 175.178 134.22 177.416C137.718 182.033 143.034 184.831 148.769 185.39C154.085 185.81 159.122 182.872 161.5 178.116L155.345 179.795C158.422 181.893 163.319 181.893 165.697 178.675C166.676 177.276 167.236 175.598 167.376 173.779L163.319 175.738C166.536 175.598 171.992 174.479 172.552 170.561C172.972 167.204 169.894 164.126 167.516 162.168C163.319 158.95 158.562 156.712 153.386 155.732C146.531 154.473 139.536 154.473 132.681 155.872C118.971 158.111 105.541 161.608 92.531 166.365C81.4792 170.561 69.3082 176.017 61.7538 185.39C56.7175 191.686 52.8004 198.96 50.4222 206.655C49.4429 209.732 48.7434 212.95 48.6035 216.168C48.6035 216.727 49.4429 217.147 49.8626 217.287C54.0595 218.546 58.3963 219.385 62.7331 219.665C73.0854 220.505 83.5776 219.525 93.6502 216.727C110.718 211.831 125.547 200.919 135.06 185.95C137.158 182.732 139.117 179.375 140.655 175.878C141.215 174.479 138.697 174.199 137.857 174.199C136.878 174.758 134.92 175.318 134.36 176.717Z" fill="#262626"/>
<path d="M140.654 177.136C140.654 176.996 140.794 176.857 140.794 176.717V176.857C141.354 175.737 142.613 175.178 143.732 175.458H143.592C145.69 176.017 147.509 176.996 149.188 178.395C149.328 178.535 149.328 178.395 149.328 178.256L149.747 172.1C149.747 171.68 149.607 171.261 149.468 170.841C149.188 170.281 148.908 169.582 148.488 169.022C148.209 168.603 147.929 168.183 147.509 167.763C147.369 167.623 147.089 167.344 147.089 167.623L146.67 173.779L146.81 173.639C145.271 172.38 143.452 171.54 141.633 170.841C140.374 170.281 138.975 170.701 138.276 171.82C138.136 172.1 137.996 172.38 137.996 172.66C137.996 173.079 138.136 173.499 138.276 173.919C138.556 174.478 138.835 175.178 139.255 175.737C139.535 176.157 139.815 176.577 140.234 176.996C140.374 177.276 140.654 177.556 140.654 177.136Z" fill="#262626"/>
<path d="M157.302 171.681C157.302 171.821 157.441 171.961 157.441 172.101L157.302 171.681C157.441 172.52 157.441 173.499 157.302 174.479L157.441 174.059C157.162 175.458 156.602 176.997 155.903 178.256C155.763 178.676 155.903 179.235 156.182 179.515C156.602 179.935 157.162 180.215 157.721 180.215C158.98 180.494 160.239 180.075 160.939 178.955C161.918 177.137 162.618 175.038 162.757 172.94C162.757 172.24 162.757 171.401 162.478 170.702C161.778 169.722 160.519 169.163 159.26 169.582C158.281 169.862 156.882 170.562 157.302 171.681Z" fill="#262626"/>
<path d="M136.6 171.121H145.833C146.673 170.981 147.512 170.702 148.211 170.282C148.911 169.862 149.61 169.303 150.03 168.603C150.31 168.183 150.59 167.484 150.31 167.064C150.03 166.645 149.331 166.645 148.771 166.645H139.538C138.699 166.784 137.859 167.064 137.16 167.484C136.46 167.904 135.761 168.463 135.341 169.163C135.061 169.582 134.781 170.282 135.061 170.702C135.341 171.121 136.04 171.261 136.6 171.121Z" fill="#F5EE30"/>
<path d="M153.106 112.505C153.106 112.505 144.013 83.546 146.391 78.9294C148.769 74.3128 165.836 70.5356 166.816 74.5926C167.795 78.6496 159.821 82.0071 159.821 82.0071C159.821 82.0071 164.158 86.7636 160.38 94.4579" fill="white"/>
<path d="M155.485 112.644C152.967 104.81 150.868 96.8362 149.329 88.8621C148.91 86.9035 148.63 84.8051 148.49 82.7066C148.49 82.0071 148.49 81.1678 148.63 80.4683C148.49 81.0279 148.63 80.3284 148.77 80.1885C149.05 79.7688 148.49 80.6082 148.91 80.0486C149.05 79.7688 149.329 79.489 149.609 79.3491C151.428 77.9501 153.526 76.9709 155.765 76.4113C158.143 75.5719 160.801 75.1522 163.319 75.1522C163.879 75.1522 164.298 75.1522 164.858 75.2921L165.278 75.432C164.998 75.2921 164.998 75.2921 165.278 75.432C165.557 75.5719 165.557 75.5719 165.138 75.2921C164.578 75.0123 164.438 74.5926 164.578 74.4527C164.718 74.3128 164.578 74.7325 164.578 74.8724C164.298 75.432 164.019 75.8517 163.739 76.2714C162.2 77.9501 160.381 79.2092 158.283 79.9087C157.024 80.4683 157.443 82.2869 158.143 82.9864C158.283 83.1263 158.702 83.6859 158.563 83.546C158.702 83.8258 158.842 83.9657 158.842 84.2455C158.982 84.5253 159.122 84.945 159.262 85.3647C159.962 88.0227 159.542 90.9605 158.283 93.3388C157.164 95.717 161.64 98.375 162.899 95.717C164.998 91.1004 165.278 84.945 161.78 80.888L161.64 83.9657C165.557 82.2869 172.972 76.831 167.936 72.3543C165.977 70.6755 163.039 70.5356 160.661 70.6755C157.443 70.9553 154.226 71.6548 151.288 72.774C148.91 73.7533 145.972 75.0123 144.713 77.2507C144.013 78.9294 143.734 80.888 144.153 82.5667C144.853 88.4424 145.972 94.318 147.791 100.194C148.91 104.251 150.029 108.308 151.288 112.365C151.568 113.624 152.687 114.603 154.086 114.743C155.065 114.883 155.905 114.043 156.044 113.204C155.485 113.064 155.485 112.784 155.485 112.644Z" fill="#262626"/>
<path d="M179.127 73.893C179.127 73.893 180.526 69.1365 176.748 69.1365C172.971 69.1365 163.318 73.893 170.033 76.9707C170.033 76.9707 165.277 79.209 167.795 81.8671C169.054 83.4059 171.013 84.2453 172.971 84.2453C172.971 84.2453 167.096 87.4629 169.754 89.8412C172.412 92.2194 177.168 91.7997 180.665 89.5614C184.163 87.323 179.546 83.5458 179.546 83.5458C179.546 83.5458 185.002 75.0121 179.127 73.893Z" fill="white"/>
<path d="M181.226 75.292C181.506 74.1728 181.506 73.0536 181.226 71.9344C180.107 69.2764 177.589 67.4578 174.791 67.4578C172.972 67.5977 171.153 68.1572 169.615 68.9966C168.216 69.6961 166.397 70.6754 165.837 72.3541C164.858 75.0122 168.775 77.5303 170.594 78.5096L168.216 75.292C166.257 76.1313 164.298 77.95 165.418 80.1883C166.817 82.5666 168.915 84.3852 171.433 85.3645C172.552 85.9241 173.672 86.064 174.931 86.064L171.293 82.5666C170.034 83.2661 168.915 84.1054 167.936 85.0847C165.977 87.463 168.355 89.8412 170.314 91.2402C172.832 93.0588 176.05 93.6184 179.128 92.779C181.366 92.2194 184.723 90.8205 184.164 88.0225C183.464 85.9241 182.065 83.9656 180.247 82.7065L181.786 85.0847C182.765 83.406 183.604 81.7272 184.024 79.7687C184.723 75.9915 181.226 72.9137 177.729 72.0744C176.609 71.7946 177.449 73.1935 177.729 73.6132C178.428 74.5925 179.407 75.292 180.666 75.5718H180.946C181.086 75.7117 181.226 75.5718 180.946 75.5718L180.247 75.1521L179.687 74.5925C179.547 74.4526 179.687 74.4526 179.687 74.5925C179.687 74.4526 179.687 74.4526 179.687 74.5925C179.687 74.7324 179.827 74.7324 179.827 74.8723C179.827 75.0122 179.827 75.1521 179.827 75.292C179.827 76.2712 179.687 77.2505 179.267 78.0899C178.848 79.349 178.288 80.4681 177.589 81.5873C177.169 82.2868 178.708 83.5459 179.128 83.9656C179.547 84.3852 178.708 83.5459 178.988 83.8256L179.407 84.2453C178.988 83.8257 179.407 84.1054 179.407 84.2453C179.407 84.3852 179.547 84.3852 179.407 84.2453L179.687 84.5251C179.827 84.8049 179.687 84.5251 179.827 84.8049C179.967 85.0847 180.107 85.5044 180.107 85.9241C179.967 87.1832 178.708 87.8827 177.729 88.3023C176.33 89.0018 174.931 89.4215 173.392 89.4215C172.692 89.4215 171.993 89.4215 171.433 89.2816C171.293 89.2816 170.594 89.0018 170.594 89.0018C170.594 89.0018 171.014 89.4215 171.014 89.2816C171.153 89.4215 171.433 89.7013 171.573 89.8412C171.573 89.7013 171.573 89.7013 171.573 89.7013C171.573 89.5614 171.573 89.2816 171.573 89.1417C171.713 88.722 171.853 88.4422 172.133 88.1625C172.692 87.463 173.392 86.9034 174.091 86.3438L174.931 85.7842C175.071 85.7842 175.49 85.5044 175.21 85.6443C176.469 84.9448 172.552 82.007 171.573 82.1469H171.293C170.874 82.1469 170.594 82.007 170.174 82.007C169.894 82.007 169.615 81.8671 169.475 81.5873C169.894 81.8671 169.475 81.8671 169.615 81.5873C169.754 81.3075 169.615 81.1676 169.615 81.0277C169.894 79.9085 171.293 78.7894 172.273 78.3697C173.532 77.8101 170.314 75.4319 169.894 75.1521C169.615 75.0122 169.195 74.7324 169.615 75.0122C170.034 75.292 170.034 75.4319 170.314 75.7117C170.314 75.5718 170.314 75.4319 170.314 75.292C170.454 74.7324 170.734 74.0329 171.153 73.6132C172.412 72.3541 174.091 71.5148 175.77 70.9552C176.609 70.6754 177.309 70.3956 178.148 70.3956C178.428 70.3956 178.708 70.3956 178.988 70.3956C179.827 70.3956 178.008 69.6961 177.589 69.1365C177.169 68.5769 177.309 68.7168 177.449 69.1365C177.589 70.1158 177.589 70.9552 177.309 71.9344C177.169 72.2142 177.729 72.9137 177.868 73.0536C178.288 73.6132 178.848 74.0329 179.407 74.4526C179.547 75.292 180.946 76.1313 181.226 75.292Z" fill="#262626"/>
<path d="M172.833 79.3491C173.813 79.0693 174.792 78.6496 175.631 78.09C176.611 77.5304 177.73 77.1107 178.849 76.9708H178.709H179.129C179.408 76.9708 179.269 76.691 179.269 76.5511C178.989 76.1314 178.709 75.5718 178.429 75.292C178.009 74.7325 177.59 74.3128 177.03 73.8931L176.611 73.6133C176.471 73.4734 176.191 73.3335 176.051 73.3335C174.792 73.3335 173.673 73.7532 172.554 74.3128C171.574 75.0123 170.595 75.432 169.476 75.7117C169.336 75.7117 169.756 76.5511 169.756 76.5511C170.035 77.1107 170.455 77.5304 170.875 77.9501C171.294 78.3698 171.714 78.7895 172.274 79.2092C172.274 79.2092 172.554 79.3491 172.833 79.3491Z" fill="#262626"/>
<path d="M176.327 85.5046C177.027 85.2248 177.586 85.0849 178.286 84.945H178.006C178.426 84.945 178.706 84.8051 179.125 84.8051H179.685H179.965C180.104 84.8051 180.524 84.8051 179.965 84.8051C179.965 84.8051 180.804 84.8051 180.804 84.6652C180.804 84.5253 180.104 84.2455 180.104 84.2455C179.545 84.1056 178.845 83.9657 178.286 83.8258C177.726 83.6859 177.027 83.6859 176.467 83.6859C174.788 83.6859 173.11 84.1056 171.571 84.6652C171.291 84.8051 171.711 84.945 171.711 84.945C172.27 85.0849 172.69 85.2248 173.25 85.3647C173.949 85.5046 174.648 85.6445 175.208 85.6445C175.488 85.7844 175.908 85.7844 176.327 85.5046Z" fill="#262626"/>
<path d="M69.1681 136.706C82.0386 138.665 95.1889 138.105 107.919 135.307C113.935 134.188 119.811 132.23 125.267 129.572C127.785 128.313 129.883 126.634 131.702 124.535C133.241 122.717 134.36 120.339 136.878 119.639C138.277 119.219 137.298 116.421 136.878 115.582C136.179 114.323 134.919 113.064 133.381 113.623C131.002 114.463 129.603 116.421 128.204 118.38C126.666 120.339 124.847 122.017 122.609 123.276C117.153 125.934 111.417 127.893 105.541 129.012C93.2303 131.81 80.4997 132.23 68.049 130.411C64.4117 129.851 66.65 136.147 69.1681 136.706Z" fill="#262626"/>
<path d="M52.2402 173.079C83.8568 175.737 114.914 163.846 136.738 140.903C142.473 134.748 147.51 127.753 151.427 120.199C151.707 119.639 148.209 119.359 147.929 119.359C147.09 119.359 144.992 119.219 144.432 120.199C131.002 145.8 105.261 164.686 76.862 170.142C69.4475 171.541 61.7531 171.96 54.1987 171.401C53.4992 171.261 50.2816 171.121 49.8619 171.96C49.4423 172.8 51.8205 172.94 52.2402 173.079Z" fill="#262626"/>
<path d="M142.053 190.147C139.395 196.023 135.897 201.479 131.84 206.375C127.923 211.132 123.306 216.028 117.571 218.546C116.172 219.106 117.99 220.085 118.69 220.225C120.229 220.785 121.907 220.785 123.446 220.225C129.462 217.567 134.358 212.671 138.555 207.634C142.752 202.458 146.249 196.862 149.047 190.847C149.467 190.007 142.892 188.329 142.053 190.147Z" fill="#262626"/>
<path d="M217.179 7.58239C218.438 7.1627 219.558 6.88291 220.817 6.46322L222.775 5.90363L223.894 5.62384C224.174 5.62384 225.433 5.20415 224.594 5.48394C226.412 5.06425 228.371 4.64457 230.19 4.36477C232.428 3.94508 234.666 3.66529 236.905 3.2456L238.583 2.96581C237.744 3.1057 238.723 2.96581 239.003 2.96581L239.982 2.82591C241.241 2.68601 242.64 2.54611 243.9 2.54611C245.159 2.54611 246.697 2.40622 247.957 2.26632H249.076H251.594C253.133 2.26632 254.532 2.26632 255.931 2.40622C256.63 2.40622 257.33 2.40622 258.029 2.54611C258.449 2.54611 257.889 2.54611 257.889 2.54611H258.449L259.708 2.68601C265.583 3.2456 271.319 4.36477 277.055 6.32332C283.35 8.42177 289.226 11.4995 294.542 15.2767C307.972 25.0695 316.646 39.8985 321.402 55.7068C324.76 66.4788 327.278 77.5306 328.957 88.7224C330.076 95.997 330.216 103.412 329.376 110.686C328.957 115.023 327.698 119.08 325.459 122.717C325.04 123.417 324.62 123.976 324.06 124.536C323.92 124.816 323.641 124.956 323.361 125.235L322.941 125.515C322.801 125.655 323.221 125.375 322.801 125.655L322.102 126.075C321.962 126.215 321.122 126.494 321.542 126.355C321.962 126.215 321.122 126.494 320.982 126.494C320.423 126.774 321.542 126.355 321.262 126.494L320.843 126.634C320.423 126.634 321.822 126.494 321.262 126.634C320.703 126.774 321.962 126.634 321.822 126.634C320.982 126.634 322.801 126.774 321.962 126.634C322.941 126.774 322.521 126.774 322.102 126.634C322.521 126.774 322.941 126.774 322.102 126.634C322.381 126.774 322.381 126.914 321.962 126.494L321.402 126.075C321.122 125.795 321.682 126.355 321.402 126.075C321.122 125.795 321.262 125.935 321.122 125.795C320.982 125.655 320.843 125.515 320.703 125.235C320.143 124.536 319.723 123.696 319.723 122.857C319.584 121.738 319.584 120.619 319.863 119.64C320.283 118.66 320.703 117.681 321.402 116.842C321.822 116.282 322.242 115.862 322.661 115.443C323.081 115.023 323.501 114.603 324.06 114.323C324.62 113.904 325.319 113.484 326.019 113.064L326.998 112.505L327.558 112.225L327.977 112.085L328.957 111.805L330.216 111.386L330.915 111.246C331.055 111.246 331.755 111.106 331.195 111.106H331.475L332.174 110.966L333.433 110.826C332.734 110.826 333.993 110.686 333.433 110.826H334.273C334.832 110.826 335.951 110.826 334.972 110.826H336.511H337.21C336.091 110.826 336.931 110.826 337.21 110.826L338.749 111.106C338.05 110.966 339.309 111.106 338.749 111.106L339.449 111.246C340.008 111.386 340.568 111.525 341.128 111.665C341.128 111.665 340.848 111.525 341.267 111.665L342.107 111.945C342.666 112.085 343.226 112.365 343.646 112.505C344.485 112.924 345.464 113.344 346.304 113.764C348.402 114.883 350.361 116.282 352.179 117.961C363.371 128.173 368.128 143.981 370.646 158.391C371.625 163.847 372.185 169.303 372.604 174.759C372.744 176.577 379.739 176.437 379.599 174.899C378.2 157.132 374.983 137.266 363.651 122.717C357.076 113.904 346.863 108.448 335.951 108.168C328.537 107.888 319.584 109.847 314.687 115.722C311.609 119.36 311.47 125.095 316.086 127.614C322.242 130.831 329.796 128.313 333.014 122.158C333.293 121.738 333.433 121.318 333.573 120.899C335.672 115.862 336.791 110.546 336.791 105.09C336.931 95.997 335.951 87.0436 333.993 78.0902C330.076 58.3648 324.34 37.8 310.21 22.8311C300.138 12.3389 287.267 5.20415 272.998 2.26632C260.407 -0.251812 247.397 -0.671504 234.666 1.00725C227.392 1.84663 220.397 3.3855 213.402 5.48394L212.423 5.76374C211.164 6.18343 211.164 7.0228 212.423 7.44249C213.822 8.14197 215.501 8.14198 217.179 7.58239Z" fill="#262626"/>
<path d="M57.6976 223.163H554.75C570.978 223.163 584.128 236.314 584.128 252.542V567.588C584.128 583.816 570.978 596.967 554.75 596.967H57.6976C41.4696 596.967 28.3193 583.816 28.3193 567.588V252.542C28.4592 236.314 41.6095 223.163 57.6976 223.163Z" fill="#262626"/>
<path d="M555.311 593.75H66.7924C62.0359 593.75 56.5799 594.169 51.9633 593.05C40.0721 589.972 31.8182 579.2 31.8182 566.889C31.8182 565.211 31.8182 563.532 31.8182 561.853V266.811C31.8182 261.635 31.6783 256.319 31.8182 251.143C32.3778 237.433 43.4296 226.661 57.1395 226.241H552.513C555.731 226.101 558.948 226.521 562.026 227.361C573.218 230.998 580.772 241.35 580.772 253.102C580.772 258.977 580.772 264.713 580.772 270.589V564.511C580.772 565.77 580.772 567.169 580.772 568.428C580.352 582.278 569.161 593.33 555.311 593.75C553.492 593.61 551.814 594.869 551.394 596.547C551.114 598.086 552.233 599.625 553.772 599.905C553.912 599.905 554.052 599.905 554.192 599.905C569.021 599.905 582.031 590.112 586.368 575.983C587.347 572.205 587.767 568.288 587.627 564.371V270.029C587.627 264.013 587.627 257.998 587.627 251.982C587.487 233.656 572.238 219.946 554.332 219.946H60.7768C59.3778 219.946 58.1188 219.946 56.7198 219.946C41.8908 220.646 29.3001 230.998 25.8027 245.267C24.2638 251.703 24.9633 259.117 24.9633 265.692V562.692C24.9633 564.371 24.9633 566.19 24.9633 567.869C25.1032 580.319 32.2379 591.511 43.5695 596.827C50.4245 600.045 57.1395 599.905 64.2742 599.905H554.192C558.249 600.045 559.927 593.75 555.311 593.75Z" fill="#262626"/>
<path d="M554.33 257.578H87.2158V566.609H554.33V257.578Z" fill="white"/>
<path d="M57.9784 424.894C65.2411 424.894 71.1287 419.006 71.1287 411.744C71.1287 404.481 65.2411 398.594 57.9784 398.594C50.7157 398.594 44.8281 404.481 44.8281 411.744C44.8281 419.006 50.7157 424.894 57.9784 424.894Z" fill="#262626"/>
<path d="M67.6325 411.604C67.6325 416.5 64.8345 420.837 60.4978 422.936C59.6584 423.215 58.819 423.495 57.9796 423.495C57.2801 423.495 58.6791 423.635 57.6998 423.495H57.42C57.42 423.495 56.7206 423.355 56.3009 423.215C54.0625 422.516 52.2439 420.977 50.8449 419.158C47.9071 415.241 47.4874 409.785 49.8656 405.449C50.9848 403.35 52.8034 401.671 54.9019 400.552C55.7413 400.132 56.5807 399.853 57.42 399.713C57.9796 399.573 58.5392 399.573 59.0988 399.713C64.1351 400.972 67.4926 406.428 67.6325 411.604C67.6325 413.283 74.6273 413.423 74.6273 411.604C74.4874 405.449 70.4304 399.993 64.5548 398.174C57.9796 396.075 49.7257 396.915 44.8294 402.371C40.7724 406.987 40.2128 413.702 43.4304 418.879C47.2076 424.894 55.0418 426.713 61.6169 425.734C68.7517 424.614 74.4874 419.019 74.4874 411.744C74.6273 410.065 67.6325 409.925 67.6325 411.604Z" fill="white"/>
<path d="M569.44 405.729C569.44 405.729 565.383 406.988 566.782 410.765C568.181 414.542 573.077 412.864 572.797 409.086C572.937 407.408 571.678 405.869 569.859 405.729C569.72 405.729 569.58 405.729 569.44 405.729Z" fill="white"/>
<path d="M244.323 335.5C233.551 334.101 222.079 333.262 212.146 338.158C203.613 342.355 198.297 351.308 197.457 360.682C196.898 365.718 197.597 370.754 199.276 375.65C200.955 380.267 204.452 383.904 208.789 386.003C213.825 388.381 219.421 389.92 225.017 390.2C231.032 390.899 237.048 390.06 242.644 387.961C247.54 386.003 251.597 382.226 253.696 377.469C255.654 372.433 254.955 366.837 254.115 361.661C253.556 358.443 248.1 357.604 245.582 357.884L226.556 359.562C225.017 359.702 220.121 360.262 221.38 362.92C222.499 365.438 227.535 365.998 229.773 365.858L248.799 364.179L240.266 360.402C241.385 367.536 242.364 376.35 235.789 381.246C235.089 381.806 234.39 382.226 233.551 382.645C232.991 382.925 232.431 383.205 231.872 383.345C231.172 383.625 230.473 383.764 229.773 383.904C229.773 383.904 227.675 384.184 228.934 384.044C228.374 384.044 227.675 384.184 226.975 384.184H225.716C227.255 384.184 225.157 384.184 225.017 384.044L223.758 383.904C221.659 383.764 225.017 384.184 223.338 383.904C222.499 383.764 221.519 383.485 220.68 383.345C220.96 383.345 221.939 383.764 220.82 383.345C220.68 383.345 219.001 382.645 219.561 382.925C220.26 383.205 218.722 382.505 218.861 382.505L217.882 381.946C216.623 381.246 218.302 382.365 217.183 381.526C216.903 381.246 216.623 381.106 216.343 380.827C214.944 379.428 213.965 377.889 213.266 376.07C211.867 372.153 211.307 368.096 211.587 363.899C212.007 356.485 215.084 348.79 221.38 344.454C222.918 343.334 224.737 342.495 226.696 341.935C226.556 341.935 228.374 341.516 227.675 341.656C227.395 341.656 228.934 341.376 229.214 341.376L230.333 341.236C228.934 341.376 231.032 341.236 231.312 341.236C232.431 341.236 233.551 341.236 234.67 341.236C232.991 341.236 234.95 341.236 235.229 341.236L237.048 341.376C239.426 341.516 241.804 341.935 244.183 342.215C246.001 342.495 251.178 342.355 251.457 339.697C251.737 337.039 246.001 335.78 244.323 335.5Z" fill="#F5EE30"/>
<path d="M272.439 350.189C268.522 350.189 265.165 352.708 262.787 355.505C260.129 358.443 258.31 361.941 257.471 365.718C255.932 375.371 263.626 384.604 271.32 389.36C277.895 393.417 286.709 394.117 293.284 389.78C299.719 385.303 302.098 376.91 299.16 369.635C296.781 363.899 293.004 358.863 288.108 354.946C284.471 352.008 279.854 349.63 275.097 349.91C272.439 350.05 275.237 354.806 275.937 355.645C276.916 357.184 278.175 358.443 279.714 359.562C280.693 360.402 281.813 360.822 282.932 360.961C284.191 360.822 285.31 360.961 286.429 361.381C286.709 361.521 287.129 361.661 287.408 361.661C286.849 361.381 287.688 361.801 287.688 361.801L288.528 362.36C287.548 361.661 288.947 362.64 288.947 362.78C288.807 362.64 287.968 361.941 288.807 362.78C289.227 363.06 289.787 363.34 288.667 362.5C288.807 362.64 289.227 363.34 289.367 363.34C289.507 363.34 288.388 361.941 289.227 363.2L289.787 364.039C289.647 363.899 289.087 362.92 289.647 364.039C289.787 364.179 290.066 365.018 289.787 364.179C289.927 364.599 290.066 365.018 290.206 365.438C290.486 366.417 290.486 367.257 290.486 368.236C290.486 369.635 290.066 371.034 289.647 372.293C288.667 374.811 286.989 377.05 284.89 378.728C280.414 382.086 274.398 382.645 269.222 380.547C269.921 380.827 268.382 379.987 268.103 379.987C267.263 379.428 267.823 379.987 268.103 379.987L267.263 379.428C266.983 379.288 266.284 378.588 267.403 379.568C266.564 378.868 267.543 379.847 267.683 379.847C267.543 379.847 267.123 379.148 267.123 379.148L267.683 379.847C267.403 379.288 267.263 379.288 267.543 379.847C268.103 380.547 267.543 379.708 267.403 379.568C266.983 378.868 267.683 380.407 267.403 379.568C267.403 379.428 266.983 378.588 267.263 379.008C267.543 379.428 267.123 378.588 267.123 378.448C266.844 377.189 266.983 375.79 267.263 374.531C268.103 371.174 269.642 368.236 272.02 365.718C274.118 363.34 276.776 361.241 279.994 361.241C282.652 361.241 279.714 356.205 279.154 355.505C277.756 353.407 275.237 350.189 272.439 350.189Z" fill="#262626"/>
<path d="M380.302 359.143C376.385 349.91 365.893 345.433 356.52 349.07C349.525 352.008 344.769 358.723 344.349 366.278C343.789 375.371 349.945 383.765 357.919 387.682C364.914 391.039 373.447 390.2 377.924 383.345C382.96 375.371 382.541 364.599 379.183 356.205C377.924 352.987 375.266 350.469 371.908 349.49C368.971 348.79 367.572 350.749 368.271 353.407C369.95 359.283 371.209 365.438 372.048 371.454C372.888 377.189 373.587 383.065 371.769 388.661C370.37 393.138 367.012 397.055 362.256 398.174C361.136 398.454 360.017 398.454 358.898 398.314C359.318 398.314 359.178 398.314 358.618 398.174C358.199 398.034 357.919 398.034 357.499 397.894C358.758 398.314 357.359 397.754 357.079 397.614C358.618 398.314 356.66 397.474 356.38 397.055C357.219 397.754 357.219 397.754 356.66 397.195L356.24 396.775C356.939 397.474 356.939 397.614 356.52 396.915C356.1 396.215 356.1 396.355 356.66 397.055C356.52 396.775 356.24 396.495 356.1 396.215C356.38 396.775 356.38 396.775 356.1 396.215C354.841 392.998 352.183 390.48 348.825 389.5C346.167 388.941 344.069 390.62 345.188 393.417C349.665 404.469 364.074 413.842 375.546 406.428C385.618 399.853 385.059 386.702 383.66 376.21C382.68 369.355 381.281 362.5 379.323 355.785L368.411 353.127C370.649 358.583 370.929 364.459 369.25 370.055C368.551 372.293 367.432 374.392 365.753 376.07C364.214 377.469 362.256 378.309 360.157 378.309H359.458C358.618 378.309 360.157 378.449 359.318 378.309C358.758 378.169 358.199 378.029 357.639 377.889C359.318 378.309 356.8 377.609 356.939 377.469C357.079 377.329 357.919 378.169 357.359 377.749C356.24 376.77 357.219 378.029 357.499 377.889C357.219 377.749 357.079 377.469 356.8 377.189C356.8 377.189 357.779 378.309 357.219 377.609C356.66 376.91 357.779 378.588 357.359 377.749C357.219 377.469 357.079 377.329 356.939 377.05C356.38 376.07 356.8 376.77 356.939 377.05C356.8 376.77 356.66 376.35 356.52 376.07C356.38 375.79 356.38 375.371 356.24 375.091C356.38 375.651 356.24 375.091 356.24 374.811C355.121 366.977 360.437 359.842 368.131 358.303C368.831 358.303 369.39 358.164 370.09 358.164H370.789C371.349 358.164 370.37 358.024 371.209 358.303C371.489 358.443 371.908 358.443 372.188 358.583C371.629 358.443 371.629 358.443 372.188 358.583C371.069 358.024 370.09 357.184 369.53 355.925C370.789 359.143 373.447 361.661 376.805 362.64C379.463 363.619 381.421 361.801 380.302 359.143Z" fill="#262626"/>
<path d="M385.616 334.521L386.036 387.402C386.036 388.521 387.855 389.221 388.554 389.501C390.233 389.92 391.912 389.92 393.59 389.501C396.108 388.941 399.746 387.542 399.746 384.604L399.326 331.723C399.326 330.604 397.507 329.905 396.808 329.625C395.129 329.205 393.45 329.205 391.772 329.625C389.254 330.184 385.616 331.443 385.616 334.521Z" fill="#F5EE30"/>
<path d="M413.176 376.91L435.42 363.06C436.958 362.22 438.217 361.101 439.197 359.562C439.756 358.443 440.316 356.764 439.477 355.785C435 349.77 428.425 345.293 420.591 345.573C412.477 345.853 404.922 351.728 402.124 359.143C396.948 372.153 408.14 386.143 421.57 386.423C430.663 386.702 439.197 382.086 444.093 374.531C445.212 372.853 444.793 370.614 443.114 369.495C442.554 369.075 441.855 368.796 441.015 368.796C437.518 368.656 434.16 370.334 432.202 373.412C431.642 374.252 432.342 373.272 432.342 373.272L431.922 373.832C431.642 374.112 431.223 374.951 430.803 374.951C430.803 374.951 432.062 373.832 431.083 374.671L430.523 375.091C430.383 375.231 430.103 375.371 429.964 375.511C431.083 374.391 430.803 374.951 430.103 375.371L429.544 375.65C428.425 376.21 429.824 375.511 429.964 375.511C429.404 375.651 428.984 375.93 428.425 376.07C426.886 376.49 429.264 376.07 428.145 376.21C427.585 376.35 426.886 376.49 426.326 376.35C426.326 376.35 427.445 376.35 426.746 376.35C426.466 376.35 426.186 376.35 425.907 376.35C425.627 376.35 424.927 376.21 424.368 376.07C425.347 376.21 424.508 376.07 424.088 375.93C423.668 375.79 422.969 375.511 422.409 375.231C422.269 375.091 420.73 374.391 421.57 374.811C421.15 374.531 420.73 374.391 420.451 374.112C419.471 373.412 418.632 372.713 417.793 371.873C417.653 371.733 416.673 370.614 417.233 371.314C416.953 370.894 416.534 370.474 416.254 370.055C415.554 369.075 414.995 367.956 414.575 366.837C414.435 366.557 414.295 366.277 414.295 365.858C414.295 365.998 414.435 366.417 414.295 365.858C414.155 365.298 414.015 364.739 414.015 364.179C414.015 363.619 413.875 363.06 413.875 362.5V361.801C413.875 360.262 413.736 362.22 413.875 361.381C414.015 360.821 414.015 360.262 414.155 359.702C414.155 359.422 414.295 359.283 414.295 359.003C414.295 358.863 414.715 357.884 414.435 358.443C414.155 359.003 414.855 357.604 414.995 357.464C415.135 357.324 415.554 356.764 414.995 357.324C414.435 357.884 415.274 356.904 415.414 356.904L415.834 356.345C416.394 355.645 414.855 357.044 415.554 356.625C415.694 356.485 415.974 356.345 416.114 356.205C416.673 355.785 416.813 356.065 415.694 356.485C416.114 356.345 416.534 356.065 416.953 355.925C415.974 356.625 415.834 356.345 416.534 356.205C416.813 356.205 417.093 356.065 417.373 355.925L416.534 356.065H416.953H417.373H416.673C416.673 356.065 418.912 356.345 418.492 356.205C418.072 356.065 418.772 356.345 418.772 356.345L420.031 356.764C420.311 356.904 420.451 357.044 420.73 357.044L421.15 357.324C420.87 357.184 420.87 357.184 421.15 357.324C422.269 358.024 423.388 358.863 424.368 359.702C424.787 360.122 425.347 360.682 425.767 361.101L426.326 361.661C427.445 362.78 425.907 360.961 426.746 362.22L430.803 354.946L408.559 368.796C407.021 369.635 405.761 370.754 404.782 372.293C404.083 373.412 403.943 374.811 404.502 376.07C406.181 378.728 410.518 378.309 412.896 376.91H413.176Z" fill="#262626"/>
<path d="M318.885 349.35C309.791 349.35 303.076 358.443 300.838 366.418C298.46 375.371 302.937 384.044 310.211 389.081C317.346 393.977 326.579 394.117 333.994 389.64C341.268 384.744 344.766 375.791 342.527 367.257C340.289 358.164 331.196 348.371 321.123 349.07C317.905 349.07 315.247 351.868 315.247 355.086C315.247 355.226 315.247 355.506 315.247 355.645C315.667 358.863 318.465 362.78 322.242 362.64C322.662 362.64 323.781 362.36 324.061 362.64L323.361 362.5C323.641 362.5 323.781 362.64 324.061 362.64L324.9 362.92C325.74 363.2 323.781 362.361 324.621 362.78C324.9 362.92 325.18 363.06 325.46 363.2L326.299 363.759C325.32 362.78 326.999 364.179 326.299 363.759C326.859 364.319 327.418 364.739 327.838 365.298C328.118 365.578 328.258 365.718 328.538 365.998C329.237 366.697 327.698 364.879 328.258 365.718C328.678 366.278 328.957 366.837 329.377 367.397C329.517 367.677 330.076 368.236 329.937 368.516C329.937 367.956 329.377 367.257 329.797 368.376C329.937 368.656 330.076 369.076 330.076 369.355C330.076 369.635 330.496 370.614 330.216 369.635C329.937 368.656 330.216 369.635 330.216 369.915C330.216 370.195 330.216 370.474 330.216 370.754C330.216 372.013 330.496 370.894 330.216 370.614C330.216 370.894 330.216 371.174 330.076 371.454C329.937 372.153 329.797 372.713 329.657 373.412C329.517 374.252 330.076 372.293 329.797 373.133C329.657 373.412 329.657 373.692 329.517 373.972C329.377 374.252 328.678 375.371 328.678 375.791C328.678 375.651 329.517 374.671 328.817 375.511C328.678 375.791 328.538 375.93 328.258 376.21C327.978 376.49 327.139 377.749 326.719 377.749C326.719 377.749 328.118 376.77 326.999 377.469L326.299 378.029C325.74 378.309 325.18 378.728 324.621 379.008C324.621 378.868 326.159 378.449 324.76 378.868L323.921 379.148L322.942 379.428C322.662 379.428 321.123 379.987 322.662 379.568C321.403 379.708 320.144 379.708 318.885 379.428C318.885 379.288 320.144 379.708 319.165 379.428C318.885 379.288 318.605 379.288 318.325 379.148L317.486 378.868C315.947 378.449 318.605 379.568 317.346 378.868C316.786 378.588 316.367 378.309 315.807 378.029L315.108 377.469C315.387 377.329 316.227 378.449 315.527 377.749C315.108 377.329 314.688 377.05 314.268 376.49C314.128 376.35 313.848 375.93 313.709 375.791C314.408 376.77 314.548 376.91 314.128 376.21L313.848 375.93C313.569 375.371 313.289 374.951 313.009 374.392C313.709 374.951 313.569 375.651 313.289 374.951C313.149 374.671 313.149 374.392 313.009 374.112C313.009 373.832 312.869 373.552 312.729 373.272C313.149 373.412 313.009 374.811 312.869 373.552C312.869 373.272 312.869 372.993 312.869 372.713C312.729 372.013 312.729 373.972 312.869 372.713C312.869 372.433 313.009 372.013 313.009 371.734C313.009 371.454 313.149 369.915 313.009 371.454C313.149 370.614 313.569 369.915 313.988 369.215C314.128 368.936 314.268 368.656 314.408 368.376C314.548 368.096 315.247 366.977 314.688 367.816C314.128 368.656 314.828 367.677 314.968 367.537C315.108 367.397 315.387 366.837 315.667 366.557C316.087 365.998 316.646 365.298 317.206 364.739C317.346 364.459 317.626 364.319 317.906 364.039C317.346 364.599 317.206 364.599 317.486 364.319L318.045 363.899C318.325 363.759 318.605 363.62 318.745 363.34L319.165 363.2C319.864 362.92 319.724 362.92 318.885 363.34C319.165 363.2 319.444 363.2 319.724 363.06C320.843 362.78 318.465 363.06 319.864 363.06C323.082 363.06 325.74 360.402 325.74 357.044C325.74 356.765 325.74 356.625 325.74 356.345C325.46 352.848 322.662 349.49 318.885 349.35Z" fill="#F5EE30"/>
<g opacity="0.53">
<path d="M211.023 440.282H433.039C445.49 440.282 455.422 450.355 455.422 462.666C455.422 475.117 445.35 485.049 433.039 485.049H211.023C198.572 485.049 188.64 474.977 188.64 462.666C188.64 450.355 198.572 440.282 211.023 440.282Z" fill="#F5EE30"/>
</g>
<path d="M400.727 452.034C400.727 452.034 399.608 461.967 401.427 463.226C403.246 464.485 408.142 464.905 408.562 461.127C408.981 457.35 409.121 452.034 406.883 451.475C404.644 450.915 400.867 450.216 400.727 452.034Z" fill="white"/>
<path d="M400.028 451.614C399.748 453.573 399.748 455.532 399.748 457.49C399.748 458.749 399.748 460.148 400.028 461.407C400.168 462.526 400.867 463.366 401.846 463.785C403.945 464.905 407.862 465.184 409.121 462.526C409.401 461.827 409.541 460.988 409.541 460.148C409.541 459.169 409.681 458.19 409.681 457.21C409.821 455.532 409.541 453.853 408.841 452.314C407.862 450.635 405.903 450.355 404.085 450.215C402.826 450.215 400.168 449.936 400.028 451.614C400.028 452.174 401.427 452.874 401.567 452.314C401.707 451.055 403.805 451.335 404.644 451.475C405.344 451.614 406.043 451.754 406.743 451.894L407.023 452.034C407.023 452.034 406.883 451.894 406.883 452.034C407.023 452.174 407.163 452.454 407.302 452.594C407.862 453.993 408.002 455.532 407.862 456.93C407.862 457.77 407.862 458.609 407.722 459.449C407.722 460.148 407.582 460.987 407.442 461.687C406.603 463.785 403.525 463.925 401.707 463.086C401.567 462.946 401.846 463.086 401.707 463.086C401.846 463.226 401.846 463.086 401.846 463.226C401.846 463.366 401.707 463.086 401.707 462.806C401.567 462.386 401.427 461.967 401.427 461.547C401.287 460.428 401.147 459.169 401.287 458.05C401.287 456.231 401.427 454.272 401.567 452.454C401.567 451.754 400.028 451.055 400.028 451.614Z" fill="white"/>
<path d="M395.129 460.428C395.968 460.288 396.808 460.288 397.647 460.148H397.927V460.568C397.787 461.547 397.787 462.526 397.927 463.505C398.067 464.345 398.486 465.184 399.046 466.024C399.606 466.723 400.305 467.143 401.144 467.423C401.984 467.702 402.963 467.842 403.942 467.702C405.062 467.702 406.181 467.702 407.3 467.423C408.279 467.143 409.258 466.723 409.958 466.024C410.238 465.604 410.518 465.184 410.657 464.765C410.797 464.205 410.937 463.645 411.077 463.086C411.357 461.967 411.637 460.708 411.916 459.588V459.309H412.196C413.176 459.448 414.295 459.448 415.274 459.588C414.295 459.728 413.176 459.868 412.196 459.868L412.476 459.588C412.476 460.847 412.336 461.967 412.196 463.226C412.196 463.785 412.056 464.485 411.916 465.044C411.777 465.744 411.497 466.303 411.077 466.863C410.238 467.842 408.979 468.542 407.58 468.961C406.321 469.241 405.062 469.381 403.803 469.381C402.683 469.381 401.564 469.241 400.585 468.822C399.466 468.402 398.486 467.702 397.787 466.863C397.227 465.884 396.808 464.765 396.808 463.645C396.808 462.526 396.948 461.547 397.227 460.568L397.507 460.847C396.808 460.568 395.968 460.568 395.129 460.428Z" fill="white"/>
<path d="M395.408 461.267C396.248 461.128 397.087 461.127 397.926 460.988L397.087 459.868C396.527 462.107 397.087 464.485 398.346 466.304C399.885 468.122 402.123 468.402 404.361 468.402C406.6 468.402 409.538 467.982 410.797 466.024C411.356 465.045 411.776 463.925 411.916 462.806C412.196 461.687 412.475 460.568 412.755 459.309L412.056 459.868C413.175 460.008 414.294 460.008 415.413 460.148L415.134 458.469C414.154 458.609 413.175 458.749 412.336 458.749L413.035 460.148L413.315 459.868L411.916 459.029C411.776 460.288 411.776 461.687 411.636 462.946C411.636 464.205 411.216 465.324 410.517 466.304C408.978 467.982 406.32 468.402 404.082 468.262C402.123 468.402 400.165 467.703 398.906 466.164C397.926 464.485 397.786 462.387 398.486 460.568L396.947 460.708L397.227 460.988L397.786 459.729C396.947 459.589 396.108 459.589 395.268 459.449C394.009 459.449 394.289 461.128 395.408 461.267C396.248 461.407 396.947 461.407 397.786 461.547C398.206 461.547 398.486 461.267 398.486 460.848C398.486 460.708 398.486 460.568 398.346 460.428L398.066 460.148C397.646 459.589 396.807 459.589 396.527 460.288C395.688 462.666 395.968 465.324 397.367 467.423C399.045 469.242 401.424 470.221 403.942 470.081C405.061 470.081 404.781 468.402 403.802 468.402C402.683 468.402 402.963 469.941 403.942 470.081C406.6 470.361 409.258 469.661 411.356 467.982C413.455 466.024 413.175 462.526 413.455 459.868C413.455 459.309 413.175 458.889 412.615 458.889C412.475 458.889 412.196 458.889 412.056 459.029L411.776 459.309C411.216 459.729 411.776 460.848 412.475 460.708C413.595 460.568 414.574 460.568 415.693 460.428C416.812 460.288 416.113 458.889 415.413 458.749C414.294 458.609 413.175 458.469 412.056 458.469C411.636 458.469 411.356 458.749 411.356 459.029C410.937 460.708 410.657 462.526 410.237 464.065C409.678 466.304 407.299 466.863 405.201 466.863C403.522 467.003 401.424 467.003 400.165 465.884C398.906 464.765 398.766 462.247 399.045 460.568C399.045 460.008 398.766 459.589 398.206 459.589C398.206 459.589 398.206 459.589 398.066 459.589C397.087 459.729 396.108 459.729 395.128 459.868C394.149 460.008 394.429 461.267 395.408 461.267Z" fill="white"/>
<path d="M400.444 471.2C401.004 470.92 401.424 470.78 401.983 470.64C402.543 470.5 402.962 470.5 403.522 470.5C404.082 470.5 404.641 470.5 405.061 470.64C405.62 470.78 406.18 470.92 406.6 471.2C406.18 471.48 405.62 471.76 405.061 471.899C404.501 472.039 404.082 472.179 403.522 472.039C402.962 472.039 402.403 472.039 401.983 471.899C401.424 471.899 400.864 471.62 400.444 471.2Z" fill="white"/>
<path d="M401.005 471.9C402.964 470.92 405.202 470.92 407.16 471.9L406.041 470.64C405.202 471.2 404.083 471.48 402.964 471.48C402.404 471.48 401.844 471.48 401.425 471.34C401.005 471.2 400.585 471.06 400.166 470.78C400.026 470.64 399.606 470.361 399.746 470.78C399.886 471.2 400.166 471.48 400.445 471.76C402.404 473.159 405.062 473.298 407.16 471.9C407.44 471.76 406.321 470.78 406.181 470.64C404.083 469.661 401.704 469.661 399.746 470.64C399.606 470.64 400.166 471.34 400.166 471.34C400.166 471.34 400.865 472.039 401.005 471.9Z" fill="white"/>
<path d="M403.802 468.262C404.082 468.402 404.362 468.682 404.502 468.962C404.642 469.241 404.642 469.381 404.642 469.661C404.642 469.941 404.642 470.221 404.502 470.361C404.362 470.64 404.082 470.92 403.802 471.06C403.522 470.92 403.243 470.64 403.103 470.361C402.963 470.081 402.963 469.941 402.963 469.661C402.963 469.381 402.963 469.102 403.103 468.962C403.383 468.682 403.522 468.402 403.802 468.262Z" fill="white"/>
<path d="M403.522 468.822L403.662 468.962C403.522 468.822 403.802 469.102 403.662 468.962C403.662 468.962 403.662 469.102 403.802 469.102C403.662 468.962 403.802 469.242 403.802 469.102V469.242V469.381C403.802 469.521 403.802 469.521 403.802 469.661V469.801C403.802 469.941 403.802 469.941 403.662 470.081V469.941C403.522 470.221 403.382 470.361 403.242 470.64L403.382 470.501C403.242 470.64 403.242 470.64 403.102 470.64L404.082 470.78C404.082 470.78 404.082 470.78 403.942 470.64L403.802 470.501C403.662 470.361 403.942 470.64 403.802 470.501L403.662 470.361C403.522 470.221 403.662 470.501 403.662 470.361V470.221V470.081C403.662 470.081 403.662 470.081 403.662 469.941C403.662 469.801 403.662 469.801 403.662 469.661V469.521C403.662 469.381 403.662 469.242 403.802 469.242V469.381C403.942 469.102 404.082 468.962 404.221 468.682L404.082 468.822L404.361 468.682C404.641 468.402 404.501 467.982 404.221 467.843C404.082 467.703 403.802 467.563 403.662 467.563C403.522 467.423 403.242 467.423 403.102 467.563C402.543 467.982 402.123 468.682 402.123 469.521C402.263 470.361 402.683 471.2 403.382 471.62C403.662 471.76 404.082 471.9 404.361 471.76C404.921 471.34 405.341 470.64 405.341 469.801C405.201 468.962 404.781 468.122 404.082 467.703C403.942 467.563 403.662 467.423 403.522 467.423C403.382 467.423 403.102 467.423 403.102 467.563C402.962 468.122 403.242 468.542 403.522 468.822Z" fill="white"/>
<path d="M424.229 460.568C423.81 459.309 423.53 458.19 423.39 456.93C423.25 456.231 423.39 455.531 423.67 454.832C423.81 454.692 424.089 454.552 424.229 454.412L424.649 454.272L425.628 454.133C428.146 453.573 430.664 453.293 433.183 453.153C434.442 453.013 435.701 453.013 436.96 453.153C437.659 453.153 438.219 453.293 438.918 453.433C439.338 453.573 439.618 453.713 439.898 453.853C440.317 454.133 440.737 454.552 440.737 454.972C440.737 457.49 440.597 460.008 440.177 462.526C440.038 460.008 439.898 457.49 439.618 455.112C439.338 454.832 438.918 454.692 438.499 454.692C437.939 454.552 437.379 454.552 436.68 454.552C435.421 454.552 434.162 454.552 433.043 454.692C430.525 454.832 428.146 455.112 425.628 455.392L424.649 455.531H424.229H424.089C423.81 455.951 423.67 456.511 423.81 457.07C423.949 458.19 424.089 459.449 424.229 460.568Z" fill="white"/>
<path d="M425.067 460.428C424.648 459.169 424.228 457.77 424.228 456.511C424.228 456.091 424.088 455.392 424.508 455.112C424.648 455.112 424.788 454.972 425.067 454.972C427.306 454.412 429.544 454.133 431.782 453.853C433.181 453.713 434.44 453.713 435.839 453.713C436.959 453.713 438.777 453.573 439.757 454.412C440.316 454.832 440.176 455.671 440.176 456.231C440.176 456.791 440.176 457.63 440.036 458.19C439.896 459.589 439.757 460.988 439.617 462.386H441.295C441.156 460.848 441.156 459.169 441.016 457.63C441.016 456.791 440.876 456.091 440.876 455.252C440.876 454.832 440.596 454.412 440.316 454.273C439.057 453.713 437.798 453.573 436.539 453.713C435 453.713 433.461 453.853 431.782 453.853C429.404 453.993 427.026 454.273 424.648 454.552C423.808 454.692 423.529 455.252 423.389 456.091C423.249 457.63 423.389 459.029 423.529 460.568C423.668 461.407 425.347 461.407 425.207 460.568C425.067 459.309 424.928 458.05 424.928 456.791C424.928 456.511 425.067 456.371 424.928 456.091C425.067 455.811 425.067 455.811 424.788 455.951C424.508 456.091 424.508 456.091 424.648 455.951C424.788 455.811 424.928 455.951 425.207 455.811C427.306 455.532 429.404 455.252 431.503 455.112C432.762 454.972 434.021 454.972 435.14 454.972C436.259 454.832 437.518 454.972 438.637 455.112C438.917 455.252 438.777 455.112 438.777 455.532C438.777 455.951 438.777 456.231 438.917 456.511L439.057 458.19C439.197 459.589 439.197 460.988 439.337 462.247C439.337 463.226 441.016 463.086 441.016 462.247C441.295 460.568 441.435 458.749 441.575 457.07C441.575 455.671 441.855 454.133 440.596 453.153C439.197 452.454 437.658 452.174 436.259 452.174C434.58 452.174 432.902 452.174 431.223 452.314C428.705 452.454 426.326 452.874 423.948 453.573C421.15 454.412 422.549 458.749 423.249 460.568C423.668 461.687 425.347 461.267 425.067 460.428Z" fill="white"/>
<path d="M423.669 465.185C423.949 466.164 424.229 467.143 424.648 467.983C424.788 468.402 425.068 468.822 425.348 469.242L425.488 469.381H426.327L432.343 469.242C434.301 469.242 436.4 469.102 438.358 468.962C438.778 468.962 439.337 468.822 439.757 468.682C439.897 468.682 440.177 468.542 440.317 468.542C440.457 468.402 440.596 468.262 440.596 467.983C440.876 467.003 440.876 466.024 440.457 465.185C441.016 466.024 441.296 467.143 441.156 468.262C441.016 468.542 441.016 468.822 440.736 469.102C440.457 469.381 440.177 469.521 439.897 469.661C439.337 469.801 438.918 469.941 438.358 470.081C436.4 470.501 434.301 470.641 432.203 470.78C430.104 470.78 428.146 470.78 426.047 470.641C425.767 470.641 425.488 470.641 425.208 470.501H424.928C424.788 470.501 424.648 470.361 424.648 470.361C424.508 470.221 424.368 470.081 424.368 469.941C424.089 469.381 423.949 468.962 423.809 468.402C423.809 467.283 423.669 466.164 423.669 465.185Z" fill="white"/>
<path d="M422.968 465.324C423.247 466.863 423.807 468.262 424.646 469.521C424.926 469.941 425.346 470.221 425.905 470.221C425.206 470.221 425.905 470.221 426.045 470.221H426.605L430.802 470.081C432.76 470.081 434.859 469.941 436.817 469.801C437.937 469.801 440.035 469.801 440.874 468.962C441.714 468.122 441.574 466.304 441.154 465.045L439.755 465.324C440.315 466.024 440.595 467.003 440.315 467.982C440.035 468.962 438.496 469.102 437.657 469.241C435.698 469.521 433.74 469.801 431.781 469.801C429.823 469.801 427.864 469.801 426.045 469.661C425.206 469.521 425.066 469.381 424.926 468.402C424.646 467.423 424.646 466.304 424.646 465.324C424.646 464.345 423.108 463.925 423.108 465.045C423.108 466.863 423.108 470.361 425.206 471.06C426.325 471.34 427.304 471.48 428.424 471.34C429.823 471.34 431.222 471.34 432.481 471.34C435.139 471.48 437.797 471.06 440.315 470.221C442.693 469.381 442.273 466.583 441.154 464.765C440.734 464.065 439.475 464.065 439.755 465.184C440.035 465.744 440.035 466.444 440.035 467.143C439.895 467.703 439.755 467.842 439.196 467.982C437.937 468.122 436.817 468.262 435.558 468.262C434.159 468.262 432.76 468.402 431.361 468.402L427.724 468.542C426.885 468.542 426.185 468.542 425.346 468.682L426.185 468.822C425.905 468.262 425.626 467.843 425.486 467.143C425.206 466.444 425.066 465.744 424.926 465.045C424.087 464.205 422.548 464.205 422.968 465.324Z" fill="white"/>
<path d="M432.62 457.77C432.62 457.77 427.864 458.469 428.144 462.386C428.424 466.304 433.32 466.583 435.418 462.386C437.517 458.19 434.019 457.35 432.62 457.77Z" fill="white"/>
<path d="M432.062 457.35C430.803 457.49 429.684 458.05 428.704 458.749C427.165 460.008 426.746 462.386 427.725 464.065C428.984 465.884 431.502 466.443 433.461 465.464C434.58 464.904 435.419 464.065 435.979 462.946C436.678 461.967 436.958 460.708 436.818 459.449C436.399 457.63 433.88 456.791 432.062 457.35C431.782 457.35 431.642 457.63 431.922 457.91C432.202 458.189 432.621 458.329 433.041 458.329H433.461C433.321 458.329 433.601 458.329 433.461 458.329H433.88H434.02C433.88 458.329 434.16 458.329 434.02 458.329C434.16 458.329 434.16 458.329 434.16 458.329L434.44 458.469C434.3 458.329 434.58 458.609 434.44 458.469C434.58 458.609 434.72 458.609 434.58 458.469C434.72 458.609 435 458.889 435 459.169C435.279 460.148 435 461.127 434.58 461.967C434.16 462.946 433.461 463.785 432.621 464.345C432.342 464.625 431.922 464.765 431.502 464.905H431.222H431.083C430.943 464.905 431.222 464.905 431.083 464.905H430.663C430.523 464.905 430.803 464.905 430.663 464.905C430.523 464.905 430.383 464.905 430.383 464.905H430.243C430.243 464.905 430.383 464.905 430.103 464.905C429.823 464.905 429.823 464.765 429.963 464.905L429.684 464.765C429.544 464.765 429.823 464.765 429.684 464.765L429.544 464.625C429.404 464.485 429.264 464.345 429.264 464.205C428.424 462.666 428.704 460.847 429.963 459.728C430.523 459.309 431.222 458.889 431.922 458.609H432.062H432.202L432.482 458.469H432.761C432.901 458.469 433.041 458.329 433.041 458.189C433.041 458.05 433.041 457.91 432.901 457.91C432.901 457.49 432.481 457.35 432.062 457.35Z" fill="white"/>
<path d="M108.621 283.878C111.866 283.878 114.496 281.248 114.496 278.003C114.496 274.758 111.866 272.127 108.621 272.127C105.376 272.127 102.745 274.758 102.745 278.003C102.745 281.248 105.376 283.878 108.621 283.878Z" fill="#F5EE30"/>
<path d="M129.748 283.599C132.993 283.599 135.623 280.968 135.623 277.723C135.623 274.478 132.993 271.848 129.748 271.848C126.503 271.848 123.872 274.478 123.872 277.723C123.872 280.968 126.503 283.599 129.748 283.599Z" fill="#F5EE30"/>
<path d="M151.149 283.878C154.394 283.878 157.025 281.248 157.025 278.003C157.025 274.758 154.394 272.127 151.149 272.127C147.904 272.127 145.273 274.758 145.273 278.003C145.273 281.248 147.904 283.878 151.149 283.878Z" fill="#F5EE30"/>
<g opacity="0.53">
<path d="M320.423 538.77C329.308 538.77 336.511 531.567 336.511 522.682C336.511 513.797 329.308 506.594 320.423 506.594C311.538 506.594 304.335 513.797 304.335 522.682C304.335 531.567 311.538 538.77 320.423 538.77Z" fill="#F5EE30"/>
</g>
<path d="M318.465 515.267V529.537C318.465 529.817 318.745 530.096 318.885 530.236C319.304 530.656 319.864 531.076 320.284 531.495C320.703 531.915 321.263 532.335 321.683 532.614C321.683 532.614 322.382 533.034 322.382 532.894V518.625C322.382 518.345 322.102 518.065 321.962 517.925C321.543 517.506 321.123 517.086 320.563 516.666C320.144 516.247 319.584 515.827 319.025 515.547C319.164 515.547 318.325 515.127 318.465 515.267Z" fill="white"/>
<path d="M314.128 525.899H328.398C329.237 526.039 330.077 525.34 330.077 524.5C330.077 524.221 330.077 524.081 329.937 523.801C329.517 522.542 328.398 521.563 326.999 521.563H312.73C311.89 521.423 311.051 522.122 311.051 522.962C311.051 523.241 311.051 523.381 311.191 523.661C311.61 524.92 312.73 525.899 314.128 525.899Z" fill="white"/>
<path d="M218.579 462.246C218.579 462.946 218.439 463.506 218.299 464.205C218.159 464.905 218.439 463.925 218.159 464.485L218.019 464.905C217.879 465.044 217.879 465.324 217.739 465.464C217.6 465.604 217.32 466.024 217.6 465.744C217.32 466.024 217.18 466.303 216.9 466.583C216.76 466.723 216.76 466.723 216.62 466.863C217.04 466.443 216.48 467.003 216.48 467.003C216.201 467.283 215.921 467.423 215.501 467.563C215.641 467.563 215.921 467.283 215.501 467.563L214.802 467.842L214.242 467.982C214.802 467.842 214.242 467.982 214.102 467.982C213.682 468.122 213.263 468.122 212.983 468.122C212.563 468.122 213.543 468.122 212.843 468.122H212.283L211.304 468.262C210.605 468.122 211.584 468.402 211.024 468.262C210.605 468.122 210.325 467.982 209.905 467.842C209.905 467.842 209.206 467.423 209.625 467.702L209.206 467.423C208.926 467.143 208.646 467.003 208.366 466.723C207.807 466.303 208.506 466.863 208.226 466.583C208.087 466.443 207.807 466.164 207.667 466.024C206.828 465.044 206.408 463.785 206.268 462.386C206.268 461.967 206.268 461.687 206.268 461.267C206.268 461.687 206.268 460.987 206.268 460.987L206.408 460.568C206.408 460.288 206.548 460.148 206.548 459.868C206.548 459.728 206.688 459.449 206.548 459.868C206.688 459.449 206.967 459.029 207.107 458.609C207.107 458.609 207.527 458.05 207.247 458.329C206.967 458.609 207.527 458.05 207.527 458.05C207.807 457.77 208.087 457.49 208.366 457.21C207.947 457.49 208.366 457.21 208.506 457.21L208.926 456.93L209.346 456.651C209.625 456.511 209.625 456.511 209.346 456.651L209.765 456.511C210.185 456.371 210.465 456.231 210.885 456.091C210.325 456.231 211.304 456.091 211.444 455.951H212.004C212.703 455.811 211.724 455.951 212.144 455.951C212.563 455.951 212.983 456.091 213.403 456.091C214.102 456.231 212.983 455.951 213.682 456.091L214.382 456.371L214.942 456.651L215.221 456.791C214.942 456.651 214.942 456.651 215.221 456.791C215.641 457.07 215.921 457.35 216.34 457.63L216.76 458.189C217.04 458.469 217.32 458.889 217.6 459.309C217.32 458.889 217.739 459.588 217.739 459.588C217.739 459.588 217.879 460.008 218.019 460.288C218.159 460.568 218.159 460.708 218.159 460.848C218.159 460.987 218.299 461.687 218.299 461.267C218.439 461.407 218.439 461.827 218.579 462.246C218.579 463.506 219.838 464.485 221.097 464.345H221.237C222.636 464.205 223.615 463.086 223.755 461.687C223.615 457.21 220.817 453.153 216.62 451.614C212.004 450.075 206.967 451.335 203.89 455.112C199.973 459.728 200.672 466.583 205.289 470.5C207.807 472.599 211.304 473.438 214.522 472.879C219.978 471.899 223.755 467.143 223.895 461.687C223.755 460.428 222.636 459.449 221.377 459.588H221.237C219.558 459.728 218.579 460.987 218.579 462.246Z" fill="white"/>
<path d="M227.952 470.361L223.196 465.744L222.497 465.045C222.357 464.905 221.797 465.184 221.657 465.184C221.098 465.324 220.538 465.604 219.978 465.884C219.419 466.164 218.859 466.443 218.3 466.723C218.16 466.723 217.6 467.143 217.74 467.283L222.497 471.899L223.196 472.599C223.336 472.739 223.895 472.459 224.035 472.459C224.595 472.319 225.155 472.039 225.714 471.76C226.274 471.48 226.833 471.2 227.393 470.92C227.393 470.92 228.092 470.5 227.952 470.361Z" fill="white"/>
<path d="M339.868 188.33H416.672C421.988 188.33 426.185 192.526 426.185 197.843V260.656C426.185 265.972 421.988 270.169 416.672 270.169H339.868C334.552 270.169 330.355 265.972 330.355 260.656V197.843C330.355 192.526 334.552 188.33 339.868 188.33Z" fill="white"/>
<path d="M415.834 268.071H349.103C345.886 268.071 342.528 268.071 339.311 268.071H339.031C338.891 268.071 338.891 268.071 339.451 268.071C339.031 268.071 338.471 267.931 338.052 267.791C336.093 266.951 334.694 265.273 334.134 263.174C333.855 261.915 333.715 260.516 333.855 259.117V204.138C333.855 200.501 333.155 196.164 335.394 193.086C337.772 189.729 341.409 190.288 345.046 190.288H416.953C417.373 190.288 417.932 190.428 418.352 190.568C421.29 191.687 422.689 194.905 422.689 197.843C422.689 208.615 422.689 219.387 422.689 230.159C422.689 240.231 422.829 250.304 422.689 260.376C422.549 264.154 420.031 268.071 415.834 268.071C414.575 268.071 412.756 268.91 413.176 270.309C413.596 271.708 416.114 272.128 417.373 272.128C422.969 271.988 428.285 268.49 429.404 262.894C429.544 261.635 429.684 260.236 429.544 258.977V202.459C429.544 201.06 429.544 199.801 429.544 198.402C429.544 194.485 427.725 190.848 424.508 188.749C420.451 185.951 415.694 186.231 411.078 186.231H371.487C360.855 186.231 350.223 186.231 339.451 186.231C332.736 186.231 326.72 190.708 326.72 197.843C326.72 202.039 326.72 206.236 326.72 210.433V252.542C326.72 256.04 326.16 260.236 327.28 263.594C329.098 269.33 334.974 272.128 340.57 272.128H417.373C418.632 272.128 420.451 271.428 420.031 269.889C419.611 268.35 417.093 268.071 415.834 268.071Z" fill="#F5EE30"/>
<path d="M347.704 242.889L368.968 206.376C372.186 200.78 379.461 198.822 385.057 202.039C390.652 205.257 392.611 212.532 389.393 218.127L368.129 254.64C364.911 260.236 357.637 262.195 352.041 258.977C346.445 255.62 344.487 248.485 347.704 242.889Z" fill="#262626"/>
<path d="M354.836 257.438C349.8 254.5 348.121 248.065 351.059 243.029C351.059 243.029 351.059 242.889 351.199 242.889C353.018 239.811 354.836 236.733 356.655 233.516L371.344 208.334C373.443 204.837 376.241 201.619 380.577 202.878C383.795 203.858 386.313 206.516 387.152 209.733C387.852 212.391 387.572 215.329 386.173 217.707C381.976 225.262 377.5 232.536 373.163 239.951L365.888 252.542C365.329 253.801 364.489 254.92 363.65 255.899C360.992 258.697 357.634 258.837 354.277 257.018C351.899 255.759 346.163 258.697 349.94 260.795C357.494 264.713 366.867 262.334 371.484 255.06C373.303 251.982 374.981 248.904 376.8 245.827L392.189 219.246C395.546 213.371 395.127 206.376 389.95 201.759C383.095 195.604 370.924 197.562 366.028 205.396C361.411 212.951 357.075 220.785 352.598 228.479L345.603 240.65C344.904 241.909 344.204 243.169 343.645 244.428C341.406 250.443 343.785 257.158 349.38 260.376C350.919 261.215 352.738 261.215 354.277 260.376C354.976 259.956 356.375 258.277 354.836 257.438Z" fill="#262626"/>
<g opacity="0.75">
<path d="M372.603 201.34C378.199 198.122 385.474 200.081 388.692 205.676L409.676 242.329C412.894 247.925 410.935 255.2 405.339 258.417C399.743 261.635 392.469 259.676 389.251 254.081L368.267 217.428C365.049 211.832 367.008 204.557 372.603 201.34Z" fill="white"/>
<path d="M402.962 257.018C398.765 259.397 394.429 256.599 392.33 252.821L386.734 242.889L372.465 217.987C371.765 216.868 371.206 215.609 370.786 214.21C369.807 210.713 370.786 207.075 373.304 204.417C377.361 200.22 383.097 201.759 385.755 206.516C390.232 214.21 394.569 221.904 399.045 229.599L406.04 241.77C406.88 243.169 407.579 244.708 407.999 246.246C408.558 250.583 406.6 254.78 402.962 257.018C402.123 257.438 401.703 258.417 402.123 259.257C402.263 259.537 402.543 259.816 402.962 260.096C404.501 260.935 406.32 260.935 407.859 260.096C414.294 256.319 416.672 248.065 412.895 241.63C410.936 238.272 409.118 234.915 407.159 231.697C402.263 223.024 397.227 214.35 392.33 205.676C388.413 198.961 380.159 196.024 372.745 198.682C364.771 201.479 360.714 210.573 364.911 218.127C369.387 226.241 374.144 234.215 378.76 242.189L385.335 253.661C386.175 255.34 387.294 256.879 388.693 258.138C394.009 262.754 401.703 263.454 407.859 259.956C408.698 259.537 409.118 258.557 408.698 257.718C408.558 257.438 408.278 257.158 407.859 256.878C406.32 256.039 404.501 256.179 402.962 257.018Z" fill="#F5EE30"/>
</g>
<path d="M356.656 260.656C362.451 260.656 367.149 255.959 367.149 250.164C367.149 244.369 362.451 239.672 356.656 239.672C350.862 239.672 346.164 244.369 346.164 250.164C346.164 255.959 350.862 260.656 356.656 260.656Z" fill="#F5EE30"/>
<path d="M362.394 255.2C361.974 256.039 361.415 256.599 360.715 257.298C360.715 257.298 360.016 257.858 360.436 257.578L359.876 257.998L359.316 258.417C359.037 258.557 359.037 258.557 359.316 258.417L358.897 258.557C358.757 258.557 358.477 258.697 358.337 258.697C357.917 258.977 359.037 258.557 358.337 258.697L357.638 258.837C356.798 258.977 358.477 258.837 357.638 258.837H357.358C356.938 258.837 357.078 258.837 357.638 258.837C357.358 258.837 357.218 258.837 356.938 258.837C356.658 258.837 356.239 258.697 355.959 258.697C356.658 258.837 355.819 258.697 355.819 258.557L355.259 258.277C355.119 258.277 354.84 258.138 354.7 257.998C355.119 258.138 354.42 257.858 354.42 257.858C353.581 257.438 352.881 256.739 352.182 256.039C349.803 253.101 349.244 249.044 350.923 245.687C351.342 244.847 351.762 244.148 352.461 243.448C352.741 243.169 353.021 242.889 353.301 242.609C352.881 242.889 353.581 242.469 353.581 242.469C353.86 242.329 354.14 242.189 354.42 241.91C355.119 241.49 353.86 242.049 354.56 241.77L355.259 241.49C355.959 241.21 354.56 241.63 355.399 241.49L356.099 241.35C355.259 241.35 356.938 241.21 356.099 241.35H356.379C356.798 241.35 356.658 241.35 356.239 241.35C356.379 241.35 356.518 241.35 356.658 241.35H357.078H356.938C357.218 241.35 357.358 241.35 357.638 241.49C358.337 241.63 357.078 241.21 357.778 241.49C358.197 241.63 358.757 241.77 359.177 242.049C358.757 241.91 359.456 242.189 359.456 242.189C359.456 242.189 359.876 242.469 360.156 242.609C360.436 242.749 360.995 243.169 361.135 243.309C363.933 246.666 364.632 251.423 362.394 255.2C361.695 256.599 364.213 257.018 365.052 257.158C366.451 257.158 368.41 256.878 369.249 255.619C371.627 251.283 371.068 245.827 367.71 242.189C363.513 237.853 356.798 237.013 351.202 239.112C346.166 240.79 342.809 245.547 342.809 250.863C343.088 256.039 346.726 260.376 351.622 261.775C358.057 263.594 365.612 261.635 369.109 255.619C369.389 255.2 368.969 254.64 368.689 254.36C367.99 253.941 367.29 253.801 366.591 253.801C365.052 253.661 363.094 253.941 362.394 255.2Z" fill="#F5EE30"/>
<path d="M12.9323 452.173H120.373C125.689 452.173 129.886 456.369 129.886 461.686V538.489C129.886 543.805 125.689 548.002 120.373 548.002H12.9323C7.6162 548.002 3.41931 543.805 3.41931 538.489V461.686C3.27941 456.509 7.6162 452.173 12.9323 452.173Z" fill="#F5EE30"/>
<path d="M118.413 546.183H11.1122C7.75468 546.183 6.63551 542.406 6.63551 539.468C6.35571 525.618 6.63551 511.908 6.63551 498.058V464.903C6.49561 462.944 6.7754 460.846 7.61478 459.027C10.2728 453.571 15.3091 454.131 20.2055 454.131H121.071C122.889 454.131 124.149 454.131 125.268 455.81C126.387 457.768 126.946 460.146 126.667 462.525V495.121C126.667 509.11 126.807 523.24 126.667 537.229C126.527 541.706 123.169 546.043 118.413 546.183C117.014 546.183 116.594 547.022 117.573 548.001C118.832 549.261 120.371 549.96 122.05 550.1C128.066 549.96 132.822 545.763 132.962 539.608C132.962 538.069 132.962 536.67 132.962 535.131V464.343C133.102 461.545 132.263 458.747 130.584 456.369C127.506 452.592 122.75 450.354 117.853 450.354C113.516 450.354 109.18 450.354 104.843 450.354H50.7029C37.6925 450.354 24.6822 450.354 11.5319 450.354C7.89457 450.074 4.25727 451.753 2.01892 454.69C0.480061 456.929 -0.219423 459.587 0.0603698 462.385V533.312C0.0603698 534.711 0.0603698 536.25 0.0603698 537.649C0.200266 544.504 6.63551 549.261 12.9308 550.1C16.4283 550.38 19.9257 550.38 23.4231 550.24H122.05C123.309 550.24 123.729 549.4 122.889 548.421C121.77 547.022 120.092 546.323 118.413 546.183Z" fill="#F5EE30"/>
<path d="M31.8172 529.535C36.7136 521.841 41.6099 514.007 47.9053 507.292C50.983 504.074 54.3405 501.136 58.1177 498.618C61.4753 496.24 65.3924 494.561 69.4494 493.862C70.9882 493.582 72.5271 493.862 73.926 494.561C75.6048 495.96 76.4442 498.058 76.5841 500.157C77.1437 504.634 75.8846 509.11 73.2266 512.748C72.5271 513.587 71.8276 514.426 70.9882 515.266C70.5685 515.685 70.1488 515.965 69.7291 516.245C68.8898 516.805 68.4701 516.385 70.2887 516.944C72.1074 517.504 71.4079 517.364 71.6877 516.105C71.6877 515.685 71.8276 515.266 71.9675 514.986C72.2473 514.147 72.667 513.447 73.2266 512.748C75.4649 510.09 78.6825 508.411 82.3198 507.991C92.1126 506.732 102.325 514.846 100.366 525.198C99.8069 528.136 106.662 529.255 107.361 526.178C108.341 520.302 106.102 514.286 101.765 510.229C97.1489 505.753 90.4338 503.514 84.1385 503.235C78.9623 502.955 73.7861 504.494 69.5892 507.571C65.9519 510.369 61.6151 518.343 68.1903 520.582C74.2058 522.68 79.6618 516.245 81.7602 511.349C83.9986 506.312 84.6981 499.457 81.4804 494.561C78.1229 489.245 70.9882 488.406 65.2525 489.665C59.6566 491.064 54.3405 493.722 49.7239 497.359C39.2317 505.193 31.9571 516.525 25.1022 527.437C23.7032 530.095 30.2783 531.913 31.8172 529.535Z" fill="#262626"/>
<path d="M88.3355 487.287C86.0971 490.085 87.636 494.421 89.7344 496.8C91.8329 499.178 94.7707 500.437 97.8484 500.297C100.367 500.297 102.605 498.478 102.885 495.96C103.165 492.743 102.045 489.525 99.9469 487.147C97.9883 484.629 94.6308 482.25 91.2733 483.09C89.7344 483.37 89.8743 485.328 90.4339 486.587C90.8536 487.427 91.4132 488.126 92.1127 488.686C92.6723 489.105 93.3718 489.385 94.0712 489.385C94.4909 489.245 95.0505 489.245 95.4702 489.245H94.9106C95.1904 489.245 95.3303 489.245 95.6101 489.385L95.8899 489.525C96.0298 489.525 96.3096 489.665 96.0298 489.525C95.75 489.385 96.1697 489.525 96.1697 489.665L96.4495 489.805C96.5894 489.805 96.5894 489.945 96.7293 489.945C96.8692 489.945 96.1697 489.525 96.4495 489.805L97.0091 490.224C97.149 490.364 97.4288 490.644 97.0091 490.224C96.5894 489.805 96.8692 490.224 97.0091 490.224C97.149 490.224 97.2889 490.644 97.5686 490.784C97.8484 490.924 97.2889 490.504 97.2889 490.504C97.2889 490.504 97.4288 490.784 97.5686 490.784C97.7085 490.784 97.9883 491.623 97.7086 490.924C97.4288 490.224 97.7086 491.064 97.8484 491.204C97.8484 491.344 97.9883 491.344 97.9883 491.484C98.1282 491.903 97.8484 491.204 97.8484 491.064C97.8484 491.344 97.9883 491.484 97.9883 491.763C97.9883 491.064 98.1282 492.463 97.9883 491.763C97.9883 492.043 97.9883 492.183 97.9883 492.463C97.9883 492.743 97.9883 492.323 97.9883 492.183C97.9883 492.323 97.9883 492.323 97.9883 492.463C97.9883 492.743 97.8484 492.882 97.8484 493.162L98.1282 492.603C97.9883 493.022 97.7085 493.302 97.4288 493.722L97.8484 493.302C97.4288 493.722 97.0091 494.002 96.4495 494.142L97.0091 494.002C96.3096 494.281 95.6101 494.281 94.9106 494.281H95.1904C94.351 494.142 93.6516 494.002 92.8122 493.862L92.3925 493.582L92.1127 493.442C92.5324 493.722 92.5324 493.722 92.3925 493.582C92.2526 493.442 92.1127 493.302 91.9728 493.302C92.3925 493.722 92.5324 493.862 92.2526 493.582L92.1127 493.442C91.693 493.022 92.6723 494.281 92.2526 493.582C92.1127 493.302 92.1127 493.442 92.5324 494.002L92.3925 493.442C92.2526 493.162 92.2526 493.302 92.3925 493.582C92.5324 493.862 92.5324 493.862 92.3925 493.722C92.3925 493.582 92.3925 493.582 92.3925 493.442C92.3925 493.862 92.3925 494.002 92.3925 493.862C92.3925 493.722 92.3925 493.442 92.3925 493.302C92.3925 493.722 92.3925 493.862 92.3925 493.582V493.302C92.3925 493.162 92.5324 492.883 92.5324 492.743L92.2526 493.302C92.3925 493.022 92.5324 492.743 92.6723 492.463C92.9521 491.903 93.092 491.064 92.8122 490.504C92.5324 489.665 92.1127 488.826 91.5531 488.126C90.8536 487.007 89.3148 485.888 88.3355 487.287Z" fill="#262626"/>
<path d="M514.042 326.546H600.078C605.394 326.546 609.591 330.743 609.591 336.059V379.847C609.591 385.163 605.394 389.36 600.078 389.36H514.042C508.726 389.36 504.529 385.163 504.529 379.847V336.059C504.389 330.883 508.726 326.546 514.042 326.546Z" fill="white"/>
<path d="M599.517 386.562H521.875C519.217 386.562 516.419 386.702 513.761 386.562C511.662 386.422 509.704 385.163 508.725 383.205C508.305 382.365 508.025 381.386 508.025 380.407C508.025 379.707 508.025 380.827 508.025 380.267C508.025 379.707 508.025 379.288 508.025 378.868V343.474C508.025 339.977 507.186 334.661 509.704 331.723C511.942 329.065 515.16 329.484 518.238 329.484H599.377C600.077 329.484 600.916 329.484 601.616 329.624C603.295 330.184 604.833 331.303 605.533 332.982C605.953 333.961 606.232 334.94 606.232 335.92C606.232 335.64 606.232 335.5 606.232 335.78C606.232 339.977 606.232 344.174 606.232 348.371C606.232 358.723 606.372 369.075 606.232 379.428C605.953 383.205 603.434 386.422 599.517 386.562C597.839 386.562 596.58 387.821 596.58 389.5C596.58 389.64 596.58 389.64 596.58 389.78C597.139 391.459 598.818 392.578 600.497 392.438C606.093 392.298 610.989 388.661 612.528 383.345C612.947 381.666 613.087 379.987 612.947 378.448V337.039C613.087 332.982 611.269 329.205 608.051 326.687C604.414 323.749 600.217 323.889 595.88 323.889H540.621C531.668 323.889 522.714 323.889 513.761 323.889C506.766 323.749 501.03 329.205 500.89 336.2C500.89 340.816 500.89 345.433 500.89 350.049V377.749C500.75 379.567 500.89 381.526 501.31 383.345C502.989 388.801 508.165 392.578 513.901 392.578C514.6 392.578 515.3 392.578 515.999 392.578H600.357C602.036 392.578 603.295 391.319 603.295 389.64C603.295 389.5 603.295 389.5 603.295 389.36C603.155 387.262 601.196 386.562 599.517 386.562Z" fill="#F5EE30"/>
<path d="M535.584 343.474C536.704 352.427 534.185 361.381 528.869 368.516C527.75 369.915 526.351 372.293 524.533 372.713C523.973 372.852 523.553 372.573 523.134 372.573L525.092 376.07C525.092 375.93 525.092 375.65 525.092 375.51C525.232 374.671 525.512 373.692 525.792 372.852C527.61 369.215 530.268 365.997 533.486 363.619C536.564 361.381 540.061 359.702 543.838 358.863C547.755 358.023 552.932 357.744 556.429 359.842C556.289 359.702 557.548 360.542 557.408 360.681C557.268 360.821 556.989 359.143 556.989 359.982C556.989 360.821 557.268 361.94 557.408 362.92C557.548 364.319 557.968 367.816 556.009 368.236H555.45C554.331 367.676 554.61 368.516 556.149 370.334C556.149 369.775 556.149 369.215 556.149 368.795C556.289 367.956 556.429 366.977 556.709 366.137C557.408 364.039 558.807 362.36 560.486 360.961C564.123 358.303 569.02 358.163 572.797 360.681C573.217 360.961 573.636 361.381 574.056 361.661C575.175 362.64 573.916 361.521 574.196 361.521C574.476 361.521 574.476 364.179 574.476 364.459C574.476 365.298 572.797 371.593 571.398 370.194L572.657 371.873C574.616 375.231 573.356 374.951 573.916 373.132C574.196 372.433 574.476 371.873 574.895 371.314C575.595 370.334 576.574 369.355 577.553 368.795C579.652 367.257 582.31 366.837 584.828 367.396C585.807 367.676 584.688 365.018 584.548 364.738C584.128 363.899 583.289 361.381 582.17 361.101C579.372 360.402 576.294 360.961 573.916 362.64C571.818 364.179 569.859 366.977 570.279 369.775C570.698 372.013 573.636 379.148 576.294 375.091C577.833 372.433 578.393 369.355 577.693 366.277C576.294 359.702 571.678 352.847 564.403 352.567C558.108 352.427 552.932 357.324 552.792 363.619C552.792 363.759 552.792 363.899 552.792 364.179C552.792 365.997 553.351 367.816 554.191 369.355C554.89 371.174 556.009 372.712 557.548 373.832C560.906 375.79 561.046 370.614 560.906 368.655C560.766 361.801 557.548 353.407 549.994 352.148C543.698 351.168 537.403 352.567 532.087 355.925C529.429 357.604 527.051 359.702 525.092 362.22C523.413 364.459 521.595 367.117 521.595 369.915C521.735 372.013 522.294 373.972 523.553 375.79C524.393 377.189 525.512 378.868 527.191 378.728C528.869 378.588 530.128 376.77 531.108 375.51C532.367 373.972 533.486 372.433 534.465 370.754C538.382 363.899 540.061 356.065 539.082 348.231C538.802 346.692 538.103 345.153 537.123 343.894C536.843 343.614 535.305 341.935 535.584 343.474Z" fill="#F5EE30"/>
</svg>
