<svg width="615" height="573" viewBox="0 0 615 573" fill="none" xmlns="http://www.w3.org/2000/svg">
<path d="M388.991 494.565H253.67L242.698 569.467H400.109L388.991 494.565Z" fill="white"/>
<path d="M386.504 492.224H253.231C252.646 492.078 252.061 492.078 251.476 492.224H251.183H250.891L247.233 517.533L241.382 557.763L240.065 567.126C239.919 568.15 241.382 569.174 241.967 569.759C242.552 570.344 244.161 571.953 245.331 571.953H400.255C400.987 572.1 401.718 572.1 402.303 571.953C402.45 571.953 402.45 571.953 402.596 571.953C402.742 571.953 402.888 571.807 402.888 571.661L399.231 546.352L393.379 506.122L392.063 496.759C391.917 495.442 389.868 494.126 388.991 493.394C388.698 493.248 386.211 491.639 386.357 492.517L393.526 541.086L397.037 565.224C397.037 565.955 397.183 566.541 397.329 567.126C397.183 566.833 397.768 567.126 397.329 566.979C396.89 566.833 396.305 566.833 395.866 566.979H278.979C266.251 566.979 253.524 566.541 240.796 566.979H240.211L245.624 571.807L251.768 529.529L255.572 503.635C256.011 501.587 256.303 499.539 256.45 497.49C256.45 497.198 256.596 496.905 256.303 497.052C256.45 496.905 257.035 497.052 257.181 497.052H378.896C382.846 497.052 386.943 497.198 391.039 497.052H391.624C392.648 497.052 390.454 494.857 390.307 494.711C389.43 493.833 387.82 492.224 386.504 492.224Z" fill="#262626"/>
<path d="M75.6324 108.792H566.151C577.708 108.792 587.071 118.155 587.071 129.712V474.962C587.071 486.519 577.708 495.882 566.151 495.882H75.6324C64.0753 495.882 54.7126 486.519 54.7126 474.962V129.712C54.5663 118.155 63.929 108.792 75.6324 108.792Z" fill="white"/>
<path d="M76.5096 111.424H566.882C576.537 111.571 583.413 119.763 583.559 129.126C583.706 134.392 583.559 139.513 583.559 144.779V456.528C583.559 462.38 583.559 468.232 583.559 474.084C583.559 484.324 575.513 492.809 565.273 493.102H86.8963C82.8002 493.102 78.704 493.102 74.7541 493.102C65.0988 492.955 58.223 484.763 58.0767 475.4C58.0767 473.791 58.0767 472.328 58.0767 470.719V135.709C58.0767 133.954 58.0767 132.198 58.0767 130.443C58.0767 120.202 66.2691 111.717 76.5096 111.424C77.8262 111.571 78.9966 110.547 78.9966 109.376C78.9966 109.084 78.9966 108.791 78.9966 108.499C78.2651 106.743 76.5096 105.719 74.6078 105.865C61.734 105.865 51.201 116.252 51.0547 129.126C51.0547 130.735 51.0547 132.344 51.0547 133.807V470.134C51.0547 471.597 51.0547 472.913 51.0547 474.376C51.201 488.274 63.0507 498.514 76.5096 498.661C80.1669 498.661 83.8242 498.661 87.3352 498.661H564.395C565.712 498.661 567.028 498.661 568.345 498.661C580.633 497.929 590.289 487.835 590.435 475.4C590.435 469.841 590.435 464.136 590.435 458.577V145.072C590.435 140.098 590.435 135.27 590.435 130.296C590.289 116.545 578.439 106.158 564.98 106.012H74.6078C73.2911 105.865 72.1208 106.743 72.1208 108.06C72.1208 108.352 72.1208 108.645 72.1208 108.938C72.706 110.547 74.9004 111.424 76.5096 111.424Z" fill="#262626"/>
<path d="M75.6324 104.403H566.151C577.708 104.403 587.071 113.766 587.217 125.323V414.543H54.7126V125.323C54.5663 113.766 63.929 104.403 75.6324 104.403Z" fill="#262626"/>
<path d="M75.925 107.622H562.64C563.81 107.622 564.981 107.622 566.151 107.622C575.075 107.768 582.828 113.766 583.706 123.129C584.145 128.249 583.706 133.369 583.706 138.489V414.251L586.632 411.325H75.925C69.0492 411.325 62.0272 410.886 55.1514 411.325C54.8588 411.325 54.5662 411.325 54.2737 411.325L57.931 415.129V130.443C57.931 123.714 58.5161 117.57 63.7827 112.596C67.1474 109.524 71.3899 107.768 75.925 107.622C80.46 107.622 79.1434 101.039 75.3398 101.039C65.0993 100.892 56.0292 107.329 52.6644 116.984C51.7867 119.91 51.3478 122.982 51.3478 126.201V400.792C51.3478 405.034 51.0552 409.423 51.3478 413.666V414.251C51.4941 416.153 52.957 417.762 54.8588 417.908H587.364C588.826 418.054 590.143 417.03 590.289 415.567C590.289 415.421 590.289 415.129 590.289 414.982V128.395C590.436 125.323 590.143 122.251 589.265 119.179C586.193 108.646 576.538 101.331 565.566 101.039C562.055 101.039 558.544 101.039 555.179 101.039H75.3398C70.6584 101.039 72.1213 107.622 75.925 107.622Z" fill="#262626"/>
<path d="M321.404 466.769C327.383 466.769 332.229 461.923 332.229 455.944C332.229 449.965 327.383 445.118 321.404 445.118C315.425 445.118 310.578 449.965 310.578 455.944C310.578 461.923 315.425 466.769 321.404 466.769Z" fill="white"/>
<path d="M323.158 445.85H323.451C323.012 445.85 322.573 445.85 322.134 445.704C322.281 445.704 322.719 445.704 322.134 445.704C321.695 445.557 322.573 445.85 322.719 445.996C323.597 446.435 324.475 447.02 325.206 447.605C326.669 448.922 327.693 450.678 328.279 452.579C329.303 456.529 327.986 460.772 324.914 463.551C323.451 464.722 321.695 465.599 319.794 465.892C319.794 465.892 319.208 465.892 319.647 465.892C318.916 465.892 319.501 465.892 319.647 465.892L320.671 466.038C321.11 466.185 320.671 466.038 320.525 466.038C319.647 465.746 318.916 465.307 318.184 464.722C314.966 462.235 313.503 457.992 314.381 454.042C314.82 451.848 315.99 449.946 317.599 448.483C318.477 447.752 319.501 447.167 320.525 446.728C320.964 446.581 321.549 446.289 321.988 446.289L322.573 446.143C322.719 445.996 323.744 445.85 323.158 445.85C323.744 445.996 325.938 445.996 324.768 445.118C323.158 444.387 321.549 444.094 319.794 444.241C317.014 444.094 314.235 444.826 311.894 446.435C309.992 447.752 308.529 449.654 307.651 451.994C306.042 456.822 307.798 462.088 312.04 464.868C314.966 466.623 318.184 467.501 321.549 467.647C324.475 467.94 327.547 467.501 330.18 466.185C334.569 463.698 336.764 458.577 335.447 453.75C333.545 446.728 326.084 444.533 319.501 444.387C319.062 444.387 316.868 444.387 318.038 445.118C319.794 445.704 321.549 445.996 323.158 445.85Z" fill="#262626"/>
<path d="M565.127 126.347H75.4863V393.769H565.127V126.347Z" fill="white"/>
<path d="M77.3876 128.98H547.133C553.423 128.98 559.86 129.273 566.151 128.98H567.029L562.055 124.445V387.771C561.908 388.942 561.908 390.258 562.055 391.429C562.055 391.575 562.055 391.721 562.055 391.868L563.225 391.136H93.4798C87.1892 391.136 80.7523 390.844 74.4617 391.136H73.584L78.5579 395.671V161.164C78.5579 150.339 78.7042 139.513 78.5579 128.687V128.249C78.2653 126.639 77.2413 125.176 75.7784 124.445C75.1932 124.152 72.4137 122.836 72.4137 124.445V358.805C72.4137 369.631 72.2674 380.457 72.4137 391.282V391.721C72.4137 393.916 75.1932 396.256 77.3876 396.256H546.986C553.277 396.256 559.714 396.403 566.005 396.256C566.297 396.256 566.59 396.256 566.882 396.256C567.175 396.256 568.053 395.964 568.053 395.525V161.164C568.053 150.339 568.199 139.513 568.053 128.687V128.249C568.053 126.054 565.273 123.713 563.079 123.713H93.4798C87.1892 123.713 80.7523 123.567 74.4617 123.713C74.1692 123.713 73.8766 123.713 73.584 123.713C71.8285 123.713 72.5599 125.469 73.1451 126.347C74.1692 127.81 75.6321 128.834 77.3876 128.98Z" fill="#262626"/>
<path d="M230.118 212.659C230.118 212.659 294.779 195.689 299.314 251.281C299.314 251.281 344.372 247.184 333.839 293.413C323.306 339.641 269.763 308.042 269.763 308.042C269.763 308.042 285.27 334.521 247.673 340.08C210.076 345.639 215.196 301.02 215.196 301.02C215.196 301.02 178.184 343.152 149.072 306.14C119.959 269.128 158.581 258.595 158.581 258.595C158.581 258.595 133.565 240.601 150.096 223.046C166.627 205.491 211.246 217.048 211.246 217.048L230.118 212.659Z" fill="#262626"/>
<path d="M231.873 215.878C238.749 214.122 245.771 213.391 252.793 213.391C258.937 213.391 265.228 214.122 271.08 215.878C272.689 216.316 274.298 216.902 275.761 217.633C277.078 218.218 278.394 218.803 279.711 219.681C280.442 220.12 281.027 220.559 281.759 220.998L282.783 221.729L283.076 221.876L283.368 222.168C283.953 222.753 284.685 223.192 285.27 223.777L286.148 224.655C286.294 224.801 286.44 224.948 286.587 225.094C287.318 225.826 286.001 224.509 286.733 225.24C289.366 228.02 291.414 231.385 292.877 234.896C294.779 239.723 295.949 244.844 296.242 250.11C296.534 252.451 298.436 254.206 300.777 254.206H301.07C300.192 254.206 301.07 254.206 301.508 254.206C302.679 254.206 303.849 254.206 304.873 254.206C306.482 254.206 308.092 254.353 309.701 254.645C310.725 254.791 311.603 254.938 312.48 255.084L313.797 255.377L314.09 255.523L314.821 255.669C316.869 256.254 318.917 256.986 320.819 258.01C320.38 257.717 320.819 258.01 320.965 258.156L321.697 258.595C322.136 258.888 322.574 259.18 323.16 259.473L323.891 260.058C324.037 260.058 324.623 260.643 324.33 260.351L324.623 260.643L325.354 261.375C325.793 261.667 326.086 262.106 326.524 262.399C326.963 262.691 326.086 261.813 326.378 262.252L326.671 262.545C326.817 262.837 327.11 262.984 327.256 263.276C327.402 263.569 327.987 264.154 328.426 264.739C327.987 264.154 328.28 264.593 328.426 264.886C328.572 265.178 328.865 265.471 329.011 265.91C329.158 266.349 329.597 266.934 329.889 267.519C329.597 266.934 329.889 267.519 330.035 267.811C330.182 268.104 330.328 268.543 330.474 268.982C330.913 270.152 331.206 271.469 331.498 272.639C332.669 280.246 332.084 287.854 329.597 295.168C327.695 301.166 324.476 306.872 319.356 310.675C310.725 316.966 298.729 315.942 289.22 313.455C284.685 312.284 280.442 310.675 276.2 308.773C275.322 308.481 274.591 308.042 273.713 307.603L272.689 307.018C272.542 307.018 273.42 307.31 272.689 307.018L272.25 306.725L269.909 305.409L269.617 305.262C268.739 304.823 267.569 304.385 266.837 305.262C266.106 306.14 266.544 307.603 267.13 308.481C267.276 308.773 267.422 309.066 267.569 309.359C268.154 310.383 267.276 308.627 267.715 309.651C267.861 310.09 268.154 310.675 268.3 311.114C268.446 311.553 268.593 312.138 268.739 312.577L269.031 313.455C268.885 312.723 269.178 314.186 269.031 313.455C269.031 313.601 269.178 313.894 269.178 314.04C269.324 314.625 269.47 315.357 269.47 315.942C269.47 316.234 269.617 316.527 269.617 316.966C269.617 317.405 269.763 318.429 269.617 317.843C269.763 321.062 268.885 324.134 267.13 326.767C264.643 330.571 260.254 332.912 256.158 334.521C250.306 336.715 243.869 337.739 237.579 337.447C235.384 337.3 233.19 336.862 230.995 336.13C230.118 335.837 229.386 335.545 228.655 335.106C228.216 334.813 227.777 334.667 227.338 334.375L226.899 334.082C226.753 333.936 226.607 333.936 226.46 333.789L226.607 333.936C225.875 333.35 225.29 332.765 224.559 332.18C223.827 331.595 224.851 332.619 224.559 332.18C224.412 332.034 224.266 331.888 224.12 331.595C223.973 331.302 223.534 330.864 223.096 330.425C222.949 330.278 222.803 330.132 222.657 329.839C222.803 329.986 223.242 330.571 222.657 329.839L222.072 328.815C221.779 328.377 221.633 327.938 221.34 327.645C221.048 327.353 221.194 327.206 221.048 327.06C220.609 326.328 221.194 327.353 220.901 326.767C220.17 325.012 219.585 323.403 218.999 321.647C218.853 321.355 218.853 321.062 218.853 320.916C218.707 320.477 218.707 320.038 218.561 319.599C218.414 318.721 218.268 317.843 218.122 316.966C217.829 315.21 217.683 313.308 217.537 311.407C217.537 311.114 217.537 310.675 217.537 310.383C217.537 310.09 217.537 309.944 217.537 309.797C217.537 309.212 217.537 310.383 217.537 309.651C217.537 308.92 217.537 308.334 217.537 307.603C217.537 306.14 217.683 304.823 217.683 303.361C217.683 301.898 216.951 300.435 215.927 299.557C215.196 298.972 213.44 297.801 212.563 298.825C208.613 303.068 204.224 306.872 199.543 310.09C191.058 315.795 180.817 320.184 170.284 318.429C164.14 317.258 158.581 314.186 154.338 309.797C149.072 304.677 145.122 298.533 142.342 291.803C139.27 283.611 140.733 275.419 147.024 269.421C150.681 265.91 155.07 263.423 159.897 262.106C162.823 261.228 159.605 257.278 158.434 256.401C157.849 255.962 159.312 257.132 158.727 256.547L157.557 255.523C156.24 254.499 155.07 253.328 153.899 252.012C154.484 252.597 153.46 251.573 153.314 251.427C153.022 250.988 152.583 250.695 152.29 250.256C151.997 249.817 151.559 249.379 151.12 248.94C150.973 248.647 150.096 247.477 150.388 247.916C149.072 246.16 148.194 244.112 147.462 241.918C144.244 231.531 153.607 222.607 162.823 219.389C172.625 216.024 183.45 216.17 193.545 217.194C197.787 217.633 201.883 218.218 205.979 218.95C207.296 219.242 208.613 219.389 209.783 219.681L210.953 219.974C211.977 220.12 213.148 220.12 214.172 219.828L220.462 218.511L231.873 215.878C234.799 215.292 230.995 209.148 228.216 209.733L209.198 213.683L210.514 213.83C198.08 210.465 185.06 209.294 172.186 210.318C163.847 211.05 154.777 213.098 148.486 218.95C144.683 222.314 142.05 226.996 141.318 232.116C141.026 236.797 142.05 241.333 144.244 245.429C147.609 251.573 152.29 256.986 157.995 260.936L156.533 255.23C151.851 256.547 147.609 258.888 143.951 261.813C136.783 267.665 133.565 277.028 135.905 285.952C137.807 293.705 142.05 300.727 146.877 306.872C151.705 313.455 158.142 318.575 165.603 321.793C177.013 326.328 189.156 323.549 199.396 317.697C206.126 314.04 212.124 309.212 217.244 303.507L212.124 298.825C210.661 311.553 213.587 326.621 223.096 335.837C231.727 344.322 244.308 344.322 255.426 341.543C264.789 339.202 274.444 333.789 275.615 323.256C276.054 317.551 274.883 311.845 271.957 307.018L269.47 310.236C275.322 313.601 281.613 316.381 288.196 318.282C299.021 321.647 311.603 323.256 321.989 317.551C327.548 314.186 331.937 309.066 334.278 302.922C337.496 295.022 338.813 286.391 338.228 277.759C337.204 265.617 329.45 255.23 318.186 250.842C311.749 248.208 304.873 247.184 297.997 247.769H297.705L302.24 251.866C301.655 242.21 298.436 232.848 292.731 224.948C288.049 218.657 281.613 213.83 274.298 210.904C262.595 206.076 249.282 205.93 236.847 207.685C234.068 207.978 231.142 208.563 228.362 209.294C225.29 210.465 229.24 216.463 231.873 215.878Z" fill="#262626"/>
<path d="M354.028 319.453C354.028 319.453 392.357 259.034 402.158 222.607C411.96 186.18 410.497 172.868 420.152 170.381C429.808 167.894 430.393 187.79 430.539 198.615C430.685 209.441 433.611 215.585 433.611 215.585C433.611 215.585 438.439 219.096 453.361 221.291C468.283 223.485 484.814 235.042 481.01 242.064C478.231 247.184 471.062 246.014 463.601 242.649C463.601 242.649 476.036 251.281 471.94 259.18C469.16 264.301 462.723 260.351 457.896 256.986C454.531 254.938 450.874 253.475 447.07 252.597C447.07 252.597 449.265 281.709 423.956 286.683C423.956 286.683 388.261 375.19 368.219 384.407C368.219 384.407 357.1 400.938 251.916 314.479L286.587 249.379C286.295 249.379 345.543 320.916 354.028 319.453Z" fill="white"/>
<path d="M357.1 318.575C364.268 307.164 370.997 295.607 377.434 283.757C383.14 273.517 388.552 263.13 393.38 252.451C398.061 242.649 402.011 232.409 405.083 222.022C408.448 209.587 410.935 197.006 413.861 184.425C414.446 181.06 415.47 177.842 416.933 174.623C417.226 174.184 417.372 173.599 417.665 173.16C417.811 172.868 417.957 172.721 418.25 172.429C418.689 171.844 418.25 172.429 418.542 172.136C418.835 171.843 419.42 171.258 418.689 171.99C418.981 171.697 419.274 171.697 418.689 171.99C417.811 172.429 419.566 171.551 418.689 171.99C417.518 172.575 419.274 171.843 418.104 172.136C419.274 171.843 420.59 172.136 421.615 173.014C423.077 174.33 423.955 176.086 424.54 177.988C426.003 182.962 426.735 188.228 426.735 193.348C427.027 199.346 426.881 205.344 428.198 211.342C428.49 213.098 429.075 214.854 429.661 216.463C429.807 216.902 430.1 217.34 430.538 217.487C433.318 219.096 436.39 220.266 439.608 220.851C446.484 222.607 453.506 223.192 460.089 225.825C465.649 228.02 471.354 231.092 475.304 235.627C476.767 237.09 477.791 238.992 478.083 241.04C478.083 241.918 477.791 242.649 477.352 243.381C477.206 243.527 477.059 243.673 476.913 243.966L476.767 244.112C477.206 243.819 477.645 243.527 478.23 243.381C478.23 243.381 476.767 243.527 476.474 243.527C472.963 243.234 469.598 242.21 466.526 240.601C465.063 240.016 459.065 243.234 460.528 244.258C464.917 247.33 471.208 253.475 469.013 259.326C468.867 259.765 468.428 260.204 468.282 260.643C468.574 259.18 471.939 259.765 470.184 259.473C469.16 259.326 468.136 259.034 467.111 258.595C464.771 257.571 462.576 256.254 460.675 254.645C457.456 252.597 453.799 251.134 449.995 250.403C448.386 250.11 443.558 251.719 443.705 253.767C443.705 253.914 443.705 254.06 443.705 254.06C443.705 254.645 443.705 255.23 443.705 255.815C443.705 257.717 443.558 259.619 443.266 261.521C442.681 267.08 440.633 272.493 437.268 277.028C436.39 278.198 435.366 279.222 434.342 280.246C433.464 281.124 432.44 281.855 431.27 282.441C429.807 283.172 428.198 283.757 426.735 284.05C424.54 284.635 421.761 285.22 420.59 287.415C419.713 289.024 419.128 290.779 418.542 292.389C414.446 302.19 410.204 311.992 405.669 321.647C399.817 334.228 393.526 346.809 386.504 358.805C383.432 364.072 380.067 369.192 376.41 374.166C374.947 376.068 373.484 377.823 371.875 379.433C371.144 380.164 370.412 380.895 369.534 381.627C369.096 381.92 369.827 381.334 369.388 381.627L368.803 382.066L368.364 382.358C367.779 382.797 368.949 382.066 368.364 382.358C368.218 382.505 368.071 382.505 367.925 382.651C367.779 382.651 368.803 382.212 368.071 382.505C367.633 382.651 367.34 382.944 366.901 383.09C366.462 383.236 365.584 384.407 365.146 384.553C365.146 384.553 365.731 383.968 365.292 384.26C365.438 384.114 366.17 383.675 365.731 383.968C365.731 383.968 366.755 383.382 366.17 383.675L366.901 383.382L367.633 383.09C366.901 383.382 367.779 383.09 367.925 382.944L367.34 383.09C367.925 382.944 368.218 382.944 367.34 383.09C366.755 383.236 366.17 383.09 367.194 383.09H366.316C365.584 383.09 364.999 383.09 364.268 382.944L362.951 382.797H362.659L361.927 382.651C356.075 381.188 350.37 378.994 345.104 376.068C334.717 370.655 324.769 364.657 315.26 358.074C299.314 347.248 283.953 335.545 268.885 323.549C264.204 319.745 259.522 315.942 254.841 312.138V313.162L266.544 291.218L285.27 256.108L289.512 248.062L283.076 250.549C289.951 258.741 296.827 266.934 303.849 274.833C315.26 288 326.817 301.166 339.544 313.016C341.885 315.21 344.226 317.258 346.859 319.014C348.322 320.33 350.224 320.916 352.272 320.916C354.027 320.623 355.637 319.892 356.953 318.721C357.831 317.843 357.685 316.966 356.222 317.258C356.075 317.258 356.514 317.405 356.368 317.258C356.075 317.112 355.637 317.112 355.344 316.966C354.613 316.673 353.881 316.234 353.15 315.649C350.955 314.186 348.907 312.577 347.005 310.675C341.154 305.409 335.741 299.703 330.328 293.998C318.771 281.709 307.799 268.982 296.973 256.108C294.486 253.182 292.146 250.403 289.659 247.477C288.488 246.014 283.953 248.793 283.222 249.964L271.518 271.908L252.793 307.018L248.55 315.064C248.258 315.503 248.258 315.649 248.55 316.088C265.813 330.132 282.929 343.591 300.923 356.465C311.749 364.218 323.013 371.386 334.717 377.97C340.861 381.481 347.298 384.26 354.174 386.455C357.392 387.479 360.757 387.771 363.975 387.332C366.755 386.893 369.388 385.577 371.29 383.529L368.657 385.431C375.093 382.358 379.775 376.507 383.871 370.948C389.284 363.34 394.112 355.441 398.354 347.102C407.278 330.717 415.031 313.747 422.492 296.631C424.102 292.827 425.711 289.17 427.174 285.366L421.907 288.439C431.27 286.537 440.34 281.563 445.314 273.078C448.386 267.519 450.142 261.375 450.434 255.084C450.58 253.621 450.58 252.304 450.434 250.841L444.144 254.206C447.508 254.938 450.873 256.108 453.799 257.863C457.456 260.058 461.113 263.423 465.795 263.423C470.476 263.423 475.743 259.912 476.182 255.084C476.62 251.573 474.572 248.354 472.378 245.721C470.769 243.819 468.867 242.064 466.819 240.601L460.821 244.258C467.697 247.33 475.158 248.94 481.741 243.966C483.789 242.649 485.105 240.308 485.105 237.968C484.813 235.773 483.789 233.725 482.18 232.116C477.791 227.581 472.232 224.07 466.234 222.022C459.358 219.389 452.043 218.95 445.021 216.902C442.973 216.316 441.071 215.585 439.17 214.854C438.438 214.561 437.707 214.268 436.975 213.683C437.414 214.122 437.122 213.683 436.975 213.537C436.829 212.952 436.536 212.22 436.244 211.635C435.512 209.148 434.927 206.515 434.488 203.735C433.757 197.591 434.049 191.3 433.464 185.156C433.025 180.475 432.586 174.623 429.514 170.673C424.687 164.383 414.3 170.381 411.228 175.793C409.619 179.012 408.448 182.377 407.717 185.888C406.4 191.3 405.376 196.713 404.206 202.126C401.28 215.146 398.208 228.166 393.234 240.601C388.552 252.012 383.286 263.276 377.434 274.248C369.388 289.609 360.757 304.677 351.54 319.453C351.394 319.745 351.248 319.892 351.102 320.184C350.224 321.501 352.272 321.208 353.003 321.062C354.466 320.916 356.075 319.892 357.1 318.575Z" fill="#262626"/>
<path d="M447.362 240.163C447.362 240.163 453.507 238.7 464.186 243.089L447.362 240.163Z" fill="white"/>
<path d="M450.142 242.357C451.605 242.064 452.921 242.064 454.384 242.211C458.334 242.503 462.284 243.527 465.941 244.99C466.088 245.136 466.965 245.429 467.112 245.136C467.258 244.844 466.673 244.112 466.526 243.966C465.356 242.649 463.893 241.625 462.284 241.04C458.042 239.285 453.653 238.114 449.118 237.822C447.655 237.676 446.046 237.675 444.583 237.968C443.559 238.261 445.899 240.162 446.046 240.309C446.777 240.894 447.508 241.479 448.386 241.918C448.825 242.064 449.557 242.503 450.142 242.357Z" fill="#262626"/>
<path d="M443.412 245.136C443.412 247.915 443.266 250.695 443.12 253.328C442.974 255.523 442.827 257.717 442.681 259.911C442.535 260.789 442.535 261.813 442.242 262.691C442.242 262.984 442.096 263.422 442.096 263.715C442.096 263.861 441.95 264.008 441.95 264.3C441.95 263.715 442.096 263.715 441.95 264.154C441.511 265.763 442.388 267.519 443.998 268.25C445.168 268.835 447.801 269.274 448.533 267.519C449.849 263.715 449.996 259.472 450.142 255.523C450.288 252.743 450.434 249.817 450.434 247.038C450.288 245.282 448.972 243.673 447.216 243.38C445.753 243.088 443.412 243.234 443.412 245.136Z" fill="#262626"/>
<path d="M324.477 390.844C324.477 388.211 329.743 276.736 284.246 245.722C223.974 204.76 153.314 392.453 153.314 392.453" fill="white"/>
<path d="M328.134 390.551C328.134 383.529 328.427 376.36 328.134 369.338C327.841 354.124 326.525 338.909 324.33 323.841C321.697 307.018 317.747 289.901 310.579 274.394C304.581 261.521 295.511 248.354 282.198 242.21C271.665 237.236 259.084 238.406 248.551 242.942C237.433 247.769 228.07 256.547 220.024 265.471C210.368 276.589 201.591 288.585 194.13 301.166C186.23 314.04 179.062 327.352 172.479 340.811C167.066 351.783 161.946 362.901 157.118 374.312C154.631 380.164 152.144 386.016 149.803 392.014L149.511 392.745C149.218 393.477 152.875 393.477 153.314 393.477C154.192 393.477 156.533 393.33 156.825 392.306C158.288 388.21 159.898 384.26 161.653 380.31C165.749 370.362 170.138 360.414 174.819 350.613C180.964 337.739 187.401 325.012 194.423 312.577C201.737 299.557 209.93 287.122 218.853 275.272C226.753 265.178 235.531 255.376 246.064 248.208C248.405 246.745 250.745 245.282 253.232 244.112C254.256 243.527 255.427 243.088 256.451 242.795L258.06 242.21L258.791 241.917C259.523 241.625 258.645 241.917 259.376 241.771C259.962 241.625 260.547 241.479 260.986 241.332C261.425 241.186 261.863 241.186 261.132 241.332L262.449 241.04L263.326 240.893C262.595 240.893 263.473 240.893 263.326 240.893H264.204C265.228 240.747 263.619 240.893 264.497 240.893C264.789 240.893 266.398 240.893 265.521 240.893L267.423 241.04H267.715L268.593 241.186C269.178 241.332 269.91 241.479 270.495 241.625C275.761 243.234 280.589 245.867 284.831 249.525C290.537 254.499 295.218 260.35 299.022 266.933C307.36 281.27 312.042 297.655 315.114 313.893C318.04 329.547 319.795 345.346 320.527 361.292C320.966 370.655 321.112 380.018 320.819 389.38C320.819 389.965 320.819 390.551 320.819 391.136C320.966 392.306 328.28 392.16 328.134 390.551Z" fill="#262626"/>
<path d="M403.477 203.882C403.477 203.882 417.813 244.259 453.216 263.862C453.216 263.862 482.475 255.816 487.595 250.842C492.715 245.868 438.733 231.824 420.739 190.716L403.477 203.882Z" fill="white"/>
<path d="M400.111 204.76C403.914 214.708 408.888 224.071 415.179 232.702C420.884 240.894 427.614 248.502 435.075 255.085C439.171 258.596 443.56 261.961 448.241 264.74C450.289 265.91 452.191 267.52 454.678 266.934C455.409 266.788 456.141 266.496 456.872 266.349C463.894 264.301 470.916 262.107 477.938 259.474C481.303 258.303 484.668 256.84 487.886 255.085C489.642 253.914 491.982 252.598 491.544 250.111C490.958 246.307 485.399 243.967 482.62 242.211C480.133 240.748 477.5 239.431 475.013 237.969C471.94 236.213 468.722 234.458 466.089 232.848C451.021 223.632 436.391 212.221 427.614 196.568C426.443 194.373 425.273 192.179 424.249 189.985C423.225 187.937 420.738 187.205 418.69 188.229C418.397 188.375 418.251 188.522 418.105 188.668L400.842 201.688C399.379 202.858 400.111 205.053 401.281 205.93C402.744 207.101 404.939 207.101 406.401 205.93L423.664 192.91L417.52 191.594C427.029 212.953 445.9 227.874 465.65 239.578C469.161 241.626 472.818 243.674 476.476 245.576C477.938 246.454 479.401 247.185 480.864 248.063C481.303 248.209 481.596 248.502 481.011 248.209L481.888 248.794C482.327 249.087 482.912 249.379 483.351 249.818C483.79 250.257 484.083 250.403 484.375 250.696C484.668 250.989 484.668 250.989 484.814 251.135C483.936 250.55 484.375 250.696 484.668 250.989C484.96 251.281 484.96 251.574 484.522 250.696C484.668 250.989 484.522 251.135 484.522 250.257C484.522 250.842 484.522 249.818 484.522 249.818C484.375 250.403 484.96 249.087 484.668 249.526C484.96 249.087 485.399 248.94 484.814 249.233C484.668 249.379 483.79 249.965 484.668 249.379C483.936 249.818 483.205 250.257 482.474 250.696C480.572 251.72 478.524 252.598 476.476 253.329C468.576 256.401 460.53 259.035 452.337 261.229L455.117 261.522C434.343 249.965 418.836 229.776 409.327 208.417C408.596 206.808 407.864 205.053 407.279 203.297C405.524 199.494 398.502 200.664 400.111 204.76Z" fill="#262626"/>
<path d="M395.577 166.284C395.577 166.284 364.417 184.424 360.613 185.449C360.613 185.449 348.324 220.12 383.142 226.118C383.142 226.118 409.913 208.709 413.717 207.246C413.717 207.246 396.747 188.228 395.577 166.284Z" fill="#F5EE30"/>
<path d="M393.674 163.067C385.921 167.602 378.021 171.99 370.268 176.379C366.61 178.427 362.807 180.183 359.149 182.085C357.833 182.816 357.54 185.596 357.248 187.058C355.346 195.982 355.785 205.784 360.32 213.83C363.392 219.243 368.073 223.632 373.779 226.119C375.388 226.85 376.997 227.435 378.606 228.02C379.484 228.313 380.508 228.606 381.386 228.752C382.41 229.044 383.434 229.337 384.458 229.337C385.336 229.044 386.213 228.459 386.945 227.728C392.065 224.509 397.039 221.145 402.159 217.926C404.939 216.171 407.572 214.561 410.352 212.952C411.961 211.928 413.57 211.05 415.326 210.319C417.374 209.441 414.594 205.491 414.009 204.76C415.326 206.223 414.155 204.76 413.863 204.467C413.278 203.736 412.692 203.004 412.107 202.273C410.205 199.64 408.304 197.006 406.694 194.227C401.72 186.327 398.648 177.257 397.917 167.894C397.771 166.139 396.893 164.383 395.284 163.359C394.113 162.628 392.943 163.067 393.089 164.676C393.821 175.648 397.917 186.181 403.33 195.69C406.109 200.664 409.474 205.345 413.131 209.588L411.815 204.028C409.62 205.052 407.718 206.077 405.67 207.393C402.452 209.295 399.234 211.343 396.015 213.391C392.797 215.439 389.578 217.487 386.36 219.535L383.141 221.73C382.702 222.022 381.825 222.754 381.386 222.9C381.093 222.9 380.801 222.754 380.215 222.608C378.899 222.315 377.728 222.022 376.558 221.584C374.51 220.998 372.462 220.121 370.706 219.097C369.097 218.219 367.781 217.195 366.464 216.024L365.586 215.147C365.001 214.561 365.586 215.147 365.147 214.561L364.416 213.684L364.123 213.099C363.538 212.221 364.416 213.537 364.123 212.952C363.831 212.367 363.392 211.636 362.953 210.904C363.392 211.636 362.807 210.612 362.807 210.465L362.368 209.149C362.075 208.417 362.368 209.295 362.221 208.71C362.075 208.125 362.075 207.978 361.929 207.539C361.783 206.808 361.636 206.077 361.49 205.345C361.49 205.199 361.344 204.321 361.344 203.59C361.344 202.858 361.197 202.127 361.197 201.395C361.051 200.225 361.051 198.908 361.197 197.592C361.344 194.227 362.075 190.716 363.099 187.497L362.514 188.375C364.27 187.79 365.879 187.058 367.342 186.034C370.268 184.571 373.047 182.962 375.827 181.353C381.678 178.135 387.53 174.77 393.382 171.405L397.332 169.065C399.526 168.187 395.869 161.896 393.674 163.067Z" fill="#F5EE30"/>
<path d="M458.043 76.3145C458.043 76.3145 452.045 85.5309 387.822 171.551C387.822 171.551 389.431 200.809 411.229 208.563C411.229 208.563 476.768 191.593 524.752 185.01L458.043 76.3145Z" fill="#F5EE30"/>
<path d="M454.971 74.7056C453.215 77.4851 451.167 80.2647 449.119 82.898C439.317 96.3569 429.369 109.816 419.568 123.128C409.766 136.441 399.818 149.754 389.87 162.92L385.628 168.625C384.897 169.357 384.311 170.381 384.165 171.551C384.165 172.722 384.311 173.746 384.458 174.916C385.043 178.72 385.921 182.523 387.091 186.18C388.846 191.593 391.626 196.714 395.137 201.102C397.039 203.443 399.233 205.491 401.72 207.247C403.037 208.124 404.353 209.002 405.816 209.734C407.572 210.611 409.913 211.782 411.814 211.489C417.373 210.465 422.786 208.709 428.199 207.393C456.726 200.517 485.399 194.227 514.219 189.545C517.876 188.96 521.68 188.375 525.337 187.936C527.239 187.643 528.409 185.888 528.117 184.132C528.117 183.84 527.971 183.547 527.824 183.255L521.241 172.429L505.295 146.535L486.277 115.229L469.6 88.1645C466.82 83.7757 464.333 79.2406 461.407 74.9982L461.261 74.8519C459.067 71.3409 452.484 74.413 454.824 78.2166L461.407 89.0422L477.353 114.936L496.664 146.096L513.341 173.16L518.9 182.084C519.778 183.547 520.51 185.01 521.534 186.327L521.68 186.473L524.167 181.645C504.271 184.425 484.522 188.375 464.772 192.471C449.558 195.689 434.343 199.2 419.129 203.004C416.203 203.736 413.424 204.467 410.498 205.198H412.399C399.526 200.517 393.82 186.766 391.919 174.184C391.772 173.307 391.626 172.429 391.626 171.551C391.48 172.283 391.626 170.673 391.626 171.551C391.626 171.405 391.626 171.405 391.626 171.259L391.041 172.868C408.303 149.754 425.566 126.493 442.682 103.233C448.387 95.4791 454.239 87.5793 459.798 79.6795C460.237 78.9481 460.822 78.3629 461.261 77.6314C463.602 73.9741 457.311 71.1946 454.971 74.7056Z" fill="#F5EE30"/>
<path d="M458.042 76.3145C458.042 76.3145 451.898 114.058 474.281 146.535C496.664 179.012 524.752 184.863 524.752 184.863C524.752 184.863 537.04 158.823 522.118 122.104C507.197 85.3846 458.042 76.3145 458.042 76.3145Z" fill="#262626"/>
<path d="M454.971 74.4124C454.239 79.5327 453.946 84.6529 454.239 89.7732C454.532 101.477 456.58 113.18 460.383 124.152C469.454 149.168 487.594 169.795 511.293 181.937C515.975 184.424 520.802 186.326 525.922 187.497C526.654 187.789 527.532 187.35 527.97 186.619C530.457 180.767 531.92 174.623 532.359 168.332C533.822 152.533 531.335 136.587 525.191 122.104C516.121 100.16 495.201 85.9695 473.55 78.216C468.283 76.168 462.87 74.5587 457.311 73.5347C455.848 73.2421 454.971 74.2662 455.409 75.7291C456.141 77.4846 457.604 78.6549 459.359 79.0938C460.53 79.2401 461.554 79.5327 462.724 79.8253C463.894 80.1179 465.357 80.4104 466.528 80.8493C468.576 81.4345 469.015 81.5808 470.916 82.1659C479.84 85.0918 488.179 89.0417 496.079 94.1619C505.441 100.16 513.195 108.499 518.169 118.3C524.606 131.905 527.385 146.974 526.508 161.895C526.069 168.917 524.898 176.378 521.973 182.815L524.021 181.937L523.289 181.791L522.411 181.499L521.826 181.352C520.948 181.06 522.265 181.499 521.826 181.352C519.193 180.475 516.56 179.45 514.073 178.28C510.415 176.525 506.758 174.623 503.393 172.282C498.858 169.356 494.762 165.992 490.812 162.188C480.718 152.825 472.965 141.414 467.698 128.687C463.456 118.008 461.115 106.597 460.676 95.0397C460.237 89.3343 460.53 83.6289 461.261 77.9235C461.554 75.4365 455.556 71.4866 454.971 74.4124Z" fill="#262626"/>
<path d="M486.57 112.888L462.432 121.958C462.432 121.958 472.38 153.996 488.618 163.212L507.051 137.465L486.57 112.888Z" fill="white"/>
<path d="M485.254 112.303L461.115 121.373C460.677 121.519 458.628 122.251 458.921 122.982C462.432 134.539 467.845 146.242 475.452 155.605C478.085 159.116 481.45 162.188 485.254 164.529C486.131 164.968 488.033 164.236 488.765 163.944C489.935 163.651 491.105 163.066 491.837 162.188L507.929 139.659L510.27 136.441V136.148L492.422 114.643L489.789 111.571C488.618 110.108 482.474 113.473 482.913 113.912L500.614 135.417C501.638 136.441 502.516 137.465 503.248 138.489C503.248 138.489 503.54 138.196 503.101 138.635C502.662 139.074 502.37 139.659 502.077 140.098L492.568 153.265L484.961 164.09L491.691 161.896C484.669 157.8 479.841 150.778 475.891 143.902C472.38 137.758 469.454 131.321 467.113 124.737C466.675 123.421 466.089 122.104 465.651 120.641L463.456 122.251L487.594 113.18C488.18 113.034 490.374 112.156 489.642 111.425C488.911 110.693 485.839 112.156 485.254 112.303Z" fill="#262626"/>
<path d="M490.081 125.469C490.081 125.469 497.249 136.148 507.051 137.611C507.051 137.611 501.345 116.252 486.57 112.888C486.57 112.888 484.961 118.301 490.081 125.469Z" fill="white"/>
<path d="M487.154 125.176C491.982 132.345 500.028 138.489 508.513 139.806C509.537 139.952 510.269 139.513 509.976 138.343C507.782 129.711 502.808 121.812 496.078 115.96C493.006 113.327 489.349 111.571 485.399 110.547C484.96 110.401 483.351 110.108 483.204 110.84C482.034 115.667 484.521 121.08 487.154 125.176C488.178 126.493 489.788 127.371 491.689 127.663C493.152 127.81 493.737 126.932 492.86 125.615C491.104 123.275 490.08 120.495 489.641 117.569C489.495 116.691 489.495 115.96 489.641 115.082C489.641 114.79 489.934 113.766 489.641 114.497L487.447 114.79C487.74 114.936 488.032 114.936 488.471 115.082C488.91 115.228 489.495 115.375 488.764 115.228L489.788 115.667C490.08 115.814 490.958 116.253 490.226 115.814L491.104 116.253C491.397 116.399 491.982 116.838 491.397 116.399C491.982 116.838 492.567 117.13 493.006 117.569C493.445 118.008 492.86 117.423 493.299 117.715L494.03 118.447C494.469 118.886 494.908 119.471 495.493 119.91C495.786 120.202 495.493 119.91 495.493 119.764L495.786 120.202L496.371 120.934C496.81 121.519 497.102 121.958 497.541 122.543C498.858 124.445 500.028 126.493 501.052 128.687C501.784 130.443 502.515 132.052 503.247 133.808C503.539 134.685 503.832 135.417 503.978 136.295L505.441 134.832C505.002 134.832 504.563 134.685 504.271 134.539L503.393 134.247C503.685 134.393 503.539 134.247 503.247 134.247L502.369 133.808L501.93 133.661L501.491 133.369L500.76 132.93C500.467 132.784 500.174 132.637 500.613 132.93L499.882 132.491C499.443 132.198 499.004 131.906 498.711 131.613L498.126 131.174C497.395 130.589 498.565 131.613 497.98 131.028C497.687 130.735 497.249 130.443 496.956 130.004C496.371 129.419 495.786 128.834 495.2 128.102C495.2 127.956 494.615 127.517 495.054 127.956C495.493 128.395 494.908 127.81 494.908 127.81L494.323 127.078C493.884 126.639 493.591 126.054 493.152 125.469C492.128 124.006 490.519 123.128 488.617 122.836C486.862 122.982 486.423 123.86 487.154 125.176Z" fill="#262626"/>
<path d="M445.46 112.741C444.729 118.886 444.875 125.03 446.192 131.028C448.971 145.365 456.286 158.385 466.965 168.333C475.304 176.086 485.106 182.23 495.639 186.327C497.102 186.912 496.078 184.864 495.785 184.425C494.907 182.962 493.591 181.791 492.128 181.06C483.496 177.842 475.597 173.16 468.721 167.162C463.747 162.773 459.797 157.653 456.871 151.801C452.482 143.024 450.142 133.369 450.288 123.421C450.288 121.519 450.434 119.617 450.727 117.715C450.873 116.399 449.118 114.643 448.24 113.912C447.801 113.473 445.607 111.571 445.46 112.741Z" fill="white"/>
<path d="M496.224 187.643L497.833 187.936C498.126 188.082 498.418 188.082 498.565 188.082C498.857 188.082 499.296 188.082 499.589 187.936C500.028 187.789 500.466 187.643 500.905 187.35C501.344 187.204 501.783 186.912 502.222 186.619L502.953 186.034C503.246 185.741 503.685 185.449 503.831 185.01L503.977 184.571C503.977 184.278 503.831 183.986 503.685 183.986L502.076 183.693C501.783 183.547 501.491 183.547 501.344 183.547C500.905 183.547 500.613 183.547 500.32 183.693C499.881 183.839 499.442 183.986 499.004 184.278C498.565 184.425 498.126 184.717 497.687 185.01L496.955 185.595C496.663 185.888 496.224 186.18 496.078 186.619L495.931 187.058C495.785 187.204 495.931 187.497 496.224 187.643Z" fill="white"/>
<path d="M450.289 104.842L450.874 99.5758C450.874 99.137 450.289 98.8444 449.996 98.5518C448.533 97.674 446.778 97.2352 445.022 97.0889H444.437C444.144 97.0889 443.998 97.2352 443.852 97.3815L443.267 102.648C443.267 103.087 443.852 103.379 444.144 103.672C444.876 104.111 445.754 104.55 446.485 104.696C447.363 104.989 448.241 105.135 449.118 105.135H449.703C449.85 105.281 450.142 105.135 450.289 104.842Z" fill="white"/>
<path d="M383.14 172.868C382.409 177.988 382.409 183.255 383.579 188.375C384.896 193.203 387.529 197.591 391.332 201.102C392.503 201.98 393.966 202.565 395.575 202.712C395.867 202.712 398.94 202.858 398.354 202.273C394.697 198.908 392.064 194.519 390.747 189.692C389.723 184.718 389.723 179.597 390.455 174.624C390.455 173.014 383.286 171.844 383.14 172.868Z" fill="white"/>
<path d="M401.134 210.319C402.012 210.904 403.036 211.489 404.06 211.782C404.353 211.928 404.645 211.928 404.938 212.074C405.377 212.221 405.962 212.221 406.401 212.221C406.693 212.221 406.986 212.221 407.132 212.074C407.425 211.928 407.571 211.782 407.571 211.489C407.571 211.197 407.571 210.904 407.425 210.611C407.279 210.173 407.132 209.88 406.986 209.587C406.547 208.71 405.816 208.124 404.938 207.539C404.353 207.1 403.621 206.808 402.743 206.662C402.451 206.662 402.305 206.662 402.012 206.515L402.743 206.662C402.451 206.662 402.012 206.515 401.719 206.369L402.451 206.662C402.158 206.515 401.866 206.369 401.719 206.223L402.451 206.662C402.305 206.515 402.158 206.369 401.866 206.369C401.573 206.076 401.134 205.93 400.695 205.784C400.403 205.637 399.964 205.491 399.671 205.491C399.379 205.491 399.086 205.491 398.94 205.638C398.647 205.784 398.501 205.93 398.501 206.223V206.808C398.647 207.247 398.794 207.686 399.086 208.124L399.671 208.856C400.11 209.441 400.695 209.88 401.134 210.319Z" fill="white"/>
<path d="M411.96 268.982C411.96 268.982 434.781 249.379 441.803 233.579C448.825 217.78 440.048 208.271 433.611 215.585C427.174 222.9 413.422 237.822 405.669 238.846" fill="white"/>
<path d="M414.739 271.323C418.543 268.104 422.054 264.593 425.565 260.936C431.855 254.499 438.146 247.477 442.681 239.577C446.777 232.263 449.996 221.729 442.827 215.293C440.34 212.952 436.829 209.733 433.172 211.343C431.709 212.22 430.392 213.391 429.515 214.707C428.052 216.317 426.735 217.78 425.272 219.389C421.615 223.339 417.811 226.996 413.715 230.361C410.643 232.994 406.839 235.92 402.743 236.505C402.743 236.505 405.084 238.846 405.376 239.138C405.962 239.723 407.571 241.333 408.449 241.186C411.667 240.747 414.593 238.699 417.226 236.651C420.737 234.018 423.956 231.092 427.028 228.02C429.954 225.094 432.733 222.168 435.366 219.096C437.414 216.756 439.17 215 442.388 215.585C442.535 215.585 442.535 215.731 442.681 215.731C442.827 215.731 439.463 213.098 439.316 213.098C439.463 213.391 439.755 213.683 439.901 213.976C440.34 214.707 440.633 215.439 440.925 216.317C441.511 218.218 441.657 220.413 441.364 222.315C440.779 226.996 439.17 231.531 436.683 235.627C432.148 242.942 426.735 249.671 420.591 255.669C416.934 259.473 412.984 263.277 408.887 266.788C408.887 266.934 414.008 272.054 414.739 271.323Z" fill="#262626"/>
<path d="M256.304 243.673L297.12 203.297C297.12 203.297 312.48 157.8 308.238 150.631C302.679 140.976 284.977 133.076 259.669 136.734C235.384 140.245 212.563 145.219 205.394 194.227C204.37 201.541 203.054 215.146 206.565 221.876C212.709 233.14 229.971 250.257 256.304 243.673Z" fill="#262626"/>
<path d="M291.122 261.667C292.732 266.494 294.194 270.006 294.194 270.006C276.786 280.539 255.573 254.206 255.573 254.206C256.597 249.525 256.597 239.577 256.597 239.577C256.597 239.577 272.397 222.899 269.178 194.665L270.788 194.957C286.587 188.228 298.73 174.769 303.85 158.384L305.752 152.094C312.042 165.26 313.359 171.843 317.016 179.304C319.796 185.156 324.331 186.472 328.427 187.204C345.836 190.276 340.715 201.102 335.156 203.881C328.719 207.1 324.623 207.1 324.623 207.1L324.477 219.388C324.477 219.388 310.872 214.414 302.387 207.539C302.387 207.539 298.144 218.072 300.485 224.216C304.581 234.603 318.625 232.116 318.625 232.116C318.625 232.116 319.21 243.088 293.463 251.865L291.122 261.667Z" fill="white"/>
<path d="M287.464 261.96C288.342 264.74 289.366 267.666 290.537 270.299L291.414 269.129C290.537 269.714 289.659 270.153 288.635 270.445C288.342 270.592 287.903 270.592 287.611 270.738C286.879 270.884 287.172 270.738 287.464 270.738C287.757 270.738 286.294 270.884 286.879 270.884C284.978 270.884 283.222 270.738 281.32 270.153C277.224 268.836 273.274 266.642 269.909 264.009C266.984 261.814 264.35 259.327 261.717 256.694C260.986 255.816 260.254 255.085 259.523 254.207C258.791 253.329 259.084 253.768 259.23 252.598C259.962 248.063 260.108 243.674 259.962 239.139L259.523 239.87C266.691 232.409 270.641 221.437 272.25 211.49C273.128 205.784 273.274 199.932 272.543 194.227L266.398 195.836C268.446 196.421 270.641 196.421 272.689 195.69C274.883 194.812 277.078 193.788 279.126 192.471C283.368 189.985 287.318 187.059 290.976 183.694C297.998 177.111 303.264 168.918 306.336 159.848C307.214 157.215 308.092 154.435 308.823 151.802L301.655 152.241C304.581 158.532 307.214 164.968 309.555 171.405C311.603 176.672 313.358 182.67 318.479 185.888C323.306 188.814 329.889 187.79 334.132 191.886C336.765 194.373 336.619 197.884 334.571 200.664C333.4 202.419 331.645 203.59 329.597 204.175C328.134 204.76 326.671 205.199 325.062 205.492C325.793 205.345 324.769 205.492 324.477 205.492C323.891 205.638 325.501 205.492 324.769 205.492C323.891 205.492 320.38 205.784 320.38 207.393L320.234 219.682L326.963 218.219C319.21 215.586 311.895 211.636 305.312 206.662C304.288 206.077 302.972 205.784 301.655 206.077C300.777 206.223 298.729 206.516 298.29 207.54C295.511 214.415 293.316 224.363 299.899 229.776C305.02 234.019 312.773 234.311 319.21 233.287L314.529 232.409C314.529 232.995 314.529 233.726 314.236 234.165C313.505 236.067 312.481 237.822 311.018 239.285C308.384 242.065 305.312 244.259 301.947 246.015C299.314 247.331 296.681 248.648 293.901 249.672C292.146 250.257 289.659 250.55 289.22 252.598L287.172 261.522C286.733 263.716 293.901 263.277 294.34 261.522L296.535 251.72L294.925 252.744C303.41 249.818 312.773 245.868 318.625 238.7C320.088 236.798 321.99 234.165 321.843 231.532C321.843 229.922 317.747 230.654 317.162 230.654C319.21 230.361 317.016 230.654 316.577 230.654C316.138 230.654 317.454 230.654 316.43 230.654H315.699C315.406 230.654 314.967 230.654 314.675 230.654H314.821H314.236C311.164 230.508 308.238 229.191 306.044 226.997C301.216 221.73 303.264 213.245 305.751 207.393L298.729 208.271C305.458 213.538 313.066 217.634 321.258 220.413C322.575 220.852 324.038 220.999 325.501 220.56C326.232 220.413 327.988 219.974 327.988 218.95L328.134 206.662L323.745 208.564C326.086 208.564 328.426 208.125 330.621 207.393C333.839 206.662 336.911 205.199 339.691 203.297C342.324 201.249 344.665 197.592 343.787 194.227C342.47 188.522 335.302 186.766 330.474 185.742C327.695 185.303 325.062 183.987 323.014 182.085C321.112 179.598 319.503 176.672 318.625 173.746C315.699 166.285 313.066 158.824 309.555 151.656C308.969 150.486 307.36 150.632 306.19 150.632C305.02 150.632 302.679 150.924 302.386 152.095C300.046 159.848 297.412 167.309 292.731 174.185C286.587 183.109 278.102 189.985 268.154 194.227L271.665 193.496C274.737 193.642 272.543 193.496 271.811 193.349C271.08 193.203 265.521 193.057 265.667 195.105C266.984 205.93 265.374 216.902 260.986 226.85C259.669 229.922 258.06 232.848 256.158 235.628C255.573 236.506 254.841 237.383 254.256 238.261L253.671 238.993C253.232 239.431 253.671 238.993 253.525 239.139C253.086 239.724 252.939 240.455 253.086 241.187C253.086 243.235 253.086 245.137 252.939 247.185C252.793 249.526 252.208 251.866 252.208 254.207C252.208 254.938 252.501 255.085 252.939 255.524C257.036 260.497 262.01 264.74 267.422 268.251C276.2 273.956 287.757 276.151 297.266 270.592C297.412 270.445 298.436 270.007 298.29 269.421C297.12 266.642 296.096 263.862 295.218 261.083C294.048 259.035 287.026 260.497 287.464 261.96Z" fill="#262626"/>
<path d="M305.459 184.279C305.459 184.279 307.946 187.351 304.727 189.546C301.509 191.74 298.876 187.79 301.07 185.011C301.948 183.548 303.703 183.109 305.02 183.986C305.166 183.986 305.312 184.133 305.459 184.279Z" fill="#262626"/>
<path d="M302.679 179.158C312.627 176.671 321.99 167.748 318.625 156.776C317.016 151.509 313.505 147.12 308.824 144.341C304.142 142.146 298.73 141.561 293.756 142.878C286.734 144.341 280.297 147.998 274.299 151.655C273.86 151.948 271.665 153.118 272.543 153.704C273.421 154.289 276.347 152.533 276.786 152.241C281.613 149.315 286.587 146.389 292.293 145.95C297.559 145.365 302.972 147.12 306.776 150.924C310.433 154.728 313.505 160.287 312.92 165.7C312.627 168.04 311.896 170.381 310.579 172.429C309.994 173.453 309.116 174.331 308.239 175.209C307.946 175.355 307.8 175.647 307.507 175.794C308.239 175.355 307.361 175.794 306.922 175.94C305.166 176.379 303.703 177.11 302.387 178.281C301.363 179.012 301.363 179.451 302.679 179.158Z" fill="#262626"/>
<path d="M333.839 171.551C334.571 161.311 328.573 152.387 319.356 148.437C314.236 146.389 308.823 144.926 303.41 144.341C298.437 143.61 293.316 143.463 288.342 143.902C283.076 144.487 277.809 145.95 273.859 149.754C273.859 149.9 277.078 150.778 277.37 150.924C278.102 151.07 280.443 151.802 281.028 151.217C284.978 147.413 290.244 145.95 295.511 145.511C300.192 144.926 305.02 145.219 309.555 146.243C320.234 149.022 327.549 159.117 326.817 170.088C326.671 170.82 333.839 171.844 333.839 171.551Z" fill="#262626"/>
<path d="M318.771 256.693C327.695 259.327 339.106 262.253 344.08 270.884C349.785 280.832 344.226 292.974 339.545 302.19C338.521 304.238 344.08 308.627 344.665 307.457C347.591 301.459 350.663 295.168 351.687 288.439C352.565 282.295 351.102 276.15 347.737 271.03C340.276 259.619 327.695 254.938 315.26 251.281C313.651 250.842 314.529 252.89 314.968 253.475C315.699 254.938 317.162 256.108 318.771 256.693Z" fill="#262626"/>
<path d="M211.393 210.904C196.325 194.519 169.114 191.593 152.437 207.246C150.828 208.709 157.264 211.635 158.874 210.172C165.457 203.882 174.088 200.517 183.012 200.371C191.351 200.663 199.25 204.32 204.809 210.465C205.98 211.635 207.735 212.367 209.491 212.513C210.369 212.513 212.563 212.22 211.393 210.904Z" fill="#262626"/>
<path d="M52.7302 403.636L3.50098 481.722L113.266 550.923L162.495 472.838L52.7302 403.636Z" fill="white"/>
<path d="M116.888 550.887L88.2144 532.893L35.4028 499.539L15.2144 486.811L9.21643 483.008C8.77755 482.715 8.19238 482.276 7.7535 481.984C7.31462 481.691 7.46092 481.691 7.31462 481.837C7.31462 481.545 7.7535 481.106 7.89979 480.96L9.36272 478.619L14.483 470.573L29.99 445.849L56.03 404.595L56.4689 403.863L49.3006 403.717L77.9739 421.711L130.785 455.066L150.974 467.793L156.972 471.597C157.557 471.89 157.996 472.328 158.435 472.621C158.874 472.914 158.727 472.914 158.727 472.767C158.727 473.06 158.288 473.499 158.142 473.645L156.679 475.986L151.559 484.032L136.198 508.755L110.158 550.01L109.719 550.741C109.427 551.034 113.084 551.473 113.377 551.473C114.108 551.473 116.595 551.765 117.034 551.034L133.711 524.555L160.19 482.423L166.188 472.914L166.042 472.767L155.07 465.892L128.884 449.36L97.1382 429.318L69.9278 412.202C65.539 409.423 61.1503 406.204 56.4689 403.717L56.3226 403.571C55.006 402.986 53.6893 402.839 52.3727 402.986C51.6412 402.986 49.5932 402.693 49.1543 403.425L32.4769 429.757L5.99799 471.89L0 481.399L0.14629 481.545L11.1182 488.421L37.1583 504.952L68.9038 524.994L96.2605 542.256C100.649 545.036 105.038 548.254 109.719 550.741C109.719 550.741 109.866 550.741 109.866 550.887C111.329 551.473 112.792 551.619 114.401 551.473C114.547 551.473 117.327 551.18 116.888 550.887Z" fill="#F5EE30"/>
<path d="M40.5233 467.94C50.0323 465.16 59.9802 462.381 70.0744 462.673C72.4151 462.673 74.9021 462.966 77.2427 463.551C79.4371 463.843 81.4852 464.575 83.387 465.599C86.7518 467.793 84.85 474.084 83.9722 477.156C82.8019 481.837 80.6075 486.226 77.8279 490.176C75.9261 492.809 72.7077 496.028 69.1967 496.174L68.0263 496.028L68.6115 496.759C68.6115 496.613 68.7578 496.32 68.7578 496.174C69.0504 495.443 69.343 494.857 69.7818 494.126C70.8059 492.809 72.2688 491.639 73.878 491.054C77.389 489.591 81.3389 489.591 84.7037 490.908C93.3349 494.272 97.7237 504.22 94.2127 512.851C93.4812 514.314 94.0664 515.924 95.5293 516.655C95.6756 516.655 95.8219 516.801 95.9682 516.801C97.4311 517.387 100.064 516.948 100.796 515.192C105.331 504.367 100.796 491.785 90.1165 486.373C80.6075 481.691 65.2468 483.447 61.4432 495.004C58.9562 502.611 69.7818 502.757 74.3169 500.855C79.876 498.369 83.9722 493.541 86.7518 488.274C89.8239 482.862 91.7257 476.864 92.1646 470.573C92.4572 467.793 91.7257 465.014 89.9702 462.673C87.9221 460.186 84.7037 459.162 81.7778 458.284C67.1486 454.188 52.0804 458.284 37.8901 462.234C36.2809 462.673 35.2568 464.282 35.6957 465.892V466.038C36.7197 467.94 38.7678 468.671 40.5233 467.94Z" fill="#F5EE30"/>
<path d="M108.11 469.402C105.184 472.036 102.843 475.4 101.527 479.204C100.649 481.398 100.502 483.885 101.234 486.226C101.965 488.42 103.428 490.322 105.33 491.639C108.987 494.272 113.815 494.565 117.619 492.517C121.276 490.615 124.348 487.543 123.909 483.154C123.47 478.472 119.374 474.961 115.717 472.474C114.547 471.743 112.645 470.865 111.767 472.474C110.889 474.084 112.352 476.132 113.523 476.863C114.108 477.156 114.547 477.595 115.132 478.034C115.717 478.472 115.717 478.472 116.01 478.765L116.302 479.058C116.595 479.35 116.741 479.35 116.302 479.058C116.595 479.204 116.741 479.497 117.034 479.789C117.18 479.935 117.326 480.082 117.326 480.228C117.326 480.374 117.18 480.082 117.18 479.935C117.326 480.228 117.472 480.521 117.619 480.667C117.911 481.106 117.326 480.082 117.619 480.521C117.619 480.667 117.765 480.959 117.911 481.106C117.765 480.521 117.911 481.106 117.911 481.398C117.911 481.691 117.911 481.398 117.911 481.252V481.837C117.911 481.983 117.911 482.13 117.765 482.422C117.619 482.861 117.472 483.154 117.18 483.593C116.887 484.032 116.595 484.47 116.156 484.763C115.571 485.202 115.132 485.641 114.4 486.08C113.23 486.811 111.913 487.396 110.45 487.689C110.158 487.689 109.865 487.689 109.573 487.689H109.134C109.134 487.689 108.695 487.689 108.841 487.689C108.987 487.689 108.549 487.689 108.549 487.689L108.11 487.543L107.671 487.396C108.11 487.543 107.817 487.396 107.525 487.396C107.378 487.396 107.232 487.25 107.232 487.25C107.232 487.25 107.671 487.689 107.378 487.25C107.232 487.104 107.086 486.957 106.939 486.957C106.939 486.957 107.378 487.543 107.232 487.104C106.647 486.372 107.378 487.543 107.086 486.957C106.939 486.811 106.939 486.665 106.793 486.519C106.793 486.811 106.939 486.957 106.939 486.665C106.939 486.519 106.939 486.226 106.793 486.08C106.793 485.933 106.793 485.641 106.793 485.495C106.939 484.763 107.086 484.178 107.378 483.446C108.549 480.228 110.45 477.448 113.084 475.254C114.4 474.084 113.376 471.889 112.352 471.012C111.328 470.134 109.426 468.671 108.11 469.841V469.402Z" fill="#F5EE30"/>
<path d="M105.477 435.316C105.477 435.316 89.5312 461.21 82.0703 468.671C74.6094 476.132 68.3188 468.525 72.7076 454.773C72.7076 454.773 67.1485 464.575 61.882 455.212C56.6154 445.849 63.6375 428.733 63.6375 428.733C63.6375 428.733 48.1305 444.533 44.0343 437.657C44.0343 437.657 34.2327 428.879 59.1024 410.885C83.9721 392.892 101.088 385.138 101.088 385.138C101.088 385.138 217.83 248.062 238.896 254.353C259.962 260.643 240.944 311.553 217.976 336.715C199.251 357.196 137.661 407.813 137.661 407.813C135.613 412.348 129.908 423.32 129.908 423.32L119.229 444.24" fill="white"/>
<path d="M102.698 432.829C99.3332 438.389 95.6759 443.948 92.0186 449.361C89.239 453.457 86.4594 457.407 83.5336 461.357C81.4855 463.99 78.4134 468.671 74.756 468.964C74.4635 468.964 74.1709 468.964 73.732 468.964C73.8783 468.817 74.756 469.695 74.9023 469.841C75.1949 470.134 74.9023 469.841 74.756 469.256C74.6097 468.671 74.4635 468.232 74.3172 467.647C73.8783 463.99 74.3172 460.479 75.6338 457.114C76.219 455.505 70.9524 450.97 70.0747 452.579C69.1969 454.188 67.4414 456.383 65.3933 456.821C65.1007 456.821 64.6619 456.821 64.3693 456.821L64.8081 457.114C64.3693 456.383 64.0767 455.651 63.6378 454.92C62.9064 453.018 62.6138 450.97 62.6138 448.922C62.7601 442.777 63.9304 436.779 66.2711 431.074C66.8562 429.465 62.1749 425.076 60.712 426.539C58.3713 428.88 55.8843 431.074 53.1047 433.122C51.2029 434.585 49.0086 435.755 46.8142 436.633C46.0827 436.779 45.3513 436.926 44.4735 436.926C44.1809 436.926 44.0346 436.633 44.1809 436.926C44.3272 437.072 44.6198 437.218 44.9124 437.365C44.6198 437.072 46.3753 438.974 45.9364 438.242C45.6438 437.657 45.205 437.218 44.7661 436.779C44.4735 436.487 45.6438 437.803 45.205 437.218C44.7661 436.633 45.7901 437.95 45.4975 437.657C45.3513 437.511 45.3513 437.365 45.205 437.218C45.6438 437.95 45.205 437.218 45.0587 436.779C44.9124 436.34 45.205 437.365 45.0587 436.926C45.0587 436.779 45.0587 436.633 44.9124 436.633C44.9124 436.341 44.7661 436.048 44.7661 435.755C44.6198 434.439 44.7661 432.976 45.205 431.805C45.9364 429.611 46.9605 427.709 48.4234 425.954C53.5436 419.078 60.8583 414.25 67.8803 409.423C74.9023 404.595 81.4855 400.353 88.5075 396.256C92.4574 393.916 96.5536 391.721 100.796 389.527C101.82 389.234 102.844 388.649 103.722 388.064C104.453 387.333 105.039 386.601 105.624 385.87L109.574 381.335C113.816 376.361 118.205 371.533 122.447 366.559C135.321 352.076 148.341 337.739 161.654 323.549C175.698 308.627 190.181 293.852 205.395 280.1C211.247 274.687 217.538 269.567 223.974 264.886C228.071 261.96 232.459 258.741 237.433 257.717C237.872 257.571 238.311 257.571 238.604 257.571H239.189C239.628 257.571 238.75 257.571 239.335 257.571L240.213 257.717C240.652 257.717 239.335 257.425 240.067 257.717C240.213 257.864 240.505 257.864 240.652 258.01C240.944 258.156 241.383 258.303 241.676 258.449C241.822 258.595 242.407 258.741 241.676 258.449C241.822 258.595 242.554 259.18 241.822 258.449C241.968 258.595 242.115 258.595 242.261 258.741C241.676 258.156 242.846 259.473 242.261 258.741C242.846 259.327 242.115 258.449 242.7 259.327C242.7 259.473 243.139 260.204 242.846 259.619C242.992 259.912 243.139 260.058 243.139 260.351C244.016 262.252 244.455 264.154 244.602 266.202C245.041 271.615 244.455 277.174 242.992 282.441C241.383 289.024 239.189 295.315 236.409 301.459C230.996 314.04 223.536 325.597 214.319 335.838C207.297 343.298 199.69 350.174 192.083 357.05C175.552 371.972 158.435 386.455 141.319 400.645L135.614 405.473C135.321 405.619 135.029 405.912 134.736 406.204C134.151 407.082 133.712 408.106 133.419 409.13C132.688 410.593 131.956 412.056 131.225 413.519C127.714 420.541 124.057 427.417 120.546 434.292L116.303 442.631C115.279 444.679 120.984 449.068 121.716 447.605C125.227 440.729 128.738 433.854 132.249 427.124C134.005 423.613 135.906 419.956 137.662 416.445C138.393 414.543 139.271 412.787 140.295 411.178C140.734 410.739 141.173 410.447 141.612 410.154C156.972 397.427 172.187 384.553 187.255 371.387C196.179 363.487 205.103 355.587 213.734 347.248C222.365 338.91 229.826 329.254 235.824 318.721C242.554 306.872 248.405 293.559 250.307 279.954C251.185 274.98 250.892 269.86 249.576 265.032C247.966 260.058 244.309 255.816 239.481 253.621C234.946 251.573 230.704 253.182 226.608 255.377C220.61 258.888 214.904 262.838 209.638 267.373C194.131 280.246 179.94 294.583 165.896 309.066C151.413 324.134 137.223 339.495 123.325 355.148C115.279 364.218 107.233 373.288 99.3332 382.505C99.0406 382.797 98.748 383.09 98.4554 383.383C98.3091 383.675 98.0166 383.821 98.6017 383.529C97.8703 383.968 97.1388 384.26 96.4073 384.553C94.6518 385.431 93.0426 386.308 91.4334 387.186C85.728 390.258 80.0226 393.623 74.4635 397.134C66.2711 402.108 58.3713 407.521 50.9104 413.519C44.9124 418.493 35.8422 427.417 40.0847 436.048C40.5236 437.072 41.2551 437.95 41.9865 438.827C42.2791 439.12 42.5717 439.413 42.8643 439.705C41.2551 438.242 41.5476 438.389 42.4254 439.413C43.3032 440.437 44.4735 441.461 45.6438 442.192C50.1789 444.679 55.0066 441.461 58.5176 438.827C61.1508 436.926 63.7841 434.731 66.1248 432.244L60.712 427.563C58.6639 432.683 57.3472 438.096 57.0547 443.655C56.6158 447.751 57.4935 451.701 59.249 455.359C61.1508 458.87 65.3933 463.99 70.0747 462.966C72.4154 462.234 74.4635 460.479 75.4875 458.138L69.9284 453.603C68.0266 459.455 67.2951 466.623 71.6839 471.597C73.5857 473.645 76.219 475.547 79.1448 475.254C81.4855 474.815 83.5336 473.499 84.9965 471.597C88.215 467.94 91.1408 464.136 93.9204 460.186C97.1388 455.651 100.065 451.116 103.137 446.435C104.746 443.948 106.355 441.314 107.964 438.827C109.281 435.902 103.722 431.367 102.698 432.829Z" fill="#262626"/>
<path d="M76.9497 428.002L70.8054 450.531L69.9276 453.75C69.4887 455.212 70.8054 457.407 71.8294 458.431C72.5609 459.309 74.0238 460.04 74.4627 458.577L80.607 436.048L81.4847 432.83C81.9236 431.367 80.607 429.172 79.5829 428.148C78.5589 427.124 77.3885 426.539 76.9497 428.002Z" fill="#262626"/>
<path d="M242.553 289.317C242.407 294.73 247.234 298.972 252.208 300.143C255.719 300.874 259.23 301.02 262.741 300.728C265.375 300.435 267.862 300.581 270.495 301.313C272.982 302.044 275.03 303.8 276.2 306.141C277.517 308.774 277.81 311.846 279.272 314.333C282.052 319.453 288.489 321.062 293.902 320.038C297.266 319.453 300.485 317.844 303.118 315.503C304.288 314.479 305.459 313.163 306.337 311.846C306.922 311.114 307.361 310.383 307.946 309.652C308.092 309.359 308.385 309.213 308.531 308.92C309.701 307.896 308.97 309.213 307.653 308.628C309.262 309.213 311.164 309.213 312.627 308.335C313.505 307.896 315.114 306.433 313.505 305.702C310.433 304.385 306.922 304.678 304.142 306.433C301.509 308.042 300.192 310.676 298.144 312.87C296.828 314.626 294.926 315.796 292.878 316.381C290.683 316.381 288.489 315.357 287.172 313.601C285.27 311.407 284.832 308.481 283.954 305.702C283.076 303.215 281.467 301.02 279.419 299.557C274.737 296.339 268.739 296.632 263.327 296.924C259.962 297.07 256.743 297.07 253.964 295.169C251.477 293.559 250.014 290.78 250.16 287.854C249.868 285.806 242.846 286.537 242.553 289.317Z" fill="#262626"/>
<path d="M222.658 329.84C227.046 340.519 239.042 345.786 250.014 341.836C251.916 340.958 253.818 339.934 255.573 338.764C256.744 338.032 258.06 337.008 259.377 337.447C263.034 338.471 265.668 342.567 267.716 345.347C269.91 348.858 272.69 351.784 275.908 354.124C279.565 356.319 283.954 356.758 288.05 355.587C291.415 354.417 294.633 352.808 297.413 350.76C298.876 349.736 300.485 349.004 302.094 348.565C302.533 348.419 302.972 348.419 303.411 348.565C304.289 348.858 305.313 349.15 306.191 349.589C310.726 351.637 315.261 353.686 320.381 351.93C321.698 351.491 322.722 350.321 321.698 349.15C320.674 347.98 318.04 347.98 316.724 348.565C315.992 348.858 314.822 348.273 313.944 347.834C312.042 346.956 310.287 346.078 308.239 345.347C304.581 344.176 300.631 344.177 296.974 345.639C293.902 347.102 290.976 348.712 288.197 350.467C287.173 351.199 286.002 351.637 284.686 352.076C283.515 352.369 282.345 352.223 281.321 351.491C278.249 349.736 276.054 346.371 274.006 343.591C271.958 340.227 269.179 337.447 265.814 335.253C262.01 333.058 257.329 332.619 253.233 334.375C250.161 335.692 247.527 338.325 244.163 338.91C241.237 339.349 238.311 338.617 235.97 337.008C232.898 335.106 230.557 332.034 229.387 328.523C228.802 326.183 221.634 326.914 222.658 329.84Z" fill="#262626"/>
<path d="M195.74 362.023C204.81 360.707 214.026 363.194 221.194 368.753C228.07 374.166 231.874 382.651 239.481 387.332C243.285 389.819 248.112 390.404 252.355 388.941C257.036 387.478 260.693 384.114 264.643 381.334C267.862 378.993 273.421 375.775 277.371 378.262C278.834 379.432 280.004 380.749 281.028 382.358C282.345 384.406 283.954 386.308 285.709 387.917C293.024 393.915 304.727 392.745 310.14 384.845L308.092 385.869L321.551 387.625C323.307 387.917 324.184 385.723 323.892 384.26C323.453 382.358 321.99 381.042 320.088 380.895L306.629 379.14C305.898 379.14 305.166 379.579 304.581 380.164C300.778 385.723 291.854 387.039 287.465 381.627C284.539 378.116 282.491 373.873 278.102 371.825C273.421 369.631 268.301 370.801 263.912 373.142C257.036 376.799 249.429 386.747 240.944 381.042C238.018 378.701 235.531 376.068 233.337 372.995C230.703 369.484 227.631 366.266 224.12 363.34C215.635 356.757 204.956 353.685 194.277 355.001C190.034 355.879 192.228 362.609 195.74 362.023Z" fill="#262626"/>
<path d="M477.352 530.846C500.378 530.846 519.045 512.179 519.045 489.152C519.045 466.126 500.378 447.459 477.352 447.459C454.325 447.459 435.658 466.126 435.658 489.152C435.658 512.179 454.325 530.846 477.352 530.846Z" fill="#F5EE30"/>
<path d="M462.431 493.394C462.431 493.394 443.12 481.837 450.435 475.108C457.749 468.378 461.699 481.545 461.699 481.545C461.699 481.545 465.357 468.671 469.892 473.937C474.427 479.204 462.431 493.394 462.431 493.394Z" fill="white"/>
<path d="M462.869 491.931L461.698 491.2L460.382 490.322L459.65 489.737L459.504 489.591L459.065 489.298C457.749 488.42 456.578 487.396 455.408 486.226C454.823 485.641 454.238 485.056 453.652 484.47C453.506 484.324 453.214 484.032 453.067 483.885C452.775 483.593 452.628 483.3 452.336 483.007C452.043 482.715 451.897 482.422 451.751 482.13L451.458 481.691C451.312 481.398 451.458 481.837 451.312 481.545C451.165 481.252 451.019 480.959 450.873 480.667C450.873 480.667 450.727 480.082 450.727 480.374C450.727 480.667 450.727 480.082 450.727 480.082C450.727 480.082 450.727 479.789 450.727 479.643C450.727 479.496 450.727 479.789 450.727 479.496C450.727 479.35 450.727 479.204 450.727 479.058C450.727 478.911 450.727 478.911 450.727 478.765C450.727 478.472 450.727 479.058 450.727 478.765C450.873 478.18 451.019 477.741 451.458 477.302C452.336 476.132 453.652 475.4 455.115 475.108C455.408 475.108 455.554 475.108 455.847 475.108C455.847 475.108 456.286 475.254 456.139 475.254L456.432 475.4C456.432 475.4 456.871 475.693 456.725 475.547L457.017 475.693L457.31 475.985L457.602 476.278C458.48 477.302 459.212 478.472 459.65 479.789C459.797 480.228 460.089 480.813 460.236 481.252C460.236 481.398 460.382 481.545 460.382 481.691C460.382 481.837 460.236 481.252 460.382 481.545C460.528 482.276 461.113 483.007 461.845 483.154C462.43 483.3 463.015 483.007 463.308 482.569C463.747 480.959 464.332 479.496 465.063 478.034C465.356 477.448 465.648 477.009 465.941 476.424C466.234 475.985 466.526 475.547 466.965 475.254C467.111 475.108 467.404 474.961 467.55 474.815C467.258 474.961 467.696 474.669 467.55 474.815L467.843 474.669C467.55 474.669 468.135 474.523 467.843 474.669C467.989 474.669 467.989 474.669 468.135 474.669C467.843 474.376 468.282 474.815 468.282 474.815C467.843 474.522 468.721 475.254 468.428 474.961C468.574 475.108 468.574 475.108 468.72 475.254C468.574 474.961 469.013 475.693 468.72 475.254L468.867 475.693L469.013 476.132C469.159 476.571 469.013 476.132 469.013 476.424C469.013 477.741 468.867 478.911 468.282 480.082C467.258 482.861 465.795 485.348 464.185 487.835C463.161 489.444 461.991 490.907 460.821 492.37C459.65 493.833 462.137 496.32 463.454 494.711C466.965 490.761 469.598 486.226 471.5 481.252C472.524 478.18 472.524 474.669 470.037 472.328C469.013 471.158 467.404 470.865 465.941 471.304C464.624 471.889 463.6 472.913 463.015 474.084C461.698 476.132 460.674 478.472 460.089 480.813L463.161 481.691C462.43 479.35 461.406 477.156 459.943 475.108C458.919 473.645 457.456 472.474 455.7 471.889C453.799 471.45 451.751 471.889 450.288 473.06C442.827 478.472 450.727 486.811 455.7 490.615C457.749 492.224 459.797 493.687 461.991 495.003C462.576 495.442 463.454 495.296 463.893 494.711C463.893 494.565 464.039 494.565 464.039 494.418C463.893 493.394 463.6 492.516 462.869 491.931Z" fill="white"/>
<path d="M493.298 494.419C493.298 494.419 515.973 482.862 507.342 476.132C498.711 469.403 494.176 482.569 494.176 482.569C494.176 482.569 489.787 469.695 484.667 474.962C479.547 480.228 493.298 494.419 493.298 494.419Z" fill="white"/>
<path d="M494.322 496.028C496.224 495.004 498.125 493.98 499.881 492.81C503.246 490.908 506.172 488.421 508.659 485.495C510.853 482.716 511.731 479.205 509.39 476.279C506.464 472.768 501.344 471.451 497.687 474.377C495.346 476.425 493.59 479.058 492.566 481.984L495.492 482.423C494.176 478.473 489.933 469.696 484.374 473.06C477.791 477.01 484.52 486.665 487.592 490.615C489.055 492.517 490.665 494.273 492.274 496.028C493.005 496.321 493.883 496.467 494.322 496.028C494.468 495.882 494.468 495.882 494.614 495.736C495.053 494.858 494.907 493.834 494.176 493.395L493.298 492.371L493.152 492.225C492.859 491.932 493.444 492.517 493.152 492.225L492.713 491.639C492.274 491.201 491.835 490.615 491.542 490.176C489.641 487.982 487.885 485.495 486.568 482.862C485.983 481.691 485.544 480.521 485.252 479.205C485.105 478.327 485.252 477.449 485.837 476.718C486.13 476.279 486.568 475.986 487.007 475.694C487.3 475.547 487.739 475.401 488.178 475.547C488.616 475.693 487.885 475.401 488.324 475.547L488.616 475.694C488.763 475.84 488.909 475.84 489.055 475.986C489.494 476.425 489.933 476.864 490.226 477.303C491.396 479.058 492.274 480.814 492.859 482.862C493.298 484.032 495.2 484.764 495.785 483.301C495.785 483.154 495.931 483.008 495.931 482.716C495.931 482.423 496.077 482.423 496.224 482.13C496.37 481.838 496.37 481.838 496.37 481.838C496.37 481.838 496.516 481.399 496.516 481.692C497.101 480.375 497.979 479.058 499.003 478.034C499.881 476.864 501.198 476.132 502.661 475.84C504.416 475.694 506.172 476.425 507.342 477.742L507.488 477.888C507.634 478.034 507.635 478.181 507.781 478.327C507.927 478.473 507.781 478.327 507.781 478.473C507.781 478.619 507.927 478.766 507.927 478.912C507.781 478.473 507.927 479.643 507.927 479.205C507.927 479.351 507.927 479.497 507.927 479.643C507.927 479.936 507.927 479.79 507.927 479.936C507.635 481.253 506.903 482.423 506.025 483.447C503.685 485.934 501.051 488.128 498.272 489.738C496.37 490.908 494.468 492.078 492.566 493.102C490.518 493.834 492.713 496.906 494.322 496.028Z" fill="white"/>
<path d="M470.623 500.709C471.354 502.904 474.719 502.904 476.475 502.904C478.23 502.904 479.839 502.319 481.302 501.441C482.619 500.709 483.643 499.539 484.374 498.369C484.813 497.783 483.789 498.076 483.497 498.076C482.619 498.369 481.887 498.808 481.302 499.393C481.01 499.832 480.717 500.124 480.425 500.563C480.278 500.709 480.132 500.856 479.986 501.002C479.839 501.148 479.839 501.148 479.693 501.148L480.132 500.856C480.132 500.856 480.717 500.709 480.425 500.709H480.132H479.401C478.815 500.709 478.376 500.709 477.791 500.709C476.328 500.563 474.134 500.417 473.549 498.808C473.403 498.369 471.94 499.1 471.793 499.246C471.647 499.393 470.477 500.27 470.623 500.709Z" fill="white"/>
<path d="M504.708 104.404C517.582 91.8224 522.556 73.2432 518.021 55.9807C513.34 38.5719 498.418 25.2593 481.302 20.4316C463.161 15.3114 444.143 20.5779 429.075 31.5499C421.322 37.109 414.739 44.2773 409.911 52.4697C405.522 60.0769 402.011 68.5619 396.013 74.9987C388.845 82.4597 376.117 81.143 367.486 77.3394C356.953 72.8044 349.053 63.8805 342.616 54.8104C341.885 53.7863 335.887 58.0288 336.618 58.9066C342.47 66.9527 349.053 74.5599 357.831 79.5338C366.169 84.2152 376.264 86.117 385.48 83.0448C394.696 79.9727 401.719 73.2432 406.839 65.3434C411.52 57.8825 414.885 49.6902 420.298 42.6681C431.27 28.624 448.678 21.1631 466.38 22.9186C483.935 24.6741 500.759 35.3535 508.658 51.1531C517.29 68.2693 514.803 91.6761 500.905 105.281C500.32 105.866 499.149 106.891 500.466 107.037C501.783 107.183 503.831 105.135 504.708 104.404Z" fill="#F5EE30"/>
<path d="M309.116 30.5256C309.116 30.5256 318.04 3.31523 315.845 3.46153C313.651 3.60782 231.288 48.3733 235.97 54.0787C240.651 59.7841 283.515 77.1929 286.879 73.8282C290.244 70.4635 296.096 58.6138 296.096 58.6138C296.096 58.6138 326.964 59.3453 327.988 57.4435C329.012 55.5417 309.116 30.5256 309.116 30.5256Z" fill="white"/>
<path d="M310.872 33.5975C312.042 29.9402 313.212 26.4291 314.236 22.7718C315.699 17.9442 317.455 12.9702 317.894 7.84999C318.04 7.26482 317.894 6.67966 317.747 6.09449C317.162 4.63156 316.431 3.31492 315.699 1.99829C315.407 1.55941 314.822 0.389075 314.383 0.0964895C313.944 -0.196095 313.359 0.242781 312.92 0.535366C310.287 1.70571 307.8 3.02234 305.313 4.33897C295.804 9.31292 286.441 14.5794 277.224 19.9923C267.13 25.844 257.036 31.842 247.381 38.4251C243.87 40.6195 240.651 43.1065 237.433 45.7397C236.263 46.7638 233.922 48.5193 233.922 50.4211C234.361 52.1766 235.092 53.7858 236.263 55.2488C236.848 56.1265 237.433 57.0043 238.311 57.7357C239.774 58.9061 241.383 59.9301 242.992 60.8079C248.259 63.7337 253.525 66.2207 259.084 68.4151C264.936 70.9021 270.934 73.2427 277.078 75.1445C279.273 75.876 281.613 76.4612 283.954 76.9001C285.271 77.3389 286.733 77.3389 288.196 77.1926C288.928 76.7538 289.513 76.1686 289.952 75.4371C290.976 74.1205 291.854 72.6576 292.731 71.3409C294.341 68.5614 295.804 65.7818 297.267 63.0023C297.852 61.8319 297.705 61.8319 299.022 61.8319C301.07 61.8319 303.118 61.8319 305.166 61.9782C311.164 61.9782 317.162 62.1245 323.16 61.6856C325.062 61.6856 327.11 61.5393 329.012 61.1005C330.475 60.6616 330.036 59.7838 329.451 58.6135C327.256 53.2007 323.599 48.373 320.088 43.6917C316.577 39.0103 313.359 34.7678 309.848 30.2327L307.946 27.8921C307.068 26.7217 308.092 29.0624 308.092 29.355C308.824 30.8179 309.701 32.2808 310.725 33.5975C315.992 40.3269 321.697 47.4953 326.232 54.2247C326.379 54.5173 326.525 54.6636 326.671 54.9562L326.818 55.1025C326.964 55.2488 327.403 56.1265 326.818 55.1025C326.964 55.3951 327.256 55.9802 326.818 54.9562C326.671 54.6636 326.525 54.2247 326.379 54.0784C326.232 53.9321 326.525 54.2247 326.379 54.371C325.355 54.9562 324.331 55.2488 323.16 55.2488C317.894 55.6876 312.481 55.8339 307.214 55.8339C304.581 55.8339 301.948 55.8339 299.315 55.8339H296.389C295.804 55.6876 295.072 55.6876 294.487 55.8339C293.609 56.1265 293.317 57.4431 292.878 58.3209C291.415 61.2467 289.806 64.0263 288.05 66.8059C287.172 68.1225 286.002 70.9021 284.246 71.3409C282.93 71.4872 281.613 71.4872 280.297 71.0484C275.323 70.0243 270.349 68.4151 265.521 66.5133C259.523 64.3189 253.671 61.9782 247.966 59.1987C243.723 57.4431 239.627 55.1025 235.677 52.4692C235.239 52.1766 234.653 51.5914 234.507 51.4452C233.629 50.5674 236.555 58.7598 237.433 56.7117C237.433 56.5654 237.433 56.5654 237.579 56.4191C238.018 55.5414 238.603 54.8099 239.188 54.0784C241.529 51.7377 244.016 49.6896 246.796 47.9341C255.281 41.9361 264.204 36.5233 273.128 31.2568C282.637 25.6977 292.293 20.1386 301.948 14.872C307.068 12.0925 312.335 9.45921 317.455 6.82595C319.503 5.8019 314.09 3.31493 314.383 0.974248C314.383 1.70571 314.383 2.29088 314.236 3.02234C313.798 5.36302 313.359 7.55741 312.627 9.89809C311.311 14.872 309.701 19.846 308.238 24.8199L307.361 27.4532C307.068 28.3309 308.385 30.0865 308.824 30.8179C309.263 31.5494 309.701 32.2808 310.14 33.0123C310.14 32.866 310.872 33.7438 310.872 33.5975Z" fill="#F5EE30"/>
<path d="M255.427 50.86C255.427 50.86 303.264 40.6196 305.459 41.0585C307.653 41.4973 327.988 57.2969 327.988 57.2969" fill="white"/>
<path d="M256.305 54.0781C266.545 51.8837 276.786 49.6893 287.026 47.6413C292.586 46.4709 298.291 45.3006 303.85 44.4228C304.435 44.2765 305.167 44.2765 305.752 44.1302C306.337 43.9839 305.313 44.1302 305.313 44.1302C305.313 44.1302 304.143 43.8376 304.728 43.9839C305.313 44.1302 303.85 43.3988 304.435 43.8376C306.776 45.3006 308.97 46.9098 311.311 48.519C316.285 52.1763 321.113 55.8336 325.94 59.6372C327.403 60.8076 329.451 60.6613 330.622 59.1984C331.792 57.5891 330.622 55.6873 329.305 54.6633C325.062 51.4449 320.82 48.2264 316.577 45.008C313.944 43.1062 311.457 41.2044 308.678 39.4489C307.215 38.2785 305.313 37.6934 303.265 37.6934C298.291 38.2785 293.317 39.3026 288.343 40.4729C281.175 41.9358 274.006 43.3988 266.984 44.8617L254.111 47.495C249.868 48.6653 252.355 54.9559 256.305 54.0781Z" fill="#F5EE30"/>
<path d="M291.268 71.6337L305.751 47.0565L307.799 43.5455C308.677 42.0826 307.799 40.0345 306.629 38.8641C305.751 37.9864 303.703 36.8161 302.825 38.279L288.342 62.8561L286.294 66.3671C285.416 67.8301 286.294 69.8782 287.464 71.0485C288.196 72.0725 290.39 73.2429 291.268 71.6337Z" fill="#F5EE30"/>
<path d="M258.06 53.2006L302.094 35.2067L308.238 32.7197C309.701 32.1345 304.727 27.3069 302.971 28.0383L258.937 46.0323L252.793 48.5193C251.184 49.1044 256.304 53.9321 258.06 53.2006Z" fill="#F5EE30"/>
<path d="M525.336 136.441C531.773 116.546 557.959 103.964 575.661 117.716C583.561 123.86 587.949 134.247 590.875 143.463C592.777 149.461 594.24 155.606 595.118 161.75C596.142 168.626 596.288 175.94 593.655 182.523C591.753 187.644 588.242 192.179 583.561 195.105C581.22 196.568 578.587 197.445 575.953 197.592C574.783 197.592 573.613 197.592 572.442 197.299C572.296 197.299 569.37 196.129 569.37 196.129C569.663 195.836 570.102 197.445 569.955 196.714C569.809 196.275 569.663 195.69 569.517 195.251C569.224 193.934 569.37 192.471 569.955 191.301C571.126 188.96 573.027 187.059 575.514 186.034C581.366 183.548 587.803 187.059 592.338 190.862C608.138 204.175 612.965 228.313 607.553 247.477C600.969 270.738 579.172 284.782 559.13 295.754C556.496 297.217 554.009 298.533 551.376 299.85C550.645 300.289 554.887 305.848 556.496 304.97C578.879 293.267 604.334 279.223 612.38 253.475C619.695 230.069 610.771 203.59 592.192 187.936C587.072 183.694 580.488 179.012 573.466 179.744C567.907 180.475 562.641 185.596 564.25 191.447C565.859 197.153 572.003 201.688 577.563 202.566C583.122 203.443 589.12 200.517 593.07 196.421C603.603 185.303 601.408 169.065 598.19 155.459C595.264 143.463 590.729 131.76 582.829 122.105C575.222 112.888 564.25 105.574 551.961 106.159C540.112 107.037 529.286 113.62 523.142 123.86C521.679 126.201 520.509 128.834 519.777 131.467C519.484 133.369 524.897 137.612 525.336 136.441Z" fill="#F5EE30"/>
<path d="M537.569 289.752L459.156 290.368L459.595 346.252L538.008 345.636L537.569 289.752Z" fill="white"/>
<path d="M537.771 342.128L511.292 342.275L469.014 342.567L459.212 342.714L462.869 346.371L462.43 297.509V290.487L459.212 293.706L485.691 293.559L527.969 293.267L537.771 293.12L534.114 289.463L534.553 338.325V345.347C534.553 349.443 541.428 350.467 541.428 345.786L540.99 296.924V289.902C540.843 288 539.234 286.391 537.332 286.245L510.853 286.391L468.575 286.684L458.773 286.83C457.164 286.684 455.701 287.854 455.555 289.463C455.555 289.609 455.555 289.756 455.555 290.048L455.994 338.91V345.932C456.14 347.834 457.749 349.443 459.651 349.589L486.13 349.443L528.408 349.15H538.21C542.891 349.004 541.867 342.128 537.771 342.128Z" fill="#F5EE30"/>
<path d="M485.252 304.092L485.398 320.477V324.28C485.252 325.597 485.252 327.06 485.691 328.376C486.861 331.156 491.104 332.473 493.737 331.449C496.224 330.278 498.565 329.108 500.759 327.645L507.927 323.841L511.292 322.086C512.17 321.647 513.486 321.208 513.633 320.038C514.072 317.404 509.829 315.649 508.074 314.625C502.807 311.553 497.687 308.481 492.42 305.409C491.396 304.823 489.056 303.653 487.885 304.677C486.715 305.701 488.617 307.164 489.348 307.603C492.567 309.505 495.931 311.406 499.15 313.308L503.977 316.234L506.464 317.697L507.635 318.429L506.903 317.551C506.611 317.404 504.855 318.575 504.563 318.867L502.076 320.184L497.102 322.964L492.274 325.597L489.787 326.914C489.202 327.206 488.617 327.645 488.178 327.645L489.787 327.938H489.494L491.25 328.669L490.957 328.523L492.274 329.547C492.713 329.986 492.42 329.254 492.42 328.962C492.42 328.376 492.42 327.791 492.42 327.352V324.427V318.429L492.274 306.433C491.981 303.946 485.252 301.459 485.252 304.092Z" fill="#F5EE30"/>
<path d="M147.17 53.7858L46.8131 62.8559C40.5226 63.4411 35.8412 69.0002 36.4264 75.2908L41.5466 131.613C42.1318 137.904 47.6909 142.585 53.9815 142L94.3582 138.343C97.8692 143.609 102.989 150.485 106.354 154.874C107.378 156.191 109.134 156.337 110.45 155.313C110.889 155.02 111.182 154.581 111.328 153.996L117.619 136.148L154.338 132.784C160.629 132.199 165.31 126.639 164.725 120.349L159.605 64.0262C159.019 57.882 153.46 53.2006 147.17 53.7858Z" fill="#F5EE30"/>
<path d="M150.096 52.4685L111.036 55.9795L55.7373 60.9535C49.0078 61.5387 41.5469 61.9775 36.4267 66.9515C31.0138 72.218 33.3545 80.703 33.9397 87.2861L36.7192 117.569L37.7433 129.126C37.7433 131.759 38.3285 134.392 39.3525 136.733C41.8395 141.414 46.8134 143.316 51.9337 142.877L62.3204 142L89.5308 139.513L91.4326 139.366H90.8475C93.9196 143.755 96.9918 148.144 100.21 152.386C101.234 153.849 102.551 156.336 104.306 156.921C106.793 157.799 110.451 156.044 112.499 154.873C114.547 153.703 114.986 151.947 115.717 149.899L118.789 140.975L120.984 134.685L114.693 137.172L138.831 134.977L150.535 133.953C156.387 133.368 163.555 131.174 166.627 125.761C168.383 122.689 168.09 119.617 167.797 116.252L166.773 104.549L163.994 72.9495C163.701 69.5847 163.409 66.3663 163.116 63.0016C162.677 56.4184 156.972 51.5908 150.389 52.0296C150.242 52.4685 150.242 52.4685 150.096 52.4685C148.487 52.7611 146.877 53.2 145.268 53.9314C144.976 54.0777 142.781 55.1018 144.244 54.9555C150.389 54.6629 155.655 59.3443 156.094 65.4885C156.387 67.8292 156.533 70.1699 156.679 72.5106L159.312 101.769C159.898 108.352 160.629 114.935 161.068 121.372C161.36 124.006 160.629 126.639 159.166 128.979C158.727 129.711 158.142 130.296 157.411 130.881C157.118 131.174 156.825 131.32 156.533 131.466C155.216 132.491 156.094 131.174 157.557 131.32C157.264 131.32 156.972 131.32 156.533 131.466L146.439 132.344L120.399 134.685C119.082 134.831 117.765 135.27 116.449 135.855C115.863 136.148 114.254 136.44 114.108 137.172L108.549 152.825C108.256 153.557 108.11 154.288 107.817 155.02C107.671 155.312 107.232 155.751 107.232 156.044C111.914 155.166 113.23 154.727 111.328 154.434C111.036 154.434 110.597 154.288 110.304 153.996C109.427 153.264 108.841 152.386 108.256 151.362C104.745 146.535 101.088 141.707 97.7232 136.733C97.5769 136.587 97.2843 136.587 97.1381 136.733L76.0719 138.635L62.3204 140.098C59.8335 140.537 57.3465 140.683 54.7132 140.537C49.3004 139.805 45.2042 135.27 44.9116 129.857C44.619 127.37 44.4727 124.883 44.1802 122.396L41.5469 93.723C40.9617 87.1398 40.2303 80.703 39.7914 74.1198C39.4988 71.6328 40.084 69.2922 41.4006 67.0978C42.2784 65.7811 43.4487 64.6108 44.619 63.733C45.6431 62.709 41.9858 64.1719 43.7413 64.0256H43.8876C45.2042 64.0256 46.6671 63.733 47.9838 63.733L99.4787 59.0517L143.513 55.1018H144.244C145.853 54.8092 147.463 54.3703 149.072 53.6389C149.364 53.3463 151.413 52.3222 150.096 52.4685Z" fill="#F5EE30"/>
<path d="M70.2199 119.763C64.0756 115.082 58.6628 109.815 53.8351 103.817C51.4944 101.33 50.0315 98.2583 49.3001 95.0399C48.8612 91.8215 50.1778 88.0179 53.25 86.7012C56.6147 85.3846 60.4183 87.4327 63.0516 89.9197C66.27 92.8455 68.757 96.3566 70.6588 100.306C70.3662 90.7974 77.0956 82.3125 86.4584 80.4107C87.9213 80.1181 89.5305 80.1181 90.9934 80.4107C96.26 81.7273 98.6006 88.3105 97.1377 93.577C95.6748 98.8435 91.7249 102.793 87.775 106.597L74.4624 119.617" fill="white"/>
<path d="M110.012 83.1905C110.451 80.8498 113.084 80.5572 114.84 80.9961C118.497 81.8739 117.473 86.7015 116.741 89.3348C114.693 96.2105 111.475 103.379 105.623 107.914C104.599 108.938 104.453 110.547 105.477 111.571C105.77 112.01 106.208 112.156 106.794 112.303L120.253 116.253C122.008 116.984 124.056 116.253 125.226 114.79C125.958 113.473 125.519 111.864 124.202 111.132C124.056 110.986 123.764 110.986 123.617 110.84L110.158 106.89L111.182 111.425C115.279 108.206 118.497 103.964 120.545 99.2827C122.593 94.7476 125.373 89.1885 124.934 84.0682C124.495 78.0702 119.375 74.9981 113.816 74.9981C109.427 74.9981 103.868 77.3388 102.99 82.1664C102.112 86.1163 109.427 86.7015 110.012 83.1905Z" fill="white"/>
<path d="M131.809 82.1658C132.102 87.4323 132.102 92.5525 132.102 97.8191C132.102 102.5 132.395 107.767 130.785 112.302C130.2 113.911 132.102 113.911 133.126 113.619C134.881 113.18 136.344 112.156 137.222 110.547C138.978 105.865 138.685 100.599 138.831 95.6247C138.978 90.2119 138.831 84.799 138.539 79.3862C138.246 76.8992 131.809 79.8251 131.809 82.1658Z" fill="white"/>
<path d="M144.976 86.2629C142.781 86.7018 140.587 87.5796 138.685 88.6036L136.344 89.7739L135.613 90.0665C135.467 90.0665 134.735 90.5054 135.467 90.2128L133.711 90.9443C131.956 91.6758 131.078 93.7238 131.663 95.4794C131.809 96.0645 132.248 96.5034 132.687 96.9423C135.028 98.9904 137.368 101.185 139.416 103.525C140.441 104.696 141.465 105.866 142.489 107.036L143.074 107.768C142.489 107.183 143.366 108.207 143.513 108.353C143.952 108.938 144.537 109.523 144.976 110.255C146 111.718 148.048 112.742 149.657 111.572C151.12 110.401 151.559 108.353 150.535 106.744C146.439 101.331 141.903 96.3571 136.929 91.9683L135.905 97.9663C138.1 97.0886 140.148 96.2108 142.05 95.0405L143.074 94.4553C143.366 94.309 143.659 94.0164 143.074 94.4553C143.22 94.309 143.513 94.309 143.659 94.1627C144.829 93.7238 145.853 93.4313 147.024 93.1387C148.779 92.5535 149.657 90.6517 149.218 89.0425C149.218 88.8962 149.218 88.8962 149.072 88.7499C148.779 86.8481 146.877 85.824 144.976 86.2629Z" fill="white"/>
</svg>
