<svg width="598" height="513" viewBox="0 0 598 513" fill="none" xmlns="http://www.w3.org/2000/svg">
<path d="M555.434 1.74597L595.118 352.27L124.237 405.58L84.5533 55.0559L555.434 1.74597Z" fill="white"/>
<path d="M82.3247 53.2227L94.845 51.8618L129.14 47.9152L179.765 42.1994L241.55 35.2588L309.323 27.6377L377.641 19.8806L441.331 12.6678L495.223 6.54373L534.008 2.18884C540.132 1.50838 546.256 0.691842 552.38 0.147481L553.197 0.011388C554.83 -0.124702 558.368 0.964021 558.641 3.00538L559.729 12.3956L562.587 37.9806L566.806 75.4054L571.977 121.54L577.693 171.893L583.409 222.927L588.717 270.151L593.208 310.297L596.474 339.012C597.018 343.503 597.971 348.13 597.971 352.621C597.971 352.757 597.971 353.03 597.971 353.166C597.971 353.574 597.562 353.982 597.154 353.982L584.634 355.479L550.339 359.426L499.714 365.005L437.792 371.946L370.02 379.567L301.702 387.324L238.012 394.537L184.12 400.661L145.334 405.016C139.21 405.697 133.086 406.377 126.962 407.057L126.146 407.193C124.513 407.33 120.974 406.241 120.702 404.199L119.613 394.809L116.756 369.224L112.537 331.663L107.365 285.529L101.649 235.175L95.9337 184.142L90.6262 136.782L85.9991 96.6355L82.733 67.9204C82.1886 63.4295 81.236 58.8024 81.236 54.3114C81.236 54.0392 81.236 53.9031 81.236 53.7671C80.9637 51.7257 87.2239 53.767 87.4961 55.9445L88.5848 65.1986L91.4427 90.7836L95.6615 128.345L100.833 174.479L106.549 224.833L112.265 275.866L117.572 323.226L122.063 363.372L125.329 392.087C125.874 396.578 126.69 401.206 126.826 405.697C126.826 405.833 126.826 406.105 126.826 406.377L121.383 403.383L134.039 402.022L168.334 398.075L218.959 392.36L280.744 385.419L348.517 377.798L416.835 370.041L480.525 362.828L534.417 356.704L573.202 352.349L585.178 350.988C587.22 350.58 589.397 350.308 591.438 350.308C591.711 350.308 591.983 350.308 592.255 350.172L591.438 350.988L590.35 341.598L587.492 316.013L583.273 278.452L578.102 232.318L572.386 181.964L566.67 130.93L561.362 83.5708L556.871 43.4242L553.605 14.7091C553.061 10.2182 552.244 5.59109 552.108 1.10011C552.108 0.964024 552.108 0.691841 552.108 0.555751L557.552 3.54973L544.896 4.91064L510.601 8.72117L459.975 14.437L398.19 21.3776L330.417 28.9986L262.1 36.7558L198.41 43.9686L144.518 50.0926L105.732 54.5836C99.6081 55.264 93.4841 56.0806 87.36 56.6249L86.5435 56.761C84.9104 56.8971 83.2773 56.3528 82.1886 55.264C81.9164 54.9919 80.6916 53.3588 82.3247 53.2227Z" fill="#F5EE30"/>
<path d="M129.277 72.9558C124.378 77.719 119.751 82.7543 115.396 88.0618C114.308 89.1506 113.083 90.2393 111.722 90.9197C111.45 91.0558 110.633 91.7363 110.361 91.6002C110.089 91.4641 110.225 91.328 110.497 91.1919C114.988 85.6122 119.887 80.3047 125.059 75.4054C126.284 74.3167 127.508 73.3641 128.869 72.5475C129.005 72.5475 129.686 72.0032 129.822 72.1393C129.958 72.2754 129.277 72.9558 129.277 72.9558Z" fill="#262626"/>
<path d="M112.811 71.8665C118.935 77.5823 124.787 83.5703 130.095 89.9665C129.006 90.3748 127.917 90.7831 126.829 91.0552C126.012 91.1913 125.195 91.4635 124.515 91.4635C124.243 91.4635 123.698 91.5996 123.426 91.4635C117.983 85.0673 112.267 79.0793 106.007 73.3635C105.871 73.2274 107.095 72.8191 106.959 72.9552C107.776 72.6831 108.456 72.4109 109.273 72.2748C110.089 72.1387 110.906 71.8665 111.586 71.8665C111.995 71.8665 112.539 71.7304 112.811 71.8665Z" fill="#262626"/>
<path d="M514.682 177.201C520.126 176.793 524.345 181.42 524.889 186.591C525.433 192.579 521.078 197.206 515.907 199.111C509.919 201.425 503.523 199.656 497.943 196.934C493.18 194.62 485.695 191.082 485.831 184.822C485.967 178.562 494.269 175.568 499.032 179.242C503.795 182.917 503.523 189.993 500.529 194.62C493.452 205.508 477.53 204.147 467.187 199.247C457.388 194.62 448.406 183.053 453.85 171.893C456.572 166.45 463.376 163.047 469.228 165.769C474.536 168.355 476.577 174.751 476.441 180.195C476.305 192.307 467.051 202.514 456.163 206.596C445.821 210.543 434.253 209.454 424.727 203.738C420.099 200.744 414.111 195.709 417.105 189.585C418.466 186.591 421.596 185.094 424.863 185.775C427.857 186.591 429.49 189.449 429.898 192.307C430.578 198.023 427.857 203.738 423.774 207.685C419.147 212.176 412.887 214.49 406.627 215.578C403.36 216.123 399.958 216.395 396.692 216.803C395.059 216.939 393.698 215.714 393.562 214.081C393.562 213.945 393.562 213.945 393.562 213.809C393.698 212.04 395.195 210.543 397.1 210.543C405.402 209.862 415.745 209.046 421.052 201.561C422.141 200.064 422.957 198.295 423.366 196.526C423.502 195.709 423.638 194.756 423.502 193.94C423.502 193.804 422.821 192.035 422.821 192.035C422.821 192.035 423.23 191.626 423.366 191.762C423.093 191.626 423.093 192.851 423.093 192.851C423.366 194.756 425.543 196.253 426.904 197.206C438.88 206.46 458.613 204.011 466.778 190.81C469.092 187.272 470.181 183.189 469.772 178.97C469.5 176.112 468.139 171.893 464.873 171.213C461.199 170.396 459.157 174.615 459.021 177.609C459.021 181.284 460.246 184.822 462.696 187.544C467.731 193.396 476.033 196.526 483.518 196.526C487.464 196.526 491.683 195.573 494.269 192.307C495.902 190.265 497.263 185.775 494.405 184.005C493.996 183.733 493.588 183.597 493.18 183.597C492.772 183.597 492.363 183.869 492.363 184.005C492.091 185.502 494.269 186.999 495.357 187.816C497.399 189.177 499.712 190.402 501.89 191.354C504.203 192.579 506.653 193.259 509.239 193.668C512.505 193.94 516.724 192.851 518.084 189.449C519.173 186.727 516.996 183.053 514.274 183.325C512.641 183.461 511.28 182.236 511.144 180.603C511.144 180.467 511.144 180.467 511.144 180.331C511.416 178.698 512.913 177.337 514.682 177.201Z" fill="#F5EE30"/>
<path d="M382.949 212.448L380.772 211.36C380.5 211.224 380.227 210.951 379.955 210.679C379.683 210.407 379.547 210.135 379.547 209.727C379.547 209.318 379.547 209.046 379.683 208.638C379.819 208.23 379.955 207.958 380.227 207.549L380.772 207.005C381.316 206.597 381.86 206.324 382.405 206.188L383.221 206.052C383.766 206.052 384.31 206.052 384.718 206.324L386.896 207.413C387.168 207.549 387.576 207.821 387.712 208.094C387.985 208.366 388.121 208.638 388.121 209.046C388.121 209.454 388.121 209.727 387.985 210.135C387.848 210.543 387.712 210.815 387.44 211.224L386.896 211.768C386.488 212.176 385.943 212.448 385.263 212.585L384.446 212.721C383.902 212.721 383.357 212.721 382.949 212.448Z" fill="#F5EE30"/>
<path d="M521.353 265.659C520.401 272.736 522.034 279.813 525.844 285.801C527.75 288.931 530.471 291.517 533.601 293.558C533.874 293.694 534.282 293.966 534.69 294.102C534.826 294.102 536.323 294.511 536.323 294.647L534.962 295.327C533.601 296.144 533.193 296.28 533.874 295.735C534.01 295.463 534.282 295.191 534.418 294.783C535.098 293.286 535.098 291.517 534.282 290.02C532.649 286.617 528.974 284.032 525.98 281.99C522.714 279.541 519.04 277.635 515.365 276.002C509.513 273.689 501.892 272.056 496.041 274.914C490.325 277.635 485.562 284.712 486.786 291.244C487.059 292.878 487.739 294.375 488.964 295.599C489.508 296.144 490.189 296.416 490.869 296.688C491.141 296.824 491.413 296.824 491.686 296.96C491.958 297.096 492.23 297.096 492.502 297.096C493.863 296.96 493.047 297.369 490.325 298.185C490.597 297.505 491.277 296.96 491.413 296.144C491.55 295.327 491.55 294.375 491.277 293.558C490.733 291.789 489.644 290.292 488.147 289.203C484.881 286.89 480.526 285.801 476.716 284.848C472.633 283.896 467.87 283.079 463.651 284.304C458.48 285.801 453.853 293.694 456.847 298.729C457.255 299.41 457.799 299.818 458.343 300.226C460.521 301.043 457.799 298.321 455.758 301.86C455.894 301.587 456.302 301.315 456.438 300.907C457.255 299.41 457.119 297.505 456.03 296.008C453.853 292.878 449.225 291.789 445.687 291.244C442.829 290.836 438.883 290.292 436.161 291.653C434.392 292.605 433.031 294.102 432.214 295.872C431.534 297.641 432.214 300.907 434.664 300.771L429.628 302.676C431.125 301.723 429.901 299.138 429.22 298.049C427.859 296.144 426.09 294.511 424.049 293.286C419.83 290.292 415.203 287.978 410.304 286.209C409.487 285.937 411.937 284.576 412.209 284.44C413.162 284.032 415.203 282.943 416.292 283.351C421.871 285.393 427.179 288.25 431.942 291.789C433.983 293.014 435.616 294.919 436.433 297.232C437.113 299.546 435.889 301.043 433.983 302.132C431.67 303.493 427.859 304.853 426.09 301.86C424.729 299.546 426.362 296.824 427.995 295.055C431.806 291.108 437.794 288.795 443.101 288.114C448.273 287.434 453.444 288.114 458.207 290.292C460.249 291.244 462.426 292.878 462.971 295.191C463.379 297.232 462.562 299.138 461.065 300.499C459.024 302.132 455.486 303.765 452.9 303.22C450.859 302.812 449.77 300.635 449.498 298.729C448.817 293.966 452.219 289.475 455.894 286.753C460.793 283.215 466.645 281.174 472.633 280.902C479.029 280.902 485.425 282.262 491.141 284.848C493.591 285.665 495.632 287.434 496.993 289.747C498.082 291.925 497.674 294.375 496.177 296.144C493.999 298.185 491.141 299.41 488.283 299.682C486.242 299.954 484.065 299.41 482.431 298.049C478.485 294.511 479.982 287.842 482.295 283.896C485.017 279.677 488.964 276.275 493.591 274.233C498.49 271.784 503.798 270.423 509.241 270.559C514.957 270.831 520.673 272.464 525.708 275.322C528.158 276.547 530.471 278.044 532.649 279.677C535.098 281.31 537.412 283.351 539.317 285.529C540.814 287.298 541.359 289.747 540.678 292.061C539.725 294.783 536.868 296.144 534.418 296.96C531.696 298.049 528.566 297.641 526.253 295.735C524.211 294.238 522.306 292.333 520.673 290.292C517.543 286.209 515.501 281.31 514.821 276.138C514.549 273.553 514.549 270.967 514.957 268.381C515.093 267.429 516.998 266.748 517.815 266.476C518.087 266.204 521.353 265.115 521.353 265.659Z" fill="#F5EE30"/>
<path d="M536.456 113.102L535.775 107.659C534.142 93.6414 521.622 83.5707 507.604 85.2038L173.231 123.037C159.213 124.67 149.143 137.19 150.776 151.208L151.456 156.651C153.089 170.668 165.61 180.739 179.627 179.106L514.001 141.273C527.882 139.64 537.953 127.12 536.456 113.102Z" fill="#F5EE30"/>
<path d="M180.174 175.976L191.469 174.751L221.545 171.349L265.23 166.45L317.217 160.598L372.061 154.338L424.592 148.35L469.366 143.314L501.075 139.776C505.566 139.232 510.057 138.823 514.412 138.279C523.938 137.19 531.559 129.978 533.192 120.451C533.873 116.369 533.192 112.15 532.648 108.067C531.695 102.079 528.565 96.6354 523.666 92.961C518.63 89.2865 512.37 87.6534 506.11 88.6061L500.394 89.2865L474.401 92.2805L433.438 96.9076L382.948 102.623L328.24 108.884L274.621 115.008L227.533 120.315L192.286 124.262L174.05 126.303C169.831 126.575 165.884 128.072 162.346 130.522C157.719 133.924 154.589 139.096 153.772 144.811C153.364 149.03 153.636 153.249 154.453 157.332C156.902 169.035 168.062 177.337 180.174 175.976C181.943 175.84 182.76 177.745 182.487 179.106C182.215 180.875 180.718 182.1 178.949 182.372C165.612 183.733 153.228 175.432 149.418 162.639C148.193 158.148 147.648 153.657 147.648 149.03C147.784 142.362 150.098 135.965 154.317 130.794C159.352 124.67 166.565 120.859 174.458 120.043L180.038 119.362L206.031 116.369L247.403 111.741L298.845 105.89L354.506 99.6294L408.669 93.5053L455.893 88.1978L490.868 84.2512L507.471 82.0737C514.412 81.2572 521.488 83.0264 527.34 87.1091C532.648 90.9196 536.458 96.3632 538.091 102.623C539.18 106.978 539.724 111.469 539.588 115.96C539.18 129.433 529.245 141.681 515.773 143.995C514.139 144.267 512.37 144.403 510.737 144.675L489.235 147.125L450.857 151.48L401.457 157.059L346.476 163.32L291.224 169.58L241.551 175.16L203.309 179.514L181.671 181.964L178.813 182.236C177.18 182.372 176.227 180.467 176.499 179.106C177.044 177.473 178.405 176.112 180.174 175.976Z" fill="#F5EE30"/>
<path d="M490.732 112.286C491.413 116.505 494.407 119.907 498.625 120.996C500.667 121.54 502.844 121.54 504.886 120.86C505.838 120.588 506.655 120.043 507.471 119.499C507.744 119.227 508.016 119.091 508.288 118.819C508.424 118.683 508.696 118.41 508.832 118.274C508.968 118.138 508.968 118.138 508.832 118.274L509.241 117.73C509.377 117.594 509.513 117.322 509.513 117.186C509.104 117.866 509.649 116.913 509.649 116.913C509.649 116.913 509.785 116.505 509.921 116.369C509.649 117.049 510.057 116.097 510.057 115.961C510.329 115.144 510.465 114.328 510.329 113.511C510.193 111.47 509.513 109.564 508.288 107.931C505.702 104.529 501.347 102.896 497.128 103.849C496.04 104.121 494.951 104.529 493.862 105.21C493.182 105.754 492.501 106.298 492.093 106.843L491.549 107.659C491.957 107.115 491.413 107.931 491.413 107.931C491.413 107.931 491.004 109.02 491.277 108.204C491.14 108.476 491.141 108.748 491.004 109.156C490.732 110.109 491.004 108.884 491.004 109.428C490.868 109.837 490.868 110.245 490.868 110.517C490.868 111.061 490.868 111.606 490.868 112.014C491.004 113.783 490.188 115.416 488.827 116.369C488.283 116.913 487.33 116.913 486.786 116.233C486.513 115.961 486.377 115.552 486.377 115.144C485.697 108.612 488.963 102.216 494.543 98.8134C499.714 95.6833 506.383 96.4998 510.738 100.583C520.536 109.701 512.234 127.937 499.17 127.392C492.365 126.984 486.922 121.813 486.241 115.008C486.105 113.239 486.922 111.606 488.283 110.653C489.507 110.245 490.596 110.925 490.732 112.286Z" fill="white"/>
<path d="M482.295 126.575L488.283 119.499L489.099 118.546C489.644 117.866 490.188 117.321 491.005 116.913C491.549 116.641 492.229 116.641 492.774 116.913C493.862 117.866 493.046 119.907 492.365 120.86L486.377 127.936L485.561 128.889C485.017 129.569 484.472 130.114 483.656 130.522C483.111 130.794 482.431 130.794 481.886 130.522C480.798 129.433 481.478 127.392 482.295 126.575Z" fill="white"/>
<path d="M431.397 114.328C436.568 115.28 440.242 119.907 439.97 125.215C439.426 131.203 433.982 135.694 428.266 135.83C425.272 135.83 422.278 135.013 419.829 133.38C417.243 132.019 415.066 130.114 413.16 127.937C411.391 125.487 411.119 122.493 413.705 120.452C416.154 118.546 419.557 118.682 421.734 120.86C425.953 124.943 422.687 131.883 418.468 134.469C413.433 137.735 407.172 137.327 401.729 135.285C397.102 133.38 393.019 130.114 390.433 125.759C389.072 123.718 388.12 121.404 387.575 119.091C386.895 116.641 386.487 113.511 387.712 111.197C389.209 108.476 392.475 107.115 395.469 107.931C398.054 108.748 400.096 110.517 401.321 112.967C404.042 117.594 404.451 123.173 402.545 128.209C398.599 138.279 385.262 143.315 375.872 137.327C373.694 135.966 371.789 134.061 370.428 131.883C369.203 129.842 367.978 126.848 368.659 124.398C369.475 121.404 373.014 119.771 376.008 120.452C378.593 121.132 380.499 123.446 380.499 126.167C381.315 137.327 369.067 145.764 358.86 143.043C356.275 142.362 353.961 141.137 351.92 139.368C350.151 137.735 348.109 135.285 348.654 132.7C349.878 128.073 357.636 126.576 360.221 130.794C363.215 135.694 358.18 141.409 353.825 143.451C349.47 145.492 344.435 145.356 340.216 143.179C338.311 142.09 336.678 140.593 335.453 138.688C334.5 137.327 336.406 135.558 337.494 135.013C338.855 134.197 340.624 134.605 341.577 135.83C342.938 137.871 345.115 139.096 347.565 139.368C349.47 139.64 351.512 139.096 353.009 137.871C353.961 137.055 354.369 135.83 354.233 134.605C354.097 134.197 353.825 133.925 353.689 133.516C353.689 133.516 354.233 134.061 353.553 133.516C353.961 133.108 353.825 133.788 353.553 133.516C353.825 133.108 353.825 133.788 354.506 132.972C355.186 132.155 354.642 132.291 354.914 132.564C355.186 132.836 355.73 133.925 356.003 134.197C357.091 135.285 358.316 136.238 359.677 136.918C364.304 139.368 370.156 137.463 372.469 132.836C372.606 132.428 372.742 132.155 372.878 131.747C373.422 130.522 373.694 129.025 373.558 127.664C373.422 126.984 373.286 126.303 373.014 125.623C373.014 125.759 372.742 125.351 372.742 125.351C374.103 123.582 374.783 123.446 374.647 124.67C375.327 127.528 376.96 129.978 379.138 131.883C383.629 135.558 390.161 135.013 393.972 130.658C397.918 126.167 397.782 117.866 393.291 113.783C392.747 113.375 392.203 113.103 391.658 112.831C391.658 112.967 393.155 112.286 393.019 112.15C393.019 112.422 393.019 112.694 392.883 112.967C392.883 114.6 393.155 116.233 393.7 117.73C394.652 120.588 396.149 123.173 398.19 125.351C400.368 127.664 402.954 129.434 405.948 130.522C408.533 131.339 412.208 132.019 414.657 130.522C415.746 129.706 416.427 128.481 416.563 127.256C416.699 126.576 416.427 125.895 416.154 125.215C416.018 124.943 415.746 124.806 415.61 124.534L415.474 124.398C414.657 123.854 415.474 123.446 417.787 122.901C417.924 123.037 417.924 123.446 418.06 123.582C418.332 123.99 418.604 124.398 419.012 124.806C419.829 125.487 420.781 126.303 421.598 126.848C423.231 128.209 425 129.161 426.906 129.842C430.036 130.794 433.03 129.297 433.302 125.895C433.574 122.765 431.397 119.907 428.266 119.227C427.042 119.091 426.361 117.866 426.497 116.777C426.497 116.505 426.633 116.233 426.769 115.961C427.994 114.872 429.627 114.055 431.397 114.328Z" fill="#262626"/>
<path d="M466.236 93.2338L469.774 137.327C469.91 138.416 468.005 140.049 467.325 140.729C467.053 141.001 465.147 142.635 465.011 141.818L461.473 97.7248C461.337 96.6361 463.242 95.003 463.922 94.3225C464.195 94.1864 466.1 92.4173 466.236 93.2338Z" fill="white"/>
<path d="M539.316 235.992C533.192 234.903 527.204 232.862 521.76 230.004C517.541 227.826 510.873 224.696 511.826 218.844C512.234 216.123 514.683 214.217 517.405 214.217C519.583 214.353 521.624 215.442 522.985 217.211C525.707 220.886 526.523 225.785 525.299 230.14C523.802 235.039 520.127 238.986 515.228 240.483C510.193 242.116 504.749 241.435 500.258 238.85C496.175 236.536 490.187 231.501 494.406 226.602C497.944 222.383 503.66 225.105 504.885 229.868C506.518 235.856 501.074 241.844 495.223 242.252C488.826 242.66 482.022 238.85 477.939 234.087C477.667 233.678 477.667 233.134 477.939 232.59C478.892 230.004 481.75 228.779 484.335 229.868C486.241 230.684 487.602 232.59 487.465 234.767C487.738 240.075 483.383 244.838 478.62 246.335C469.638 249.193 455.076 242.524 457.389 231.501C458.342 227.146 464.194 222.791 468.005 227.01C471.543 230.82 468.685 237.081 465.555 240.075C458.75 246.607 447.863 244.838 442.42 237.625C441.603 236.536 440.514 235.311 441.195 233.814C441.739 232.59 442.964 231.773 444.325 231.501C447.183 231.093 448.68 233.951 448.816 236.4C449.088 241.435 444.461 247.423 438.881 245.654C436.159 244.838 439.426 241.027 441.603 241.708C442.828 242.116 443.508 240.755 443.78 239.802C444.053 238.986 444.189 238.169 444.053 237.217C443.917 236.808 443.78 236.4 443.644 235.992C443.644 235.856 443.508 235.72 443.372 235.584C442.556 234.903 443.372 234.495 445.55 234.359V232.862C447.591 236.808 451.402 239.53 455.756 240.075C459.703 240.619 463.514 238.033 464.602 234.223C464.874 233.134 464.874 231.909 464.466 230.82C464.194 230.276 463.514 229.323 462.833 229.46C462.153 229.596 462.017 231.229 461.88 231.773C461.744 233.27 462.017 234.631 462.697 235.992C464.738 240.483 470.726 243.205 475.489 243.069C477.803 243.069 479.844 242.116 481.341 240.347C482.294 239.122 482.838 237.489 482.702 235.992C482.702 235.447 482.43 234.903 482.022 234.495C481.886 234.359 481.75 234.223 481.614 234.087L481.341 233.95C480.797 233.95 481.069 233.678 482.43 233.27V231.773C485.56 235.447 498.353 243.341 500.258 234.767C500.666 233.134 500.258 231.501 499.305 230.276C498.897 229.868 498.489 229.46 497.944 229.187C497.808 229.051 497.672 229.051 497.536 229.051C498.625 229.323 497.536 228.235 497.808 229.323C497.808 230.14 498.08 230.82 498.625 231.501C499.169 232.181 499.85 232.862 500.53 233.406C502.027 234.767 503.66 235.856 505.565 236.536C511.417 238.986 518.766 237.625 520.808 230.957C521.624 227.963 521.352 224.832 519.855 221.975C519.311 220.886 518.494 219.933 517.541 219.253C517.269 218.981 515.772 218.572 516.453 218.436C517.133 218.3 516.725 218.436 516.725 218.981C516.725 219.389 516.861 219.933 516.997 220.341C517.677 222.247 519.719 223.472 521.488 224.424C523.529 225.649 525.571 226.738 527.612 227.69C531.967 229.732 536.458 231.229 541.085 232.181C544.215 232.454 541.765 236.4 539.316 235.992Z" fill="#262626"/>
<path d="M421.326 250.281C415.066 251.506 408.669 250.69 402.954 248.24C400.504 247.151 398.19 245.79 396.149 244.021C394.38 242.388 392.202 239.802 391.794 237.353C391.386 234.903 394.38 232.454 396.693 232.317C399.007 232.181 401.048 233.27 402.409 235.175C405.675 239.802 403.498 246.743 399.415 250.009C395.06 253.548 387.847 253.684 382.54 252.867C376.96 252.051 371.925 248.648 369.339 243.613C368.659 242.252 367.842 240.891 368.659 239.394C369.339 238.305 370.292 237.353 371.653 236.945C373.83 236.4 376.144 237.081 377.641 238.85C381.315 243.341 378.866 250.554 374.238 253.411C369.611 256.269 362.807 256.542 357.635 255.725C351.92 255.045 346.884 251.778 343.754 247.015C343.074 246.063 343.754 244.838 344.299 244.021C347.02 240.483 351.511 242.932 352.872 246.335C354.641 250.69 351.92 255.317 348.381 257.766C340.896 262.938 330.962 260.76 324.566 254.908C322.524 253.003 325.79 249.193 327.968 251.234C331.914 254.908 337.63 256.95 342.938 255.317C345.115 254.636 347.565 253.411 348.517 251.234C348.926 250.281 348.926 249.193 348.245 248.24C347.973 247.832 347.565 247.696 347.293 247.423C347.02 247.151 347.157 247.423 347.02 247.287C347.157 247.423 347.837 246.607 347.293 247.423L347.837 244.429C351.647 250.145 358.588 251.642 364.984 251.098C368.114 250.826 372.469 250.554 374.102 247.56C374.919 246.199 375.055 244.429 374.375 242.932C374.102 242.524 373.694 242.116 373.15 241.844C373.014 241.708 372.741 241.844 372.605 241.708C372.469 241.572 372.741 241.435 372.605 241.572L372.741 239.122C374.102 242.66 376.688 245.518 380.09 247.015C383.901 248.648 388.392 248.512 392.338 247.968C395.877 247.56 399.007 245.79 399.415 241.98C399.687 240.483 399.279 238.85 398.19 237.761C397.646 237.353 396.557 236.808 396.149 237.625L396.285 235.175C397.918 239.666 402.001 242.388 406.356 244.021C411.255 245.926 416.699 246.471 422.006 245.382C423.367 245.11 424.184 246.607 424.184 247.696C423.639 248.92 422.687 250.145 421.326 250.281Z" fill="#262626"/>
<path d="M298.708 264.571C291.631 263.21 284.963 260.216 279.111 255.861C276.662 253.956 272.579 251.506 272.034 248.24C271.626 245.11 273.94 242.252 277.07 241.844C277.206 241.844 277.342 241.844 277.478 241.844C283.194 241.708 286.052 249.193 284.963 253.82C283.33 260.488 276.934 263.074 270.81 263.618C266.863 264.163 262.916 263.482 259.514 261.441C256.52 259.4 254.343 256.269 253.526 252.731C253.118 251.234 254.887 249.465 256.248 249.193C259.106 248.648 260.875 251.37 261.419 253.684C262.1 256.814 261.283 259.944 259.106 262.393C254.615 267.701 245.497 269.334 239.101 267.837C236.515 267.293 233.929 265.524 233.249 262.802C232.704 259.672 234.337 256.542 237.331 255.317C240.189 254.228 242.503 256.133 243.183 258.855C244 262.121 243.319 265.66 241.006 268.245C238.556 271.239 234.746 272.736 230.935 272.328C226.444 272.056 222.362 269.606 218.551 267.429C216.918 266.476 219.776 262.257 221.681 263.346C224.539 265.115 227.533 266.612 230.799 267.565C233.249 268.245 236.379 268.381 238.556 266.748C240.325 265.251 240.189 262.121 238.828 260.488C238.148 259.808 237.195 259.808 236.923 259.672C237.195 259.127 237.195 259.127 237.195 259.536C237.195 260.352 237.468 261.033 238.012 261.577C239.509 263.482 242.231 263.891 244.544 264.027C247.81 264.163 250.94 263.618 253.934 262.53C255.84 261.713 257.881 260.624 258.017 258.311C258.017 256.814 257.065 253.412 255.023 253.956L257.745 250.418C258.97 255.181 263.053 258.855 268.088 259.4C270.674 259.672 273.395 259.536 275.981 258.991C277.75 258.719 279.519 258.039 280.88 256.678C283.33 253.82 280.88 248.24 277.75 246.743C277.342 246.607 276.934 246.471 276.525 246.471C276.389 246.471 275.437 246.607 275.437 246.607L275.845 246.199C276.117 245.654 276.253 245.654 276.389 246.063C276.525 246.335 276.662 246.471 276.798 246.743C277.206 247.287 277.75 247.968 278.295 248.376C280.336 250.281 282.513 252.051 284.827 253.548C289.862 256.95 295.442 259.263 301.43 260.488C303.335 260.624 300.75 264.979 298.708 264.571Z" fill="#262626"/>
<path d="M551.97 324.178C545.982 323.089 540.13 321.048 534.687 318.19C531.284 316.421 523.391 312.61 526.249 307.303C527.338 305.262 530.604 304.037 532.781 304.173C534.687 304.445 536.456 305.534 537.544 307.167C540.13 310.977 540.538 315.741 538.905 319.959C534.959 329.35 522.03 331.935 513.729 327.172C510.326 325.131 503.658 320.095 508.965 316.285C510.599 315.06 513.32 313.971 515.362 314.652C517.403 315.468 518.764 317.238 519.172 319.415C520.125 325.539 513.865 329.758 508.421 330.166C502.433 330.71 495.765 327.036 491.954 322.545V322.409C493.315 320.504 495.493 319.279 497.806 319.279C499.847 319.415 501.617 321.184 501.481 323.226C501.889 328.533 496.853 332.344 492.226 333.977C487.735 335.474 482.836 335.065 478.617 332.888C473.99 330.574 470.044 325.811 471.405 320.368C472.085 318.054 473.99 316.421 476.304 315.741C478.209 315.06 480.523 314.516 482.156 316.013C485.83 319.415 482.428 325.539 479.298 327.989C472.221 333.841 461.606 333.296 456.162 325.675C455.482 324.859 454.665 323.906 455.482 322.817C456.571 321.728 458.068 321.184 459.565 321.048C462.15 320.776 462.967 323.634 462.831 325.675C462.695 327.989 461.47 330.166 459.565 331.527C457.523 333.024 454.529 334.249 451.944 333.432C451.127 333.16 453.168 332.071 453.305 332.071C454.257 331.527 455.346 331.255 456.435 331.391C456.707 331.527 456.979 331.527 457.251 331.527C455.89 332.207 455.482 332.344 456.026 331.935C456.162 331.663 456.707 331.255 456.843 330.983C457.387 330.166 457.796 329.213 457.932 328.261C458.068 327.308 458.068 326.22 457.796 325.267C457.659 324.859 457.523 324.45 457.251 324.178C456.979 323.77 455.89 323.498 456.707 323.226L459.156 322.273L458.884 322.409L459.837 321.592C459.293 322.409 461.198 324.314 461.742 324.995C462.695 326.083 463.92 327.172 465.281 327.853C467.458 329.213 469.908 329.758 472.493 329.622C474.671 329.35 476.576 327.853 477.529 325.811C478.89 323.498 479.842 319.007 476.848 317.51C476.576 317.374 476.44 317.374 476.168 317.238H475.896L477.256 316.829C476.984 316.693 476.304 318.871 476.168 319.007C475.896 320.64 476.032 322.409 476.576 324.042C477.937 327.308 480.523 329.758 483.789 330.983C486.238 332.071 489.505 333.024 492.226 332.344C494.948 331.663 496.717 328.125 496.717 325.539C496.853 324.042 496.173 322.681 495.084 321.729C494.812 321.592 494.676 321.592 494.404 321.456H493.996C495.629 319.823 496.445 319.551 496.717 320.776C497.534 321.728 498.35 322.545 499.167 323.362C501.889 325.403 505.019 326.9 508.421 327.716C509.374 327.989 510.326 328.125 511.415 327.989C511.823 327.853 512.232 327.58 512.504 327.172C513.729 325.811 514.273 323.906 514.273 322.137C514.273 320.776 513.729 319.415 512.912 318.326C512.504 317.782 511.959 317.374 511.279 317.101L510.326 316.829L512.096 316.285C511.959 316.557 511.823 316.829 511.687 317.101C510.735 320.232 515.09 323.226 517.267 324.586C519.989 326.356 523.255 327.308 526.657 327.308C532.645 327.036 535.503 320.232 534.823 314.924C534.414 312.066 533.19 308.8 530.74 307.167L530.059 306.759C529.787 306.622 528.971 306.623 528.699 306.35L530.74 305.67C530.604 305.806 530.604 306.078 530.468 306.214C530.332 306.759 530.332 307.303 530.332 307.847C530.604 309.616 531.556 311.25 533.053 312.338C536.456 314.788 540.266 316.829 544.213 318.326C548.023 319.959 552.106 321.048 556.325 321.865C557.141 322.001 555.1 323.226 554.964 323.226C554.147 323.906 553.059 324.178 551.97 324.178Z" fill="#262626"/>
<path d="M434.253 339.148C428.265 340.373 422.141 339.556 416.561 337.107C414.111 336.154 411.798 334.657 409.892 332.888C408.395 331.527 405.81 328.669 406.899 326.492C407.715 324.723 409.348 322.137 411.526 321.729C413.431 321.593 415.336 322.545 416.153 324.314C418.602 328.941 415.472 335.066 412.07 338.196C408.259 342.006 401.591 342.278 396.42 341.598C390.704 341.053 385.668 337.651 383.219 332.48C382.674 331.527 382.811 330.166 383.491 329.35C384.035 328.261 384.988 327.172 385.941 326.492C387.574 325.539 389.615 325.947 390.704 327.581C393.97 331.663 390.295 338.332 387.165 341.19C383.355 344.728 376.414 345.136 371.515 344.592C365.935 344.32 360.9 341.462 357.77 336.835C357.362 336.154 358.723 334.249 359.131 333.841C360.083 332.616 361.172 331.255 362.941 331.799C364.438 332.48 365.391 333.705 365.799 335.202C366.888 339.012 363.486 343.775 360.764 346.089C354.095 351.805 344.297 349.763 338.309 344.32C337.629 343.639 340.623 339.693 341.031 340.101C345.25 344.32 351.238 346.089 357.089 345C358.314 344.728 359.675 344.32 360.764 343.639C361.308 343.367 361.989 342.959 362.533 342.414C363.077 341.87 363.077 341.598 363.077 340.645C363.077 339.42 362.533 338.196 361.717 337.243C361.308 336.835 360.9 336.563 360.356 336.29C359.811 336.154 358.859 336.426 359.267 335.746L360.628 332.752C364.847 339.012 371.923 341.053 379.136 340.509C380.905 340.373 382.538 340.101 384.308 339.829C385.26 339.693 386.213 339.284 387.165 338.876C388.39 338.332 388.798 338.196 389.071 337.107C389.615 335.202 389.071 333.16 387.846 331.663C387.302 331.119 386.621 330.711 385.941 330.438C385.532 330.302 385.124 330.302 384.716 330.438C383.899 330.575 383.763 331.255 384.716 329.758L385.668 327.444C387.029 331.119 389.887 334.113 393.289 335.746C397.372 337.651 401.999 337.787 406.354 337.243C408.259 337.107 410.301 336.563 411.934 335.61C412.75 335.066 413.159 334.793 413.431 333.977C413.703 333.024 413.839 331.935 413.703 330.983C413.567 329.214 412.75 327.581 411.253 326.628C410.709 326.22 410.029 325.947 409.348 325.947C408.94 325.947 408.532 325.947 408.123 326.084C407.171 326.356 407.307 327.036 408.259 325.267L408.94 323.634C410.709 328.397 415.064 331.391 419.691 333.16C424.999 335.338 430.714 335.746 436.294 334.657C436.974 334.521 436.022 336.29 435.886 336.562C435.886 337.243 435.069 338.876 434.253 339.148Z" fill="#262626"/>
<path d="M315.174 352.894C307.825 351.397 300.884 348.267 294.76 343.912C292.038 341.871 288.364 339.557 286.595 336.563C285.914 335.338 285.37 333.705 286.459 332.48C287.411 331.664 288.636 331.392 289.861 331.664C295.441 332.344 300.476 338.332 299.523 343.912C298.571 350.58 290.541 351.941 284.962 352.077C277.341 352.077 269.175 347.314 267.27 339.557C267.27 339.421 267.27 339.285 267.406 339.285C270.128 338.741 273.258 340.918 274.755 343.095C276.388 345.545 276.388 348.811 274.755 351.261C272.85 353.983 269.583 355.207 266.453 356.024C262.779 356.977 258.968 356.977 255.294 356.296C252.164 355.616 249.442 353.847 247.673 351.397C246.312 349.356 246.584 346.089 249.17 345.273C251.756 344.456 255.43 346.77 256.791 348.947C258.424 351.669 258.152 354.935 256.383 357.521C250.803 364.87 239.644 358.61 233.656 355.207C233.247 354.935 231.478 353.983 231.75 353.302C232.023 352.622 234.064 353.71 234.336 353.983C238.691 356.432 243.726 359.426 248.762 357.385C251.892 356.16 253.661 352.894 253.117 349.628C252.98 349.219 252.98 348.675 252.708 348.267C252.572 347.995 252.436 347.723 252.436 347.586L252.164 347.178L253.797 347.995C253.389 347.995 253.117 348.131 252.708 348.267C252.3 348.403 252.028 348.675 251.756 348.947C251.075 349.764 250.939 350.853 251.211 351.805C251.756 353.847 252.98 353.71 255.022 353.847C259.513 354.119 265.365 353.302 268.903 350.172C270.536 348.811 271.489 346.77 271.353 344.592C271.217 343.64 271.08 342.823 270.672 342.007C270.672 341.871 270.4 341.598 270.4 341.462L270.264 341.326L271.761 342.143C271.897 342.687 272.033 343.095 272.169 343.64C272.85 345.681 274.211 347.314 275.98 348.403C278.157 349.356 280.607 349.628 282.92 349.356C286.867 349.083 291.63 348.267 293.944 344.592C295.032 342.959 295.305 340.918 294.896 338.877C294.76 337.924 294.352 337.107 293.944 336.291C293.671 335.883 293.535 335.61 293.263 335.202C293.127 334.93 292.174 334.386 292.719 334.522C293.263 334.658 292.174 334.658 292.038 334.658C291.494 334.658 290.95 334.93 290.541 335.338C289.589 336.427 290.269 337.924 291.086 338.877C292.991 341.054 295.305 342.823 297.754 344.32C302.245 347.314 307.281 349.356 312.452 350.308C313.677 350.58 314.765 351.125 315.582 352.077C316.399 352.622 316.262 353.03 315.174 352.894Z" fill="#262626"/>
<path d="M212.019 219.661C212.019 219.661 126.418 450.743 135.264 459.044C144.11 467.346 171.737 475.239 174.458 458.636C177.18 442.033 228.35 224.016 228.35 224.016L212.019 219.661Z" fill="#262626"/>
<path d="M214.879 219.797L212.566 226.194C210.388 232.045 208.347 237.761 206.17 243.613C203.04 252.187 199.909 260.624 196.915 269.198C193.105 279.677 189.43 290.156 185.756 300.635C181.673 312.066 177.727 323.498 173.78 334.93C169.833 346.361 165.887 357.929 161.94 369.497C158.266 380.248 154.727 391.135 151.325 402.022C148.467 411.14 145.745 420.258 143.16 429.376C141.391 435.909 139.621 442.577 138.261 449.245C138.124 449.79 137.988 450.47 137.988 451.015C137.988 451.151 137.988 451.287 137.988 451.423C137.852 451.967 138.124 450.606 137.988 451.151C137.852 451.695 137.852 451.695 137.852 451.967C137.716 452.92 137.58 453.873 137.58 454.689C137.58 455.097 137.58 455.37 137.58 455.778C137.58 455.914 137.58 456.05 137.58 456.322C137.58 457.003 137.444 455.506 137.58 456.05C137.716 456.322 137.716 456.458 137.716 456.73C137.716 457.003 137.308 456.05 137.716 456.594C137.852 456.73 137.036 455.914 137.444 456.322C137.852 456.73 138.397 457.139 138.941 457.547C139.894 458.364 140.982 459.044 142.071 459.588C144.793 461.085 147.787 462.31 150.781 463.263C153.639 464.215 156.769 464.76 159.763 465.032C161.124 465.168 162.485 465.168 163.846 464.896C164.526 464.76 165.206 464.624 165.887 464.488C166.431 464.351 166.976 464.215 167.384 463.943L168.336 463.535C168.881 463.263 168.064 463.807 168.609 463.399C168.881 463.263 169.153 462.991 169.425 462.855C169.697 462.718 170.106 462.174 169.697 462.582L170.378 461.902C170.786 461.358 170.378 461.902 170.514 461.766C170.65 461.63 170.786 461.221 171.058 460.813C171.194 460.677 171.194 460.541 171.194 460.405C171.467 459.861 171.058 460.813 171.194 460.405C171.467 459.316 171.739 458.091 171.875 457.003C172.283 455.097 172.691 453.192 173.1 451.287C174.461 444.618 175.958 437.95 177.455 431.282C179.632 421.619 181.809 412.093 183.987 402.43C186.573 390.863 189.294 379.295 192.016 367.863C194.874 355.615 197.732 343.367 200.454 331.119C203.176 319.143 206.034 307.031 208.891 295.055C211.341 284.576 213.791 273.961 216.24 263.346L221.684 239.122L224.814 225.513C224.95 224.969 225.086 224.288 225.222 223.744L226.583 226.874L210.252 222.519C208.619 222.111 208.619 219.797 209.164 218.572C209.98 217.075 211.613 216.259 213.382 216.667L229.713 221.022C231.074 221.43 231.346 223.063 231.074 224.288C230.53 226.738 229.849 229.188 229.305 231.637C227.808 238.306 226.175 244.974 224.678 251.506C222.364 261.169 220.187 270.831 217.873 280.494C215.152 292.061 212.43 303.765 209.708 315.333C206.85 327.717 203.992 340.101 201.134 352.621C198.276 364.733 195.555 376.709 192.833 388.821C190.383 399.436 187.933 410.188 185.484 420.803C183.715 428.968 181.809 436.997 180.04 445.163C179.088 449.518 177.999 454.009 177.318 458.364C176.502 463.943 172.555 468.57 167.248 470.339C160.852 472.381 153.911 471.292 147.651 469.387C144.521 468.434 141.527 467.209 138.805 465.576C136.627 464.488 134.586 463.127 132.817 461.358C131.728 459.997 131.32 458.227 131.456 456.458C131.456 451.423 132.817 446.251 134.042 441.352C135.947 433.459 138.124 425.566 140.574 417.673C143.568 407.466 146.834 397.395 150.1 387.324C153.775 375.893 157.585 364.461 161.532 353.166C165.479 341.326 169.561 329.622 173.644 317.918C177.455 306.759 181.401 295.6 185.348 284.44C188.886 274.642 192.288 264.979 195.827 255.181C198.549 247.832 201.134 240.483 203.856 233.134L208.347 220.886L208.891 219.253C209.3 217.62 210.933 216.395 212.702 216.395C214.063 216.531 215.015 217.756 214.879 219.117C215.015 219.389 215.015 219.661 214.879 219.797Z" fill="#262626"/>
<path d="M242.097 255.18C187.831 255.18 143.84 211.189 143.84 156.923C143.84 102.657 187.831 58.666 242.097 58.666C296.363 58.666 340.354 102.657 340.354 156.923C340.354 211.189 296.363 255.18 242.097 255.18Z" fill="#F5EE30"/>
<path d="M343.755 182.373C338.312 202.65 326.744 220.614 310.685 233.951C275.574 262.53 226.446 266.613 187.115 244.022C169.424 233.679 155.27 218.164 146.56 199.656C137.715 180.876 134.993 159.782 138.667 139.504C142.478 118.546 152.821 99.4937 168.063 84.6598C183.441 70.0982 202.902 60.2997 223.86 56.8974C246.179 53.0869 269.178 56.217 289.727 65.8794C308.508 74.9974 324.022 89.5591 334.365 107.659C344.436 125.623 348.655 146.309 346.613 166.722C346.069 172.03 345.116 177.337 343.755 182.373C343.483 183.461 341.578 184.278 340.761 184.686C339.128 185.367 337.359 185.503 335.59 185.367C333.412 185.231 329.874 184.414 330.555 181.556C340.625 142.906 325.791 101.943 293.13 78.8079C291.224 77.447 289.183 76.0861 287.142 74.8613C285.237 73.6365 283.331 72.5478 281.29 71.5952C276.663 69.2816 272.036 67.3764 267.136 65.8794L266.456 65.6072C267.545 65.8794 266.728 65.6072 266.456 65.6072L264.551 65.0628C263.326 64.7907 261.965 64.3824 260.74 64.1102C258.155 63.5658 255.705 63.0215 253.119 62.7493C251.894 62.6132 253.255 62.7493 253.391 62.7493C253.119 62.6132 252.711 62.6132 252.439 62.6132L250.534 62.341C249.309 62.2049 247.948 62.0688 246.723 62.0688C245.498 62.0688 244.273 61.9328 242.912 61.9328H241.279C241.007 61.9328 239.918 61.9328 241.007 61.9328C242.096 61.9328 240.735 61.9328 240.463 61.9328C238.013 61.9328 235.564 62.0688 232.978 62.341C231.753 62.4771 230.664 62.6132 229.576 62.7493C228.487 62.8854 230.937 62.4771 229.984 62.6132L229.031 62.7493L226.99 63.0215C224.54 63.4297 222.227 63.9741 219.777 64.5185L218.28 64.9267C218.144 64.9267 217.872 65.0628 217.736 65.0628C216.511 65.4711 215.422 65.7433 214.197 66.1515C211.884 66.9681 209.57 67.7846 207.393 68.7373L205.76 69.4177C205.352 69.5538 204.263 70.0982 205.215 69.6899C203.991 70.2343 202.902 70.7786 201.813 71.4591C197.594 73.6365 193.512 76.2222 189.565 78.944L188.748 79.4884L187.252 80.5771C186.299 81.3937 185.346 82.0741 184.394 82.8907C182.488 84.5237 180.719 86.1568 178.95 87.7899C172.009 94.5944 166.158 102.352 161.667 110.925C149.827 133.244 147.241 159.237 154.318 183.325C157.039 192.443 160.986 201.153 166.294 209.046C171.465 216.94 177.861 224.152 185.21 230.14C189.021 233.27 193.103 236.128 197.322 238.714C198.139 239.258 199.636 240.075 200.044 240.211L200.588 240.483C200.861 240.619 201.133 240.755 201.405 240.891C202.085 241.164 202.63 241.572 203.31 241.844C205.624 242.933 207.937 244.022 210.251 244.974C212.564 245.927 215.014 246.743 217.327 247.424C217.464 247.424 218.416 247.696 217.736 247.56C217.055 247.424 218.008 247.696 218.144 247.696L219.777 248.104C221.138 248.513 222.499 248.785 223.86 249.057C226.309 249.601 228.895 250.01 231.481 250.418C232.434 250.554 230.392 250.282 231.209 250.418L231.889 250.554L233.794 250.826C235.155 250.962 236.516 251.098 237.877 251.098C239.238 251.098 240.191 251.234 241.415 251.234H243.321C243.729 251.234 244.682 251.098 242.912 251.234H243.865C246.315 251.234 248.764 251.098 251.35 250.826C252.575 250.69 253.8 250.554 255.024 250.418C254.888 250.418 253.391 250.69 254.616 250.418L255.297 250.282L257.338 250.01C259.788 249.601 262.101 249.057 264.551 248.513L266.32 247.968C267.409 247.696 265.231 248.24 266.728 247.832C268.225 247.424 269.178 247.016 270.403 246.607C272.716 245.791 275.03 244.974 277.207 244.022L278.704 243.341L279.521 242.933C280.337 242.661 278.704 243.341 279.385 242.933C280.609 242.388 281.698 241.844 282.787 241.164C284.828 240.075 286.87 238.85 288.911 237.625C290.952 236.4 292.994 235.04 294.899 233.543L295.579 232.998C296.26 232.59 295.035 233.406 295.715 232.862L296.94 231.91C297.893 231.093 298.982 230.276 299.934 229.46C303.609 226.33 307.011 222.928 310.141 219.389C316.537 212.04 321.845 203.739 325.655 194.757C327.561 190.266 329.194 185.639 330.555 180.876C330.827 179.787 332.732 178.97 333.549 178.698C335.182 178.154 336.951 177.882 338.72 178.018C340.761 178.834 344.436 179.515 343.755 182.373Z" fill="#262626"/>
<path d="M3.39302 493.339C3.39302 493.339 65.9946 385.556 62.5923 338.741C59.19 291.926 44.7645 275.05 62.4562 263.347C80.1479 251.643 97.7036 288.932 95.6622 304.718C95.6622 304.718 108.727 271.92 143.294 291.381C143.294 291.381 162.619 272.056 180.583 297.777L152.14 375.621C170.648 397.123 183.713 390.319 191.742 374.396C199.771 358.474 194.328 348.267 212.019 345.817C229.711 343.368 233.249 364.053 225.765 398.348C218.28 432.643 160.849 459.997 144.11 450.062L115.259 510.759" fill="white"/>
<path d="M0.126694 492.386C6.11465 482.179 11.6944 471.564 17.138 461.085C28.4335 439.583 38.368 417.536 46.9417 394.809C51.1605 383.922 54.5628 372.627 57.0124 361.195C58.1011 356.296 58.7816 351.397 59.1898 346.497C59.462 340.509 59.1898 334.521 58.2372 328.533C57.2846 320.64 56.0598 312.747 54.4267 304.99C53.338 299.274 51.9771 293.422 51.0244 287.57C49.7996 279.677 49.2552 271.103 55.3793 265.115C58.7816 261.441 63.4086 259.399 68.3079 259.536C74.0237 260.08 79.4673 262.666 83.4139 266.884C87.6327 271.375 91.035 276.411 93.4846 282.127C95.9342 287.434 97.7034 293.15 98.5199 299.002C98.7921 301.315 98.9282 303.629 98.656 306.078L92.1237 304.037C93.7568 300.09 96.2064 296.416 99.2004 293.286C105.324 286.754 113.898 283.215 122.88 283.624C130.773 284.032 138.258 287.026 145.063 290.836L140.027 290.292C146.152 284.304 154.861 281.718 163.299 283.351C167.109 284.168 170.648 285.801 173.914 288.115C175.683 289.475 177.316 290.836 178.813 292.469C179.63 293.422 180.582 294.375 181.399 295.327C182.215 296.28 183.576 297.505 183.712 298.593C183.712 299.138 183.576 299.546 183.304 299.954L182.215 302.948L173.097 327.853L161.802 358.881L157.583 370.585L156.222 374.532C156.086 375.212 155.814 375.893 155.406 376.573C155.406 376.709 155.27 376.709 155.27 376.845L155.133 375.893C158.808 380.112 163.299 384.739 168.743 386.78C169.015 386.916 170.376 387.324 170.512 387.324C171.328 387.46 172.145 387.596 172.961 387.46C174.458 387.324 175.955 386.916 177.452 386.1C185.346 382.153 189.564 372.218 192.014 364.189C193.103 360.378 193.783 356.432 195.416 352.893C196.913 349.627 199.635 347.042 202.901 345.817C210.25 342.823 219.776 342.823 225.9 348.403C231.48 353.574 232.569 362.148 232.569 369.36C232.569 374.804 232.161 380.384 231.344 385.827C230.664 391.679 229.575 397.395 227.942 403.111C222.362 420.53 206.576 433.595 191.334 442.441C183.712 446.932 175.547 450.334 166.973 452.512C160.305 454.145 153.092 455.097 146.424 453.056C144.927 452.648 143.43 451.967 142.069 451.151L147.376 451.287L137.578 471.836L122.064 504.498L118.525 512.119C117.437 514.297 111.176 511.983 111.993 510.078L121.791 489.528L137.306 456.866L140.844 449.245C141.661 447.476 144.927 448.701 146.152 449.381C146.56 449.518 145.607 449.109 146.288 449.518C146.56 449.654 146.832 449.654 147.104 449.79C145.743 449.109 149.009 450.198 147.649 449.926L149.554 450.198C150.37 450.334 149.418 450.198 149.962 450.198H151.187C154.317 450.198 157.311 449.926 160.305 449.245C168.334 447.476 176.091 444.482 183.168 440.536C191.197 436.317 198.682 431.009 205.351 424.749C211.747 418.897 216.918 411.821 220.321 403.927C222.09 399.164 223.315 394.129 223.995 389.094C225.084 383.378 225.628 377.526 225.9 371.81C226.173 364.733 226.037 355.751 221.273 349.9C221.137 349.763 220.593 349.219 220.185 348.811L219.776 348.539C220.185 348.811 219.912 348.539 219.776 348.539C219.64 348.403 218.552 347.858 219.232 348.13C218.96 347.994 218.688 347.858 218.415 347.722C217.871 347.45 219.096 347.858 218.143 347.586L217.599 347.45C217.735 347.45 218.415 347.586 217.735 347.45C217.463 347.45 216.646 347.314 216.918 347.314C216.646 347.314 216.374 347.314 216.102 347.314H215.149C214.197 347.45 213.244 347.45 212.291 347.722C210.114 347.994 208.073 348.675 206.303 349.763C203.582 351.397 201.676 354.118 200.86 357.112C199.499 360.923 198.818 365.006 197.458 368.816C194.736 376.709 190.109 385.691 182.215 389.366C173.097 393.585 162.891 388.549 155.95 382.561C153.5 380.384 151.051 377.934 149.009 375.348C148.873 375.076 148.737 374.804 148.873 374.396L158.536 347.994L173.778 306.078L177.316 296.416L177.452 297.369C175.003 293.558 171.6 290.292 167.79 287.842C165.612 286.481 163.027 285.801 160.577 285.937C156.222 286.345 152.139 287.842 148.601 290.564C147.785 291.109 146.968 291.789 146.288 292.469C145.063 293.694 142.341 292.606 141.252 291.925C132.679 287.162 123.152 284.712 114.034 289.067C108.455 291.925 103.827 296.28 100.833 301.724C100.153 302.948 99.4725 304.173 98.9282 305.398C98.1116 307.575 92.1237 305.67 92.3959 303.357C92.9402 298.321 91.8515 293.15 90.3545 288.387C88.5853 282.671 85.9996 277.227 82.7335 272.328C81.2365 270.015 79.4673 267.973 77.562 266.204C76.7455 265.524 75.9289 264.843 75.1124 264.163L74.2959 263.618C73.4793 263.074 74.8402 263.89 73.8876 263.482L73.3432 263.21L72.7989 262.938C73.2072 263.074 73.2072 263.074 72.7989 262.938L71.9823 262.666C72.7989 262.802 71.8462 262.666 71.7101 262.666C71.5741 262.666 71.3019 262.666 71.1658 262.53C71.8462 262.666 70.8936 262.53 70.8936 262.53C69.941 262.53 68.9884 262.666 68.1718 262.938C66.1305 263.754 64.2252 264.843 62.5921 266.34C56.468 271.648 56.468 279.405 57.6929 286.89C58.5094 292.469 59.7342 297.913 60.8229 303.357C62.3199 310.706 63.5447 318.19 64.6335 325.675C65.5861 332.208 66.1305 338.74 65.9944 345.272C65.8583 349.899 65.3139 354.527 64.3613 359.018C62.1838 370.041 59.1899 380.792 55.2432 391.407C47.2139 413.998 37.1432 435.909 26.256 457.411C20.1319 469.523 13.8718 481.635 6.9312 493.339L6.65901 493.883C5.2981 496.469 -0.962036 494.155 0.126694 492.386Z" fill="#262626"/>
<path d="M108.048 334.929C107.64 335.338 108.048 334.929 108.184 334.657C108.32 334.385 108.593 333.977 108.729 333.704C109.273 332.888 109.681 331.935 110.09 330.983C111.45 328.261 112.947 325.539 114.444 322.817C118.527 315.196 123.426 308.12 129.006 301.587C132.544 297.505 136.491 293.83 140.846 290.564C141.935 289.883 143.16 289.747 144.384 290.292C145.065 290.564 146.153 291.517 145.201 292.333C131.592 302.132 122.746 316.965 115.125 331.663C114.308 333.432 113.356 335.065 112.267 336.562C111.178 337.923 106.415 336.835 108.048 334.929Z" fill="#262626"/>
<path d="M86.8177 325.675L92.3974 307.848L93.2139 305.262C93.6222 303.629 94.9831 302.404 96.6162 301.996C98.2493 301.86 98.5215 303.493 98.1132 304.717L92.5335 322.545L91.7169 325.131C91.3087 326.764 89.9477 327.989 88.3147 328.397C86.6816 328.533 86.4094 326.9 86.8177 325.675Z" fill="#262626"/>
<path d="M299.799 176.657C281.29 166.314 266.729 150.119 258.427 130.658C257.611 128.753 255.569 125.487 257.066 123.582C258.563 121.676 262.51 121.54 264.687 121.676C269.723 121.812 274.486 124.126 277.616 127.937C283.468 135.149 284.012 145.22 280.61 153.522C277.344 161.823 270.403 168.219 261.693 170.533C252.167 172.982 241.96 171.349 233.659 166.042C229.984 163.592 226.99 160.326 224.813 156.516C222.908 153.113 221.275 148.622 223.452 144.948C224.541 143.043 226.446 142.634 228.487 142.362C231.209 141.954 234.067 142.634 236.244 144.54C239.375 147.806 240.599 152.569 239.375 156.924C236.789 167.539 224.541 170.941 215.014 171.077C204.535 171.077 192.559 166.994 189.838 155.699C189.157 153.249 189.293 150.664 189.974 148.214C190.382 146.581 196.914 147.397 196.778 148.078C194.329 157.06 200.725 165.634 209.162 168.491C216.92 170.941 226.31 168.219 230.801 161.279C232.978 157.876 233.523 153.794 232.57 149.983C232.026 148.078 231.073 146.445 229.712 145.084C229.304 144.812 229.032 144.54 228.623 144.267C228.079 143.723 226.854 143.995 229.848 143.995H231.481L231.345 144.131C230.937 144.812 230.257 145.084 229.984 145.9C228.623 149.303 229.848 152.977 231.481 155.971C233.25 159.373 235.836 162.231 238.966 164.545C244.274 168.628 251.351 171.349 258.019 169.308C265.232 167.131 271.084 161.006 273.941 154.066C277.072 147.125 276.935 139.096 273.805 132.155C271.9 128.481 268.77 124.943 264.823 123.582C264.551 123.446 264.007 123.446 263.735 123.309C263.463 123.173 262.51 123.309 264.143 123.173C265.504 123.037 264.551 123.037 264.279 123.309C263.463 124.126 263.19 125.487 263.735 126.576C264.415 128.617 265.368 130.794 266.32 132.7C273.805 149.031 285.781 162.776 300.751 172.574C302.52 173.799 304.426 174.888 306.467 175.976C307.284 176.521 304.29 177.065 304.154 177.065C302.52 177.473 301.023 177.201 299.799 176.657Z" fill="#262626"/>
</svg>
