<svg width="646" height="519" viewBox="0 0 646 519" fill="none" xmlns="http://www.w3.org/2000/svg">
<path d="M642.47 25.5664H268.332V60.9126L642.47 59.9346V25.5664Z" fill="#262626"/>
<path d="M639.396 24.0304H280.486C275.736 24.0304 270.846 23.751 265.956 24.0304H265.398L265.258 24.1701V59.5163C265.258 60.2148 267.353 61.0531 267.773 61.1928C268.89 61.8913 270.148 62.3105 271.405 62.4502H281.464H308.567L348.943 62.3105L397.841 62.1708L451.768 62.0311L505.835 61.8913L556.689 61.7516L599.3 61.6119H630.315C635.205 61.6119 640.095 61.7516 644.845 61.6119H645.543H645.683V26.9643C645.683 26.1261 643.308 25.2878 642.749 25.0084C642.47 24.8687 639.396 23.751 639.396 24.0304V56.8618C639.396 57.1413 639.257 58.678 639.536 58.3986C639.536 58.3986 639.396 58.3986 639.257 58.3986C637.72 58.5383 636.043 58.5383 634.506 58.3986H624.168L589.8 58.5383L541.601 58.6781L485.019 58.8178L425.643 58.9575L368.502 59.0972L319.465 59.2369L283.42 59.3766C277.692 59.3766 271.964 59.3766 266.236 59.3766H265.537L271.684 62.3105V29.1996C271.684 28.7805 271.405 27.3834 271.684 26.9643C272.243 26.8246 272.662 26.8246 273.221 26.9643H627.521C633.249 26.9643 638.977 27.104 644.705 26.9643H645.404C646.102 26.9643 643.587 25.4275 643.448 25.4275C642.33 24.5893 640.933 24.1701 639.396 24.0304Z" fill="#262626"/>
<path d="M268.332 60.9115V297.717H642.47V59.9336L268.332 60.9115Z" fill="white"/>
<path d="M264.979 61.471V288.636C264.839 291.71 264.839 294.784 264.979 297.857C264.979 297.997 264.979 298.137 264.979 298.276C264.979 298.975 266.516 299.115 266.795 299.115H640.794C641.911 299.115 645.823 298.975 645.823 297.298V69.0153C645.963 65.9417 645.963 62.8681 645.823 59.6548C645.823 59.5151 645.823 59.3754 645.823 59.2357C645.823 58.5372 644.286 58.3975 644.007 58.3975H633.948H606.845L566.469 58.5372L517.571 58.6769L463.644 58.8166L409.577 58.9563L358.723 59.096L316.112 59.2357L285.236 59.3754H270.707H270.008C268.611 59.3754 266.376 59.3754 265.398 60.4931C264.42 61.6107 265.957 61.8902 266.935 61.8902H276.994H304.097L344.473 61.7505L393.371 61.6108H447.298L501.365 61.471L552.219 61.3313L594.83 61.1916L625.705 61.0519C630.595 61.0519 635.485 61.3313 640.235 61.0519C640.375 61.0519 640.654 61.0519 640.933 61.0519L639.117 60.2137V288.357C639.117 291.431 638.838 294.644 639.117 297.578C639.117 297.717 639.117 297.857 639.117 297.997L644.147 296.181H285.097C280.207 296.181 275.457 295.901 270.567 296.181H269.869L271.685 297.019V69.9932C271.825 66.9197 271.825 63.8461 271.685 60.7725C271.685 60.6328 271.685 60.4931 271.685 60.3534C271.825 58.9563 264.979 59.5151 264.979 61.471Z" fill="#262626"/>
<path d="M290.264 48.7574C292.502 48.7574 294.316 46.9434 294.316 44.7058C294.316 42.4682 292.502 40.6543 290.264 40.6543C288.027 40.6543 286.213 42.4682 286.213 44.7058C286.213 46.9434 288.027 48.7574 290.264 48.7574Z" fill="white"/>
<path d="M291.104 45.1262C291.104 45.5453 291.104 45.9645 290.965 46.2439L291.244 45.5453C291.104 45.8248 290.965 46.1042 290.825 46.3836L291.244 45.685C291.104 45.9645 290.965 46.1042 290.685 46.3836L291.244 45.8247C291.104 45.9645 290.825 46.2439 290.685 46.3836L291.523 45.8247C291.384 45.9645 291.104 46.1042 290.825 46.2439L291.663 45.8247C291.384 45.9645 291.244 45.9645 290.965 46.1042L291.803 45.8247C291.523 45.8247 291.244 45.9645 290.965 45.9645H291.803C291.523 45.9645 291.104 45.9645 290.825 45.8247L291.523 45.9645C291.244 45.8248 290.825 45.8248 290.545 45.5453L291.104 45.8247C290.685 45.5453 290.266 45.2659 289.987 44.8468L290.406 45.4056C290.126 44.9865 289.847 44.5674 289.707 44.1483L289.987 44.7071C289.847 44.288 289.707 43.7291 289.707 43.31V44.0085C289.707 43.5894 289.847 43.1703 289.847 42.8909L289.567 43.5894C289.707 43.31 289.847 43.0306 289.987 42.7512L289.567 43.4497C289.707 43.1703 289.847 43.0306 290.126 42.7512L289.567 43.31C289.707 43.1703 289.987 42.8909 290.126 42.7512L289.428 43.31C289.567 43.1703 289.847 43.0306 289.987 42.8909L289.148 43.31C289.428 43.1703 289.567 43.1703 289.847 43.0306L289.009 43.31C289.288 43.31 289.567 43.1703 289.847 43.1703H289.009C289.288 43.1703 289.707 43.1703 289.987 43.31L289.288 43.1703C289.567 43.31 289.987 43.31 290.266 43.5894L289.707 43.31C290.126 43.5894 290.545 43.8688 290.825 44.288L290.406 43.7291C290.545 44.1483 290.825 44.5674 291.104 45.1262L290.825 44.4277C290.965 44.8468 291.104 45.4056 291.104 45.8247C291.104 46.5233 291.803 47.0821 292.362 47.2218C293.2 47.5012 294.038 47.3615 294.737 47.0821C295.575 46.8027 296.413 46.2439 296.972 45.5453L297.391 44.8468C297.671 44.4277 297.671 43.8688 297.671 43.4497C297.531 41.0747 295.994 38.979 293.619 38.1408C290.406 37.1628 286.773 38.4202 284.678 41.0747C282.442 43.5894 282.582 47.5013 284.957 49.7366C286.494 51.1337 288.59 51.6925 290.685 51.1337C292.641 50.7145 294.457 49.5969 295.854 48.0601C296.832 46.9424 297.391 45.5453 297.531 44.0085C297.671 43.7291 297.531 43.31 297.391 43.0306C297.251 42.7512 297.112 42.4718 296.832 42.1923C296.134 41.7732 295.435 41.6335 294.737 41.9129C293.759 42.0526 292.92 42.4718 292.222 43.0306C291.663 43.7291 291.244 44.4277 291.104 45.1262Z" fill="white"/>
<path d="M313.317 48.0591C315.555 48.0591 317.369 46.2452 317.369 44.0076C317.369 41.77 315.555 39.9561 313.317 39.9561C311.08 39.9561 309.266 41.77 309.266 44.0076C309.266 46.2452 311.08 48.0591 313.317 48.0591Z" fill="white"/>
<path d="M313.877 44.9856C313.877 45.1253 313.877 45.4047 313.877 45.5444V45.265C313.737 45.9635 313.458 46.5224 313.178 47.0812L313.458 46.6621C313.318 46.8018 313.178 46.9415 313.178 47.0812C313.178 47.2209 313.039 47.2209 312.899 47.3606C312.62 47.64 313.318 47.0812 313.039 47.2209C312.899 47.2209 312.899 47.3606 312.759 47.3606C312.48 47.64 313.318 47.0812 313.039 47.2209L312.759 47.3606C313.318 47.0812 313.597 47.0812 313.318 47.0812C313.039 47.0812 313.318 47.0812 314.017 46.9415C313.597 47.0812 314.995 46.8018 314.575 46.8018C314.156 46.8018 314.995 46.8018 314.995 46.8018C315.134 46.8018 315.553 46.8018 314.995 46.8018C314.855 46.8018 314.715 46.6621 315.134 46.8018H314.855C314.715 46.8018 314.436 46.6621 314.296 46.6621L314.715 46.8018C314.017 46.5224 313.458 46.1032 313.039 45.5444L313.178 45.8238C312.62 44.9856 312.34 43.8679 312.48 42.89V43.1694C312.62 42.4708 312.899 41.912 313.178 41.3532L312.899 41.6326C313.039 41.4929 313.178 41.3532 313.178 41.2135L313.458 40.934C313.737 40.6546 313.039 41.2135 313.318 41.0738L313.458 40.934C313.737 40.6546 312.899 41.2135 313.178 41.0738L313.458 40.934C312.899 41.2135 312.62 41.2135 312.899 41.2135C313.178 41.2135 313.039 41.2135 312.34 41.3532C312.759 41.2135 311.362 41.4929 311.781 41.4929C312.2 41.4929 311.362 41.4929 311.362 41.4929C311.642 41.4929 311.642 41.6326 311.222 41.4929H311.502C311.642 41.4929 311.921 41.6326 312.061 41.6326L311.642 41.4929C312.34 41.7723 312.899 42.1914 313.318 42.7503L313.178 42.4708C313.597 43.1694 313.877 44.0076 313.877 44.9856C313.877 45.4047 314.995 45.5444 315.134 45.5444C315.973 45.5444 316.811 45.5444 317.649 45.265C318.487 45.1253 319.186 44.7062 319.884 44.287C320.303 44.0076 320.723 43.7282 320.723 43.1694C320.583 41.0738 319.186 39.3973 317.23 38.8384C315.414 38.4193 313.597 38.559 311.781 39.1178C309.965 39.537 308.428 40.3752 307.171 41.6326C306.472 42.4708 306.053 43.4488 305.914 44.5665C305.774 45.5444 306.053 46.3827 306.612 47.2209C307.171 48.0592 308.149 48.7577 309.127 49.1768C310.803 49.5959 312.48 49.5959 314.017 49.1768C315.973 48.8974 317.928 47.9194 319.325 46.5224C320.164 45.6841 320.583 44.4268 320.583 43.1694C320.583 42.7503 319.605 42.6105 319.325 42.6105C318.487 42.6105 317.649 42.6105 316.811 42.89C315.973 43.0297 315.274 43.4488 314.575 43.8679C314.296 44.1473 313.877 44.4267 313.877 44.9856Z" fill="white"/>
<path d="M335.531 46.8023C337.769 46.8023 339.583 44.9884 339.583 42.7508C339.583 40.5132 337.769 38.6992 335.531 38.6992C333.293 38.6992 331.479 40.5132 331.479 42.7508C331.479 44.9884 333.293 46.8023 335.531 46.8023Z" fill="white"/>
<path d="M336.091 43.1695C336.091 43.3092 336.091 43.4489 336.091 43.5886V43.1695C336.091 43.4489 335.811 44.0077 335.672 44.4268L335.951 43.868C335.811 44.2871 335.532 44.5665 335.253 44.8459L335.811 44.4268C335.672 44.5665 335.392 44.8459 335.113 44.9857L335.811 44.5665C335.532 44.7062 335.392 44.8459 335.113 44.8459C335.811 44.5665 335.951 44.5665 335.672 44.7062H335.532C334.973 44.8459 336.65 44.5665 335.951 44.5665C335.672 44.5665 335.253 44.4268 336.37 44.5665H335.951C335.672 44.5665 336.929 44.7062 336.37 44.5665L335.951 44.4268L336.65 44.7062C336.37 44.5665 336.091 44.4268 335.811 44.2871L336.37 44.7062C336.091 44.4268 335.811 44.2871 335.532 44.0077L335.951 44.4268C335.672 44.0077 335.392 43.5886 335.113 43.0297L335.253 43.5886C335.113 43.0297 334.973 42.4709 335.113 41.9121V42.4709C335.113 42.0518 335.253 41.493 335.532 41.0738L335.253 41.6327C335.392 41.2135 335.672 40.9341 335.951 40.6547L335.392 41.2135C335.532 41.0738 335.811 40.7944 336.091 40.6547L335.392 41.0738C335.532 40.9341 335.811 40.7944 336.091 40.7944C335.392 41.0738 335.253 41.0738 335.532 41.0738L335.672 40.9341C336.231 40.7944 334.554 41.0738 335.253 41.0738C335.532 41.0738 335.951 41.0738 334.833 41.0738H335.253C335.532 41.0738 334.275 40.9341 334.833 41.0738L335.253 41.2135L334.554 40.9341C334.833 41.0738 335.113 41.2135 335.392 41.3532L334.833 40.9341C335.113 41.0738 335.392 41.3532 335.672 41.6327L335.253 41.2135C335.532 41.6327 335.811 42.0518 336.091 42.6106L335.951 42.0518C335.951 42.1915 336.091 42.6106 336.091 43.1695C336.091 43.7283 336.789 44.2871 337.348 44.5665C338.186 44.8459 339.025 44.9857 339.863 44.9857C341.26 44.8459 343.076 44.1474 343.076 42.4709C342.937 39.9562 341.26 37.8605 338.885 37.162C335.532 36.0443 331.9 36.8826 329.525 39.537C327.988 41.3532 327.848 43.868 328.966 45.9636C330.642 48.6181 334.135 49.4563 337.069 48.8975C338.885 48.6181 340.561 47.6401 341.679 46.3827C342.517 45.4048 343.076 44.0077 343.076 42.6106C343.076 42.0518 342.378 41.493 341.819 41.2135C340.981 40.7944 340.142 40.7944 339.304 40.9341C337.907 40.7944 336.091 41.493 336.091 43.1695Z" fill="white"/>
<path d="M298.788 94.3025H308.847C309.545 94.1628 310.104 93.7437 310.244 93.1849C310.383 92.3466 310.383 91.6481 310.104 90.8098C309.685 89.273 308.288 88.0157 306.611 87.876H296.413C295.714 87.876 295.155 88.4348 295.016 88.9936C294.876 89.6922 294.876 90.5304 295.155 91.3687C295.574 92.9055 296.972 94.1628 298.788 94.3025Z" fill="#F5EE30"/>
<path d="M297.53 108.553H315.273C317.089 108.553 318.626 107.156 318.765 105.34C318.626 103.384 317.089 102.686 315.412 102.686H297.669C295.853 102.686 294.316 104.083 294.177 105.899C294.177 107.855 295.853 108.553 297.53 108.553Z" fill="#F5EE30"/>
<path d="M447.299 212.216C447.299 212.216 416.005 128.671 419.917 119.869C423.828 111.068 536.713 75.1628 556.132 69.4347C567.867 65.942 595.25 147.811 596.088 157.171C596.927 166.532 453.167 223.393 447.299 212.216Z" fill="#F5EE30"/>
<path d="M449.814 212.635C444.785 199.084 439.895 185.532 435.284 171.841C431.792 161.642 428.578 151.443 425.645 141.105C424.527 137.053 423.549 133.002 422.711 128.95C422.571 128.252 422.85 129.509 422.711 128.81L422.571 128.391C422.571 127.972 422.431 127.553 422.431 127.134C422.292 126.435 422.292 125.737 422.152 125.038C422.012 124.34 422.152 123.921 422.012 123.362C422.012 122.524 422.012 123.781 422.012 123.222C422.012 123.082 422.012 122.803 422.012 122.524C422.012 122.384 422.152 122.104 422.152 121.965C422.152 121.965 421.872 122.384 422.152 122.104C422.292 121.965 422.292 121.965 422.292 121.825C422.711 121.266 422.012 122.104 422.292 121.685C422.99 121.126 423.549 120.568 424.387 120.149C426.762 118.612 429.277 117.354 431.792 116.097C440.035 112.185 448.417 108.972 456.939 105.898C478.734 97.6555 500.947 90.3907 523.021 83.1259C531.683 80.3317 540.205 77.5376 548.867 74.8831C551.522 74.0448 554.176 73.2066 556.831 72.5081C557.25 72.3684 557.669 72.3683 557.948 72.2286C557.389 72.0889 558.088 72.2286 557.948 72.2286H558.228C558.786 72.3683 557.669 71.9492 558.088 72.2286C558.228 72.3683 558.507 72.5081 558.647 72.5081C559.066 72.6478 558.088 72.0889 558.786 72.5081L559.485 73.0669C559.904 73.3463 559.206 72.7875 559.206 72.7875C559.206 72.7875 559.485 73.0669 559.625 73.2066C560.044 73.7654 560.463 74.1846 561.022 74.7434C561.581 75.3022 560.463 74.0449 561.022 74.6037L561.441 75.1625C561.72 75.4419 562 75.8611 562.139 76.2802C562.698 77.1184 563.257 77.817 563.676 78.6552C563.956 79.0743 564.095 79.3538 564.375 79.7729L564.794 80.4714C564.934 80.6111 565.492 81.7288 565.073 80.8906C567.448 85.0818 569.544 89.4127 571.5 93.7437C576.11 103.942 580.022 114.141 583.794 124.619C586.868 133.141 589.662 141.664 592.037 150.465C592.316 151.723 592.736 152.98 593.015 154.237C593.015 154.517 593.155 154.796 593.155 154.936C592.875 153.818 593.155 154.656 593.155 154.936C593.155 155.634 593.155 155.774 593.294 155.215C593.294 155.634 593.714 154.796 593.294 155.215C593.155 155.355 593.015 155.634 592.736 155.914C592.456 156.193 593.155 155.495 592.736 155.914L592.316 156.333C592.037 156.612 591.618 156.892 591.338 157.171C586.588 160.524 581.559 163.598 576.25 165.973C568.147 170.024 559.764 173.796 551.522 177.429C531.963 185.811 512.124 193.495 491.866 200.201C483.344 202.995 474.822 205.65 466.16 207.885C462.947 208.723 459.733 209.422 456.52 209.841C455.263 209.981 453.866 210.26 452.469 210.26L450.932 210.4H450.094C449.535 210.4 450.513 210.4 450.094 210.4C449.395 210.26 448.696 210.26 447.998 209.981C448.836 210.121 448.417 210.121 448.138 209.981C447.579 209.701 448.557 210.26 448.417 210.121C447.858 209.701 448.836 210.54 448.696 210.4C448.557 210.26 448.417 209.841 449.116 210.959C448.976 210.679 448.836 210.4 449.395 211.518C448.696 210.4 447.439 208.444 445.902 208.723C444.366 209.003 444.785 211.099 445.204 212.076C447.858 216.966 453.167 216.547 458.057 215.988C465.322 214.871 472.587 213.194 479.712 210.959C500.109 204.951 520.227 197.407 539.926 189.444C549.566 185.532 559.206 181.48 568.706 177.01C575.831 173.796 582.816 170.443 589.662 166.532C591.758 165.414 593.714 164.017 595.669 162.62C597.067 161.782 598.044 160.384 598.603 158.987C599.022 156.752 597.905 154.098 597.346 152.002C596.368 148.23 595.25 144.597 594.133 140.825C590.78 130.208 587.008 119.729 582.956 109.391C579.184 99.332 574.713 89.5524 569.544 80.0523C567.588 76.4199 565.353 73.0669 562.559 69.9933C560.742 68.0374 558.088 65.5227 555.154 65.9418C552.779 66.5006 550.404 67.1991 548.029 68.0374L536.713 71.5301C514.778 78.5155 492.984 85.6406 471.329 93.3246C460.851 96.957 450.373 100.869 440.035 105.06C433.468 107.715 426.623 110.229 420.755 114.141C419.078 114.979 417.821 116.376 417.262 118.193C416.843 120.707 416.983 123.362 417.681 125.877C419.497 135.097 421.872 144.318 424.946 153.259C430.534 171.841 437.101 190.003 443.807 208.165C444.226 209.282 444.645 210.4 445.064 211.518C445.623 212.915 446.601 214.871 448.277 215.15C449.954 215.429 450.233 213.893 449.814 212.635Z" fill="#F5EE30"/>
<path d="M460.431 63.707L466.438 71.9498C466.438 71.9498 488.652 61.8908 501.645 77.8175C514.638 93.7443 497.174 107.296 497.174 107.296L495.218 101.847C495.218 101.847 497.593 83.1265 485.159 79.9132C472.725 76.6999 463.644 85.2221 463.644 85.2221L450.512 68.7365L460.431 63.707Z" fill="#262626"/>
<path d="M457.217 64.8245L463.224 73.0673C464.342 74.4644 466.158 74.8835 467.695 74.185C468.393 73.9056 468.952 73.6261 469.651 73.4864C470.349 73.207 470.908 73.0673 471.606 72.7879L472.864 72.3688L473.562 72.2291C474.54 71.9496 472.864 72.3688 473.842 72.2291C474.82 72.0894 475.937 71.8099 477.055 71.6702C477.614 71.5305 478.173 71.5305 478.871 71.3908C479.57 71.3908 480.268 71.2511 480.548 71.2511C483.063 71.1114 485.577 71.3908 487.952 72.0894C494.1 73.7659 499.129 78.0968 501.783 83.9645C503.879 88.8543 503.46 94.4427 500.666 98.9133C499.129 101.568 497.173 103.943 494.658 105.899L500.526 106.178L498.57 100.73L498.71 102.127C499.408 96.678 498.71 90.95 496.614 85.9205C492.004 76.0012 479.151 75.0232 469.93 78.6556C466.717 79.913 463.643 81.5895 460.989 83.9645L466.437 83.6851L453.305 67.1996L452.606 70.832L462.665 65.8025C463.783 65.2437 464.342 63.9863 463.923 62.8686C463.783 62.5892 463.643 62.4495 463.503 62.1701C462.106 61.0524 460.15 61.0524 458.614 61.8907L448.555 66.9202C447.437 67.479 446.878 68.7364 447.437 69.854C447.577 70.1334 447.716 70.2732 447.856 70.4129L460.989 86.8984C462.246 88.4352 465.32 87.7367 466.437 86.619L466.856 86.1999C466.996 86.0602 467.695 85.5013 466.996 86.0602L467.834 85.5013C469.371 84.3837 471.048 83.5454 472.724 82.9866C477.055 81.4498 482.923 80.891 486.695 83.6851C489.349 85.641 490.886 89.2735 491.445 92.7662C491.724 94.4427 491.864 96.1191 492.004 97.7956C492.004 98.4942 492.004 99.1927 492.004 99.7516C492.004 99.8913 492.004 100.73 492.004 100.31C492.004 99.8913 492.004 100.73 492.004 100.869C491.864 103.524 493.261 106.038 494.1 108.413C494.938 110.789 498.71 109.811 499.967 108.693C507.092 103.105 511.982 93.1853 509.048 84.1043C506.534 76.6997 500.806 70.9717 493.541 68.1775C487.813 66.0819 481.665 65.5231 475.658 66.6407C472.026 67.1996 468.533 68.0378 465.18 69.5746L469.651 70.6923L463.643 62.4495C462.525 61.0524 460.709 60.6333 459.172 61.3318C458.055 61.751 456.239 63.4275 457.217 64.8245Z" fill="#262626"/>
<path d="M480.41 94.0233C479.152 94.4424 469.932 92.0674 469.932 92.0674L470.211 97.7954L480.41 94.0233Z" fill="#262626"/>
<path d="M479.571 91.7871C479.431 91.7871 480.828 91.5077 480.269 91.6474C480.13 91.6474 481.387 91.6474 480.968 91.6474H480.828C480.549 91.6474 480.13 91.6474 479.85 91.5077H479.571C479.012 91.368 480.13 91.6474 479.99 91.6474L479.431 91.5077L478.034 91.2283C476.358 90.9489 474.681 90.5297 473.005 90.1106L471.887 89.8312C470.769 89.5518 469.512 89.6915 468.534 90.3901C467.835 90.8092 466.718 91.7871 466.718 92.7651L466.997 98.4931C467.137 100.589 469.652 100.868 471.188 100.309L479.99 97.096L481.247 96.6769C482.086 96.3975 482.784 95.9784 483.343 95.2798C483.762 94.721 483.902 94.0225 483.762 93.3239C483.064 91.5077 480.968 91.368 479.571 91.7871L470.63 95.1401L469.372 95.5593L473.563 97.3755L473.284 91.6474L468.115 94.5813C471.188 95.4195 474.402 96.1181 477.615 96.6769C478.733 96.8166 479.99 96.8166 481.108 96.5372C481.946 96.2578 482.645 95.8387 483.203 95.1401C483.622 94.5813 483.762 93.8828 483.622 93.1842C483.064 91.2283 480.968 91.2283 479.571 91.7871Z" fill="#262626"/>
<path d="M398.82 26.6836C398.82 26.6836 432.63 0.697912 437.659 2.93324C442.689 5.16857 467.417 51.6914 466.299 57.5591C465.182 63.4269 446.88 70.1329 446.88 70.1329L398.82 26.6836Z" fill="white"/>
<path d="M401.055 29.4784C407.063 24.868 413.21 20.3974 419.497 16.2061C423.688 13.2723 428.159 10.4781 432.769 7.96336C434.306 7.12511 435.982 6.42657 437.659 5.86774C438.218 5.72803 438.637 5.58833 439.196 5.58833C439.335 5.58833 439.615 5.72803 439.755 5.72803C439.475 5.58832 439.615 5.72803 439.755 5.72803C439.475 5.44862 440.034 5.86774 439.755 5.72803C439.196 5.30891 440.034 6.00745 439.755 5.72803C438.916 4.88978 439.755 5.72803 439.894 5.86774C439.056 4.88978 439.894 5.86775 440.034 6.14716C440.174 6.42658 440.453 6.70599 440.174 6.28687L440.453 6.56628C441.012 7.40453 441.571 8.24278 442.13 9.08103C441.71 8.5222 442.409 9.63986 442.549 9.77957L443.666 11.5958C446.46 16.2061 449.115 20.8165 451.63 25.5666C454.284 30.5961 456.939 35.7653 459.314 40.9345C461.13 44.5669 462.667 48.4787 463.924 52.3906C464.343 53.5082 464.483 54.6259 464.064 55.7435C463.086 58.2583 460.012 59.9348 457.917 61.3319C453.865 63.8466 449.534 65.8025 445.063 67.479L446.041 67.8982L429.556 53.2288L403.71 29.8975L397.702 24.4489C396.724 23.6107 396.445 24.0298 396.864 25.0078C397.563 26.5445 398.68 27.8019 399.938 28.9196L416.144 43.5889L441.99 66.9202L447.997 72.3688C448.137 72.5085 448.696 72.9276 448.975 72.7879C453.166 71.2511 457.078 69.4349 460.99 67.1996C464.064 65.5231 469.093 62.5892 468.395 58.5377C467.417 54.4862 466.02 50.7141 464.203 47.0816C461.828 41.7727 459.314 36.6035 456.519 31.4343C453.725 25.9857 450.652 20.6768 447.578 15.3679C445.203 11.1767 442.409 7.26482 439.475 3.4927C438.497 2.09562 437.24 0.977956 435.703 0.139707C434.585 -0.139709 433.468 3.16436e-06 432.35 0.558836C427.879 2.37504 423.688 4.61036 419.776 7.40453C411.813 12.5737 404.129 18.1621 396.585 23.8901C395.886 24.5886 400.217 30.177 401.055 29.4784Z" fill="#F5EE30"/>
<path d="M465.879 193.215C464.901 177.707 467.556 161.361 475.799 147.949C477.755 144.736 479.99 141.942 482.644 139.287C485.439 136.354 488.931 133.001 492.983 131.883C493.402 131.743 493.961 131.604 494.38 131.604C496.755 131.324 493.961 132.162 493.402 131.045C493.542 131.324 494.799 131.883 495.078 132.023C495.358 132.162 496.056 132.721 496.476 133.14C498.012 134.398 499.549 135.795 500.806 137.332C506.954 143.898 511.005 152.001 512.542 160.803C512.961 163.457 513.52 170.163 509.329 170.303L515.616 172.119C513.66 162.898 515.476 153.258 520.505 145.435C523.02 141.243 526.652 137.89 530.983 135.515C533.219 134.398 535.734 133.839 538.248 133.839C538.388 133.839 539.366 133.979 538.528 133.839C537.689 133.699 538.248 133.699 538.388 133.839C538.807 134.118 539.366 134.398 539.925 134.537C541.042 135.236 542.16 135.934 543.138 136.773C547.888 140.685 550.962 146.133 554.035 151.442C554.454 152.28 556.55 152.56 557.249 152.699C558.087 152.979 558.785 153.119 559.624 153.258C559.763 153.258 560.741 153.398 560.741 153.258C557.807 148.089 554.734 142.64 550.123 138.729C545.234 134.817 539.226 132.442 532.939 132.023C521.623 131.184 512.961 142.082 509.748 151.861C507.792 157.729 507.512 164.156 508.77 170.303C508.91 170.862 510.865 171.281 511.145 171.42C512.402 171.839 513.66 172.119 515.057 172.259C518.829 172.119 519.807 168.207 519.527 165.133C519.108 160.523 517.851 156.052 515.895 152.001C514.079 147.949 511.704 144.177 508.91 140.685C506.115 137.332 502.483 133.699 498.431 131.883C493.681 129.787 488.372 128.67 483.622 131.324C479.85 133.559 476.497 136.493 473.703 139.986C468.254 146.552 464.203 154.097 461.968 162.339C459.313 171.839 458.335 181.759 459.034 191.678C459.034 192.377 461.828 192.935 462.247 192.935C462.666 192.796 465.879 193.494 465.879 193.215Z" fill="white"/>
<path d="M515.616 112.744C513.241 114.98 512.542 118.472 513.799 121.546C515.476 125.737 519.947 127.134 524.138 127.414C526.792 127.553 529.586 127.693 531.962 126.436C533.778 125.458 535.175 123.641 535.873 121.686C537.55 117.774 537.131 113.163 534.756 109.531C531.822 105.2 525.954 103.384 520.925 104.362C519.807 104.501 518.41 105.619 519.388 106.737C520.645 107.854 522.461 108.274 524.138 107.854C524.278 107.854 524.697 107.854 524.138 107.854H524.557C525.116 107.854 523.998 107.715 524.417 107.854C524.557 107.854 524.697 107.854 524.836 107.854C523.998 107.854 525.116 107.994 525.255 107.994C525.255 107.994 524.836 107.854 525.116 107.994L525.814 108.274L526.233 108.553C526.513 108.693 526.792 108.972 527.072 109.112C526.792 108.972 527.211 109.252 527.211 109.252C527.351 109.391 527.491 109.391 527.491 109.531C527.77 109.81 528.05 110.09 528.329 110.509C529.866 113.024 530.425 116.097 529.586 118.891C529.307 120.288 528.608 121.686 527.631 122.803C527.491 122.943 527.211 123.222 527.072 123.362C526.932 123.502 526.792 123.502 526.653 123.641C526.932 123.502 526.094 123.641 526.513 123.641H524.836H524.138C523.719 123.641 523.439 123.641 523.02 123.502C522.601 123.362 523.439 123.641 523.02 123.502L522.461 123.362C522.88 123.502 522.461 123.362 522.322 123.362C522.042 123.222 522.182 123.222 522.461 123.362C522.322 123.222 521.623 122.803 522.042 123.083C521.903 122.943 521.623 122.664 521.483 122.524C521.483 122.524 521.064 121.965 521.204 122.244C521.064 121.965 520.925 121.686 520.785 121.406C520.086 119.869 519.947 118.053 520.645 116.516C520.785 116.237 520.925 115.958 521.064 115.678L521.204 115.399C521.204 115.399 521.623 114.84 521.344 115.119C523.858 112.884 517.292 111.068 515.616 112.744Z" fill="white"/>
<path d="M421.732 220.319C428.019 232.334 442.968 232.893 454.843 232.334C456.659 232.474 458.196 231.216 458.475 229.4C458.336 227.584 456.939 226.187 455.122 226.187C445.762 226.606 433.188 227.165 428.019 217.525C426.063 214.032 419.637 216.547 421.732 220.319Z" fill="#F5EE30"/>
<path d="M602.653 183.018C612.991 169.885 617.741 153.4 615.925 136.774C615.646 133.701 609.079 136.216 609.359 138.87C611.175 154.517 606.704 170.304 596.925 182.738C595.947 183.996 596.925 185.253 598.182 185.393C599.998 185.253 601.535 184.415 602.653 183.018Z" fill="#F5EE30"/>
<path d="M617.182 118.053C621.653 125.737 624.168 134.399 624.866 143.2C625.006 145.436 631.992 145.715 631.852 143.899C631.153 134.818 628.499 125.877 624.028 117.913C623.33 116.656 621.094 116.376 619.837 116.516C619.138 116.376 616.484 116.795 617.182 118.053Z" fill="#F5EE30"/>
<path d="M173.19 168.068C173.19 168.068 193.308 206.768 261.905 207.885C330.502 209.003 382.892 186.091 382.892 186.091L321.56 421.359C321.56 421.359 244.162 459.08 190.235 382.241C136.307 305.401 173.19 168.068 173.19 168.068Z" fill="white"/>
<path d="M171.095 165.973C174.028 171.701 178.918 176.87 183.389 181.341C193.588 191.12 205.742 198.665 219.154 203.135C241.368 210.959 265.118 211.518 288.31 209.981C310.803 208.584 333.016 204.812 354.811 198.944C361.796 196.988 368.642 194.893 375.348 192.518C378.561 191.54 381.774 190.282 384.848 188.885L385.267 188.745L380.657 183.437L378.841 190.143L374.23 208.025L367.385 234.29L359.002 266.283L349.921 300.931L340.84 335.858L332.457 367.712L325.612 394.116L320.862 411.999L319.604 416.889C319.604 417.448 319.325 418.146 319.185 418.705C318.766 419.264 317.229 419.543 316.67 419.823C314.156 420.801 311.781 421.779 309.126 422.477C300.604 425.132 291.802 426.808 282.861 427.367C270.567 428.345 258.272 427.088 246.397 423.735C231.728 419.404 218.316 411.58 207 401.102C194.845 389.925 185.624 375.535 179.198 360.447C173.051 345.917 168.859 330.829 166.484 315.321C164.109 299.813 162.992 284.026 163.131 268.239C163.271 253.989 164.109 239.739 165.646 225.628C166.903 214.452 168.58 203.275 170.675 192.098C171.933 185.672 173.19 179.245 174.867 172.958C175.006 172.12 175.286 171.282 175.565 170.444C175.845 169.605 174.028 168.069 173.609 167.51C173.47 167.37 170.955 165.135 170.955 165.135C169.977 168.627 169.278 172.12 168.44 175.613C166.484 184.834 164.808 194.054 163.411 203.415C161.455 216.547 160.058 229.68 159.219 242.952C158.241 258.18 158.381 273.548 159.499 288.776C160.616 304.703 163.271 320.49 167.742 335.858C172.073 351.086 178.639 365.476 187.44 378.609C197.779 393.977 210.911 407.947 226.698 418.006C238.574 425.411 251.846 430.301 265.677 432.117C276.854 433.514 288.17 433.235 299.347 431.279C306.472 430.021 313.597 428.065 320.443 425.411C321.281 425.132 322.119 424.712 322.957 424.433C323.376 424.293 323.796 424.154 324.075 423.874C324.354 423.455 324.354 423.036 324.494 422.617L327.568 410.742L333.296 388.668L340.98 359.189L349.781 325.24L359.002 289.754L367.804 255.805L375.627 225.908L381.495 203.135L384.848 190.422L385.267 188.745C385.407 187.907 381.355 183.157 380.657 183.437C373.113 186.51 365.429 189.165 357.745 191.4C338.186 197.268 318.207 201.179 298.089 203.415C274.199 205.93 249.191 206.768 225.72 200.9C211.191 197.268 197.08 190.981 185.624 181.341C184.786 180.642 183.808 179.804 182.97 178.966C182.411 178.407 182.69 178.686 181.992 177.988L181.433 177.429L181.154 177.15C180.874 176.87 181.712 177.708 181.154 177.15L180.036 176.032C180.036 175.892 180.595 176.591 180.036 176.032C179.896 175.753 179.617 175.613 179.477 175.333C179.058 174.914 179.198 175.054 179.617 175.333L179.198 174.775L178.779 174.216C178.22 173.657 179.058 174.635 178.779 174.216L178.08 173.378C177.521 172.679 178.22 173.657 177.801 172.958L176.823 171.422C176.543 170.863 177.102 171.841 176.683 171.142C176.543 171.002 176.543 170.863 176.404 170.583L175.984 169.885L175.845 169.605C175.006 168.208 174.028 166.951 172.771 165.973C172.073 166.252 170.396 164.716 171.095 165.973Z" fill="#F5EE30"/>
<path d="M402.312 191.541C402.312 191.541 354.392 407.39 348.524 417.03C342.656 426.669 321.561 433.934 321.561 421.361C321.561 420.383 378.142 198.526 382.892 186.092C387.642 173.658 402.312 191.541 402.312 191.541Z" fill="#F5EE30"/>
<path d="M398.818 191.819C398.259 194.194 397.701 196.569 397.281 198.944L392.95 218.084C390.855 227.445 388.759 236.805 386.664 246.166C384.149 257.342 381.634 268.519 378.98 279.696C376.325 291.571 373.531 303.446 370.737 315.461C368.082 327.057 365.288 338.792 362.494 350.388C360.119 360.587 357.604 370.785 355.09 380.984C353.134 388.668 351.178 396.352 349.222 404.036C348.244 408.227 346.987 412.279 345.45 416.191C343.773 419.963 339.861 422.617 336.369 424.433C335.111 425.132 333.714 425.691 332.317 426.11C331.758 426.25 331.199 426.389 330.641 426.529C329.942 426.669 330.92 426.529 330.222 426.529C329.942 426.529 329.663 426.529 329.383 426.669C329.942 426.669 328.545 426.669 329.104 426.669C329.663 426.669 328.545 426.669 328.405 426.529C328.824 426.529 328.126 426.529 328.126 426.389C327.986 426.389 327.707 426.25 327.567 426.25C326.729 425.83 325.891 424.992 325.471 424.154C325.052 423.036 324.913 421.919 324.913 420.801C324.913 420.661 324.913 420.522 325.052 420.382C324.913 420.801 325.192 419.963 325.052 420.382L325.192 420.102C325.611 418.566 325.891 417.029 326.31 415.492C327.846 409.624 329.244 403.617 330.78 397.749C333.016 388.808 335.251 379.866 337.626 371.065C340.42 360.168 343.214 349.27 346.009 338.373C349.082 326.498 352.016 314.763 355.09 302.887C358.163 291.012 361.237 279.277 364.31 267.401C367.104 256.504 369.899 245.747 372.833 234.989C375.208 226.188 377.443 217.386 379.818 208.724C381.355 202.856 382.892 197.128 384.708 191.4C385.127 189.863 385.546 188.466 386.105 187.069C386.245 186.79 386.244 186.51 386.384 186.231C386.664 185.532 387.083 184.834 387.502 184.275C387.781 183.996 388.061 183.716 388.34 183.437C388.48 183.157 388.48 183.437 387.921 183.437C388.48 183.297 387.222 183.437 387.083 183.437C386.664 183.437 387.642 183.577 387.362 183.437L388.061 183.577C389.178 183.996 390.156 184.555 391.134 185.253C394.068 187.209 396.723 189.724 398.958 192.518C400.215 194.055 406.782 192.658 405.664 191.121C403.149 188.047 400.215 185.393 396.862 183.157C391.973 180.084 383.59 178.966 380.237 184.834C379.539 186.371 378.84 187.908 378.421 189.584C377.722 191.819 377.163 194.055 376.465 196.29C374.509 203.415 372.553 210.68 370.597 217.945C367.943 227.864 365.288 237.783 362.774 247.703C359.7 259.438 356.626 271.174 353.693 282.769C350.479 294.924 347.406 307.218 344.192 319.373L335.111 354.719C332.457 365.057 329.802 375.256 327.288 385.594C325.332 393.278 323.376 400.823 321.42 408.507C320.442 412.558 319.324 416.61 318.346 420.661C317.788 422.477 318.067 424.433 319.045 426.11C322.258 431.698 331.619 430.022 336.648 428.485C342.376 426.669 348.942 422.897 352.016 417.448C352.575 416.33 353.134 415.073 353.413 413.816C355.229 408.227 356.626 402.639 358.163 396.911C360.538 387.97 362.774 378.889 364.869 369.947C367.524 358.771 370.178 347.734 372.833 336.557C375.627 324.402 378.421 312.387 381.215 300.233C384.009 288.218 386.803 276.203 389.458 264.188C391.833 253.57 394.348 242.813 396.723 232.055C398.539 223.813 400.495 215.57 402.311 207.327C403.429 202.717 404.407 197.967 405.385 193.356C405.524 192.797 405.664 192.099 405.804 191.54C406.083 189.863 399.377 189.724 398.818 191.819Z" fill="#F5EE30"/>
<path d="M295.715 454.89C318.627 458.243 340.98 446.228 350.899 425.411C365.708 393.977 390.716 342.704 399.238 334.881C412.371 322.866 467.137 296.74 466.159 283.468C465.181 270.196 440.033 275.924 433.048 283.049C433.048 283.049 444.224 264.049 421.312 254.548C421.312 254.548 413.768 231.357 394.209 232.335L387.363 256.923C396.025 263.909 395.746 284.586 378.003 283.747C356.208 282.769 356.208 267.402 366.267 255.945C369.9 251.894 370.598 245.886 367.804 241.276C362.216 232.335 350.76 238.622 336.929 255.247C322.818 272.012 335.671 302.189 346.988 306.66L302.56 387.83L200.294 310.571L159.36 367.293C159.22 367.293 240.949 446.926 295.715 454.89Z" fill="white"/>
<path d="M293.759 457.404C313.737 460.059 333.575 452.375 346.429 436.728C350.201 431.838 353.414 426.389 355.929 420.661C366.547 398.448 377.164 376.094 389.179 354.579C391.415 350.528 393.79 346.476 396.165 342.564C397.282 340.888 397.701 340.189 398.819 338.653C399.238 338.094 399.657 337.535 400.077 337.116L400.635 336.417C400.775 336.138 401.613 335.439 400.775 336.278C401.753 335.439 402.731 334.461 403.849 333.623C404.268 333.344 403.43 333.903 404.128 333.344L405.246 332.505L407.76 330.829C411.533 328.314 415.305 325.939 419.077 323.564C427.878 318.115 436.82 312.807 445.482 307.079C452.607 302.328 460.43 297.159 465.879 290.453C467.695 288.218 469.372 285.564 469.372 282.63C469.232 278.997 466.997 275.644 463.504 274.387C459.313 272.99 454.702 272.71 450.371 273.688C445.342 274.527 440.592 276.203 436.261 278.578C434.445 279.556 432.768 280.813 431.371 282.21L435.982 283.049C440.033 276.063 440.173 266.563 435.004 260.137C431.93 256.644 428.158 253.989 423.967 252.313L424.525 253.151C421.731 244.769 415.864 236.247 407.76 232.335C403.988 230.518 399.797 229.68 395.606 229.96C393.65 230.099 391.973 231.357 391.275 233.313L384.429 257.901C384.29 258.46 384.429 259.019 384.988 259.298C388.76 262.372 390.437 267.821 390.018 272.431C389.878 274.527 389.179 276.622 388.062 278.299C387.922 278.578 387.643 278.858 387.503 278.997C386.804 279.696 387.922 278.578 387.223 279.277C386.944 279.416 386.804 279.696 386.525 279.835C387.223 279.277 386.385 279.975 386.245 279.975C385.267 280.534 386.944 279.696 385.966 280.115C385.687 280.255 385.407 280.394 384.988 280.534C385.547 280.394 384.429 280.674 384.429 280.674C384.01 280.813 383.731 280.813 383.312 280.953C379.679 281.372 375.907 281.093 372.275 279.975C369.62 279.277 367.105 277.88 365.289 275.784C362.076 271.872 362.635 266.563 364.73 262.232C366.127 259.298 368.363 257.063 370.179 254.409C372.694 250.776 373.392 246.306 372.135 242.254C370.179 236.107 364.591 233.592 358.583 235.269C350.76 237.504 344.473 243.93 339.024 249.659C335.811 252.872 333.156 256.364 330.921 260.416C329.244 263.769 328.267 267.401 327.987 271.034C327.289 279.137 328.686 287.24 332.178 294.505C334.693 299.953 338.605 306.38 344.473 308.755L344.193 306.659L329.105 334.182L304.796 377.771L299.347 387.83L304.656 385.315L294.457 377.631L270.148 359.19L240.67 336.836L215.382 317.696L206.86 311.27C205.603 310.292 204.206 309.174 202.809 308.336L202.669 308.196C201.272 307.079 198.478 308.895 197.779 310.012L183.948 329.152L161.874 359.749L156.845 366.734C156.565 367.293 155.587 368.41 156.286 369.109C166.345 378.889 176.963 388.109 187.58 397.051C208.397 414.374 230.471 430.72 254.501 443.294C266.935 449.721 280.067 455.309 293.759 457.404C295.575 457.544 297.112 456.706 298.229 455.449C298.928 454.61 299.487 452.794 297.81 452.515C285.795 450.699 274.339 446.088 263.582 440.779C251.287 434.492 239.552 427.507 228.235 419.544C208.676 405.992 190.095 391.043 172.632 374.977C169.977 372.602 167.462 370.227 164.808 367.852L164.389 367.432L163.83 367.013L162.852 366.175C162.573 365.896 162.433 365.756 162.154 365.477L161.595 367.852L175.426 348.572L197.5 317.976L202.529 310.99L197.639 312.807L207.838 320.491L232.147 338.932L261.626 361.285L287.192 380.565L295.715 386.992C296.972 387.97 298.369 389.087 299.766 389.925L299.906 390.065C301.582 391.323 304.516 388.947 305.215 387.55L320.303 360.028L344.193 316.439L349.642 306.38C349.921 305.821 350.201 304.704 349.362 304.284C344.333 302.189 340.98 296.88 338.605 292.269C335.392 285.843 333.715 278.718 333.715 271.453C333.715 267.96 334.414 264.607 335.671 261.394C337.348 257.762 339.723 254.409 342.656 251.475C345.451 248.261 348.524 245.467 351.877 242.953C353.135 241.975 354.392 241.276 355.649 240.577C356.627 240.019 357.745 239.739 358.863 239.6C360.819 239.46 362.774 240.438 363.892 241.975C366.407 245.048 366.966 249.239 365.289 252.872C364.451 254.409 363.333 255.945 362.216 257.203C361.238 258.46 360.399 259.857 359.561 261.254C358.164 263.769 357.186 266.563 356.767 269.497C355.929 274.666 358.443 279.835 362.914 282.63C365.988 284.446 369.48 285.424 372.973 285.843C376.606 286.402 380.378 286.122 384.01 285.144C390.576 283.049 395.187 277.181 395.885 270.335C396.584 264.328 394.348 258.46 389.878 254.548L390.437 255.945L395.885 231.357L392.812 234.71C404.407 234.151 412.79 243.651 417.261 253.431C417.54 253.989 417.819 254.688 417.959 255.247C417.959 255.387 418.099 255.666 418.239 255.806C418.378 256.225 417.959 255.387 418.239 255.666C418.658 256.364 418.658 256.364 419.356 256.784C420.055 257.203 421.312 257.622 422.29 258.181C424.106 259.159 425.783 260.276 427.18 261.534C430.952 264.887 433.048 269.916 432.768 274.946C432.629 277.041 432.07 279.137 431.371 281.093C431.092 281.652 431.651 280.534 431.371 281.093L431.092 281.652L430.673 282.35C430.533 282.63 430.393 282.769 430.393 283.049C429.834 283.608 429.974 284.586 430.533 285.005C430.673 285.144 430.952 285.284 431.092 285.284C432.489 285.424 433.886 284.865 434.864 283.887C435.143 283.608 435.423 283.328 435.702 283.049C436.261 282.49 435.283 283.188 436.121 282.63L437.099 281.931L437.798 281.512C438.077 281.372 437.937 281.372 437.658 281.512L438.077 281.233C439.754 280.394 441.57 279.556 443.526 278.997C447.438 277.6 451.489 277.181 455.68 277.6C458.754 278.019 462.107 279.556 462.945 282.909C463.085 283.608 463.225 284.166 463.225 284.865C463.225 284.306 463.225 285.005 463.225 285.144C463.225 285.284 463.085 285.703 462.945 285.983C462.805 286.541 463.085 285.563 462.805 286.262C462.666 286.541 462.526 286.681 462.526 286.961C462.526 287.24 462.247 287.519 461.967 287.799C462.386 287.1 461.828 288.078 461.688 288.218C461.269 288.777 460.85 289.336 460.43 289.755C460.151 290.034 459.872 290.314 459.592 290.593C460.151 290.034 459.173 291.012 459.033 291.152C457.636 292.409 456.239 293.667 454.842 294.784C452.886 296.321 452.048 297.02 450.092 298.417C448.136 299.814 446.32 301.071 444.364 302.328C436.121 307.917 427.599 312.946 419.077 318.255C412.231 322.446 405.106 326.638 398.819 331.947C393.79 336.138 390.437 342.425 387.084 348.013C375.488 367.991 365.429 388.808 355.51 409.624C350.62 419.823 346.568 431 338.186 438.963C329.803 447.066 318.627 451.676 307.031 452.096C303.957 452.235 301.023 452.096 298.09 451.676C296.413 451.537 294.737 452.375 293.759 453.632C292.641 455.309 292.082 457.125 293.759 457.404Z" fill="#262626"/>
<path d="M415.166 286.541C415.724 285.004 416.423 283.607 417.401 282.35C418.938 279.695 420.335 276.901 421.592 273.967C424.386 267.68 426.622 259.996 424.247 253.151C423.827 252.033 417.401 254.548 417.82 255.945C420.195 262.79 417.82 270.195 415.026 276.622C413.768 279.416 412.371 282.07 410.974 284.725C409.996 285.982 409.298 287.519 408.739 288.916C408.599 290.034 411.114 289.056 411.393 288.916C412.232 288.497 414.886 287.658 415.166 286.541Z" fill="#262626"/>
<path d="M428.297 295.623L435.003 285.983L435.981 284.586C436.4 284.166 436.4 283.608 436.121 283.049C435.701 282.35 435.143 281.931 434.444 281.512C433.606 281.093 432.768 280.813 431.79 280.813C431.231 280.813 430.253 280.813 429.973 281.372L423.267 291.012L422.29 292.409C421.87 292.828 421.87 293.387 422.15 293.806C422.569 294.505 423.128 294.924 423.826 295.343C424.665 295.762 425.503 296.042 426.481 296.042C427.04 296.181 427.878 296.181 428.297 295.623Z" fill="#262626"/>
<path d="M107.527 155.774C107.527 155.774 132.814 166.95 150.417 158.009C168.021 149.068 199.455 126.435 211.749 142.222C224.044 158.009 203.087 175.612 186.462 179.943C186.462 179.943 212.588 224.79 191.073 250.636C169.557 276.482 153.072 274.805 160.197 294.644C160.197 294.644 141.476 343.542 120.939 309.313C117.726 304.004 71.4823 241.135 103.476 198.944C103.476 198.944 122.336 176.451 107.527 155.774Z" fill="white"/>
<path d="M107.108 158.848C114.513 162.061 122.197 163.877 130.16 164.576C136.587 165.274 143.013 164.436 149.16 162.34C154.19 160.524 158.94 157.451 163.55 154.796C173.33 149.208 183.668 142.921 194.845 140.686C199.036 139.847 203.367 139.708 207 141.524C207.279 141.664 207.698 141.943 207.978 142.083C208.397 142.362 208.676 142.641 208.955 142.921C208.536 142.502 209.095 143.061 209.095 143.2C209.095 143.34 209.514 143.619 209.654 143.899C210.073 144.318 210.353 144.877 210.772 145.436C212.029 147.392 212.588 149.767 212.448 152.002C212.169 158.149 207.558 163.318 203.088 167.23C197.919 171.561 191.911 174.774 185.345 176.591C183.389 177.149 182.97 179.524 183.948 181.061C186.043 184.833 187.999 188.745 189.536 192.797C189.257 192.098 189.676 193.356 189.815 193.495L190.374 194.753C190.793 195.87 191.213 196.848 191.492 197.966C192.33 200.201 192.889 202.297 193.588 204.532C194.845 209.003 195.823 213.753 196.242 218.363C197.08 228.143 195.823 238.342 189.815 246.305C182.551 255.945 172.771 263.07 163.69 270.894C160.616 273.548 157.543 276.482 156.285 280.394C154.749 285.144 155.587 290.173 157.263 294.923L157.403 292.548C156.146 295.762 154.609 298.835 152.933 301.909C150.278 306.799 146.506 312.527 142.035 315.6C140.918 316.438 139.66 317.137 138.403 317.556C137.984 317.696 138.263 317.556 138.403 317.556L137.984 317.696L137.006 317.835L136.028 317.975C135.748 317.975 134.77 317.975 135.329 317.975C132.535 317.835 130.02 316.578 128.204 314.482C124.711 311.13 122.197 306.519 119.542 302.328C111.16 289.754 104.454 276.202 99.7037 261.952C94.1154 244.349 92.2992 224.51 101.38 207.745C104.314 202.297 108.505 197.686 111.299 192.098C115.77 182.877 117.586 171.98 113.954 162.34C112.697 159.267 111.16 156.333 109.204 153.539C108.366 152.281 106.689 151.862 105.432 152.7C105.292 152.7 105.292 152.84 105.152 152.84C103.895 154.237 104.593 156.193 105.571 157.451C110.322 164.296 111.16 172.539 109.064 180.502C108.226 183.716 106.829 186.789 105.292 189.723C104.314 191.539 103.196 193.356 101.939 195.032C98.3066 199.642 95.3727 204.812 93.1374 210.26C90.483 217.525 89.2256 225.069 89.2256 232.753C89.2256 247.702 93.5565 262.511 99.4243 276.202C103.895 286.401 109.204 296.181 115.211 305.401C120.101 312.946 125.55 323.843 135.748 324.402C145.947 324.961 153.212 314.482 157.543 306.519C159.219 303.585 160.756 300.372 162.014 297.298L162.293 296.46C162.572 295.063 162.433 293.526 161.874 292.129C161.594 291.431 161.455 290.592 161.315 289.894C161.175 289.335 161.036 288.636 161.036 288.078C161.036 287.659 160.896 286.541 160.896 286.541C160.896 286.82 160.896 285.982 161.036 285.842C161.175 285.703 161.175 285.144 161.175 284.864C161.175 284.445 161.315 284.166 161.455 283.747C161.734 283.188 161.874 282.629 162.293 282.07C162.852 281.232 163.55 280.254 164.249 279.555C166.344 277.46 168.58 275.504 170.955 273.688C178.08 268.239 184.786 262.092 190.933 255.526C196.382 249.658 200.154 242.253 201.551 234.29C202.669 226.746 202.529 219.202 200.992 211.797C198.896 200.76 194.985 190.003 189.676 180.083C189.396 179.524 189.117 178.966 188.837 178.407L187.44 182.877C193.727 181.201 199.735 178.267 205.044 174.355C209.933 170.583 214.544 165.973 216.779 160.105C219.154 154.237 218.456 147.671 215.242 142.362C212.448 137.612 207.698 134.259 202.249 133.421C196.941 132.582 191.632 133.98 186.602 135.516C180.734 137.612 175.146 140.127 169.697 143.061C164.389 145.855 159.08 148.928 153.771 151.862C151.396 153.259 149.021 154.517 146.506 155.634C143.572 156.752 140.359 157.451 137.145 157.73C127.086 158.429 117.167 156.612 107.946 152.421C106.829 151.862 105.432 152.281 104.873 153.399C104.733 153.678 104.733 153.818 104.593 154.098C104.454 156.193 105.432 158.009 107.108 158.848Z" fill="#262626"/>
<path d="M86.9899 279.555C86.9899 279.555 70.0853 301.769 57.6512 292.967C45.2172 284.166 61.0042 276.202 61.0042 276.202C61.0042 276.202 26.7757 264.886 45.2172 243.65C45.2172 243.65 13.2241 239.878 14.4814 211.937C15.7388 183.995 52.482 172.818 52.482 172.818C52.482 172.818 32.3641 188.326 57.0924 174.355C81.8207 160.384 73.1588 161.223 73.1588 161.223C73.1588 161.223 89.5047 156.472 96.7695 164.995C104.034 173.517 110.042 159.127 110.042 159.127C110.042 159.127 125.689 187.627 103.476 198.944L109.483 245.187C109.483 245.187 125.13 251.614 127.226 269.077C129.322 286.541 98.7254 296.739 86.9899 279.555Z" fill="#262626"/>
<path d="M85.0345 276.763C81.4021 281.652 76.7917 285.844 71.4828 289.057C67.9901 291.013 63.7989 292.55 59.8871 291.292C58.9091 291.013 57.9311 290.454 57.0929 289.756C56.5341 289.336 56.1149 289.057 55.6958 288.638C55.4164 288.498 55.2767 288.219 55.137 287.939C54.9973 287.66 54.8576 287.38 55.137 287.8C55.137 287.52 55.137 287.101 55.137 286.822C55.2767 285.983 55.6958 285.285 56.1149 284.586C57.7914 282.211 60.0268 280.255 62.6812 279.138C64.6371 278.16 61.7033 273.41 60.3062 272.991C56.9532 271.873 53.7399 270.336 50.6663 268.38C48.2913 266.983 46.1957 265.167 44.2397 263.211C44.1 263.071 43.4015 262.233 43.8206 262.792C43.6809 262.512 43.4015 262.233 43.2618 261.954L42.9824 261.535C42.703 261.115 43.2618 262.093 42.9824 261.535C42.703 260.976 42.5633 260.836 42.4235 260.417C42.703 261.115 42.4235 260.417 42.2838 260.137C42.0044 259.439 42.2838 260.417 42.1441 259.579C42.0044 258.88 41.8647 258.321 41.8647 257.623C41.725 253.431 44.3795 249.38 47.0339 246.167C47.7325 245.328 46.8942 243.372 46.4751 242.674C45.9162 241.696 45.078 240.439 43.9603 240.159C40.1882 239.74 36.6955 238.622 33.2028 237.086C29.9895 235.828 26.9159 234.012 24.2615 231.916C23.5629 231.358 23.0041 230.799 22.585 230.38C22.1659 229.96 21.8864 229.681 21.607 229.262L21.1879 228.703C21.1879 228.563 20.4894 227.865 20.9085 228.424C20.4894 227.865 19.6511 226.607 19.3717 226.328C19.6511 226.607 19.232 226.049 19.232 226.049L18.8129 225.35L18.5335 224.791C17.9746 223.813 18.8129 225.35 18.3937 224.372C14.901 216.129 16.857 206.07 21.7467 198.386C26.3571 191.261 33.3425 185.813 40.6073 181.761C44.9383 179.246 49.4089 177.291 54.159 175.754L50.9457 169.607C48.9898 171.143 46.8942 172.82 45.078 174.496C44.2397 175.335 42.9824 176.313 42.703 177.57C42.2838 180.224 44.6589 183.857 47.453 183.019C50.2472 182.041 52.9016 180.644 55.5561 179.107C60.0268 176.732 64.3577 174.217 68.549 171.423C70.7843 170.026 72.8799 168.489 74.8358 166.812C75.8138 166.114 76.5123 164.996 76.7917 163.739C76.9315 161.364 74.8358 157.592 72.0417 157.871L74.8358 164.158C80.1447 162.481 85.7331 162.342 91.1817 163.739C92.9979 164.298 94.5347 165.136 95.9318 166.393C97.4685 167.79 98.5862 169.467 100.682 170.305C103.755 171.562 106.55 169.886 108.645 167.651C110.182 165.974 111.439 164.018 112.278 161.923L108.925 159.827C109.064 160.106 109.204 160.246 109.344 160.526C109.483 160.805 109.623 161.084 109.763 161.364L110.042 161.923C109.763 161.364 110.461 162.761 110.042 161.923C110.461 163.04 110.881 164.018 111.3 165.136C111.579 165.695 111.719 166.393 111.858 166.952C111.858 167.092 112.138 167.93 112.138 167.651C112.138 167.371 112.278 168.349 112.417 168.489C113.954 174.357 114.653 181.063 111.719 186.791C109.623 190.702 106.41 193.916 102.358 195.872C101.939 196.151 101.799 196.71 101.799 197.269L107.528 241.277C107.947 244.071 108.226 247.005 111.02 248.402C113.814 249.799 116.469 251.615 118.704 253.851C122.756 257.762 125.27 262.932 125.55 268.52C125.829 273.13 123.035 277.322 119.542 279.976C110.741 286.822 95.0935 287.8 88.2478 278.02C87.689 277.322 86.2919 275.645 85.4536 276.763C84.6154 277.88 85.8728 280.255 86.4316 281.094C90.4831 286.961 96.77 290.734 103.895 291.572C110.182 292.131 116.609 290.594 121.778 286.961C126.947 283.748 129.881 278.02 129.741 271.873C129.043 263.63 125.55 255.946 119.822 250.078C116.748 246.725 113.116 244.071 109.064 242.255L111.858 247.005L106.689 206.49L105.991 200.761L105.432 202.159C112.697 198.526 117.447 191.122 117.726 182.879C117.726 174.357 115.631 165.974 111.719 158.43C111.439 158.011 109.064 154.658 108.366 156.334C107.108 159.408 103.336 166.254 99.0053 164.158C97.3288 163.32 96.3509 161.503 94.8141 160.386C93.1376 159.128 91.3214 158.29 89.5052 157.731C85.8728 156.753 82.1007 156.474 78.3285 156.893C76.0932 157.033 73.8579 157.452 71.6225 158.151C69.6666 158.709 72.6005 164.577 74.4167 164.437C74.5564 164.437 74.8358 164.437 74.9755 164.437C74.5564 164.158 75.5344 164.437 74.9755 164.437C73.5785 163.32 72.7402 161.643 72.4608 159.827C72.4608 159.967 72.7402 159.408 72.4608 159.827C72.3211 159.967 72.3211 160.106 72.1814 160.246C71.902 160.665 71.4828 161.084 71.0637 161.364C69.3872 162.761 67.571 164.018 65.7548 165.276C59.4679 169.467 53.0414 173.099 46.1957 176.313C45.4971 176.592 44.7986 176.871 44.1 177.151C43.5412 177.291 44.1 177.011 43.8206 177.151H43.6809C45.3574 182.599 46.3354 184.416 46.7545 182.32C46.6148 182.739 46.6148 182.739 46.6148 182.599C47.3133 181.761 47.7325 181.202 48.431 180.504C50.1075 178.967 52.0634 177.43 53.8796 176.033C55.6958 174.636 52.7619 169.187 50.6663 169.886C46.3354 171.283 42.2838 173.099 38.372 175.195C30.5484 179.386 23.1438 184.974 18.1143 192.379C7.49651 207.607 11.1289 228.703 26.4968 239.321C28.0336 240.439 29.8498 241.417 31.5263 242.255C36.1367 244.63 41.0265 246.167 46.1957 246.865L43.1221 240.858C40.0485 244.211 38.0926 248.402 37.5338 252.873C37.3941 257.204 38.6514 261.395 41.0265 264.887C44.7986 270.616 50.9457 274.667 57.0929 277.461C58.49 278.16 60.0268 278.719 61.5636 279.277L59.1885 273.13C56.5341 274.388 54.159 276.344 52.3428 278.719C48.5707 283.888 51.5046 290.314 55.6958 294.226C59.4679 297.998 65.0563 299.116 70.0858 297.439C74.6961 295.763 78.8874 292.969 82.3801 289.476C84.7551 287.381 86.8507 285.005 88.8066 282.491C90.2037 280.675 86.5713 274.807 85.0345 276.763Z" fill="#262626"/>
<path d="M110.46 201.32C110.46 201.32 93.9746 186.371 84.1951 199.503C74.4155 212.636 100.122 255.247 121.357 236.805" fill="white"/>
<path d="M111.3 198.805C107.109 195.032 101.241 191.679 95.6531 190.981C87.8294 190.003 80.844 195.452 79.7264 203.275C79.7264 203.415 79.7264 203.555 79.7264 203.555C78.8881 210.68 81.6823 218.364 85.0353 224.511C88.6677 231.496 94.1163 237.504 100.962 241.555C107.947 245.886 117.028 245.188 123.315 239.739C124.433 238.621 124.433 236.805 123.455 235.548C122.896 234.71 120.94 232.614 119.683 233.732C117.308 235.967 114.374 237.364 111.161 237.923C108.506 238.202 105.852 237.923 103.337 236.805C100.543 235.548 98.0281 233.871 95.9325 231.776C93.8369 229.68 91.881 227.305 90.3442 224.79C88.528 222.136 87.1309 219.202 86.1529 216.128C85.7338 214.871 85.3147 213.614 85.0353 212.217C84.7558 210.959 84.6161 209.702 84.6161 208.444C84.6161 207.746 84.6161 207.187 84.6161 206.488C84.6161 205.93 84.7558 205.511 84.8956 204.952C85.0353 204.393 85.175 203.974 85.3147 203.415C85.4544 202.996 85.5941 202.577 85.8735 202.158C87.8294 198.944 91.3221 196.988 95.0943 196.849C98.7267 196.988 102.08 198.106 105.153 200.202C105.712 200.481 106.131 200.9 106.69 201.18C107.249 201.599 107.668 201.878 108.227 202.297C108.786 202.716 109.205 202.996 109.624 203.415C110.602 204.393 112.418 204.393 112.837 202.996C113.256 201.599 112.418 199.643 111.3 198.805Z" fill="#262626"/>
<path d="M163.829 206.348C167.042 209.422 170.954 211.797 175.145 213.334C183.109 216.407 192.05 215.01 198.756 209.701C200.013 208.584 200.013 206.628 198.896 205.51L198.756 205.37C197.359 204.113 195.403 203.973 193.866 205.091C191.212 207.187 187.998 208.584 184.645 208.863C181.712 209.003 178.917 208.444 176.263 207.326C175.285 206.907 176.822 207.606 175.844 207.187L175.006 206.768C174.447 206.488 173.888 206.209 173.329 205.929C172.351 205.371 171.373 204.672 170.395 203.973C169.557 203.415 170.256 203.834 170.395 203.973L169.976 203.694L169.278 203.135L168.579 202.576C167.322 201.319 165.226 201.179 163.689 202.297C162.432 203.415 162.432 205.231 163.41 206.488C163.689 206.209 163.689 206.348 163.829 206.348Z" fill="#262626"/>
<path d="M135.468 176.87C135.468 176.87 139.38 175.613 140.358 179.525C141.336 183.437 136.446 184.554 134.63 181.481C133.512 180.223 133.792 178.267 135.189 177.15C135.189 177.01 135.329 177.01 135.468 176.87Z" fill="#262626"/>
<path d="M64.2188 514.405C64.2188 514.405 69.9468 278.997 129.323 280.953C188.699 282.909 210.353 354.02 210.353 354.02L250.31 449.022L266.656 514.405" fill="#F5EE30"/>
<path d="M66.8716 515.523C66.8716 513.287 67.0113 511.052 67.151 508.817C67.4304 502.67 67.7098 496.662 67.9893 490.515C68.5481 481.574 69.1069 472.493 69.8055 463.97C70.6437 453.073 71.7614 442.316 72.879 431.418C74.1364 419.683 75.6732 407.948 77.4894 396.212C79.3056 384.477 81.4012 372.881 83.916 361.285C86.1513 350.527 89.0852 339.91 92.5779 329.571C95.372 320.77 99.0045 312.247 103.615 304.284C105.571 300.931 107.666 297.857 110.181 294.784C111.159 293.527 112.277 292.409 113.394 291.291C114.512 290.174 115.769 289.196 117.167 288.218C118.424 287.379 119.681 286.541 121.078 285.982L121.637 285.703C121.358 285.843 122.056 285.563 121.637 285.703L122.755 285.284C123.453 285.004 124.152 284.865 124.85 284.725C126.248 284.306 127.784 284.166 129.181 284.166C129.042 284.166 129.601 284.166 129.181 284.166H129.74C130.578 284.166 131.277 284.166 132.115 284.306C134.071 284.446 136.027 284.585 137.983 284.865C144.829 285.843 151.535 287.938 157.822 291.012C160.755 292.409 163.55 294.085 166.204 295.902C167.601 296.88 168.998 297.857 170.256 298.835C171.513 299.813 172.77 300.791 173.609 301.49C175.984 303.586 178.359 305.821 180.594 308.056C181.712 309.174 182.69 310.292 183.668 311.409C183.947 311.689 184.226 311.968 184.506 312.387L185.065 312.946L186.462 314.622C189.954 319.093 193.307 323.843 196.102 328.733L196.66 329.711C196.8 329.99 196.521 329.571 196.521 329.571C196.521 329.571 196.66 329.851 196.8 329.99C197.08 330.549 197.499 331.248 197.778 331.807C198.337 332.924 198.896 333.902 199.455 335.02C200.572 336.976 201.55 339.071 202.528 341.167C203.925 344.241 205.322 347.314 206.44 350.527L206.719 351.366C206.859 351.785 206.44 350.527 206.58 351.086C206.58 351.226 206.719 351.366 206.719 351.505L207.139 352.763C207.278 353.182 207.418 353.601 207.558 354.02C207.977 355.417 208.675 356.675 209.094 357.932L218.874 381.124L232.845 414.234L244.441 442.036L247.374 449.022C247.514 449.301 247.514 449.441 247.654 449.72C247.933 450.419 247.374 449.301 247.514 449.161C247.374 449.441 247.794 450.559 247.933 450.838L254.639 477.802L262.463 509.236L263.86 514.545C264.279 516.221 265.537 517.618 267.213 518.038C268.89 518.177 269.309 516.64 268.89 515.243L263.86 495.265L255.338 461.037C254.22 456.706 253.522 451.956 251.705 447.764L243.323 427.646L229.492 394.675L216.918 364.917L213.286 356.116C213.006 355.417 212.727 354.719 212.447 354.16C212.028 353.322 212.727 355.278 212.587 354.439C210.771 348.991 208.675 343.682 206.021 338.513C201.271 328.454 195.263 318.953 188.138 310.292C179.476 299.813 168.998 290.872 156.564 285.004C149.998 281.931 142.873 279.835 135.608 278.857C131.137 278.298 126.248 277.74 121.777 278.857C115.211 280.394 109.902 284.725 105.571 289.754C100.402 296.181 96.0706 303.306 92.997 310.99C88.9455 320.63 85.4528 330.41 82.7983 340.468C79.7247 351.645 77.21 362.961 75.1144 374.418C72.879 386.293 71.0628 398.168 69.526 410.183C67.9893 421.779 66.7319 433.374 65.6142 444.97C64.6363 455.169 63.798 465.507 63.0995 475.706C62.5406 483.39 62.1215 491.214 61.7024 498.898C61.5627 503.228 61.2833 507.559 61.1436 511.89V513.567C61.2833 515.383 62.4009 516.92 63.9377 517.618C65.7539 517.758 66.8716 516.92 66.8716 515.523Z" fill="#F5EE30"/>
<path d="M245.979 441.477L283.421 362.961C283.421 362.961 178.081 266.562 151.257 287.938C124.433 309.313 160.198 412.837 245.979 441.477Z" fill="white"/>
<path d="M248.352 443.573L261.066 417.028L281.323 374.697L285.934 365.057C286.632 363.52 285.375 361.425 284.397 360.447C281.044 357.373 277.551 354.3 274.058 351.366C265.676 344.101 257.154 336.976 248.352 330.13C237.455 321.468 226.138 313.225 214.543 305.402C203.925 298.416 192.888 291.571 181.013 286.681C172.77 283.328 162.851 279.835 154.049 282.629C146.225 285.144 142.453 293.526 140.917 300.931C138.821 311.689 140.497 323.145 143.152 333.762C146.784 347.594 152.373 360.726 159.777 372.881C168.16 386.991 178.498 399.844 190.373 411.021C203.087 423.036 217.756 432.815 233.683 439.801C237.874 441.617 242.065 443.294 246.396 444.691C247.933 445.25 248.631 443.294 248.492 442.176C248.352 440.499 247.095 438.963 245.558 438.404C229.352 432.955 214.263 424.573 200.991 413.815C182.969 399.146 168.299 380.984 157.961 360.167C154.887 354.3 152.373 348.152 150.277 341.866C149.299 338.792 148.321 335.858 147.623 332.784C147.623 332.505 147.483 332.226 147.343 331.806C147.203 331.387 147.203 331.387 147.203 331.248C147.203 331.248 147.343 331.667 147.203 331.387C147.064 330.689 146.924 329.851 146.784 329.152C146.505 327.755 146.225 326.358 145.946 324.821C145.108 319.931 144.828 314.902 145.108 309.872C145.247 308.755 145.247 307.637 145.527 306.38C145.527 305.821 145.667 305.402 145.806 304.983L145.946 304.144C145.806 304.703 145.946 303.865 146.086 303.725C146.505 301.769 147.203 299.953 147.902 298.137C148.042 297.718 148.321 297.299 148.461 296.879C148.461 296.74 148.88 296.181 148.6 296.74L149.02 296.041C149.439 295.343 149.998 294.644 150.556 293.946C151.115 293.247 151.674 292.549 152.373 291.99L152.792 291.571L152.931 291.431C153.211 291.151 153.63 290.872 153.909 290.732C154.608 290.313 155.306 289.894 156.005 289.615C156.284 289.475 156.704 289.335 157.123 289.196C157.542 289.056 157.262 289.196 157.262 289.196L158.101 289.056C159.917 288.637 161.733 288.497 163.41 288.637C164.248 288.637 165.226 288.776 166.064 288.916C167.182 289.056 168.16 289.196 169.138 289.475C171.513 290.034 173.888 290.593 176.123 291.431C181.292 293.247 186.182 295.482 191.072 297.997C196.8 300.931 202.248 304.144 207.697 307.637C219.153 314.902 229.771 322.586 240.668 330.968C250.029 338.093 259.11 345.498 268.051 353.182C272.801 357.233 277.551 361.425 282.161 365.616L282.86 366.175L281.323 361.564L268.61 388.109L248.352 430.44L243.742 440.08C242.345 441.896 246.815 446.926 248.352 443.573Z" fill="#262626"/>
<path d="M85.4534 366.175L132.256 363.8L139.66 408.227L78.0488 405.712L85.4534 366.175Z" fill="white"/>
<path d="M88.387 367.851L129.461 365.756L135.329 365.476L129.321 362.123L136.586 405.712C136.726 405.991 136.726 406.131 136.726 406.411C136.726 406.55 137.145 406.271 136.726 406.411C136.027 406.55 135.329 406.411 134.63 406.271L124.711 405.852L95.2327 404.594L75.2544 403.756L81.2619 407.109L87.6885 372.462L88.6664 367.572C88.9458 366.175 82.5193 364.219 82.5193 364.358L75.953 399.006L74.975 403.896C74.8353 404.594 77.0706 405.572 77.3501 405.712C78.4677 406.411 79.5854 406.969 80.9825 407.109L101.659 407.947L134.91 409.344L142.594 409.624H142.733L136.307 370.785L135.329 365.197C135.189 364.358 133.513 363.66 132.814 363.38C131.697 362.682 130.579 362.123 129.182 361.983L88.2473 364.219L82.3796 364.498C81.681 364.498 84.0561 366.175 84.1958 366.175C85.4531 367.153 86.8502 367.711 88.387 367.851Z" fill="#F5EE30"/>
<path d="M23.8429 268.658C23.8429 268.658 115.911 210.399 125.131 130.766L109.624 140.825C109.624 140.825 37.3945 115.258 12.5265 154.516C-14.8563 197.965 27.3356 247.003 27.3356 247.003C27.3356 247.003 12.5265 276.761 23.8429 268.658Z" fill="#F5EE30"/>
<path d="M26.4968 270.614C29.7101 268.658 32.7837 266.423 35.7176 264.187C43.5412 258.459 51.0854 252.312 58.3503 245.886C68.4093 237.084 77.7697 227.584 86.5713 217.385C96.3509 206.208 105.013 193.914 112.138 180.782C119.682 167.23 124.851 152.561 127.646 137.332C127.925 135.376 128.204 133.421 128.484 131.465C128.903 128.391 124.572 127.413 122.476 128.81L106.969 138.869L111.02 138.59C103.616 136.075 96.2112 134.119 88.5272 132.722C73.7182 129.928 58.0709 128.67 43.1221 131.604C35.2984 133.001 27.8939 136.075 21.3276 140.406C14.2025 145.575 8.61417 152.561 5.26118 160.664C-2.84189 178.826 -0.885981 199.083 6.37884 217.245C9.173 224.231 12.6657 231.077 16.857 237.363C18.9526 240.996 21.4673 244.349 24.1218 247.562C24.2615 247.702 24.4012 247.841 24.5409 247.981L24.2615 245.327C22.4453 248.959 20.7688 252.592 19.232 256.364C18.1143 258.878 17.2761 261.533 16.5775 264.187C16.0187 266.283 15.5996 268.798 17.1364 270.474C19.7908 273.967 23.8424 272.57 26.4968 270.614C27.8939 269.776 27.1954 267.82 26.0777 266.982C24.6806 265.864 22.7247 265.864 21.1879 266.842L20.4894 267.261C20.0702 267.54 20.7688 267.121 20.3497 267.401L19.7908 267.68C19.6511 267.68 20.4894 267.54 19.9305 267.68C21.0482 267.54 22.1659 267.96 22.8644 268.658C22.585 268.379 23.2835 269.357 23.0041 268.937C22.7247 268.518 23.0041 269.496 23.0041 269.077C23.0041 268.798 23.0041 267.82 23.0041 268.658C23.0041 268.239 23.1438 267.82 23.1438 267.401C23.2835 266.423 23.5629 265.445 23.8424 264.467C25.2394 260.136 26.9159 255.945 29.0116 251.893C29.5704 250.775 29.9895 249.797 30.5484 248.68C30.9675 247.841 30.9675 246.724 30.2689 246.025C29.7101 245.327 29.1513 244.489 28.4527 243.79C27.7542 243.091 27.1954 242.113 26.4968 241.275L25.3791 239.738C25.0997 239.459 24.96 239.18 24.6806 238.76L24.4012 238.341C24.2615 238.062 24.5409 238.621 24.2615 238.202C19.7908 231.496 16.0187 224.371 12.9451 216.826C9.0333 207.466 6.79797 197.407 6.65826 187.348C6.51855 176.032 9.73184 164.995 15.879 155.494C20.4894 148.649 26.9159 143.2 34.5999 140.127C42.1441 137.193 50.2472 135.516 58.3503 135.376C73.1593 134.818 86.8507 137.053 101.101 140.965C102.917 141.524 104.733 142.082 106.689 142.641L108.226 143.2C108.645 143.34 107.108 142.781 107.947 143.06C109.623 143.619 111.439 143.34 112.836 142.362L116.469 139.987L125.69 133.979L127.506 132.862L121.359 130.207C119.403 145.435 114.932 160.105 107.947 173.796C101.241 187.068 92.9979 199.502 83.4977 210.959C74.9755 221.297 65.7548 230.937 55.8355 239.878C48.2913 246.724 40.4676 253.15 32.3646 259.158C28.7321 261.812 24.6806 264.187 21.1879 266.982L21.0482 267.121C19.6511 268.099 20.3497 269.915 21.4673 270.754C23.1438 271.452 25.0997 271.452 26.4968 270.614Z" fill="#F5EE30"/>
<path d="M54.8583 125.877C61.8437 125.877 68.9688 126.156 75.9542 126.715C81.4028 127.134 86.9911 127.553 92.4397 128.531C93.5574 128.671 95.0942 128.951 95.7927 129.09L97.1898 129.37C97.3295 129.37 98.1678 129.649 97.4692 129.37L98.5869 129.649C99.4252 129.929 97.8884 129.37 98.7266 129.649C98.0281 129.37 99.5649 129.929 98.7266 129.649C98.8663 129.649 99.006 129.789 99.1457 129.789C98.5869 129.509 99.5649 130.068 99.4252 129.929C99.7046 130.068 99.984 130.348 100.263 130.487C102.219 132.164 101.8 134.818 101.241 137.054C100.124 141.245 98.7266 145.436 96.7707 149.348C91.3221 161.083 84.8955 172.26 77.491 182.878C73.2997 189.025 68.8291 195.033 63.9393 200.761C60.1672 205.511 55.6965 209.842 50.9464 213.753C51.9244 214.312 53.0421 214.871 54.1597 215.29C54.8583 215.57 56.9539 216.408 57.6524 215.849C67.7114 208.305 75.5351 197.827 82.5205 187.768C90.3441 176.731 97.1898 165.135 103.058 152.98C105.153 148.789 106.83 144.318 108.087 139.708C108.646 137.333 109.205 134.539 107.109 132.723C105.433 131.465 103.477 130.348 101.521 129.789C98.8663 128.811 96.0722 127.973 93.278 127.274C87.6897 126.017 81.8219 125.178 76.0939 124.759C67.1526 123.921 58.2113 123.502 49.2699 123.502C47.8729 123.502 49.9685 124.34 50.2479 124.48C51.7847 125.318 53.3215 125.737 54.8583 125.877Z" fill="#262626"/>
<path d="M207 289.615C206.721 282.071 206.721 274.526 207 266.842C207.14 265.026 207.14 263.21 207.279 261.394C207.279 260.276 207.14 258.18 207.978 257.202C208.816 256.224 210.213 256.923 211.331 257.063L217.199 257.622C232.147 259.158 247.096 260.835 262.045 262.791C269.45 263.769 276.854 264.747 284.259 265.864C287.891 266.423 291.523 266.982 295.156 267.401L300.604 268.239C302.421 268.379 304.377 268.659 306.053 269.078C307.31 269.497 307.31 270.894 307.31 272.012C307.31 273.828 307.171 275.784 307.171 277.6L306.891 289.056L306.193 311.689L305.494 337.255C305.494 339.211 305.494 341.307 305.355 343.263C305.355 343.961 305.355 344.939 304.656 345.498C304.097 345.777 303.399 345.917 302.84 345.917L289.707 347.314C288.59 347.454 287.332 348.152 288.31 349.27C289.288 350.388 291.663 350.248 293.06 350.108L305.494 348.711C308.847 348.292 312.06 347.733 312.34 343.682C312.899 335.439 312.759 327.196 313.038 318.953L313.737 293.946L314.016 281.512L314.156 275.644C314.436 273.828 314.296 272.012 313.877 270.195C312.759 266.703 308.568 266.283 305.494 265.864C301.443 265.166 297.251 264.607 293.2 264.048C284.957 262.791 276.854 261.673 268.611 260.695C252.265 258.6 235.92 256.644 219.434 254.967C215.103 254.548 210.493 253.57 206.162 253.849C204.206 253.849 202.39 254.548 201.132 256.085C200.294 257.622 200.015 259.298 200.154 260.975C199.595 270.335 199.595 279.835 200.015 289.196C200.015 291.291 206.86 291.431 207 289.615Z" fill="#F5EE30"/>
<path d="M216.779 275.364C217.198 275.364 217.757 275.364 218.176 275.364C218.456 275.364 218.735 275.364 219.014 275.364C219.294 275.364 219.713 275.225 219.992 275.085C220.132 275.085 220.272 274.945 220.411 274.945C220.691 274.806 220.97 274.666 221.25 274.386C221.389 274.247 221.389 274.247 221.529 274.107C221.948 273.688 222.228 272.989 222.367 272.43C222.367 272.151 222.367 271.732 222.367 271.453C222.367 271.313 222.228 271.173 222.228 270.894C222.228 270.754 222.088 270.475 222.088 270.335C221.948 269.916 221.809 269.636 221.529 269.357L221.389 269.217C221.25 268.938 220.97 268.658 220.691 268.379C220.132 267.82 219.573 267.401 218.735 267.122C218.036 266.842 217.338 266.702 216.779 266.842C216.22 266.842 215.801 267.122 215.382 267.541C215.103 267.82 214.963 268.1 214.823 268.379C214.683 268.658 214.683 269.077 214.683 269.497C214.683 269.916 214.683 270.335 214.963 270.614C215.103 271.033 215.382 271.453 215.661 271.732C215.941 272.151 216.22 272.431 216.639 272.71L217.478 273.129C217.897 273.269 218.456 273.408 219.014 273.408L219.713 273.269C220.132 273.129 220.411 272.71 220.691 272.291L220.272 272.85L220.411 272.71L219.853 273.129H219.992L219.294 273.269H219.434H218.735H218.875L218.036 273.129H218.176L217.338 272.71C217.478 272.71 217.478 272.85 217.617 272.85L216.919 272.291L217.058 272.43L216.5 271.732C216.5 271.872 216.639 271.872 216.639 272.011L216.22 271.313C216.22 271.453 216.36 271.453 216.36 271.592L216.22 270.754V271.033V270.335C216.22 270.475 216.22 270.475 216.22 270.614L216.36 269.916C216.36 270.055 216.22 270.195 216.22 270.195L216.639 269.636C216.5 269.776 216.36 269.916 216.22 270.055L216.779 269.636C216.639 269.776 216.36 269.916 216.081 269.916L216.779 269.776C216.5 269.916 216.081 269.916 215.801 269.916H216.5C216.22 269.916 216.081 269.916 215.801 269.916C215.382 269.776 215.103 269.916 214.683 269.916C214.264 269.916 213.985 270.195 213.845 270.335C213.566 270.614 213.426 270.894 213.426 271.173C213.286 271.592 213.286 271.872 213.426 272.291L213.566 273.129C213.845 273.688 214.125 274.247 214.544 274.666L215.242 275.225C215.661 275.085 216.22 275.225 216.779 275.364Z" fill="#F5EE30"/>
<path d="M227.816 268.24C227.537 268.519 227.397 268.799 227.257 269.078C227.257 269.218 227.117 269.218 227.117 269.358C226.978 269.637 226.978 270.056 226.978 270.475C226.978 270.894 227.117 271.174 227.117 271.593C227.257 271.872 227.397 272.152 227.537 272.431V272.571C227.676 272.85 227.956 273.13 228.095 273.409L228.235 273.549L228.375 273.688C228.654 273.968 228.794 274.108 229.073 274.387H229.213C229.493 274.527 229.772 274.666 230.051 274.946L230.191 275.086C230.47 275.225 230.75 275.225 231.029 275.365H231.169C231.448 275.365 231.868 275.505 232.147 275.505H232.287C232.566 275.505 232.846 275.505 233.125 275.365H233.265C233.684 275.225 234.243 274.946 234.522 274.527C234.801 274.108 234.941 273.688 234.941 273.13C234.941 272.291 234.662 271.593 234.243 270.894C233.823 270.196 233.265 269.497 232.566 268.938C231.868 268.38 231.169 268.1 230.331 267.821H230.191C229.912 267.821 229.493 267.681 229.213 267.681C228.794 267.681 228.375 267.681 228.095 267.821C227.676 267.96 227.397 268.1 227.117 268.38C226.838 268.659 226.559 268.938 226.559 269.218C226.419 269.637 226.419 269.916 226.419 270.335C226.419 270.755 226.559 271.174 226.698 271.453L227.257 272.152C227.676 272.571 228.235 272.99 228.794 273.269L229.632 273.549C230.191 273.688 230.75 273.688 231.169 273.549H231.309L230.47 273.688H230.89L230.051 273.549C230.191 273.549 230.331 273.549 230.47 273.688L229.632 273.409C229.772 273.409 229.912 273.549 230.051 273.549L229.213 272.99C229.353 273.13 229.493 273.13 229.632 273.269L228.934 272.571C229.073 272.711 229.073 272.711 229.213 272.85L228.654 272.152C228.794 272.291 228.794 272.431 228.794 272.431L228.515 271.733C228.515 271.872 228.654 272.012 228.654 272.152L228.515 271.453L230.191 269.218H230.051L230.89 269.078L231.728 269.218H231.448L232.287 269.497L232.007 269.358L232.846 269.777L232.706 269.637L233.404 270.335C233.265 270.196 233.265 270.196 233.125 270.056L233.684 270.755C233.684 270.615 233.544 270.475 233.544 270.475L233.823 271.174C233.823 271.034 233.684 270.894 233.684 270.755L233.823 271.453C233.823 271.313 233.823 271.174 233.823 271.174L233.684 271.872C233.684 271.733 233.684 271.593 233.823 271.593L233.544 272.291C233.544 272.152 233.684 272.152 233.684 272.012C233.963 271.733 234.103 271.313 234.103 271.034C234.243 270.615 234.243 270.335 234.103 269.916C233.963 269.497 233.823 269.078 233.544 268.799C233.265 268.38 232.985 268.1 232.566 267.821L231.728 267.262C231.169 266.983 230.61 266.843 230.051 266.843L229.213 266.982C228.654 267.541 228.235 267.821 227.816 268.24Z" fill="#F5EE30"/>
<path d="M238.713 270.335C238.573 270.754 238.434 271.034 238.434 271.453C238.434 271.872 238.434 272.291 238.573 272.57C238.713 272.99 238.853 273.269 238.992 273.688C239.132 274.107 239.412 274.387 239.691 274.666C240.25 275.365 240.948 275.784 241.787 276.203C242.625 276.482 243.463 276.622 244.301 276.622C245.14 276.622 245.838 276.343 246.537 275.923C247.096 275.504 247.654 274.946 247.934 274.247C247.934 274.107 248.073 274.107 248.073 273.968C248.213 273.548 248.213 273.269 248.353 272.85C248.353 272.431 248.353 272.151 248.353 271.732C248.353 271.592 248.353 271.453 248.213 271.453C248.073 270.615 247.654 269.916 247.095 269.357C246.816 269.078 246.537 268.798 246.257 268.519C245.838 268.24 245.559 268.1 245.14 267.96C244.72 267.82 244.162 267.681 243.743 267.681C243.323 267.681 242.904 267.681 242.485 267.82C242.066 267.96 241.787 268.1 241.367 268.519C241.088 268.798 240.809 269.078 240.669 269.497L240.529 270.335C240.529 270.894 240.669 271.453 240.809 271.872L241.228 272.57C241.647 272.99 242.066 273.409 242.625 273.688C242.765 273.688 242.765 273.688 242.904 273.828L242.066 273.409C242.206 273.409 242.206 273.548 242.345 273.548L241.647 272.99C241.787 273.129 241.787 273.129 241.787 273.269L241.367 272.57C241.367 272.71 241.507 272.85 241.507 272.99L241.228 272.151C241.228 272.291 241.367 272.431 241.367 272.71V271.872C241.367 272.012 241.367 272.151 241.367 272.431L241.507 271.592C241.507 271.732 241.367 271.872 241.367 272.012L241.787 271.313C241.787 271.453 241.647 271.592 241.507 271.592L242.066 271.034C241.926 271.034 241.926 271.173 241.787 271.173L242.485 270.894L242.206 271.034L243.044 270.894C242.904 270.894 242.765 270.894 242.765 270.894H243.603H243.323L244.162 271.173C244.022 271.173 243.882 271.034 243.743 271.034L244.581 271.453C244.441 271.313 244.301 271.313 244.162 271.173L244.86 271.732C244.72 271.592 244.72 271.593 244.581 271.453L245 272.151C244.86 272.012 244.86 271.872 244.86 271.732L245.14 272.57C245.14 272.431 245.14 272.291 245.14 272.291V273.129C245.14 272.99 245.14 272.85 245.14 272.71L245 273.548C245.14 273.129 245.279 272.71 245.14 272.291C245.14 271.872 245 271.453 244.86 271.173C244.72 270.754 244.441 270.475 244.022 270.195C243.743 269.916 243.323 269.637 242.904 269.497L242.066 269.217C241.507 269.078 240.948 269.217 240.389 269.357L239.691 269.776C239.272 269.357 238.853 269.776 238.713 270.335Z" fill="#F5EE30"/>
<path d="M215.661 293.247H217.058H218.036C218.455 293.247 219.433 293.247 218.455 293.247C220.411 293.387 222.506 293.387 224.462 293.527L241.646 294.505C254.08 295.203 266.654 295.902 279.088 296.74C283.14 297.02 287.052 297.159 291.103 297.439C292.5 297.439 294.596 296.461 294.456 294.784C294.316 293.108 292.221 292.549 290.824 292.549H289.427H288.449C288.03 292.549 287.052 292.549 288.03 292.549L282.022 292.27L264.838 291.292C252.404 290.593 239.83 289.894 227.396 289.056C223.484 288.777 219.433 288.497 215.381 288.358C213.984 288.358 212.028 289.336 212.028 291.012C212.028 292.689 214.264 293.108 215.661 293.247Z" fill="#F5EE30"/>
<path d="M377.304 269.637L388.201 268.24L405.804 191.54L391.275 225.489L377.304 269.637Z" fill="#F5EE30"/>
</svg>
