<svg width="518" height="529" viewBox="0 0 518 529" fill="none" xmlns="http://www.w3.org/2000/svg">
<path d="M482.082 373.846C482.082 373.846 514.63 383.842 514.63 373.846C514.63 363.851 510.273 223.918 389.049 211.103C267.824 198.289 201.958 362.185 205.034 373.846C208.109 385.508 247.065 387.686 247.065 387.686C247.065 387.686 262.827 454.705 271.156 463.035C279.486 471.364 454.146 474.568 462.347 462.138C470.549 449.708 482.082 373.846 482.082 373.846Z" fill="#F5EE30"/>
<path d="M484.001 371.284L484.385 371.412L486.179 371.924C488.23 372.437 490.152 372.95 492.202 373.462C497.2 374.744 502.326 375.512 507.58 375.641C509.502 375.769 511.424 375.512 513.346 374.744C513.73 374.615 513.09 374.744 513.474 374.615C513.859 374.487 513.602 374.487 513.602 374.615C513.602 374.744 513.346 374.872 513.346 375C513.218 375.256 513.09 375.384 512.962 375.641C512.962 375.769 512.577 376.281 512.833 375.897C512.705 376.025 512.833 376.409 512.833 376.025C512.833 376.281 512.833 375.897 512.833 375.769V375.512C512.833 374.359 512.833 373.078 512.705 371.924C512.449 367.183 512.065 362.442 511.552 357.829C510.783 350.781 509.63 343.733 508.22 336.685C506.426 327.971 504.12 319.385 501.429 310.928C498.353 301.573 494.509 292.475 489.896 283.761C485.026 274.407 479.26 265.565 472.468 257.492C465.292 248.906 457.091 241.474 447.864 235.066C437.741 228.147 426.721 222.893 415.059 219.176C402.117 215.204 388.534 213.026 374.95 213.026C362.52 213.026 350.219 214.82 338.429 218.408C327.153 221.868 316.26 226.865 306.265 233.144C296.398 239.295 287.043 246.343 278.586 254.416C270.128 262.233 262.312 270.69 255.264 279.661C253.854 281.455 252.06 283.633 250.394 285.94C248.728 288.246 247.062 290.425 245.397 292.731C243.731 295.038 242.321 297.216 240.783 299.395C240.014 300.548 239.246 301.701 238.477 302.855L237.452 304.392L236.939 305.161C236.939 305.289 236.555 305.674 236.939 305.161L236.683 305.674C231.429 314.003 226.559 322.589 222.202 331.303L220.793 334.25L220.408 334.891C220.665 334.378 220.408 334.891 220.28 335.019C220.024 335.531 219.768 336.044 219.511 336.557C218.614 338.351 217.717 340.273 216.949 342.067C215.411 345.398 214.001 348.858 212.72 352.318C212.079 353.856 211.566 355.394 211.054 356.803C210.798 357.444 210.541 358.213 210.285 358.854L210.029 359.751L209.901 360.263C209.26 362.442 208.619 364.62 208.107 366.799L207.85 368.08C207.85 368.208 207.85 368.464 207.722 368.721C207.594 369.105 207.722 369.233 207.722 368.849C207.594 369.49 207.594 370.002 207.594 370.643C207.594 371.027 207.722 371.412 207.594 370.899C207.722 371.412 207.85 371.924 208.107 372.437C209.132 374.103 210.413 375.384 212.079 376.281C216.436 379.1 221.69 380.382 226.816 381.535C231.941 382.688 237.067 383.457 242.193 383.97C244.5 384.226 246.806 384.482 249.113 384.611C249.369 384.611 249.625 384.739 249.625 384.995C251.932 394.862 254.495 404.729 257.186 414.468C259.364 422.413 261.671 430.358 264.234 438.303C266.028 444.582 268.462 450.605 271.282 456.5C272.563 458.934 273.588 460.472 276.279 461.369L276.792 461.497L277.945 461.753C278.714 461.882 279.483 462.138 280.252 462.266C282.174 462.65 284.096 462.907 286.018 463.163C297.679 464.701 309.597 465.47 321.386 465.982C337.02 466.751 352.653 467.135 368.287 467.264C383.92 467.392 399.554 467.264 415.188 466.495C427.233 466.238 439.151 465.213 451.068 463.419C454.528 463.035 457.86 462.138 461.063 460.985C461.32 460.856 461.576 460.728 461.832 460.6C462.088 460.472 461.96 460.472 461.704 460.6C461.832 460.472 461.96 460.472 462.088 460.344C462.217 460.216 462.473 460.088 462.601 459.959C461.96 460.344 462.088 460.344 462.345 460.088C462.729 459.703 462.088 460.344 462.088 460.344C462.473 459.959 461.576 460.985 461.832 460.728C462.217 460.216 461.576 461.113 461.704 460.985C461.96 460.6 462.088 460.216 462.345 459.703C462.601 459.319 462.088 460.344 462.345 459.703C462.473 459.447 462.601 459.191 462.601 458.934C462.857 458.422 463.114 457.781 463.242 457.268C463.37 456.756 463.626 456.115 463.882 455.474C464.267 454.449 464.139 454.706 464.395 453.937C464.908 452.399 465.292 450.861 465.805 449.323C466.83 445.735 467.727 442.276 468.496 438.688C470.418 430.486 472.084 422.285 473.621 414.084C475.928 401.526 478.106 388.968 480.029 376.281C480.157 375.641 480.285 374.872 480.285 374.231C480.669 372.693 481.566 371.412 482.848 370.515C484.001 369.874 484.514 370.387 484.257 371.54C482.848 381.151 481.182 390.762 479.516 400.372C476.697 416.262 473.749 432.408 469.264 447.914C467.855 452.911 466.317 458.934 462.857 462.907C460.807 464.957 458.116 466.367 455.169 467.007C445.173 469.698 434.409 470.211 424.03 470.98C408.78 472.005 393.659 472.261 378.41 472.389C362.264 472.518 346.118 472.261 329.972 471.621C316.517 471.108 303.19 470.467 289.863 469.058C285.506 468.545 281.021 468.033 276.664 467.264C274.485 466.879 271.538 466.495 269.744 465.085C268.591 463.932 267.565 462.65 266.925 461.113C265.643 458.55 264.49 455.987 263.465 453.296C260.646 445.992 258.339 438.559 256.161 430.999C252.316 417.928 248.856 404.729 245.653 391.402C245.525 390.633 245.268 389.865 245.14 389.096L245.653 389.48C237.708 389.096 229.763 387.942 221.946 386.148C216.949 384.995 211.566 383.457 207.338 380.51C205.159 378.972 202.981 376.666 202.981 373.847C202.981 370.002 204.39 365.902 205.544 362.314C207.722 355.65 210.285 349.115 213.232 342.707C217.077 334.122 221.305 325.792 225.919 317.591C231.301 308.109 237.195 298.754 243.603 289.912C250.394 280.301 257.827 271.075 265.9 262.361C274.229 253.263 283.327 244.933 293.066 237.501C302.677 230.069 313.185 223.79 324.205 218.664C347.912 207.772 374.31 204.312 399.938 208.797C413.009 210.847 425.695 214.948 437.613 220.842C448.121 226.096 457.86 233.016 466.317 241.089C474.262 248.65 481.182 257.235 487.076 266.59C492.715 275.432 497.456 284.786 501.3 294.525C504.889 303.367 507.836 312.594 510.014 321.82C511.936 329.637 513.474 337.582 514.627 345.527C515.525 351.421 516.165 357.316 516.55 363.211C516.806 366.414 517.575 370.643 516.293 373.59C514.243 378.716 509.245 380.126 504.12 379.997C498.866 379.741 493.612 378.972 488.486 377.691C485.795 377.05 482.976 376.409 480.285 375.512C479.003 376.153 481.951 370.643 484.001 371.284Z" fill="#F5EE30"/>
<path d="M449.143 521.982C448.503 501.863 445.043 481.873 438.764 462.651L444.017 462.523C435.56 478.925 431.203 497.122 426.846 514.934C426.334 516.472 424.668 517.497 423.002 517.241C421.592 516.856 420.695 515.318 421.08 513.781C421.08 513.652 421.08 513.652 421.208 513.524C425.821 495.072 430.434 476.619 439.148 459.704C440.045 457.91 443.633 457.269 444.402 459.576C451.065 479.694 454.782 500.71 455.294 521.854C455.166 523.52 453.756 524.929 451.962 524.929C450.425 524.929 449.271 523.776 449.271 522.238C449.143 522.238 449.143 522.11 449.143 521.982Z" fill="#F5EE30"/>
<path d="M303.45 514.165C301.528 496.737 288.585 482.898 285.125 465.854L291.404 466.367L273.08 527.107C272.567 528.517 270.901 529.286 269.491 528.901C268.338 528.645 266.288 527.492 266.8 525.954L285.125 465.214C286.022 462.394 290.892 463.035 291.404 465.854C294.992 482.898 307.935 496.609 309.729 514.165C310.113 517.497 303.706 517.24 303.45 514.165Z" fill="#F5EE30"/>
<path d="M231.176 446.248C231.176 446.248 230.791 467.392 233.354 473.159C235.917 478.925 237.711 481.488 232.201 485.204C226.691 488.92 219.515 510.705 212.979 512.755C206.444 514.806 190.298 512.755 193.117 506.476C195.936 500.197 203.24 506.476 203.24 506.476C203.24 506.476 211.954 484.307 211.954 479.31C211.954 474.312 204.778 443.686 204.778 443.686L231.176 446.248Z" fill="#FFFFFE"/>
<path d="M234.246 445.48C233.99 452.528 234.374 459.447 235.015 466.495C235.143 468.161 235.399 469.699 235.912 471.237C236.809 473.671 238.09 475.722 238.603 478.285C238.987 480.719 238.347 483.282 236.553 485.076C235.656 485.973 234.63 486.87 233.605 487.639C233.477 487.767 233.349 487.767 233.349 487.895C232.836 488.28 233.733 487.511 233.349 487.767C232.965 488.024 232.708 488.408 232.452 488.792C231.939 489.433 231.427 490.202 230.914 490.971C230.402 491.74 230.017 492.509 229.505 493.534C228.351 495.584 227.198 497.762 226.045 499.813C223.866 503.913 221.688 508.27 218.484 511.858C217.331 513.396 215.793 514.549 213.999 515.318C211.949 516.087 209.77 516.472 207.592 516.472C202.979 516.856 198.366 516.087 194.009 514.165C192.087 513.396 190.677 511.986 189.908 510.064C189.011 507.245 190.677 504.17 192.727 502.504C196.443 499.557 201.697 501.222 205.029 504.042L200.416 505.707C201.697 502.504 202.851 499.172 204.132 495.968C206.054 491.227 207.592 486.229 208.745 481.232C208.745 480.847 208.873 480.463 208.873 480.079C209.002 479.438 209.002 480.591 208.873 479.822C208.745 479.053 208.745 478.541 208.617 477.9C208.361 475.722 207.976 473.543 207.464 471.493C206.439 466.111 205.285 460.601 204.132 455.475C203.363 452.015 202.594 448.683 201.826 445.223C201.313 443.301 202.466 441.507 204.388 440.995C204.645 440.866 205.029 440.866 205.285 440.866L231.555 443.301C235.656 443.686 233.99 449.452 230.402 449.068L204.132 446.633L207.592 442.148C209.642 450.734 211.564 459.319 213.23 467.905C213.999 471.621 215.281 475.85 214.896 479.822C214.384 484.948 212.205 489.946 210.539 494.687C209.13 498.788 207.592 503.016 205.926 507.117C205.285 508.655 202.723 510.064 201.313 508.783C200.544 508.142 199.775 507.63 198.878 507.117C198.366 506.861 197.725 506.604 197.084 506.476C197.212 506.476 196.059 506.22 196.443 506.476C196.443 506.476 195.803 506.604 196.315 506.476C196.315 506.476 195.931 507.117 195.931 507.245C196.059 506.604 195.675 507.63 195.931 507.245C195.931 507.501 195.803 507.501 195.931 507.117C195.931 507.245 195.931 507.373 195.931 507.501C195.931 507.501 195.675 506.861 195.931 507.373C196.059 507.501 196.187 507.758 195.803 507.245C195.931 507.373 196.059 507.501 196.059 507.63C196.443 508.014 195.803 507.63 196.443 508.014L197.34 508.527C197.981 508.911 198.75 509.167 199.519 509.295C202.979 510.321 206.695 510.577 210.283 510.064C211.052 509.936 211.821 509.808 212.59 509.552C213.102 509.424 211.949 509.68 212.461 509.552C212.59 509.552 212.718 509.424 212.846 509.424C213.23 509.295 212.333 509.808 212.718 509.552C213.102 509.295 212.974 509.295 213.23 509.167C213.487 509.039 214.127 508.398 213.871 508.655C213.615 508.911 214.255 508.142 214.384 508.014C215.024 507.245 215.537 506.604 216.05 505.707C218.228 502.248 220.406 498.659 222.2 494.815C223.866 491.227 225.917 487.895 228.223 484.82C229.377 483.41 231.042 482.513 232.324 481.104C232.068 481.36 232.836 480.335 232.58 480.847C232.58 480.847 232.836 480.079 232.708 480.335C232.58 480.591 232.708 479.95 232.708 480.207C232.708 479.566 232.58 478.925 232.324 478.285C231.683 476.362 230.53 474.568 230.017 472.646C229.505 470.98 229.248 469.186 228.992 467.392C228.223 460.344 227.839 453.425 228.095 446.377C228.095 444.711 229.248 443.301 230.914 442.917C232.324 443.045 234.246 443.814 234.246 445.48Z" fill="#262626"/>
<path d="M159.67 396.657C159.67 396.657 141.73 404.346 140.576 407.805C139.423 411.265 138.398 418.57 133.4 416.391C128.403 414.213 116.357 411.778 110.334 412.419C104.312 413.059 86.7559 406.011 94.0601 402.552C98.0325 400.629 109.694 402.039 109.694 402.039L162.745 361.289L159.67 396.657Z" fill="#FFFFFE"/>
<path d="M157.746 398.707C152.364 400.886 147.238 403.449 142.369 406.524C141.984 406.78 141.984 406.78 141.856 406.909C141.344 407.165 142.369 406.524 142.497 406.268C142.625 406.012 143.138 405.627 143.138 405.627C143.01 406.012 142.881 406.268 142.753 406.652C142.241 408.446 141.728 410.24 140.959 412.034C139.678 414.341 138.012 416.263 135.834 417.673C134.424 418.954 132.245 419.21 130.58 418.313C126.095 416.647 121.481 415.494 116.612 414.853C114.177 414.469 111.742 414.341 109.436 414.341C108.026 414.469 106.489 414.469 105.079 414.341C101.363 413.828 97.9028 412.675 94.5711 410.881C92.9052 409.984 89.189 408.062 90.086 405.627C90.7268 404.474 91.6238 403.449 92.6489 402.68C93.6741 401.655 94.8274 400.886 95.9807 400.245C97.9028 399.476 99.825 399.092 101.875 399.092C105.335 398.964 108.667 399.092 112.127 399.604L110.717 400.373L128.657 386.534L157.234 364.621L163.769 359.623C163.897 359.495 165.307 358.47 165.179 358.983L162.359 389.994L161.975 394.479C161.847 395.504 159.925 396.785 159.284 397.298C159.028 397.554 157.234 398.964 157.234 398.323L160.053 367.312L160.437 362.827L161.847 362.186L143.138 376.666L114.305 398.835C112.383 400.373 110.461 402.039 108.411 403.32C107.514 403.833 106.873 403.577 105.848 403.577C104.054 403.449 102.388 403.32 100.594 403.32C98.6717 403.192 96.7496 403.32 94.9555 403.577C94.1867 403.705 93.4178 403.833 92.7771 404.089C92.5208 404.218 92.1364 404.346 91.8801 404.474L94.9555 401.655C94.9555 401.783 94.8274 401.911 94.8274 401.911C94.9555 402.808 95.4681 403.705 96.1088 404.346C97.2621 405.371 98.5436 406.14 99.9532 406.78C103.029 408.318 106.232 409.343 109.564 409.856C110.974 409.984 112.511 409.984 113.921 409.856C115.971 409.856 118.021 409.856 120.2 410.112C124.813 410.625 129.298 411.522 133.655 413.059C134.424 413.316 135.193 413.572 135.962 413.956C136.731 414.213 137.628 414.341 138.525 414.213C136.346 414.341 135.321 417.801 136.218 416.007C136.346 415.622 136.602 415.366 136.731 414.982C137.115 414.085 137.371 413.188 137.628 412.291C137.884 411.009 138.396 409.728 139.037 408.574C140.319 406.909 141.856 405.499 143.522 404.217C148.52 400.373 154.543 397.682 160.309 395.119L161.719 394.479C162.872 393.966 161.462 395.504 161.334 395.76C160.309 397.041 159.156 398.067 157.746 398.707Z" fill="#262626"/>
<path d="M393.019 397.425C393.019 401.013 393.019 409.471 359.573 409.983C326.128 410.496 285.634 399.219 256.802 357.444C256.802 357.444 267.694 411.905 248.216 446.889C237.452 466.239 204.134 466.879 198.88 448.298C191.192 420.876 194.267 336.3 240.143 316.438C265.003 305.674 341.889 328.484 341.889 328.484L393.019 397.425Z" fill="#FFFFFE"/>
<path d="M396.226 397.169C396.226 401.27 394.047 405.114 390.331 407.036C386.487 409.087 382.258 410.496 377.901 411.009C371.237 412.034 364.446 412.547 357.654 412.547C333.435 412.547 309.344 406.396 288.969 393.197C275.257 384.099 263.468 372.438 254.242 358.854L260.136 357.188C261.033 361.545 261.546 366.03 262.059 370.515C263.212 380.895 263.468 391.275 262.956 401.654C262.187 414.084 260.265 426.642 255.78 438.304C253.729 443.686 251.294 449.068 247.322 453.296C243.734 457.141 239.249 459.96 234.251 461.754C225.153 465.214 214.004 465.214 205.419 460.344C201.446 458.166 198.499 454.834 196.705 450.605C195.552 447.53 194.783 444.198 194.398 440.995C191.579 423.695 192.348 405.371 195.039 388.071C197.986 368.593 203.881 348.346 216.055 332.585C221.693 325.024 228.997 319.001 237.455 314.773C244.887 311.313 253.089 310.672 261.162 310.8C280.896 311.056 300.502 315.157 319.723 319.642C326.387 321.308 333.179 322.974 339.842 324.768C341.124 325.152 342.405 325.409 343.686 325.921C344.583 326.306 345.352 326.946 345.865 327.843L369.572 359.879L394.688 393.838L396.097 395.76C398.404 398.835 392.638 401.27 390.844 398.707L373.544 375.385L346.121 338.223L339.842 329.766L340.995 330.534C339.201 330.022 337.279 329.509 335.357 328.997C333.307 328.484 331.128 327.843 329.078 327.331C326.259 326.562 323.568 325.921 321.261 325.409C307.165 321.949 292.941 319.258 278.589 317.336C275.001 316.951 271.413 316.567 267.825 316.31C264.237 316.054 261.802 315.926 258.214 316.054C255.139 316.054 252.191 316.31 249.116 316.695L248.219 316.823C247.45 316.951 248.475 316.823 247.963 316.823L246.041 317.207C244.887 317.464 243.734 317.848 242.581 318.361C241.812 318.617 242.965 318.104 242.324 318.489L241.171 319.001C240.402 319.386 239.633 319.77 238.864 320.155C237.455 320.924 236.045 321.821 234.636 322.718C231.945 324.512 229.51 326.69 227.203 328.997C222.462 333.866 218.49 339.248 215.286 345.271C208.238 358.213 204.266 372.822 201.959 387.174C199.781 400.757 199.012 414.597 199.909 428.308C200.165 433.562 200.934 438.816 201.959 443.942L202.343 445.48L202.472 446.249C202.6 446.505 202.472 446.12 202.472 446.12L202.6 446.633C202.984 448.043 203.497 449.452 204.137 450.734C205.547 453.168 207.597 455.219 210.032 456.5C212.723 457.91 215.542 458.807 218.618 459.063C221.821 459.319 224.897 459.191 228.1 458.55C234.892 457.269 241.043 453.425 245.015 447.786C250.013 440.482 252.704 431.384 254.498 422.926C256.292 414.213 257.317 405.371 257.445 396.529C257.702 384.227 256.805 371.797 254.754 359.623C254.626 358.982 254.498 358.342 254.37 357.701C253.857 355.01 258.983 354.113 260.265 356.035C268.081 367.568 277.82 377.691 288.969 386.021C298.708 393.069 309.472 398.451 320.877 402.039C331.256 405.242 342.149 407.165 353.041 407.549C359.192 407.805 365.343 407.549 371.494 407.036C376.107 406.652 380.72 405.755 385.205 404.217C385.846 403.961 385.333 404.217 385.205 404.217L385.846 403.961C386.23 403.833 386.615 403.577 386.999 403.448L388.024 402.808C388.665 402.423 387.64 403.192 388.409 402.551C388.793 402.167 389.178 401.783 389.562 401.398C389.946 401.014 389.178 401.911 389.434 401.526C389.562 401.398 389.562 401.27 389.69 401.27L390.075 400.629C390.203 400.373 390.459 399.604 390.075 400.501C390.203 400.373 390.203 400.117 390.331 399.86C390.459 399.604 390.459 399.22 390.587 398.835C390.715 398.451 390.587 398.451 390.587 398.323C390.459 399.22 390.587 398.707 390.587 398.451C390.587 398.194 390.587 397.81 390.587 397.554C389.818 394.35 396.226 393.838 396.226 397.169Z" fill="#262626"/>
<path d="M332.404 327.716C332.404 327.716 362.518 249.163 394.298 254.802C444.53 263.772 442.865 404.602 387.891 409.215C365.465 411.138 332.404 327.716 332.404 327.716Z" fill="#262626"/>
<path d="M329.459 326.689C332.791 318.104 336.635 309.646 340.992 301.573C344.836 294.141 349.065 286.837 353.806 279.917C358.292 273.253 363.417 267.102 369.44 261.72C374.694 257.107 381.101 253.007 388.277 252.238C394.556 251.725 400.707 253.263 405.961 256.595C416.982 263.258 423.389 275.304 427.361 287.093C432.231 301.445 434.025 316.951 433.768 332.072C433.768 347.449 431.077 362.698 425.824 377.178C421.467 388.968 414.291 400.885 403.142 407.292C398.144 410.24 391.737 412.546 385.843 412.034C379.948 411.521 375.078 407.42 371.234 403.448C366.108 397.938 361.495 391.915 357.651 385.508C353.166 378.46 349.193 371.156 345.349 363.723C339.839 352.959 334.841 341.939 330.228 330.662C329.972 330.021 329.715 329.381 329.459 328.868C328.049 325.28 333.944 323.486 335.354 326.818C338.429 334.763 342.017 342.451 345.605 350.268C352.269 364.364 359.701 378.972 368.671 391.146C370.722 393.965 372.9 396.528 375.207 399.091C376.232 400.244 377.385 401.269 378.538 402.295C378.923 402.679 378.666 402.423 378.538 402.295L378.923 402.551L379.82 403.192C380.332 403.576 380.845 403.96 381.357 404.345C381.87 404.729 382.383 404.986 382.895 405.37C383.408 405.754 383.408 405.626 383.151 405.498L384.049 405.883C384.561 406.139 385.074 406.267 385.586 406.395C386.483 406.651 385.33 406.395 385.714 406.395C386.099 406.395 386.227 406.523 386.483 406.523C386.74 406.523 386.868 406.523 387.124 406.523C387.893 406.651 386.355 406.651 387.252 406.523C387.893 406.523 388.534 406.395 389.174 406.395C389.815 406.395 390.584 406.139 391.225 406.011L391.737 405.883C392.506 405.754 391.225 406.011 391.737 405.883L392.89 405.626C394.172 405.242 395.453 404.857 396.607 404.345L397.504 403.96L397.888 403.832C398.273 403.576 397.247 404.217 397.888 403.832C398.529 403.448 399.041 403.192 399.682 402.807C400.964 402.038 402.117 401.269 403.27 400.372C403.783 399.988 404.295 399.604 404.808 399.091C405.32 398.578 404.295 399.604 404.808 399.091L404.936 398.707L405.833 397.938C408.011 395.887 409.934 393.581 411.6 391.146C411.984 390.505 412.368 389.993 412.753 389.352C413.137 388.711 412.368 389.865 412.881 389.224L413.137 388.839C413.394 388.455 413.65 388.071 413.778 387.686C414.547 386.277 415.316 384.867 416.085 383.457C417.622 380.51 418.904 377.435 420.057 374.359C421.21 371.156 422.235 367.952 423.132 364.62C424.926 357.444 426.208 350.14 426.849 342.708C428.258 327.843 427.361 312.85 424.029 298.242C422.62 291.706 420.441 285.427 417.622 279.532C416.341 276.841 414.803 274.15 413.137 271.588C413.009 271.459 412.881 271.331 412.881 271.075L412.24 270.178C411.728 269.537 411.343 269.025 410.831 268.384C409.934 267.359 409.037 266.205 408.011 265.308C407.499 264.796 406.986 264.411 406.602 263.899L406.217 263.643C406.217 263.643 406.73 264.027 406.346 263.771L405.449 263.13C404.423 262.361 403.27 261.592 402.117 260.823C401.604 260.567 401.092 260.183 400.579 259.926C400.067 259.67 401.092 260.183 400.707 259.926L400.195 259.67L399.17 259.286C398.016 258.773 396.863 258.389 395.581 258.004L395.069 257.876C394.556 257.748 395.838 258.004 395.197 257.876L394.3 257.748C393.531 257.62 392.762 257.492 392.122 257.492H391.096C391.993 257.492 390.84 257.492 390.584 257.492C389.815 257.492 389.046 257.62 388.277 257.748L387.38 257.876C387.893 257.748 386.611 258.004 387.38 257.876L386.74 258.004C385.971 258.261 385.33 258.389 384.561 258.645C383.792 258.901 383.151 259.158 382.511 259.542L381.998 259.798C382.511 259.542 381.998 259.798 381.87 259.926L380.589 260.695C374.31 264.411 369.568 269.281 364.955 275.047C359.957 281.326 355.472 288.118 351.628 295.038C345.733 305.418 340.479 316.182 335.994 327.202C335.738 327.843 335.482 328.355 335.226 328.996C334.2 332.2 328.049 330.149 329.459 326.689Z" fill="#262626"/>
<path d="M326.767 325.28C326.767 325.28 265.514 281.711 236.938 286.197C192.215 293.116 132.116 343.733 136.345 372.566C140.573 401.398 166.202 412.419 190.293 394.991C214.384 377.563 272.434 315.029 272.434 315.029L326.767 325.28Z" fill="#FFFFFE"/>
<path d="M323.692 325.921L323.436 325.793L321.898 324.768C319.976 323.486 318.054 322.205 316.26 320.923C310.109 316.823 303.83 312.978 297.422 309.262C289.478 304.521 281.148 300.292 272.691 296.448C264.874 292.732 256.544 289.912 248.087 287.99C246.421 287.606 244.627 287.478 242.833 287.221C242.192 287.221 241.552 287.093 240.911 287.093H239.758H239.117C239.629 287.093 239.245 287.093 238.989 287.093C234.76 287.606 230.659 288.503 226.687 289.784C216.563 292.988 206.824 297.217 197.726 302.599C188.244 308.109 179.145 314.516 170.816 321.692C163.127 328.227 156.079 335.66 150.057 343.733C145.572 350.012 141.215 357.06 139.805 364.749C139.164 368.465 139.421 372.309 140.318 375.897C141.471 381.151 143.649 386.149 146.725 390.634C151.979 397.81 160.436 402.679 169.406 402.167C174.148 401.654 178.761 400.244 182.862 397.81C186.321 395.759 189.653 393.453 192.729 390.89C206.44 379.741 218.998 367.183 231.428 354.625C242.705 343.348 253.725 331.944 264.618 320.282L268.59 316.182C269.359 315.157 270.384 314.388 271.665 314.132C273.588 313.875 275.51 314.003 277.304 314.644L284.864 316.054L325.999 323.871L329.074 324.383C330.355 324.639 330.227 325.536 329.202 326.049C327.793 326.69 326.255 326.946 324.717 326.562L306.393 323.102L277.176 317.591L270.384 316.31L275.382 315.541C270.384 320.923 265.386 326.177 260.389 331.431C249.625 342.708 238.732 353.856 227.584 364.749C217.332 374.744 206.953 384.995 195.676 393.709C188.5 399.219 180.555 403.32 171.457 404.473C163.127 405.755 154.798 403.832 147.75 399.219C140.574 394.094 136.217 386.149 134.167 377.691C133.27 374.487 132.885 371.028 133.142 367.696C133.526 364.749 134.167 361.801 135.32 358.982C138.011 352.319 141.855 346.039 146.469 340.401C151.979 333.609 158.13 327.33 164.793 321.692C179.017 309.262 195.292 299.267 212.847 291.963C220.792 288.631 229.122 286.196 237.707 285.043C244.371 284.402 251.162 285.171 257.698 287.093C272.819 291.194 287.043 298.498 300.626 306.315C310.109 311.697 319.335 317.463 328.305 323.742L329.971 324.896C330.996 325.665 328.177 326.562 327.921 326.69C326.383 326.818 324.845 326.562 323.692 325.921Z" fill="#262626"/>
<path d="M396.609 257.749C396.609 257.749 432.489 250.573 420.828 214.308C415.446 196.368 398.787 184.322 380.078 184.835C363.804 185.475 353.809 192.523 351.374 199.187C349.58 204.184 364.573 230.71 364.573 230.71L396.609 257.749Z" fill="#FFFFFE"/>
<path d="M395.198 256.082C395.711 255.954 396.095 255.826 396.608 255.698L398.146 255.185L399.043 254.929L399.555 254.801C400.196 254.545 399.043 255.057 399.683 254.801C403.271 253.391 406.603 251.597 409.679 249.291C413.523 246.343 416.598 242.371 418.392 237.758C420.699 231.607 420.443 224.687 418.905 218.408C416.983 210.078 412.626 202.518 406.475 196.751C401.093 191.882 394.43 188.678 387.382 187.397C379.437 186.372 371.364 187.653 364.059 190.985C361.112 192.395 358.549 194.317 356.627 196.88C355.858 197.905 355.217 199.058 354.833 200.211C354.961 199.571 354.833 200.468 354.833 200.724C354.833 200.98 354.961 201.877 354.961 201.621C355.858 207.003 358.677 212.385 361.112 217.126C363.162 221.483 365.469 225.84 367.776 230.069L368.16 230.838L367.391 229.941L395.455 253.391L399.427 256.723C400.452 257.62 400.452 258.773 399.171 259.414C397.761 260.055 395.967 259.927 394.686 259.03L365.725 234.682C364.316 233.657 363.034 232.504 361.881 231.222C360.856 229.556 359.959 227.762 359.062 225.968C355.346 218.92 351.117 211.488 349.066 203.671C348.682 202.39 348.426 201.108 348.554 199.699C348.81 198.161 349.451 196.623 350.476 195.342C353.552 191.369 357.652 188.294 362.393 186.5C373.67 182.015 386.228 181.759 397.633 185.859C408.269 189.96 416.983 197.905 421.981 208.156C426.337 217.255 428.388 228.531 424.928 238.27C421.084 249.291 410.063 256.595 399.043 259.286L398.402 259.414C396.992 259.67 395.07 259.67 394.045 258.389C393.02 257.107 393.917 256.339 395.198 256.082Z" fill="#262626"/>
<path d="M374.436 272.228C374.436 272.228 374.948 269.794 375.333 266.59C375.717 263.386 374.948 261.721 365.338 259.158C346.629 254.032 348.038 236.604 348.038 236.604C345.732 236.861 343.297 236.604 341.118 235.835C337.274 234.682 332.917 228.659 343.297 224.559C346.372 223.662 348.679 221.355 349.448 218.28C350.729 213.282 350.857 208.925 353.292 199.955L355.214 203.671C360.34 213.41 369.438 220.33 380.202 222.637L381.099 222.252C382.381 240.192 394.298 248.778 394.298 248.778C394.811 251.853 395.58 254.801 396.605 257.748C396.605 257.748 386.481 276.842 374.436 272.228Z" fill="#FFFFFE"/>
<path d="M371.49 271.843C371.618 271.203 371.746 270.562 371.874 269.793C372.003 269.024 372.131 268.512 372.131 267.871L372.259 266.718C372.515 264.924 372.259 267.102 372.259 266.333C372.259 266.077 372.259 265.821 372.259 265.564C372.259 265.052 372.131 266.077 372.259 265.693C372.259 265.564 372.259 265.436 372.131 265.436C372.003 265.052 372.259 265.18 372.259 265.564C372.259 265.436 372.131 265.308 372.131 265.308C372.131 265.308 371.618 264.796 372.259 265.436C372.131 265.308 372.003 265.18 371.746 265.052L371.362 264.796C371.874 265.18 371.49 264.924 371.362 264.796C370.977 264.539 370.593 264.411 370.08 264.155C368.927 263.642 367.774 263.258 366.492 262.873C363.673 262.105 360.982 261.208 358.291 260.054C351.371 256.594 346.502 249.931 345.22 242.37C344.836 240.576 344.708 238.782 344.836 236.988L347.911 239.679C342.401 240.704 333.431 237.885 333.687 230.965C333.816 226.224 338.172 223.405 342.145 221.867C343.426 221.483 344.708 220.714 345.605 219.689C346.502 218.023 347.014 216.357 347.143 214.435C348.04 209.437 348.937 204.44 350.218 199.57C350.731 197.392 354.447 195.598 355.728 198.161C358.163 202.774 360.726 207.259 364.57 210.847C367.005 213.153 369.824 215.204 372.771 216.613C374.309 217.382 375.975 218.023 377.641 218.664C378.41 218.92 379.179 219.048 379.947 219.304C380.588 219.433 380.588 219.433 379.947 219.561C379.307 219.689 379.307 219.689 379.691 219.561C379.947 219.433 380.076 219.433 380.332 219.304C381.741 218.664 383.279 219.304 383.92 220.714C384.048 221.098 384.176 221.483 384.176 221.739C384.689 228.403 386.995 234.682 390.84 240.192C391.865 241.73 393.146 243.267 394.556 244.549C395.197 245.189 395.837 245.702 396.478 246.215C396.991 246.855 397.375 247.624 397.503 248.393C397.76 249.931 398.144 251.469 398.528 252.878C399.169 254.288 399.554 255.697 399.81 257.235C399.81 258.004 399.554 258.645 399.169 259.285C397.119 263.002 394.556 266.461 391.48 269.409C386.483 274.15 380.076 277.354 373.156 274.919C371.618 274.406 371.362 272.228 372.003 270.946C372.771 269.409 374.565 268.768 376.103 269.281C380.973 271.075 385.458 267.615 388.661 264.155C389.558 263.258 390.327 262.233 391.096 261.336C391.48 260.823 391.865 260.311 392.121 259.926L392.249 259.798C392.377 259.542 392.506 259.285 392.762 259.157C393.274 258.388 393.915 257.491 394.3 256.594L394.043 258.901C392.89 255.954 392.121 253.006 391.737 249.931L392.506 251.212C389.943 249.162 387.636 246.727 385.842 244.036C381.485 237.757 378.794 230.325 378.282 222.764L382.126 225.327C380.716 225.968 379.05 225.968 377.513 225.327C371.618 223.789 366.236 220.842 361.623 216.87C356.882 212.641 353.678 207.515 350.859 202.005L356.369 200.595C355.344 204.696 354.447 208.925 353.806 213.153C353.165 216.87 352.653 220.714 350.218 223.789C348.937 225.327 347.271 226.48 345.349 227.249C344.452 227.634 343.555 228.018 342.658 228.403C342.273 228.531 341.889 228.787 341.504 229.043C341.248 229.171 340.992 229.428 340.735 229.556C340.607 229.684 339.966 230.325 340.095 230.197C340.223 230.068 339.838 230.581 339.838 230.709C339.966 230.197 339.582 231.094 339.838 230.709C339.71 231.222 339.838 230.581 339.838 230.581C339.838 230.581 339.838 231.478 339.838 231.094C339.838 230.709 339.966 231.478 339.966 231.606C339.838 231.094 339.966 231.478 340.095 231.734C340.223 231.991 340.607 232.503 340.351 232.247C340.095 231.991 340.607 232.503 340.735 232.631C340.863 232.759 341.632 233.272 340.992 232.888C341.248 233.016 341.504 233.144 341.76 233.272C342.658 233.657 343.555 233.785 344.58 233.913C345.605 234.169 346.758 234.169 347.783 234.041C349.321 233.913 350.602 234.938 350.859 236.348C350.859 236.476 350.859 236.604 350.859 236.732C350.859 237.116 350.859 237.501 350.859 237.757C350.859 238.013 350.859 238.526 350.859 239.039C350.859 239.551 350.859 239.551 350.859 239.679C350.859 239.807 350.987 240.833 350.859 240.064C351.115 241.473 351.371 242.755 351.756 244.036C351.884 244.421 352.012 244.805 352.14 245.189C352.14 245.318 352.396 245.83 352.14 245.318L352.396 245.83C352.781 246.599 353.165 247.368 353.678 248.137C355.985 251.469 359.188 254.16 362.904 255.569C367.133 257.363 372.9 257.619 376.231 261.079C379.307 264.155 377.769 269.281 376.872 272.997C375.975 276.713 370.593 275.816 371.49 271.843Z" fill="#262626"/>
<path d="M355.214 217.511C350.985 217.382 347.397 214.82 345.731 210.975C343.937 206.49 345.86 200.98 348.935 197.52C350.088 196.367 351.498 195.726 353.164 195.726C354.445 195.726 354.701 196.623 353.933 197.52C351.626 200.339 350.345 204.952 351.754 208.412C352.907 211.36 355.598 213.41 358.802 213.794C360.084 213.923 360.468 214.691 359.571 215.588C358.29 216.998 356.752 217.511 355.214 217.511Z" fill="#262626"/>
<path d="M378.284 230.71C378.284 230.71 378.284 219.305 386.741 222.893C395.199 226.482 390.329 239.04 383.538 241.731" fill="#FFFFFE"/>
<path d="M375.464 231.222C375.464 226.352 378.027 220.714 383.281 219.689C387.125 219.048 390.969 220.714 393.02 224.046C394.814 227.249 394.301 231.094 393.02 234.426C391.354 238.654 388.15 241.986 384.05 243.908C382.896 244.421 380.974 244.421 380.718 242.883C380.462 241.345 381.999 239.936 383.153 239.423L383.665 239.167C384.178 238.911 383.409 239.295 383.409 239.295C383.409 239.295 384.05 238.782 384.306 238.782C384.562 238.782 384.69 238.27 384.178 238.911C384.306 238.782 384.434 238.654 384.562 238.654C384.818 238.398 385.075 238.142 385.459 237.885C385.844 237.629 385.715 237.885 385.459 238.014C385.587 238.014 385.716 237.757 385.844 237.629C386.1 237.373 386.356 236.988 386.484 236.732L386.997 235.835C386.997 235.963 386.741 236.348 386.997 235.963L387.253 235.323C387.51 234.682 387.766 234.041 388.022 233.272C388.15 232.76 388.022 233.144 388.022 233.272C388.022 233.144 388.15 232.888 388.15 232.632C388.15 232.375 388.278 231.863 388.278 231.478C388.278 231.094 388.278 230.838 388.278 230.453V229.94C388.15 229.3 388.022 228.659 387.894 228.018C388.022 228.531 387.766 227.762 387.638 227.506C387.51 227.249 387.381 226.993 387.125 226.737C386.997 226.609 386.997 226.481 386.869 226.352C387.253 226.737 386.741 226.224 386.869 226.352C386.612 226.096 386.228 225.84 385.972 225.584C385.459 225.199 384.947 224.943 384.306 224.815C383.921 224.687 383.665 224.687 383.281 224.558C383.921 224.687 383.409 224.558 383.153 224.558H382.64C382.127 224.558 383.153 224.43 382.768 224.558C382.64 224.558 382.512 224.558 382.384 224.687C381.871 224.815 383.153 224.43 382.64 224.558C382.512 224.558 382.512 224.687 382.384 224.687C382.768 224.687 383.153 224.302 382.64 224.558C382.512 224.558 382.512 224.687 382.384 224.687C382.896 224.43 383.024 224.174 382.64 224.558C382.256 224.943 382.512 224.943 382.768 224.43C382.64 224.558 382.512 224.815 382.384 224.943C382.256 225.071 382.256 225.199 382.127 225.327C381.999 225.455 382.384 224.687 382.256 225.071C382.127 225.455 381.871 225.968 381.743 226.481C381.615 226.993 381.743 226.352 381.743 226.352L381.615 226.737C381.615 226.993 381.487 227.249 381.487 227.506C381.487 227.762 381.359 228.403 381.23 228.787C381.102 229.172 381.102 229.684 381.102 230.069C381.102 231.606 379.18 232.888 377.771 233.144C376.361 233.4 375.592 232.632 375.464 231.222Z" fill="#262626"/>
<path d="M365.854 240.577H366.239C365.854 240.577 365.47 240.705 365.085 240.705C364.316 240.833 363.548 241.089 362.779 241.346L362.266 241.474H362.138C362.01 241.474 361.754 241.602 362.138 241.474C362.394 241.346 362.266 241.474 362.138 241.474C362.522 241.217 362.907 240.833 363.163 240.449L363.035 240.577C363.932 239.167 364.06 237.373 363.291 235.964C363.163 235.707 366.11 234.938 366.367 234.81C367.136 234.682 367.905 234.426 368.545 234.426C368.673 234.426 369.442 234.298 369.57 234.426C370.724 236.476 370.083 239.039 368.033 240.32C367.904 240.449 367.648 240.577 367.392 240.577C366.11 241.089 364.701 241.474 363.291 241.73C362.394 241.986 361.497 242.114 360.6 242.114C360.472 242.114 359.96 242.115 360.216 241.858C360.344 241.73 360.6 241.73 360.728 241.602C360.985 241.474 361.241 241.346 361.625 241.346C362.394 241.089 363.163 240.833 364.06 240.705C364.573 240.705 365.213 240.577 365.854 240.577Z" fill="#262626"/>
<path d="M356.497 221.612C355.472 221.996 354.96 223.149 355.216 224.175C355.216 224.303 355.344 224.431 355.344 224.431C356.369 226.353 358.804 225.072 358.419 223.149C358.419 222.252 357.651 221.484 356.625 221.612C356.754 221.612 356.625 221.612 356.497 221.612Z" fill="#262626"/>
<path d="M368.028 199.571C372.001 205.722 378.28 210.079 385.456 211.873C389.3 212.898 393.401 213.283 397.373 213.154C401.218 213.026 405.062 212.642 408.266 210.463C410.829 208.798 415.698 212.514 412.623 214.564C408.778 217.127 404.037 217.896 399.552 218.024C394.426 218.28 389.3 217.768 384.303 216.486C375.461 214.308 367.644 208.798 362.646 201.237C362.006 200.34 362.262 199.059 363.159 198.418C363.415 198.29 363.543 198.162 363.8 198.162C365.337 197.649 367.131 198.29 368.028 199.571Z" fill="#262626"/>
<path d="M433.898 207.387C433.001 210.975 437.358 213.794 439.921 215.46C440.433 215.845 442.099 217.126 442.868 216.87L442.099 216.742C441.202 216.742 441.202 216.613 442.099 216.357C442.612 216.101 442.996 215.845 443.509 215.588C445.047 214.435 446.584 213.154 447.866 211.744C450.172 209.309 452.094 205.593 450.172 202.518C449.788 201.877 449.147 201.621 448.635 201.108C450.3 202.902 452.863 200.724 450.685 201.621C450.429 201.749 450.172 201.877 449.916 202.005C448.378 203.03 447.225 204.44 446.584 206.106C443.765 213.154 447.738 220.97 454.273 224.174C456.964 225.84 460.296 225.84 462.987 224.302C464.524 223.533 465.934 222.252 465.678 220.33C465.165 218.536 463.884 216.998 462.218 216.229C460.936 215.46 463.884 215.845 463.243 216.101C462.602 216.357 462.218 216.485 461.833 216.742C461.065 217.254 460.424 218.023 460.039 218.792C459.271 220.586 459.655 222.636 461.065 224.174C463.115 226.865 467.344 229.556 470.547 229.556C471.701 229.556 473.879 229.428 474.904 230.197C475.929 230.966 474.263 230.838 473.623 230.966C467.728 231.094 461.577 229.812 456.964 226.096C455.17 224.687 453.376 222.636 453.248 220.202C453.376 217.895 454.914 215.973 457.092 215.332C460.168 214.563 463.243 214.691 466.318 215.588C468.625 216.229 470.675 217.639 471.829 219.817C474.648 225.712 464.14 227.121 460.552 226.993C455.042 226.865 449.275 225.584 444.918 221.996C440.946 218.792 438.767 213.666 439.536 208.54C439.793 206.106 440.946 203.799 442.74 202.133C444.79 200.211 447.481 199.955 450.172 200.339C452.607 200.595 455.298 201.108 456.58 203.415C457.605 205.465 457.477 208.028 456.195 209.95C454.529 212.513 452.479 214.691 450.044 216.357C447.097 218.536 443.381 218.408 439.921 217.767C436.717 217.126 433.77 215.588 431.335 213.538C429.285 212 426.85 209.694 427.619 206.875C427.875 205.721 434.026 206.875 433.898 207.387Z" fill="#262626"/>
<path d="M289.351 417.544C289.351 417.544 282.559 360.52 273.717 358.726C264.875 356.932 229.508 346.168 224.51 366.415C219.512 386.662 250.011 400.117 250.011 400.117C250.011 400.117 259.237 457.525 272.564 466.111C285.378 474.312 299.218 463.42 299.218 463.42" fill="#F5EE30"/>
<path d="M286.274 418.056C285.633 412.674 284.864 407.164 283.967 401.91C282.558 392.043 280.507 382.176 277.816 372.565C277.304 370.643 276.663 368.593 275.894 366.671L275.638 366.03C275.894 366.671 275.638 366.03 275.51 365.902C275.382 365.517 275.125 365.133 274.997 364.748C274.613 364.108 274.357 363.339 273.844 362.698L273.331 361.929C272.947 361.417 273.844 362.442 273.459 362.057L273.331 361.801C273.075 361.673 272.947 361.417 272.819 361.289C272.562 360.904 273.46 361.801 273.075 361.417C272.947 361.289 272.819 361.289 272.691 361.16C273.844 361.673 272.434 361.16 271.922 361.16C271.153 361.032 270.384 360.776 269.487 360.648C267.565 360.135 265.643 359.751 263.721 359.366C261.03 358.726 259.62 358.469 256.929 358.085C254.238 357.7 251.675 357.316 248.984 357.188C247.702 357.06 246.549 357.06 245.396 357.06C244.114 357.06 242.961 357.06 241.68 357.188C239.501 357.316 237.451 357.829 235.401 358.469C234.888 358.726 234.376 358.854 233.863 359.11C233.607 359.238 233.35 359.366 233.094 359.494C233.607 359.238 232.838 359.623 232.838 359.623C232.453 359.879 232.069 360.135 231.684 360.392L231.044 360.904C230.787 361.16 230.787 361.16 231.044 360.904L230.659 361.289C227.584 364.877 226.559 369.746 227.712 374.359C229.89 383.457 238.476 390.121 246.293 394.606C248.087 395.631 250.137 396.528 251.931 397.553C253.725 398.578 253.597 401.398 253.982 403.192C255.519 412.034 257.441 420.747 259.62 429.333C262.183 439.2 264.874 449.195 269.871 457.781C270.256 458.55 270.768 459.319 271.281 460.088C271.537 460.472 271.794 460.857 272.05 461.241C271.537 460.728 272.434 461.625 272.562 461.882C273.075 462.394 273.716 463.035 274.228 463.419C273.459 462.779 274.997 463.932 275.254 464.06C276.022 464.573 276.919 464.957 277.688 465.213C280.764 466.239 284.095 466.367 287.299 465.598C288.581 465.342 289.734 464.957 290.887 464.445C291.528 464.188 292.169 463.932 292.809 463.676L293.706 463.291C293.834 463.291 294.86 462.651 294.347 463.035C295.372 462.522 296.269 461.882 297.166 461.241C299.985 459.063 304.599 462.907 301.395 465.342C295.372 470.083 286.786 472.774 279.226 471.493C274.741 470.852 270.64 468.801 267.565 465.47C265.515 463.035 263.849 460.344 262.439 457.525C259.107 450.349 256.288 442.788 254.366 435.1C252.316 427.667 250.522 420.107 248.984 412.546C248.215 408.574 247.446 404.473 246.677 400.372L248.087 402.167C244.883 400.757 241.808 398.963 238.989 397.041C233.222 393.196 227.584 388.455 224.124 382.432C220.664 376.41 219.254 368.208 222.843 361.673C226.174 355.522 232.71 352.703 239.501 351.806C246.677 350.909 254.11 351.806 261.158 353.087C264.105 353.6 266.924 354.241 269.871 354.881C271.922 355.138 273.972 355.65 276.022 356.419C279.867 358.341 281.533 363.595 282.942 367.439C284.864 373.462 286.53 379.613 287.684 385.892C289.734 396.016 291.4 406.139 292.553 416.391C292.553 416.519 292.553 416.775 292.681 416.903C292.937 418.441 291.912 419.85 290.246 420.107C290.246 420.107 290.246 420.107 290.118 420.107C288.709 420.491 286.53 419.722 286.274 418.056Z" fill="#F5EE30"/>
<path d="M446.837 342.451L442.224 364.877L434.92 400.629L433.254 408.83C432.613 411.906 426.462 412.162 427.231 408.574L431.844 386.149L439.149 350.396L440.814 342.195C441.455 339.248 447.606 338.863 446.837 342.451Z" fill="#FFFFFE"/>
<path d="M288.068 416.262C287.171 409.983 286.146 403.832 285.121 397.553C283.327 387.43 281.661 377.05 278.458 367.183C277.945 365.389 277.304 363.595 276.407 361.929C276.151 361.417 275.767 360.904 275.382 360.391C274.998 360.007 274.998 359.879 274.485 359.751C273.46 359.494 275.51 357.7 275.767 357.572C276.664 356.932 278.201 355.778 279.483 356.035C281.661 356.419 282.686 360.391 283.199 362.057C284.608 366.542 285.89 371.027 286.787 375.641C288.965 385.636 290.759 395.759 292.297 405.883C292.682 408.189 292.938 410.496 293.322 412.802C293.707 414.725 288.068 416.903 288.068 416.262Z" fill="#FFFFFE"/>
<path d="M458.63 437.406C457.862 436.637 457.093 435.868 456.324 435.099L455.555 434.331C455.427 434.331 455.042 433.818 455.299 434.074L454.914 433.818C454.274 433.177 453.505 432.665 452.864 432.024C449.02 428.949 444.791 426.258 440.178 424.207C425.569 417.287 409.551 415.237 393.661 413.956C378.925 412.802 364.06 412.418 349.195 412.674C341.378 412.802 333.562 413.187 325.873 413.956C322.285 414.34 318.569 414.725 314.981 415.237C313.187 415.493 311.521 415.75 309.855 416.006C308.189 416.262 306.651 416.519 305.37 416.903C302.295 417.544 299.219 418.313 296.144 419.21C294.734 419.594 293.453 420.107 292.043 420.619L291.018 421.004L290.762 421.132C290.121 421.388 289.48 421.644 288.839 422.029C287.686 422.541 286.661 423.182 285.508 423.695L284.739 424.207L284.226 424.464C284.482 424.207 283.842 424.72 283.714 424.848L282.945 425.361C282.56 425.617 282.176 426.001 281.791 426.258C281.407 426.514 281.407 426.642 281.151 426.77C280.894 426.898 280.382 427.411 280.894 427.026C280.254 427.667 279.613 428.436 278.972 429.333C278.844 429.461 278.716 429.717 278.588 429.974C278.46 430.23 278.716 429.717 278.46 430.23C278.203 430.743 278.075 430.999 277.819 431.511C276.666 434.074 270.515 434.202 271.924 430.871C276.153 421.132 288.327 416.775 297.809 414.212C312.29 410.368 327.411 409.086 342.404 408.446C358.294 407.805 374.183 408.061 390.073 409.086C406.604 410.111 423.519 411.777 439.024 418.056C447.994 421.516 456.196 426.77 462.987 433.562L464.012 434.587C465.166 435.74 463.628 437.278 462.731 437.919C461.578 438.688 459.912 438.559 458.63 437.406Z" fill="#FFFFFE"/>
<path d="M320.363 283.12C317.031 278.122 314.724 272.484 313.571 266.589C311.777 256.85 305.754 258.901 307.164 267.999C308.573 277.097 309.47 278.763 309.47 278.763L320.363 283.12Z" fill="#FFFFFE"/>
<path d="M317.288 282.993C316.134 281.327 314.981 279.405 314.212 277.61C313.315 275.688 312.418 273.638 311.777 271.588C311.009 269.281 310.624 266.718 309.983 264.412C309.727 262.874 308.83 261.464 307.677 260.439C307.549 260.311 307.805 260.439 307.805 260.439L307.677 260.311C308.574 260.567 309.471 260.695 310.368 260.695L312.29 260.824H312.162C312.29 260.824 312.034 260.824 312.162 260.824L311.777 260.952C311.393 261.336 311.137 261.721 310.88 262.233C310.24 263.899 310.111 265.693 310.368 267.359C310.624 269.666 311.137 271.972 311.521 274.151C311.777 275.816 312.162 277.482 312.803 279.02L312.418 278.636L323.438 282.993C324.72 283.505 322.413 283.633 322.157 283.633C320.747 283.633 319.21 283.377 317.8 282.864L308.574 279.148C307.933 278.892 306.78 278.636 306.395 277.995C306.011 277.098 305.755 276.073 305.626 275.048C304.858 271.972 304.345 268.897 303.961 265.821C303.832 263.899 303.832 261.08 305.498 259.798C306.652 258.901 308.574 259.158 309.983 259.286C311.649 259.286 313.187 259.927 314.468 260.952C316.647 263.13 316.775 266.59 317.544 269.281C318.697 274.151 320.747 278.892 323.695 282.993C324.207 283.633 321.644 283.505 321.388 283.505C320.619 283.505 319.722 283.377 318.953 283.121C318.313 283.377 317.544 283.249 317.288 282.993Z" fill="#262626"/>
<path d="M317.8 300.549C317.8 300.549 270.771 241.603 267.055 241.603C263.339 241.603 238.479 246.088 237.966 249.419C237.454 252.751 296.4 312.466 298.963 312.466C301.526 312.466 318.313 307.981 317.8 300.549Z" fill="#262626"/>
<path d="M315.236 301.317C306.907 290.938 298.577 280.686 290.12 270.563C284.481 263.771 278.715 256.98 272.82 250.316C271.667 249.035 270.642 247.881 269.489 246.728C268.976 246.215 268.592 245.831 268.079 245.318L267.566 244.806L267.31 244.55C267.695 244.934 266.798 244.037 267.31 244.55C266.926 244.165 266.669 244.037 266.413 243.781L266.029 243.524C265.516 243.14 266.285 243.653 266.285 243.653C265.772 243.396 266.926 243.909 266.798 243.781C268.079 244.165 267.823 243.909 267.566 243.909C268.848 244.037 268.335 243.909 268.079 243.909C267.438 244.037 266.798 244.037 266.029 244.037C261.544 244.55 257.187 245.447 252.83 246.472C250.395 246.984 247.96 247.625 245.654 248.394C244.116 248.778 242.706 249.419 241.425 250.188C241.297 250.316 241.553 249.804 241.297 250.316C241.297 250.188 241.425 249.932 241.425 249.804C241.553 249.932 241.553 250.06 241.681 250.188C241.938 250.701 241.425 249.804 241.681 250.06L242.45 251.213C244.116 253.392 245.91 255.314 247.704 257.364C259.878 270.947 272.692 284.018 285.635 296.832C288.454 299.523 291.273 302.343 294.092 305.034L294.861 305.803L295.374 306.187C295.886 306.7 294.861 305.803 295.374 306.187L296.911 307.597C297.68 308.365 298.577 309.006 299.346 309.775C299.474 309.903 300.884 311.056 300.884 311.056L298.449 310.288C298.705 310.288 298.834 310.159 299.09 310.159C299.731 310.031 298.449 310.288 299.09 310.159L299.731 310.031C304.088 309.006 308.957 307.34 312.545 304.393C313.955 303.368 314.852 301.83 314.98 300.164C314.852 297.089 321.131 298.242 321.259 300.805C321.387 306.187 315.749 309.391 311.52 311.185C309.213 312.21 306.65 313.107 304.216 313.747C302.422 314.388 300.499 314.516 298.705 314.26C296.911 313.491 295.374 312.466 294.092 311.056C291.658 308.878 289.223 306.571 286.916 304.393C273.077 291.194 259.75 277.483 246.679 263.387C244.244 260.696 241.809 258.005 239.503 255.314C237.965 253.776 236.684 251.982 235.659 250.188C234.121 247.112 238.221 245.703 240.4 244.806C245.269 243.14 250.139 241.859 255.136 241.09C257.699 240.577 260.134 240.193 262.697 239.808C264.235 239.552 265.644 239.424 267.182 239.424C269.745 239.68 271.667 241.73 273.333 243.396C278.971 249.035 284.097 255.186 289.223 261.208C299.731 273.638 309.982 286.196 320.106 299.011L320.618 299.78C321.259 300.42 321.259 301.446 320.618 302.086C320.362 302.343 320.106 302.471 319.721 302.599C317.927 302.983 316.261 302.471 315.236 301.317Z" fill="#262626"/>
<path d="M303.062 307.597L247.063 250.316C247.063 250.316 262.953 245.447 265.901 245.831C268.848 246.216 314.467 298.114 313.827 300.292C313.186 302.471 306.779 307.597 303.062 307.597Z" fill="#FFFFFE"/>
<path d="M301.013 309.262L282.048 289.784L251.934 259.03L245.014 251.982C243.861 250.828 243.604 248.137 245.527 247.625C248.987 246.6 252.575 245.575 256.034 244.549C258.213 244.037 260.391 243.396 262.698 243.012C264.364 242.627 266.03 242.755 267.567 243.396C269.233 244.549 270.643 245.831 271.924 247.24C274.359 249.675 276.794 252.238 279.1 254.801C290.89 267.487 302.551 280.558 313.187 294.269C314.34 295.807 316.134 297.601 316.647 299.523C317.416 302.086 314.596 304.521 312.802 305.93C310.368 307.981 307.164 310.159 303.96 310.287C302.295 310.415 300.629 309.518 300.116 307.853C299.732 306.571 300.372 305.162 301.654 304.777C301.782 304.777 302.038 304.649 302.166 304.649C304.345 304.521 306.651 302.983 308.445 301.445C309.214 300.805 309.983 300.164 310.496 299.395C310.624 299.139 310.752 299.011 310.88 298.754C310.752 298.754 310.624 299.651 310.624 299.78C310.624 299.908 310.88 300.805 310.752 300.292C311.008 300.805 311.008 301.189 310.752 300.292C310.496 299.78 310.368 299.651 310.111 299.395C309.471 298.498 308.83 297.729 308.189 296.832C308.061 296.704 307.42 295.807 308.061 296.576L307.42 295.807C306.908 295.166 306.395 294.526 305.883 293.885C304.729 292.475 303.576 291.194 302.551 289.784C299.86 286.581 297.169 283.377 294.35 280.173C288.583 273.51 282.817 266.975 276.794 260.439C274.359 257.876 271.924 255.185 269.49 252.622C268.593 251.725 267.696 250.828 266.799 249.931C266.414 249.547 265.389 248.137 264.876 248.137C265.005 248.137 265.773 248.65 265.133 248.266C265.005 248.266 264.876 248.137 264.876 248.137C265.005 248.394 265.773 248.522 266.158 248.522C265.389 248.394 266.67 248.394 265.902 248.522C263.723 248.906 261.545 249.291 259.238 249.931C255.65 250.828 252.446 251.725 248.858 252.879L249.371 248.522L268.336 267.872L298.45 298.626L305.37 305.674C306.523 306.699 306.651 308.493 305.626 309.518L305.498 309.647C303.96 310.672 302.166 310.544 301.013 309.262Z" fill="#FFFFFE"/>
<path d="M309.855 286.068C309.855 286.068 299.347 280.302 298.066 284.658C296.784 289.015 310.496 304.265 327.667 304.136C327.667 304.136 337.15 300.676 336.765 296.063C336.765 296.063 320.619 279.533 313.443 276.073C301.91 270.434 300.244 273.382 300.244 273.382" fill="#FFFFFE"/>
<path d="M308.057 288.631C305.75 287.35 303.316 286.325 300.753 285.812C299.984 285.684 299.215 285.556 298.446 285.684C298.062 285.684 297.805 285.94 297.421 285.94C295.627 286.196 299.727 280.558 299.856 282.48C299.984 283.505 300.24 284.659 300.753 285.556C302.675 288.759 305.238 291.707 308.313 293.885C312.286 296.961 316.771 299.139 321.512 300.42C322.665 300.677 323.947 300.933 325.1 301.061C326.381 301.317 327.791 301.446 329.201 301.317C330.226 300.933 331.251 300.549 332.276 299.908C333.045 299.523 333.814 299.139 334.455 298.626C334.839 298.37 335.223 298.114 335.48 297.858C335.736 297.601 335.736 297.601 335.992 297.473C336.249 297.345 336.249 297.217 336.12 297.473L334.583 299.652C334.455 299.395 334.839 298.883 334.711 298.498C334.583 298.114 334.198 297.986 334.07 297.858C328.944 292.475 323.434 287.478 317.796 282.865C314.08 279.789 309.723 277.483 305.11 275.945C303.444 275.304 301.778 275.048 300.112 275.176C299.727 275.176 299.343 275.304 298.959 275.432L298.702 275.56C299.087 275.689 302.034 270.819 301.265 272.101C300.625 273.126 299.727 274.92 298.574 275.56C297.421 276.201 298.574 274.663 298.702 274.279C300.112 271.844 301.522 269.666 304.469 269.794C306.647 269.922 308.826 270.563 310.876 271.46C313.311 272.357 315.617 273.51 317.796 275.048C324.972 279.917 331.251 286.325 337.402 292.475C338.171 293.244 338.427 293.373 338.171 294.526C337.53 297.345 335.095 300.292 333.045 302.214C331.379 303.624 329.585 304.905 327.663 305.802C326.381 306.443 324.972 306.828 323.562 306.7C317.54 306.315 311.645 304.265 306.647 300.805C302.803 298.37 299.471 295.038 297.036 291.066C296.268 289.913 295.883 288.503 295.883 287.093C296.524 285.299 297.421 283.634 298.83 282.224C299.471 281.327 300.368 280.686 301.265 280.43C304.469 279.789 308.569 281.84 311.389 283.377C312.029 283.505 308.698 289.016 308.057 288.631Z" fill="#262626"/>
<path d="M291.911 282.864C288.195 282.736 284.735 281.71 281.531 279.788C278.584 278.122 275.508 275.559 274.227 272.228C273.714 270.946 273.586 269.409 274.099 268.127C274.611 266.589 275.637 265.692 275.124 263.898C274.74 262.617 273.971 261.592 273.074 260.695C272.946 260.695 272.689 260.31 273.074 260.695C272.433 260.695 271.92 260.951 271.408 261.207C270.511 261.848 270.126 263.001 270.767 264.027C270.895 264.155 271.023 264.283 271.152 264.411C270.895 264.155 271.28 264.411 271.28 264.411L271.92 264.667C272.689 264.924 273.458 264.924 274.355 264.667C275.765 264.539 277.174 264.924 278.199 265.949C278.456 266.205 280.506 268.127 279.353 268.383C274.996 269.537 269.87 267.23 266.923 264.027C265.641 262.617 264.488 260.695 265.257 258.773C266.026 257.363 267.563 256.466 269.101 256.594C273.586 256.466 277.943 260.31 279.993 264.027C281.019 265.564 281.147 267.486 280.506 269.28C280.122 270.049 279.737 270.818 279.481 271.587C279.353 272.356 279.481 273.253 279.737 274.022C279.993 274.791 280.506 275.431 281.019 275.944C281.531 276.457 282.172 276.841 282.813 277.225C283.197 277.482 283.453 277.61 283.838 277.738C284.222 277.866 284.607 277.994 284.991 278.122C285.888 278.379 286.785 278.507 287.682 278.507C289.22 278.635 290.629 279.276 291.655 280.301C292.295 281.198 293.32 282.864 291.911 282.864Z" fill="#F5EE30"/>
<path d="M346.631 294.397L356.754 310.159L360.214 307.468L349.45 292.731L346.631 294.397Z" fill="#262626"/>
<path d="M349.319 295.294L358.161 309.006L359.442 310.928L354.188 308.493L357.648 305.93V306.699L348.294 293.756L347.012 291.834L352.266 294.269L349.319 296.063C348.934 296.319 348.037 295.935 347.781 295.935C347.012 295.679 346.243 295.294 345.474 294.91C345.09 294.653 343.04 293.372 343.937 292.859L346.756 291.065C347.397 290.681 348.934 291.45 349.447 291.706C350.472 292.091 351.369 292.731 352.138 293.5L361.492 306.443L362.774 308.365C363.03 308.749 363.03 308.877 362.774 309.134L359.314 311.697C358.801 312.081 357.007 311.312 356.623 311.056C355.598 310.671 354.701 310.031 353.932 309.262L345.09 295.55L343.809 293.628C343.04 292.475 344.834 292.859 345.346 292.988C346.884 293.244 348.294 294.141 349.319 295.294Z" fill="#262626"/>
<path d="M339.584 300.292C340.097 293.628 326.001 273.125 318.825 272.356C311.648 271.588 308.957 282.224 308.957 282.224C308.957 282.224 294.733 287.093 301.141 294.269C301.141 294.269 293.452 302.47 302.935 303.367C302.935 303.367 302.55 312.081 318.44 312.081C318.44 312.081 349.707 376.025 369.442 374.872C389.176 373.718 388.535 342.836 385.203 334.378C381.872 325.921 339.584 300.292 339.584 300.292Z" fill="#FFFFFE"/>
<path d="M336.376 300.164C336.376 298.37 335.992 296.576 335.095 294.91C334.07 292.603 332.917 290.297 331.507 288.118C328.688 283.633 325.356 279.148 321.255 276.073C320.999 275.945 320.743 275.688 320.615 275.56C319.846 275.048 321.127 275.816 320.358 275.432C319.974 275.176 319.59 274.919 319.077 274.791C319.846 275.176 319.077 274.791 318.692 274.663C319.718 274.919 318.693 274.663 318.436 274.663C318.949 274.663 317.539 274.791 318.052 274.663C316.13 275.176 314.72 277.098 313.695 278.892C313.054 280.173 312.542 281.455 312.157 282.736C311.645 284.146 310.363 284.402 309.21 284.915C308.441 285.299 307.544 285.684 306.775 286.068C305.75 286.709 304.725 287.349 303.956 288.246C303.315 288.887 302.803 289.656 302.674 290.553C302.674 290.937 302.674 290.04 302.674 290.809C302.674 291.066 302.674 291.322 302.803 291.45C303.059 292.091 303.315 292.603 303.828 293.116C304.469 293.757 304.597 294.782 304.084 295.551C303.187 296.448 302.418 297.601 301.906 298.754C301.777 299.139 301.649 299.651 301.521 300.036C301.393 300.548 301.521 299.651 301.521 300.292C301.521 300.42 301.521 301.061 301.521 300.42C301.521 300.548 301.906 301.061 301.521 300.548C301.777 301.061 301.265 300.42 301.649 300.676C301.137 300.292 302.034 300.676 301.521 300.548C301.906 300.676 302.29 300.805 302.674 300.805C303.956 300.933 306.134 301.83 306.006 303.367C306.006 303.752 306.006 304.264 306.134 304.649C306.006 303.752 306.263 305.033 306.391 305.29C306.391 305.418 306.519 305.546 306.519 305.674C306.775 306.058 306.263 305.29 306.519 305.546C306.775 305.802 306.903 306.058 307.031 306.315C307.16 306.571 307.8 307.084 307.288 306.571C307.544 306.827 307.928 307.084 308.185 307.34C308.825 307.852 307.928 307.212 308.313 307.34C308.569 307.468 308.697 307.596 308.954 307.724C309.338 307.981 309.851 308.237 310.363 308.365C309.979 308.237 310.491 308.365 310.619 308.493L311.516 308.749C312.029 308.878 312.542 309.006 313.054 309.134C314.72 309.39 316.386 309.518 318.052 309.518C319.461 309.518 320.615 310.287 321.255 311.441C325.228 319.642 329.841 327.971 334.582 335.66C338.683 342.451 343.168 349.115 347.909 355.522C350.088 358.469 352.523 361.289 355.085 363.851C356.111 365.005 357.008 365.902 358.417 367.055C359.57 368.08 360.596 368.977 361.877 369.746C362.005 369.874 362.902 370.387 362.518 370.259C362.774 370.387 362.902 370.515 363.159 370.643C363.671 370.899 364.312 371.284 364.953 371.54C365.209 371.668 365.465 371.796 365.721 371.925C365.978 372.053 365.081 371.796 365.978 371.925C366.234 372.053 366.49 372.053 366.875 372.181C367.259 372.309 367.9 372.437 367.387 372.309C366.875 372.181 367.772 372.309 367.9 372.309C368.156 372.309 368.412 372.309 368.669 372.309C369.181 372.309 368.412 372.309 368.412 372.309H369.053C369.566 372.309 370.206 372.181 370.719 372.053C372.257 371.796 373.666 371.156 374.948 370.387C380.714 366.543 382.765 358.982 383.533 352.19C383.918 348.73 383.918 345.271 383.662 341.811C383.533 340.401 383.277 338.992 383.021 337.582C382.893 337.326 382.893 336.941 382.765 336.557C382.636 335.916 382.893 336.813 382.636 336.172C382.508 335.66 382.38 335.147 382.124 334.635C382.124 334.506 381.996 334.378 381.868 334.122C382.124 334.506 381.611 333.481 381.868 334.122C381.611 333.738 381.355 333.353 380.971 332.841C380.586 332.328 380.202 331.944 379.817 331.559C379.689 331.431 379.177 330.918 379.561 331.303L378.664 330.534C376.229 328.227 373.538 326.049 370.847 323.999C364.568 319.129 358.033 314.772 351.369 310.415C348.678 308.621 345.859 306.827 343.168 305.161C343.552 305.418 342.527 304.777 343.168 305.161L342.784 304.905L342.015 304.393L340.605 303.496L338.683 302.342L338.042 301.958C336.889 301.317 335.736 299.908 336.633 298.498C337.786 297.345 339.452 297.088 340.861 297.857C351.241 304.264 361.621 310.928 371.488 318.232C374.563 320.539 377.639 322.845 380.586 325.28C382.893 327.074 384.943 329.124 386.737 331.431C388.147 333.481 389.044 335.788 389.3 338.351C389.941 341.683 390.197 345.142 390.069 348.602C389.813 356.163 388.403 364.62 383.405 370.643C378.536 376.538 370.591 378.588 363.415 375.897C357.264 373.462 352.138 368.337 347.909 363.467C342.527 357.316 337.658 350.781 333.301 343.861C329.2 337.454 325.228 330.79 321.512 323.999C319.461 320.282 317.411 316.566 315.617 312.722C315.489 312.594 315.489 312.338 315.361 312.209L318.564 314.132C312.798 314.132 306.263 313.106 302.162 308.493C300.624 306.955 299.855 304.905 299.727 302.727L303.059 305.418C298.958 304.905 294.089 302.727 295.114 297.857C295.627 295.807 296.78 293.885 298.189 292.475L298.446 294.91C296.78 293.244 296.011 290.809 296.395 288.503C296.908 286.581 298.189 284.787 299.727 283.505C301.906 281.711 304.468 280.43 307.16 279.533L305.75 280.942C307.416 274.407 313.054 267.231 320.743 269.922C324.587 271.203 327.791 274.407 330.482 277.354C333.557 280.814 336.248 284.658 338.555 288.759C340.349 291.963 342.784 296.191 342.655 300.036C342.527 301.445 341.246 302.47 339.836 302.342H339.708C338.555 302.727 336.248 301.702 336.376 300.164Z" fill="#262626"/>
<path d="M326.898 293.885C325.873 293.501 324.976 293.116 324.079 292.475C322.413 291.45 320.747 290.553 318.953 289.528C317.031 288.503 314.98 287.478 312.93 286.581C312.033 286.196 311.008 285.812 310.111 285.556C309.855 285.427 309.855 285.556 310.111 285.556L309.727 285.427L309.214 285.299C308.83 285.171 308.317 285.171 307.933 285.171C305.242 285.043 307.548 279.148 309.983 279.276C314.083 279.533 318.184 281.839 321.644 283.762C323.438 284.659 325.104 285.684 326.77 286.709L328.436 287.734L328.948 287.99C329.204 288.118 329.717 288.247 328.82 287.99C330.23 288.375 330.23 289.912 329.845 291.066C329.461 292.219 328.307 294.269 326.898 293.885Z" fill="#262626"/>
<path d="M313.568 296.447C312.03 295.935 310.492 295.678 308.826 295.422C307.545 295.166 306.264 295.166 304.982 295.294H304.47C304.854 295.166 304.085 295.294 304.47 295.294C304.085 295.422 303.829 295.422 303.573 295.55C303.444 295.55 303.316 295.678 303.316 295.678C303.701 295.55 303.701 295.55 303.573 295.55L303.444 295.678C302.932 295.935 303.957 295.294 303.573 295.55C303.188 295.807 304.213 294.91 303.829 295.422C303.444 295.935 301.65 297.344 301.266 296.191C301.266 295.678 301.394 295.038 301.65 294.653C302.035 293.884 302.547 293.244 303.188 292.731C305.495 290.168 308.826 289.912 312.03 290.296C313.824 290.553 315.49 290.937 317.284 291.45C318.437 291.834 317.412 293.5 317.028 294.141C316.515 294.781 316.003 295.422 315.362 295.935C314.721 295.935 314.08 296.575 313.568 296.447Z" fill="#262626"/>
<path d="M320.876 286.837C320.876 286.837 353.937 264.796 353.297 262.746C352.656 260.696 352.784 259.927 349.965 259.414C347.146 258.902 315.879 284.659 315.879 284.659L320.876 286.837Z" fill="#262626"/>
<path d="M318.438 284.915C328.305 278.38 338.428 271.716 347.654 264.155C348.423 263.515 349.192 263.002 349.833 262.233C350.089 261.977 350.217 261.721 350.474 261.593L350.602 261.336C350.345 261.336 350.858 262.49 350.345 261.336C350.345 261.208 350.217 260.952 350.217 260.696L350.089 260.439C349.961 260.183 349.961 260.183 350.089 260.439C350.089 260.439 352.524 261.849 351.499 261.593C351.114 261.464 351.371 261.593 351.755 261.593C351.499 261.721 351.755 261.593 351.883 261.593C351.755 261.721 351.499 261.721 351.371 261.721C350.474 262.105 349.577 262.618 348.808 263.13C342.785 266.975 337.147 271.588 331.38 275.945C326.895 279.405 322.538 282.993 318.181 286.453L315.747 282.865L320.744 285.043C321.769 285.427 323.691 286.709 323.563 287.862C323.435 289.015 321.385 288.503 320.744 288.118L315.747 285.94C314.85 285.556 311.774 283.633 313.312 282.352C317.284 279.148 321.257 275.945 325.229 272.741C331.252 268 337.275 263.002 343.81 258.902C344.707 258.261 345.604 257.748 346.501 257.364C348.167 256.851 349.833 257.108 351.371 257.876C353.805 259.03 357.522 262.746 354.959 265.309C352.908 267.359 350.602 269.153 348.167 270.819C344.963 273.254 341.632 275.56 338.428 277.867C333.43 281.455 328.305 284.915 323.179 288.375C321.641 289.784 316.644 286.068 318.438 284.915Z" fill="#262626"/>
<path d="M310.876 306.315C310.107 306.187 309.467 306.059 308.826 306.059L307.673 305.931C307.416 305.931 306.904 305.931 307.673 305.931H307.16C305.75 305.931 304.341 305.931 302.931 305.931C302.291 305.931 301.65 305.802 301.137 305.418C300.753 305.034 300.625 304.393 300.753 303.88C301.394 302.471 302.931 301.446 304.469 301.446C307.545 301.189 310.748 301.317 313.824 301.83C314.464 301.83 314.977 302.214 315.233 302.855C315.361 303.496 315.361 304.008 314.977 304.521C314.08 305.802 312.414 306.443 310.876 306.315Z" fill="#262626"/>
<path d="M100.339 97.8241C98.2888 93.7235 96.1104 89.7511 93.9319 85.6504C92.7786 83.6001 91.7535 81.678 90.6002 79.6277C90.0876 78.7307 89.575 77.8337 89.0624 76.8085C88.678 76.1678 88.0373 74.3738 87.2684 74.5019L90.7283 71.2983L81.1175 91.5451C80.4768 92.6984 79.4516 94.3643 78.042 94.7487C76.6324 95.1331 76.7606 93.4672 77.145 92.6984L86.7559 72.4516C87.3966 71.1702 88.5499 69.3761 90.2157 69.248C91.369 69.1199 91.7535 70.145 92.266 70.9139C92.9068 71.939 93.5475 73.0923 94.0601 74.1175C95.2134 76.2959 96.4948 78.3462 97.6481 80.5247C99.9547 84.7534 102.261 89.1103 104.44 93.4672C105.465 95.1331 101.236 99.8744 100.339 97.8241Z" fill="#262626"/>
<path d="M89.9538 73.2202C89.9538 73.2202 93.7981 72.9639 93.4137 76.1675C93.0292 79.3711 89.8256 79.3711 88.9286 77.8334C88.0316 76.2956 87.519 72.3232 89.9538 73.2202Z" fill="#F5EE30"/>
<path d="M87.6526 71.6831C89.7029 71.6831 91.6251 72.1957 93.4191 73.0927C94.7006 73.6052 95.7257 74.6304 96.2383 75.9118C96.3664 76.2963 96.3665 76.8088 96.3665 77.3214C96.3665 77.834 96.2383 78.2184 95.982 78.731C95.5976 79.4999 94.9569 80.0125 94.188 80.2687C92.7784 80.6532 91.3688 80.525 90.0874 79.8843C88.8059 79.4999 87.6527 78.8592 86.7556 77.9621C86.3712 77.5777 85.9868 77.0651 85.7305 76.5526C85.4742 75.9118 85.2179 75.2711 85.0897 74.6304C85.0897 74.1178 85.0897 73.7334 85.0897 73.2208C85.0897 72.8364 85.2179 72.5801 85.346 72.3238C85.6023 71.9394 86.1149 71.6831 86.6275 71.5549C87.0119 71.5549 87.2682 71.5549 87.6526 71.5549C88.2933 71.6831 88.9341 71.8112 89.5748 72.0675C90.3437 72.3238 91.1125 72.7082 91.7533 73.0927C92.0095 73.2208 92.2658 73.4771 92.5221 73.7334C92.6503 73.8615 92.7784 74.1178 92.9065 74.246V74.5023C92.7784 74.7585 92.5221 74.7585 92.2658 74.7585C91.6251 74.7585 90.9844 74.6304 90.3437 74.3741L90.2155 74.246C90.2155 74.246 91.1125 74.5023 90.8562 74.3741C90.5999 74.246 91.6251 74.5023 91.3688 74.5023H91.2407H91.7533C91.6251 74.5023 91.6251 74.5023 91.497 74.5023L91.8814 74.3741C91.7533 74.3741 91.6251 74.5023 91.497 74.6304L91.7533 74.3741C91.3688 74.7585 91.2407 75.3993 91.2407 75.9118V75.6556C91.2407 76.5526 91.3688 77.5777 91.8814 78.3466L91.7533 77.9621C91.8814 78.0903 92.0095 78.3466 92.1377 78.4747L91.7533 78.0903L91.8814 78.2184C92.0096 78.3466 91.2407 77.7059 91.497 77.9621C91.7532 78.2184 90.7281 77.4496 90.9844 77.7059C91.2407 77.9621 90.0874 77.3214 90.3437 77.4496H90.4718C90.2155 77.3214 89.9592 77.3214 89.8311 77.1933H89.7029C89.9592 77.3214 88.8059 76.937 89.0622 77.0651H89.1904C89.0622 77.0651 88.8059 77.0651 88.6778 76.937H88.4215C88.6778 76.937 88.8059 76.937 89.0622 76.8089L88.6778 76.937C89.0622 76.8088 89.4467 76.6807 89.8311 76.2963L89.5748 76.5526C90.2155 75.9118 90.6 75.0148 90.6 74.1178V74.3741C90.6 73.9897 90.6 73.4771 90.3437 73.0927L90.4718 73.4771C90.3437 73.349 90.3437 73.2208 90.2155 73.0927L90.6 73.4771L90.4718 73.349H90.3437C90.2155 73.2208 90.9844 73.8615 90.7281 73.7334C90.4718 73.6052 90.3437 73.4771 90.8562 73.8615L91.1125 73.9897H90.9844C90.8562 73.9897 92.0095 74.5023 91.6251 74.246C91.2407 73.9897 92.394 74.5023 92.2658 74.5023H92.1377C91.8814 74.3741 93.1628 74.7585 92.6502 74.6304C92.5221 74.6304 92.0095 74.5023 92.6502 74.6304C93.291 74.7585 92.7784 74.6304 92.6502 74.6304C92.5221 74.6304 92.394 74.6304 92.2658 74.6304C91.6251 74.6304 90.9844 74.5023 90.3437 74.246C89.5748 73.9897 88.8059 73.6052 88.1652 73.0927L87.6526 72.7082C87.3963 72.4519 87.1401 72.1957 87.0119 71.9394C87.1401 71.6831 87.3963 71.6831 87.6526 71.6831Z" fill="#F5EE30"/>
<path d="M20.633 194.317L154.8 192.395L154.928 191.242C155.825 175.864 160.054 98.5935 155.056 93.0833C154.672 92.6989 154.159 92.4426 153.647 92.4426C148.008 92.3144 22.8114 94.1085 21.9144 94.1085H20.633V194.317Z" fill="#F5EE30"/>
<path d="M22.678 192.01L36.1331 191.882L68.1692 191.37L106.997 190.857L140.442 190.344C145.825 190.216 151.335 189.832 156.717 190.088H156.973L152.488 194.445C153.513 176.249 154.41 158.052 154.795 139.856C155.051 129.604 155.179 119.481 154.795 109.229C154.666 105.897 154.41 102.438 153.898 99.1058C153.641 97.4399 153.385 94.7489 151.207 94.6208C147.234 94.3645 143.262 94.6208 139.289 94.7489L115.454 95.0052L55.7392 95.7741C43.8218 95.9022 31.9044 96.1585 20.1151 96.2866H18.4492L22.9342 91.9297V192.138C22.9342 193.164 21.1402 194.573 20.3714 195.214C20.1151 195.47 18.1929 197.008 18.1929 196.239V96.0304C18.1929 95.2615 19.6025 93.98 20.1151 93.4675C20.6277 92.9549 21.781 91.6734 22.678 91.6734C33.0577 91.6734 43.3092 91.4172 53.6889 91.289L113.404 90.5201C126.987 90.392 140.699 90.1357 154.282 90.0076C155.82 90.0076 157.229 90.1357 157.87 91.8016C158.639 94.2363 159.023 96.7992 159.152 99.3621C159.92 108.717 159.792 118.071 159.664 127.426C159.408 147.16 158.511 166.766 157.357 186.372C157.229 187.653 157.229 188.935 157.101 190.088C157.101 190.985 155.82 192.138 155.179 192.651C154.538 193.164 153.513 194.445 152.616 194.445L139.161 194.573L107.125 195.086L68.2973 195.598L34.8517 196.111L23.8313 196.239H20.3714C19.7307 196.239 19.0899 196.239 18.5774 196.239H18.321C17.424 196.239 19.2181 194.189 19.3462 194.061C20.2432 193.676 21.6528 192.01 22.678 192.01Z" fill="#F5EE30"/>
<path d="M147.491 187.141C148.259 174.583 148.772 161.897 149.156 149.338C149.541 139.599 149.797 129.989 149.669 120.378C149.669 113.971 149.925 107.179 148.644 100.9C148.516 100.259 148.388 99.7466 148.131 99.234C148.131 99.1059 148.003 99.1059 148.003 98.9778C148.003 99.3622 150.566 99.7466 150.694 99.7466C150.566 99.7466 150.31 99.7466 150.182 99.7466C149.669 99.6185 149.285 99.7466 150.182 99.7466H149.028H146.081C139.289 99.8748 132.626 99.8748 125.834 100.003L67.2724 100.9L42.1561 101.284C37.7992 101.284 33.4423 101.541 29.0854 101.541H28.4447L30.8794 100.644V189.704L26.9069 188.551L39.0806 188.422L68.4256 187.91L103.793 187.397L134.548 186.885C139.546 186.757 144.543 186.757 149.541 186.628H149.925C150.822 186.628 153.257 186.5 153.77 187.525C154.282 188.551 151.976 188.807 151.463 188.807L139.289 188.935L109.944 189.448L74.5766 189.96L43.822 190.473C38.8244 190.601 33.8267 190.601 28.8291 190.729H28.5728C27.9321 190.729 24.6004 190.729 24.6004 189.576V100.387C24.6004 99.6185 26.5225 99.4903 27.0351 99.4903L59.84 98.9778C79.8305 98.7215 99.6928 98.337 119.683 98.0807C127.244 97.9526 134.804 97.8245 142.237 97.8245H148.388C150.182 97.8245 153.129 97.44 154.41 98.9778C155.436 100.259 155.436 102.438 155.692 103.975C156.076 107.179 156.204 110.511 156.333 113.842C156.589 123.069 156.333 132.423 156.076 141.65C155.692 156.771 155.051 171.892 154.154 187.013C154.154 187.269 154.154 187.525 154.154 187.782C153.77 188.935 147.362 188.679 147.491 187.141Z" fill="#FFFFFE"/>
<path d="M307.42 29.1394C305.114 24.5262 302.807 20.0411 300.244 15.5561C299.091 13.3776 297.809 11.1992 296.656 9.02072L294.734 5.81711C294.349 5.17639 293.965 4.53567 293.709 4.02309L293.196 3.12608C292.684 2.35722 292.94 2.35722 294.221 3.25423L296.528 3.63866H296.143L297.425 2.99794L286.148 26.5765C285.251 28.4986 279.228 26.192 280.125 24.398L291.402 0.819488C291.658 0.435056 292.171 0.178767 292.684 0.178767C294.478 0.050623 296.272 0.691343 297.681 1.84464C298.706 2.86979 299.475 4.15124 300.116 5.43268C301.654 8.1237 303.191 10.8147 304.729 13.5058C307.676 18.8878 310.496 24.2699 313.315 29.6519C313.955 30.9334 312.546 31.3178 311.521 31.1897C309.983 31.0615 308.061 30.4208 307.42 29.1394Z" fill="#262626"/>
<path d="M295.631 3.38171C295.631 3.38171 300.116 3.12542 299.603 6.8416C299.09 10.5578 295.502 10.5578 294.349 8.76377C293.196 6.96975 292.811 2.22841 295.631 3.38171Z" fill="#F5EE30"/>
<path d="M295.631 0.306557C296.144 0.306557 296.784 0.306557 297.297 0.306557C298.578 0.434701 299.732 0.819133 300.885 1.588C301.141 1.84429 301.526 2.10058 301.782 2.48501C302.166 2.99759 302.423 3.51016 302.551 4.15088C302.935 5.81676 302.807 7.61078 301.91 9.14851C300.885 11.4551 298.45 12.8647 295.887 12.7365C295.247 12.7365 294.734 12.6084 294.093 12.3521C292.94 11.9677 292.043 11.0707 291.53 10.0455C291.018 8.89222 290.633 7.61078 290.505 6.32933C290.505 5.68861 290.505 4.91975 290.633 4.27903C290.762 3.38202 291.146 2.48501 291.659 1.71615L291.787 1.45986C292.043 1.20357 292.299 0.94728 292.556 0.819135C293.068 0.434703 293.709 0.178416 294.478 0.0502723C295.375 -0.0778719 296.272 0.0502684 297.041 0.306557C298.45 0.947278 298.963 2.7413 298.322 4.02274C298.322 4.02274 298.322 4.02274 298.322 4.15088C297.938 4.91975 297.297 5.56047 296.528 5.81676C295.887 6.07305 294.99 6.20119 294.35 5.9449C294.221 5.9449 294.093 5.81676 293.965 5.81676L294.734 5.9449C294.606 5.9449 294.35 5.9449 294.221 5.9449H294.99H294.734L295.503 5.68861C295.375 5.68861 295.375 5.68862 295.247 5.81676L296.015 5.43232C295.887 5.43232 295.887 5.56047 295.759 5.56047L296.4 4.91975C296.272 5.04789 296.272 5.04789 296.272 5.17604L296.784 4.40717C296.656 4.53532 296.656 4.66346 296.528 4.7916L296.784 4.02274C296.656 4.27903 296.656 4.53531 296.656 4.7916L296.784 4.02274C296.784 4.53532 296.784 5.04789 296.784 5.56047L296.656 4.7916C296.784 5.43232 296.912 5.9449 297.169 6.58562L296.912 5.9449C297.041 6.20119 297.169 6.45748 297.425 6.71377L296.912 6.20119C297.041 6.45748 297.297 6.58562 297.553 6.71377L296.912 6.32933C297.169 6.45748 297.425 6.58562 297.681 6.58562L296.912 6.45748C297.169 6.58563 297.425 6.58562 297.681 6.58562H296.912C297.169 6.58562 297.425 6.58563 297.681 6.45748L296.912 6.71377C297.169 6.71377 297.297 6.58563 297.553 6.45748L296.784 6.84191C296.912 6.71377 297.169 6.58563 297.297 6.45748L296.656 7.0982C296.784 6.97006 296.912 6.71377 297.169 6.58562L296.656 7.35449C296.784 7.0982 296.912 6.84191 297.041 6.58562L296.784 7.35449C296.912 6.97005 296.912 6.58562 297.041 6.20119L296.912 6.97005C296.912 6.71377 296.912 6.32933 296.912 6.07304L297.041 6.84191C297.041 6.58562 296.912 6.32934 296.784 6.20119L297.041 6.84191C296.912 6.58562 296.784 6.45748 296.656 6.32933L297.169 6.84191C297.041 6.58562 296.784 6.45748 296.528 6.32933L297.169 6.71377C296.784 6.45748 296.4 6.32933 296.015 6.32933L296.784 6.45748C296.272 6.32934 295.759 6.32933 295.118 6.32933H295.887C295.503 6.45748 295.118 6.45748 294.734 6.32933C294.35 6.32933 293.965 6.07305 293.709 5.81676C293.196 5.30418 292.812 4.66346 292.812 3.8946C292.812 3.12573 293.068 2.22872 293.581 1.588C293.965 0.947278 294.734 0.434701 295.631 0.306557Z" fill="#F5EE30"/>
<path d="M239.374 144.212L355.858 141.906L355.986 140.496C357.011 122.556 362.008 32.5986 356.114 26.3196C355.729 25.807 355.089 25.5507 354.576 25.5507C348.041 25.4225 242.066 27.4729 241.04 27.4729H239.503L239.374 144.212Z" fill="#F5EE30"/>
<path d="M239.502 141.65L251.035 141.393L278.842 140.881L312.416 140.24L341.504 139.728L351.115 139.599C352.653 139.599 354.191 139.471 355.728 139.471H355.985L352.653 142.162C353.678 125.632 354.447 108.973 354.96 92.4424C355.344 81.6783 355.6 70.9141 355.6 60.0219C355.6 55.2806 355.6 50.5392 355.472 45.7979C355.344 43.8757 355.344 41.9536 355.216 40.0314C355.216 39.1344 355.088 38.3655 355.088 37.4685C355.088 36.5715 355.088 36.5715 354.96 35.4182C354.703 33.1116 354.319 30.805 353.678 28.6266C353.55 28.3703 353.294 27.9859 353.678 28.7547C353.678 28.7547 353.55 28.3703 353.422 28.3703L353.166 28.114C353.037 28.4984 354.447 28.2421 353.934 28.3703C353.422 28.3703 352.781 28.3703 352.14 28.3703C346.502 28.3703 340.864 28.4984 335.354 28.6266C316.388 28.8829 297.423 29.2673 278.458 29.6517C265.899 29.908 253.341 30.1643 240.911 30.4206H238.989L242.321 27.7296V139.599C242.321 141.137 242.449 142.675 242.321 144.213V144.469C242.321 147.544 236.042 148.313 236.042 144.853V32.4709C236.042 30.9332 235.914 29.3954 236.042 27.8577C236.042 27.7296 236.042 27.7296 236.042 27.6014C236.042 26.0637 238.092 24.9104 239.374 24.9104C250.522 24.9104 261.799 24.526 272.947 24.2697C292.297 23.8852 311.775 23.5008 331.125 23.2445C337.66 23.1164 344.067 22.9882 350.603 22.9882C352.269 22.8601 354.063 22.8601 355.728 23.1164C358.804 23.7571 359.701 26.4481 360.214 29.1391C361.623 36.3152 361.623 43.8757 361.623 51.0518C361.751 61.5596 361.623 72.1956 361.239 82.7034C360.726 101.028 359.829 119.481 358.804 137.805C358.676 139.087 358.676 140.24 358.548 141.522C358.419 143.059 356.497 144.213 355.216 144.213L343.683 144.469L315.876 144.981L282.302 145.622L253.213 146.135C248.472 146.263 243.73 146.391 238.989 146.391H238.733C237.323 146.391 235.657 145.622 235.785 144.084C236.426 142.675 237.836 141.65 239.502 141.65Z" fill="#F5EE30"/>
<path d="M347.781 136.396C348.422 125.375 348.934 114.355 349.319 103.334C350.088 85.266 350.728 67.0695 350.216 48.873C350.088 45.7976 349.96 42.594 349.703 39.5185C349.575 38.3652 349.447 37.34 349.191 36.1867C349.319 37.2119 349.062 35.9305 349.062 35.546C349.062 35.1616 348.806 34.9053 348.806 34.649C349.191 35.0335 348.55 33.8802 348.806 34.649C348.422 34.2646 349.447 35.1616 349.062 34.9053C349.062 34.9053 350.088 35.4179 350.216 35.2897C350.088 35.4179 348.934 35.2897 348.678 35.2897C346.5 35.2897 344.193 35.2897 342.015 35.4179H339.836H339.324H337.914L332.404 35.546L319.205 35.8023L289.604 36.3149L248.341 37.2119H247.7L250.776 34.1364V137.805L247.572 135.499L282.556 134.73L338.17 133.576L350.857 133.32C352.266 133.32 354.06 133.833 354.06 135.627C353.932 137.293 352.651 138.574 350.985 138.702L316.001 139.471L260.387 140.624L247.7 140.881C246.291 140.881 244.497 140.368 244.497 138.574V35.0334C244.625 33.3676 245.906 32.0861 247.572 31.958L283.068 31.1891C301.777 30.8047 320.358 30.4203 339.067 30.164L348.037 30.0358C349.575 29.9077 351.113 29.9077 352.651 30.164C354.445 30.8047 355.085 32.7269 355.47 34.3927C355.982 36.9556 356.239 39.6466 356.367 42.2095C357.52 59.7653 356.623 77.5773 355.982 95.1331C355.47 108.332 354.829 121.659 354.188 134.858V135.499C354.06 137.164 352.779 138.446 351.113 138.574C349.703 138.83 347.653 138.061 347.781 136.396Z" fill="#FFFFFE"/>
<path d="M97.0029 162.153C97.0029 162.153 111.355 182.656 119.428 179.196C127.501 175.736 130.961 169.713 125.323 163.562C119.684 157.412 92.646 152.927 97.0029 162.153Z" fill="#F5EE30"/>
<path d="M99.4422 160.231C101.621 163.306 104.055 166.253 106.618 168.944C108.669 171.123 110.847 173.173 113.154 174.839C115.076 176.249 117.382 177.658 119.945 177.53C122.636 177.274 124.815 175.352 125.199 172.661C125.84 169.457 123.79 166.125 121.355 164.331C117.126 161.256 111.231 159.846 106.106 159.205C103.415 158.693 100.724 158.693 97.9044 159.205L97.1355 159.462L96.8793 159.59C96.4948 159.718 97.1356 159.462 96.7511 159.718C97.6481 159.205 98.417 158.565 99.1859 157.796C98.9296 158.693 99.0577 159.59 99.4422 160.231C99.9547 161.512 94.5727 164.716 94.3164 164.203C93.0349 161.384 94.9571 159.462 97.1355 157.796C99.5703 156.002 102.518 154.977 105.465 154.977C111.872 154.849 118.279 156.386 124.046 159.205C126.993 160.487 129.3 163.05 130.197 166.125C131.35 170.867 127.506 174.711 124.046 177.274C121.098 179.58 116.998 182.399 113.025 181.374C110.078 180.477 107.515 178.811 105.337 176.633C101.108 172.917 97.3918 168.688 94.3164 164.075C93.8038 163.306 98.9296 159.59 99.4422 160.231Z" fill="#FFFFFE"/>
<path d="M94.8265 153.438C94.8265 153.438 109.435 138.446 119.943 141.393C130.451 144.34 131.988 156.898 116.098 158.82C100.209 160.743 94.1858 157.155 94.8265 153.438Z" fill="#F5EE30"/>
<path d="M91.8839 152.157C95.0875 148.825 98.6756 146.006 102.648 143.571C105.595 141.649 108.799 140.368 112.259 139.727C116.231 139.343 120.204 140.111 123.664 142.034C126.355 143.443 129.046 145.365 130.327 148.184C131.224 150.363 131.096 152.798 129.815 154.72C128.021 157.411 124.817 158.82 121.87 159.461C117.128 160.486 112.387 160.871 107.646 160.486C103.417 160.358 99.1881 159.077 95.4719 157.026C93.5498 156.129 91.4995 154.592 91.8839 152.157C92.0121 151.644 98.0348 153.31 97.7785 154.72C97.6504 155.232 97.7785 155.873 98.0348 156.386C98.163 156.514 98.5474 157.026 98.4193 156.898C98.5474 157.026 98.6756 157.155 98.8037 157.283C99.06 157.539 98.9318 157.411 98.8037 157.283C98.8037 157.411 99.3163 157.539 98.9319 157.411C98.5474 157.283 99.4444 157.667 98.6756 157.283L98.4193 157.155C98.5474 157.283 98.9318 157.411 98.163 157.026C98.2911 157.026 98.4193 157.155 98.5474 157.155H98.2911C98.4193 157.155 99.3163 157.411 98.9319 157.283C100.341 157.539 101.879 157.795 103.417 157.795C107.646 158.052 111.874 157.795 115.975 156.898C118.794 156.386 121.485 155.104 123.407 152.926C124.817 151.388 125.33 149.338 124.945 147.287C124.689 146.262 124.304 145.365 123.664 144.596C123.407 144.212 123.023 143.828 122.639 143.443C122.51 143.315 122.254 143.059 122.126 143.059C121.998 143.059 121.357 142.546 121.742 142.802C121.613 142.674 121.485 142.674 121.357 142.546C121.357 142.546 121.87 142.674 121.485 142.674L121.613 142.802L121.229 142.674L120.716 142.546C119.307 142.418 118.025 142.546 116.744 142.802C113.797 143.571 110.977 144.725 108.415 146.39C104.57 148.697 100.982 151.516 97.9067 154.72C97.266 155.361 95.3438 154.335 94.7031 154.079C94.3186 153.951 91.4995 152.541 91.8839 152.157Z" fill="#FFFFFE"/>
<path d="M89.1912 150.236C89.1912 150.236 98.4176 124.735 105.209 123.838C112.001 122.941 115.973 127.17 114.692 134.73C113.41 142.291 97.905 153.567 93.2918 153.055C88.6786 152.542 89.1912 150.236 89.1912 150.236Z" fill="#F5EE30"/>
<path d="M86.2421 149.082C87.6517 144.981 89.4457 141.009 91.3678 137.036C92.7774 133.833 94.5715 130.885 96.3655 127.938C97.6469 125.631 99.5691 123.581 101.876 122.3C105.207 120.634 110.077 121.531 113.152 123.453C116.74 125.76 118.663 129.86 118.022 134.089C117.253 141.521 110.205 147.16 104.439 151.132C101.619 153.054 98.1595 155.233 94.6996 155.233C91.7523 155.105 85.3451 153.182 86.2421 149.082C86.4984 147.672 89.0613 148.057 89.9583 148.313C91.2397 148.825 92.5212 149.851 92.2649 151.26C92.393 150.748 92.2649 150.748 92.2649 150.876C92.2649 151.004 92.2649 150.748 92.1367 150.748C92.5211 151.132 91.8804 150.619 92.1367 150.748C92.393 150.876 92.0086 150.619 92.0086 150.619C91.6241 150.363 91.6242 150.363 91.8804 150.491C92.1367 150.62 92.0086 150.62 91.8804 150.491C91.7523 150.363 91.7523 150.491 92.0086 150.491C91.6241 150.491 92.393 150.619 92.2649 150.619C92.7774 150.748 92.5211 150.619 92.7774 150.748C93.0337 150.876 92.5211 150.876 92.7774 150.748C93.0337 150.619 93.29 150.619 93.5463 150.619C93.8026 150.619 93.29 150.748 93.8026 150.491C94.3152 150.235 94.4433 150.235 94.6996 150.107C95.3403 149.851 95.8529 149.594 96.4936 149.21C97.775 148.569 99.0565 147.672 100.338 146.903C103.157 144.981 105.72 142.675 108.027 140.112C109.949 138.19 111.23 135.883 111.871 133.192C112.127 131.526 111.999 129.86 111.486 128.322C111.358 127.81 110.974 127.297 110.589 126.785C110.333 126.528 109.949 126.272 109.564 126.016C110.205 126.4 108.924 125.888 109.308 125.888C109.052 125.888 108.795 125.76 108.411 125.76C108.667 125.76 107.898 125.76 107.77 125.76C107.386 125.76 107.001 125.76 106.617 125.888C106.489 125.888 105.976 126.016 106.361 125.888C106.745 125.76 106.104 126.016 106.104 126.016C106.104 126.016 105.72 126.144 105.592 126.272C105.72 126.144 105.592 126.272 105.336 126.528C101.363 129.988 99.0565 135.114 96.8781 139.727C95.084 143.443 93.5463 147.288 92.0086 151.26C91.3678 153.823 85.3451 151.645 86.2421 149.082Z" fill="#FFFFFE"/>
<path d="M84.1912 148.826C84.1912 148.826 72.6582 119.609 81.372 115.381C90.0858 111.152 96.7493 115.509 96.7493 125.76C96.7493 136.012 90.5984 148.57 87.9073 149.467C86.754 150.108 85.2163 149.852 84.1912 148.826Z" fill="#F5EE30"/>
<path d="M81.2435 148.569C79.8339 144.853 78.5525 141.137 77.5273 137.421C75.9896 131.654 74.1955 124.863 75.477 118.84C75.8614 116.277 77.5273 113.971 79.962 112.945C83.8064 111.023 88.2914 110.895 92.2639 112.689C101.362 117.046 100.465 128.451 98.1585 136.652C97.0052 141.265 95.0831 145.622 92.392 149.466C91.495 150.876 89.8291 151.901 88.1633 152.029C85.8567 152.286 83.5501 151.517 81.8842 149.723C81.1153 148.698 80.6028 147.288 82.0124 146.647C83.5501 146.263 85.2159 146.647 86.2411 147.929C86.6255 148.441 85.3441 147.288 85.3441 147.416C85.3441 147.288 85.6004 147.416 85.8567 147.288C85.7285 147.288 85.6004 147.544 85.9848 147.16C86.7537 146.391 87.3944 145.494 87.907 144.597C89.8292 141.265 91.3669 137.677 92.2639 133.961C93.5453 130.117 93.9298 126.016 93.4172 121.915C93.1609 120.25 92.6483 118.84 91.7513 117.43C91.495 117.174 91.2387 116.918 90.9824 116.662C90.8543 116.533 90.2136 116.149 90.598 116.405C90.4699 116.277 90.2136 116.149 90.0854 116.149C90.3417 116.277 90.2136 116.149 89.9573 116.149C88.6759 115.893 87.3944 115.893 86.2411 116.277C85.4722 116.533 84.7034 116.79 83.9345 117.174C83.8064 117.302 83.0375 117.559 83.2938 117.559C83.5501 117.559 83.0375 117.815 82.9094 117.815C81.7561 119.096 81.1153 120.89 81.1153 122.684C80.7309 127.938 82.1405 133.448 83.5501 138.574C84.5752 142.162 85.7285 145.622 87.01 149.21C87.5225 150.62 85.8567 151.389 84.7034 151.26C83.2938 151.004 81.8842 149.979 81.2435 148.569Z" fill="#FFFFFE"/>
<path d="M80.2167 150.107C80.2167 150.107 57.5351 138.062 58.1759 131.911C58.8166 125.76 65.8645 121.787 70.4777 123.197C75.0909 124.606 87.0083 146.391 84.3173 148.826C81.6262 151.26 80.2167 150.107 80.2167 150.107Z" fill="#F5EE30"/>
<path d="M78.4249 152.414C74.1961 150.235 70.0955 147.672 66.2512 144.981C63.432 143.187 60.8691 141.137 58.5626 138.702C56.7685 136.78 54.7182 134.474 55.1026 131.526C55.8715 126.785 59.2033 122.941 63.5602 121.275C67.0201 119.865 71.2488 119.481 74.1961 122.044C76.3746 124.094 78.2967 126.401 79.8345 128.963C81.7566 131.911 83.4225 134.986 84.9602 138.19C86.2417 140.881 87.9076 144.213 87.7794 147.288C87.6513 151.517 81.1159 154.208 77.7842 151.645C76.8872 150.748 76.759 149.338 77.656 148.313C77.7842 148.185 77.9123 148.057 78.0404 147.929C79.3219 146.904 81.1159 146.775 82.5255 147.801C82.5255 147.801 81.7566 147.288 82.1411 147.544C82.1411 147.544 81.3722 147.416 81.8848 147.416C81.6285 147.416 81.3722 147.416 81.1159 147.416C81.3722 147.16 81.3722 147.416 81.1159 147.416L81.3722 147.288C81.8848 146.904 81.6285 147.032 81.3722 147.544C81.6285 147.16 81.2441 147.544 81.3722 147.801C81.3722 147.672 81.3722 147.544 81.3722 147.288C81.5003 146.775 81.5003 147.544 81.3722 147.288C81.2441 147.032 81.3722 146.775 81.244 146.519C80.7315 144.341 79.9626 142.162 78.8093 140.112C77.5279 137.293 75.9901 134.602 74.3243 131.911C73.5554 130.757 72.7865 129.476 71.8895 128.451C71.5051 127.938 71.1207 127.426 70.7363 127.041L70.3518 126.657C70.4799 126.913 69.9674 126.272 69.9674 126.144C69.7111 125.888 69.3266 125.504 68.9422 125.247C68.5578 124.991 68.1733 124.863 68.9422 125.247C68.8141 125.119 68.6859 125.119 68.5578 124.991C68.5578 124.991 69.1985 125.119 68.6859 124.991L68.1734 124.863C68.6859 124.991 67.7889 124.863 67.5326 124.863C67.4045 124.863 67.0201 124.863 67.5326 124.863C67.2764 124.863 67.1482 124.991 66.8919 124.991C66.6356 124.991 66.5075 125.119 66.2512 125.119C65.7386 125.247 66.3793 124.991 65.9949 125.119C64.5853 125.632 63.432 126.401 62.535 127.554C62.0224 128.195 61.638 128.835 61.3817 129.604C61.2536 129.86 61.2536 130.117 61.1254 130.373C60.9973 130.757 61.1254 131.654 60.9973 130.886C60.9973 131.014 60.9973 131.142 61.1254 131.398C61.2536 131.654 61.3817 132.167 61.2535 131.654C61.1254 131.142 61.3817 131.911 61.3817 132.039C61.5098 132.295 61.638 132.551 61.7662 132.68C62.0224 133.064 62.4069 133.448 62.6631 133.833C62.9194 134.217 62.4069 133.577 62.6631 133.833L62.9194 134.089C63.1757 134.345 63.432 134.602 63.6883 134.858C65.8668 136.78 68.0452 138.574 70.4799 140.112C73.2991 142.034 75.0931 143.187 78.0404 144.853C79.1937 145.494 80.4752 146.263 81.6285 146.904C85.4728 149.723 81.3722 153.952 78.4249 152.414Z" fill="#FFFFFE"/>
<path d="M83.8078 160.871C83.8078 160.871 97.5193 165.74 98.9289 162.408C100.338 159.077 96.366 148.953 86.3707 147.672C76.3755 146.39 78.0414 154.463 83.8078 160.871Z" fill="#F5EE30"/>
<path d="M85.2181 157.924C87.781 158.821 90.3438 159.59 92.9067 160.102C94.5726 160.487 96.3666 160.743 98.1607 160.615C98.8014 160.615 99.3139 160.359 99.8265 160.102L99.9547 159.974C100.083 159.846 99.8265 160.102 99.9547 160.102C98.8014 160.102 98.4169 163.05 97.9043 164.331C97.9043 164.331 97.9043 164.587 97.9043 164.459C97.9043 164.331 97.9043 164.331 97.9043 164.203C97.9043 164.075 97.9043 163.818 97.9043 163.69C97.9043 160.102 95.5978 156.514 92.9067 154.208C91.1127 152.67 89.0624 151.517 86.7558 151.004C84.7055 150.491 81.8863 150.107 79.836 151.26C79.4516 151.517 79.1953 151.773 78.8109 152.029C79.0672 151.773 78.5546 152.542 79.0672 151.645C79.5798 150.748 80.0923 149.723 80.4767 148.826C80.733 148.057 80.8612 147.8 80.733 148.057C80.733 148.057 80.6049 148.441 80.733 148.185C80.733 148.313 80.733 148.441 80.733 148.569C80.6049 149.594 80.8612 150.491 81.1174 151.388C82.0145 153.695 83.4241 156.002 85.2181 157.924C85.4744 158.052 85.0899 158.821 85.0899 158.821C84.8336 159.59 84.5774 160.23 84.1929 160.871C83.6804 161.768 83.1678 162.793 82.527 163.562C80.733 161.64 79.3235 159.462 78.4265 157.027C78.042 156.13 77.9138 155.105 77.9138 154.08C78.1701 152.157 78.8109 150.363 79.836 148.697C80.3486 147.416 81.2456 146.263 82.3989 145.366C83.424 144.853 84.4492 144.597 85.6025 144.597C88.4217 144.469 91.2409 145.238 93.6756 146.647C97.5199 148.954 100.083 152.798 100.724 157.155C100.852 157.924 100.724 158.693 100.595 159.462C100.339 160.487 99.9547 161.512 99.4421 162.537C99.0577 163.69 98.4169 164.715 97.6481 165.612C96.4948 166.638 94.5726 166.51 93.163 166.253C89.575 165.741 86.1151 164.844 82.7833 163.562C82.3989 163.434 83.6803 160.743 83.8085 160.487C83.9366 160.23 84.7055 157.796 85.2181 157.924Z" fill="#FFFFFE"/>
<path d="M82.3958 185.475C80.858 180.99 82.0114 165.741 84.7024 161.768L82.3958 185.475Z" fill="#F5EE30"/>
<path d="M79.3235 185.09C78.8109 183.424 78.5546 181.759 78.6827 179.965C78.6827 177.53 78.6827 174.967 78.939 172.532C79.3235 168.56 79.7079 163.818 81.8863 160.359C83.1678 158.308 89.1906 160.615 87.5247 163.05C87.3965 163.178 87.2684 163.434 87.5247 163.178C87.3965 163.306 87.3966 163.434 87.2684 163.69C87.1403 163.947 87.0121 164.459 86.884 164.844C86.6277 165.741 86.3714 166.638 86.1151 167.535C85.6025 169.841 85.3462 172.148 85.0899 174.454C84.8337 176.633 84.8337 178.811 84.8337 180.99C84.8337 182.656 85.09 184.321 85.4744 185.987C85.987 187.397 83.5522 187.781 82.6552 187.653C81.2456 187.397 79.9642 186.5 79.3235 185.09Z" fill="#FFFFFE"/>
<path d="M90.2186 158.18C87.3995 158.18 91.1157 153.183 93.0378 153.183C95.857 153.183 92.1408 158.18 90.2186 158.18Z" fill="#FFFFFE"/>
<path d="M86.4993 152.798C86.243 152.926 85.8586 152.67 85.9867 152.414C86.1148 152.414 86.3711 152.414 86.4993 152.414" fill="#F5EE30"/>
<path d="M88.1595 155.104L87.7751 155.36L87.3907 155.617L86.6218 155.873H86.1093C85.9811 155.873 85.853 155.873 85.7248 155.873L84.9559 155.745H84.8278L84.1871 155.36C83.9308 155.232 83.8026 154.976 83.6745 154.72C83.5464 154.463 83.4182 154.207 83.2901 153.951V153.823C83.2901 153.566 83.1619 153.31 83.1619 153.054C83.1619 152.541 83.2901 151.901 83.4182 151.388L83.9308 150.619C84.1871 150.235 84.5715 149.978 84.9559 149.85L85.3404 149.594C85.5967 149.466 85.853 149.466 86.1093 149.338H86.2374C86.4937 149.338 86.75 149.338 87.1344 149.338H87.2626C87.5188 149.338 87.7751 149.466 88.0314 149.466H88.1595C88.544 149.594 88.8003 149.85 89.0566 150.107C89.3129 150.363 89.5691 150.747 89.6973 151.132C89.8254 151.516 89.8254 151.901 89.8254 152.285C89.8254 152.669 89.6973 153.054 89.5691 153.438L89.0566 154.207C88.6721 154.592 88.2877 154.976 87.7751 155.232L87.0063 155.489C86.4937 155.617 85.9811 155.489 85.4685 155.36H85.3404L86.1093 155.489H85.853H86.6218H86.4937L89.0566 153.438L89.3129 152.669V151.901V152.029L89.1847 151.26C89.1847 151.26 89.1847 151.26 89.1847 151.388L88.8003 150.747V150.875L88.2877 150.363L88.4158 150.491L87.7751 150.107H87.9033L87.1344 149.978H87.2626H86.4937L85.7248 150.235L85.0841 150.619C85.3404 150.363 85.7248 150.235 86.1093 150.107C86.4937 149.978 86.8781 149.85 87.2626 149.978C87.647 149.978 88.0314 150.107 88.2877 150.363C88.6721 150.491 88.9284 150.747 89.1847 151.132L89.5691 151.772C89.6973 152.285 89.8254 152.798 89.6973 153.31L89.441 154.079C89.1847 154.592 88.8003 154.976 88.4158 155.36L88.1595 155.104Z" fill="#FFFFFE"/>
<path d="M88.8028 158.308C87.265 158.308 85.8555 157.795 84.7022 156.898C83.8052 155.745 85.3429 155.745 86.2399 155.745C87.5213 155.745 89.5716 156.129 90.3405 157.154C91.1094 158.18 89.5716 158.308 88.8028 158.308Z" fill="#FFFFFE"/>
<path d="M80.6067 180.093C80.0941 176.89 78.6845 173.814 76.6342 171.251C75.8653 170.226 74.712 169.457 73.4306 169.073C71.7647 168.945 70.227 169.97 69.5863 171.508C69.0737 173.045 69.2019 174.839 70.0989 176.249C70.8678 177.658 72.0211 178.94 73.3025 179.837C74.3276 180.734 75.4809 181.503 76.6342 182.272C77.7875 183.041 79.1971 183.681 80.3504 182.912" fill="#F5EE30"/>
<path d="M77.4023 180.221L77.2741 179.452C77.2741 179.324 77.146 179.196 77.146 179.068C77.0178 178.555 76.7615 177.914 76.6334 177.402C76.249 176.377 75.8645 175.48 75.3519 174.583C75.2238 174.326 75.0957 174.07 74.9675 173.814C75.2238 174.198 74.8394 173.686 74.8394 173.558C74.5831 173.173 74.1987 172.661 73.8142 172.276C73.6861 172.148 73.4298 171.892 73.3017 171.763C73.1735 171.635 73.1735 171.635 73.0454 171.507C73.4298 171.763 72.9172 171.379 73.0454 171.507L72.5328 171.123C72.5328 171.123 73.0454 171.379 72.6609 171.251C73.3017 171.251 72.2765 171.123 72.6609 171.251C72.6609 171.251 73.3017 171.251 73.0454 171.251C72.7891 171.251 73.4298 171.123 73.4298 171.251C72.9172 171.379 74.0705 171.123 73.3017 171.251C73.0454 171.379 73.5579 171.123 73.4298 171.123C73.3016 171.123 73.1735 171.379 73.0454 171.379C72.9172 171.379 72.7891 171.635 73.0454 171.379C73.3017 171.123 73.0454 171.507 72.9172 171.507C72.7891 171.507 72.7891 171.764 72.6609 171.892C72.5328 172.02 72.6609 171.763 72.6609 171.763C72.5328 172.02 72.5328 172.148 72.4046 172.404C72.4046 172.532 72.2765 172.661 72.2765 172.917C72.2765 173.173 72.2765 173.558 72.2765 173.814C72.2765 173.942 72.2765 174.07 72.2765 174.198C72.2765 174.198 72.4046 174.583 72.2765 174.326C72.1483 174.07 72.4046 174.583 72.4046 174.583L72.5328 174.967C72.6609 175.223 72.6609 175.352 72.7891 175.608L73.0454 175.992C73.0454 175.864 72.9172 175.736 73.0454 175.992C73.6861 176.889 74.455 177.658 75.2238 178.299C75.2238 178.299 74.9675 178.043 75.2238 178.171L75.6082 178.555L76.3771 179.196C76.8897 179.58 77.4022 179.965 77.9148 180.349C78.1711 180.477 78.4274 180.734 78.6837 180.862C78.2993 180.605 78.94 180.99 78.94 180.99C78.5556 180.862 79.4526 180.99 78.8119 180.99C78.1711 180.99 79.3244 180.862 78.5555 180.99C78.4274 180.99 77.6586 181.246 78.1711 180.99C79.5807 180.221 81.3747 180.477 82.6562 181.631C83.6813 182.912 82.7843 184.065 81.631 184.834C79.7089 185.731 77.5304 185.731 75.6082 184.834C74.1987 184.193 72.7891 183.296 71.6358 182.271C69.201 180.349 66.7663 178.171 65.9974 175.095C65.1004 171.892 66.7663 168.432 69.9699 167.278C72.0202 166.51 74.455 166.638 76.3771 167.663C77.6586 168.432 78.6837 169.457 79.4526 170.61C81.5029 173.301 82.7843 176.505 83.425 179.837C83.425 180.477 83.0406 181.118 82.528 181.502C81.8873 182.015 81.1185 182.271 80.3496 182.271C78.8119 182.528 77.4023 181.631 77.0178 180.093L77.4023 180.221Z" fill="#FFFFFE"/>
<path d="M294.862 126.017C294.99 125.376 295.118 124.735 295.247 123.966C295.375 123.197 295.503 122.685 295.503 122.044C295.503 121.66 295.631 121.275 295.631 120.891C295.631 120.25 295.759 120.122 295.631 120.378C295.503 120.635 295.631 120.506 295.631 120.25C295.631 119.994 295.631 118.969 295.631 118.969C295.503 118.584 295.247 118.2 294.99 117.943C293.453 116.79 291.787 116.021 289.993 115.509C287.174 114.74 284.354 113.843 281.663 112.69C274.744 109.486 269.874 103.079 268.593 95.5183C268.336 93.9805 268.208 92.3147 268.208 90.7769L270.515 92.0584C265.773 92.9554 256.675 91.0332 256.931 84.626C257.188 80.141 261.929 77.3218 265.645 75.9122C266.927 75.6559 268.08 74.8871 268.849 73.7338C269.618 72.0679 270.258 70.2739 270.387 68.3517C271.284 63.3541 272.052 58.4846 273.334 53.6151C273.847 52.3337 274.872 51.4367 276.025 51.0522C276.794 50.7959 278.716 50.5397 278.972 51.5648C281.023 57.5876 283.714 63.2259 287.045 68.608C292.427 77.3218 300.629 86.5482 310.88 88.0859C318.184 89.2392 324.592 86.8045 330.743 82.7038C331.768 81.935 333.69 81.038 334.843 82.0631C335.996 83.0883 334.971 84.626 334.074 85.2667C327.411 89.7518 319.978 93.0835 311.777 93.0835C305.754 92.9554 299.86 90.9051 294.99 87.317C286.276 81.038 280.254 71.299 276.025 61.6882C275 59.3816 274.103 57.075 273.206 54.6403L278.972 52.7181C277.819 56.9469 277.05 61.1756 276.409 65.4044C275.769 68.9924 275.256 72.8367 272.821 75.6559C271.54 77.1936 269.874 78.3469 268.08 79.1158C266.542 79.7565 264.364 80.5254 263.467 81.4224C262.826 81.935 262.57 82.832 262.826 83.6009C263.082 84.3697 263.595 85.1386 264.236 85.6512C265.389 86.5482 266.67 87.0608 268.08 87.1889C269.105 87.317 270.13 87.4452 271.027 87.4452C271.668 87.4452 270.643 87.4452 271.155 87.4452H271.412C272.181 87.317 273.847 87.5733 273.718 88.7266C273.206 97.3123 278.203 105.385 286.148 108.717C288.839 109.87 291.787 110.511 294.606 111.408C296.4 111.921 298.194 112.818 299.603 114.099C300.629 115.124 301.269 116.534 301.141 117.943C301.013 120.25 300.629 122.557 300.116 124.863C300.116 127.682 294.093 129.348 294.862 126.017Z" fill="#FFFFFE"/>
<path d="M320.107 98.9783C320.747 99.4908 321.132 100.132 321.516 100.9C321.773 101.926 321.516 103.079 320.876 103.976C320.491 104.488 320.107 105.001 319.722 105.514C319.21 106.154 318.569 106.795 317.8 107.308C317.416 107.692 316.775 107.82 316.262 107.82C315.494 107.692 314.853 107.18 314.725 106.411C314.725 106.282 314.725 106.026 314.725 105.898C314.725 105.514 314.853 105.257 314.853 104.873C314.981 104.232 315.237 103.72 315.622 103.207C316.006 102.566 316.391 101.926 316.903 101.285C317.159 100.9 317.416 100.644 317.8 100.388C318.056 100.132 318.313 99.8753 318.569 99.7471L319.082 99.4909C319.21 99.3627 319.466 99.3627 319.722 99.4909C319.979 99.7471 319.722 100.388 319.594 100.644C319.466 100.9 319.21 101.285 319.082 101.541L319.21 101.029C319.082 101.285 319.082 101.541 319.082 101.797V101.413C319.082 101.797 319.082 102.054 319.21 102.438L319.082 102.182C319.21 102.566 319.594 102.823 319.979 102.951H319.722C319.85 102.951 320.107 102.951 320.235 102.951L319.85 103.079L320.107 102.951L319.594 103.207L319.722 103.079L319.21 103.463C319.466 103.207 318.697 103.976 318.697 103.848C318.441 104.104 318.185 104.36 317.928 104.745C317.288 105.514 318.056 104.488 317.544 105.257C317.416 105.514 317.288 105.642 317.416 105.514L317.159 106.026C317.159 105.898 317.288 105.898 317.288 105.77L317.159 106.282C317.159 106.154 317.288 106.026 317.288 105.898V106.282C317.288 105.898 317.288 105.642 317.159 105.257L317.288 105.514C316.903 104.873 316.519 104.36 316.006 103.976C315.75 103.72 316.006 103.079 316.134 102.823C316.519 102.182 316.903 101.541 317.416 100.9C317.928 100.26 318.441 99.7471 319.082 99.3627C319.338 99.2346 319.85 98.8501 320.235 99.1064L320.107 98.9783Z" fill="#FFFFFE"/>
<path d="M88.2939 501.863C88.2939 501.863 95.47 511.73 93.1634 511.987C90.8568 512.243 33.4482 514.55 31.1416 510.321C28.835 506.092 25.5032 479.823 42.9309 468.674C60.3585 457.525 66.5094 452.912 65.8687 441.123C65.2279 429.334 71.7633 416.519 84.1933 415.494C96.6233 414.469 99.1862 418.441 98.2892 422.414C97.3922 426.386 97.0077 452.271 97.0077 452.271C100.083 458.166 99.8269 465.342 96.367 470.981C90.6005 480.848 87.3969 494.944 88.2939 501.863Z" fill="#262626"/>
<path d="M80.6067 420.107C80.6067 420.107 61.6413 415.11 60.7443 416.904C59.8473 418.698 69.9707 435.997 74.1995 434.075C78.4282 432.153 80.6067 420.107 80.6067 420.107Z" fill="#262626"/>
<path d="M43.7004 492.252C43.316 497.25 37.4214 499.428 33.0644 500.197C28.3231 501.094 23.3255 500.325 18.9686 498.147C15.2524 496.225 12.0488 493.277 9.99849 489.561C7.56376 485.333 6.92303 480.719 6.79489 475.978C6.66674 472.39 6.41049 466.367 2.18173 464.958C-1.6626 463.676 0.00326157 457.525 3.84759 458.807C8.71707 460.344 11.6644 465.086 12.5614 469.955C13.4584 475.081 12.5614 480.719 14.9961 485.589C18.7123 492.893 27.4261 496.097 35.1148 493.021C35.6273 492.765 36.1399 492.509 36.6525 492.252C37.1651 491.996 37.1651 491.74 37.1651 492.252C37.1651 490.458 38.5747 489.049 40.3687 489.049C42.2908 489.049 43.7004 490.458 43.7004 492.252Z" fill="#262626"/>
<path d="M90.9832 480.72C90.9832 480.72 131.092 413.444 118.662 413.828C106.232 414.213 87.7796 452.656 87.7796 452.656L90.9832 480.72Z" fill="#262626"/>
<path d="M104.568 429.846C99.3137 440.738 88.4215 447.786 83.2957 458.807C82.3987 460.344 80.4765 460.857 78.9388 459.96C77.4011 459.063 76.8885 457.141 77.7855 455.603C82.9113 444.583 93.8035 437.535 99.0574 426.642C99.9544 425.105 102.005 424.72 103.414 425.617C104.952 426.514 105.465 428.308 104.568 429.846Z" fill="#FFFFFE"/>
<path d="M86.3679 421.132C86.6242 421.901 86.496 422.798 86.1116 423.567C85.9835 423.952 85.7272 424.208 85.3427 424.592C84.5739 425.233 83.6769 425.746 82.7799 426.002C82.5236 426.13 82.1391 426.258 81.8828 426.386C81.8828 426.386 81.6266 426.514 81.6266 426.386L81.7547 426.258C81.8828 426.13 82.011 426.002 82.2673 426.002C82.6517 425.746 83.0361 425.617 83.4206 425.489C83.805 425.361 82.908 425.746 82.6517 425.874L82.3954 426.002C82.2673 426.002 82.2673 426.13 82.3954 426.002C82.5235 425.874 82.2673 426.13 82.2673 426.002L82.3954 425.874H82.5236L82.6517 425.746C82.908 425.489 83.0361 425.233 83.1643 424.977C83.5487 424.336 83.5487 423.439 83.2924 422.67C83.2924 422.542 83.6768 422.414 83.6768 422.414C84.0613 422.158 84.3176 422.029 84.702 421.901C84.9583 421.517 86.3679 420.748 86.3679 421.132Z" fill="#FFFFFE"/>
</svg>
