<svg width="429" height="433" viewBox="0 0 429 433" fill="none" xmlns="http://www.w3.org/2000/svg">
<path d="M354.322 119.122C324.342 57.9633 273.577 52.667 257.388 52.667V1.80176C273.577 2.00162 289.666 4.69977 304.956 9.89622C333.536 19.4897 373.309 42.374 399.891 96.7368C424.774 147.302 419.377 206.862 386.3 253.43L344.129 224.949C367.113 193.471 371.011 153.198 354.322 119.122Z" fill="#F5EE30"/>
<path d="M352.622 120.92C343.029 101.533 329.438 83.9455 311.351 71.8538C299.159 63.7593 285.468 58.2631 270.978 55.8647C265.982 55.0653 260.985 54.5656 255.888 54.5656C255.789 54.5656 255.689 54.4657 255.589 54.3657C255.589 54.3657 255.589 54.3657 255.589 54.2658V3.50052C255.589 2.40127 257.687 -0.0970199 258.886 0.00291172C279.872 0.202775 300.558 4.6997 319.645 13.1939C336.433 20.5888 351.723 30.8818 364.814 43.673C382.202 60.5615 395.993 80.8476 405.286 103.232C414.78 125.917 418.677 150.6 416.479 175.183C414.18 200.066 405.986 223.95 392.695 245.035C390.996 247.734 389.297 250.332 387.498 252.83C387.199 253.33 385.4 255.828 384.501 255.228L370.31 245.635L347.626 230.345L342.429 226.848C342.13 226.648 342.729 225.749 342.829 225.549C351.423 213.857 357.419 200.466 360.517 186.276C365.314 164.191 362.516 141.206 352.622 120.92C352.023 119.721 355.82 116.823 356.02 117.223C362.416 130.414 365.913 144.804 366.313 159.394C366.613 173.984 363.815 188.574 358.119 202.065C354.821 209.959 350.524 217.454 345.527 224.449L345.927 223.15L360.117 232.744L382.802 248.033L387.998 251.531L385 253.929C399.49 233.643 408.784 210.259 412.182 185.576C415.479 161.393 412.881 136.809 404.687 113.925C396.093 91.0406 383.101 70.055 366.413 52.2672C353.522 38.6765 338.232 27.4841 321.344 19.1898C302.756 10.1959 282.67 4.99949 261.984 3.90024C259.886 3.80031 257.887 3.70038 255.789 3.70038L259.086 0.202776V50.9681L258.786 50.7682C269.579 50.8681 280.272 52.7668 290.465 56.2644C307.053 61.9605 321.843 71.7538 333.735 84.5451C342.629 94.3384 350.124 105.331 355.92 117.223C356.62 118.422 352.822 121.32 352.622 120.92Z" fill="#F5EE30"/>
<path d="M111.087 97.5362C139.967 33.1802 202.424 5.99881 247.393 2.30134C250.791 2.00154 254.089 1.90161 257.486 1.90161V52.6669H257.187C254.788 52.6669 253.189 52.7668 252.59 52.8668L251.79 52.9667C220.712 55.5649 177.241 74.1522 157.355 118.422C147.861 139.408 145.663 177.182 163.051 210.559C164.25 212.957 165.549 215.156 166.948 217.354L132.972 257.427C127.275 250.132 122.279 242.337 117.982 234.143C96.0968 191.872 93.2987 137.109 111.087 97.5362Z" fill="white"/>
<path d="M108.59 97.0366C114.286 84.3453 121.581 72.4534 130.475 61.6608C138.67 51.6676 148.063 42.6738 158.456 34.8791C168.15 27.684 178.443 21.4883 189.435 16.3917C199.628 11.695 210.221 7.89755 221.113 5.1994C230.907 2.70111 240.9 1.20213 250.893 0.702473C252.892 0.602541 254.99 0.602539 256.989 0.602539C257.988 0.602539 259.887 1.20213 259.887 2.40131V53.1666C259.887 53.966 258.288 53.966 257.888 53.966C252.492 54.066 247.096 54.5656 241.799 55.7648C235.703 56.964 229.807 58.6628 224.011 60.7614C211.22 65.3583 199.328 72.1536 188.835 80.8477C177.043 90.641 167.55 102.933 160.954 116.723C154.759 129.814 152.46 144.504 152.76 158.994C152.96 176.882 157.357 194.57 165.651 210.459C166.85 212.757 168.15 214.956 169.449 217.055C169.649 217.354 169.748 217.754 169.549 218.054L158.056 231.545L139.869 253.13L135.672 258.126C134.672 259.226 131.974 258.626 131.175 257.527C116.985 239.139 106.991 217.954 101.895 195.369C96.8983 174.084 95.9989 151.999 99.1967 130.414C100.596 118.922 103.894 107.729 108.59 97.0366C109.39 95.4377 114.087 96.6369 113.487 98.1358C104.993 117.123 101.595 138.308 101.895 158.994C102.195 180.979 106.692 202.764 115.286 223.05C120.482 235.242 127.278 246.734 135.372 257.127L130.875 256.528L142.367 243.037L160.655 221.452L164.852 216.455L164.952 217.454C155.158 201.465 149.362 183.278 148.163 164.49C147.164 149.601 148.563 133.911 154.259 119.921C160.255 105.531 169.349 92.5397 180.941 82.1468C200.627 64.4589 225.51 53.7662 251.892 51.4678C253.691 51.2679 255.49 51.2679 257.289 51.2679L255.29 52.0673V1.40199L258.188 3.20076C247.895 3.3007 237.702 4.49987 227.809 6.89823C205.724 11.8948 184.838 21.1885 166.351 34.2795C156.058 41.5745 146.664 49.9688 138.47 59.4623C129.576 69.6553 122.081 80.9476 116.085 93.1393C115.286 94.7382 114.486 96.437 113.787 98.0359C113.087 99.6348 107.991 98.4356 108.59 97.0366Z" fill="#F5EE30"/>
<path d="M241.298 264.722C281.67 272.217 318.745 258.426 342.928 226.648C343.328 226.048 343.828 225.449 344.227 224.849L386.399 253.33C385.399 254.729 384.4 256.028 383.401 257.427C353.921 296.2 310.151 317.486 262.483 317.486C252.29 317.486 242.097 316.486 232.004 314.588C182.638 305.394 151.959 281.311 133.172 257.127L167.148 217.054C182.738 242.437 207.621 258.526 241.298 264.722Z" fill="#262626"/>
<path d="M242.099 262.423C257.088 265.321 272.478 265.022 287.368 261.624C301.358 258.226 314.449 251.631 325.542 242.337C332.137 236.841 338.033 230.545 343.03 223.55C343.429 222.95 344.629 222.251 345.328 222.751L359.618 232.344L382.203 247.634L387.399 251.131C388.698 252.031 387.999 253.729 387.299 254.629C375.707 270.818 361.217 284.708 344.529 295.601C328.44 305.994 310.552 313.189 291.865 316.886C270.379 320.983 248.294 320.684 227.009 316.187C207.422 312.09 188.335 305.194 171.247 294.701C157.457 286.307 145.165 275.614 134.772 263.323C133.673 261.924 132.574 260.625 131.474 259.226C130.775 258.326 131.274 256.727 131.974 255.928L143.466 242.337L161.654 220.752L165.851 215.755C166.35 215.156 167.849 214.156 168.549 215.256C174.445 224.849 182.04 233.343 190.834 240.339C200.027 247.434 210.22 252.93 221.113 256.827C228.008 259.226 234.904 261.124 242.099 262.423C244.497 262.823 242.598 267.42 240.5 267.02C216.616 262.523 193.832 252.33 177.143 234.343C172.746 229.646 168.849 224.449 165.451 219.053L168.149 218.553L156.657 232.144L138.47 253.729L134.272 258.726L134.772 255.428C144.266 267.52 155.558 278.113 168.349 286.807C184.338 297.4 201.926 305.194 220.613 309.791C241.799 315.187 263.984 316.886 285.669 313.688C304.156 310.99 322.044 304.794 338.233 295.501C354.622 285.907 369.012 273.316 380.704 258.426C382.303 256.428 383.902 254.329 385.401 252.131L385.301 255.628L371.011 246.035L348.326 230.745L343.13 227.148L345.428 226.348C336.334 239.039 324.442 249.532 310.752 257.027C297.461 264.222 282.671 268.319 267.581 269.019C258.587 269.419 249.494 268.819 240.7 267.12C238.101 266.621 240 262.024 242.099 262.423Z" fill="#262626"/>
<path d="M348.024 94.1387H426.57V148.901H348.024V94.1387Z" fill="white"/>
<path d="M349.424 92.4399H427.971C428.37 92.4399 428.67 92.7397 428.67 93.0395V147.802C428.67 149.401 426.372 150.6 425.073 150.6H346.526C346.126 150.6 345.827 150.3 345.827 150.001V95.238C345.827 94.1388 347.026 93.2394 347.925 92.8397C348.425 92.6398 350.224 92.0402 350.224 93.0395V147.802L349.524 147.202H427.971L424.373 150.001V95.238L425.073 95.8376H346.526C345.327 95.8376 345.927 94.4386 346.326 94.0389C347.126 93.0395 348.225 92.4399 349.424 92.4399Z" fill="#262626"/>
<path d="M386.598 109.528C389.696 108.229 393.693 108.828 394.892 112.426C395.891 115.824 394.093 119.221 391.994 121.62C390.695 123.119 389.296 124.418 387.897 125.817C386.798 126.916 385.698 128.415 386.898 129.914C387.897 131.213 389.796 131.513 391.295 131.813C393.493 132.213 395.692 132.512 397.99 132.612C398.789 132.612 397.091 134.211 396.991 134.311C396.191 135.011 395.192 135.51 394.093 135.51C391.994 135.41 389.896 135.21 387.897 134.811C386.398 134.611 384.899 134.111 383.6 133.312C380.302 131.013 383.6 127.616 385.598 125.717C387.997 123.319 390.795 120.82 390.995 117.123C391.195 115.524 390.595 113.925 389.396 112.826C388.297 111.826 386.798 111.427 385.299 111.826C384.799 112.026 383.6 112.426 384 111.427C384.399 110.427 385.798 109.828 386.598 109.528Z" fill="#262626"/>
<path d="M393.693 104.632V109.728C393.594 110.328 393.294 110.927 392.894 111.427C392.494 111.927 391.895 112.226 391.295 112.326C390.795 112.426 390.296 112.326 389.896 112.027L389.596 111.627C389.496 111.327 389.396 110.927 389.396 110.627V105.531C389.496 104.931 389.796 104.332 390.196 103.832C390.596 103.332 391.195 103.033 391.795 102.933C392.294 102.833 392.794 102.933 393.194 103.233L393.494 103.632C393.693 103.932 393.693 104.332 393.693 104.632Z" fill="#262626"/>
<path d="M392.594 134.711V138.309C392.594 138.608 392.494 138.808 392.294 139.108C392.194 139.408 391.994 139.608 391.694 139.808C391.495 140.007 391.195 140.207 390.895 140.307C390.595 140.407 390.196 140.507 389.896 140.507C389.296 140.507 388.697 140.307 388.197 140.007L387.797 139.608C387.597 139.308 387.497 138.908 387.497 138.508V134.911C387.497 134.611 387.597 134.411 387.797 134.111C387.897 133.812 388.097 133.612 388.397 133.412C388.597 133.212 388.896 133.012 389.196 132.912C389.496 132.812 389.896 132.712 390.196 132.712C390.795 132.712 391.395 132.912 391.894 133.212L392.294 133.612C392.494 134.012 392.594 134.411 392.594 134.711Z" fill="#262626"/>
<path d="M288.565 272.217H367.111V326.979H288.565V272.217Z" fill="white"/>
<path d="M289.265 269.918H367.812C368.811 269.918 369.311 270.917 369.311 271.817V326.579C369.111 328.078 367.912 329.177 366.413 329.277H287.866C286.867 329.277 286.367 328.278 286.367 327.379V272.616C286.367 270.118 290.764 268.619 290.764 271.817V326.579L289.265 324.681H367.812L364.914 327.379V272.616L366.413 274.415H287.866C286.667 274.415 286.168 273.016 286.467 272.017C286.867 270.817 287.966 270.018 289.265 269.918Z" fill="#F5EE30"/>
<path d="M349.624 305.394C348.026 303.495 346.227 301.696 344.428 299.997C343.529 299.198 342.629 298.399 341.73 297.599L340.331 296.5C340.131 296.3 338.832 295.501 339.431 295.501L341.23 294.901C340.83 295.201 340.431 295.6 340.031 296.1L338.432 297.599C337.333 298.698 336.234 299.798 335.134 300.797C333.036 302.895 331.037 305.094 329.039 307.292C328.439 307.992 325.341 309.791 324.542 308.592L319.645 301.297C318.046 298.998 316.647 296.3 314.748 294.201C314.648 294.101 314.149 293.802 314.149 293.702C314.249 294.201 316.747 292.103 316.047 293.202C315.648 293.802 315.148 294.301 314.648 294.801C313.749 295.9 312.85 296.999 311.85 298.099C309.952 300.397 308.153 302.696 306.454 305.094C305.655 305.993 304.555 306.493 303.356 306.593C302.856 306.693 301.457 306.693 302.057 305.793C304.156 302.995 306.354 300.197 308.553 297.499C310.751 294.801 312.95 291.503 316.647 291.104C318.246 291.004 318.945 291.903 319.845 293.102L322.843 297.499L328.939 306.593L324.442 307.892C326.74 305.394 329.039 302.895 331.437 300.397C332.636 299.198 333.835 297.999 335.034 296.9C336.134 295.6 337.533 294.501 339.032 293.702C340.531 293.002 342.23 292.603 343.629 293.702C344.828 294.601 346.027 295.6 347.226 296.7C349.624 298.798 351.823 301.097 353.922 303.595C354.821 304.195 350.624 306.593 349.624 305.394Z" fill="#F5EE30"/>
<path d="M340.431 298.199C338.223 298.199 336.433 296.409 336.433 294.202C336.433 291.994 338.223 290.204 340.431 290.204C342.638 290.204 344.428 291.994 344.428 294.202C344.428 296.409 342.638 298.199 340.431 298.199Z" fill="#262626"/>
<path d="M340.431 298.598C342.929 298.598 344.928 296.6 344.928 294.101C344.928 291.603 342.929 289.604 340.431 289.604C337.933 289.604 335.934 291.603 335.934 294.101C336.034 296.6 338.033 298.598 340.431 298.598ZM340.431 290.704C342.33 290.704 343.929 292.203 343.929 294.201C343.929 296.1 342.43 297.699 340.431 297.699C338.532 297.699 336.933 296.2 336.933 294.201C337.033 292.303 338.532 290.704 340.431 290.704Z" fill="#262626"/>
<path d="M316.347 295.201C314.139 295.201 312.349 293.411 312.349 291.204C312.349 288.996 314.139 287.206 316.347 287.206C318.554 287.206 320.344 288.996 320.344 291.204C320.344 293.411 318.554 295.201 316.347 295.201Z" fill="#262626"/>
<path d="M316.347 295.7C318.845 295.7 320.844 293.702 320.844 291.203C320.844 288.705 318.845 286.707 316.347 286.707C313.849 286.707 311.85 288.705 311.85 291.203C311.85 293.702 313.849 295.7 316.347 295.7ZM316.347 287.806C318.246 287.806 319.845 289.305 319.845 291.303C319.845 293.202 318.346 294.801 316.347 294.801C314.448 294.801 312.849 293.302 312.849 291.303C312.849 289.305 314.348 287.806 316.347 287.806Z" fill="#262626"/>
<path d="M327.04 309.791C324.832 309.791 323.043 308.001 323.043 305.794C323.043 303.586 324.832 301.796 327.04 301.796C329.248 301.796 331.037 303.586 331.037 305.794C331.037 308.001 329.248 309.791 327.04 309.791Z" fill="#262626"/>
<path d="M327.04 310.191C329.539 310.191 331.537 308.192 331.537 305.694C331.537 303.195 329.539 301.197 327.04 301.197C324.542 301.197 322.543 303.195 322.543 305.694C322.543 308.192 324.542 310.191 327.04 310.191ZM327.04 302.296C328.939 302.296 330.538 303.795 330.538 305.794C330.538 307.692 329.039 309.291 327.04 309.291C325.142 309.291 323.543 307.792 323.543 305.794C323.543 303.895 325.142 302.296 327.04 302.296Z" fill="#262626"/>
<path d="M106.29 23.2871H209.02V94.9381H106.29V23.2871Z" fill="#F5EE30"/>
<path d="M107.19 21.1885H205.723C207.022 21.1885 208.421 21.0885 209.72 21.1885H209.92C210.619 21.1885 211.119 21.788 211.219 22.4876V94.1386C211.219 95.8374 209.82 97.1365 208.121 97.1365H109.588C108.289 97.1365 106.89 97.2365 105.591 97.1365H105.391C104.692 97.1365 104.192 96.5369 104.092 95.8374V24.1864C104.092 22.8873 104.892 21.788 106.091 21.3883C106.99 21.0885 108.489 21.2884 108.489 22.4876V94.1386L107.19 92.8395H205.723C207.022 92.8395 208.421 92.7395 209.72 92.8395H209.92L206.822 95.8374V24.1864L208.121 25.4855H109.588C108.289 25.4855 106.89 25.5854 105.591 25.4855H105.391C104.192 25.4855 103.992 23.9865 104.292 23.0872C104.892 21.888 105.991 21.1885 107.19 21.1885Z" fill="#F5EE30"/>
<path d="M172.447 57.4636H190.834V84.0455H172.447V57.4636Z" fill="white"/>
<path d="M174.544 56.2644H192.931H193.031V82.8462C193.031 83.246 191.532 83.9455 191.233 84.0454C190.433 84.5451 189.534 84.8449 188.634 85.0447H170.247H170.147V58.4629C170.147 57.9632 171.846 57.2637 172.246 57.0639C173.045 56.7641 173.844 56.4643 174.644 56.2644V80.6477C174.544 81.3473 174.544 82.1467 174.644 82.8462C174.844 82.9462 175.044 82.8462 175.144 82.8462H192.931L188.534 85.0447V60.7613C188.534 60.2617 188.734 58.9626 188.534 58.5628C188.734 58.6628 188.534 58.4629 188.534 58.5628C188.335 58.5628 188.235 58.5628 188.035 58.5628H170.247C169.847 58.5628 171.546 57.5635 171.646 57.4636C172.545 56.864 173.545 56.4643 174.544 56.2644Z" fill="#F5EE30"/>
<path d="M148.662 46.3711H167.049V83.4457H148.662V46.3711Z" fill="white"/>
<path d="M150.761 45.1719H169.148H169.248V82.2465C169.248 82.7462 167.749 83.3458 167.449 83.4457C166.65 83.9454 165.751 84.2452 164.851 84.445H146.464H146.364V47.3704C146.364 46.8707 148.063 46.1712 148.462 45.9713C149.262 45.5716 150.061 45.3717 150.861 45.1719V80.6476C150.861 81.0473 150.861 81.547 150.861 81.9467C150.861 82.3465 150.761 82.1466 150.861 82.2465C151.46 82.3465 151.96 82.3465 152.56 82.2465H169.148L164.751 84.445V47.6702C164.751 47.3704 164.851 47.4703 164.751 47.3704C164.152 47.2704 163.652 47.2704 163.052 47.3704H146.464C146.064 47.3704 147.763 46.2711 147.863 46.2711C148.762 45.7715 149.761 45.3717 150.761 45.1719Z" fill="#F5EE30"/>
<path d="M122.779 36.8774H141.166V81.7468H122.779V36.8774Z" fill="white"/>
<path d="M124.978 35.7783H143.365H143.465V80.6476C143.465 81.0474 141.966 81.7469 141.666 81.8468C140.867 82.3465 139.967 82.7462 139.068 82.8461H120.681H120.581V37.9768C120.581 37.4772 122.279 36.7776 122.679 36.5778C123.479 36.278 124.278 35.9782 125.078 35.7783V76.9502C124.978 78.1493 124.978 79.2486 125.078 80.4478C125.078 80.7476 124.878 80.5477 125.277 80.6476C126.077 80.6476 126.976 80.6476 127.776 80.6476H143.365L138.968 82.8461V41.6743C139.068 40.4751 139.068 39.3759 138.968 38.1767C138.968 37.8769 139.168 38.0767 138.768 37.9768C137.969 37.9768 137.069 37.9768 136.27 37.9768H120.681C120.281 37.9768 121.98 36.9775 122.08 36.8776C122.979 36.3779 123.878 35.9782 124.978 35.7783Z" fill="#F5EE30"/>
<path d="M176.343 393.534C190.534 395.633 204.524 388.138 210.62 375.147C219.814 355.66 235.403 323.682 240.699 318.785C248.794 311.29 282.97 295.001 282.271 286.807C281.571 278.613 265.982 282.11 261.685 286.607C261.685 286.607 268.58 274.715 254.39 268.819C254.39 268.819 250.493 255.828 238.301 256.528C229.707 257.027 231.605 266.521 236.602 270.518C241.998 274.915 238.501 287.507 227.508 287.007C214.017 286.407 214.017 276.914 220.213 269.719C222.512 267.22 222.911 263.523 221.213 260.625C217.715 255.029 210.62 258.926 202.026 269.219C193.332 279.712 201.226 298.399 208.221 301.197L180.54 351.663L116.984 303.596L91.6012 338.871C91.6012 338.971 142.366 388.537 176.343 393.534Z" fill="white"/>
<path d="M176.942 391.135C188.035 392.834 199.227 388.138 205.823 379.044C207.921 376.246 209.22 372.948 210.719 369.85C217.015 356.659 223.311 343.468 230.406 330.677C232.704 326.48 235.103 321.883 238.301 318.185C240.999 314.988 245.096 312.789 248.494 310.591C253.59 307.393 258.886 304.195 263.983 300.997C266.481 299.398 268.98 297.799 271.378 296.001C272.477 295.201 273.576 294.402 274.576 293.502L275.875 292.403L276.574 291.803C276.574 291.803 276.874 291.504 276.674 291.703C276.474 291.903 276.874 291.504 276.874 291.504C277.574 290.804 278.273 290.105 278.873 289.305C278.973 289.105 279.073 289.005 279.273 288.805C279.472 288.606 278.973 289.305 279.173 289.005L279.372 288.805C279.572 288.506 279.672 288.106 279.872 287.806C279.872 287.706 279.972 287.506 279.972 287.406C279.972 287.706 279.772 288.106 279.972 287.406C279.972 287.107 280.072 287.406 279.872 287.007C279.872 286.807 279.772 286.507 279.672 286.307C279.772 286.707 279.572 286.107 279.472 285.907C279.372 285.807 279.372 285.708 279.273 285.608C279.572 285.907 279.372 285.708 279.273 285.608C279.073 285.408 278.873 285.308 278.673 285.108C278.573 285.108 278.373 284.908 278.673 285.108L278.273 284.908L277.474 284.608C277.074 284.408 276.574 284.309 276.075 284.309C274.876 284.109 273.676 284.109 272.477 284.309C269.879 284.608 267.381 285.408 265.082 286.607C264.583 286.807 265.082 286.607 264.782 286.807C264.483 287.007 264.283 287.107 264.083 287.306C263.883 287.506 263.683 287.606 263.483 287.806L263.283 288.006C263.683 287.606 262.984 288.206 263.283 288.006C262.584 288.905 261.285 289.205 260.285 288.606C259.386 287.906 259.086 286.707 259.686 285.708C259.786 285.408 259.986 285.208 260.086 284.908C260.186 284.708 260.485 283.709 260.285 284.508C260.385 284.109 260.585 283.709 260.685 283.209C260.785 282.71 260.885 282.31 260.985 281.91C261.085 281.311 260.985 282.11 261.085 281.51C261.085 281.211 261.085 280.911 261.085 280.611C261.185 279.512 260.985 278.313 260.485 277.313C260.485 277.113 260.385 276.914 260.285 276.814C260.086 276.514 259.986 276.214 259.786 276.014C259.386 275.415 258.986 274.915 258.487 274.415C257.088 273.116 255.489 272.117 253.79 271.317C252.891 270.918 252.191 270.218 251.991 269.219C251.891 269.019 251.791 268.719 251.691 268.419C251.591 268.12 251.891 268.819 251.691 268.319C251.591 268.12 251.492 267.82 251.392 267.62C248.993 262.723 244.896 258.826 239 258.826C237.701 258.726 236.402 259.026 235.403 259.825C235.802 259.525 235.303 260.025 235.203 260.125C235.502 259.625 235.103 260.325 235.103 260.525C235.303 260.025 235.003 260.924 235.003 261.024C235.003 261.124 234.903 261.524 235.003 261.224C235.103 260.925 235.003 261.524 235.003 261.624C235.103 264.222 236.302 266.621 238.201 268.319C240.399 270.118 241.698 272.816 241.798 275.714C241.798 278.812 240.799 281.81 238.9 284.309C236.802 287.007 233.704 288.805 230.306 289.305C226.409 289.905 222.411 289.205 218.914 287.306C216.216 285.807 214.417 283.009 214.217 279.912C214.117 276.914 214.917 273.916 216.615 271.417C217.515 269.918 219.014 268.519 219.713 266.92C220.513 265.222 220.313 263.323 219.314 261.824C219.014 261.424 218.714 261.124 218.314 260.825C218.614 261.024 218.014 260.625 218.314 260.825C218.214 260.725 218.014 260.725 217.914 260.625L217.515 260.525C217.815 260.625 217.615 260.525 217.415 260.525C217.315 260.525 217.115 260.525 217.015 260.525C216.615 260.525 217.515 260.425 216.915 260.525C216.615 260.525 216.316 260.625 216.016 260.625C215.916 260.625 215.616 260.725 215.916 260.625L215.416 260.825C215.016 260.925 214.617 261.124 214.217 261.324C210.819 263.023 207.622 266.521 205.023 269.419C202.525 272.017 201.026 275.415 200.826 279.012C200.626 282.51 201.126 286.107 202.325 289.405C203.324 292.303 204.923 294.901 207.022 297.2C207.422 297.599 207.921 297.999 208.421 298.399L208.721 298.599C208.621 298.599 208.421 298.399 208.721 298.599C209.021 298.799 209.32 298.899 209.62 298.998C210.719 299.598 211.119 300.897 210.52 301.996C210.52 301.996 210.52 302.096 210.42 302.096L201.026 319.185L186.136 346.366L182.739 352.562C182.139 353.761 180.64 354.361 179.441 353.761C179.341 353.661 179.241 353.661 179.141 353.561L157.656 337.372L123.479 311.49L115.684 305.594L118.982 305.094L110.388 316.986L96.6974 336.073L93.5995 340.47V337.072C99.6953 342.968 106.091 348.565 112.686 354.061C125.478 364.654 138.968 374.847 153.758 382.541C160.754 386.539 168.748 389.936 176.942 391.135C180.04 391.635 178.541 396.232 175.743 395.832C168.149 394.733 160.853 391.835 153.958 388.437C146.164 384.44 138.569 379.943 131.374 374.947C119.182 366.452 107.49 357.159 96.4975 347.066C94.299 345.067 92.0006 342.968 89.8021 340.87C88.9027 339.97 88.9027 338.471 89.8021 337.572L98.3962 325.68L112.087 306.593L115.185 302.196C115.984 301.197 117.383 300.997 118.482 301.697L140.068 318.085L174.344 343.968L182.139 349.864L178.541 350.863L187.835 333.775L202.725 306.593L206.123 300.397L207.022 303.495C201.825 301.397 198.828 295.101 197.229 290.204C195.23 283.809 195.03 276.314 198.528 270.418C200.926 266.721 203.824 263.423 207.322 260.625C209.72 258.526 212.518 256.527 215.816 255.928C218.414 255.428 221.012 256.428 222.611 258.526C225.11 261.824 225.209 266.321 222.911 269.818C222.411 270.618 221.812 271.317 221.212 272.017C220.812 272.517 220.513 272.916 220.213 273.516C219.613 274.515 219.114 275.614 218.814 276.714C218.714 277.014 218.714 277.313 218.614 277.613C218.614 277.613 218.514 278.013 218.614 277.713C218.714 277.413 218.614 277.913 218.614 277.913C218.614 278.213 218.614 278.413 218.614 278.712C218.614 279.012 218.614 279.012 218.614 279.112C218.614 279.512 218.614 279.012 218.614 279.212C218.714 280.211 219.114 281.111 219.813 281.81C219.613 281.51 220.013 282.01 220.113 282.11C220.313 282.31 220.613 282.51 220.812 282.71C221.312 283.009 221.812 283.309 222.311 283.509C223.81 284.109 225.409 284.508 227.008 284.608C229.906 284.908 232.305 284.408 234.303 282.61C234.603 282.31 234.103 282.81 234.303 282.61L234.603 282.21C234.803 282.01 235.003 281.81 235.203 281.61C235.403 281.41 235.403 281.311 235.502 281.211C235.403 281.311 235.303 281.61 235.502 281.211C235.702 280.911 235.802 280.711 236.002 280.411C236.202 280.011 236.402 279.612 236.502 279.112C236.602 278.812 236.602 278.612 236.702 278.313C236.802 278.013 236.702 278.013 236.802 277.813C236.901 277.413 236.802 277.913 236.802 277.613C237.001 276.614 236.901 275.614 236.502 274.615C236.302 273.816 235.802 273.116 235.203 272.617C231.405 269.119 228.108 263.023 231.205 258.026C234.903 252.131 243.797 253.629 248.793 256.927C252.291 259.426 254.989 263.023 256.388 267.12C256.488 267.32 256.588 267.62 256.688 267.82L255.589 266.521C261.085 268.819 265.582 273.016 265.782 279.312C265.882 282.11 265.182 284.908 263.783 287.406L260.086 285.108C264.183 281.111 270.778 279.212 276.374 279.512C279.073 279.612 281.771 280.511 283.37 282.71C284.769 284.708 284.969 287.207 283.969 289.405C283.07 291.304 281.771 292.903 280.272 294.302C278.273 296.2 276.075 297.999 273.876 299.598C268.68 303.395 263.184 306.693 257.787 309.991C252.99 312.789 248.294 315.787 243.797 319.085C243.397 319.385 243.097 319.684 242.698 319.984L242.298 320.384C241.698 320.883 242.598 319.984 242.198 320.484C241.798 320.983 241.199 321.583 240.699 322.283C240.399 322.682 240.099 323.082 239.899 323.482C239.7 323.881 240.199 323.082 239.899 323.382L239.7 323.682L239.2 324.481C238.5 325.58 237.801 326.68 237.101 327.879C229.507 340.77 223.011 354.361 216.615 367.851C215.016 371.149 213.617 374.547 211.919 377.745C209.92 381.442 207.222 384.84 204.024 387.638C197.928 392.934 190.233 396.032 182.139 396.332C180.04 396.432 177.942 396.332 175.843 396.032C172.745 395.433 174.244 390.836 176.942 391.135Z" fill="#262626"/>
<path d="M246.195 289.705C246.495 288.706 246.994 287.806 247.594 286.907C248.493 285.308 249.393 283.709 250.092 282.01C251.791 278.113 253.29 273.616 251.791 269.419C251.191 267.62 255.988 266.521 256.688 268.419C258.187 272.717 256.788 277.513 255.089 281.511C254.289 283.409 253.39 285.208 252.39 287.007C252.091 287.606 251.691 288.206 251.391 288.806C251.291 289.005 251.191 289.205 251.091 289.405C251.091 289.405 251.191 289.105 251.091 289.505C250.792 291.304 245.795 291.804 246.195 289.705Z" fill="#262626"/>
<path d="M254.589 292.903L258.786 286.907L259.385 286.007C259.685 285.708 260.185 285.508 260.585 285.508C261.184 285.408 261.884 285.508 262.483 285.608C263.083 285.808 264.582 286.407 263.982 287.207L259.785 293.202L259.186 294.102C258.886 294.402 258.386 294.601 257.986 294.601C257.387 294.701 256.687 294.601 256.088 294.502C255.488 294.302 253.989 293.702 254.589 292.903Z" fill="#262626"/>
<path d="M59.3227 207.561C59.3227 207.561 75.1119 214.456 86.1044 208.86C97.0968 203.264 116.584 189.174 124.178 199.067C131.773 208.96 118.782 219.853 108.489 222.551C108.489 222.551 124.678 250.532 111.387 266.421C98.0961 282.31 87.7033 281.411 92.2002 293.802C92.2002 293.802 80.6081 324.181 67.8169 302.896C65.8182 299.598 37.0379 260.525 56.9243 234.343C56.8244 234.343 68.6163 220.452 59.3227 207.561Z" fill="white"/>
<path d="M61.3212 206.062C66.1179 208.161 71.3143 209.36 76.6107 209.46C80.4081 209.66 84.2055 208.76 87.6032 206.962C90.4013 205.463 93.799 203.464 96.7969 201.865C103.193 198.368 110.488 194.27 117.982 194.17C120.88 193.971 123.679 195.07 125.777 197.168C128.275 199.867 129.275 203.664 128.275 207.162C127.076 211.459 123.878 214.856 120.481 217.554C116.583 220.652 112.186 222.851 107.39 224.15L110.687 221.352C113.286 225.849 115.284 230.645 116.683 235.642C119.182 244.136 120.281 254.029 115.984 262.224C114.585 264.722 112.786 267.021 110.787 269.119C108.689 271.418 106.49 273.516 104.092 275.515C102.293 277.114 100.295 278.613 98.4957 280.112C97.2966 281.011 96.0974 282.11 95.0981 283.21C92.9995 285.908 93.2993 289.006 94.2986 292.303C94.6983 293.602 93.3992 295.401 92.8996 296.5C90.1015 302.097 86.3041 308.092 80.4081 310.891C77.4101 312.29 74.1124 312.49 71.3143 310.591C68.5163 308.692 66.9173 305.994 65.1186 303.296C57.124 291.204 50.1288 277.913 48.2301 263.323C47.0309 253.83 48.5299 244.236 53.9262 236.242C55.3252 234.243 56.7243 232.244 57.9235 230.146C60.2219 226.049 61.1213 221.252 60.6216 216.555C60.122 213.757 59.0227 211.059 57.3239 208.76C56.6244 207.661 60.8215 204.963 61.621 206.162C65.6182 211.858 66.018 218.654 63.7195 225.149C62.4204 228.547 60.6216 231.645 58.4231 234.543C51.2281 244.436 51.0282 257.227 54.0261 268.62C56.5244 278.313 61.0214 287.507 66.3178 296.001C67.5169 297.999 68.916 299.898 70.1152 301.897C71.4143 304.295 73.313 306.394 75.6114 307.893C76.3109 308.392 77.1104 308.692 78.0097 308.792C78.4095 308.892 78.8092 308.892 79.2089 308.892L80.0084 308.792L80.4081 308.692C80.508 308.692 80.8078 308.492 80.3082 308.692C80.4081 308.692 80.508 308.592 80.508 308.592C80.608 308.592 80.7079 308.492 80.7079 308.492C80.2083 308.792 80.508 308.592 80.608 308.492C80.7079 308.392 81.3075 307.993 80.8078 308.392L81.3075 307.993C81.4074 307.893 81.9071 307.493 81.5074 307.793C81.9071 307.493 82.2069 307.093 82.6066 306.793C82.8065 306.594 83.1063 306.294 83.3061 306.094C83.7059 305.694 84.0057 305.294 84.3055 304.795C84.8051 304.095 85.4047 303.296 85.8044 302.596C87.3034 300.098 88.6025 297.6 89.7018 294.902L89.9016 294.402V295.001C89.1021 292.703 88.4026 290.105 89.0022 287.607C89.7017 285.408 90.9009 283.509 92.6997 281.91C94.7983 279.812 97.1966 278.113 99.495 276.214C102.593 273.716 105.491 271.018 108.089 268.02C110.388 265.522 112.186 262.624 113.186 259.426C114.085 256.428 114.385 253.33 114.285 250.232C113.985 244.236 112.686 238.34 110.488 232.844C109.288 229.646 107.889 226.648 106.29 223.75C105.991 223.251 106.89 222.451 107.19 222.251C107.889 221.652 108.689 221.252 109.588 220.952C115.584 219.353 122.779 214.556 124.078 208.061C124.678 204.663 123.379 201.266 120.88 199.067C118.782 197.468 116.184 196.869 113.685 197.268C107.09 197.968 100.694 201.765 94.9981 205.063C92.0002 206.762 89.0022 208.461 86.0043 210.06C82.4067 211.858 78.4095 212.658 74.3123 212.658C68.5163 212.658 62.8201 211.359 57.4238 209.06C56.3246 208.461 59.9221 205.463 61.3212 206.062Z" fill="#262626"/>
<path d="M46.6314 284.509C46.6314 284.509 36.1386 298.299 28.344 292.803C20.5493 287.307 30.4425 282.31 30.4425 282.31C30.4425 282.31 9.15707 275.315 20.6492 262.124C20.6492 262.124 0.762802 259.725 1.56226 242.437C2.36171 225.149 25.1461 218.154 25.1461 218.154C25.1461 218.154 12.255 202.565 27.6444 193.771C43.0339 184.977 47.1311 197.368 47.1311 197.368C47.1311 197.368 56.8245 191.672 61.4213 196.968C66.0182 202.265 61.0216 209.66 61.0216 209.66C61.0216 209.66 70.8149 227.348 56.9244 234.443L60.7218 263.223C60.7218 263.223 70.4152 267.22 71.7143 278.113C73.0134 289.005 53.9265 295.101 46.6314 284.509Z" fill="#262626"/>
<path d="M47.2301 285.608C44.2321 289.505 40.4347 293.303 35.8379 295.301C33.0398 296.6 29.742 296.8 27.1438 295.001C25.5449 294.002 24.3457 292.503 23.946 290.704C23.7461 288.806 24.1459 287.007 25.1452 285.408C26.5442 283.209 28.5428 281.311 30.9412 280.211L29.3423 284.608C23.2465 282.61 15.3519 277.813 15.8515 270.518C16.0514 266.821 18.05 263.423 20.4484 260.625L19.8488 264.522C12.4539 263.623 4.35941 259.326 1.36146 252.131C-1.13683 245.835 -0.03759 238.54 3.36009 232.744C6.5579 227.547 11.0548 223.25 16.3512 220.352C19.2492 218.554 22.447 217.155 25.6448 216.055L23.7461 220.252C19.549 215.156 17.2506 207.961 19.3492 201.565C21.4477 195.569 26.844 191.572 32.64 189.573C36.5374 188.174 41.1342 187.875 44.5319 190.473C46.3307 191.772 47.7297 193.671 48.4292 195.769L47.4299 195.27C50.3279 193.571 54.2253 192.172 57.623 192.571C60.2212 192.771 62.5196 194.37 63.7188 196.769C64.8181 199.367 65.0179 202.365 64.1185 205.063C63.5189 207.161 62.6195 209.06 61.5203 210.859L62.2198 207.761C65.7174 214.257 67.2164 222.851 63.6189 229.546C61.92 232.644 59.4217 235.142 56.3239 236.741L58.3225 232.944L61.6202 258.127L62.1199 261.724L61.8201 261.125C68.1158 264.023 72.4129 269.919 73.1124 276.714C73.9118 285.608 65.3177 292.203 57.1233 292.403C52.4265 292.603 48.0295 290.404 45.2314 286.607C44.3321 285.308 47.0302 281.211 48.0295 282.61C52.0268 288.306 59.8215 289.205 65.7174 286.207C66.9166 285.608 68.1158 284.708 69.0152 283.709C69.1151 283.609 69.215 283.409 69.4149 283.309C69.4149 283.309 69.8146 282.71 69.6148 283.01C69.4149 283.309 69.8146 282.71 69.8146 282.71C69.8146 282.61 69.9146 282.41 70.0145 282.31C70.1144 282.11 70.1144 281.81 70.2144 281.611C70.714 278.213 68.8153 274.116 66.8167 271.417C65.2178 269.319 63.1192 267.52 60.8208 266.221C60.4211 266.021 60.0213 265.821 59.6216 265.621C59.3218 265.322 59.1219 264.822 59.2219 264.422L57.3232 249.832L55.5244 236.341C55.4245 234.842 56.2239 233.344 57.523 232.544C58.9221 231.845 60.1213 230.945 61.1206 229.846C61.3204 229.646 61.4204 229.446 61.5203 229.246C61.6202 229.146 61.7202 228.947 61.8201 228.847C61.7202 229.046 61.7202 229.046 61.8201 228.747L62.02 228.247C61.92 228.447 61.92 228.447 62.02 228.147C62.1199 227.847 62.2198 227.547 62.3198 227.148C62.3198 226.948 62.4197 226.748 62.4197 226.548C62.4197 226.348 62.5196 225.949 62.5196 225.849C62.6195 225.249 62.6195 224.749 62.6195 224.15C62.6195 222.951 62.5196 221.751 62.3198 220.552C61.8201 217.554 60.8208 214.656 59.4217 211.958C58.9221 211.059 59.6216 209.56 60.1213 208.86C60.3211 208.56 60.2212 208.66 60.0213 208.96C60.2212 208.56 60.421 208.261 60.521 207.961C60.6209 207.861 60.6209 207.661 60.7209 207.561C60.6209 207.761 60.6209 207.761 60.7209 207.561C60.8208 207.361 60.9207 207.061 61.0206 206.862C61.2205 206.362 61.3204 205.762 61.4204 205.263C61.92 202.265 60.521 199.367 57.8228 197.968C54.2253 196.369 49.5285 198.068 46.4306 199.966C45.931 200.266 45.5312 199.866 45.4313 199.467C45.6312 200.166 45.4313 199.567 45.4313 199.467C45.3314 199.167 45.1315 198.867 44.9316 198.567C44.432 197.668 43.8324 196.769 43.0329 196.069C40.6346 193.87 37.2369 192.971 34.0391 193.671C31.241 194.27 28.6428 195.369 26.2444 196.868C25.2451 197.468 24.3457 198.168 23.5463 199.067C23.2465 199.367 23.0466 199.667 22.7468 199.966C22.7468 199.966 22.2471 200.666 22.447 200.366C22.447 200.466 21.9474 201.265 22.1472 200.966C21.4477 202.465 21.2478 204.163 21.5476 205.762C21.7475 207.461 22.2471 209.16 22.9467 210.759C23.8461 212.858 25.0452 214.856 26.4443 216.655C27.2437 217.654 25.6448 220.452 24.5456 220.852C22.1472 221.652 19.8488 222.651 17.6503 223.75C15.5517 224.849 13.5531 226.048 11.7543 227.448C9.75571 228.947 7.95692 230.645 6.45795 232.544C4.85904 234.443 3.85975 236.741 3.36009 239.239C2.7605 242.138 2.96037 245.135 3.85975 247.934C5.35873 252.53 9.15612 255.828 13.3533 257.827C15.152 258.726 17.0507 259.426 19.0493 259.825C19.8488 260.025 20.6482 260.225 21.4477 260.325C23.1465 260.525 21.3478 263.523 20.8481 264.122C20.4484 264.622 20.0487 265.122 19.6489 265.721C19.4491 266.021 19.2492 266.421 19.1493 266.721C18.9494 267.12 18.8495 267.42 18.8495 267.82C18.7496 268.22 18.7496 268.719 18.7496 269.119C18.9494 270.818 19.6489 272.417 20.7482 273.716C22.9467 276.414 26.1445 278.213 29.2424 279.612C30.0418 279.912 30.7413 280.211 31.5408 280.511C32.3402 280.811 31.8406 282.21 31.6407 282.61C31.3409 283.509 30.7414 284.309 29.842 284.908C28.6428 285.508 27.6435 286.307 26.7441 287.307C27.0439 286.907 26.4443 287.706 26.6441 287.407C26.844 287.107 26.4443 287.706 26.6441 287.407C26.844 287.107 26.6441 287.407 26.6441 287.506C26.5442 286.807 26.7441 287.906 26.844 288.106C27.5435 289.605 28.6428 290.804 30.1418 291.404C34.7386 293.902 40.035 289.705 43.0329 286.807C43.8324 286.008 44.5319 285.308 45.2314 284.409L45.931 283.609C46.2307 283.209 45.5312 284.109 45.831 283.709C46.1308 283.309 47.2301 282.01 47.8297 282.81C48.4293 283.609 47.7297 285.008 47.2301 285.608Z" fill="#262626"/>
<path d="M61.2224 235.842C61.2224 235.842 51.0293 226.548 44.9335 234.743C38.8376 242.937 54.8267 269.419 68.0177 257.927" fill="white"/>
<path d="M59.9231 237.94C57.7246 235.942 55.1264 234.443 52.2284 233.743C50.3297 233.243 48.2311 233.643 46.6322 234.942C46.5322 235.042 46.2324 235.342 46.1325 235.542L45.8327 235.942C45.8327 235.942 46.1325 235.442 46.0326 235.742C45.9326 236.041 45.8327 236.041 45.7328 236.241C45.9327 235.842 45.8327 235.942 45.7328 236.241C45.7328 236.341 45.6329 236.541 45.5329 236.741C45.433 236.941 45.6329 236.341 45.5329 236.641C45.5329 236.741 45.5329 236.841 45.433 236.841L45.3331 237.341C45.3331 237.441 45.2331 238.14 45.3331 237.64C45.2331 239.339 45.433 240.938 45.9326 242.537C46.4323 244.436 47.2318 246.334 48.2311 248.033C50.1298 251.631 52.9279 254.629 56.3256 256.727C58.0244 257.827 60.023 258.326 61.9217 258.226C63.9203 258.126 65.8191 257.227 67.2181 255.928C68.0176 255.328 69.2167 255.228 69.6165 256.228C70.0162 257.227 69.2167 258.726 68.4173 259.425C64.9197 262.623 59.8231 263.523 55.4261 261.724C51.229 259.925 47.9313 256.228 45.5329 252.43C43.1346 248.633 41.4357 244.236 41.5357 239.739C41.7355 234.642 45.2331 229.346 50.7294 228.846C54.9265 228.447 59.2236 230.645 62.3215 233.443C63.1209 234.243 63.1209 235.542 62.4214 236.441C62.2215 237.241 60.7225 238.74 59.9231 237.94Z" fill="#262626"/>
<path d="M97.597 235.942C98.0967 236.341 98.4964 236.741 99.096 237.141C99.2959 237.341 99.5957 237.541 99.7956 237.641L100.195 237.94C100.595 238.14 99.7955 237.741 100.395 238.04C101.095 238.44 101.894 238.84 102.594 239.14C102.993 239.339 103.393 239.439 103.793 239.639C103.393 239.539 103.993 239.639 104.093 239.739L104.792 239.939C105.692 240.139 106.591 240.239 107.49 240.139H108.29C108.39 240.139 109.089 240.039 108.59 240.139C109.089 240.039 109.589 239.939 110.089 239.739C111.088 239.339 111.987 238.84 112.887 238.24C113.886 237.341 115.285 237.241 116.384 238.04C117.284 238.84 117.284 240.139 116.584 241.038C116.484 241.138 116.484 241.138 116.384 241.238C112.087 244.936 106.191 245.935 100.995 243.736C98.4964 242.837 96.198 241.438 94.1994 239.539C93.3 238.74 93.3 237.341 94.0994 236.441L94.1994 236.341C94.9988 235.342 96.4978 235.242 97.597 235.942Z" fill="#262626"/>
<path d="M76.7105 220.652C76.7105 220.652 79.2088 219.853 79.7084 222.251C80.2081 224.65 77.3101 225.349 76.1109 223.45C75.5113 222.651 75.6112 221.452 76.4107 220.752C76.6105 220.752 76.6105 220.652 76.7105 220.652Z" fill="#262626"/>
<path d="M32.4415 430.509C32.4415 430.509 36.039 284.109 72.9138 285.408C109.789 286.707 162.053 330.077 162.053 330.077L148.062 389.837L147.563 429.01" fill="white"/>
<path d="M29.9433 430.109C30.0432 427.411 30.1432 424.713 30.2431 422.014C30.5429 415.019 30.9426 408.124 31.5422 401.129C32.2417 391.635 33.1411 382.142 34.2404 372.748C35.4395 362.355 36.9385 351.962 38.9371 341.769C40.7359 332.176 43.1343 322.682 46.1322 313.389C48.6305 306.094 51.6284 298.599 56.4252 292.503C60.2226 287.706 65.3191 283.809 71.6148 283.709C77.6107 283.609 83.8064 284.908 89.5025 286.607C96.198 288.506 102.694 291.004 108.989 294.002C120.981 299.698 132.573 306.493 143.466 314.088C150.161 318.685 156.657 323.382 162.952 328.478C163.252 328.678 163.552 328.978 163.852 329.178C164.251 329.478 164.451 329.977 164.451 330.377L161.054 344.767L154.558 372.348L151.86 383.841C151.36 385.839 150.861 387.838 150.461 389.836C150.361 391.136 150.261 392.435 150.361 393.734L150.261 406.025L150.061 420.316C150.061 423.214 150.161 426.112 149.961 428.91C149.961 429.01 149.961 429.209 149.961 429.309C149.961 431.508 144.965 430.908 144.965 428.71L145.164 409.123L145.364 395.632C145.264 393.634 145.264 391.535 145.464 389.537C145.664 388.138 146.064 386.739 146.464 385.439L148.962 375.047L155.457 347.465L158.156 335.973C158.455 333.975 158.955 331.976 159.555 330.077C159.555 329.977 159.555 329.877 159.655 329.778L160.054 331.077C155.757 327.479 151.26 324.181 146.763 320.884C136.87 313.688 126.477 307.093 115.685 301.297C104.193 295.201 91.701 289.505 79.0097 287.606C77.5107 287.406 76.0118 287.207 74.5128 287.107C73.7133 287.007 72.9139 287.007 72.0145 287.007L71.1151 287.107C70.6155 287.107 71.6148 287.007 71.2151 287.107C71.0152 287.107 70.8153 287.207 70.6155 287.207C70.3157 287.307 70.0159 287.307 69.7161 287.406C69.4163 287.506 68.7168 287.706 69.0166 287.606C69.3164 287.506 68.6168 287.806 68.417 287.906C68.2171 288.006 67.8174 288.206 67.5176 288.306L66.7181 288.706L66.3184 289.005C66.1186 289.105 66.6182 288.806 66.2185 289.105C65.1192 289.905 64.02 290.804 63.0207 291.803L62.3212 292.603L61.9214 293.003L61.7216 293.203C61.2219 293.802 60.7222 294.402 60.2226 295.101C59.2233 296.5 58.3239 297.899 57.5244 299.398C55.6257 302.796 53.9269 306.393 52.5278 310.091C49.33 318.785 46.8317 327.679 45.033 336.873C42.9344 346.966 41.2355 357.059 39.9364 367.352C38.6373 377.045 37.638 386.739 36.8386 396.432C36.239 403.927 35.7393 411.422 35.3396 418.917C35.1397 422.714 34.9399 426.511 34.84 430.309C34.84 430.509 34.84 430.609 34.84 430.808C34.74 433.007 29.8433 432.507 29.9433 430.109Z" fill="#262626"/>
<path d="M145.464 391.136C133.672 385.639 122.08 379.643 110.388 373.947C108.189 372.848 105.991 371.749 103.792 370.75C102.793 370.35 102.193 368.951 102.893 368.051C103.592 367.152 105.191 367.352 106.191 367.851C117.983 373.348 129.575 379.344 141.267 385.04C143.465 386.139 145.664 387.238 147.862 388.238C148.861 388.637 149.461 390.036 148.761 390.936C148.062 391.835 146.463 391.535 145.464 391.136Z" fill="#262626"/>
<path d="M185.137 331.376C185.137 331.376 254.289 249.233 257.188 244.736C260.086 240.239 214.017 206.262 205.323 206.962C196.729 207.761 152.959 294.102 153.758 300.198C154.558 306.294 178.641 330.177 185.137 331.376Z" fill="#F5EE30"/>
<path d="M183.138 329.977L195.23 315.587C203.924 305.194 212.618 294.801 221.312 284.409C229.707 274.415 238.001 264.422 246.295 254.329C248.694 251.331 251.192 248.433 253.59 245.435C254.09 244.736 254.59 244.036 255.189 243.437C255.389 243.137 255.289 243.537 255.189 243.337C255.089 243.137 255.189 243.137 255.189 243.437L255.089 243.037C255.289 243.237 254.989 242.537 255.089 243.037C254.889 242.837 254.989 242.737 254.889 242.637C254.789 242.537 254.69 242.337 254.59 242.237C254.49 242.137 254.69 242.437 254.69 242.437L254.39 242.038C253.79 241.238 253.191 240.539 252.491 239.839L252.191 239.439C252.591 239.839 252.391 239.639 252.291 239.539C252.091 239.339 251.891 239.04 251.592 238.84C251.092 238.34 250.592 237.84 250.093 237.441C247.794 235.342 245.396 233.244 242.998 231.345C242.298 230.745 241.598 230.246 240.899 229.646C240 228.946 239.8 228.747 239 228.147C237.601 227.048 236.102 225.949 234.603 224.849C231.605 222.651 228.507 220.452 225.31 218.454C223.811 217.454 222.412 216.555 220.913 215.656C220.213 215.256 219.514 214.756 218.814 214.356L217.715 213.757L217.315 213.557L217.015 213.357C214.717 212.058 212.319 210.859 209.92 209.76H210.02C209.92 209.66 209.72 209.66 209.62 209.66L209.021 209.46C208.621 209.36 208.121 209.26 207.722 209.06C207.522 209.06 208.221 209.06 207.622 209.06H207.122C207.222 209.06 206.622 208.96 207.122 209.06C207.022 209.06 206.922 209.06 206.822 209.06C206.423 209.06 207.022 208.96 206.922 209.06C206.822 209.06 206.722 209.16 206.622 209.16C206.423 209.26 206.123 209.46 205.923 209.56C205.723 209.76 205.523 209.86 205.323 210.059C205.024 210.259 205.423 209.86 205.223 210.159L204.824 210.559C201.926 213.757 199.327 217.155 197.029 220.852C193.531 226.248 190.234 231.745 187.136 237.341C179.941 249.932 173.145 262.823 166.85 275.914C164.351 281.211 161.853 286.407 159.555 291.803C158.755 293.702 157.956 295.501 157.256 297.4C157.056 297.999 157.156 297.799 156.956 298.299C156.757 298.799 156.757 298.999 156.657 299.298C156.457 299.798 156.357 300.298 156.257 300.797C156.257 300.997 156.257 301.197 156.157 301.297C156.157 301.397 156.157 301.397 156.157 301.497C156.157 300.897 156.157 301.397 156.257 301.597L156.457 302.096V301.997C156.457 302.096 156.557 302.296 156.657 302.396C156.956 302.896 157.156 303.396 157.556 303.895C158.255 305.094 159.055 306.194 159.954 307.193C161.054 308.592 162.253 309.991 163.452 311.29C166.15 314.288 168.748 316.986 171.746 319.784C173.145 321.083 174.644 322.383 176.043 323.682C176.643 324.281 177.342 324.781 178.042 325.381L179.141 326.18L179.241 326.28L179.841 326.78C180.94 327.579 182.039 328.378 183.238 329.078C182.539 328.678 183.338 329.178 183.538 329.178L184.238 329.478C184.837 329.778 183.838 329.378 184.438 329.578C184.637 329.578 185.437 329.778 184.637 329.678C185.837 329.877 186.936 330.577 187.535 331.676C187.935 332.476 187.635 333.375 186.536 333.175C183.738 332.676 181.34 330.977 179.041 329.378C175.943 327.079 172.846 324.581 170.047 321.883C164.351 316.587 158.555 310.89 154.258 304.295C153.259 302.796 151.96 300.797 151.96 298.899C152.06 297.799 152.36 296.7 152.759 295.701C154.258 291.304 156.157 287.107 158.056 282.91C163.952 269.918 170.447 257.227 177.243 244.736C180.74 238.34 184.238 232.044 188.035 225.749C190.933 220.952 193.931 216.155 197.229 211.658C198.328 210.159 199.527 208.76 200.826 207.361C201.626 206.362 202.725 205.662 204.024 205.163C205.723 204.763 207.622 205.463 209.121 206.062C211.619 207.061 214.117 208.161 216.516 209.56C229.207 216.855 241.199 225.449 252.191 235.142C254.09 236.841 255.889 238.74 257.588 240.638C258.487 241.838 259.986 243.536 259.886 245.135C259.686 245.935 259.286 246.634 258.687 247.234C257.787 248.333 256.888 249.532 255.989 250.632C248.694 259.625 241.299 268.419 233.904 277.213C224.61 288.306 215.316 299.498 206.023 310.591L188.435 331.576L187.535 332.576C186.036 334.175 182.039 331.276 183.138 329.977Z" fill="#F5EE30"/>
<path d="M162.952 297.999C162.952 297.999 182.639 317.686 186.436 315.487C190.233 313.289 245.995 244.736 246.295 241.838C246.595 238.94 211.719 218.454 207.222 217.055C202.725 215.656 166.45 294.002 162.952 297.999Z" fill="white"/>
<path d="M165.051 297.7L165.65 298.299L166.05 298.699L167.049 299.698C168.948 301.497 170.747 303.196 172.645 304.895C174.844 306.893 177.042 308.792 179.441 310.591C179.94 310.99 180.54 311.39 181.04 311.79C181.539 312.19 182.039 312.489 182.339 312.689C182.639 312.889 183.238 313.289 183.738 313.589L184.437 313.988C185.037 314.288 184.038 313.888 184.637 314.088C184.837 314.188 185.037 314.188 185.137 314.288C185.437 314.388 184.537 314.188 185.137 314.288C185.437 314.288 184.537 314.288 185.137 314.288C185.437 314.288 184.637 314.288 184.837 314.288C185.037 314.288 184.737 314.288 184.637 314.388C185.137 314.188 184.437 314.688 184.637 314.388C184.737 314.288 184.837 314.188 184.937 314.088C185.637 313.489 186.336 312.789 186.936 312.09C189.334 309.491 191.632 306.793 193.931 304.095C201.126 295.701 208.221 287.107 215.216 278.513C222.211 269.919 229.107 261.324 235.902 252.53C238.101 249.732 240.299 246.834 242.398 243.936L243.297 242.637C243.397 242.537 243.397 242.437 243.497 242.337C243.597 242.138 243.697 242.038 243.797 241.838C243.897 241.638 243.997 241.438 244.097 241.238C243.997 241.338 243.997 241.538 244.097 241.638C243.797 241.138 244.496 241.938 243.997 241.538C243.897 241.438 243.397 240.838 243.597 241.138C243.797 241.438 243.497 241.038 243.397 240.938L242.897 240.539C242.198 239.939 241.398 239.339 240.699 238.74C239.7 238.04 238.7 237.341 237.701 236.641C236.802 236.042 235.902 235.442 234.703 234.643C229.606 231.245 224.31 228.147 218.914 225.049C216.615 223.75 214.217 222.351 211.919 221.152C211.019 220.652 210.12 220.253 209.32 219.753L208.121 219.153L207.621 218.953C208.121 219.153 208.021 219.153 207.621 218.953C207.422 218.853 207.222 218.754 207.022 218.654C206.822 218.554 206.722 218.654 207.422 218.754C207.721 218.754 208.121 218.754 208.421 218.754C208.921 218.654 208.821 218.654 208.521 218.754C208.921 218.654 208.721 218.554 208.421 218.853C207.721 219.553 207.022 220.352 206.522 221.152L205.923 221.951L205.623 222.451L205.423 222.851C204.923 223.55 204.524 224.25 204.124 224.949C203.025 226.748 202.025 228.547 200.926 230.446C198.328 235.042 195.929 239.639 193.431 244.336C188.035 254.829 182.738 265.322 177.542 275.815C173.945 283.11 170.547 290.504 166.45 297.5C166.05 298.199 165.65 298.899 165.151 299.498C163.951 300.897 159.454 298.799 160.953 297.1L161.153 296.8C161.353 296.6 160.953 297.1 161.253 296.7C161.553 296.301 161.753 295.901 161.953 295.501C162.652 294.302 163.352 293.003 163.951 291.704C165.95 287.806 167.949 283.809 169.947 279.812C175.244 269.219 180.54 258.526 185.936 247.934C190.533 238.94 195.03 229.846 200.526 221.452C201.626 219.653 203.025 216.855 205.123 215.955C206.722 215.256 208.421 216.155 209.82 216.855C211.619 217.654 213.318 218.654 215.016 219.553C220.313 222.451 225.509 225.449 230.606 228.647C235.502 231.545 240.299 234.743 244.796 238.14C246.295 239.339 249.693 241.538 248.394 243.736C246.995 246.035 245.496 248.133 243.797 250.232C237.501 258.626 230.906 266.721 224.41 274.815C216.915 284.109 209.32 293.303 201.726 302.396C198.927 305.694 196.129 308.992 193.231 312.29C191.932 313.988 190.433 315.587 188.734 316.986C187.036 318.285 184.637 317.486 182.938 316.687C180.54 315.487 178.342 314.088 176.243 312.389C171.846 308.892 167.649 305.194 163.652 301.297C162.752 300.498 161.953 299.698 161.153 298.799C160.354 297.899 160.953 297.1 161.853 296.9C162.952 296.4 164.151 296.8 165.051 297.7Z" fill="#F5EE30"/>
<path d="M212.617 249.433C215.615 252.031 217.214 256.028 216.714 260.025C216.714 260.425 211.718 259.825 211.718 259.426C212.118 255.528 210.619 251.631 207.721 249.033C207.521 248.833 207.82 248.833 208.02 248.833C208.52 248.833 209.02 248.833 209.519 248.833C210.119 248.933 210.818 248.933 211.418 249.133C211.818 249.133 212.217 249.233 212.617 249.433Z" fill="#262626"/>
<path d="M215.916 264.722C215.316 269.919 209.02 273.116 204.423 273.416C199.427 273.816 194.63 271.218 192.332 266.821C191.732 265.621 192.931 264.322 193.931 263.923C195.13 263.423 196.529 263.923 197.028 265.122C198.527 267.72 201.326 269.219 204.224 269.019C205.822 268.919 207.421 268.42 208.72 267.52C210.02 266.821 210.919 265.522 211.119 264.122C211.219 262.823 212.918 262.124 214.017 262.224C215.216 262.324 216.015 263.323 215.916 264.522C215.916 264.622 215.916 264.622 215.916 264.722Z" fill="#F5EE30"/>
<path d="M202.424 249.932C201.525 249.533 200.326 249.533 199.526 250.132C199.826 249.932 199.326 250.332 199.526 250.132C199.726 249.932 199.426 250.232 199.426 250.232C199.726 249.832 199.226 250.432 199.426 250.232C199.426 250.332 199.027 250.732 199.226 250.432C199.426 250.132 199.126 250.632 199.126 250.632L198.927 250.932C198.927 250.932 198.627 251.431 198.827 251.131C199.027 250.832 198.627 251.431 198.727 251.431C197.428 253.83 196.328 256.428 195.629 259.126C195.229 260.325 194.43 261.225 193.43 261.924C193.131 262.024 192.731 262.324 192.431 262.024C192.131 261.724 192.331 261.324 192.331 261.025C193.33 257.427 194.729 254.029 196.728 250.832C198.427 248.034 202.024 244.136 205.622 245.935C205.922 246.035 205.722 246.734 205.722 246.934C205.522 247.534 205.222 248.034 204.823 248.433C204.223 249.133 203.224 250.332 202.424 249.932Z" fill="#F5EE30"/>
<path d="M216.715 248.533L224.21 245.635C225.309 245.235 226.608 245.335 227.608 245.935C228.007 246.135 228.507 246.435 228.607 246.834C228.707 247.134 228.507 247.534 228.207 247.634L220.612 250.532C219.513 250.931 218.214 250.832 217.215 250.232C216.815 250.032 216.315 249.732 216.215 249.333C216.215 249.033 216.415 248.633 216.715 248.533Z" fill="#F5EE30"/>
<path d="M222.912 242.337C221.912 241.138 220.813 239.339 221.613 237.741C222.812 235.442 226.509 236.142 228.108 237.541C228.808 238.14 229.108 239.14 228.708 239.939C228.208 240.738 227.609 241.338 226.809 241.738C226.01 242.237 225.11 242.637 224.311 243.037C223.911 243.237 223.411 243.437 222.912 243.537C222.012 243.736 221.113 243.736 220.214 243.537C218.815 243.237 217.615 242.337 217.116 241.038C216.916 240.039 217.016 238.94 217.515 238.04L221.413 240.039C218.815 240.439 216.216 239.739 214.118 238.14C213.818 237.94 213.618 237.541 213.618 237.141C213.718 236.741 214.218 236.541 214.518 236.441C215.717 236.242 217.016 236.641 217.915 237.341C217.715 237.141 217.715 237.241 217.915 237.341C218.115 237.441 218.315 237.541 218.015 237.441C217.715 237.341 218.215 237.541 218.215 237.541C218.215 237.541 217.615 237.341 218.115 237.541C218.415 237.641 217.615 237.541 217.915 237.541H218.215C218.015 237.541 217.915 237.541 218.115 237.541H218.315C219.214 237.441 220.214 237.541 221.013 238.04C221.413 238.24 222.512 238.94 222.212 239.539C221.912 240.139 221.713 240.738 221.613 241.438C221.613 241.538 221.613 241.738 221.713 241.838C221.613 241.538 221.813 241.938 221.813 241.938C221.613 241.638 221.313 241.438 221.013 241.438L219.314 241.138C219.114 241.138 219.214 241.138 219.414 241.138L219.614 241.038C220.314 240.738 221.013 240.439 221.713 240.039C222.112 239.839 222.412 239.639 222.712 239.439C222.912 239.339 223.212 239.14 223.411 238.94C223.611 238.74 223.711 238.64 223.811 238.34C223.811 238.24 223.811 238.24 223.811 238.14C223.811 238.24 223.811 238.24 223.811 238.14C223.711 237.84 223.711 237.94 223.911 238.14C224.411 238.64 225.11 238.94 225.81 238.94C226.01 238.94 226.11 238.94 226.309 238.94C226.21 238.94 226.11 238.94 226.309 238.94C226.509 238.94 226.409 238.94 226.309 238.94C226.409 238.84 226.509 238.84 226.409 238.94C226.309 239.04 226.309 239.14 226.21 239.14C226.01 239.539 226.01 240.139 226.21 240.539C226.509 241.138 226.809 241.638 227.309 242.138C228.008 243.037 226.709 243.537 226.01 243.537C224.81 243.736 223.611 243.337 222.912 242.337Z" fill="#F5EE30"/>
<path d="M195.929 279.112C195.929 281.211 195.529 283.409 194.729 285.308C193.73 287.606 191.731 289.605 189.033 289.105C187.934 288.906 187.035 288.106 186.635 287.107C186.335 285.908 186.435 284.708 187.035 283.709C187.534 282.81 188.134 282.01 188.734 281.211C189.333 280.511 189.833 279.812 190.532 279.212C192.031 277.613 193.73 276.314 195.629 275.115C196.428 274.515 197.627 274.316 198.527 274.715C199.326 275.115 199.526 276.114 199.126 276.914C197.128 281.011 192.831 283.409 188.334 283.11C187.734 283.11 187.235 282.91 186.835 282.61C186.435 282.21 186.335 281.711 186.435 281.211C186.835 280.012 188.034 279.212 189.333 279.212C189.733 279.212 190.133 279.212 190.532 279.212H190.832C190.532 279.212 190.432 279.212 190.632 279.212L191.132 279.112C191.332 279.012 191.532 279.012 191.731 279.012C191.332 279.112 191.232 279.112 191.532 279.112L191.831 279.012L192.231 278.812L192.531 278.713C192.731 278.613 192.731 278.613 192.331 278.812C192.631 278.613 192.931 278.413 193.23 278.213L193.43 278.013L193.33 278.113L193.73 277.713L194.03 277.314C194.13 277.114 194.13 277.114 193.93 277.413C194.03 277.313 194.03 277.214 194.13 277.114C194.33 276.814 194.53 276.414 194.729 276.014L198.227 277.913C197.428 278.413 196.728 278.912 196.029 279.412C195.629 279.712 195.229 280.012 194.929 280.311C195.429 279.812 194.829 280.411 194.729 280.511L194.33 280.911C193.73 281.511 193.131 282.21 192.531 282.91L192.131 283.509C192.031 283.709 192.031 283.709 192.131 283.509C192.031 283.609 192.031 283.709 191.931 283.809C191.632 284.209 191.432 284.609 191.232 285.008V284.908C191.232 285.008 191.132 285.108 191.132 285.208C191.132 285.308 191.132 285.408 191.132 285.508C191.132 285.008 191.132 285.608 191.232 285.708C191.132 285.508 191.032 285.508 191.232 285.608C191.032 285.508 191.032 285.408 191.132 285.508C191.232 285.608 191.232 285.508 190.932 285.408C190.732 285.308 190.532 285.308 190.332 285.408C190.033 285.408 189.833 285.508 189.633 285.708C189.833 285.608 189.833 285.608 189.533 285.808L189.733 285.608C189.933 285.408 189.833 285.408 189.633 285.708C189.733 285.708 189.833 285.308 189.933 285.208C190.332 284.509 190.632 283.709 190.732 282.81C190.832 282.31 190.932 281.91 190.932 281.411C190.932 281.81 190.932 281.011 190.932 281.011C190.932 280.811 190.932 280.511 190.932 280.212C191.032 279.012 191.931 277.913 193.23 277.813C194.23 277.613 195.729 277.913 195.729 279.212L195.929 279.112Z" fill="#F5EE30"/>
<path d="M208.42 306.293C208.42 306.293 198.227 290.904 199.227 278.612C200.226 266.321 207.821 265.122 210.319 270.318C212.817 275.515 214.916 290.604 231.904 289.105" fill="white"/>
<path d="M206.622 305.794C204.024 301.796 201.825 297.599 200.126 293.202C197.428 286.207 195.429 278.013 198.527 270.818C199.427 268.719 201.026 266.421 203.424 266.021C206.022 265.521 208.82 267.12 210.619 268.919C211.918 270.418 212.917 272.217 213.417 274.215C214.117 276.314 214.916 278.412 215.915 280.311C216.515 281.51 217.215 282.61 218.014 283.609C218.414 284.109 218.813 284.608 219.313 285.008C219.313 285.008 219.613 285.308 219.413 285.108L219.913 285.508L220.113 285.707C219.913 285.508 220.412 285.907 220.412 285.907C220.612 286.107 220.912 286.207 221.112 286.307C221.312 286.407 221.612 286.507 221.811 286.607C222.511 286.907 223.31 287.107 224.11 287.306C226.108 287.706 228.207 287.706 230.206 287.506C231.205 287.406 232.504 288.506 233.204 289.105C233.603 289.605 234.303 290.504 233.304 290.604C226.608 291.304 220.113 288.805 215.516 283.909C212.318 280.411 210.619 276.014 209.02 271.617C208.72 270.918 208.521 270.118 208.121 269.419C208.121 269.319 207.821 268.919 207.921 268.919C207.921 268.819 207.421 268.319 207.721 268.619C207.421 268.219 207.621 268.519 207.921 268.719C207.821 268.619 207.521 268.519 208.121 268.819C208.521 269.019 208.221 268.819 208.321 268.919C208.421 269.019 208.021 268.919 208.121 268.919C207.921 268.919 207.721 268.919 207.521 268.919C207.121 268.919 206.722 269.019 206.322 269.219C205.323 269.618 204.423 270.418 203.824 271.317C201.825 274.015 201.126 277.813 201.126 281.111C201.126 284.808 201.825 288.606 203.024 292.103C204.223 295.701 205.822 299.198 207.621 302.596C208.221 303.695 208.82 304.794 209.42 305.794L210.019 306.693C210.219 306.993 210.219 307.093 210.019 306.693C210.519 307.493 210.319 307.892 209.42 307.692C208.421 307.493 207.321 306.793 206.622 305.794Z" fill="#262626"/>
<path d="M96.0982 221.052C95.8983 227.947 91.7012 234.043 85.2056 236.641C78.9099 239.14 71.3151 237.94 66.8182 232.544C62.5211 227.348 62.0215 219.953 65.5191 214.157C69.2165 208.061 76.1118 204.863 83.207 205.862C90.6019 207.161 96.0982 213.557 96.0982 221.052C96.1981 223.051 91.5013 224.649 91.5013 222.451C91.5013 217.055 88.3035 212.158 83.4068 209.96C79.0098 207.961 73.7135 209.16 70.7155 212.957C67.4178 217.255 67.118 223.151 69.7162 227.847C72.2145 232.344 77.2111 234.942 82.3076 234.343C88.0037 233.543 91.4014 227.947 91.5013 222.451C91.5013 220.552 96.1981 218.853 96.0982 221.052Z" fill="#F5EE30"/>
</svg>
