<svg width="628" height="486" viewBox="0 0 628 486" fill="none" xmlns="http://www.w3.org/2000/svg">
<path d="M324.415 442.458C320.536 444.268 316.27 445.173 312.004 445.043C305.54 444.785 284.339 440.648 275.031 451.378C265.723 462.108 290.544 464.952 294.552 464.693C298.559 464.435 327.388 447.241 327.388 447.241C328.551 444.397 324.415 442.458 324.415 442.458ZM308.255 453.576C308.255 453.576 295.845 461.591 286.795 459.005C277.746 456.42 282.012 449.051 292.483 447.5C302.955 445.948 312.78 449.568 308.255 453.576Z" fill="#262626"/>
<path d="M294.163 465.34C290.414 465.34 275.806 463.789 272.962 457.971C271.927 455.903 272.445 453.446 274.642 450.99C282.787 441.553 299.463 443.234 308.383 444.139C309.805 444.268 311.098 444.397 312.003 444.397C316.14 444.397 320.277 443.492 324.026 441.812L324.284 441.682L324.543 441.812C324.672 441.941 329.068 443.88 328.033 447.37L327.904 447.629L327.646 447.758C324.672 449.568 298.558 464.952 294.421 465.211L294.163 465.34ZM297.007 444.656C289.25 444.656 280.718 445.948 275.676 451.766C273.867 453.834 273.349 455.773 274.125 457.325C276.581 462.366 291.06 464.306 294.68 463.918C297.912 463.659 318.984 451.507 326.999 446.724C327.387 444.914 325.189 443.492 324.414 443.104C320.535 444.785 316.269 445.69 312.003 445.69C311.098 445.69 309.805 445.561 308.254 445.431C304.505 444.914 300.756 444.785 297.007 444.656ZM290.802 460.169C289.38 460.169 287.958 460.04 286.665 459.652C283.045 458.617 281.106 456.678 281.235 454.351C281.494 450.99 286.148 447.758 292.482 446.853C300.368 445.69 308.383 447.37 309.805 450.473C310.064 451.119 310.452 452.541 308.642 454.093H308.513C308.254 454.481 299.205 460.169 290.802 460.169ZM297.524 447.888C295.844 447.888 294.292 448.017 292.612 448.275C286.277 449.18 282.657 452.154 282.528 454.481C282.399 456.161 284.079 457.583 286.923 458.359C295.326 460.815 306.961 453.576 307.737 453.059C308.9 452.024 308.642 451.249 308.513 451.119C307.866 449.31 303.212 447.888 297.524 447.888Z" fill="#262626"/>
<path d="M325.448 443.104L384.269 419.576C384.269 419.576 380.908 426.169 371.858 432.762C362.809 439.355 327.517 445.561 327.517 445.561L325.448 443.104Z" fill="#F5EE30"/>
<path d="M327.387 446.207L324.414 442.846L385.691 418.412L384.915 419.964C384.786 420.222 381.425 426.686 372.376 433.409C363.326 440.131 329.197 446.078 327.775 446.336L327.387 446.207ZM326.612 443.363L327.905 444.785C331.654 444.139 363.197 438.321 371.6 432.245C375.995 429.142 379.744 425.393 382.847 420.869L326.612 443.363Z" fill="#F5EE30"/>
<path d="M331.006 448.534C331.006 448.534 309.159 469.477 309.417 472.062C309.676 474.648 317.95 489.902 332.946 482.275C347.942 474.648 338.246 461.849 336.695 457.842C335.143 453.834 338.763 449.568 338.763 449.568C336.436 448.405 333.721 448.017 331.006 448.534ZM336.048 470.769C335.402 477.621 324.672 481.499 319.372 476.199C314.071 470.899 324.284 461.72 324.284 461.72C329.843 458.23 336.824 463.918 336.048 470.769Z" fill="#262626"/>
<path d="M324.93 485.119C322.345 485.119 319.759 484.473 317.432 483.18C312.003 480.077 308.771 474.13 308.641 472.191C308.512 469.477 325.318 453.058 330.489 448.146L330.618 448.017H330.748C333.592 447.37 336.565 447.758 339.021 449.309L339.668 449.697L339.151 450.214C339.151 450.214 335.919 454.222 337.211 457.842C337.47 458.359 337.858 459.134 338.246 460.039C340.056 463.53 342.9 469.218 341.09 474.777C340.056 478.138 337.341 480.853 333.075 483.051C330.748 484.343 327.774 485.119 324.93 485.119ZM331.394 449.18C321.052 459.264 310.193 470.511 310.063 472.191C310.193 473.613 313.037 479.172 318.079 482.146C322.474 484.731 327.386 484.602 332.557 482.016C336.436 480.077 339.021 477.492 339.926 474.518C341.607 469.606 338.892 464.306 337.082 460.815C336.565 459.91 336.177 459.134 335.919 458.488C334.626 455.127 336.694 451.636 337.599 450.214C335.919 448.922 333.592 448.663 331.394 449.18ZM325.835 479.431C323.25 479.431 320.793 478.526 318.983 476.716C317.82 475.553 317.174 474.001 317.174 472.45C317.303 467.279 323.637 461.591 323.896 461.332C326.352 459.652 329.584 459.652 332.17 461.332C335.402 463.401 337.211 467.02 336.824 470.899C336.436 474.26 333.85 477.233 330.101 478.655C328.679 479.172 327.257 479.431 325.835 479.431ZM324.672 462.366C324.672 462.366 318.596 467.796 318.466 472.45C318.466 473.743 318.854 474.906 319.888 475.811C322.603 478.138 326.352 478.784 329.584 477.492C332.945 476.328 335.272 473.743 335.531 470.769C335.919 467.408 334.238 464.176 331.523 462.496C329.455 461.074 326.74 461.074 324.672 462.366Z" fill="#262626"/>
<path d="M337.728 449.18L364.618 408.2C358.025 410.527 351.949 413.888 346.39 418.154C337.728 424.876 333.721 448.275 333.721 448.275L337.728 449.18Z" fill="#F5EE30"/>
<path d="M338.118 449.956L333.076 448.792L333.205 448.146C333.335 447.241 337.342 424.488 346.133 417.637C351.692 413.371 358.027 410.009 364.62 407.682L366.429 407.036L338.118 449.956ZM334.498 447.758L337.472 448.404L363.068 409.492C357.251 411.819 351.821 414.922 346.779 418.671C339.152 424.618 335.145 444.138 334.498 447.758Z" fill="#F5EE30"/>
<path d="M339.928 437.416C339.928 437.416 338.635 437.545 338.635 438.838C338.635 440.131 339.669 440.002 340.186 439.872C341.479 439.355 341.737 437.287 339.928 437.416Z" fill="#262626"/>
<path d="M339.669 440.519C339.281 440.519 338.893 440.389 338.635 440.26C338.247 439.872 337.988 439.355 337.988 438.838C337.988 437.804 338.893 436.899 339.927 436.77C340.832 436.64 341.608 437.157 341.867 438.062C341.996 439.097 341.349 440.131 340.445 440.389C340.186 440.389 339.927 440.519 339.669 440.519ZM340.057 438.062C339.927 438.062 339.281 438.192 339.281 438.838C339.281 438.967 339.281 439.097 339.41 439.226C339.669 439.355 339.798 439.355 340.057 439.226C340.445 439.097 340.703 438.709 340.574 438.321C340.574 438.192 340.574 437.933 340.057 438.062Z" fill="#262626"/>
<path d="M263.396 426.815C263.396 426.815 242.97 416.602 209.229 426.944C175.488 437.287 147.047 451.248 138.256 441.294C129.465 431.34 125.846 428.237 118.735 430.952C118.735 430.952 116.926 451.248 116.021 454.351C115.116 457.454 78.5305 468.701 58.2341 452.8C58.2341 452.8 53.968 417.766 55.5193 410.526C57.0706 403.287 92.4924 390.489 116.538 390.876C140.583 391.264 133.732 408.846 150.279 411.302C166.826 413.758 208.583 388.549 235.731 389.842C262.879 391.135 274.126 395.272 274.126 395.272L263.396 426.815Z" fill="#F5EE30"/>
<path d="M86.6749 461.59C76.7207 461.59 65.9907 459.522 57.8463 453.187L57.5878 453.058V452.8C57.4585 451.378 53.3216 417.636 54.873 410.397C56.5536 402.77 92.3631 389.842 116.538 390.23C130.241 390.488 134.249 396.435 137.868 401.606C140.712 405.743 143.298 409.621 150.279 410.655C157.777 411.819 171.092 406.906 185.313 401.606C201.989 395.401 220.993 388.42 235.731 389.196C262.749 390.488 273.867 394.496 274.384 394.625L274.901 394.884L263.784 427.72L263.137 427.461C262.879 427.332 242.582 417.507 209.358 427.591C201.085 430.047 193.328 432.762 185.83 435.347C162.819 443.233 144.591 449.568 137.739 441.811C129.336 432.374 125.846 429.142 119.382 431.469C119.123 434.442 117.443 451.636 116.796 454.48C116.538 455.773 113.306 457.066 110.72 457.971C102.964 460.298 94.8194 461.59 86.6749 461.59ZM58.8805 452.282C71.4203 461.849 91.0703 461.59 105.42 457.971C112.013 456.29 115.116 454.609 115.374 453.963C116.15 450.99 117.96 430.952 117.96 430.693V430.306L118.348 430.176C125.716 427.332 129.724 430.823 138.515 440.777C144.849 448.016 162.689 441.811 185.313 434.055C192.811 431.469 200.567 428.754 208.841 426.298C239.092 417.119 259 424.23 262.879 425.91L273.221 395.659C270.506 394.884 259 391.523 235.601 390.488C221.122 389.842 202.377 396.694 185.701 402.77C170.705 408.199 157.906 412.982 150.02 411.819C142.522 410.656 139.549 406.389 136.705 402.253C133.085 397.081 129.465 391.652 116.409 391.393H115.116C90.5532 391.393 57.4585 404.192 56.0365 410.526C54.7437 417.249 58.4927 449.051 58.8805 452.282Z" fill="#F5EE30"/>
<path d="M74.1352 408.975C80.8576 415.18 91.8461 417.12 99.3441 411.044C100.895 409.751 102.835 408.199 102.835 406.002C102.835 403.416 100.508 401.348 98.5685 400.184C94.4316 397.728 89.5191 397.211 84.9945 398.892C83.1846 399.667 80.4698 401.477 81.3747 403.804C82.2797 406.131 86.5458 408.975 88.6142 406.907C89.7777 405.872 84.7359 401.994 83.1846 403.416L86.2872 404.709L87.0629 405.743C86.2872 404.45 89.3899 403.028 90.2948 402.641C91.7168 402.123 93.3974 401.994 94.9487 402.123C95.3366 402.123 95.7244 402.253 96.1122 402.253C96.5001 402.382 96.8879 402.511 97.2757 402.511H97.5343L97.1464 402.253C97.1464 402.253 97.405 403.028 97.405 402.77C97.7928 404.45 95.983 406.002 94.8195 406.907C92.1047 409.104 88.8728 410.268 85.3823 410.397C83.831 410.397 82.2797 410.139 80.8576 409.621C79.5649 409.104 78.4014 408.329 77.3672 407.424C76.5915 406.777 74.5231 405.485 73.4889 406.131C72.4547 406.777 73.6181 408.458 74.1352 408.975Z" fill="white"/>
<path d="M60.8193 419.188V427.332C60.8193 427.85 61.4657 428.237 61.8535 428.367C63.4049 428.884 64.9562 428.754 66.3782 428.108C66.766 427.849 67.2832 427.462 67.2832 426.945V418.8C67.2832 418.283 66.6368 417.895 66.2489 417.766C65.4733 417.507 64.6976 417.378 63.922 417.507C63.1463 417.507 62.3707 417.766 61.595 418.154C61.2072 418.283 60.8193 418.671 60.8193 419.188Z" fill="#262626"/>
<path d="M74.0059 419.964V432.762C74.0059 433.796 75.945 434.443 76.7207 434.701C77.4963 434.96 78.1427 435.218 78.9184 435.218C79.1769 435.218 80.0818 435.218 80.0818 434.831V422.032C80.0818 420.998 78.1427 420.352 77.367 420.093C76.5914 419.834 75.945 419.576 75.1693 419.576C74.9108 419.576 74.0059 419.576 74.0059 419.964Z" fill="#262626"/>
<path d="M85.7704 417.637C85.6412 419.059 85.7704 420.352 86.029 421.644C86.1583 422.161 86.5461 422.549 86.9339 422.937C87.5803 423.583 88.2267 423.971 89.0024 424.488L89.6487 424.876C90.0366 425.006 90.4244 425.264 90.8122 425.264C91.0708 425.264 91.5879 425.393 91.4586 425.006C91.2001 423.713 91.0708 422.291 91.2 420.869C91.2 420.61 91.0708 420.481 90.9415 420.352C90.8122 420.093 90.5537 419.834 90.2951 419.705C89.6487 419.059 89.0024 418.542 88.356 418.154L87.7096 417.766C87.3218 417.637 86.9339 417.378 86.5461 417.378H86.1583C86.029 417.249 85.8997 417.378 85.7704 417.637C85.8997 417.637 85.8997 417.637 85.7704 417.637Z" fill="#262626"/>
<path d="M100.635 415.31C100.505 419.576 100.635 423.713 100.764 427.979C100.893 428.755 101.281 429.659 101.798 430.306C102.186 430.952 102.832 431.34 103.608 431.599C104.125 431.728 104.771 431.599 105.159 431.081C105.547 430.564 105.676 429.789 105.547 429.142C105.547 428.884 105.547 428.496 105.547 428.884V428.108V426.686C105.547 425.652 105.547 424.747 105.547 423.713C105.547 421.774 105.547 419.834 105.676 417.895C105.676 416.215 104.901 414.663 103.479 413.888C102.962 413.5 102.315 413.5 101.798 413.758C101.281 414.146 101.022 414.663 101.022 415.31H100.635Z" fill="#262626"/>
<path d="M54.4843 412.983C60.9482 416.861 68.7047 418.412 76.0735 419.446C83.7008 420.61 91.3281 420.868 98.9554 420.351C105.419 419.705 112.012 418.024 117.442 414.146C122.613 410.397 126.362 404.321 123.389 397.987C120.027 391.006 109.298 389.584 103.092 393.074C101.929 393.72 103.48 394.238 104.126 394.367C105.549 394.755 107.1 394.755 108.522 394.238C110.72 392.945 111.883 392.816 114.081 394.238C116.149 395.789 117.442 397.987 117.959 400.443C118.993 405.872 115.115 410.526 110.849 413.37C101.929 419.576 89.7768 419.059 79.4347 417.637C72.8416 416.732 65.8607 415.568 60.0432 412.078C58.6212 411.431 57.1991 411.173 55.6478 411.431C55.26 411.69 53.3209 412.207 54.4843 412.983Z" fill="#262626"/>
<path d="M117.314 408.458L117.185 452.024C117.185 454.093 123.519 454.868 123.519 453.188L123.648 409.622C123.648 407.553 117.314 406.777 117.314 408.458Z" fill="#262626"/>
<path d="M144.073 409.492C142.781 421.257 142.005 433.021 142.005 444.785C142.134 446.465 143.168 447.888 144.59 448.534C145.366 448.922 146.4 448.663 146.788 447.888C146.917 447.629 147.047 447.241 146.917 446.853C146.917 435.477 147.564 424.23 148.986 412.983C149.115 411.432 148.339 409.88 147.047 408.975C146.142 408.2 144.203 407.941 144.073 409.492Z" fill="#262626"/>
<path d="M185.183 403.028V418.8C185.183 423.325 185.7 428.237 184.02 432.503C182.727 435.865 188.027 439.226 189.578 435.606C191.518 430.694 191.13 425.264 191.13 420.093V403.028C191 401.348 189.578 399.926 187.769 399.926C186.088 399.926 185.312 401.348 185.183 403.028Z" fill="#262626"/>
<path d="M231.205 391.911C231.205 397.211 231.205 402.382 231.205 407.682C231.205 410.268 231.205 412.853 231.205 415.31C231.335 417.766 230.947 420.093 230.171 422.42C228.878 425.393 235.342 426.298 236.376 423.713C238.316 419.059 237.798 413.37 237.798 408.458C237.798 403.028 237.798 397.599 237.798 392.04C237.669 388.937 231.205 388.808 231.205 391.911Z" fill="#262626"/>
<path d="M265.463 392.945L260.551 411.302C259.775 414.405 258.87 417.508 258.094 420.61C257.319 423.713 256.026 427.462 258.87 429.789C260.68 431.211 264.3 431.599 266.497 431.211C269.083 430.823 271.281 429.142 272.315 426.686C274.771 421.257 274.9 414.793 275.417 408.975C275.805 405.614 276.193 402.382 276.969 399.15C277.357 397.34 276.71 395.401 275.288 394.238C273.866 393.204 271.798 393.074 270.117 392.816C266.627 392.04 267.79 398.245 270.634 398.762C271.927 399.021 273.22 399.28 274.513 399.538L273.22 398.892L273.478 399.021L272.056 396.953L272.186 397.34L272.056 395.789C271.539 399.021 270.764 402.124 270.505 405.485C270.246 408.846 269.859 412.078 269.342 415.439C268.954 418.025 268.695 421.644 267.015 423.842C265.334 426.04 261.973 425.264 259.646 424.618L260.939 425.264L260.68 425.006L261.973 427.074L261.843 426.686L261.973 428.237C262.49 422.808 264.429 417.249 265.851 412.078L270.246 395.531C271.151 392.686 266.497 389.067 265.463 392.945Z" fill="#262626"/>
<path d="M251.115 389.842L250.21 395.918C250.21 396.435 250.339 396.952 250.469 397.47C250.727 398.245 251.115 399.021 251.632 399.667C251.891 400.184 252.408 400.701 252.795 401.219C252.925 401.348 253.442 401.606 253.442 401.219L254.347 395.143C254.347 394.625 254.218 394.108 254.088 393.591C253.83 392.816 253.442 392.04 252.925 391.394C252.666 390.876 252.149 390.23 251.761 389.842C251.632 389.713 251.244 389.454 251.115 389.842Z" fill="#262626"/>
<path d="M217.5 392.816V399.538C217.629 401.219 218.793 402.641 220.344 403.158C220.99 403.416 221.637 403.287 222.154 402.899C222.671 402.511 222.93 401.865 222.8 401.219V394.496C222.671 393.721 222.413 392.945 221.895 392.299C221.378 391.652 220.732 391.135 219.956 390.877C219.31 390.618 218.663 390.747 218.146 391.135C217.759 391.523 217.5 392.169 217.5 392.816Z" fill="#262626"/>
<path d="M201.213 397.728C201.343 401.348 201.343 404.838 201.084 408.458C201.084 408.975 201.73 409.234 202.118 409.363C203.67 409.88 205.221 409.751 206.643 409.104C207.031 408.846 207.548 408.587 207.548 408.07C207.677 404.45 207.806 400.831 207.677 397.34C207.677 396.823 207.031 396.565 206.643 396.435C205.867 396.177 205.092 396.047 204.316 396.177C203.54 396.177 202.765 396.435 202.118 396.694C201.73 396.823 201.213 397.211 201.213 397.728Z" fill="#262626"/>
<path d="M172.515 408.975V415.956C172.515 416.215 173.678 415.956 173.549 415.956C174.325 415.697 174.971 415.439 175.617 415.051C176.264 414.663 176.91 414.275 177.556 413.758C177.815 413.5 178.074 413.241 178.074 412.853V405.872C178.074 405.614 176.91 405.872 177.039 405.872C176.264 406.131 175.617 406.39 174.971 406.777C174.325 407.165 173.678 407.553 173.032 408.07C172.902 408.329 172.515 408.587 172.515 408.975Z" fill="#262626"/>
<path d="M156.225 411.431L155.32 419.576C155.191 420.351 155.32 421.256 155.708 421.903C156.096 422.678 156.613 423.196 157.388 423.583C158.035 423.842 158.81 423.842 159.457 423.583C160.103 423.196 160.491 422.678 160.62 421.903L161.525 413.758C161.655 412.983 161.525 412.078 161.137 411.431C160.75 410.656 160.232 410.139 159.457 409.751C158.81 409.492 158.035 409.492 157.388 409.751C156.742 410.009 156.354 410.656 156.225 411.431Z" fill="#262626"/>
<path d="M131.921 402.641V409.622C131.921 409.88 132.697 410.139 132.697 410.268C133.343 410.527 134.119 410.785 134.894 411.044C135.153 411.044 138.126 411.819 138.126 411.431V404.451C138.126 404.192 137.351 403.933 137.351 403.804C136.704 403.546 135.928 403.287 135.153 403.028C134.894 403.158 131.921 402.253 131.921 402.641Z" fill="#262626"/>
<path d="M476.053 67.5564H79.4336V372.778H476.053V67.5564Z" fill="white"/>
<path d="M474.116 370.322H93.5268C88.3557 370.322 83.1847 370.192 78.1429 370.322H77.4965L81.7626 374.846V71.6933C81.7626 71.1762 81.7626 70.6591 81.7626 70.142C81.6334 69.6249 81.7626 70.142 81.5041 70.142C84.736 69.8834 88.2264 70.142 91.4584 70.142H478.124L473.858 65.6173V358.299C473.858 362.307 473.729 366.314 473.858 370.192V370.709C473.858 371.873 475.409 373.295 476.185 373.941C476.443 374.071 478.383 375.881 478.383 374.976V82.1647C478.383 78.1571 478.512 74.1495 478.383 70.2712C478.383 70.142 478.383 69.8834 478.383 69.7541C478.383 68.4614 475.409 65.2295 474.116 65.2295H93.5268C88.3557 65.2295 83.1847 65.1002 78.1429 65.2295C77.8843 65.2295 77.7551 65.2295 77.4965 65.2295C77.238 65.2295 77.238 65.3587 77.238 65.488V358.17C77.238 362.177 76.9794 366.185 77.238 370.063V370.58C77.238 371.873 80.2113 375.105 81.5041 375.105H461.964C467.135 375.105 472.306 375.234 477.348 375.105H477.995C478.9 375.105 477.219 373.036 477.09 372.778C476.573 372.132 475.151 370.322 474.116 370.322Z" fill="#262626"/>
<path d="M146.788 68.3319L157.388 82.6816C159.069 84.8793 160.75 87.2063 162.43 89.404C163.206 90.5675 164.499 91.2138 165.791 91.3431C170.057 91.6017 174.324 91.3431 178.46 91.3431H207.031L246.977 91.2138L293.775 91.0846L343.159 90.9553L390.474 90.826L431.066 90.6967L460.671 90.5675C465.454 90.5675 470.237 90.5675 474.891 90.5675H475.537C479.804 90.5675 478.252 85.1379 474.762 85.1379H466.488H443.865L410.512 85.2671L369.919 85.3964L325.318 85.5257L280.33 85.7842L238.445 85.9135L202.894 86.0428H177.297C173.289 86.0428 169.282 85.9135 165.274 86.0428H164.757L167.601 87.5941L151.571 66.1342C150.537 64.8415 148.856 64.3244 147.305 64.8415C146.141 65.4878 145.754 66.7806 146.271 67.9441C146.529 68.0734 146.658 68.2026 146.788 68.3319Z" fill="#262626"/>
<path d="M93.6542 79.1914C93.6542 79.1914 88.4831 79.4499 91.0687 84.8795C93.6542 90.3091 97.791 88.4993 98.8253 84.8795C99.8595 81.2598 95.5933 78.6743 93.6542 79.1914Z" fill="#F5EE30"/>
<path d="M95.206 89.0163C94.0425 89.0163 92.1034 88.4992 90.552 85.2673C89.6471 83.3282 89.5178 81.7769 90.2935 80.4841C91.0692 79.4499 92.3619 78.6742 93.6547 78.6742C95.3353 78.4157 97.0159 79.0621 98.0501 80.3548C99.3428 81.5183 99.9892 83.4575 99.4721 85.2673C99.0843 87.2065 97.4037 88.7578 95.4645 89.1456L95.206 89.0163ZM94.3011 79.8377C94.1718 79.8377 94.0425 79.8377 93.9132 79.8377H93.784C92.879 79.8377 91.9741 80.3548 91.3277 81.1305C90.8106 81.9061 90.9399 83.0696 91.7155 84.6209C92.7497 86.6894 94.0425 87.7236 95.3353 87.7236C96.7573 87.465 97.9208 86.3015 98.3086 84.7502C98.6965 83.4574 98.1794 82.0354 97.2744 81.1305C96.3695 80.3548 95.3353 79.8377 94.3011 79.8377Z" fill="#F5EE30"/>
<path d="M115.374 79.1914C115.374 79.1914 110.203 79.4499 112.788 84.8795C115.374 90.3091 119.511 88.4993 120.545 84.8795C121.579 81.2598 117.313 78.6743 115.374 79.1914Z" fill="#F5EE30"/>
<path d="M116.797 89.0163C115.633 89.0163 113.694 88.4992 112.143 85.2673C111.238 83.3282 111.109 81.7769 111.884 80.4841C112.66 79.4499 113.953 78.6742 115.246 78.6742C116.926 78.4157 118.607 79.0621 119.77 80.3548C121.063 81.5183 121.709 83.4575 121.192 85.2673C120.804 87.2065 119.124 88.7578 117.185 89.1456L116.797 89.0163ZM115.892 79.8377C115.763 79.8377 115.633 79.8377 115.504 79.8377H115.375C114.47 79.8377 113.565 80.3548 112.919 81.1305C112.401 81.9061 112.531 83.0696 113.306 84.6209C114.341 86.6894 115.633 87.7236 116.926 87.7236C118.348 87.465 119.512 86.3015 119.899 84.7502C120.287 83.4574 119.77 82.0354 118.865 81.1305C118.09 80.3548 117.055 79.8377 115.892 79.8377Z" fill="#F5EE30"/>
<path d="M134.117 79.1914C134.117 79.1914 128.946 79.4499 131.532 84.8795C134.117 90.3091 138.254 88.4993 139.288 84.8795C140.322 81.2598 136.056 78.6743 134.117 79.1914Z" fill="#F5EE30"/>
<path d="M135.54 89.0163C134.376 89.0163 132.437 88.4992 130.886 85.2673C129.981 83.3282 129.852 81.7769 130.627 80.4841C131.403 79.4499 132.696 78.6742 133.989 78.6742C135.669 78.4157 137.35 79.0621 138.513 80.3548C139.806 81.5183 140.452 83.4575 139.935 85.2673C139.548 87.2065 137.867 88.7578 135.928 89.1456L135.54 89.0163ZM134.635 79.8377C134.506 79.8377 134.376 79.8377 134.247 79.8377H134.118C133.213 79.8377 132.308 80.3548 131.662 81.1305C131.145 81.9061 131.274 83.0696 132.05 84.6209C133.084 86.6894 134.376 87.7236 135.669 87.7236C137.091 87.465 138.255 86.3015 138.643 84.7502C139.03 83.4574 138.513 82.0354 137.608 81.1305C136.833 80.3548 135.799 79.8377 134.635 79.8377Z" fill="#F5EE30"/>
<path d="M281.493 299.22H141.357C139.547 299.22 137.479 299.09 135.669 299.22H135.41L139.03 303.356V196.833C139.159 195.411 139.159 193.859 139.03 192.437V192.308L138.125 193.859H278.261C280.071 193.859 282.01 193.989 283.949 193.859H284.208L280.588 189.722V287.068C280.588 291.592 280.329 296.117 280.588 300.642V300.771C280.717 302.451 281.622 303.873 283.044 304.649C284.337 305.295 284.983 304.649 284.983 303.356V206.011C284.983 201.487 285.242 196.962 284.983 192.437V192.308C284.983 190.627 283.173 188.171 281.363 188.171H141.357C139.547 188.171 137.479 188.042 135.669 188.171H135.41C134.506 188.171 134.506 189.205 134.506 189.722V287.068C134.506 291.592 134.247 296.117 134.506 300.642V300.771C134.506 302.451 136.315 304.908 138.125 304.908H278.261C280.071 304.908 282.139 305.037 283.949 304.908H284.208C285.63 304.908 284.983 302.581 284.725 301.934C284.078 300.771 282.915 299.22 281.493 299.22Z" fill="#F5EE30"/>
<path d="M139.159 303.615L153.768 292.497L188.672 265.866L230.816 233.806L267.272 206.141C273.219 201.616 279.295 197.35 285.112 192.567L285.371 192.437C286.276 191.791 286.405 190.627 285.759 189.852C285.63 189.593 285.371 189.464 285.112 189.335C283.69 188.559 281.881 188.688 280.588 189.723L265.98 200.84L231.075 227.471L188.931 259.532L152.346 287.068C146.399 291.592 140.323 295.858 134.635 300.642L134.376 300.771C133.601 301.417 133.342 302.581 133.988 303.356C134.118 303.615 134.376 303.744 134.635 303.874C136.057 304.649 137.867 304.52 139.159 303.615Z" fill="#F5EE30"/>
<path d="M286.017 301.546L271.409 290.429L236.504 263.927L194.36 231.867L157.904 204.201L145.882 195.023C144.072 193.471 142.133 192.049 140.194 190.627C140.064 190.627 140.064 190.498 139.935 190.498C139.289 189.981 137.35 190.627 136.703 190.627C135.927 190.757 135.152 190.886 134.505 191.144C134.376 191.144 133.471 191.532 133.6 191.532L148.209 202.65L183.113 229.281L225.257 261.342L261.713 289.007L273.736 298.185C275.546 299.737 277.485 301.159 279.424 302.581L279.683 302.71C280.329 303.227 282.139 302.71 282.915 302.581C283.69 302.451 284.466 302.322 285.112 302.064C285.112 301.934 286.017 301.676 286.017 301.546Z" fill="#F5EE30"/>
<path d="M185.57 119.655C186.604 109.7 195.395 102.461 205.479 103.495L399.652 123.016C409.606 124.05 416.845 132.841 415.811 142.924C414.777 152.879 405.986 160.118 395.903 159.084L201.73 139.563C191.775 138.529 184.536 129.609 185.57 119.655Z" fill="#F5EE30"/>
<path d="M397.066 156.757L390.473 156.111L372.762 154.301L347.036 151.715L316.656 148.613L284.466 145.381L253.957 142.278L227.973 139.693L210.003 137.883C207.676 137.624 205.22 137.366 202.893 137.107C193.973 136.073 187.638 127.929 188.802 119.009C189.319 114.355 191.904 110.218 195.783 107.503C199.79 104.917 203.927 105.435 208.193 105.822L223.448 107.374L247.493 109.83L277.227 112.803L309.158 116.035L340.443 119.138L367.72 121.853L388.017 123.921L397.971 124.955C401.203 125.214 404.176 126.377 406.762 128.446C412.191 132.97 414.26 140.468 411.674 147.191C409.347 153.396 403.401 157.274 397.066 156.757C395.515 156.499 393.834 157.274 392.929 158.567C392.283 159.989 393.446 161.023 394.868 161.153C403.013 161.928 411.028 158.309 415.682 151.457C419.948 145.122 420.077 136.849 416.199 130.256C412.838 124.697 407.02 121.206 400.557 120.56L398.1 120.301L384.009 118.879L360.352 116.552L330.489 113.579L297.911 110.347L265.721 107.115L237.539 104.271L216.855 102.203L206.771 101.168C202.376 100.651 197.98 101.427 193.973 103.366C186.992 106.727 182.467 113.708 182.209 121.465C182.079 129.221 186.604 136.332 193.585 139.822C196.041 140.986 198.756 141.632 201.471 141.89L212.718 143.054L234.307 145.252L262.877 148.096L295.326 151.328L327.774 154.56L357.12 157.533L380.002 159.86L392.929 161.153L394.61 161.282C396.161 161.54 397.842 160.765 398.747 159.343C399.522 158.05 398.359 156.886 397.066 156.757Z" fill="#F5EE30"/>
<path d="M386.209 128.187C381.813 128.316 378.064 131.548 377.418 135.944C376.513 140.985 378.711 146.027 382.977 148.742C386.726 150.94 391.768 151.328 395.258 148.484C398.49 145.769 399.783 141.373 398.749 137.366C397.973 134.651 396.163 132.324 393.707 130.902C391.638 129.868 389.441 129.221 387.114 128.963C385.562 128.704 384.787 130.385 385.175 131.678C385.433 133.229 386.726 134.522 388.277 134.91C388.924 135.039 389.699 135.039 390.346 135.297L390.863 135.427C390.992 135.427 391.38 135.556 390.863 135.427C391.251 135.556 391.509 135.685 391.897 135.814C392.285 135.944 393.061 136.332 392.414 135.944C392.673 136.073 392.931 136.332 393.19 136.461C392.673 135.944 393.448 136.59 393.19 136.461L393.448 136.719C393.965 137.236 393.319 136.59 393.319 136.59L393.578 136.978C393.707 137.236 393.707 137.236 393.578 136.978L393.448 136.849L393.578 137.236C393.707 137.495 393.578 137.495 393.578 137.107C393.578 137.495 393.707 137.754 393.707 138.141C393.707 137.495 393.836 138.529 393.707 138.141V138.529C393.707 138.659 393.707 138.917 393.707 139.046V139.434C393.707 139.176 393.707 139.176 393.707 139.305C393.578 139.951 393.319 140.598 393.061 141.244C392.931 141.632 393.319 140.727 393.061 141.373C392.931 141.503 392.931 141.632 392.802 141.761C392.543 142.149 392.414 142.408 392.156 142.666C392.156 142.795 391.768 143.054 392.026 142.795C391.897 142.925 391.768 143.054 391.638 143.054C391.38 143.312 390.992 143.571 390.604 143.7C390.475 143.83 389.829 144.088 390.087 143.959C389.699 144.088 389.311 144.217 388.794 144.347C388.407 144.476 388.148 144.476 387.76 144.476C386.985 144.605 388.019 144.476 387.631 144.476H386.985C386.726 144.476 386.338 144.476 386.08 144.347C386.08 144.347 385.304 144.217 385.692 144.217C386.08 144.217 385.175 144.088 385.175 144.088C384.916 143.959 384.528 143.83 384.27 143.7C383.623 143.442 384.528 143.959 384.14 143.7L383.623 143.312C383.494 143.183 383.365 143.183 383.236 143.054C383.106 142.925 382.848 142.795 382.848 142.537L383.106 142.795C382.977 142.666 382.848 142.537 382.848 142.408C382.718 142.278 382.718 142.149 382.589 142.02C382.848 142.149 382.848 142.537 382.718 142.149C382.718 142.02 382.589 141.761 382.46 141.632C382.331 141.244 382.589 142.408 382.46 141.632C382.331 141.244 382.331 140.856 382.201 140.598C382.072 140.339 382.201 141.244 382.201 140.468C382.201 140.21 382.201 139.951 382.201 139.693C382.201 139.434 382.201 139.434 382.201 139.176C382.201 138.4 382.072 139.563 382.201 138.917C382.331 138.529 382.46 138.012 382.589 137.624C382.589 137.495 382.848 137.107 382.718 137.366C382.848 137.107 382.977 136.978 383.106 136.719C383.365 136.332 383.623 136.073 383.882 135.814C383.882 135.814 384.399 135.297 384.14 135.556C383.882 135.814 384.399 135.297 384.528 135.297C384.916 135.039 385.175 134.78 385.562 134.651C385.692 134.651 385.95 134.522 385.562 134.651C385.821 134.522 385.95 134.522 386.209 134.392C386.338 134.392 386.597 134.263 386.726 134.263C386.855 134.263 387.631 134.263 386.985 134.263C388.148 134.263 389.053 133.358 389.053 132.195C389.053 131.936 389.053 131.678 388.924 131.548C388.665 130.256 387.372 128.316 385.821 128.316L386.209 128.187Z" fill="white"/>
<path d="M391.508 144.605L397.067 151.715C397.455 152.103 397.842 152.362 398.36 152.491C399.135 152.879 399.911 153.137 400.687 153.267C401.333 153.396 401.979 153.525 402.626 153.525C402.755 153.525 403.401 153.396 403.143 153.137L397.584 146.027C397.196 145.639 396.808 145.381 396.291 145.251C395.516 144.864 394.74 144.605 393.964 144.476C393.318 144.217 392.671 144.217 392.025 144.217C391.767 144.217 391.249 144.217 391.508 144.605Z" fill="white"/>
<path d="M205.09 132.324C208.58 132.194 211.941 131.419 215.173 130.255C218.017 129.092 221.508 127.411 223.447 124.955C225.386 122.499 224.998 119.396 222.025 118.103C219.052 116.811 215.044 117.716 213.493 120.689C210.39 126.894 217.888 132.194 223.188 133.099C229.394 134.263 235.728 131.677 239.348 126.506C241.804 122.887 245.812 111.64 238.055 111.769C234.177 111.769 233.013 114.742 232.108 117.974C231.204 121.206 231.462 124.567 232.884 127.541C235.47 133.099 241.287 138.012 247.622 137.753C253.31 137.495 258.998 132.97 257.576 126.765C256.8 123.404 253.698 120.43 249.949 121.852C246.975 123.016 245.553 126.377 246.587 129.35C247.622 132.712 250.983 135.168 253.956 136.848C257.447 138.658 261.196 139.434 265.074 139.305C266.237 139.305 268.306 138.658 268.177 137.236C268.047 135.814 265.85 135.426 264.815 135.426C261.454 135.426 258.222 134.263 255.637 132.065C254.344 131.16 253.31 129.738 252.663 128.187C252.534 127.541 252.534 126.765 252.663 126.118C252.793 125.86 252.922 125.472 253.051 125.214C253.181 124.955 253.698 124.696 253.181 124.955L249.302 124.826C251.629 125.86 251.5 129.738 250.466 131.548C249.044 134.004 246.975 134.263 244.778 132.841C241.933 131.031 239.736 128.316 238.572 125.214C237.926 123.404 237.667 121.465 238.055 119.525C238.314 118.491 238.572 117.586 238.831 116.552C238.96 116.164 239.089 115.776 239.219 115.518C239.994 113.837 239.477 116.423 236.762 115.389L235.599 114.742C236.892 115.776 235.857 119.396 235.47 120.689C234.823 122.887 233.789 124.826 232.238 126.506C229.652 129.35 225.903 130.385 222.413 128.187C220.474 127.153 219.31 125.214 219.31 123.016C219.439 122.499 219.569 121.852 219.827 121.335L219.956 121.077C220.603 120.43 219.827 120.43 217.888 121.077C217.888 121.206 218.147 121.594 218.147 121.723C218.147 122.24 218.017 122.757 217.759 123.145C216.466 124.955 213.751 126.118 211.683 127.023C209.485 127.928 207.158 128.445 204.831 128.445C203.668 128.445 201.729 128.963 201.729 130.514C201.729 132.065 204.055 132.324 205.09 132.324Z" fill="#262626"/>
<path d="M258.612 105.434C258.612 105.434 269.859 134.522 275.288 142.666C280.718 150.81 287.828 144.993 286.147 131.677C286.147 131.677 289.509 141.632 295.972 134.004C302.436 126.377 298.946 109.571 298.946 109.571C298.946 109.571 310.322 126.636 315.235 121.077C320.147 115.518 251.372 30.5833 243.615 27.7393C235.859 24.8952 207.418 68.2028 208.582 72.7274C209.745 77.2521 248.269 103.366 248.269 103.366" fill="white"/>
<path d="M255.639 106.469C258.353 113.45 261.197 120.431 264.3 127.412C266.368 132.065 268.308 136.59 270.764 140.986C273.091 145.122 276.711 149.906 282.14 148.871C289.768 147.449 290.026 137.237 289.38 131.29L283.045 132.065C283.692 134.005 284.726 135.814 286.277 137.366C289.25 140.21 293.775 140.21 296.748 137.624C303.083 132.324 303.471 123.275 303.083 115.647C302.954 113.45 302.695 111.381 302.307 109.313L296.231 110.735C298.429 114.096 301.015 117.199 303.859 120.043C307.349 123.404 314.071 127.929 318.079 122.758C319.63 120.818 318.596 118.104 317.691 116.164C316.398 113.32 314.847 110.606 313.167 108.02C307.866 99.4878 301.79 91.3434 295.714 83.3283C288.604 74.0204 281.365 64.8418 273.867 55.7924C267.661 48.2944 261.327 40.7964 254.734 33.8154C252.794 31.6178 250.726 29.5493 248.528 27.6102C246.201 25.671 243.874 24.249 240.772 25.2832C237.023 26.4467 233.791 29.6786 231.205 32.5227C227.456 36.6595 223.837 41.0549 220.605 45.5796C217.114 50.3628 213.882 55.2753 210.909 60.3171C208.841 63.4197 207.16 66.7809 205.867 70.4007C205.35 71.6934 205.35 73.1155 205.996 74.4082C206.772 75.701 207.806 76.8645 208.97 77.8987C212.719 81.2599 216.597 84.4918 220.734 87.3359C228.62 93.2826 236.764 98.9707 244.909 104.53L246.46 105.564C249.433 107.632 253.699 103.625 250.209 101.298C244.392 97.2901 238.574 93.2826 232.757 89.1457C228.361 85.9138 223.966 82.6819 219.57 79.3207L218.278 78.2865L217.631 77.7694L217.373 77.5109C217.502 77.6401 217.631 77.6401 217.373 77.5109C216.597 76.8645 215.692 76.2181 214.917 75.4424C213.753 74.4082 212.848 73.374 211.814 72.3398C211.555 72.0812 212.331 72.8569 211.943 72.5984C211.814 72.4691 211.814 72.3398 211.814 72.3398C211.814 72.3398 211.814 72.0812 211.685 72.0812C211.555 72.0812 211.943 72.7276 211.814 72.4691C211.685 72.2105 211.685 73.2447 211.814 72.7276C211.814 72.4691 211.943 72.2105 211.943 72.0812C211.943 71.952 211.685 72.7276 211.943 72.3398C211.943 72.2105 212.072 72.0812 212.072 71.952C212.072 71.8227 212.331 71.3056 212.46 71.047C212.719 70.2714 213.107 69.625 213.494 68.8493C215.563 64.7125 217.89 60.7049 220.475 56.8266C223.319 52.4312 226.681 47.648 230.042 43.3819C231.722 41.3135 233.403 39.2451 235.084 37.3059C235.859 36.401 236.635 35.6253 237.411 34.7204L238.574 33.6862L239.091 33.1691C239.22 33.0398 239.738 32.652 239.35 32.9105C239.996 32.3934 240.642 31.747 241.418 31.3592C241.677 31.1006 242.065 30.9714 242.452 30.7128C242.84 30.4543 242.711 30.5835 242.323 30.7128L242.84 30.4543C243.099 30.325 243.874 30.1957 243.228 30.325C242.582 30.4543 243.099 30.325 243.228 30.325C243.874 30.1957 242.452 30.325 242.84 30.325C243.487 30.325 241.935 30.0664 242.711 30.325C242.969 30.4543 241.935 29.8079 242.323 30.1957C242.582 30.4543 242.84 30.5835 243.099 30.7128C243.357 30.8421 243.487 30.9714 243.616 31.1006C243.099 30.8421 243.228 30.8421 243.616 31.1006C244.521 31.8763 245.426 32.7812 246.331 33.5569C252.148 39.245 257.448 45.5796 262.749 51.7849C269.859 60.1878 276.84 68.7201 283.562 77.2523C290.026 85.6553 296.102 93.5411 302.049 102.073C304.376 105.305 306.573 108.666 308.642 112.157C309.418 113.45 310.193 114.742 310.84 116.164C311.098 116.682 311.357 117.328 311.615 117.845L311.874 118.621C311.874 118.75 312.003 118.879 312.003 119.009C312.262 119.526 311.874 118.491 312.003 118.75C312.132 119.009 312.262 119.526 312.391 119.913C312.391 120.043 312.391 120.172 312.52 120.431C312.649 120.818 312.52 119.655 312.52 120.172C312.52 120.689 312.649 119.913 312.649 119.913C312.391 120.431 313.037 119.267 312.908 119.655C312.908 119.784 313.167 119.267 312.908 119.655C312.649 120.172 312.908 119.526 312.908 119.655C313.037 119.526 313.167 119.526 312.908 119.655C312.391 119.784 313.554 119.526 312.908 119.655C313.167 119.526 313.684 119.526 312.908 119.655C312.649 119.784 313.425 119.913 313.167 119.655L312.908 119.526C312.649 119.396 312.52 119.396 312.262 119.267C312.779 119.526 312.391 119.267 312.132 119.138C311.874 119.009 311.615 118.879 311.357 118.621C310.452 117.974 309.676 117.328 308.9 116.552C307.091 114.742 305.539 112.933 303.988 110.864L303.6 110.347C303.212 109.83 303.6 110.347 303.471 110.218C303.342 110.088 303.083 109.701 302.824 109.442L302.307 108.666C301.532 107.374 299.98 106.727 298.429 107.115C297.007 107.244 295.973 108.666 296.231 109.959C297.395 115.777 297.395 121.723 295.973 127.412C295.585 129.092 294.939 130.643 293.904 132.065C293.387 132.97 292.612 133.617 291.707 134.263C291.577 134.392 290.931 134.522 291.448 134.392C291.19 134.392 291.319 134.392 291.707 134.522C291.577 134.522 291.448 134.392 291.19 134.392C291.577 134.522 291.577 134.522 291.319 134.392C291.06 134.263 291.06 134.263 291.319 134.392L290.931 134.005C290.802 133.875 290.155 133.1 290.672 133.617C290.543 133.358 290.285 133.1 290.155 132.841C289.897 132.453 289.638 131.936 289.509 131.548C289.121 130.643 289.38 131.161 289.509 131.548C288.475 128.446 282.787 128.446 283.174 132.324C283.692 135.168 283.433 138.141 282.657 140.986C282.399 141.89 281.882 142.666 281.365 143.442C281.235 143.571 281.106 143.7 280.977 143.83C281.365 143.442 280.977 143.83 280.847 143.83C280.46 144.088 281.494 143.442 280.847 143.83C280.201 144.217 281.365 143.7 280.718 143.83C280.072 143.959 280.847 143.83 280.847 143.83C280.847 143.83 279.813 143.7 280.718 143.83C280.589 143.83 280.33 143.7 280.201 143.7C280.718 144.088 280.201 143.7 280.072 143.571C279.296 143.054 278.65 142.408 278.133 141.761C277.228 140.339 276.323 138.788 275.547 137.237C271.281 128.963 267.791 120.301 264.3 111.64C263.395 109.313 262.49 106.986 261.585 104.788C260.293 101.168 254.217 102.72 255.639 106.469Z" fill="#262626"/>
<path d="M282.528 106.856L284.209 128.316L284.468 131.419C284.597 132.97 285.372 134.522 286.665 135.426C287.699 136.073 288.992 135.685 288.863 134.263L287.182 112.803L286.924 109.7C286.795 108.149 286.019 106.598 284.726 105.693C283.563 105.046 282.399 105.434 282.528 106.856Z" fill="#262626"/>
<path d="M81.504 265.349C81.504 265.349 85.1238 76.9936 119.641 71.564C187.64 60.834 210.134 81.7768 210.134 81.7768C210.134 81.7768 256.803 42.7353 262.749 38.4692C262.749 38.4692 246.073 11.4505 209.358 2.14257C149.891 -12.9828 57.5879 54.2409 22.4247 132.324C-12.7384 210.407 27.5958 352.869 77.3672 360.497L81.504 265.349Z" fill="#262626"/>
<path d="M118.864 82.9403C118.864 82.9403 127.267 105.434 143.427 110.993C159.586 116.552 192.811 122.37 190.225 139.563C187.639 156.757 164.111 154.43 151.442 146.674C151.442 146.674 139.29 190.11 110.203 192.179C81.1157 194.247 72.1957 183.129 64.0513 199.548C64.0513 199.548 33.542 183.259 36.7739 168.651C37.9374 163.35 43.6256 112.027 89.2602 106.469C89.5187 106.469 114.857 104.788 118.864 82.9403Z" fill="white"/>
<path d="M115.633 83.1987C118.089 89.7918 121.709 95.8678 126.233 101.168C129.724 105.693 134.248 109.313 139.419 111.769C144.073 113.708 148.857 115.259 153.769 116.423C158.94 117.974 164.24 119.525 169.282 121.465C173.678 123.016 177.944 125.214 181.693 127.928C184.666 130.255 186.993 133.099 187.252 136.719C187.51 140.985 185.571 144.993 182.21 147.449C178.202 150.164 173.161 150.293 168.507 149.776C163.206 149.13 158.035 147.449 153.381 144.734C151.701 143.7 148.857 143.959 148.339 146.027C148.21 146.286 148.21 146.544 148.081 146.803C147.952 147.061 147.693 147.966 147.952 147.191L147.564 148.483C146.659 151.069 145.625 153.654 144.59 156.24C141.617 163.479 137.48 170.331 132.438 176.407C129.724 179.639 126.492 182.612 123.001 184.939C119.64 187.266 115.762 188.688 111.754 189.464C101.412 190.886 91.1993 189.076 80.9865 188.171C77.1082 187.783 72.9714 187.783 69.3516 189.464C65.7319 191.144 63.0171 194.764 61.2072 198.513L66.1197 197.738C62.6293 195.798 59.3973 193.73 56.1654 191.532C51.1237 187.913 45.3062 183.259 41.945 177.57C40.3937 175.243 39.7473 172.529 40.0059 169.814C40.1352 168.78 40.3937 167.616 40.6523 166.582C41.2987 162.833 42.0743 159.213 43.1085 155.593C46.0819 144.734 51.1237 133.358 59.0095 124.696C63.6635 119.525 69.4809 115.259 75.8154 112.415C80.8572 110.347 86.1576 108.925 91.5872 108.408C103.351 106.727 115.762 100.651 120.416 89.1454C121.191 87.2063 121.709 85.1379 122.096 83.1987C122.613 80.2254 116.279 79.3204 115.633 82.4231C114.34 89.404 110.074 95.48 103.998 99.0997C101.541 100.522 98.9559 101.685 96.3704 102.461C95.2069 102.849 94.0434 103.107 92.8799 103.366L91.4579 103.624L90.8115 103.754C90.1651 103.883 91.5872 103.624 90.8115 103.754C85.1233 104.4 79.5645 105.693 74.1348 107.632C67.1539 110.347 60.8194 114.484 55.5191 119.784C46.599 128.704 40.9108 140.339 37.2911 152.362C36.1276 156.369 35.0934 160.247 34.3177 164.384C33.6713 168.004 32.8957 171.494 34.1885 175.114C36.5154 181.837 42.2036 187.137 47.6332 191.532C51.8993 195.023 56.5533 197.996 61.3365 200.711L62.1121 201.099C63.4049 201.874 66.1197 202.004 67.0246 200.323C67.8003 198.643 68.8345 196.962 69.998 195.54C70.5151 195.023 71.0322 194.506 71.5493 194.118C72.0664 193.601 71.42 194.118 72.0664 193.73L72.9714 193.213C73.6177 192.825 72.7128 193.213 73.4885 193.084C73.747 192.954 74.1348 192.954 74.3934 192.825C74.652 192.696 75.5569 192.696 74.7812 192.696C75.1691 192.567 75.6862 192.567 76.074 192.567H77.3668C77.6253 192.567 78.9181 192.567 78.0131 192.567C78.9181 192.567 79.823 192.696 80.7279 192.696C91.3286 193.73 102.059 195.54 112.788 194.118C130.887 191.662 142.651 175.631 149.762 160.118C151.83 155.852 153.511 151.327 154.803 146.803L149.762 148.095C158.811 153.525 171.221 156.498 181.434 153.396C186.217 152.103 190.225 148.871 192.293 144.346C194.362 139.951 194.103 134.909 191.776 130.772C189.32 126.636 185.183 123.662 181.046 121.335C176.134 118.75 170.963 116.681 165.663 115.001C160.362 113.32 155.062 111.769 149.891 110.217C147.693 109.571 145.366 108.925 143.168 108.02C140.583 106.856 138.256 105.305 136.317 103.495C132.051 99.4875 128.431 94.8336 125.587 89.6625C124.553 87.8527 123.648 86.0428 122.872 84.2329L122.613 83.7158C122.355 83.328 122.872 84.1037 122.613 83.7158C122.484 83.4573 122.355 83.1987 122.355 83.0694C122.355 82.9402 122.226 82.6816 122.096 82.4231C121.45 81.001 120.028 80.2254 118.477 80.3546C117.184 80.7425 115.115 81.6474 115.633 83.1987Z" fill="#262626"/>
<path d="M29.4043 144.993C29.4043 144.993 5.35888 147.837 3.29046 134.78C1.22203 121.723 15.8303 126.765 15.8303 126.765C15.8303 126.765 2.12697 98.7119 26.4309 97.2899C26.4309 97.2899 9.49572 75.0544 27.5944 59.0241C45.6931 42.9938 74.9096 59.0241 74.9096 59.0241C74.9096 59.0241 78.0122 30.8419 101.67 37.8228C125.327 44.8037 117.054 60.7047 117.054 60.7047C117.054 60.7047 132.179 64.8415 131.274 74.6665C130.369 84.4915 118.217 86.56 118.217 86.56C118.217 86.56 110.073 113.449 89.5178 106.469L64.3089 138.271C64.3089 138.271 69.7385 151.845 60.1721 163.738C50.6056 175.631 25.7845 162.704 29.4043 144.993Z" fill="white"/>
<path d="M31.9902 143.83C26.302 144.605 20.4846 144.217 14.9257 142.537C11.306 141.373 7.94479 139.176 6.7813 135.427C6.00564 133.358 6.00564 131.031 6.52275 128.833C6.7813 128.058 7.16913 127.411 7.68623 126.765C7.81551 126.636 8.07406 126.506 8.20334 126.377C7.68623 126.636 7.16913 126.765 6.65202 126.894C6.39347 127.024 6.26419 127.024 6.00564 127.024C6.26419 127.024 6.26419 127.024 6.13492 127.024C8.46189 126.894 10.6596 127.282 12.8573 127.929C13.5037 128.187 19.0626 126.377 18.804 125.731C17.5112 123.016 16.477 120.043 15.8306 117.069C14.6672 112.157 14.1501 106.21 17.2527 101.944C18.0283 100.651 19.1918 99.617 20.4846 98.9706C20.6139 98.9706 21.131 98.5828 20.7431 98.8414C20.6139 98.9706 20.4846 98.9706 20.3553 98.9706C21.3895 98.7121 20.0968 98.9706 20.7431 98.8414C21.7774 98.5828 22.8116 98.4535 23.9751 98.4535C24.6214 98.4535 29.9218 96.7729 29.6632 96.2558C23.5872 88.37 20.0968 76.7351 23.9751 67.2979C26.6899 60.5755 33.1537 54.4996 40.3932 53.3361C47.2448 52.3019 54.355 53.5946 60.9481 55.663C64.8264 56.8265 68.5754 58.2486 72.0659 60.1877C72.7122 60.5755 74.9099 59.6706 75.5563 59.4121C76.2027 59.1535 78.0126 58.7657 78.0126 57.99C78.7882 51.2677 81.7616 43.5111 87.3205 39.3742C87.8376 38.9864 88.2254 38.7278 88.7425 38.34L89.1303 38.0815C89.1303 38.0815 89.5182 37.8229 89.2596 37.9522C89.0011 38.0815 89.7767 37.8229 89.2596 37.9522C88.2254 38.2107 89.1303 37.9522 89.6474 37.9522C90.4231 37.8229 91.0695 37.8229 91.8451 37.8229C95.8527 37.9522 99.8603 38.8571 103.48 40.667C108.91 42.994 114.081 47.1308 115.115 53.2068C115.632 56.0509 115.115 59.0242 113.951 61.6098C113.822 61.739 113.822 61.8683 114.081 61.8683C118.347 62.9025 122.225 65.1002 125.328 68.2029C130.24 73.3739 128.172 80.8719 122.354 84.4917C121.837 84.7502 121.32 85.0088 120.803 85.2673C120.544 85.3966 120.932 85.2673 120.932 85.2673L120.674 85.3966C119.898 85.6552 121.191 85.2673 120.803 85.3966C120.674 85.3966 119.898 85.6552 120.415 85.5259C120.932 85.3966 120.286 85.5259 120.157 85.5259C119.51 85.7844 120.674 85.3966 120.286 85.5259C119.122 85.7844 117.959 86.043 116.925 86.5601C116.408 86.8187 115.373 87.0772 115.244 87.5943C114.339 90.3091 113.176 92.8946 111.754 95.3509C110.461 97.6778 108.91 99.8755 107.1 101.815C106.195 102.849 105.161 103.754 104.126 104.53C103.609 104.917 102.963 105.305 102.446 105.693C102.187 105.822 101.929 105.952 101.67 106.081L101.153 106.339C101.67 106.081 100.894 106.339 101.541 106.21C101.541 106.21 101.153 106.339 100.894 106.339C100.119 106.469 99.3432 106.469 98.4382 106.469C96.3698 106.339 94.3014 105.952 92.3622 105.305C91.5866 105.047 90.0353 105.693 89.2596 105.952C88.2254 106.21 87.1912 106.598 86.4155 107.374L63.4043 136.461C62.8872 137.107 61.3359 138.529 61.3359 139.305C61.4652 139.693 61.4652 139.951 61.7238 140.339C61.9823 141.115 62.1116 141.89 62.2409 142.666C62.6287 144.734 62.8872 146.932 62.758 149.13C62.6287 155.077 60.431 161.54 56.0356 165.806C55.3892 166.324 54.7428 166.841 54.0964 167.229C53.4501 167.746 55.0014 166.97 55.0014 166.97C55.0014 166.97 54.355 167.099 54.0964 167.099C52.028 167.229 50.0889 167.099 48.0205 166.582C38.1955 163.997 30.4389 154.301 32.378 143.959C32.378 143.571 29.4047 144.476 29.1461 144.476C28.4997 144.734 26.4313 145.252 26.302 146.027C24.4922 155.723 31.0853 164.643 39.876 168.004C44.2714 169.685 49.0547 169.814 53.4501 168.392C56.1649 167.616 58.7504 166.453 61.0774 164.772C63.2751 162.833 65.0849 160.377 66.3777 157.662C68.7047 152.62 69.4803 146.932 68.5754 141.373C68.3168 139.951 67.929 138.788 67.5412 137.366C67.4119 137.107 67.4119 137.107 67.4119 137.236C67.4119 137.107 67.6705 136.849 67.7997 136.719L80.4688 120.818L92.4915 105.564L86.5448 107.632C94.3014 110.218 103.351 108.02 109.815 102.978C114.21 99.2292 117.7 94.4459 119.898 89.0163C120.415 87.8529 120.932 86.5601 121.32 85.3966L116.149 87.5943C120.415 86.8186 124.423 85.2673 128.172 82.9404C132.567 80.0963 135.928 74.6667 133.731 69.4956C131.921 65.2295 127.267 62.5147 123.13 60.8341C122.484 60.5755 121.708 60.317 121.062 60.0584C120.674 60.0584 120.286 59.9292 120.027 59.6706C120.286 59.7999 120.027 60.0584 120.286 59.6706C120.415 59.2828 120.544 59.0242 120.674 58.6364C121.579 56.0509 121.837 53.2068 121.191 50.3627C120.157 45.7088 116.537 42.3476 112.529 40.0206C107.1 36.918 100.377 34.9788 94.0428 35.8838C88.6132 36.5301 83.5715 38.9864 79.5639 42.7354C75.2978 47.2601 72.7122 53.9825 71.9366 60.0584L77.8833 57.8607C68.3168 52.6897 56.4234 49.5871 45.5642 51.0091C36.3856 52.1726 26.9484 56.1802 21.131 63.5489C16.2185 69.8834 15.1843 77.7693 17.2527 85.2673C18.4162 89.9213 20.6139 94.3167 23.4579 98.195L29.1461 95.868C21.6481 96.3851 11.9524 99.0999 9.62538 107.244C8.07406 112.545 9.4961 118.621 11.1767 123.662C11.5645 124.955 12.2109 126.248 12.728 127.541L18.6747 125.343C16.3478 124.567 13.8915 124.18 11.5645 124.438C7.16913 124.826 1.09314 126.636 0.188205 131.548C-1.62166 142.278 10.0132 145.639 18.2869 146.027C21.131 146.157 23.9751 146.156 26.9484 145.898C28.3705 145.639 29.7925 145.252 31.2145 144.605C31.3438 144.734 33.1537 143.7 31.9902 143.83Z" fill="#262626"/>
<path d="M92.2329 112.286C92.2329 112.286 91.5866 93.0239 77.4954 94.8337C63.4043 96.6436 52.4158 138.529 76.7198 140.598" fill="white"/>
<path d="M95.4656 112.027C95.3363 107.244 93.9142 102.59 91.458 98.5827C87.3212 92.2482 78.9182 90.309 72.3251 94.058C66.8955 97.29 63.6636 103.366 61.5952 109.183C59.1389 115.647 58.6218 122.628 60.0438 129.35C61.7244 136.978 68.3175 142.666 76.0741 143.183C77.6254 143.312 79.4353 142.666 79.9524 141.115C80.211 139.693 79.1767 138.4 77.884 138.141C77.7547 138.141 77.6254 138.141 77.4961 138.141C76.7205 138.012 75.9448 138.012 75.1692 137.753C74.3935 137.495 75.1692 137.753 74.5228 137.624L73.4886 137.236L72.4544 136.849C72.1958 136.719 72.4544 136.849 72.5836 136.849L72.0665 136.59C71.5494 136.202 70.9031 135.814 70.3859 135.426C69.9981 135.039 70.2567 135.297 70.3859 135.426L69.9981 135.039C69.7396 134.78 69.6103 134.651 69.3517 134.392C68.8346 133.875 68.4468 133.229 68.059 132.712C68.3175 133.1 67.9297 132.453 67.8004 132.324C67.6711 132.195 67.5419 131.807 67.4126 131.548C67.154 130.902 66.8955 130.255 66.6369 129.609C66.2491 128.446 65.8613 127.153 65.732 125.86C65.6027 124.438 65.4734 122.887 65.4734 121.465C65.6027 118.621 65.9906 115.776 66.7662 112.932C67.4126 110.218 68.5761 107.503 69.8688 105.047C70.5152 103.883 71.2909 102.72 72.0665 101.685C72.0665 101.556 72.7129 100.78 72.3251 101.298C72.4544 101.039 72.7129 100.91 72.8422 100.651C73.23 100.134 73.6179 99.7462 74.135 99.3584L74.7813 98.8413C75.2985 98.3242 74.5228 98.9706 74.9106 98.712C75.2984 98.4535 75.8156 98.1949 76.3327 97.9363C76.8498 97.6778 75.8156 98.0656 76.4619 97.9363L77.1083 97.6778C77.7547 97.4192 77.3669 97.6778 77.2376 97.6778C77.7547 97.6778 78.2718 97.5485 78.7889 97.5485C79.9524 97.5485 81.2452 97.8071 82.2794 98.3242C81.8915 98.0656 82.6672 98.5827 82.7965 98.712C83.055 98.9706 83.4429 99.0998 83.7014 99.3584C83.4429 99.0998 83.96 99.6169 84.0892 99.7462C84.3478 100.005 84.6064 100.393 84.8649 100.651C85.7698 101.815 86.4162 102.978 86.9333 104.4C87.1919 105.176 87.4504 105.822 87.709 106.598C87.709 106.856 87.9675 107.632 87.9675 107.503C87.9675 107.374 88.0968 108.02 88.0968 108.149C88.4846 109.7 88.6139 111.252 88.7432 112.803C89.131 116.035 95.5948 115.647 95.4656 112.027Z" fill="#262626"/>
<path d="M121.061 148.225C121.061 154.947 124.034 162.445 129.722 166.324C133.213 168.651 137.091 170.073 141.228 170.46C141.745 170.59 144.072 170.848 143.684 169.814C143.296 168.78 140.711 168.392 139.935 168.392L139.418 168.263C139.676 168.263 140.064 168.392 139.418 168.263C139.159 168.263 138.254 168.004 139.03 168.133C138.642 168.004 138.384 167.875 137.996 167.875C137.608 167.875 138.384 168.004 138.125 167.875L137.608 167.616L137.22 167.487C137.349 167.487 137.608 167.616 137.22 167.487L136.444 167.099C135.927 166.841 135.539 166.582 135.152 166.194C133.471 164.902 132.049 163.221 130.886 161.411C129.205 158.438 128.171 155.077 127.783 151.715C127.654 150.94 127.654 150.293 127.654 149.518C127.395 147.837 121.061 147.061 121.061 148.225Z" fill="#262626"/>
<path d="M122.612 113.191C122.612 113.191 125.844 114.872 123.905 117.716C121.966 120.56 118.476 118.362 119.251 115.389C119.51 113.967 120.803 112.932 122.225 113.062C122.354 113.062 122.483 113.062 122.612 113.191Z" fill="#262626"/>
<path d="M77.6255 351.189C67.4127 354.291 56.6827 354.42 46.3406 351.835C29.5347 347.44 33.2837 329.987 42.4623 331.021C51.641 332.056 64.5686 336.71 74.9107 330.892" fill="white"/>
<path d="M76.9779 349.12C75.8144 349.508 74.5217 349.896 73.3582 350.154L72.9704 350.284L71.9362 350.413L70.1263 350.671C68.1872 350.93 66.3773 351.189 64.4381 351.318C60.172 351.576 55.9059 351.318 51.6398 350.542C48.02 349.896 44.4003 348.991 41.5562 346.535C39.8756 345.113 38.5829 343.173 38.0658 341.105C37.6779 339.424 37.6779 337.485 38.3243 335.934C38.4536 335.546 38.7121 335.029 38.9707 334.641C38.7121 335.029 39.3585 334.124 39.6171 333.995C40.1342 333.478 39.2292 334.383 39.7464 333.866L40.2635 333.478C39.6171 333.995 40.1342 333.478 40.2635 333.478C41.1684 333.09 40.0049 333.736 40.522 333.348C40.7806 333.219 41.4269 333.219 40.522 333.348C40.7806 333.348 40.9098 333.348 41.1684 333.219C40.3927 333.219 41.8148 333.348 41.944 333.348C43.8832 333.607 45.6931 333.995 47.6322 334.253C57.3279 336.063 67.4115 337.485 76.4608 332.573C77.495 331.926 78.7878 330.634 77.8829 329.341C76.9779 328.048 74.7802 328.565 73.6168 329.082C65.8602 333.348 56.5523 330.892 48.2786 329.47C44.9174 328.824 41.6855 328.177 38.4536 329.599C35.9973 330.634 34.0582 332.444 32.8947 334.641C30.697 339.295 31.6019 344.854 35.0924 348.603C37.5487 351.059 40.6513 352.869 44.0125 353.774C49.0543 355.196 54.096 355.843 59.2671 355.843C65.7309 355.972 72.1947 355.067 78.4 353.128C79.5635 352.74 81.2441 351.576 80.8562 350.154C80.4684 348.732 78.1414 348.732 76.9779 349.12Z" fill="#262626"/>
<path d="M70.5139 313.957C70.5139 313.957 58.8791 294.566 68.4455 286.292C78.012 278.018 104.643 284.611 100.765 295.6C96.8863 306.588 79.9511 303.098 79.9511 303.098" fill="white"/>
<path d="M73.2286 312.277C70.7724 308.14 68.9625 303.615 68.0576 298.961C67.4112 295.858 67.1526 292.239 68.7039 289.265C69.0918 288.619 69.4796 287.973 69.9967 287.585C69.7381 287.843 70.3845 287.197 70.5138 287.197C70.6431 287.197 71.0309 286.809 70.7724 287.068C70.5138 287.326 71.1602 286.809 71.1602 286.809L71.6773 286.551H71.548L72.5822 286.163C73.2286 285.904 73.875 285.775 74.5214 285.516C80.9852 284.224 87.7076 285.258 93.3957 288.36C95.4641 289.524 97.6618 291.334 98.1789 293.661C98.4375 294.824 98.3082 295.988 97.7911 296.893C97.5326 297.539 97.1447 298.056 96.7569 298.573C96.6276 298.832 96.3691 298.961 96.2398 299.22C96.1105 299.349 95.2056 299.995 95.7227 299.737L95.2056 300.125C94.6885 300.383 95.3349 300.125 94.947 300.254C94.5592 300.383 94.0421 300.642 93.6543 300.771C93.3957 300.9 93.1372 300.9 92.8786 301.029C92.4908 301.159 92.103 301.159 91.7151 301.288C90.1638 301.547 88.6125 301.676 86.9319 301.676C85.2513 301.676 83.5707 301.547 81.8901 301.159C80.3388 301.029 78.7875 301.676 77.7533 302.969C77.1069 303.744 76.5898 305.296 78.0118 305.683C83.7 306.976 89.6467 306.459 95.0763 304.261C99.0839 302.452 102.704 299.09 103.867 294.695C104.513 291.722 103.479 288.49 101.023 286.551C98.3082 284.224 94.947 282.543 91.4566 281.897C87.449 280.862 83.3122 280.475 79.1753 280.862C74.9092 281.25 70.7724 282.672 67.2819 285.258C63.9207 287.973 61.8523 291.98 61.8523 296.246C61.5937 302.969 64.4378 310.208 67.799 315.896C68.9625 317.706 74.5214 314.345 73.2286 312.277Z" fill="#262626"/>
<path d="M66.637 332.961C66.637 332.961 55.0021 313.57 64.5686 305.296C74.135 297.022 100.766 303.615 96.8877 314.604C93.0094 325.592 76.0742 322.102 76.0742 322.102" fill="white"/>
<path d="M69.7397 333.349C67.1542 329.083 65.4736 324.429 64.4394 319.516C63.6638 316.155 63.9223 312.535 65.0858 309.303C66.6371 306.33 69.2226 304.132 72.4546 303.356C75.4279 302.452 78.5305 302.193 81.6332 302.581C82.9259 302.71 84.2187 302.969 85.3822 303.356C86.6749 303.874 88.097 304.391 89.2605 305.166C91.3289 306.459 93.3973 308.398 93.7851 310.984C94.173 314.086 92.2338 317.189 89.7776 318.87C86.9335 320.809 83.5723 321.714 80.0819 321.714C79.4355 321.714 78.7891 321.714 78.1427 321.714H77.2378C76.85 321.714 77.7549 321.843 76.9792 321.714L76.3328 321.584C75.6865 321.455 77.2378 321.714 76.4621 321.584C76.0743 321.584 75.1694 321.326 76.7207 321.584C76.0743 321.455 73.1009 320.68 72.7131 321.326C72.3253 321.972 74.523 322.36 74.7815 322.489C80.4697 323.653 87.0628 324.17 92.6217 322.102C96.1121 320.938 98.8269 318.094 99.8611 314.474C100.378 311.759 99.2148 308.915 97.0171 307.235C94.0437 304.908 90.5532 303.227 86.9335 302.452C82.2796 301.159 77.4963 300.642 72.7131 300.771C68.9641 300.771 65.3444 301.805 62.1124 303.744C59.0098 305.942 57.1999 309.433 57.1999 313.311C56.9414 319.904 59.7855 326.885 63.1467 332.573C63.6638 333.478 66.12 333.607 67.0249 333.736C67.6713 333.866 70.1276 334.124 69.7397 333.349Z" fill="#262626"/>
<path d="M379.874 238.848H253.7V349.767H379.874V238.848Z" fill="#F5EE30"/>
<path d="M378.967 347.569H257.965C256.284 347.569 254.603 347.44 253.052 347.569H252.793L256.801 350.413V244.018C256.93 242.596 256.93 241.045 256.801 239.623V239.494L254.474 241.174H375.477C377.157 241.174 378.838 241.304 380.389 241.174C380.518 241.174 380.519 241.174 380.648 241.174L376.769 238.33V335.546C376.769 340.071 376.511 344.596 376.769 348.991V349.12C376.769 351.835 382.975 353.516 382.975 350.413V253.068C382.975 248.672 383.233 244.018 382.975 239.623V239.494C382.975 237.684 380.518 236.65 378.967 236.65H268.307C263.265 236.65 258.094 236.52 252.923 236.65H252.664C251.63 236.65 250.466 237.167 250.466 238.33V335.546C250.466 340.071 250.208 344.596 250.466 348.991V349.12C250.466 350.93 252.923 351.964 254.474 351.964H365.135C370.176 351.964 375.347 352.094 380.519 351.964H380.777C382.07 351.964 383.363 351.189 382.845 349.767C382.07 348.474 380.518 347.569 378.967 347.569Z" fill="#F5EE30"/>
<path d="M337.341 269.874C332.816 269.486 329.455 273.106 328.809 277.372C328.292 280.992 329.455 284.741 332.041 287.326C335.273 290.17 339.927 290.688 343.676 288.619C346.907 287.068 348.976 283.836 349.234 280.216C349.234 275.691 346.907 271.555 343.158 269.098C341.736 268.193 339.927 268.452 338.634 269.615C337.858 270.65 337.987 272.201 339.022 272.977C339.151 273.106 339.28 273.235 339.409 273.235C339.539 273.364 339.668 273.365 339.797 273.494C339.28 272.977 339.668 273.365 339.797 273.494C339.927 273.623 340.314 274.011 340.573 274.14C340.831 274.269 340.961 274.657 341.219 274.787C340.831 274.269 341.09 274.657 341.219 274.787C341.349 274.916 341.478 275.174 341.607 275.304C341.736 275.433 341.866 275.821 342.124 276.079C342.383 276.338 342.512 276.984 342.253 276.467C342.512 277.114 342.641 277.889 342.771 278.536C342.771 278.665 342.771 278.794 342.771 278.923C342.771 278.536 342.771 279.311 342.771 278.923C342.771 279.311 342.771 279.57 342.771 279.958C342.771 280.345 342.641 280.604 342.641 280.863C342.641 280.992 342.512 281.25 342.383 281.509C342.254 281.767 342.124 282.026 341.995 282.285C341.995 282.285 341.607 282.802 341.866 282.543C342.124 282.285 341.866 282.543 341.736 282.672C341.607 282.802 341.349 283.189 341.09 283.319V283.577C340.702 283.965 341.349 283.448 341.09 283.577C340.831 283.707 340.573 283.965 340.314 284.094L339.927 284.224C339.409 284.482 340.056 284.224 340.056 284.224C340.056 284.224 339.409 284.482 339.28 284.482C339.151 284.482 338.634 284.612 339.151 284.482C339.668 284.353 339.022 284.482 339.022 284.482H338.504C339.151 284.353 337.987 284.353 337.987 284.353C337.987 284.353 338.763 284.612 338.246 284.353L337.858 284.224C337.6 284.094 337.6 283.965 337.987 284.353C337.858 284.224 337.6 284.224 337.47 284.094C337.341 283.965 337.082 283.965 337.082 283.836C337.082 283.707 337.47 284.224 337.212 283.965L336.565 283.319C336.048 282.802 336.824 283.707 336.565 283.319L336.307 282.931C336.178 282.672 335.919 282.285 335.79 282.026C335.79 281.897 335.531 281.509 335.66 281.897C335.79 282.285 335.531 281.638 335.531 281.638C335.402 281.38 335.402 281.121 335.273 280.863C335.273 280.604 335.143 280.345 335.143 279.958C335.143 279.57 335.143 279.699 335.143 279.57C335.014 278.923 335.143 279.958 335.143 279.44C335.143 278.665 335.143 278.018 335.273 277.372C335.273 277.243 335.402 276.984 335.273 277.372C335.402 277.114 335.402 276.984 335.531 276.726C335.66 276.467 335.79 276.079 336.048 275.691C336.307 275.304 336.307 275.304 336.048 275.691C336.178 275.562 336.307 275.304 336.436 275.174L336.695 274.916C336.436 275.045 337.082 274.528 336.695 274.916C336.953 274.787 337.082 274.657 337.082 274.657C337.47 274.657 336.307 274.787 336.953 274.657C336.178 274.657 337.6 274.528 336.953 274.657C338.375 274.787 340.314 274.011 340.444 272.33C340.314 270.779 339.022 269.486 337.47 269.486L337.341 269.874Z" fill="white"/>
<path d="M264.559 337.744C266.756 328.565 270.764 319.904 276.452 312.406C281.235 305.683 287.57 300.254 294.939 296.505C296.878 295.6 298.817 294.824 300.885 294.178L301.402 294.049L302.049 293.919C302.695 293.79 303.471 293.79 304.117 293.79C306.961 293.79 309.805 294.436 312.391 295.858C321.182 300.771 324.155 313.311 322.733 322.619C322.604 324.299 322.087 325.851 321.311 327.273C320.406 328.565 319.243 328.436 322.604 327.66C326.482 326.756 325.319 327.66 323.896 326.368C322.345 324.816 322.733 322.489 323.638 320.68C325.06 317.835 326.999 315.379 329.455 313.44C330.748 312.277 332.17 311.372 333.592 310.467C334.239 310.079 335.014 309.691 335.79 309.303C336.178 309.174 336.436 309.045 336.824 308.915C337.083 308.786 337.729 308.657 336.953 308.786C335.919 309.045 337.212 308.786 337.6 308.786C340.185 308.786 342.642 309.691 344.581 311.372C351.045 316.931 355.569 325.592 355.569 334.124C355.569 334.641 355.569 335.029 355.569 335.546C355.569 335.805 358.543 335.288 358.801 335.288C359.318 335.159 361.774 334.771 361.904 334.124C362.679 326.756 358.93 318.87 354.276 313.44C351.432 309.95 348.33 307.364 343.676 307.235C338.893 307.235 334.239 308.269 329.972 310.467C326.482 312.147 323.509 314.474 320.923 317.318C319.113 319.387 317.045 322.102 316.916 324.946C316.786 326.756 317.95 328.436 319.76 328.695C322.087 328.824 324.284 328.307 326.353 327.273C326.999 327.014 327.516 326.497 327.904 325.98C330.231 322.619 329.972 317.189 329.585 313.182C328.938 307.493 327.128 301.676 323.121 297.41C318.338 292.239 311.615 291.334 304.893 292.368C294.809 293.919 285.501 298.444 277.874 305.296C268.566 314.216 261.973 325.721 258.87 338.261C258.87 338.52 258.741 338.778 258.741 338.908C258.741 339.037 261.715 338.649 261.973 338.649C261.973 338.649 264.3 338.39 264.559 337.744Z" fill="white"/>
<path d="M483.939 419.447C475.665 376.269 388.533 342.14 388.533 342.14L390.989 320.163C394.221 315.896 407.795 301.288 397.711 296.246C387.628 291.205 373.149 313.052 362.936 314.862C352.723 316.672 317.302 311.501 305.537 316.543C305.537 316.543 294.678 319.904 301.142 328.695C307.606 337.486 313.94 334.383 313.94 334.383C313.94 334.383 293.773 332.315 295.712 345.113C297.652 357.911 340.183 355.972 340.183 355.972C340.183 355.972 337.21 364.504 322.343 369.029C307.735 373.424 313.553 389.584 336.434 383.379C354.662 378.466 360.738 369.288 360.738 369.288C360.738 369.288 387.628 403.934 407.536 419.447" fill="white"/>
<path d="M487.174 419.059C483.295 399.15 466.231 384.025 450.589 372.519C435.075 361.402 418.399 351.965 400.946 344.337C397.327 342.657 393.707 341.105 389.958 339.554L391.768 342.527L394.224 320.55L393.578 321.843C398.878 314.992 412.581 299.349 398.878 293.402C393.19 290.946 387.114 294.307 382.589 297.539C377.289 301.417 372.764 306.071 367.335 309.691C366.817 310.079 366.171 310.338 365.654 310.725C365.395 310.855 365.137 310.984 364.878 311.242C364.878 311.242 364.361 311.501 364.749 311.372L364.491 311.501C363.973 311.63 363.456 311.889 362.939 312.018C362.422 312.147 363.068 312.018 363.198 312.018L362.81 312.147L362.164 312.277C359.966 312.535 357.768 312.535 355.57 312.535H355.183H354.019H351.692L347.038 312.406C343.548 312.277 340.187 312.147 336.696 312.018C329.844 311.63 322.993 311.63 316.141 312.018C311.875 312.147 307.609 313.052 303.601 314.733C298.56 317.06 294.681 321.714 297.008 327.531C299.723 333.866 306.963 339.295 313.943 337.615C314.461 337.486 314.848 337.356 315.365 337.227C316.658 336.839 317.434 335.676 317.434 334.254C317.175 332.961 316.141 331.927 314.848 331.797C310.453 331.28 305.928 331.668 301.662 332.961C298.43 333.866 295.715 335.805 294.035 338.649C292.484 341.493 292.354 344.984 293.647 347.957C296.233 353.387 303.084 355.455 308.385 356.748C314.848 358.17 321.441 358.945 328.035 359.075C332.301 359.204 336.567 359.333 340.962 359.075L337.472 355.843C337.989 354.55 337.472 355.714 337.213 356.101C336.955 356.489 336.825 356.748 336.567 357.136C336.308 357.523 336.308 357.523 336.179 357.653C336.438 357.394 336.179 357.653 335.92 358.041C333.723 360.626 331.008 362.824 328.035 364.246C322.346 367.219 312.909 368.124 311.616 376.01C310.582 382.732 317.175 386.611 322.863 387.516C327.517 388.162 332.301 387.774 336.955 386.611C342.126 385.318 347.038 383.508 351.692 380.922C356.217 378.466 361.129 375.105 364.103 370.71L358.544 371.227C368.757 384.542 379.874 397.211 391.768 409.234C396.163 413.759 400.946 418.025 405.859 421.903C408.703 424.101 413.228 420.093 409.996 417.508C401.205 410.656 393.448 402.382 385.95 394.238C379.487 387.128 373.281 379.888 367.335 372.39C366.171 370.968 365.008 369.417 363.715 367.866C362.293 365.926 359.319 366.702 358.156 368.512L358.027 368.641C358.544 367.995 358.415 368.124 358.027 368.512C357.639 368.9 356.992 369.675 356.475 370.192C356.217 370.58 355.829 370.839 355.441 371.227L354.795 371.873L354.407 372.261C354.536 372.132 354.665 372.002 354.407 372.261C353.114 373.295 351.821 374.2 350.529 374.976C346.909 377.173 343.031 378.983 338.894 380.276C334.886 381.698 330.491 382.474 326.225 382.344C324.803 382.344 323.251 382.086 321.959 381.569C321.7 381.44 321.312 381.31 321.054 381.181L320.666 381.052C320.795 381.052 321.183 381.31 320.666 381.052L319.89 380.535C319.761 380.405 319.114 379.888 319.373 380.147C319.632 380.405 319.114 379.888 318.985 379.759C318.856 379.63 318.727 379.371 318.597 379.242C318.21 378.725 318.468 379.113 318.468 379.113C318.468 379.113 318.21 378.595 318.08 378.337C317.951 378.078 317.951 377.691 317.951 378.208C317.951 377.949 317.822 377.82 317.822 377.561C317.822 377.303 317.822 377.044 317.822 376.915C317.822 377.561 317.822 377.044 317.951 376.656C318.08 376.268 318.21 375.881 318.08 376.269C317.951 376.656 318.21 376.01 318.21 375.881C318.21 375.751 318.468 375.493 318.597 375.234C318.727 374.976 318.468 375.364 318.468 375.364C318.468 375.364 318.727 375.105 318.856 374.976C318.985 374.846 320.019 373.812 319.632 374.2C320.149 373.812 320.795 373.424 321.441 373.037C321.571 373.037 322.088 372.778 321.7 372.907C321.312 373.037 321.829 372.907 321.829 372.778L322.863 372.39C324.027 372.002 325.19 371.615 326.354 371.227C328.681 370.322 330.879 369.288 332.947 368.124C337.342 365.539 341.867 361.79 343.548 356.877C344.323 354.809 341.609 353.645 340.057 353.645C339.282 353.645 338.377 353.645 337.601 353.645C336.825 353.645 335.791 353.645 334.886 353.645H332.042C326.095 353.645 320.019 353.128 314.073 352.223C311.358 351.835 308.514 351.189 305.928 350.284C305.411 350.155 304.765 349.896 304.248 349.638C303.989 349.508 303.731 349.379 303.472 349.25C303.213 349.12 303.084 348.991 302.826 348.991C303.213 349.12 302.438 348.733 302.309 348.733C302.179 348.733 301.791 348.474 301.533 348.216L301.016 347.828L300.628 347.569C300.24 347.311 300.887 347.828 300.628 347.569C300.24 347.311 299.982 346.923 299.723 346.535C299.464 346.276 299.335 346.018 299.594 346.406C299.464 346.147 299.335 345.889 299.206 345.63C299.077 345.501 299.077 345.242 298.947 344.984C299.077 345.63 298.947 345.113 298.947 344.854C298.947 344.596 298.818 344.079 298.818 343.691C298.818 343.432 298.818 343.303 298.818 343.044C298.818 343.303 298.818 343.044 298.818 342.915C298.818 342.527 298.947 342.14 299.077 341.881C299.206 341.364 298.947 342.01 299.206 341.493C299.335 341.235 299.464 340.976 299.594 340.718C299.594 340.718 299.852 340.33 299.594 340.588C299.335 340.847 299.723 340.33 299.852 340.33L300.499 339.683C300.111 339.942 300.757 339.425 300.499 339.683L300.757 339.425L301.533 338.908L301.921 338.778C301.404 338.908 302.179 338.649 301.921 338.778C302.567 338.52 303.213 338.261 303.86 338.132C304.248 338.003 304.636 337.873 305.023 337.873C305.411 337.873 304.894 337.873 304.894 337.873C305.153 337.873 305.282 337.744 305.54 337.744C306.833 337.486 308.255 337.356 309.548 337.356H311.358C310.712 337.356 312.134 337.356 311.358 337.356H312.004L313.297 337.486L312.78 332.185C312.651 332.185 312.521 332.315 312.392 332.315C312.263 332.315 312.134 332.315 312.004 332.444C311.746 332.573 312.78 332.315 312.004 332.444C311.746 332.444 311.487 332.444 311.229 332.573C310.453 332.702 311.616 332.573 310.97 332.573C310.324 332.573 309.807 332.444 309.289 332.315C306.187 331.151 302.438 327.531 302.179 324.17C302.05 323.653 302.179 323.265 302.309 322.877C302.309 322.877 302.438 322.619 302.567 322.36C302.696 322.102 302.696 322.102 302.826 322.102C302.955 322.102 302.567 322.36 302.955 321.972C303.343 321.585 303.343 321.585 303.601 321.326C304.118 320.809 303.472 321.326 303.86 321.067C304.248 320.809 304.765 320.421 305.153 320.163L305.54 320.033L305.799 319.904L306.575 319.645C307.35 319.387 308.126 318.999 309.031 318.87L309.936 318.611C310.582 318.482 309.548 318.611 310.194 318.611C310.841 318.611 311.746 318.353 312.521 318.223C314.202 317.965 315.883 317.836 317.434 317.706C320.924 317.448 324.673 317.448 327.905 317.577C335.533 317.706 343.16 318.223 350.787 318.482C356.346 318.611 362.551 319.258 367.722 316.801C374.057 313.699 379.099 308.398 384.528 304.132C386.855 302.064 389.57 300.513 392.543 299.349C392.802 299.22 393.19 299.091 393.578 299.091C392.931 299.22 393.707 299.091 393.965 299.091C394.224 299.091 394.483 299.091 394.741 299.091C394.224 299.091 395.258 299.091 394.741 299.091H395.258C396.034 299.091 395.129 298.961 395.646 299.091C396.163 299.22 396.68 299.478 397.068 299.866C397.327 299.995 397.456 300.125 397.585 300.383C397.715 300.513 398.102 301.03 397.844 300.642C397.973 300.9 398.102 301.159 398.232 301.547C398.102 301.159 398.361 301.935 398.232 301.547C398.232 301.676 398.232 301.805 398.232 301.935C398.232 302.322 398.361 302.71 398.232 303.098C398.232 302.581 398.232 303.486 398.102 303.615C398.102 304.003 397.973 304.262 397.844 304.649C397.715 305.296 397.456 305.813 397.197 306.459C395.905 309.433 394.095 312.147 392.156 314.604C391.38 315.638 390.475 316.801 389.57 317.836C388.794 318.611 388.148 319.645 387.76 320.68C387.502 322.36 387.243 323.912 387.243 325.592L385.563 341.364L385.433 342.527C385.304 343.82 385.95 345.113 387.243 345.501C390.217 346.664 393.061 347.957 395.905 349.25C402.756 352.352 410.125 355.843 416.33 359.204C434.429 368.77 452.528 380.018 466.231 395.014C469.851 398.892 472.953 403.029 475.668 407.424C476.961 409.493 477.995 411.69 478.9 414.017C479.805 416.215 480.451 418.413 480.839 420.61C481.227 422.162 482.649 423.325 484.33 423.067C485.622 422.032 487.432 420.74 487.174 419.059Z" fill="#262626"/>
<path d="M313.037 338.003C322.733 338.52 332.558 338.649 342.383 338.132C343.805 338.132 345.615 337.356 345.744 335.546C345.615 333.995 344.193 332.702 342.642 332.831C332.817 333.349 323.121 333.219 313.296 332.702C311.615 332.573 310.193 333.736 309.935 335.288C309.935 336.968 311.615 337.873 313.037 338.003Z" fill="#262626"/>
<path d="M575.726 431.987C584.387 416.603 589.3 278.277 531.772 254.749C488.076 236.65 398.229 357.265 398.229 357.265C398.229 357.265 387.37 395.143 403.4 431.211" fill="white"/>
<path d="M578.958 431.986C580.51 429.142 581.156 425.523 581.673 422.291C582.578 416.732 583.225 411.173 583.612 405.614C584.647 389.842 584.517 374.071 583.095 358.299C581.803 340.588 578.7 323.136 573.529 306.2C568.875 291.334 562.153 276.208 551.035 264.961C545.993 259.79 540.046 255.783 533.324 253.197C527.377 250.999 520.913 251.129 514.708 252.163C500.229 254.878 487.043 263.539 475.537 272.33C461.834 283.06 448.906 294.824 437.142 307.623C426.8 318.611 416.846 329.858 407.409 341.622C404.306 345.371 401.333 349.12 398.359 352.999C397.067 354.291 396.032 355.843 394.998 357.394C394.481 358.687 394.223 359.979 394.093 361.402C393.318 365.151 392.671 369.029 392.283 372.907C390.861 385.318 391.249 397.987 393.576 410.268C394.998 417.637 397.196 424.876 400.299 431.728C401.203 433.667 407.279 432.374 406.762 430.952C397.196 409.363 395.645 384.154 400.557 361.143C400.686 359.333 401.333 357.652 402.367 356.23C404.306 353.645 406.375 351.059 408.443 348.474C416.587 338.132 425.249 328.048 434.04 318.223C445.416 305.425 457.568 293.402 470.496 282.155C476.572 276.855 483.035 271.813 489.758 267.288C495.575 263.281 501.78 259.92 508.374 257.205C509.02 256.946 509.796 256.688 510.442 256.429L511.605 256.041C511.864 255.912 512.898 255.653 512.252 255.783C513.674 255.395 515.096 255.007 516.647 254.749C517.552 254.619 516.13 254.748 517.164 254.619L518.199 254.49L519.233 254.361C519.362 254.361 520.655 254.231 520.138 254.231C519.621 254.231 520.655 254.231 520.784 254.231H522.723C522.853 254.231 523.628 254.231 522.723 254.231H523.37C524.016 254.231 524.662 254.361 525.18 254.49L525.826 254.619L526.731 254.749C527.894 255.007 529.058 255.395 530.221 255.912C533.324 257.334 536.297 259.015 539.141 260.954C551.164 269.745 558.921 283.577 564.221 297.151C570.426 313.311 573.917 330.375 575.985 347.569C577.924 363.858 578.571 380.147 578.054 396.435C577.795 402.899 577.407 409.234 576.761 415.568C576.373 419.834 575.597 424.23 574.434 428.367C574.175 429.53 573.658 430.694 573.141 431.857C572.495 433.021 574.951 433.279 575.597 433.279C576.244 433.279 578.312 433.021 578.958 431.986Z" fill="#262626"/>
<path d="M456.663 313.311C475.537 317.835 493.248 326.885 509.149 337.873C526.084 349.508 541.209 363.728 554.008 379.888C560.73 388.291 566.418 397.47 570.943 407.165C571.719 408.458 573.011 409.492 574.563 409.751C575.468 409.88 577.277 409.751 576.631 408.458C567.97 389.713 554.783 373.295 540.046 358.945C524.403 343.691 506.563 330.892 487.172 321.197C476.959 316.025 466.229 312.147 455.111 309.432C454.077 309.174 452.655 309.432 453.043 310.725C453.431 312.018 455.37 313.052 456.663 313.311Z" fill="#262626"/>
<path d="M439.858 337.356C442.444 338.907 445.029 340.717 447.356 342.527C450.33 344.854 453.303 347.31 456.147 349.896C462.611 355.713 468.687 361.919 474.633 368.253C486.915 381.31 498.55 395.013 510.572 408.458C516.26 414.793 521.949 420.998 528.154 426.945C529.188 427.979 530.481 428.884 531.774 429.53C532.032 429.659 533.971 430.564 533.066 429.659C520.914 418.024 510.055 405.097 498.937 392.557C486.785 378.724 474.504 364.892 460.801 352.611C453.949 346.276 446.581 340.717 438.695 335.934C438.436 335.805 436.626 334.641 436.497 335.158C436.368 335.675 439.6 337.227 439.858 337.356Z" fill="#262626"/>
<path d="M503.719 241.692L452.138 221.007C452.138 221.007 421.37 186.232 422.404 178.217C423.826 167.487 436.496 153.913 460.412 147.708C483.294 141.761 505.529 137.624 530.35 178.476C534.099 184.681 540.304 196.186 539.658 203.555C538.495 215.836 529.575 237.555 503.719 241.692Z" fill="#262626"/>
<path d="M479.803 279.311C479.803 279.311 479.803 275.433 479.416 270.65C479.028 265.866 477.218 263.669 462.222 262.764C432.617 261.083 429.256 234.84 429.256 234.84C429.256 234.84 425.637 236.391 418.656 235.874C412.709 235.357 404.047 227.73 418.397 218.422C421.629 216.224 425.249 213.251 425.507 207.046C425.895 199.16 424.602 192.825 425.249 178.605L429.256 183.388C439.986 196.186 455.758 203.555 472.435 203.555L473.727 202.65C481.484 229.023 501.91 237.813 501.91 237.813C501.91 237.813 505.529 246.733 508.244 250.353C508.244 250.741 499.324 282.155 479.803 279.311Z" fill="white"/>
<path d="M482.517 277.889C482.517 274.657 482.388 271.554 482 268.452C481.871 266.9 481.225 265.349 479.932 264.315C477.864 262.893 475.407 262.117 472.951 261.859C468.556 261.212 464.16 261.212 459.765 260.566C453.172 259.661 446.966 256.688 441.925 252.163C438.434 248.802 435.719 244.924 433.91 240.399C433.263 238.718 432.617 237.038 432.229 235.357C432.1 234.84 431.97 234.323 431.97 233.935C431.97 233.806 431.841 233.03 431.97 233.547C431.841 232.772 430.678 233.289 430.161 233.418C430.031 233.547 429.643 233.547 430.419 233.289L429.643 233.547C428.609 233.806 427.446 234.064 426.412 234.064C423.826 234.452 421.111 234.323 418.655 233.547C415.423 232.384 412.708 229.41 413.613 225.791C414.26 223.205 416.199 221.266 418.267 219.844C420.853 218.293 423.18 216.353 425.119 214.156C428.739 209.76 428.48 204.201 428.221 198.772C427.963 191.662 427.704 184.551 427.963 177.312L422.404 180.415C426.541 185.456 430.678 190.24 435.978 194.247C443.476 199.806 452.138 203.426 461.316 204.977C463.902 205.365 466.617 205.623 469.202 205.623C471.4 205.623 473.08 204.331 474.761 203.167L470.883 204.589C473.727 214.285 479.027 223.205 486.266 230.445C489.886 234.194 494.023 237.296 498.677 239.752C498.806 239.752 498.936 239.882 499.065 240.011C498.806 239.752 499.323 240.14 499.065 240.011C499.711 241.433 500.228 242.855 500.875 244.277C501.909 246.475 502.943 248.673 504.236 250.741C504.753 251.517 505.27 251.904 505.141 252.68C504.753 254.49 504.107 256.3 503.202 257.98C502.038 260.954 500.487 263.927 498.806 266.642C497.772 268.323 496.738 269.874 495.445 271.425C494.799 272.201 494.152 272.976 493.506 273.623C492.989 274.14 492.342 274.657 491.825 275.174L491.308 275.562C490.533 276.208 491.825 275.174 491.05 275.821L490.533 276.079C491.179 275.691 490.274 276.208 490.274 276.208C489.628 276.596 488.981 276.855 488.206 276.984C486.266 277.501 484.198 277.63 482.13 277.372C480.708 277.372 479.415 278.018 478.381 278.923C478.122 279.052 476.054 280.992 477.088 281.121C486.008 282.414 494.411 276.855 499.97 270.132C504.236 264.703 507.597 258.627 509.795 252.034C510.053 251.258 510.441 250.482 510.57 249.707C510.7 248.931 510.57 248.543 509.924 247.768C508.631 245.699 507.468 243.501 506.434 241.174C506.046 240.27 505.529 239.235 505.141 238.33C504.882 237.684 504.624 237.038 504.365 236.521C503.848 235.745 502.426 235.357 501.65 234.969C499.194 233.547 496.867 231.867 494.669 229.927C485.879 222.3 479.415 212.346 476.183 201.099C475.924 200.065 472.434 202.392 472.305 202.521L471.012 203.426L473.21 202.133C474.632 201.487 472.822 201.745 472.175 201.745C471.529 201.745 470.883 201.616 470.107 201.616C468.814 201.487 467.392 201.357 466.099 201.099C458.343 199.806 450.974 197.091 444.252 192.825C437.659 188.559 432.617 182.871 427.575 176.924C426.67 175.761 422.145 178.993 422.145 180.156C421.887 186.878 422.016 193.73 422.275 200.452C422.533 205.623 423.309 212.087 419.431 216.095C417.491 218.034 414.518 219.456 412.191 221.654C410.123 223.593 408.054 225.92 407.537 228.764C406.891 232.642 409.606 235.616 412.967 237.038C415.682 238.201 419.043 237.943 422.016 237.684C424.085 237.555 426.024 237.167 427.963 236.391L426.153 236.262C427.187 242.726 430.031 248.673 434.427 253.456C438.693 258.11 444.122 261.342 450.069 263.022C454.206 264.056 458.472 264.574 462.868 264.832C466.229 264.961 469.59 265.608 472.692 266.771C474.502 267.418 475.795 268.969 476.183 270.779C476.7 274.14 476.959 277.501 476.829 280.733C476.959 281.897 482.517 279.44 482.517 277.889Z" fill="#262626"/>
<path d="M444.641 231.349C444.641 231.479 444.641 231.608 444.641 231.737V232.125C444.641 231.867 444.641 232.384 444.641 232.125V232.384C444.512 233.418 444.253 234.581 443.865 235.616C443.348 237.038 442.702 238.33 441.926 239.623C441.797 239.882 441.538 240.27 441.28 240.528L441.021 240.916L440.892 241.045L440.634 241.304C440.375 241.562 440.116 241.95 439.858 242.209L439.47 242.596L439.211 242.726C438.824 242.984 439.47 242.467 439.211 242.726C438.953 242.984 438.824 242.984 438.565 243.114C438.436 243.114 438.436 243.243 438.307 243.243C437.919 243.372 438.048 243.372 438.307 243.243C438.048 243.372 437.789 243.501 437.66 243.631C437.402 243.76 437.272 243.76 437.919 243.501C437.789 243.501 437.66 243.631 437.402 243.631C437.143 243.631 436.885 243.76 437.789 243.501C437.66 243.501 437.402 243.631 437.272 243.631L436.885 243.76C437.014 243.631 437.66 243.631 437.143 243.76L436.626 243.889C436.109 244.019 437.143 243.889 436.755 243.889C436.367 243.889 435.98 244.019 435.721 244.019C434.17 244.148 432.748 244.665 431.584 245.57C430.55 246.604 432.489 246.604 433.006 246.475C438.307 246.087 443.736 243.889 447.097 239.494C448.907 237.038 450.071 234.323 450.459 231.349C450.588 230.703 450.717 229.927 450.717 229.281C450.717 228.893 449.683 228.893 449.554 228.893C448.778 228.893 448.002 229.022 447.227 229.281C446.58 229.798 444.641 230.315 444.641 231.349Z" fill="#262626"/>
<path d="M437.531 207.175C437.531 207.175 436.497 210.924 440.117 211.57C443.737 212.217 444.641 207.692 441.668 206.141C440.375 205.236 438.566 205.494 437.661 206.787C437.661 207.046 437.661 207.175 437.531 207.175Z" fill="#262626"/>
<path d="M515.354 204.202C515.354 204.202 451.362 213.251 468.297 264.444C468.297 264.444 426.67 277.76 453.301 314.862C479.932 351.964 515.871 303.744 515.871 303.744C515.871 303.744 511.993 333.219 547.544 324.041C583.095 314.862 561.894 277.113 561.894 277.113C561.894 277.113 610.631 300.642 622.653 256.817C634.676 212.992 596.281 218.034 596.281 218.034C596.281 218.034 611.794 192.567 590.464 183.129C569.133 173.692 533.711 200.711 533.711 200.711L515.354 204.202Z" fill="#262626"/>
<path d="M515.742 202.392C507.985 203.555 500.487 205.753 493.248 208.985C480.708 214.415 468.685 223.335 464.16 236.779C460.928 246.087 462.092 256.171 465.065 265.349L467.78 262.893C462.221 264.703 457.05 267.547 452.525 271.167C444.51 277.501 439.856 286.809 441.537 297.151C442.83 304.779 446.837 311.889 451.621 317.836C455.887 323.265 461.446 327.919 468.297 329.858C480.061 333.219 492.343 327.79 501.651 320.809C505.658 317.836 509.407 314.474 512.768 310.855C514.837 308.786 516.647 306.589 518.456 304.262C518.586 304.132 518.586 304.003 518.715 304.003L512.639 304.132C512.122 307.881 512.639 311.76 513.802 315.25C516.517 323.007 523.498 327.014 531.384 327.661C538.106 328.048 544.958 327.014 551.293 324.687C556.722 323.007 561.635 319.904 565.513 315.638C571.201 308.916 571.848 299.866 570.296 291.593C569.262 286.034 567.323 280.733 564.608 275.95L559.178 278.665C564.479 281.121 570.038 282.931 575.855 284.094C586.844 286.292 598.866 286.034 608.821 280.216C621.619 272.847 627.307 257.076 627.953 242.855C628.212 237.167 627.436 231.35 624.334 226.566C622.007 223.076 618.646 220.232 614.767 218.681C611.277 217.259 607.528 216.354 603.779 216.095C601.581 215.837 599.254 215.837 597.056 216.095H596.798L599.254 218.164C605.459 207.951 608.562 192.438 597.703 184.293C590.076 178.605 580.121 178.476 571.201 180.415C562.023 182.354 553.361 186.362 545.346 191.015C540.563 193.73 535.909 196.704 531.513 200.065L533.582 199.031L515.095 202.65C514.061 202.909 512.122 203.814 512.38 205.107C512.639 206.399 514.966 206.27 516 206.012C522.076 204.848 528.411 203.943 534.487 202.392C535.262 202.133 536.038 201.745 536.684 201.228C537.072 200.97 536.038 201.745 536.426 201.487C536.555 201.358 536.684 201.228 536.814 201.228C537.719 200.582 538.753 199.936 539.658 199.289C543.019 196.962 546.38 194.894 549.871 192.955C558.661 188.042 568.486 183.517 578.57 183.13C583.482 182.871 588.266 184.293 592.273 187.008C596.022 189.723 598.349 193.989 598.737 198.514C599.383 205.107 596.927 212.475 593.566 217.905C592.532 219.586 594.859 220.103 596.022 219.973C596.41 219.973 596.798 219.844 597.186 219.844H598.479C598.091 219.844 599.383 219.844 598.479 219.844H599.383C600.805 219.844 602.098 219.973 603.52 220.103L604.167 220.232C603.65 220.103 604.296 220.232 604.167 220.232L605.459 220.49C606.364 220.62 607.14 220.878 607.916 221.137L609.079 221.525C609.338 221.654 609.726 221.783 609.984 221.913C610.889 222.3 611.665 222.688 612.44 223.205C613.992 224.11 615.414 225.144 616.577 226.566C619.68 230.057 621.49 234.582 621.748 239.236C622.395 246.475 620.843 254.102 618.516 260.954C616.577 266.901 613.087 272.33 608.304 276.338C606.494 277.76 604.425 278.923 602.228 279.828C601.71 280.087 601.064 280.216 600.547 280.475C600.159 280.604 600.676 280.475 600.676 280.475L600.288 280.604L599.254 280.863C598.608 280.992 598.091 281.121 597.444 281.25L596.539 281.38C596.152 281.38 596.669 281.38 596.669 281.38L596.152 281.509C594.859 281.638 593.566 281.768 592.273 281.897H591.498H589.171C588.007 281.897 586.714 281.767 585.551 281.638L583.741 281.38L582.965 281.25L582.448 281.121C578.441 280.475 574.433 279.44 570.555 278.148L568.357 277.372C568.099 277.243 567.194 276.984 567.84 277.243L566.935 276.855L564.737 275.95L564.479 275.821C562.927 275.045 557.627 275.95 559.049 278.536C559.049 278.665 559.178 278.665 559.178 278.794C559.308 279.053 558.92 278.277 559.178 278.665C559.308 278.794 559.308 278.923 559.437 279.053C559.825 279.828 560.213 280.733 560.601 281.509C561.764 284.224 562.798 286.939 563.574 289.783C565.513 296.764 566.289 305.037 562.669 311.63C557.886 320.55 546.639 323.912 536.943 324.041C530.35 324.17 523.757 321.455 520.913 314.992C519.878 312.406 519.232 309.691 519.103 306.976C519.103 306.718 519.103 306.459 519.103 306.201C519.103 305.942 519.103 305.296 519.103 305.813C519.103 305.425 519.103 305.037 519.103 304.649C519.103 304.262 519.103 303.874 519.232 303.615C519.361 302.322 517.939 302.064 516.905 302.064C515.483 302.064 514.061 302.581 513.156 303.744C512.898 304.132 512.639 304.52 512.251 304.908C511.863 305.296 511.605 305.684 511.217 306.201L510.571 306.976L510.183 307.493C507.468 310.596 504.365 313.569 501.263 316.284C499.453 317.836 497.514 319.258 495.575 320.68C494.54 321.455 493.377 322.102 492.343 322.748C491.825 323.007 491.308 323.394 490.662 323.653C490.145 323.912 489.628 324.17 489.111 324.429C487.947 324.946 486.784 325.463 485.491 325.851L485.103 325.98H485.232L484.327 326.239C483.681 326.368 483.035 326.626 482.388 326.756L481.354 327.014C480.966 327.014 481.354 327.014 481.483 327.014H480.966C480.32 327.143 479.674 327.143 479.027 327.273C478.639 327.273 478.122 327.273 477.734 327.273C477.088 327.273 476.442 327.273 475.795 327.144C470.366 326.626 465.065 323.394 461.058 319.258C455.628 313.828 451.621 307.235 449.294 299.995C447.613 295.083 447.484 289.653 449.035 284.612C450.328 280.733 452.655 277.243 455.757 274.399C456.404 273.752 457.179 273.106 457.955 272.46L458.472 272.072L458.731 271.813C458.343 272.072 459.119 271.555 458.731 271.813C459.119 271.555 459.506 271.296 459.894 271.038C461.316 270.133 462.868 269.228 464.29 268.323L464.807 268.064C465.324 267.806 464.548 268.193 464.677 268.064L465.582 267.547C466.099 267.289 466.746 267.03 467.263 266.771C467.78 266.513 468.685 266.254 469.331 265.996C469.978 265.737 469.073 266.125 468.814 266.125C469.719 265.867 472.046 264.962 471.529 263.669C468.944 255.654 467.651 247.121 469.849 238.848C471.529 232.642 474.89 226.954 479.544 222.559C481.742 220.491 484.069 218.551 486.654 216.871C487.947 215.966 489.369 215.19 490.662 214.415L491.567 213.897L492.343 213.51L493.118 213.122L494.282 212.605C496.867 211.441 499.453 210.407 502.168 209.502L503.073 209.243H503.202L505.012 208.726C506.046 208.339 507.209 208.08 508.244 207.821C510.053 207.304 511.863 206.916 513.673 206.529L514.578 206.399C515.483 206.27 514.061 206.529 514.449 206.399L514.966 206.27C516.129 206.141 518.327 205.494 518.586 204.072C518.844 202.65 516.647 202.263 515.742 202.392Z" fill="#262626"/>
<path d="M434.687 198.255C430.808 198.901 426.801 197.35 424.345 194.118C421.113 189.981 421.759 183.517 423.569 178.863C428.094 167.358 442.702 168.392 452.527 169.814C453.69 170.073 454.983 169.297 455.242 168.133C455.242 167.875 455.242 167.746 455.242 167.487C454.854 165.806 453.561 164.643 451.88 164.384C441.538 162.962 428.999 161.928 421.242 170.331C414.261 177.958 413.744 191.662 421.759 198.772C425.767 202.392 431.196 204.072 436.626 203.426C440.763 203.038 437.789 197.738 434.687 198.255Z" fill="#262626"/>
<path d="M412.838 203.943C410.511 199.418 409.994 194.118 411.674 189.206C413.355 184.681 416.328 180.673 420.336 177.829C424.343 174.727 428.868 172.4 433.651 170.59C438.822 168.651 444.64 167.229 449.94 169.297C450.974 169.685 452.138 169.297 452.526 168.263C452.655 168.004 452.655 167.746 452.655 167.487C452.655 165.807 451.621 164.255 450.069 163.738C440.761 160.248 430.419 164.384 422.146 169.038C414.389 173.434 407.408 180.027 405.857 189.076C404.823 194.506 405.728 200.194 408.184 205.107C408.83 206.399 410.123 207.951 411.804 207.563C413.484 207.175 413.355 205.236 412.838 203.943Z" fill="#262626"/>
<path d="M451.234 271.942C443.606 278.277 435.85 284.999 432.359 294.436C430.679 298.832 430.291 303.615 431.196 308.14C432.23 312.406 434.169 316.284 437.013 319.645C440.245 323.524 443.994 327.143 447.872 330.375C450.329 332.444 455.37 328.695 452.397 326.238C445.028 319.904 436.496 312.277 437.013 301.676C437.66 290.041 447.355 282.026 455.629 275.174C456.663 274.399 456.792 272.847 456.017 271.813C455.888 271.684 455.758 271.555 455.629 271.425C454.336 270.65 452.526 270.779 451.234 271.942Z" fill="#262626"/>
<path d="M536.944 193.084C539.529 185.715 544.7 179.381 551.423 175.502C559.308 171.365 569.004 171.365 577.278 174.468C578.441 174.856 580.122 173.951 581.156 173.305C581.415 173.046 583.612 171.495 582.578 171.107C562.411 163.609 538.236 175.244 530.997 195.411C530.609 196.574 533.324 195.669 533.582 195.54C534.875 195.152 536.426 194.247 536.944 193.084Z" fill="#262626"/>
<path d="M409.607 353.903C413.744 364.375 419.432 374.329 425.12 384.025C431.584 394.755 438.177 405.097 445.029 415.568C448.26 420.739 451.622 425.781 454.854 430.952C455.241 431.599 460.8 428.237 460.283 427.332C447.743 407.165 434.169 387.645 422.922 366.573C420.078 361.272 417.493 355.713 415.166 350.154C414.907 349.896 409.219 352.74 409.607 353.903Z" fill="#262626"/>
</svg>
