<svg width="504" height="556" viewBox="0 0 504 556" fill="none" xmlns="http://www.w3.org/2000/svg">
<path d="M452.754 3.1814H70.2891V510.516H452.754V3.1814Z" fill="white"/>
<path d="M452.755 507.484H85.8641C80.9024 507.484 75.8028 507.071 70.979 507.484C70.7033 507.484 70.5655 507.484 70.2898 507.484L73.7355 510.93V23.9932C73.7355 17.5154 74.1489 10.762 73.7355 4.28421C73.7355 4.00856 73.7355 3.73291 73.7355 3.45726L70.4277 6.35159H437.319C442.28 6.35159 447.38 6.76507 452.204 6.35159H452.893L449.447 2.90596V489.705C449.447 496.321 449.309 502.798 449.447 509.414V510.241C449.447 514.1 456.063 515.065 456.063 510.792V23.9932C456.063 17.3776 456.201 10.762 456.063 4.28421C456.063 4.00856 456.063 3.73291 456.063 3.45726C455.925 1.66554 454.409 0.149457 452.617 0.0116313H85.8641C80.9024 0.0116313 75.9407 0.0116313 70.979 0.0116313C70.7033 0.0116313 70.5655 0.0116313 70.2898 0.0116313C68.7738 -0.126194 67.2577 0.976407 67.1198 2.49249C67.1198 2.63031 67.1198 2.63031 67.1198 2.76814V489.567C67.1198 496.183 66.982 502.661 67.1198 509.276V510.103C67.2577 511.895 68.7738 513.411 70.5655 513.549H437.456C442.418 513.549 447.38 513.549 452.342 513.549H453.031C457.441 513.687 456.752 507.484 452.755 507.484Z" fill="#262626"/>
<path d="M418.711 104.345H102.402V428.924H418.711V104.345Z" fill="#F5EE30"/>
<path d="M418.024 427.408H114.671C110.536 427.408 106.401 427.27 102.404 427.408H101.853L105.85 429.613V118.128C105.85 113.993 106.125 109.583 105.85 105.448C105.85 105.31 105.85 105.035 105.85 104.897L103.093 105.862H406.585C410.719 105.862 414.854 105.999 418.851 105.862H419.402L415.406 103.656V415.142C415.406 419.414 415.406 423.549 415.406 427.822V428.373C415.406 430.716 422.159 431.543 422.159 429.613V118.128C422.159 113.855 422.297 109.721 422.159 105.448V104.897C422.159 103.243 419.265 102.692 418.162 102.692H101.853C101.302 102.692 99.0964 102.692 99.0964 103.656V415.142C99.0964 419.414 98.9586 423.549 99.0964 427.822V428.373C99.0964 429.889 101.991 430.578 103.093 430.578H419.402C420.229 430.578 422.435 430.578 422.159 429.2C421.883 427.822 419.127 427.408 418.024 427.408Z" fill="#F5EE30"/>
<g opacity="0.41">
<path d="M231.406 473.718C235.136 473.718 238.159 470.694 238.159 466.964C238.159 463.234 235.136 460.211 231.406 460.211C227.676 460.211 224.652 463.234 224.652 466.964C224.652 470.694 227.676 473.718 231.406 473.718Z" fill="#F5EE30"/>
<path d="M234.853 466.413C234.853 466.551 234.853 466.826 234.853 466.964C234.853 466.413 234.853 466.826 234.853 466.964C234.853 467.102 234.715 467.515 234.715 467.791C234.577 468.067 234.577 468.342 234.44 468.618C234.44 468.756 234.164 469.169 234.44 468.756L234.164 469.169C233.888 469.721 233.475 470.134 232.924 470.41C233.475 469.996 232.648 470.548 232.51 470.548L232.234 470.685C232.097 470.685 231.545 470.961 231.959 470.823H231.683L231.27 470.961C230.856 471.099 230.994 470.823 231.407 470.961C231.27 470.961 231.132 470.961 230.994 470.961H230.58C229.891 470.961 231.132 470.961 230.718 470.961H230.305C229.616 470.823 231.132 471.237 230.443 470.961C230.305 470.961 230.029 470.961 229.891 470.823C229.754 470.685 230.718 471.237 230.305 470.961L229.754 470.685C229.478 470.548 229.478 470.41 230.029 470.823C229.891 470.685 229.478 470.41 229.34 470.272C228.927 469.859 229.616 470.685 229.478 470.41C229.34 470.134 229.202 470.134 229.064 469.996L228.927 469.721C228.513 469.307 229.202 470.272 228.927 469.721C228.789 469.445 228.651 469.169 228.513 468.894L228.375 468.618C228.237 468.067 228.513 469.169 228.375 468.48C228.375 468.205 228.237 467.791 228.237 467.516C228.237 467.24 228.237 466.964 228.237 466.689C228.237 466.137 228.1 467.102 228.237 466.551C228.237 466.413 228.237 466.275 228.237 466.137C228.237 465.862 228.375 465.586 228.513 465.31C228.513 465.172 228.651 465.035 228.651 464.759C228.651 464.621 228.927 464.208 228.651 464.621C228.927 464.07 229.34 463.656 229.754 463.243C229.891 463.105 230.029 463.105 230.029 462.967C229.478 463.243 230.029 462.829 230.029 462.967C230.581 462.692 230.58 462.554 230.994 462.416L231.27 462.278L231.545 462.14C231.683 462.14 232.097 462.14 231.683 462.14C231.27 462.14 231.683 462.14 231.821 462.14H232.234C232.648 462.14 232.51 462.278 232.097 462.14C232.234 462.14 232.51 462.278 232.648 462.14C233.337 462.278 231.821 461.865 232.51 462.14C232.648 462.14 232.924 462.278 233.061 462.278C232.372 462.14 232.51 462.002 232.786 462.14C232.924 462.278 233.199 462.416 233.337 462.416C232.786 462.278 232.786 462.002 233.061 462.278C233.337 462.554 233.475 462.554 233.613 462.692C233.75 462.829 233.613 462.829 233.475 462.554C233.475 462.692 233.75 462.829 233.888 462.967C234.026 463.105 234.164 463.243 234.164 463.381C233.888 462.829 234.577 463.794 234.164 463.381C234.302 463.656 234.44 464.07 234.577 464.346C234.577 464.346 234.715 464.897 234.577 464.621C234.44 464.346 234.715 464.897 234.715 465.035C234.715 465.724 234.715 466.137 234.853 466.413C234.853 467.102 235.267 467.791 235.818 468.205C236.507 468.756 237.334 469.169 238.299 469.169C239.677 469.307 241.469 469.032 241.469 467.378C241.331 458.695 228.789 454.56 223.276 461.038C220.933 463.794 220.657 467.653 222.449 470.685C224.93 474.545 229.34 476.612 233.888 475.923C238.161 475.372 241.331 471.788 241.469 467.378C241.331 466.689 240.917 465.999 240.366 465.586C239.677 465.035 238.85 464.621 237.885 464.621C236.645 464.483 234.853 464.759 234.853 466.413Z" fill="#F5EE30"/>
</g>
<path d="M260.212 472.752C263.942 472.752 266.966 469.729 266.966 465.999C266.966 462.269 263.942 459.246 260.212 459.246C256.483 459.246 253.459 462.269 253.459 465.999C253.459 469.729 256.483 472.752 260.212 472.752Z" fill="#F5EE30"/>
<path d="M263.934 464.621C263.934 467.102 262.418 469.169 260.213 470.272C259.937 470.41 259.662 470.547 259.386 470.547L258.973 470.685C259.248 470.685 258.835 470.685 258.835 470.685C258.559 470.685 258.146 470.685 257.87 470.685C257.319 470.685 257.732 470.685 257.87 470.685L257.319 470.547C256.767 470.41 257.87 470.685 257.319 470.547C257.181 470.547 257.043 470.41 257.043 470.41C257.87 470.547 257.457 470.685 257.181 470.41L257.457 470.547C256.905 470.272 258.146 470.961 257.732 470.685C257.319 470.41 257.594 470.272 257.87 470.823C257.87 470.685 257.594 470.272 257.732 470.685C257.87 471.099 257.594 470.547 257.457 470.41L257.319 470.134C257.594 470.685 257.319 470.134 257.319 469.996C257.181 469.72 257.043 469.445 256.905 469.169C256.905 469.031 256.767 468.756 256.767 468.618C256.63 468.342 256.63 467.929 256.63 467.653C256.492 465.172 257.732 462.967 259.937 461.864C260.489 461.589 260.902 461.451 261.591 461.313C261.867 461.313 261.178 461.313 261.729 461.313H262.143H262.556C262.694 461.313 263.107 461.313 262.694 461.313C262.832 461.313 263.107 461.313 263.245 461.451C262.694 461.313 263.797 461.589 263.245 461.451C263.383 461.451 263.934 461.727 263.383 461.451C263.107 461.313 263.107 461.313 263.383 461.451L263.107 461.313C263.245 461.451 263.245 461.451 263.383 461.451C262.832 461.175 262.694 461.037 263.107 461.313L262.832 461.175L263.107 461.451C262.832 461.175 262.832 461.037 262.97 461.313L263.107 461.451L263.383 461.864C263.107 461.451 263.383 461.864 263.383 462.002C263.521 462.278 263.659 462.691 263.797 462.967C263.659 462.691 263.797 463.105 263.797 463.105C263.797 463.38 263.934 463.518 263.934 463.794C263.934 463.932 264.072 464.345 263.934 464.621C264.072 465.172 264.624 465.723 265.037 465.999C265.726 466.55 266.415 467.102 267.242 467.377C267.793 467.653 270.137 468.618 270.137 467.24C270.137 462.967 266.415 459.659 262.694 458.143C258.973 456.627 254.976 456.627 252.219 459.659C250.014 462.14 249.876 465.861 251.668 468.618C253.046 470.685 255.114 472.477 257.319 473.442C259.111 474.406 261.178 474.82 263.245 474.682C266.967 474.269 269.861 471.099 269.999 467.377C269.999 466.826 269.31 466.137 269.034 465.861C268.345 465.31 267.656 464.759 266.829 464.483C266.14 464.345 263.934 463.38 263.934 464.621Z" fill="#F5EE30"/>
<g opacity="0.41">
<path d="M288.745 473.303C292.474 473.303 295.498 470.279 295.498 466.55C295.498 462.82 292.474 459.796 288.745 459.796C285.015 459.796 281.991 462.82 281.991 466.55C281.991 470.279 285.015 473.303 288.745 473.303Z" fill="#F5EE30"/>
<path d="M292.191 466.136C292.191 466.274 292.191 466.55 292.191 466.688C292.191 466.136 292.191 466.55 292.191 466.688C292.191 466.825 292.053 467.239 292.053 467.515C291.915 467.79 291.915 468.066 291.777 468.341C291.777 468.479 291.502 468.893 291.777 468.479L291.502 468.893C291.226 469.444 290.813 469.858 290.261 470.133L289.848 470.409L289.572 470.547C289.434 470.547 288.883 470.822 289.297 470.684C289.71 470.547 289.159 470.684 289.159 470.684L288.745 470.822C288.332 470.96 288.47 470.684 288.883 470.822C288.745 470.822 288.607 470.822 288.47 470.822H288.056C287.367 470.822 288.745 470.96 288.194 470.822H287.78C287.091 470.822 288.607 471.098 287.918 470.822C287.78 470.822 287.505 470.684 287.367 470.684C287.367 470.684 288.194 471.098 287.78 470.822L287.367 470.547C287.091 470.409 287.091 470.271 287.643 470.684C287.505 470.547 287.229 470.271 286.953 470.133C286.54 469.72 287.229 470.547 287.091 470.271C286.954 469.995 286.816 469.995 286.678 469.858L286.54 469.582C286.127 469.031 286.816 470.133 286.54 469.582C286.402 469.306 286.264 469.031 286.127 468.755L285.989 468.479C285.713 467.928 285.989 469.031 285.989 468.341C285.989 468.066 285.851 467.652 285.851 467.377C285.851 467.101 285.851 466.825 285.851 466.55C285.851 465.998 285.713 466.963 285.851 466.412C285.851 466.274 285.851 466.136 285.851 465.998C285.851 465.723 285.989 465.447 286.127 465.171L286.264 464.62C286.264 464.482 286.54 464.069 286.264 464.482C286.54 463.931 286.953 463.518 287.367 463.104C287.505 462.966 287.643 462.966 287.643 462.828C287.229 463.104 287.643 462.691 287.643 462.828C288.056 462.553 288.194 462.415 288.607 462.277C288.745 462.277 288.883 462.139 288.883 462.139L289.297 462.001C289.434 462.001 289.848 462.001 289.434 462.001C289.021 462.001 289.434 462.001 289.572 462.001H289.986C290.399 462.001 290.261 462.139 289.848 462.001C289.986 462.001 290.261 462.001 290.399 462.001C291.088 462.001 289.572 461.726 290.261 462.001C290.399 462.001 290.675 462.139 290.813 462.139C290.123 462.001 290.123 461.864 290.537 462.001C290.675 462.139 290.95 462.277 291.088 462.277C290.537 462.139 290.537 461.864 290.813 462.139L291.364 462.553C291.64 462.828 291.364 462.691 291.226 462.415C291.226 462.553 291.502 462.691 291.64 462.828L291.915 463.242C291.64 462.691 292.329 463.655 291.915 463.242C292.053 463.518 292.191 463.931 292.329 464.207C292.329 464.207 292.467 464.758 292.467 464.344C292.467 463.931 292.467 464.62 292.467 464.758C292.191 465.309 292.191 465.723 292.191 466.136C292.329 466.825 292.742 467.514 293.293 467.79C293.983 468.341 294.81 468.755 295.774 468.755C297.153 468.893 298.944 468.617 298.944 466.825C298.806 458.28 286.264 454.008 280.751 460.485C278.408 463.242 278.133 467.101 280.062 470.271C282.543 474.13 286.953 476.197 291.502 475.508C295.774 474.957 298.944 471.374 299.082 466.963C298.944 466.274 298.531 465.585 297.98 465.309C297.29 464.758 296.463 464.344 295.499 464.344C293.845 464.069 292.191 464.482 292.191 466.136Z" fill="#F5EE30"/>
</g>
<path d="M115.359 468.342C113.429 467.377 111.775 466.137 110.259 464.621C108.743 463.105 107.502 461.313 106.813 459.245C106.262 457.178 107.64 455.938 109.432 455.249L110.259 454.973C109.983 454.973 109.708 454.973 109.57 454.835L109.432 454.697C109.57 454.973 109.846 455.249 110.121 455.524L112.602 458.97C113.842 460.762 117.702 461.588 118.666 459.108C119.218 457.592 119.769 456.075 120.458 454.697C120.734 454.146 121.009 453.595 121.423 453.181C121.285 453.319 121.836 452.906 121.561 453.043L121.974 452.905C122.388 452.905 122.388 452.905 121.974 452.905H122.25C121.699 452.492 122.388 452.906 122.525 453.043C121.698 452.768 122.939 453.181 122.388 452.905C122.663 453.181 122.663 453.181 122.525 453.043L122.801 453.319C123.49 454.284 123.766 455.524 123.766 456.627C123.766 459.521 121.836 462.278 120.182 464.483C118.253 467.101 116.048 469.582 113.705 471.65C112.464 472.752 113.98 474.682 115.083 475.233C116.461 476.06 118.391 475.922 119.631 474.958C122.663 472.201 125.42 469.031 127.625 465.585C129.83 462.14 131.346 458.143 129.968 454.008C128.452 449.873 124.179 447.255 119.769 447.806C117.702 448.082 115.91 449.184 114.807 450.976C113.842 452.906 112.878 454.835 112.189 456.902L118.253 457.04C117.15 455.386 116.048 453.87 114.945 452.354C113.291 450.425 110.948 449.46 108.467 449.598C104.884 450.011 100.749 452.354 100.336 456.213C99.9221 459.659 102.127 462.967 104.195 465.448C106.538 468.204 109.294 470.547 112.464 472.201C113.842 472.89 115.91 473.166 117.012 471.925C118.115 470.685 116.461 469.031 115.359 468.342Z" fill="#262626"/>
<path d="M155.053 467.24C152.021 468.893 147.748 471.099 145.268 467.377C144.303 465.723 143.751 463.794 143.751 461.727C143.476 459.659 143.751 457.454 144.854 455.524C144.992 455.249 145.13 455.111 145.405 454.835C145.543 454.697 146.232 454.146 145.957 454.284C146.37 454.008 146.784 453.733 147.197 453.457C147.197 453.457 147.748 453.181 147.335 453.319C147.611 453.181 147.886 453.044 148.162 452.906C148.438 452.768 148.989 452.63 149.402 452.492C149.678 452.354 149.816 452.354 150.091 452.217H150.229C151.194 452.079 152.159 451.803 153.124 451.665C153.951 451.527 154.778 451.527 155.604 451.665C156.431 452.079 157.121 452.768 157.672 453.595C158.912 455.111 159.601 457.04 160.015 458.97C160.153 459.935 160.153 461.037 159.877 462.002C159.464 463.38 158.637 464.483 158.912 465.861C159.464 467.24 160.153 468.48 161.117 469.583L163.736 473.442L166.63 469.031C164.425 469.307 162.082 469.031 160.015 468.342C156.983 467.24 152.71 471.926 156.707 473.442C159.877 474.544 163.323 474.82 166.63 474.269C168.698 473.993 170.903 471.926 169.525 469.858L166.768 465.861C166.355 465.172 165.941 464.483 165.528 463.932C165.666 463.932 165.39 464.345 165.528 464.483C165.666 464.621 166.217 463.105 166.217 462.967C167.044 460.348 167.044 457.454 166.079 454.835C165.252 452.079 163.598 449.736 161.393 447.944C158.774 446.014 155.467 446.29 152.434 446.704C147.335 447.531 141.684 449.598 138.79 454.146C137.274 456.765 136.585 459.797 136.998 462.967C137.136 465.723 137.963 468.342 139.479 470.685C141.408 473.304 144.578 474.682 147.886 474.544C151.608 474.269 155.329 473.028 158.499 470.961C159.739 470.272 160.704 468.48 159.601 467.24C158.499 465.999 156.294 466.55 155.053 467.24Z" fill="#F5EE30"/>
<path d="M186.063 459.935C183.307 457.04 180.826 453.87 178.759 450.563L177.105 455.662C184.823 455.111 192.541 455.524 200.259 457.04L197.779 451.665C192.817 458.143 190.75 466.826 185.099 472.477L190.336 474.958L187.58 462.416L187.442 461.726C187.304 461.037 187.166 461.451 186.89 462.967L187.166 462.829L187.855 462.553L190.612 461.175L196.4 458.143C197.916 457.454 198.606 455.524 197.779 454.008C197.09 452.63 195.16 451.114 193.506 451.941L186.753 455.386C184.547 456.489 181.377 457.454 181.102 460.21C181.102 461.589 181.377 462.829 181.791 464.207L182.618 467.929L184.272 475.371C184.547 476.612 185.374 477.576 186.477 478.128C187.442 478.679 188.682 478.541 189.509 477.852C195.711 471.512 198.054 462.829 203.292 455.8C204.808 453.87 202.878 450.838 200.811 450.425C192.679 448.909 184.41 448.357 176.14 448.909C175.037 449.046 174.073 449.736 173.797 450.7C173.521 451.803 173.797 453.043 174.486 454.008C176.554 457.454 179.034 460.486 181.791 463.38C182.894 464.621 184.685 465.448 186.201 464.345C187.166 463.242 187.304 461.313 186.063 459.935Z" fill="#262626"/>
<path d="M398.454 464.07C395.421 466.826 392.527 469.72 389.908 472.89L396.524 471.374L395.697 459.521L395.284 453.87L395.008 450.838C395.008 450.011 394.594 448.909 395.421 448.357L391.424 449.598C388.944 450.149 390.322 449.873 391.149 449.736H392.665H395.421C397.351 449.736 399.143 449.873 401.072 449.873C403.002 449.873 404.794 450.149 406.723 450.287C407.412 450.287 408.928 450.287 409.48 450.7C410.031 451.114 409.893 452.217 409.893 452.768L412.374 475.509L419.127 473.855C414.028 470.961 409.617 466.964 406.034 462.14C405.62 461.589 403.14 462.553 402.588 462.691C401.486 462.967 400.383 463.38 399.28 463.932C402.726 468.756 407.274 472.615 412.374 475.647C413.063 476.06 419.127 474.682 419.127 473.993L417.473 458.832L416.646 451.39C416.509 450.563 416.646 449.322 415.957 448.771C414.855 448.357 413.752 448.22 412.65 448.357C407.826 447.944 402.864 447.668 398.04 447.806C396.8 447.806 395.559 447.806 394.457 448.082C392.665 448.22 390.873 448.771 389.219 449.598C388.392 450.149 388.53 450.838 388.53 451.665L388.806 455.524L390.184 472.753C392.389 472.615 394.732 472.063 396.8 471.236C399.418 468.066 402.313 465.172 405.345 462.416C405.62 462.14 405.069 462.278 404.931 462.278C404.242 462.278 403.553 462.416 402.864 462.553C402.037 462.691 401.21 462.967 400.245 463.243C399.556 463.518 399.005 463.794 398.454 464.07Z" fill="#262626"/>
<path d="M166.768 45.2183C162.495 49.353 157.947 53.7634 157.12 59.9656C156.155 66.3055 159.601 72.5077 165.527 74.8507C171.04 77.0559 177.105 75.1264 181.377 71.4051C183.72 69.6134 185.65 67.2703 187.028 64.5138C188.406 61.3438 187.441 57.6226 184.685 55.4173C179.861 51.4204 173.108 54.866 172.281 60.7925C171.454 67.1325 176.967 72.9212 182.618 74.7129C188.268 76.5046 195.435 76.229 201.362 75.1264C207.288 74.0238 212.664 70.8538 216.523 66.1677C220.382 61.4817 223.138 55.9687 224.654 50.0422C226.17 43.84 225.068 36.9488 219.83 32.814C215.144 29.0927 208.942 30.1953 205.083 34.4679C200.811 39.154 200.535 46.3209 200.811 52.3852C200.948 55.9687 201.362 59.6899 202.189 63.1356C202.74 66.3056 203.843 69.1999 205.772 71.8186C209.769 77.0559 217.074 77.8829 223.138 77.6072C229.478 77.3316 235.543 75.402 240.78 72.0942C245.604 69.0621 249.601 63.8247 247.809 57.7604C246.982 54.8661 245.19 52.3852 242.572 50.8691C241.469 50.18 240.229 49.9043 238.988 49.9043C237.472 49.9043 236.232 50.7313 235.543 52.1095C232.648 56.2443 232.648 61.7573 234.302 66.4434C235.956 71.5429 239.815 75.5398 244.777 77.4694C249.739 79.1233 255.252 78.572 259.8 75.9533C262.005 74.7129 263.935 72.9212 265.451 70.8538C267.242 68.3729 262.694 63.2734 260.627 66.1677C256.768 71.4051 248.36 74.2994 242.572 70.4403C237.748 67.2703 237.472 59.8278 241.469 55.5552L240.366 56.2443C242.709 55.9687 242.985 58.5873 242.434 60.3791C241.331 63.549 238.299 65.6164 235.68 67.2703C229.065 71.1294 221.347 72.3699 213.904 70.9916C212.388 70.8538 211.01 70.1647 209.769 69.3377C208.942 68.3729 208.253 67.1325 208.115 65.7542C207.013 61.6195 206.461 57.4847 206.324 53.2121C206.186 49.6287 206.324 45.6318 207.84 42.3239C209.08 39.2918 211.837 37.2244 215.007 36.8109C217.487 36.6731 219.555 38.4648 219.83 40.9457C220.52 44.5291 219.003 48.3883 217.625 51.6961C215.007 58.1739 210.872 64.5138 204.256 67.4082C200.811 68.7864 196.951 69.6134 193.23 69.7512C189.647 69.889 185.512 70.0268 182.066 68.7864C179.861 67.9595 177.38 66.3055 177.656 63.6869C177.932 62.3086 178.758 61.0682 179.999 60.3791C180.55 60.1034 181.101 59.9656 181.653 59.9656C181.377 59.9656 182.48 60.1034 182.342 60.1034C182.48 60.2412 182.48 60.1034 182.204 59.8278C182.066 59.2765 182.066 59.1386 182.066 59.5521C182.066 59.5521 181.101 61.7573 180.964 62.033C179.31 64.376 177.105 66.4434 174.486 67.8216C171.592 69.4755 167.595 70.3025 164.562 68.5107C161.53 66.719 161.944 63.1356 163.046 60.3791C164.425 56.52 167.595 53.6256 170.489 50.8691C171.454 49.6287 171.454 47.9748 170.489 46.7344C169.8 45.7696 167.732 44.1157 166.63 45.2183H166.768Z" fill="#262626"/>
<path d="M267.519 57.8982V56.1065C267.381 55.9686 267.243 55.8308 267.105 55.693C266.83 55.5552 266.554 55.5552 266.278 55.5552C265.865 55.5552 265.451 55.5552 265.176 55.693C264.762 55.693 264.349 55.8308 263.935 55.9686L263.108 56.2443C262.557 56.52 262.144 56.7956 261.73 57.0713L261.317 57.4847C261.179 57.6225 261.041 58.036 261.041 58.3117V60.1034C261.179 60.2412 261.317 60.3791 261.455 60.5169C261.73 60.6547 262.006 60.6547 262.281 60.6547C262.695 60.6547 263.108 60.6547 263.384 60.5169C263.798 60.5169 264.211 60.3791 264.624 60.2412L265.451 59.9656C266.003 59.8278 266.416 59.5521 266.83 59.1386L267.243 58.7252C267.519 58.4495 267.519 58.1739 267.519 57.8982Z" fill="#262626"/>
<path d="M120.32 72.3698C130.368 72.3698 138.513 64.2245 138.513 54.1768C138.513 44.1292 130.368 35.9839 120.32 35.9839C110.272 35.9839 102.127 44.1292 102.127 54.1768C102.127 64.2245 110.272 72.3698 120.32 72.3698Z" fill="#F5EE30"/>
<path d="M136.585 51.834C136.585 58.8631 132.312 65.0652 125.972 67.8217C119.632 70.5782 112.327 69.3378 107.366 64.5139C102.955 60.1035 103.369 52.7987 106.539 47.5614C110.122 41.4971 117.014 38.1893 124.043 39.0162C127.626 39.4297 130.934 41.0836 133.415 43.5644C135.62 45.9075 136.86 49.0775 136.723 52.3853C136.86 54.0392 137.687 55.5553 139.066 56.6579C140.168 57.4848 140.857 57.0713 140.72 55.6931C140.582 47.0101 135.069 37.9136 127.075 34.3302C119.494 30.8845 110.398 32.8141 104.885 39.154C92.7563 52.9366 106.125 77.7451 124.318 75.1264C133.69 73.7482 140.72 65.7543 140.72 56.2444C140.72 54.5905 140.03 53.0744 138.928 51.834C138.239 51.5583 136.585 50.1801 136.585 51.834Z" fill="#F5EE30"/>
<path d="M375.022 40.119C377.839 40.119 380.122 37.8359 380.122 35.0195C380.122 32.2031 377.839 29.9199 375.022 29.9199C372.206 29.9199 369.923 32.2031 369.923 35.0195C369.923 37.8359 372.206 40.119 375.022 40.119Z" fill="#262626"/>
<path d="M396.66 39.5675C399.476 39.5675 401.76 37.2843 401.76 34.4679C401.76 31.6515 399.476 29.3684 396.66 29.3684C393.844 29.3684 391.561 31.6515 391.561 34.4679C391.561 37.2843 393.844 39.5675 396.66 39.5675Z" fill="#262626"/>
<path d="M417.886 39.8434C420.702 39.8434 422.985 37.5602 422.985 34.7438C422.985 31.9274 420.702 29.6443 417.886 29.6443C415.069 29.6443 412.786 31.9274 412.786 34.7438C412.786 37.5602 415.069 39.8434 417.886 39.8434Z" fill="#262626"/>
<path d="M188.407 429.475L207.427 379.858L301.562 381.787L311.485 429.475H188.407Z" fill="#262626"/>
<path d="M191.578 430.716L208.255 387.163L210.598 380.961L210.046 381.236L241.884 381.926L292.604 383.028L304.181 383.304L298.392 380.823L306.938 422.584L308.178 428.51L308.729 427.959H190.751C189.097 427.821 187.581 427.821 185.927 427.959H185.651C184.135 427.959 186.065 429.337 186.34 429.475C187.719 430.302 189.235 430.716 190.889 430.854H308.867C310.383 430.854 312.175 430.991 313.691 430.854H313.967C314.38 430.854 314.656 430.716 314.518 430.302L305.973 388.541L304.732 382.615C304.595 381.926 302.803 381.236 302.251 380.961C301.149 380.409 300.046 380.134 298.944 380.134L267.106 379.445L216.386 378.342L204.809 378.066C204.533 378.066 204.396 378.066 204.258 378.342L187.581 421.895L185.238 428.097C184.686 429.475 191.164 431.956 191.578 430.716Z" fill="#262626"/>
<path d="M296.738 159.613C296.738 159.613 286.676 197.791 279.509 208.817C272.343 219.843 276.753 224.942 282.266 220.945C282.266 220.945 279.923 227.285 289.019 225.218C298.116 223.151 314.793 201.926 314.793 201.926C314.793 201.926 322.097 246.857 340.704 266.428C359.31 285.999 345.666 304.192 345.666 304.192C345.666 304.192 326.508 325.555 332.021 328.725C337.534 331.895 358.897 330.517 360.275 310.118L361.653 289.72C366.615 306.259 365.512 323.901 358.483 339.751C346.63 365.662 351.592 380.271 366.615 365.249C381.638 350.226 409.341 288.204 396.523 227.699C383.705 167.194 371.163 130.532 294.67 121.711L296.738 159.613Z" fill="#262626"/>
<path d="M293.708 158.373C293.57 158.786 293.845 157.821 293.708 158.511C293.57 159.2 293.432 159.613 293.294 160.027C292.743 161.818 292.329 163.61 291.778 165.264C290.262 170.639 288.608 176.014 286.954 181.252C285.025 187.178 283.095 192.967 280.752 198.618C279.787 200.823 278.822 203.028 277.72 205.096C276.066 208.128 274.136 210.884 273.309 214.192C272.482 217.362 273.034 220.394 275.79 222.462C278.547 224.667 282.406 224.667 285.162 222.599L279.512 218.878C278.547 221.221 279.374 223.978 281.441 225.494C285.162 228.388 290.4 228.112 294.397 226.045C297.98 223.978 301.288 221.497 304.182 218.602C307.352 215.57 310.384 212.262 313.279 208.955C314.795 207.163 316.449 205.371 317.827 203.442L311.625 200.547C313.692 212.952 316.862 225.08 321.273 236.795C324.58 245.754 328.715 254.713 334.504 262.293C338.087 266.841 342.36 270.7 344.841 276.076C346.908 280.486 347.597 285.31 347.184 290.272C346.77 294.682 345.116 298.955 342.498 302.538C338.639 306.948 335.055 311.497 331.747 316.321C329.956 318.801 328.577 321.558 327.888 324.59C327.337 327.898 330.231 329.965 332.988 331.068C338.914 333.273 346.357 332.308 351.87 329.414C355.315 327.76 358.21 325.141 360.139 321.834C362.896 317.285 363.171 312.186 363.447 307.086L364.274 294.269C364.412 293.166 364.55 292.063 364.55 290.823L358.348 288.893C359.45 292.063 360.139 295.371 360.553 298.679C361.793 306.811 361.518 315.08 360.002 323.074C359.037 328.174 357.383 333.135 355.178 337.821C353.248 342.094 351.594 346.366 350.354 350.777C348.838 356.152 347.046 363.181 349.802 368.419C352.283 372.967 357.934 374.621 362.482 372.002C367.031 369.659 370.614 365.386 373.646 361.389C381.227 350.915 386.602 338.648 390.874 326.52C396.801 309.843 400.66 292.339 402.038 274.697C402.865 265.05 402.727 255.402 401.9 245.754C400.936 236.933 399.42 228.25 397.49 219.705C392.528 196.964 386.464 173.12 371.579 154.651C355.315 134.529 330.369 125.019 305.423 120.884C301.288 120.195 297.015 119.644 292.881 119.093C292.191 118.955 291.227 119.368 291.227 120.195L293.018 153.549L293.708 158.373C293.708 159.889 295.361 160.991 296.602 161.543C297.291 161.818 299.91 162.37 299.772 160.854L297.98 127.5L297.704 122.814L296.051 123.916C310.109 125.57 324.167 128.327 337.26 133.84C346.77 137.699 355.453 143.488 362.758 150.792C377.643 166.229 384.397 188.143 389.358 208.955C390.874 215.57 392.39 222.186 393.769 228.801C395.56 238.036 396.525 247.546 396.525 256.918C396.663 274.973 394.32 292.89 389.358 310.256C385.637 324.039 380.262 337.132 373.371 349.674C371.028 353.947 368.271 357.944 365.239 361.665C363.585 363.595 361.793 365.249 359.726 366.765C358.761 367.454 357.796 368.005 356.694 368.556C356.28 368.694 355.867 368.832 355.453 368.832C355.178 368.832 355.04 368.832 354.764 368.97C355.178 368.832 354.764 368.97 354.626 368.97C354.764 368.97 355.453 368.97 354.626 368.97C355.729 369.245 354.351 368.694 355.453 369.245C354.902 368.832 356.142 369.797 355.591 369.383C356.005 369.659 355.867 369.383 356.005 369.797C355.591 369.108 355.315 368.419 355.178 367.729C354.764 365.249 354.764 362.768 355.315 360.287C355.867 356.566 356.832 352.982 358.21 349.399C359.864 344.575 362.207 340.026 363.861 335.34C368.547 321.696 368.96 306.811 365.239 292.89C364.963 292.063 364.825 291.374 364.55 290.547C363.861 289.169 362.62 288.204 361.104 287.791C360.277 287.515 358.485 287.239 358.348 288.618L357.796 296.336C357.521 301.573 357.521 307.086 356.556 312.186C355.867 316.045 353.937 319.628 351.181 322.385C348.7 324.728 345.668 326.244 342.498 327.209C341.119 327.622 339.603 327.76 338.225 327.898C337.536 327.898 336.985 327.898 336.296 327.898C336.02 327.898 335.606 327.898 335.331 327.898C335.055 327.898 334.09 327.76 334.779 327.898C334.228 327.76 333.677 327.622 333.263 327.622C332.85 327.622 333.677 327.898 333.126 327.622C332.436 327.209 332.574 327.347 333.126 327.622C332.436 327.209 333.677 328.174 333.815 328.174C333.953 328.174 334.366 328.725 334.09 328.449C334.366 328.725 334.09 328.725 334.228 328.587C334.366 328.449 334.228 327.898 334.228 328.725C334.228 328.587 334.228 328.587 334.228 328.449C334.228 328.174 334.228 327.898 334.228 327.622C334.504 325.004 336.433 322.247 337.949 319.904C341.257 315.218 344.703 310.67 348.424 306.259C350.767 302.952 352.421 299.23 353.11 295.233C355.178 284.621 350.629 274.422 343.462 266.566C337.536 259.812 332.712 251.956 329.542 243.549C324.305 230.593 320.446 217.224 317.965 203.442C317.827 202.615 317.965 203.717 317.965 203.166C317.689 201.236 313.554 198.066 311.9 200.272C308.868 204.131 305.561 207.852 302.115 211.435C299.496 214.192 296.602 216.811 293.57 219.292C290.951 221.221 288.195 223.151 284.887 223.288C284.611 223.288 284.335 223.288 284.06 223.288C283.646 223.426 283.784 223.151 284.06 223.288C284.335 223.426 284.749 223.702 285.025 223.84C285.3 223.978 285.3 224.115 285.438 224.253C285.162 224.115 285.438 224.391 285.438 224.253C285.438 224.115 285.3 223.978 285.3 223.978C285.3 223.702 285.3 224.529 285.3 223.978C285.3 223.564 285.3 223.151 285.438 222.737C285.438 222.324 285.3 223.013 285.438 222.599C286.265 220.394 281.579 217.638 279.787 218.878C279.374 219.154 278.96 219.429 278.409 219.705C278.271 219.843 277.995 219.843 277.858 219.843H277.582C277.306 219.843 277.306 219.843 277.582 219.843C276.893 219.705 277.582 219.981 277.582 219.843C278.271 219.981 278.822 220.394 279.374 220.945C279.649 221.221 279.374 221.221 279.374 221.083C279.374 221.359 279.236 220.808 279.236 220.532C278.685 217.775 280.338 214.468 281.717 212.125C284.06 207.99 286.127 203.717 287.919 199.307C291.778 189.246 294.948 178.909 297.842 168.434C298.531 165.815 299.221 163.334 299.91 160.716C300.461 158.648 294.397 155.616 293.708 158.373Z" fill="#262626"/>
<path d="M296.324 156.581C296.324 156.581 288.055 175.601 267.657 170.915C252.771 167.331 249.877 148.863 249.601 134.805C249.601 134.805 239.402 123.227 242.986 121.711C246.569 120.195 258.422 120.057 258.422 120.057C258.422 120.057 268.621 113.166 285.712 115.509C302.802 117.852 312.174 136.734 296.324 156.581Z" fill="#262626"/>
<path d="M293.018 155.754C289.848 163.059 282.681 169.123 274.687 169.537C268.072 170.088 261.87 166.78 258.562 160.991C254.978 154.927 253.738 147.347 253.187 140.455C253.049 138.664 253.049 137.01 252.911 135.218C252.911 134.529 252.498 133.84 251.946 133.289C250.43 131.497 248.914 129.567 247.674 127.638C246.985 126.673 246.433 125.57 245.882 124.468C245.744 124.192 245.606 123.227 245.606 123.503C245.606 123.365 245.606 123.089 245.606 122.952C245.606 122.952 245.331 123.089 245.193 123.227C245.331 123.089 245.468 123.227 245.331 123.227C245.193 123.227 245.744 123.089 245.882 123.089C246.02 123.089 246.433 122.952 246.847 122.952L247.536 122.814C249.19 122.538 250.706 122.4 252.36 122.262C254.565 122.125 256.908 122.125 259.113 121.987C259.94 121.849 260.629 121.573 261.318 121.298C261.732 121.16 261.043 121.436 261.043 121.436C261.594 121.16 262.145 120.884 262.697 120.471C268.623 117.714 275.101 116.474 281.579 117.025C285.162 117.025 288.746 117.99 291.916 119.644C294.81 121.298 297.153 123.779 298.669 126.673C302.39 133.978 301.012 142.385 297.291 149.276C296.05 151.481 294.672 153.687 293.018 155.754C292.053 156.994 294.259 158.097 295.223 158.373C296.739 158.924 298.393 158.511 299.496 157.408C304.044 151.757 307.49 144.866 307.766 137.561C308.041 131.772 306.112 125.984 302.253 121.573C297.98 117.025 292.329 114.269 286.127 113.442C279.098 112.339 271.793 112.89 264.902 114.682C261.594 115.509 258.424 116.887 255.53 118.679L257.597 117.99C254.703 117.99 251.946 118.128 249.052 118.403C246.985 118.541 244.917 118.817 242.85 119.368C241.472 119.782 239.68 120.195 238.991 121.573C237.75 124.192 240.645 128.051 242.161 129.981C243.539 131.91 244.917 133.702 246.571 135.494L246.158 134.391C246.433 146.658 248.087 162.783 259.664 169.674C271.104 176.29 285.576 174.223 294.534 164.575C296.602 162.37 298.256 159.889 299.496 157.27C300.736 154.514 294.121 153.273 293.018 155.754Z" fill="#262626"/>
<path d="M281.717 132.048C283.233 130.945 284.887 129.981 286.541 129.016C287.23 128.602 287.919 128.189 288.608 127.913C289.022 127.775 289.297 127.638 289.711 127.362C289.159 127.638 289.297 127.638 289.711 127.362L290.262 127.086C290.951 126.811 291.64 126.535 292.329 126.397L292.743 126.259C293.019 126.259 291.916 126.397 292.467 126.259C292.743 126.259 293.708 126.121 293.019 126.121C292.329 126.121 292.881 126.121 293.019 126.121L292.605 125.984C292.743 125.984 293.156 126.259 292.605 125.984C292.054 125.708 292.329 125.846 292.329 125.846C292.605 125.984 291.916 125.432 291.916 125.57C292.329 125.984 291.502 124.743 291.778 125.432C291.778 125.57 291.64 124.605 291.64 125.019C291.64 125.157 291.64 125.295 291.64 125.295C291.778 125.57 291.64 124.468 291.64 125.019C291.64 125.157 291.64 125.295 291.64 125.295C291.64 125.57 291.64 125.846 291.502 126.121C291.502 126.397 291.365 126.673 291.365 126.948C291.227 127.5 291.502 126.673 291.365 126.811L291.227 127.362C290.124 130.256 288.746 133.151 287.092 135.769C285.989 137.561 285.025 139.353 283.784 141.144C282.819 142.523 284.473 144.314 285.714 144.728C287.368 145.417 289.159 144.728 290.124 143.35C291.227 141.834 292.192 140.18 293.156 138.526C294.948 135.631 296.326 132.599 297.567 129.429C298.118 127.913 298.394 126.259 298.394 124.605C298.118 122.814 296.74 121.298 294.948 120.746C291.227 119.506 287.092 121.573 283.922 123.227C281.579 124.33 279.374 125.708 277.306 127.224C276.204 127.913 275.79 129.291 276.479 130.532C276.617 130.67 276.755 130.945 276.893 131.083C278.271 132.599 280.201 132.875 281.717 132.048Z" fill="white"/>
<path d="M323.477 177.668C320.996 186.351 317.274 194.483 312.451 202.063C311.486 203.58 311.624 205.509 312.864 206.749C313.829 207.714 316.172 208.541 317.137 207.025C322.65 198.618 326.784 189.521 329.541 179.874C329.817 178.082 328.852 176.29 327.06 175.601C325.682 175.05 324.166 175.739 323.614 177.117C323.614 177.255 323.614 177.393 323.477 177.668Z" fill="white"/>
<path d="M324.029 318.112C326.096 318.112 378.883 318.112 386.877 281.451C394.871 244.789 363.171 179.46 363.171 179.46C363.171 179.46 379.848 146.657 361.793 145.279C361.793 145.279 362.62 129.567 352.972 136.045C352.972 136.045 349.526 125.157 343.324 129.429C337.122 133.702 338.5 163.61 336.709 168.434C334.917 173.258 329.68 178.495 329.68 178.495C329.68 178.495 346.77 240.241 341.533 259.123C339.741 265.739 317.413 266.565 317.413 266.565L324.029 318.112Z" fill="white"/>
<path d="M325.407 321.144C332.988 321.144 340.43 320.179 347.735 318.388C360.415 315.493 373.233 309.98 381.502 299.506C391.288 287.239 391.288 270.7 389.358 255.815C387.153 239.138 382.191 222.737 376.403 207.025C374.06 200.823 371.717 194.758 369.098 188.694C367.858 185.662 366.617 182.63 365.101 179.735C364.963 179.598 364.963 179.46 364.963 179.322L365.377 182.078C367.306 178.081 368.96 173.947 370.338 169.812C372.406 163.334 374.06 155.616 370.752 149.276C368.822 145.279 364.963 142.66 360.553 142.385L364.274 147.484C364.55 144.314 363.998 141.144 363.034 138.112C362.207 135.493 360.415 133.288 357.934 132.048C355.729 131.083 353.386 132.048 351.456 133.426L355.453 137.009C354.075 132.875 351.594 128.051 347.459 126.259C342.911 124.192 339.879 128.326 338.776 132.186C335.744 142.109 336.433 152.997 335.469 163.196C335.331 164.023 335.331 164.85 335.193 165.677C335.193 165.815 335.193 165.953 335.055 166.091C334.917 166.504 335.193 165.677 335.055 166.091C334.642 167.055 334.228 168.02 333.677 168.985C332.161 171.466 330.369 173.809 328.302 175.876C327.75 176.428 327.75 177.392 328.026 178.081C331.334 189.934 334.09 201.787 336.433 213.916C338.363 223.012 339.603 232.247 340.43 241.481C340.706 245.202 340.706 248.786 340.43 252.507C340.155 255.539 340.017 257.744 337.26 259.398C333.539 261.604 328.853 262.293 324.58 262.982C321.824 263.395 319.067 263.671 316.449 263.809C315.622 263.809 315.484 264.774 315.622 265.463L321.273 310.669L322.1 317.009C322.375 318.663 323.34 320.179 324.718 321.144C325.959 321.833 326.786 321.282 326.648 319.904L321.135 274.697L320.308 268.357L319.481 270.011C325.959 269.735 332.85 268.908 338.914 266.565C340.43 266.014 341.809 265.187 343.049 263.947C344.014 262.844 344.703 261.328 344.841 259.812C345.392 256.228 345.668 252.507 345.392 248.924C344.979 239.552 343.738 230.317 341.946 221.221C340.292 212.124 338.225 203.028 336.158 193.931C335.055 189.245 333.815 184.421 332.574 179.735L332.299 181.941C335.469 178.771 339.052 174.636 340.017 170.088C340.568 166.228 340.982 162.369 340.982 158.51C341.257 153.273 341.533 147.898 342.36 142.66C342.773 139.628 343.462 134.804 345.805 133.013C346.632 132.323 347.873 132.048 348.975 132.323C349.389 132.461 349.251 132.323 349.665 132.737C350.078 133.15 349.113 132.186 349.802 132.875C349.94 133.013 350.354 133.564 349.94 133.013C350.078 133.288 350.905 134.666 350.492 133.977C350.767 134.391 350.905 134.804 351.181 135.356C351.181 135.493 351.319 135.631 351.319 135.769C351.043 134.942 351.594 136.32 351.319 135.769L351.456 136.183C351.732 137.285 353.799 140.869 355.453 139.766C356.694 138.801 358.21 138.25 359.726 138.388C359.864 138.388 359.312 137.836 359.175 137.836C359.037 137.836 359.037 137.561 359.175 137.974C359.312 138.25 359.312 138.388 359.175 137.974C359.312 138.388 359.45 138.663 359.45 139.077C359.588 139.766 359.45 138.939 359.588 139.628C359.588 140.042 359.726 140.317 359.726 140.731C359.864 141.42 359.864 141.971 359.864 142.66C359.864 143.074 359.864 143.349 359.864 142.936C359.864 143.074 359.864 143.349 359.864 143.487C359.864 143.625 359.864 143.901 359.864 144.039C359.726 145.968 361.38 149 363.585 149.138C364.412 149.138 365.239 149.414 366.066 149.689C366.204 149.689 367.031 150.103 366.755 149.965C366.893 150.103 367.168 150.103 367.306 150.241C367.858 150.516 367.306 150.241 367.444 150.379C367.582 150.516 367.858 150.792 367.582 150.516C367.306 150.241 367.72 150.792 367.72 150.792C367.72 150.654 367.168 150.241 367.582 150.654C367.995 151.068 367.582 150.654 367.444 150.516C367.582 150.654 367.582 150.93 367.72 151.068C367.858 151.481 367.582 150.516 367.72 150.93C367.72 151.068 368.133 152.308 367.995 151.757C368.547 155.202 368.271 158.648 367.306 161.956C366.066 167.469 363.585 172.431 361.518 177.668C360.966 179.046 361.793 180.424 362.345 181.665C363.171 183.594 363.998 185.386 364.825 187.316C367.995 194.483 370.752 201.374 373.233 208.541C376.816 218.189 379.711 228.112 382.191 238.035C384.672 247.959 386.05 258.02 386.05 268.219C385.913 277.316 384.121 286.274 378.746 293.855C373.922 300.608 366.893 305.432 359.312 308.74C348.149 313.564 336.02 316.045 323.753 316.182H322.651C320.308 315.08 323.202 321.144 325.407 321.144Z" fill="#262626"/>
<path d="M184.136 390.47C184.136 390.47 203.707 269.322 221.349 262.431C238.99 255.539 318.24 264.498 318.24 264.498C318.24 264.498 347.321 320.042 309.419 382.339C271.517 444.636 184.136 390.47 184.136 390.47Z" fill="white"/>
<path d="M187.305 389.506C188.959 379.72 190.751 369.797 192.68 360.011C196.401 340.853 200.536 321.558 205.636 302.814C207.841 294.406 210.597 286.137 213.767 277.867C215.008 274.697 216.386 271.665 218.04 268.771C218.591 267.944 219.28 266.703 219.97 265.739C220.245 265.325 220.659 264.912 220.934 264.498L221.486 263.947C221.072 264.36 221.761 263.533 221.486 263.947L221.761 263.671L222.313 263.258C221.623 263.671 222.726 262.982 222.313 263.258C223.002 262.844 221.486 263.671 222.175 263.396C221.21 263.671 222.037 263.396 222.175 263.396H222.313L223.277 263.12L223.829 262.982C224.242 262.844 223.002 263.12 223.691 262.982L225.069 262.706C228.79 262.155 232.512 261.742 236.233 261.604C246.57 261.19 256.907 261.604 267.244 262.017C283.093 262.844 298.943 264.085 314.656 265.876L315.482 266.014L314.793 265.601C316.172 268.495 317.412 271.389 318.515 274.422C321.271 282.14 323.201 289.996 324.303 298.128C327.887 324.452 323.201 351.328 310.659 374.896C305.283 384.957 298.806 394.743 289.296 401.359C285.712 403.84 281.853 405.769 277.718 407.285C275.789 407.974 273.721 408.526 271.654 409.077C270 409.49 267.519 409.904 265.452 410.18C248.499 412.247 230.858 408.112 215.008 402.323C205.498 398.602 196.264 394.33 187.443 389.368L187.029 389.092C185.927 388.403 183.859 389.23 182.757 389.781C182.343 390.057 180 391.297 181.103 391.987C189.51 397.086 198.469 401.359 207.703 404.667C225.62 411.42 245.054 415.83 264.074 413.212C274.824 411.833 285.023 407.836 293.982 401.772C304.87 394.054 312.175 383.304 318.101 371.588C330.781 346.504 334.916 317.974 329.954 290.409C328.576 282.691 326.371 275.249 323.476 267.944C322.925 266.428 322.374 265.049 321.547 263.671C320.995 262.844 320.306 262.982 319.479 262.844C303.63 261.19 287.917 259.95 272.067 258.985C262.006 258.434 251.945 258.158 241.884 258.434C237.749 258.572 233.614 258.847 229.479 259.399C226.172 259.674 222.864 260.639 219.694 262.017C214.87 264.36 212.113 269.322 209.908 273.87C206.738 280.899 203.982 288.066 201.914 295.371C196.264 313.702 192.129 332.446 188.27 351.19C185.651 363.87 183.308 376.55 181.103 389.368C180.965 390.057 180.827 390.608 180.827 391.297C180.551 392.951 187.029 391.435 187.305 389.506Z" fill="#262626"/>
<path d="M357.52 144.59C357.52 143.074 357.382 141.696 357.244 140.18C357.106 137.699 356.555 135.218 355.728 132.737C355.177 131.359 354.074 130.394 352.696 129.843C351.869 129.567 350.904 129.429 350.077 129.429C349.388 129.429 348.699 129.567 348.01 129.843C346.632 130.67 348.286 131.497 349.112 131.772C349.112 131.772 348.286 131.497 348.699 131.635C348.01 131.221 348.286 131.359 348.423 131.497C348.561 131.635 348.699 131.772 348.423 131.497C348.148 131.221 348.423 131.497 348.423 131.635C348.699 132.048 348.837 132.324 349.112 132.875C349.25 133.426 349.526 133.84 349.664 134.391C349.664 134.529 349.664 134.529 349.664 134.667C349.664 134.529 349.664 134.942 349.664 134.942C349.664 135.218 349.802 135.494 349.802 135.907C350.215 138.112 350.491 140.318 350.491 142.523C350.491 143.074 350.491 143.488 350.491 144.039C350.491 145.279 352.972 145.555 353.799 145.693C354.625 145.831 355.452 145.693 356.279 145.555C356.693 145.279 357.382 145.142 357.52 144.59Z" fill="#262626"/>
<path d="M364.686 153.687L364.548 146.244V145.141C364.41 144.59 364.134 144.039 363.859 143.625C363.308 142.936 362.756 142.247 362.067 141.696C361.516 141.144 360.964 140.731 360.275 140.593C360 140.455 359.448 140.455 359.586 140.869L359.724 148.311V149.414C359.862 149.965 360.138 150.517 360.413 150.93C360.964 151.619 361.516 152.308 362.205 152.86C362.756 153.411 363.308 153.687 363.997 153.962C364.272 154.1 364.686 154.238 364.686 153.687Z" fill="#262626"/>
<path d="M207.84 259.674L215.559 214.329C215.559 214.329 204.395 177.53 198.193 174.774C190.061 171.052 174.9 174.222 160.153 188.418C146.095 202.063 133.415 215.846 151.608 251.129C154.364 256.504 159.877 265.876 165.252 268.495C174.487 273.043 193.782 276.075 207.84 259.674Z" fill="#262626"/>
<path d="M244.917 258.985C244.917 258.985 242.16 257.331 238.99 254.988C235.82 252.645 234.993 250.44 240.92 239.414C252.497 217.775 235.407 203.993 235.407 203.993C237.612 202.063 239.541 199.72 240.782 196.964C242.987 192.553 241.333 183.181 228.653 189.246C225.759 190.624 222.038 191.864 217.627 189.383C211.838 186.213 207.979 182.63 197.642 176.841L199.296 181.803C203.707 194.896 202.053 209.23 194.886 221.083L193.646 221.635C208.806 238.587 206.325 256.78 206.325 256.78C208.668 259.95 210.736 263.258 212.39 266.703C212.252 266.703 238.439 274.008 244.917 258.985Z" fill="white"/>
<path d="M247.673 257.883C245.606 256.642 243.538 255.264 241.609 253.748C240.782 253.197 240.093 252.37 239.955 251.267C239.817 249.475 240.23 247.684 241.057 246.168C242.298 242.998 244.227 240.103 245.606 236.933C250.016 227.561 249.051 216.397 242.987 207.99C241.609 206.06 240.093 204.406 238.301 202.89L238.025 204.958C242.711 201.65 248.362 192.691 242.849 187.592C239.128 184.284 233.063 185.524 228.929 187.04C226.861 187.867 224.656 189.521 222.313 188.97C220.108 188.143 218.04 187.04 216.111 185.662C210.874 182.217 205.774 178.771 200.399 175.739C199.158 175.188 197.78 175.05 196.402 175.325C195.713 175.463 193.783 176.152 194.059 177.117C195.988 183.044 197.918 188.97 198.056 195.31C198.331 204.269 195.988 213.227 191.302 220.946L192.129 220.119C193.37 219.292 191.992 220.119 191.578 220.256C191.165 220.394 189.373 221.359 190.2 222.324C196.54 229.353 200.812 238.036 202.328 247.27C202.742 249.751 202.88 252.37 202.88 254.988C202.88 256.091 202.604 256.918 203.155 257.883C205.223 260.639 207.014 263.671 208.668 266.704C209.358 268.22 211.149 268.357 212.665 268.633C218.04 269.873 223.691 270.287 229.204 269.873C236.785 269.184 244.779 266.29 248.086 258.985C249.051 256.78 242.298 256.642 241.333 258.71C240.093 261.604 237.612 263.947 234.717 265.187C231.961 266.152 229.067 266.703 226.172 266.566C224.656 266.566 223.002 266.428 221.486 266.29C222.175 266.29 220.935 266.152 220.935 266.152L219.832 266.014C219.143 265.877 218.454 265.877 217.903 265.739C216.938 265.601 216.111 265.325 215.146 265.187C214.733 265.05 213.354 264.636 214.595 265.05L215.56 265.739C214.044 262.569 212.252 259.537 210.047 256.642C209.771 256.367 209.633 256.091 209.495 255.815C209.633 256.091 209.495 256.367 209.633 255.953C209.771 255.402 209.771 254.851 209.771 254.299C209.909 247.821 208.668 241.481 206.188 235.555C203.982 230.042 200.675 224.942 196.815 220.532L195.437 222.599C196.126 222.324 196.678 222.048 197.229 221.772C197.918 221.083 198.607 220.256 198.883 219.429C200.123 217.224 201.226 214.881 202.053 212.538C203.707 207.852 204.671 202.89 204.947 197.929C205.223 190.348 203.293 183.457 200.95 176.29L194.61 177.668C199.296 180.287 203.844 183.181 208.255 186.214C212.39 188.97 216.662 192.14 221.9 192.14C224.794 192.14 227.688 191.451 230.307 190.21C231.41 189.659 232.512 189.246 233.753 188.832C234.166 188.694 234.58 188.694 234.993 188.557C235.269 188.557 235.544 188.557 235.682 188.557C235.682 188.557 235.682 188.557 235.958 188.694C236.233 188.832 236.371 188.832 236.509 188.97C236.923 189.384 237.336 189.797 237.612 190.348C238.163 191.451 238.301 192.691 238.163 193.932C237.887 195.861 237.06 197.791 235.82 199.307C235.131 200.272 234.442 201.236 233.615 202.063C233.339 202.339 233.063 202.477 232.926 202.753C232.788 203.028 233.063 202.753 233.063 202.753C232.237 203.304 231.823 204.131 232.788 204.82L233.063 205.096L233.339 205.371C232.926 204.958 233.339 205.371 233.477 205.509C234.442 206.474 235.269 207.439 236.096 208.541C238.576 211.711 240.23 215.432 241.057 219.429C242.16 225.356 241.333 231.42 238.714 236.795C237.336 239.965 235.406 242.86 234.166 246.168C233.339 247.821 233.063 249.751 233.201 251.543C233.477 253.059 234.304 254.437 235.682 255.264C237.75 256.918 239.955 258.434 242.16 259.674C243.676 260.364 245.33 260.501 246.846 259.812C247.535 259.95 249.051 258.71 247.673 257.883Z" fill="#262626"/>
<path d="M222.175 216.948C226.998 219.567 233.201 220.394 238.162 218.189C240.368 217.086 242.297 215.57 243.675 213.503C244.64 212.125 242.986 210.608 241.746 210.195C240.23 209.506 238.438 209.919 237.335 211.16C237.198 211.435 236.922 211.711 236.784 211.987C237.06 211.573 236.508 212.262 236.371 212.262C235.957 212.676 235.681 212.952 235.268 213.227C234.992 213.365 234.854 213.503 235.13 213.365L234.441 213.778C234.028 213.916 233.614 214.054 233.201 214.33C233.614 214.192 233.752 214.192 233.476 214.192L233.063 214.33L232.511 214.468C232.236 214.468 232.098 214.605 231.822 214.605C232.098 214.605 232.787 214.33 231.822 214.605C231.547 214.605 230.995 214.605 230.582 214.605H230.031C231.271 214.605 230.444 214.605 230.168 214.605C229.479 214.468 228.79 214.33 228.101 214.192C229.479 214.468 228.239 214.192 227.963 214.054C227.688 213.916 227.412 213.916 227.136 213.778C226.861 213.641 226.309 213.503 226.034 213.365C225.758 213.227 226.998 213.778 226.447 213.503L226.309 213.365C224.931 212.676 222.726 212.262 221.485 213.503C220.658 214.33 220.658 215.708 221.485 216.397C221.761 216.811 221.899 216.948 222.175 216.948Z" fill="#262626"/>
<path d="M212.253 197.929C213.769 198.204 214.734 199.72 214.458 201.237C214.458 201.374 214.32 201.65 214.32 201.788C213.217 204.682 209.634 203.304 209.772 200.547C209.634 199.307 210.599 198.067 211.977 197.929C211.977 197.929 212.115 197.929 212.253 197.929Z" fill="#262626"/>
<path d="M176.417 251.543C176.417 251.543 210.598 210.333 239.404 244.376C239.404 244.376 266.831 220.808 281.578 255.678C296.325 290.547 246.571 295.096 246.571 295.096C246.571 295.096 269.036 305.157 247.122 326.244C225.208 347.331 207.704 316.045 207.704 316.045C207.704 316.045 203.156 360.7 167.045 350.088C130.935 339.475 151.058 314.667 151.058 314.667C151.058 314.667 126.387 314.667 128.868 295.509C131.349 276.351 165.805 263.12 165.805 263.12L176.417 251.543Z" fill="#262626"/>
<path d="M179.173 252.783C180.276 251.543 181.378 250.302 182.619 249.2C183.859 248.097 185.238 246.719 186.202 245.892C187.856 244.376 189.648 242.997 191.44 241.757C199.434 236.106 208.668 231.971 218.453 234.039C225.62 235.555 231.685 240.379 236.509 245.892C237.887 247.27 240.23 247.408 241.746 246.167C242.986 245.203 244.227 244.238 245.467 243.411L246.294 242.86L246.708 242.722C246.018 243.135 247.397 242.308 246.708 242.722C247.397 242.308 248.224 241.895 248.913 241.619C249.602 241.344 250.567 240.93 251.394 240.517C251.669 240.379 252.91 239.965 251.945 240.241C252.496 240.103 252.91 239.965 253.461 239.827C254.288 239.552 255.253 239.414 256.08 239.276C256.907 239.138 255.253 239.414 256.218 239.276H256.907C257.458 239.276 258.009 239.276 258.561 239.276C258.836 239.276 260.214 239.414 259.525 239.276C260.077 239.276 260.49 239.414 260.904 239.414C261.317 239.414 261.868 239.552 262.282 239.69C262.695 239.827 263.109 239.965 263.522 240.103C268.484 241.895 272.205 246.03 274.962 250.716C280.061 259.123 283.093 269.873 277.58 278.419C277.029 279.108 277.856 278.005 277.443 278.694L277.167 279.108C276.891 279.383 276.616 279.797 276.34 280.21C275.651 281.037 274.962 281.726 274.135 282.415C274.686 282.002 273.584 282.829 273.446 282.967C273.308 283.105 272.757 283.518 272.343 283.794C271.516 284.345 270.689 284.896 269.862 285.448L269.173 285.861C268.484 286.275 269.587 285.585 269.173 285.861L267.795 286.55C266.968 286.964 266.003 287.377 265.176 287.791C264.349 288.204 263.522 288.48 262.695 288.755L261.317 289.307L260.766 289.445L260.214 289.582L259.939 289.72L258.974 289.996L257.596 290.409C256.769 290.685 255.804 290.823 254.977 291.098C253.461 291.512 251.945 291.788 250.429 292.063C249.326 292.339 248.362 292.477 247.259 292.615C248.499 292.752 247.672 292.615 247.121 292.615H246.845C245.467 292.615 244.089 293.304 243.262 294.544C242.848 295.509 243.262 296.749 244.227 297.301H244.365L245.054 297.576L245.329 297.714C245.881 297.99 244.778 297.438 245.192 297.576L246.156 298.128C246.983 298.679 247.672 299.23 248.362 299.781C248.775 300.195 249.188 300.471 249.602 300.884C250.015 301.298 249.464 300.746 249.74 301.022C250.015 301.298 250.153 301.573 250.429 301.711C252.083 303.503 253.048 305.846 253.185 308.189C253.185 311.497 252.221 314.804 250.291 317.561C247.672 321.696 244.227 325.279 240.092 327.898C239.403 328.311 238.714 328.725 238.025 329C237.335 329.414 236.509 329.69 235.819 329.827C235.13 330.103 234.303 330.241 233.476 330.379C234.028 330.379 232.925 330.379 232.787 330.379C232.374 330.379 231.822 330.379 231.409 330.379C230.858 330.379 230.306 330.241 229.755 330.241C229.066 330.103 228.515 329.965 227.826 329.827C226.447 329.414 225.207 328.725 223.829 328.036C221.348 326.52 219.143 324.728 217.213 322.66C214.594 320.042 212.389 317.147 210.597 313.977C209.357 311.772 204.395 312.875 204.12 315.494C203.982 316.596 203.844 317.699 203.568 318.801C203.293 319.904 203.017 321.144 202.741 322.385C202.604 323.074 202.466 323.763 202.19 324.452C202.052 324.866 202.052 325.141 201.914 325.555L201.777 326.244C201.639 326.795 201.914 325.83 201.639 326.52C200.536 329.965 199.02 333.273 197.228 336.443C196.401 337.959 195.299 339.475 194.196 340.853C193.645 341.543 192.956 342.232 192.267 342.921C191.715 343.61 191.026 344.161 190.337 344.575C189.648 345.126 188.821 345.677 187.994 346.229C187.443 346.504 187.856 346.229 187.994 346.229L187.167 346.642C186.616 346.918 186.202 347.056 185.651 347.331C185.1 347.607 184.686 347.745 184.273 347.882C183.859 348.02 185.1 347.607 184.135 347.882L183.446 348.158C182.894 348.296 182.481 348.434 181.93 348.572C181.654 348.572 180.138 348.847 180.689 348.709C175.176 349.123 169.525 348.296 164.426 346.091C159.464 344.299 154.365 341.68 151.195 337.408C150.092 336.03 149.265 334.376 148.852 332.584C148.576 331.757 148.438 330.93 148.438 330.103C148.438 329.965 148.438 329.69 148.438 329.552C148.438 329.138 148.438 330.103 148.438 329.414C148.438 328.863 148.438 328.449 148.438 328.036C148.438 327.209 148.576 326.244 148.852 325.417C148.989 325.004 148.989 324.59 149.127 324.177C149.265 323.763 149.541 322.798 149.403 323.35C149.954 321.834 150.506 320.317 151.332 318.939C151.884 317.974 152.435 317.01 153.124 316.045C152.573 317.01 153.262 315.769 153.538 315.494C155.192 313.426 153.262 311.91 151.195 311.772C150.781 311.772 150.368 311.772 149.954 311.772C149.541 311.772 150.919 311.91 150.092 311.772H149.403C148.852 311.772 148.3 311.634 147.749 311.497C146.371 311.359 144.993 310.945 143.476 310.67C142.925 310.532 143.339 310.67 143.476 310.67L142.787 310.532L141.685 310.118C140.858 309.843 140.169 309.567 139.342 309.154C138.653 308.878 138.101 308.464 137.55 308.051C136.861 307.638 136.172 307.086 135.483 306.535C134.38 305.432 133.553 304.192 132.864 302.951C131.348 299.23 131.486 294.958 133.002 291.374C136.172 283.38 143.752 277.729 150.781 273.319C155.881 270.287 161.118 267.668 166.631 265.325C168.836 264.36 170.49 262.017 172.006 260.226L179.173 252.783C180 251.956 180 250.716 179.173 249.889C178.898 249.613 178.76 249.475 178.346 249.337C176.692 248.786 174.763 249.2 173.66 250.44L163.048 261.88L164.426 260.915C160.842 262.293 157.397 263.947 154.089 265.739C146.922 269.322 140.444 273.87 134.656 279.383C129.143 284.896 124.87 291.788 125.284 299.919C125.697 306.948 130.797 311.91 136.999 314.529C141.271 316.321 145.819 317.147 150.506 317.147L148.163 313.426C145.13 317.147 143.063 321.696 142.236 326.52C141.547 330.379 142.098 334.513 143.89 338.097C146.371 343.059 151.057 346.366 155.881 348.847C166.493 354.222 180 356.841 190.888 350.915C198.607 346.78 203.844 339.337 207.152 331.343C209.219 326.382 210.46 321.282 211.149 316.045L204.671 317.561C209.633 326.382 218.591 335.203 228.928 336.167C239.265 337.132 247.948 330.792 254.012 323.074C258.974 317.01 262.282 309.016 258.147 301.573C255.942 297.852 252.496 294.82 248.499 293.028L246.156 297.852C250.98 297.438 255.666 296.474 260.214 295.095C268.346 292.615 276.891 288.893 282.404 282.002C285.299 278.556 287.09 274.284 287.504 269.736C288.055 263.533 286.126 257.607 283.369 252.094C280.475 246.03 276.34 240.517 270.551 237.209C266.279 234.866 261.317 233.901 256.493 234.59C249.464 235.555 242.711 238.449 237.335 242.997L242.573 243.273C237.611 237.622 231.685 232.523 224.38 230.318C218.316 228.388 211.838 228.25 205.636 229.766C195.299 232.247 186.064 238.449 178.484 245.754C176.83 247.27 175.176 249.062 173.66 250.716C172.833 251.543 172.833 252.783 173.66 253.61C173.936 253.886 174.074 254.023 174.487 254.161C176.003 254.437 177.933 254.023 179.173 252.783Z" fill="#262626"/>
<path d="M211.976 194.896C214.319 192.002 215.283 188.281 214.594 184.56C213.767 180.838 211.286 177.668 207.841 175.877C203.568 173.534 198.055 171.604 193.093 171.742C189.097 172.017 185.237 173.809 182.481 176.704C178.76 180.287 176.554 185.249 174.487 189.935C174.211 190.486 180.689 192.967 181.103 191.864C183.032 187.454 185.1 182.906 188.407 179.322C191.164 176.428 195.85 173.258 200.123 173.947C203.844 174.498 207.014 178.357 207.841 181.803C208.806 185.662 207.979 189.659 205.36 192.691C205.084 193.105 208.254 194.207 208.53 194.207C209.081 194.621 211.424 195.586 211.976 194.896Z" fill="#262626"/>
<path d="M225.07 176.428C222.314 171.88 218.041 168.572 213.079 166.918C207.842 165.402 202.053 165.54 196.954 167.607C191.992 169.537 187.306 172.155 183.171 175.601C179.312 178.771 175.866 182.906 174.902 187.867C174.488 189.521 175.591 191.313 177.245 191.864C178.623 192.278 181.104 191.864 181.517 190.073C182.344 186.351 184.549 183.044 187.582 180.701C190.889 177.806 194.611 175.601 198.608 173.809C202.329 172.155 206.739 171.191 210.736 172.431C214.32 173.396 217.352 175.739 219.281 178.909C220.246 180.425 222.176 181.114 223.967 180.425C225.346 179.874 226.173 178.358 225.621 176.841C225.208 176.841 225.07 176.566 225.07 176.428Z" fill="#262626"/>
<path d="M252.773 239.69C261.181 236.795 271.518 233.35 279.511 239.138C286.265 243.962 287.781 252.921 289.021 260.639C289.435 262.844 295.913 260.915 295.499 258.296C294.121 249.475 292.054 239.69 283.646 234.866C273.723 229.215 261.594 232.936 251.671 236.382C250.706 236.658 248.639 237.898 249.052 239.138C249.465 240.379 251.809 239.827 252.773 239.69Z" fill="#262626"/>
<path d="M162.084 257.607C144.167 254.161 126.801 265.601 122.941 283.518C122.114 287.791 128.454 287.653 129.144 284.069C131.487 270.149 144.718 260.915 158.5 263.258C159.052 263.395 159.603 263.533 160.154 263.533C163.876 264.222 166.356 258.434 162.084 257.607Z" fill="#262626"/>
<path d="M266.141 144.177C267.657 144.452 268.622 145.968 268.347 147.485C268.347 147.622 268.209 147.898 268.209 148.036C267.106 150.93 263.523 149.552 263.661 146.795C263.523 145.555 264.487 144.315 265.866 144.177C265.866 144.177 266.004 144.177 266.141 144.177Z" fill="white"/>
<path d="M264.763 170.226C265.452 169.674 266.279 169.123 266.83 168.572L260.766 166.504C260.904 167.469 260.904 168.434 260.904 169.399V168.71C260.904 168.985 260.904 169.123 260.904 169.399L264.901 167.469H264.763L265.59 167.745C265.452 167.745 265.314 167.607 265.314 167.607L266.003 168.02L265.728 167.883L266.279 168.434L266.141 168.296C265.59 167.607 264.763 167.194 263.936 166.918C263.522 166.78 262.971 166.78 262.558 166.918C262.144 166.918 261.731 167.056 261.317 167.194C260.628 167.469 260.077 168.158 259.939 168.847C259.801 169.537 259.939 170.363 260.49 170.915C260.766 171.19 261.041 171.466 261.179 171.604C261.455 171.88 261.731 172.017 262.144 172.155C262.558 172.431 263.109 172.569 263.522 172.707C263.936 172.844 264.487 172.844 264.901 172.707C265.314 172.707 265.728 172.569 266.141 172.431L266.83 172.017C267.244 171.742 267.519 171.19 267.657 170.777C267.795 169.399 267.795 167.883 267.657 166.504L267.519 165.815L267.106 165.126L266.554 164.575C266.279 164.299 265.865 164.024 265.314 164.024C265.038 163.886 264.763 163.748 264.487 163.886C264.211 163.886 263.936 163.886 263.66 163.886C263.385 163.886 263.109 163.886 262.833 164.024C262.42 164.161 262.144 164.299 261.731 164.575C261.041 165.264 260.352 165.815 259.663 166.229C259.388 166.504 259.112 166.78 259.112 167.194C258.974 167.469 258.836 167.883 258.974 168.296C258.974 168.71 259.112 168.985 259.388 169.399C259.525 169.812 259.801 170.088 260.215 170.364C260.904 170.915 261.868 171.19 262.695 171.19L263.522 171.053C263.936 170.777 264.349 170.501 264.763 170.226Z" fill="white"/>
<path d="M495.206 469.444L414.992 438.434C410.03 436.504 404.379 438.985 402.312 443.947L384.946 489.016C383.016 493.977 385.497 499.628 390.459 501.696L422.71 514.1C423.399 519.475 424.777 526.642 425.604 531.328C425.88 532.706 427.12 533.533 428.499 533.395C429.05 533.258 429.464 533.12 429.739 532.706L441.316 521.405L470.673 532.706C475.635 534.636 481.286 532.155 483.353 527.193L500.719 482.124C502.649 477.163 500.168 471.512 495.206 469.444Z" fill="#F5EE30"/>
<path d="M494.379 466.963L463.368 454.973L419.264 437.882L414.716 436.09C411.27 434.574 407.136 434.712 403.966 436.78C401.485 438.433 400.244 440.914 399.28 443.671L396.11 451.94L386.6 476.335L383.292 484.881C382.189 487.361 381.776 490.118 382.051 492.737C383.154 497.974 386.875 502.384 391.975 504.314L400.244 507.484L422.159 516.029L423.675 516.58L420.367 512.308C421.194 517.959 422.159 523.472 423.123 529.123C423.812 532.844 428.499 538.632 432.496 534.911C436.492 531.19 440.076 527.606 443.797 523.885H442.281L461.577 531.328L470.949 534.911C475.497 536.703 480.734 536.427 484.042 532.568C485.42 530.639 486.523 528.571 487.074 526.366L490.933 516.443L500.581 491.496C501.546 489.153 502.373 486.81 503.338 484.467C505.819 477.438 500.995 469.582 494.379 466.963C493.276 466.412 492.587 466.963 492.863 468.342C493.414 469.995 494.517 471.236 496.033 472.063C498.376 473.028 499.203 474.957 498.927 477.576C498.789 478.541 498.514 479.505 498.1 480.47C497.273 482.675 496.309 485.018 495.482 487.224L486.385 510.93C484.593 515.616 482.802 520.302 480.872 524.988C479.08 529.536 474.119 531.741 469.571 530.087C466.814 529.123 464.058 528.02 461.439 526.917L440.765 518.923C440.352 518.786 439.662 518.51 439.249 518.923L429.188 528.709C428.636 529.26 428.223 529.812 427.672 530.225C427.12 530.639 426.707 530.501 426.431 530.776C426.156 531.052 428.223 534.222 428.085 532.43C428.085 531.879 427.947 531.328 427.809 530.776C426.982 525.953 426.018 520.991 425.329 516.029C424.915 514.1 423.675 512.583 422.021 511.757L405.206 505.279L394.042 501.006C392.113 500.455 390.183 499.628 388.391 498.663C385.773 497.009 386.738 493.012 387.702 490.669L390.459 483.64L399.417 460.348C401.209 455.662 402.863 450.976 404.793 446.427C406.584 442.017 411.408 439.812 415.819 441.19C416.921 441.603 418.024 442.017 419.126 442.43L460.474 458.418C472.051 462.966 483.766 467.377 495.344 471.925L495.895 472.201C497.136 472.752 497.825 472.201 497.549 470.822C497.136 469.031 495.895 467.652 494.379 466.963Z" fill="#F5EE30"/>
<path d="M438.146 500.179C432.908 502.936 426.155 499.766 423.26 495.08C419.539 488.464 419.953 480.47 424.087 474.268C428.222 468.066 438.008 467.101 444.761 468.755C452.204 470.547 457.165 476.887 456.338 484.605C456.063 486.948 455.512 489.153 454.547 491.221C453.72 493.426 452.342 495.493 452.479 497.836C452.755 500.455 453.306 502.936 454.133 505.417L456.063 513.135L461.438 510.654C455.787 507.484 450.274 504.038 444.899 500.455C443.383 499.49 441.453 499.628 440.075 500.868C439.11 501.971 439.248 503.487 440.351 504.452C440.489 504.59 440.626 504.728 440.764 504.728C446.139 508.311 451.652 511.757 457.303 514.927C459.095 515.891 463.505 515.478 462.678 512.446L460.611 504.728L459.646 500.868C459.233 499.766 459.095 498.525 459.233 497.285C459.646 496.182 460.06 495.08 460.611 494.115C461.025 493.012 461.438 491.772 461.851 490.669C462.678 488.189 463.092 485.432 463.092 482.813C462.954 472.476 454.822 465.31 445.175 463.38C436.216 461.45 423.95 463.104 418.161 470.96C412.786 478.403 411.959 489.429 416.783 497.285C422.02 505.83 433.322 509.414 442.28 504.865C443.521 504.176 443.796 502.66 443.245 501.558C443.107 501.42 442.969 501.144 442.832 501.006C441.591 499.49 439.662 499.215 438.146 500.179Z" fill="white"/>
<path d="M73.1862 219.98L7.71917 254.85C3.58441 257.055 2.06834 262.155 4.27354 266.152L23.8447 302.813C26.0499 306.948 31.1495 308.464 35.1464 306.259L61.471 292.201C65.3302 294.682 70.8432 297.989 74.2888 300.057C75.2536 300.608 76.6318 300.332 77.1831 299.23C77.4588 298.816 77.4588 298.403 77.4588 297.989L76.6318 284.069L100.613 271.389C104.748 269.184 106.264 264.084 104.059 260.087L84.4879 223.426C82.2827 219.291 77.321 217.775 73.1862 219.98Z" fill="#262626"/>
<path d="M70.0153 218.878L44.3797 232.522L8.54517 251.68C4.54823 253.885 0 255.815 0 261.328C0.137825 263.533 0.826952 265.601 2.06738 267.392L5.92648 274.697L16.4012 294.406L19.9847 301.022C21.2251 303.503 23.1547 305.432 25.6355 306.535C29.7703 308.326 34.732 309.291 38.8667 307.086L45.4824 303.64L63.5375 293.993L64.7779 293.303L58.5758 291.925C62.297 294.268 66.0183 296.611 69.8774 298.816C71.807 300.057 73.8744 300.884 75.9417 301.297C77.5957 301.573 80.0765 301.849 80.7656 299.919C81.1791 298.541 80.7656 296.611 80.6278 295.233L80.2143 287.515C80.2143 286.826 80.0765 286.137 80.0765 285.447C80.0765 285.034 79.8009 285.447 80.2143 285.172C81.4548 284.483 82.833 283.793 84.0734 283.104L97.4425 275.937C100.199 274.421 103.92 273.043 106.263 270.7C108.606 268.081 109.158 264.36 107.642 261.19C107.366 260.501 106.952 259.812 106.539 259.123L93.7212 235.003L88.2082 224.666C87.2434 222.875 85.8652 221.359 84.0734 220.256C79.9387 218.189 74.2878 216.948 70.0153 218.878C69.1883 219.429 71.9448 220.394 72.2205 220.394C73.1852 220.669 75.3904 221.496 76.4931 220.945C77.0444 220.67 77.5956 220.394 78.2848 220.256C78.8361 220.256 79.3874 220.118 80.0765 220.118C74.7013 222.323 78.4226 219.429 78.6983 219.843C78.8361 219.98 79.2496 220.256 79.3874 220.394C79.9387 220.945 80.49 221.496 81.0413 222.186C81.3169 222.737 81.5926 223.15 81.8682 223.702L84.9004 229.352L95.2373 248.648C97.3047 252.507 99.6477 256.228 101.439 260.225C102.956 264.222 101.302 268.771 97.4425 270.7C95.2373 271.941 93.0321 273.043 90.8269 274.284L73.8744 283.38L73.7365 283.518L74.4257 295.509C74.4257 296.06 74.5635 296.749 74.5635 297.3C74.5635 297.714 74.4257 298.265 74.2878 298.679C74.15 298.954 73.8744 299.23 73.5987 299.368L77.32 300.47C76.9065 300.195 76.493 299.919 76.0796 299.781C72.3583 297.576 68.4992 295.371 64.7779 292.89C63.8131 292.339 62.7105 291.925 61.6079 291.787C60.9188 291.65 59.4027 291.098 58.7136 291.512L45.0689 298.816L35.9724 303.64C34.4563 304.605 32.8024 305.432 31.1485 306.121C30.5972 306.259 29.9081 306.259 29.3568 306.397C28.1164 306.81 30.735 306.535 30.4594 306.672L30.0459 306.397C29.0811 305.708 28.2542 304.743 27.5651 303.64L27.1516 302.676L23.9816 296.611L13.7825 277.454C11.853 273.732 9.37212 270.011 7.71822 266.152C6.20214 262.155 7.71821 257.745 11.4395 255.677C12.4043 255.126 13.2312 254.712 14.196 254.161L47.8254 236.244C57.3353 231.144 66.9831 226.458 76.2174 221.083C76.3552 220.945 76.493 220.945 76.7687 220.807C77.5956 220.394 74.8391 219.429 74.7013 219.429C73.1852 219.153 70.98 218.326 70.0153 218.878Z" fill="#262626"/>
<path d="M58.5767 276.213C53.2016 274.835 47.8264 272.768 42.8647 270.149C40.6595 269.184 38.7299 267.53 37.2138 265.601C35.8356 263.533 35.9734 260.777 37.4895 258.847C39.419 256.918 42.589 257.331 45.0699 258.296C48.102 259.399 50.8585 261.052 53.2016 263.12C50.3072 256.642 52.3746 249.062 58.1633 245.065C59.128 244.376 60.0928 243.962 61.1954 243.824C65.0545 243.273 68.638 246.994 69.1893 250.991C69.7406 254.988 68.0867 258.847 66.5706 262.431L61.3333 275.111" fill="white"/>
<path d="M147.612 463.518C136.724 466.826 124.871 473.992 123.631 486.397C122.666 496.596 128.041 506.795 135.621 513.273C146.234 522.507 160.292 527.331 173.937 530.363C188.822 533.533 204.258 534.36 219.419 532.706C232.926 531.328 246.846 528.02 258.975 521.404C264.212 518.648 268.761 515.064 272.62 510.516C274.274 508.449 276.065 505.141 273.309 503.211C270.966 501.558 267.658 501.833 265.039 502.384C258.424 503.763 251.67 507.622 248.914 514.1C246.571 519.613 248.776 525.677 252.222 530.225C256.494 535.876 262.696 539.873 269.036 543.043C275.652 546.351 282.543 548.832 289.71 550.623C322.65 559.168 358.071 556.412 390.598 547.316C394.457 546.213 398.454 544.972 402.176 543.732C403.416 543.319 405.483 542.492 406.172 541.251C406.862 540.011 405.208 540.149 404.381 540.424C374.886 550.348 342.911 554.62 311.9 550.348C298.117 548.418 284.059 544.835 271.793 538.081C266.142 534.911 260.629 531.052 257.045 525.539C254.151 521.129 252.635 515.34 255.529 510.516C256.494 508.587 258.148 507.208 260.078 506.381C262.283 505.692 265.177 505.417 267.245 506.657C271.655 509.551 263.385 515.891 261.042 517.545C252.222 523.747 240.369 526.642 229.48 528.296C215.974 530.363 202.191 530.363 188.546 528.433C175.039 526.504 161.257 522.645 149.404 515.616C140.583 510.378 133.416 502.798 130.66 492.737C128.454 484.192 130.522 474.819 138.24 469.996C140.445 468.617 142.788 467.652 145.269 466.963C146.51 466.55 148.577 465.723 149.266 464.483C149.955 463.242 148.301 463.242 147.612 463.518Z" fill="#F5EE30"/>
</svg>
