<svg width="622" height="616" viewBox="0 0 622 616" fill="none" xmlns="http://www.w3.org/2000/svg">
<path d="M185.582 217.766C185.582 217.766 163.289 284.646 159.745 324.951C159.745 324.951 150.444 338.977 151.478 351.231C152.511 363.485 158.417 374.115 163.436 369.095C168.456 364.076 162.55 357.137 163.732 351.379C164.913 345.621 166.537 347.392 166.537 351.526C166.537 355.66 165.946 358.908 171.704 356.989C177.462 355.07 176.576 331.743 176.576 331.743C176.576 331.743 216.291 241.093 215.257 228.544C214.224 215.995 185.582 217.766 185.582 217.766Z" fill="white"/>
<path d="M181.888 217.176C175.54 236.221 170.077 255.561 165.205 275.05C161.367 289.518 158.562 304.282 156.642 319.193C156.495 320.817 156.495 322.441 156.199 323.918C156.052 324.361 155.904 324.804 155.609 325.247C154.132 327.609 152.804 330.119 151.77 332.776C150.146 336.467 148.965 340.306 148.227 344.292C147.636 348.721 147.932 353.15 149.113 357.579C149.999 361.713 151.475 366.142 154.575 369.243C157.233 371.9 162.105 373.377 165.501 371.605C169.634 369.538 169.634 364.814 168.749 360.975C168.01 358.76 167.568 356.693 167.42 354.331C167.42 353.298 167.568 352.117 167.863 351.231C168.01 350.788 168.158 350.345 168.306 349.902C168.453 349.607 168.749 349.312 168.601 349.459H166.239H166.386L163.581 348.721C161.81 347.983 162.695 347.835 162.695 348.573C162.695 349.016 162.843 349.607 162.991 350.05C163.138 351.231 162.991 352.56 162.991 353.741C162.843 355.808 164.024 357.727 165.943 358.317C169.93 360.089 175.54 359.499 177.607 355.217C179.231 351.821 179.526 347.688 179.821 343.997C180.117 340.601 180.117 337.205 180.117 333.81C180.117 331.743 181.15 330.119 181.888 328.199C184.103 323.032 186.318 318.012 188.384 312.845C194.881 297.491 201.229 281.989 207.282 266.487C210.087 259.4 212.597 252.313 214.959 244.931C216.731 240.355 217.912 235.63 218.65 230.758C219.388 223.672 212.449 220.128 206.692 218.357C199.605 216.437 192.371 215.552 185.136 215.994C184.694 215.994 184.251 215.994 183.808 215.994C182.774 215.994 181.15 216.437 182.184 217.618C183.217 218.8 185.727 219.095 187.056 219.095C188.089 219.095 189.27 219.095 190.304 219.095H191.928H192.814H193.404C194.881 219.095 196.209 219.242 197.686 219.39C200.343 219.685 202.853 220.128 205.363 221.014C205.806 221.162 205.363 221.014 205.215 221.014L205.658 221.162L206.692 221.605C207.282 221.752 207.725 222.048 208.168 222.491C209.054 223.081 209.792 223.819 210.383 224.705C212.154 227.658 211.268 231.054 210.53 234.154C209.349 238.878 207.873 243.307 206.249 247.884C201.82 260.581 196.947 272.983 191.928 285.384C187.351 296.752 182.627 308.121 177.755 319.489C176.426 322.737 174.949 325.837 173.621 329.085C173.325 329.676 173.03 330.266 172.882 330.857C172.735 331.743 172.735 332.628 172.882 333.514C172.882 339.42 172.882 345.916 171.111 351.526C170.816 352.707 170.373 353.741 169.634 354.627C169.487 354.774 169.339 354.922 169.044 355.217C169.044 355.217 168.601 355.512 168.896 355.365C168.601 355.512 168.158 355.66 167.863 355.66C167.715 355.66 167.272 355.66 167.125 355.808C166.977 355.955 170.373 356.693 170.373 356.693C170.373 356.398 169.93 355.365 169.93 354.922C169.93 354.036 169.93 353.15 169.93 352.117C169.93 350.64 169.93 348.573 168.749 347.392C167.272 345.916 163.138 344.882 161.367 346.506C160.038 347.688 159.743 350.493 159.743 352.117C159.743 356.546 162.695 360.975 161.367 365.404C161.071 366.438 160.481 367.471 159.595 368.062C159.447 368.209 158.857 368.505 158.857 368.652C158.562 368.947 161.367 368.8 161.367 368.947C161.514 368.8 161.81 369.686 161.219 368.8C161.219 368.8 161.219 368.8 161.071 368.652C160.924 368.505 160.481 368.062 160.333 367.766C159.743 366.88 159.152 365.995 158.857 365.109C156.347 360.237 155.166 354.774 155.166 349.312C155.166 341.191 158.562 333.071 162.695 326.28C164.172 323.918 163.877 320.817 164.172 318.16C164.762 313.878 165.353 309.597 166.239 305.315C169.339 287.451 173.916 270.03 178.788 252.609C181.888 241.536 185.284 230.611 188.827 219.538C188.975 218.947 189.123 218.504 189.418 217.914C189.713 216.733 182.627 214.961 181.888 217.176Z" fill="#262626"/>
<path d="M240.501 503.741C240.501 503.741 239.32 531.202 240.058 531.202C240.796 531.202 251.722 530.906 251.722 530.906V519.981L257.037 532.087L293.503 529.873C293.503 529.873 294.684 525.887 286.416 521.458C278.149 517.028 265.009 510.828 265.009 510.828L264.714 494.587L240.501 503.741Z" fill="#262626"/>
<path d="M239.765 503.298C239.469 508.908 239.322 514.666 239.174 520.276C239.026 523.229 239.026 526.33 239.026 529.43C239.174 531.497 239.912 531.792 241.979 531.792L252.314 531.497C252.461 531.497 252.609 531.349 252.609 531.349V520.424L250.985 519.686L256.3 531.792C256.595 532.383 257.038 532.678 257.629 532.678L289.519 530.759L294.095 530.463C294.243 530.463 294.391 530.316 294.391 530.316C294.538 528.839 294.095 527.363 293.062 526.182C290.552 522.934 286.566 521.015 283.022 519.243C277.117 516.143 271.064 513.337 265.158 510.532L265.896 511.418L265.601 495.178C265.454 494.587 264.863 494.145 264.125 494.145L239.765 503.446C239.174 503.593 240.503 504.922 241.093 504.627L265.454 495.326L263.977 494.292L264.272 510.532C264.272 510.975 264.715 511.271 265.011 511.418C270.178 513.928 275.493 516.438 280.513 518.948C284.204 520.867 288.928 522.639 291.585 526.034C292.176 526.773 292.619 527.806 292.767 528.839C292.767 528.987 292.767 529.135 292.767 529.43C292.767 529.725 292.767 529.43 292.914 529.43C291.881 529.578 290.995 529.725 289.961 529.578L283.465 530.021L266.93 531.054L256.3 531.645L257.629 532.53L252.314 520.424C252.166 520.129 250.69 518.948 250.69 519.686C250.69 523.082 250.394 526.625 250.69 530.021C250.69 530.168 250.69 530.464 250.69 530.611C250.69 530.759 251.133 530.316 250.837 530.463C250.099 530.611 249.361 530.611 248.623 530.463L241.831 530.611C241.093 530.464 240.355 530.464 239.617 530.611C239.026 530.906 240.503 531.497 240.503 531.349C240.503 531.202 240.503 530.906 240.503 530.759C240.503 529.282 240.503 527.806 240.503 526.477C240.503 522.048 240.65 517.619 240.798 513.19C240.946 510.237 240.946 507.137 241.093 504.184C241.389 503.593 239.765 502.855 239.765 503.298Z" fill="#262626"/>
<path d="M215.108 503.151C215.108 503.151 216.437 531.792 215.698 531.792C214.96 531.792 202.706 531.349 202.706 531.349V519.834L196.801 532.383L156.053 530.021C156.053 530.021 154.724 525.887 163.877 521.31C173.031 516.733 187.795 510.237 187.795 510.237L188.09 493.259L215.108 503.151Z" fill="#262626"/>
<path d="M214.222 502.855C214.517 508.318 214.665 513.928 214.813 519.391C214.96 522.639 214.96 525.887 214.96 529.135C214.96 529.578 215.108 530.907 214.813 531.349C214.517 531.792 212.746 531.349 212.155 531.349L201.82 531.054L203.444 531.792V520.277C203.444 519.981 201.82 519.391 201.673 519.686L196.505 530.464C196.21 531.054 196.062 531.645 195.767 532.088C195.767 532.235 196.21 532.088 195.62 532.088C194.438 532.088 193.405 531.94 192.224 531.94L163.877 530.316L155.314 529.873L156.791 530.464C156.348 528.987 157.677 527.068 158.562 526.034C161.663 522.639 166.387 520.867 170.521 518.948C176.427 516.143 182.48 513.338 188.533 510.828L188.828 493.849L187.942 493.702L214.96 503.446C215.994 503.741 216.141 503.446 215.108 503.003L187.942 493.259C187.942 493.259 187.057 492.964 187.057 493.111L186.909 501.674L186.761 507.58C186.909 508.466 186.909 509.351 186.761 510.237C186.318 510.828 184.547 511.271 183.956 511.566L177.017 514.666C171.407 517.176 165.501 519.538 160.334 522.786C158.267 524.115 154.133 527.068 155.019 530.168C155.167 530.464 156.2 530.759 156.495 530.759L192.224 532.826L197.244 533.121H197.539L203.444 520.572L201.673 519.834V531.349C201.673 531.792 203.001 532.088 203.297 532.088L212.45 532.383H214.96C215.255 532.383 215.994 532.531 216.289 532.383C216.584 532.235 216.584 531.645 216.732 531.202C216.879 524.263 216.732 517.471 216.289 510.532C216.141 508.318 216.141 505.956 215.994 503.741C215.846 503.003 214.222 502.708 214.222 502.855Z" fill="#262626"/>
<path d="M188.089 285.827C188.089 285.827 169.486 496.507 176.72 502.265C183.955 508.022 224.85 499.017 224.85 499.017L229.722 452.511L232.232 503.003C232.232 503.003 263.975 511.123 275.49 507.137C275.49 507.137 280.953 310.778 280.953 279.774C280.953 248.77 188.089 285.827 188.089 285.827Z" fill="#262626"/>
<path d="M184.399 285.384C184.104 288.042 183.957 290.847 183.661 293.505C183.071 300.739 182.48 307.825 181.89 315.06C181.004 325.394 180.266 335.729 179.38 346.064C178.346 358.17 177.46 370.276 176.575 382.383C175.689 394.784 174.803 407.334 174.065 419.735C173.327 431.251 172.736 442.914 172.145 454.43C171.703 463.584 171.407 472.885 171.26 482.038C170.964 487.796 171.26 493.702 171.998 499.46C172.145 501.084 172.736 502.56 173.769 503.741C177.313 507.137 184.252 506.842 188.829 506.694C200.64 506.399 212.451 504.184 223.966 501.822L226.329 501.379C227.362 501.084 228.248 500.345 228.396 499.164L232.677 458.564L233.268 452.806L225.886 452.068L228.1 496.507L228.396 502.708C228.396 504.184 229.429 505.365 230.758 505.66C241.978 508.613 253.789 510.975 265.453 511.123C269.291 511.418 273.13 510.975 276.968 509.794C277.854 509.499 279.035 508.761 279.035 507.58C279.183 503.594 279.331 499.755 279.331 495.769C279.626 485.582 279.921 475.395 280.216 465.208C280.659 451.034 280.955 437.009 281.398 422.836C281.841 407.186 282.283 391.536 282.579 375.739C283.022 360.827 283.317 345.916 283.612 331.152C283.907 319.489 284.055 307.678 284.35 296.014C284.35 292.028 284.498 288.042 284.498 284.203C284.498 280.365 284.793 276.674 282.874 273.278C280.659 269.144 276.083 266.93 271.653 265.896C265.896 264.715 259.99 264.42 254.085 265.158C240.502 266.339 227.067 269.883 214.075 273.869C205.216 276.526 196.358 279.627 187.647 282.875L186.319 283.465C181.89 285.237 185.876 289.961 189.567 288.633C195.62 286.27 201.968 284.056 208.169 281.989C214.37 279.922 220.275 278.15 226.476 276.379C229.872 275.493 233.12 274.607 236.516 273.869C239.911 273.131 242.274 272.54 245.817 271.949C248.917 271.359 252.018 270.916 255.266 270.621C256.742 270.473 258.218 270.325 259.842 270.325C260.581 270.325 261.171 270.325 261.909 270.325C262.648 270.325 261.171 270.325 262.205 270.325H263.386C264.715 270.325 265.896 270.473 267.224 270.621C267.815 270.768 268.405 270.768 268.996 270.916C269.587 271.064 268.996 270.916 269.144 270.916C269.439 270.916 269.734 271.064 270.029 271.064C270.325 271.064 271.063 271.359 271.506 271.507C271.949 271.654 273.278 272.245 272.392 271.802C272.835 271.949 273.278 272.245 273.72 272.392C274.163 272.54 275.197 273.426 274.459 272.835C274.754 273.131 275.197 273.426 275.492 273.721C275.787 274.016 275.787 274.016 275.935 274.164C276.378 274.607 275.64 273.721 275.935 274.312C276.23 274.902 276.378 275.05 276.673 275.345C276.968 275.64 276.821 275.788 276.968 275.936C277.116 276.083 276.821 275.345 276.968 276.083C277.116 276.526 277.264 276.969 277.264 277.412C277.264 277.855 277.559 279.184 277.411 278.593C277.411 279.331 277.411 280.07 277.411 280.808C277.411 284.203 277.411 287.599 277.264 290.995C277.116 301.772 276.821 312.698 276.673 323.475C276.378 337.648 276.083 351.969 275.64 366.142C275.197 381.644 274.902 397.146 274.459 412.648C274.163 427.117 273.72 441.586 273.278 456.054C272.982 467.127 272.687 478.347 272.392 489.42C272.244 494.883 271.801 500.493 271.949 506.103C271.949 506.399 271.949 506.546 271.949 506.842L274.163 504.479C273.573 504.627 273.13 504.775 272.539 504.922C271.949 505.07 272.835 504.922 272.244 504.922C271.801 504.922 271.358 505.07 270.915 505.07C269.439 505.217 267.815 505.365 266.339 505.365H264.567C263.681 505.365 262.795 505.218 261.909 505.218C259.99 505.07 258.218 504.922 256.299 504.627C252.756 504.184 249.213 503.593 245.669 503.003C244.193 502.708 242.569 502.412 241.092 502.117L240.65 501.969L239.764 501.822L237.992 501.379C236.663 501.084 235.335 500.788 234.006 500.493L236.368 503.446L234.301 459.007L234.006 452.806C233.858 449.263 227.067 448.229 226.624 452.068L222.342 492.668L221.752 498.426L223.819 496.212L221.457 496.802L220.866 496.95L219.39 497.245L215.699 497.983C209.498 499.164 203.297 500.05 197.096 500.788C193.996 501.084 190.896 501.379 187.647 501.379H186.614C187.5 501.379 186.319 501.379 186.319 501.379C185.728 501.379 184.99 501.379 184.399 501.231C183.809 501.084 183.218 501.084 182.628 501.084L181.89 500.936C181.594 500.936 180.561 500.641 181.594 500.936L180.266 500.641C179.97 500.641 179.38 500.198 180.413 500.641C180.266 500.641 179.97 500.493 179.97 500.345C179.38 499.607 180.708 501.231 180.266 500.788C179.823 500.345 180.413 501.527 180.266 500.788C180.266 500.493 180.118 500.198 179.97 499.903C179.823 499.164 179.675 498.279 179.527 497.54C179.527 497.097 179.38 496.507 179.38 496.064C179.38 495.621 179.38 495.473 179.38 495.178C179.527 496.212 179.38 495.03 179.38 494.735C179.232 491.635 179.232 488.682 179.232 485.582C179.232 477.019 179.527 468.308 179.823 459.745C180.856 436.271 182.332 412.944 183.957 389.469C185.581 366.881 187.352 344.144 189.124 321.556C190.01 309.892 191.486 298.229 192.077 286.418C192.077 286.27 192.077 286.123 192.077 285.975C192.077 282.432 184.695 281.694 184.399 285.384Z" fill="#262626"/>
<path d="M227.952 350.788L227.509 365.699L226.476 401.723L225.147 445.129L223.966 482.629L223.523 495.03C223.523 496.95 223.228 499.017 223.375 500.936C223.375 501.084 223.375 501.084 223.375 501.231C223.228 504.479 230.167 502.117 230.314 499.164L230.757 484.105L231.938 448.229L233.267 404.824L234.448 367.324L234.891 354.922C234.891 353.003 235.186 350.936 235.039 349.016C235.039 348.869 235.039 348.869 235.039 348.721C234.891 345.325 227.952 347.688 227.952 350.788Z" fill="white"/>
<path d="M313.289 229.577C305.021 169.931 270.769 166.388 263.239 166.388C260.434 165.207 257.334 164.321 254.233 164.026C246.704 163.288 239.174 165.207 232.973 169.784C232.973 168.898 232.973 168.455 232.973 168.455C232.973 168.455 205.07 167.717 179.381 221.309C185.434 224.557 191.782 227.363 198.279 229.725C192.521 248.18 188.239 266.93 185.286 285.975C201.822 307.53 291.438 305.906 294.834 296.752C296.458 292.323 298.968 262.648 295.424 232.382C301.33 231.792 307.383 230.758 313.289 229.577Z" fill="white"/>
<path d="M316.684 228.249C314.026 209.203 307.973 188.829 293.209 175.689C285.975 169.193 276.822 165.207 267.078 164.469C266.487 164.469 265.896 164.321 265.306 164.321C263.387 163.878 261.615 162.993 259.548 162.697C257.481 162.254 255.414 162.107 253.347 162.107C245.227 162.107 237.255 164.617 230.611 169.341L236.369 169.193C236.369 168.75 236.369 168.307 236.369 167.865C236.369 166.979 235.778 166.831 234.892 166.683C230.02 166.536 225.001 168.455 220.719 170.374C209.794 175.246 200.936 183.809 193.554 193.111C186.615 202.117 180.709 211.713 175.985 221.9C175.837 222.195 175.542 222.934 175.985 223.229C182.186 226.624 188.682 229.577 195.325 231.939L194.587 230.906C190.601 243.751 187.353 256.743 184.843 270.03C183.957 274.164 183.219 278.298 182.629 282.579C182.481 283.76 182.333 284.794 182.038 285.975C181.89 286.418 181.89 287.008 181.89 287.451C182.186 288.337 183.662 289.518 184.4 290.256C185.286 291.142 186.32 291.881 187.501 292.619C190.01 294.243 192.816 295.571 195.621 296.753C202.412 299.41 209.351 301.329 216.585 302.51C232.678 305.168 249.066 306.054 265.454 305.316C271.95 305.02 278.446 304.43 284.794 303.249C288.928 302.363 294.095 301.329 297.343 298.229C298.524 296.753 299.115 295.129 299.263 293.209C299.853 289.371 300.148 285.532 300.444 281.546C301.182 268.701 301.182 255.709 300.296 242.865C300.001 239.026 299.706 235.335 299.263 231.644L294.538 234.745C300.887 234.154 307.087 233.121 313.141 231.792C314.322 231.497 316.832 230.611 316.979 229.134C317.127 227.658 314.617 228.101 313.879 228.249C308.269 229.43 302.658 230.463 296.9 230.906C295.424 231.054 291.881 232.087 292.176 234.154C294.538 253.347 294.686 272.688 292.619 291.881C292.471 293.8 292.028 295.719 291.733 297.638C291.733 297.786 291.733 297.934 291.585 298.081C291.438 298.524 291.733 297.934 291.733 297.934C291.733 298.081 291.585 298.081 291.585 298.081C291.29 298.229 291.733 298.377 291.733 297.934C291.733 298.081 291.438 298.229 291.29 298.377C291.733 297.786 291.733 298.081 291.143 298.377C291.438 298.229 292.324 297.638 291.143 298.377C290.109 298.819 291.881 298.081 290.995 298.377L290.257 298.672L289.814 298.819C288.928 299.115 290.552 298.672 289.814 298.819C289.076 298.967 288.337 299.262 287.599 299.41L286.27 299.705C285.975 299.705 284.351 300.001 285.237 299.853C274.902 301.477 264.272 302.068 253.79 301.625C241.389 301.477 228.987 300.296 216.881 297.786C210.975 296.605 205.217 294.833 199.755 292.619C195.473 290.995 191.635 288.337 188.682 284.794L188.977 285.532C191.635 266.487 196.064 247.589 201.822 229.282C201.969 228.691 201.526 228.396 201.083 228.249C194.735 226.034 188.534 223.229 182.629 219.981V221.31C189.715 206.546 198.574 191.93 210.975 181.152C212.894 179.38 214.961 177.904 217.028 176.428L218.357 175.542C218.505 175.394 219.981 174.508 219.243 174.951C220.129 174.361 221.014 173.918 222.048 173.475L223.229 172.884L223.82 172.589C224.558 172.294 222.934 172.884 223.672 172.589C224.41 172.294 225.148 171.998 226.034 171.703C226.329 171.556 226.772 171.556 227.068 171.408C226.182 171.703 227.363 171.26 227.068 171.408C227.658 171.26 228.249 171.113 228.839 170.965C229.135 170.965 229.43 170.817 229.725 170.817C230.02 170.817 228.692 170.965 229.577 170.817L230.759 170.67C231.349 170.522 231.792 170.817 230.759 170.67H231.054L229.577 169.489C229.577 169.932 229.577 170.374 229.577 170.817C229.725 173.18 234.302 171.26 235.335 170.67C240.207 167.274 246.113 165.65 251.871 166.241C255.709 166.683 259.105 168.455 262.796 168.603C263.534 168.603 264.125 168.75 264.863 168.75C265.158 168.75 265.454 168.898 265.749 168.898L266.782 169.046C268.702 169.341 270.621 169.931 272.54 170.522C284.499 174.656 293.652 184.4 299.41 195.473C305.168 206.546 308.121 218.652 309.893 230.906C310.04 232.678 316.979 230.758 316.684 228.249Z" fill="#262626"/>
<path d="M309.892 229.577C309.892 229.577 311.22 293.357 302.805 333.072C302.805 333.072 307.677 349.312 302.953 360.68C298.228 372.048 289.665 380.611 286.27 374.263C282.874 367.914 290.551 363.19 291.142 357.284C291.732 351.379 289.665 352.707 288.484 356.546C287.303 360.385 287.008 363.78 281.988 360.237C276.968 356.694 284.793 334.696 284.793 334.696C284.793 334.696 274.163 249.066 278.74 237.255L309.892 229.577Z" fill="white"/>
<path d="M306.35 230.611C306.793 251.132 306.202 271.802 304.726 292.176C304.135 300.001 303.397 307.825 302.364 315.65C301.773 319.489 301.33 323.327 300.592 327.166C300.297 328.79 300.001 330.266 299.706 331.89C299.411 332.776 299.263 333.662 299.411 334.548C299.854 336.762 300.444 338.977 300.887 341.339C301.478 345.03 301.625 348.869 301.478 352.707C301.182 356.841 300.001 360.975 298.082 364.666C296.458 368.357 294.096 371.605 290.995 374.263C290.553 374.558 290.257 374.853 289.814 375.148C289.814 375.148 291.734 374.41 291.734 374.853C291.734 375.001 290.553 374.115 290.553 374.115C290.11 373.524 289.667 372.786 289.519 372.048C288.486 368.652 290.7 365.552 292.324 362.894C293.21 361.566 293.948 360.089 294.539 358.465C295.129 356.694 295.277 354.922 294.834 353.15C293.801 349.902 287.747 352.56 286.419 354.479C285.533 355.808 284.942 357.284 284.647 358.761C284.499 359.499 284.204 360.089 284.056 360.68C283.909 360.975 283.761 361.123 283.761 361.418C282.58 362.747 283.909 362.304 287.895 360.385C287.6 360.385 287.304 360.237 287.157 360.089C284.942 359.056 284.352 357.432 284.204 355.07C283.909 349.755 285.533 344.292 287.009 339.272C287.6 337.501 288.633 335.434 288.486 333.514C288.338 331.595 288.043 329.381 287.747 327.461C286.714 318.308 285.68 309.154 284.795 299.853C283.614 288.485 282.58 276.969 281.99 265.601C281.547 257.186 280.661 248.327 281.842 239.912C281.99 238.878 282.137 237.845 282.58 236.812L279.48 238.583L306.793 231.792L310.631 230.906C311.37 230.758 314.175 229.873 313.879 228.691C313.584 227.51 310.631 228.249 310.041 228.396C299.706 230.906 289.371 233.268 279.184 236.073C277.856 236.369 276.232 236.959 275.641 238.14C275.346 238.878 275.198 239.469 275.198 240.207C274.903 242.274 274.755 244.489 274.608 246.556C274.46 252.904 274.755 259.253 275.051 265.601C275.936 281.103 277.413 296.753 279.037 312.107C279.627 317.865 280.218 323.475 280.956 329.233L281.547 334.105C281.547 334.548 281.694 334.843 281.694 335.286C281.694 335.729 281.842 335.138 281.694 335.286C280.07 341.192 278.003 347.097 277.413 353.298C277.117 355.808 276.822 359.351 279.037 361.27C282.875 364.666 290.11 363.337 291.734 358.318C292.029 357.284 292.324 356.251 292.619 355.365C292.767 354.774 293.062 354.331 293.21 353.888C293.801 352.707 294.686 353.446 291.291 354.331L288.633 354.627C286.862 354.627 288.19 354.036 288.043 354.774C288.043 355.07 288.043 355.512 288.19 355.808C288.19 356.694 288.19 357.579 288.043 358.465C287.6 360.089 286.862 361.713 285.976 363.19C284.352 365.995 282.285 368.8 282.432 372.196C282.875 380.611 293.062 377.806 297.344 374.263C303.397 368.948 307.531 361.566 308.712 353.593C309.598 346.949 309.007 340.158 307.383 333.662C307.236 333.072 307.088 332.481 306.94 331.89C307.088 330.562 307.383 329.233 307.679 328.052C308.417 324.509 309.007 320.818 309.45 317.274C310.484 309.745 311.37 302.068 311.96 294.39C313.141 279.922 313.732 265.453 314.027 250.985C314.175 243.455 314.175 235.926 314.027 228.396C313.289 227.215 306.202 228.396 306.35 230.611Z" fill="#262626"/>
<path d="M218.8 135.384C218.8 135.384 207.58 104.38 233.712 92.5691C259.844 80.7581 294.096 100.985 296.163 135.384C298.23 169.784 256.3 174.361 256.3 174.361L218.8 135.384Z" fill="#262626"/>
<path d="M222.195 134.351C222.343 134.941 222.343 135.089 222.195 134.351C222.048 133.613 221.9 133.17 221.605 132.579C221.014 130.512 220.719 128.445 220.424 126.378C219.538 120.62 220.128 114.567 222.048 108.957C224.853 102.018 230.611 96.7031 237.697 94.1932C244.636 91.6834 252.314 91.2405 259.548 93.3074C266.782 95.3743 273.426 99.0653 278.741 104.38C284.794 110.286 288.928 117.815 291.142 125.935C293.062 133.465 293.505 141.88 290.404 149.115C289.223 151.92 287.599 154.577 285.532 156.939C283.613 159.154 281.398 161.073 279.036 162.697C276.674 164.321 274.016 165.65 271.506 166.831C271.359 166.979 271.211 166.979 271.064 166.979L270.178 167.274L268.111 168.012C266.93 168.455 265.896 168.75 264.715 169.193C262.796 169.784 260.877 170.227 258.81 170.67L257.628 170.965C256.743 171.113 258.367 170.817 257.481 170.965C257.038 170.965 256.595 171.113 256.152 171.113H255.709L259.105 172.441L226.329 138.485L221.605 133.613C220.276 132.284 218.209 131.989 216.437 132.874C215.109 133.613 214.666 135.237 215.404 136.418C215.552 136.565 215.699 136.861 215.847 137.008L246.851 169.341L252.609 175.247C253.79 176.723 255.709 177.461 257.481 177.166C263.682 176.28 269.735 174.508 275.493 171.998C283.908 168.308 291.733 162.402 296.014 154.134C301.772 143.209 300.444 129.774 296.014 118.554C287.008 95.6696 260.286 80.3153 236.221 88.1401C224.705 91.831 215.847 100.394 213.485 112.353C212.156 119.735 212.599 127.264 214.813 134.498C214.961 135.089 215.256 135.827 215.404 136.418C216.585 139.961 223.672 138.485 222.195 134.351Z" fill="#262626"/>
<path d="M219.684 163.435C209.94 151.477 218.651 108.662 218.651 108.662C225.59 97.7365 261.909 104.38 261.909 104.38C256.889 115.453 258.661 133.465 258.661 133.465C262.942 123.573 274.458 127.855 273.867 137.451C273.277 147.048 262.056 150 262.056 150C262.056 150 265.304 170.522 264.419 174.213C263.533 177.904 245.521 183.662 236.072 172.737C235.924 172.884 228.247 173.918 219.684 163.435Z" fill="white"/>
<path d="M222.784 161.664C222.637 161.516 222.194 160.778 222.489 161.221C222.341 160.926 222.046 160.63 221.899 160.335C221.603 159.597 221.16 158.859 221.013 158.268C220.422 156.792 219.979 155.168 219.832 153.544C219.093 149.557 218.946 145.424 218.946 141.29C219.093 133.317 219.684 125.197 221.013 117.372C221.308 115.01 221.751 112.796 222.194 110.433C222.194 110.138 222.341 109.695 222.341 109.252C222.194 109.843 222.489 109.548 222.194 109.843C222.489 109.548 222.637 109.4 222.932 109.105C223.08 108.957 223.818 108.366 223.227 108.809L224.113 108.219C224.408 108.071 224.851 107.923 225.147 107.628C224.408 107.923 225.442 107.481 225.737 107.481C226.475 107.185 227.361 106.89 228.247 106.742C228.395 106.742 229.576 106.447 228.985 106.595L230.166 106.299C231.2 106.152 232.233 106.004 233.267 105.857C237.105 105.414 240.944 105.414 244.782 105.709C250.393 106.004 256.003 106.595 261.613 107.628L258.956 103.642C254.822 112.943 254.379 124.164 255.265 134.203C255.56 137.303 261.023 137.451 262.204 134.941C262.499 134.055 263.09 133.17 263.68 132.431C263.975 132.136 264.271 131.841 264.566 131.546C264.123 131.841 265.599 130.955 264.861 131.25C265.156 131.103 265.452 130.955 265.895 130.955C264.861 131.103 266.781 130.955 266.042 130.955C265.304 130.955 267.223 131.103 266.338 130.955C266.633 131.103 266.928 131.103 267.223 131.25C266.78 131.103 267.666 131.546 267.814 131.546C268.109 131.693 268.257 131.841 268.405 131.988C268.847 132.431 269.29 133.022 269.586 133.613C270.324 135.089 270.619 136.861 270.176 138.485C269.586 141.437 267.666 144.095 265.009 145.571C264.418 145.866 263.975 146.162 263.385 146.457C262.794 146.752 263.975 146.309 262.942 146.605L262.351 146.9C261.908 147.048 261.318 147.195 260.875 147.343C259.399 147.638 258.513 148.967 258.513 150.443C259.103 153.987 259.546 157.382 259.989 160.926C260.284 163.583 260.58 166.388 260.875 169.046C261.023 170.079 261.023 171.26 261.023 172.294C261.023 172.737 261.023 173.179 261.023 173.475C261.023 173.032 260.875 173.475 261.023 173.77C261.023 173.622 261.17 173.622 261.17 173.475C261.023 173.622 260.875 173.77 260.875 173.77C260.284 174.213 261.318 173.475 261.023 173.77C260.727 174.065 260.284 174.213 259.841 174.361L259.251 174.656C259.989 174.361 259.103 174.656 258.956 174.804C256.741 175.689 254.231 176.132 251.869 176.132C249.212 176.132 246.554 175.689 244.192 174.508C242.863 173.918 241.682 173.032 240.649 172.146C239.172 170.67 238.286 169.784 236.072 169.784C235.334 169.784 236.072 169.784 236.367 169.784C236.072 169.636 235.629 169.784 235.334 169.636L234.595 169.489C233.857 169.341 235.334 169.636 234.448 169.489C233.562 169.341 233.119 169.193 232.528 168.898C228.542 167.569 225.442 164.912 222.784 161.664C220.57 158.859 214.074 161.959 216.879 165.355C221.456 170.817 228.838 176.723 236.367 175.837L233.119 174.804C240.501 182.924 253.493 184.252 263.09 179.676C264.714 178.937 266.19 177.904 267.371 176.428C268.109 175.099 268.405 173.622 268.257 172.146C268.109 167.865 267.814 163.731 267.076 159.597C266.633 156.349 266.19 153.101 265.747 149.853L263.385 152.953C268.552 151.624 274.015 147.933 276.229 143.061C279.625 135.679 275.934 125.788 267.076 125.197C262.056 125.049 257.479 128.002 255.56 132.579L262.499 133.317C262.204 130.069 262.204 126.674 262.204 123.425C262.351 117.52 262.942 111.172 265.452 105.857C266.485 103.642 264.861 102.313 262.794 101.87C257.775 100.985 252.755 100.394 247.735 100.099C239.467 99.5081 230.166 99.2129 222.341 102.609C219.684 103.79 215.993 105.857 215.107 108.809C214.664 110.581 214.369 112.353 214.074 114.272C212.745 122.392 211.859 130.66 211.564 138.927C211.269 147.49 211.121 158.416 216.731 165.502C219.093 168.16 225.442 165.059 222.784 161.664Z" fill="#262626"/>
<path d="M230.758 144.39C230.758 144.39 207.874 146.752 204.331 134.794C200.788 122.835 217.323 117.815 229.725 128.297" fill="white"/>
<path d="M229.577 141.142C223.672 141.88 217.619 141.29 211.861 139.371C210.975 139.075 210.089 138.632 209.351 138.189C208.465 137.747 207.727 137.304 207.136 136.713L206.693 136.27C206.398 135.975 207.136 136.861 206.693 136.27C206.546 136.123 206.398 135.975 206.25 135.68C206.398 135.827 206.841 136.418 206.25 135.68C206.398 135.975 206.841 136.565 206.25 135.68C206.398 135.827 206.693 136.565 206.25 135.68C205.955 134.941 206.398 136.418 206.25 135.384C206.25 135.237 206.103 134.941 206.103 134.794C206.103 135.089 206.103 135.089 206.103 134.646C205.955 133.76 206.103 132.874 206.25 132.136C206.546 131.25 206.989 130.365 207.579 129.626C208.908 128.15 210.68 126.969 212.746 126.526C218.8 124.902 225.443 127.264 230.168 131.103C231.201 131.989 232.087 131.693 231.939 130.217C231.792 128.445 230.906 126.821 229.577 125.493C224.558 121.359 218.209 118.554 211.565 119.439C206.693 120.03 202.264 123.278 201.969 128.445C201.821 134.646 204.922 140.552 210.089 144.095C214.223 146.457 218.652 147.638 223.376 147.934C226.329 148.229 229.282 148.229 232.235 147.934C233.563 147.786 232.825 145.719 232.53 144.833C232.235 143.947 230.906 140.995 229.725 141.142H229.577Z" fill="#262626"/>
<path d="M246.26 145.866C246.112 146.752 245.964 147.49 245.669 148.229L245.817 147.786C245.374 148.967 244.783 150.148 243.897 151.034L244.193 150.591C243.455 151.329 242.716 152.067 241.683 152.51L242.126 152.215C241.978 152.363 241.831 152.363 241.683 152.51C241.24 152.658 240.797 153.101 240.649 153.691C240.649 154.282 240.797 154.872 241.24 155.315C241.683 155.906 242.273 156.349 243.012 156.496C243.602 156.644 244.34 156.644 244.931 156.496C246.998 155.611 248.622 154.134 249.655 152.215C250.394 151.034 250.836 149.557 251.132 148.229C251.132 147.933 251.279 147.786 251.279 147.49C251.279 146.162 250.394 144.981 249.065 144.538C248.474 144.39 247.736 144.39 247.146 144.538C246.703 144.685 246.407 145.128 246.26 145.866Z" fill="#262626"/>
<path d="M230.757 121.063C231.79 121.359 232.381 122.392 232.086 123.425C232.086 123.573 232.086 123.573 231.938 123.721C231.052 125.64 228.69 124.607 228.838 122.687C228.838 121.801 229.428 121.063 230.462 121.063C230.462 121.063 230.609 121.063 230.757 121.063Z" fill="#262626"/>
<path d="M244.781 122.244C245.815 122.54 246.405 123.573 246.11 124.606C246.11 124.754 246.11 124.754 245.962 124.902C245.077 126.821 242.714 125.788 242.862 123.868C242.862 122.982 243.453 122.244 244.486 122.244C244.634 122.097 244.634 122.097 244.781 122.244Z" fill="#262626"/>
<path d="M456.942 230.168C456.942 230.168 469.787 288.189 468.901 322.442C468.901 322.442 475.545 334.991 473.478 345.178C471.411 355.365 465.358 363.928 461.519 359.351C457.681 354.774 463.291 349.459 462.848 344.44C462.405 339.42 460.781 340.896 460.486 344.292C460.19 347.688 460.338 350.493 455.614 348.426C450.889 346.359 453.842 326.871 453.842 326.871C453.842 326.871 428.448 247.589 430.515 236.959C432.582 226.329 456.942 230.168 456.942 230.168Z" fill="white"/>
<path d="M454.136 227.953C459.008 249.508 462.552 271.211 464.766 293.061C465.504 300.443 466.095 307.825 466.095 315.355C465.947 316.979 465.947 318.75 466.095 320.374C466.243 320.817 466.095 320.374 466.243 320.522L466.833 321.703C468.162 324.656 469.343 327.904 470.081 331.004C472 339.124 470.672 348.721 465.209 355.365C464.471 356.398 463.437 357.284 462.109 357.875C461.666 358.022 461.223 357.875 460.78 357.875C463.88 357.136 464.471 362.156 463.437 359.351C463.29 358.76 463.142 358.17 463.142 357.579C463.142 353.741 465.947 350.493 465.947 346.654C466.095 345.03 465.504 343.554 464.619 342.225C463.585 341.044 462.404 340.01 461.075 339.124C460.632 338.829 459.599 338.091 459.008 338.386C458.122 338.829 457.975 340.749 457.827 341.487C457.68 342.815 457.827 344.587 457.089 345.621C456.794 346.063 456.203 346.359 455.613 346.211C455.17 346.211 454.874 346.063 454.432 345.916C451.626 345.03 456.498 345.325 457.237 348.426C457.237 348.721 456.941 347.835 456.941 347.54C456.794 346.949 456.646 346.359 456.498 345.916C456.056 343.258 455.908 340.453 456.056 337.648C456.203 335.138 456.351 332.628 456.646 330.266C456.794 329.676 456.794 328.937 456.794 328.347C456.351 326.575 455.76 324.804 455.17 323.032C448.821 302.806 442.621 282.579 437.453 262.057C436.272 257.481 435.239 252.904 434.353 248.179C433.615 245.227 433.319 242.274 433.319 239.321C433.615 234.892 438.339 232.825 442.178 231.939C447.05 231.053 452.069 230.906 456.941 231.496C457.827 231.644 458.861 231.644 459.746 231.792C460.632 231.939 458.418 229.577 458.27 229.429C457.237 228.248 455.908 227.363 454.432 226.92C450.002 226.329 445.573 226.034 441.144 226.477C436.272 226.92 428.447 228.101 427.561 234.154C427.119 237.697 428.152 241.536 428.743 244.931C429.924 250.985 431.4 256.89 433.024 262.796C436.567 276.526 440.701 290.109 444.835 303.691C446.311 308.563 447.935 313.583 449.412 318.455L450.741 322.737C450.888 323.032 451.036 323.475 451.036 323.77C451.036 324.065 451.184 324.065 451.184 323.918C451.036 325.985 450.888 328.199 450.445 330.266C450.15 333.662 450.15 337.058 450.445 340.453C450.888 343.997 452.955 347.097 456.056 349.016C457.532 350.05 460.042 351.526 461.813 350.788C463.29 350.197 463.142 348.13 463.29 346.802C463.29 346.359 463.585 342.668 464.619 342.963L462.404 341.634L462.552 341.782L459.894 339.42C459.451 338.829 459.894 339.863 459.894 340.01C460.042 340.306 460.042 340.748 460.042 341.044C460.189 341.93 460.189 342.963 459.894 343.849C459.451 345.473 459.008 347.097 458.27 348.573C457.237 351.526 456.794 354.331 458.861 356.989C460.189 358.613 461.666 360.089 463.437 361.123C464.471 362.008 465.652 362.304 466.981 362.304C469.343 362.008 471.115 359.646 472.148 357.727C475.839 351.526 477.315 344.144 475.987 337.058C475.396 333.957 474.51 331.004 473.329 328.052C472.886 327.166 472.591 326.132 472.148 325.247C471.853 324.804 471.558 324.213 471.41 323.623C471.41 323.623 471.558 322.737 471.558 322.441C471.558 321.851 471.558 321.113 471.558 320.522C471.558 319.046 471.558 317.569 471.558 315.945C471.41 312.697 471.262 309.597 471.115 306.349C470.672 299.705 469.934 293.209 469.048 286.713C467.571 274.607 465.504 262.648 463.29 250.689C462.109 244.341 460.928 238.14 459.451 231.792C459.156 230.463 457.237 229.282 456.203 228.544C456.351 228.839 453.841 227.215 454.136 227.953Z" fill="#262626"/>
<path d="M422.098 509.647L431.104 510.237C431.104 510.237 456.35 521.605 453.84 526.33C451.33 531.054 431.399 529.282 413.83 527.658C392.718 525.739 395.376 521.015 402.167 509.204L422.098 509.647Z" fill="#262626"/>
<path d="M419.146 510.828C421.951 510.975 424.756 511.271 427.561 511.418C428.004 511.418 428.299 511.566 427.856 511.418L428.447 511.713C429.333 512.156 430.219 512.599 431.252 513.042C434.353 514.519 437.305 516.143 440.406 517.767C443.506 519.391 446.311 521.31 448.821 523.672C449.559 524.41 450.297 525.296 450.593 526.182C450.74 526.477 450.74 526.772 450.593 527.068C450.593 527.215 449.559 528.249 449.559 528.101C449.855 527.954 450.15 527.806 450.445 527.806C449.855 527.954 450.593 527.806 450.15 527.806C449.707 527.806 448.23 527.954 447.345 528.101C444.687 528.249 442.03 528.249 439.372 528.101C433.024 527.954 426.528 527.363 420.179 526.773C415.16 526.33 409.845 526.182 405.12 524.263C402.463 523.229 400.691 521.458 401.134 518.505C401.725 514.961 404.087 511.566 405.858 508.465L399.362 510.237L419.146 510.828C420.917 510.828 422.542 510.532 424.166 509.794C424.608 509.646 426.675 508.613 425.199 508.465L405.268 508.022C404.087 508.022 402.758 508.17 401.577 508.613C400.839 508.761 399.215 509.204 398.772 509.942C396.41 514.223 390.504 522.196 396.705 525.739C400.839 528.101 406.449 528.397 411.026 528.839C418.112 529.43 425.199 530.168 432.286 530.463C437.896 530.906 443.654 530.611 449.116 529.578C451.331 529.135 458.27 527.806 457.679 524.41C457.236 521.9 453.693 519.834 451.774 518.505C448.378 516.29 444.835 514.223 441.292 512.452C439.225 511.123 436.862 510.089 434.648 509.204C433.171 508.908 431.695 508.761 430.071 508.908L425.199 508.613C423.427 508.613 421.803 508.908 420.179 509.646C419.736 509.646 417.522 510.68 419.146 510.828Z" fill="#262626"/>
<path d="M430.512 468.456C430.512 468.456 423.573 500.641 423.868 503.298C424.164 505.956 446.014 517.028 443.652 518.21C441.29 519.391 436.122 518.357 420.62 515.552C406.299 512.895 401.28 513.042 401.28 509.942C401.28 506.841 400.984 468.603 400.984 468.603L430.512 468.456Z" fill="white"/>
<path d="M426.97 468.898C424.903 478.2 422.984 487.353 421.36 496.654C421.065 498.574 420.622 500.493 420.474 502.412C420.327 503.593 420.77 504.774 421.655 505.365C425.642 508.908 430.661 511.418 435.09 514.371C436.862 515.404 438.486 516.585 439.963 517.914C440.701 518.505 440.11 518.209 440.848 517.767C441.587 517.324 441.439 517.471 440.996 517.619C442.029 517.324 440.848 517.471 442.029 517.324C441.734 517.324 441.144 517.324 442.325 517.324H441.587C440.848 517.324 442.325 517.324 441.587 517.324H440.996L439.372 517.176C437.896 517.028 436.272 516.733 434.795 516.438C429.775 515.552 424.756 514.519 419.736 513.633C416.045 512.894 412.207 512.452 408.368 511.713C407.482 511.566 406.596 511.27 405.858 510.975C405.415 510.828 405.12 510.385 404.972 509.942C404.825 508.761 404.825 507.579 404.825 506.398C404.825 504.036 404.825 501.674 404.825 499.312C404.677 488.829 404.677 478.495 404.677 468.013L400.248 469.784H429.776C430.809 469.784 433.614 469.637 434.205 468.455C434.795 467.274 431.99 467.127 431.4 467.127H401.872C400.986 467.127 397.295 467.422 397.443 468.898C397.443 478.495 397.59 488.091 397.59 497.835C397.59 501.969 397.443 506.103 397.738 510.237C397.886 511.713 399.067 513.042 400.543 513.337C403.644 514.371 406.744 514.961 409.992 515.257C418.998 516.733 427.856 518.948 436.862 519.833C439.667 520.276 442.325 520.129 444.982 519.391C446.606 518.948 448.378 518.062 446.902 516.438C445.13 514.814 443.358 513.485 441.291 512.452C438.634 510.828 435.976 509.204 433.319 507.432C431.4 506.251 429.628 504.922 428.004 503.446C427.561 503.003 427.561 503.15 427.709 502.412C427.856 501.674 427.856 500.936 428.004 500.198C429.48 489.715 431.99 479.233 434.205 468.898C434.205 468.603 434.352 468.308 434.352 468.013C434.5 466.831 427.413 466.684 426.97 468.898Z" fill="#262626"/>
<path d="M372.639 508.022L363.633 508.613C363.633 508.613 338.387 519.981 340.897 524.706C343.407 529.43 363.338 527.658 380.907 526.034C402.019 524.115 399.362 519.391 392.57 507.58L372.639 508.022Z" fill="#262626"/>
<path d="M370.128 507.432C367.175 507.58 364.223 507.727 361.27 508.023C359.351 508.465 357.579 509.056 356.103 510.089C352.559 511.861 349.164 513.633 345.768 515.552C342.963 517.176 339.715 519.095 337.796 521.753C333.071 528.397 355.069 528.249 357.579 528.249C364.37 528.101 371.309 527.658 378.101 527.068C384.006 526.477 390.059 526.33 395.67 524.558C398.475 523.672 401.427 522.048 401.132 518.653C400.837 514.814 398.179 511.123 396.26 507.875C395.67 506.694 391.831 506.989 390.798 506.989L370.866 507.432C370.276 507.432 368.357 507.284 369.538 508.023C370.719 508.761 373.376 508.613 374.557 508.613L394.489 508.17L389.026 507.284C391.093 510.828 396.851 518.653 391.979 522.196C388.731 524.558 383.859 524.853 380.02 525.296C373.524 526.034 367.028 526.477 360.532 526.92C357.727 527.068 354.774 527.215 351.969 527.215L349.311 527.068C348.721 527.068 348.13 526.92 347.687 526.773C345.62 526.182 343.701 524.853 345.177 522.786C346.801 520.277 349.902 518.505 352.412 516.881C355.512 514.962 358.76 513.19 362.008 511.714C363.337 511.123 364.666 510.385 365.847 509.794C366.29 509.647 366.585 509.499 367.028 509.204C367.766 508.761 366.88 509.351 366.437 509.204C367.028 509.204 367.618 509.204 368.209 509.056L371.162 508.908L375.443 508.613C376.772 508.613 376.624 508.17 375.443 507.875C373.524 507.432 371.752 507.284 370.128 507.432Z" fill="#262626"/>
<path d="M364.075 466.831C364.075 466.831 371.014 499.016 370.719 501.674C370.424 504.331 348.573 515.404 350.935 516.585C353.298 517.766 358.465 516.733 373.967 513.928C388.288 511.27 393.307 511.418 393.307 508.318C393.307 505.217 393.603 466.979 393.603 466.979L364.075 466.831Z" fill="white"/>
<path d="M360.532 466.093C362.599 475.69 364.666 485.434 366.437 495.03C366.733 496.802 366.88 498.574 367.176 500.345C367.176 500.641 367.176 500.936 367.176 500.345C367.028 500.641 367.471 500.05 367.323 500.198C367.176 500.345 367.028 500.493 367.028 500.641C366.437 501.231 365.699 501.822 364.961 502.265C360.237 505.66 355.069 508.318 350.345 511.861C349.016 512.895 346.506 514.371 347.392 516.29C348.426 518.8 351.969 519.391 354.331 519.538C357.136 519.538 359.794 519.243 362.599 518.652C367.471 517.914 372.195 516.881 377.067 515.995C381.349 515.257 385.778 514.666 390.06 513.78C392.126 513.337 394.784 512.895 396.26 511.123C396.998 509.942 397.294 508.465 397.146 506.989C397.146 504.775 397.146 502.56 397.146 500.493C397.294 489.715 397.294 478.938 397.441 468.16V467.57C397.441 465.503 394.489 464.322 392.865 464.322H363.337C361.861 464.322 360.384 465.208 360.975 466.832C361.861 468.456 363.485 469.489 365.404 469.489H394.932L390.355 466.241C390.355 475.395 390.207 484.548 390.207 493.702C390.207 498.131 390.207 502.56 390.06 506.841V507.432C390.06 508.023 390.06 507.432 390.06 507.58C390.06 507.727 390.06 507.875 389.912 508.023C390.355 507.432 390.06 507.875 389.912 507.875C389.321 508.318 389.764 507.875 389.912 507.875C389.764 508.023 389.469 508.17 389.321 508.17L388.731 508.465C389.469 508.17 388.583 508.465 388.583 508.465C387.993 508.613 387.402 508.761 386.811 508.908C385.04 509.204 383.268 509.499 381.496 509.794C372.786 511.271 364.223 513.338 355.512 514.371L354.626 514.519C355.217 514.519 354.626 514.519 354.479 514.519C354.036 514.519 353.593 514.519 353.15 514.519C352.707 514.519 351.526 514.371 352.707 514.519H352.264C351.378 514.371 353.002 514.814 352.559 514.666C352.117 514.519 351.969 514.223 353.002 514.814C356.103 516.586 354.479 516.586 354.626 517.471C354.626 517.619 354.331 517.767 354.774 517.324C355.512 516.733 356.25 516.143 356.841 515.7C361.418 512.599 366.29 509.794 370.867 506.546C372.195 505.66 374.115 504.479 374.558 502.855C374.705 501.379 374.705 499.755 374.262 498.278C372.638 487.944 370.276 477.609 368.061 467.422C367.619 465.798 366.142 464.469 364.371 464.322C363.042 464.174 360.237 464.469 360.532 466.093Z" fill="#262626"/>
<path d="M371.014 284.056C371.014 284.056 356.84 307.087 352.559 350.936C348.277 394.784 358.76 473.032 358.76 473.032C358.76 473.032 431.693 483.81 440.256 475.985C448.819 468.16 479.528 330.857 445.128 289.223L371.014 284.056Z" fill="white"/>
<path d="M367.768 283.908C364.225 289.961 361.42 296.457 359.205 303.248C353.447 320.227 349.904 337.943 348.723 355.955C347.689 371.9 347.837 387.993 348.87 403.938C349.609 419.292 350.937 434.794 352.561 450.148C353.447 458.121 354.185 466.093 355.367 473.918C355.367 474.509 356.252 474.804 356.695 474.951C365.111 476.28 373.674 477.314 382.089 478.2C396.41 479.824 410.878 481.152 425.347 480.857C430.514 480.709 436.272 480.414 441.144 478.2C443.654 477.018 445.426 474.804 446.312 472.294C450.15 463.731 452.217 454.135 454.432 445.129C457.68 430.66 460.337 415.896 462.109 401.132C464.176 384.745 465.209 368.209 465.062 351.821C464.766 337.058 463.585 321.999 459.008 307.825C457.237 301.92 454.579 296.457 451.184 291.29C450.445 290.109 449.412 288.337 448.231 287.894C447.788 287.746 447.197 287.599 446.754 287.599C445.573 287.451 444.392 287.451 443.211 287.304L407.483 284.941L374.707 282.727L372.935 282.579C371.164 282.136 368.654 282.579 367.768 283.908C366.882 285.237 368.359 285.827 369.54 285.975L394.491 287.599L434.5 290.404L443.654 290.995L441.735 290.404C447.345 297.343 450.593 305.758 452.808 314.321C455.317 324.804 456.794 335.434 457.089 346.211C458.123 369.981 455.908 393.751 452.217 417.225C450.593 427.412 448.674 437.451 446.312 447.491C444.688 454.725 442.621 461.959 440.258 468.898C439.52 470.965 438.782 472.885 437.749 474.804C437.601 474.951 438.044 474.361 437.749 474.804C437.601 474.951 437.601 475.099 437.453 475.247C437.306 475.394 437.158 475.69 436.863 475.837C436.863 475.69 437.453 475.394 436.863 475.837C436.272 476.28 437.453 475.394 436.863 475.837C435.682 476.28 436.567 475.985 436.863 475.837L435.829 476.133C434.943 476.428 436.715 475.985 435.682 476.133L434.648 476.28L433.615 476.428C432.581 476.575 433.319 476.428 433.615 476.428L432.876 476.576C430.957 476.723 429.038 476.871 427.119 477.018C424.609 477.166 423.428 477.166 420.918 477.018C418.408 476.871 415.75 476.871 413.241 476.723C395.819 475.837 378.546 473.77 361.272 471.408C360.534 471.261 361.715 471.556 361.567 471.408C361.42 471.261 361.272 471.408 361.272 471.408C361.272 471.408 361.124 471.408 360.977 471.408L362.305 472.442C359.5 451.625 357.581 430.512 356.252 409.548C355.071 393.308 354.776 376.92 355.367 360.68C356.105 342.815 359.205 325.099 364.52 307.973C366.439 301.92 368.654 296.014 371.311 290.256C372.05 288.632 372.788 287.156 373.674 285.68L374.412 284.498C374.117 285.089 374.707 284.056 374.412 284.498C376.036 281.546 368.949 281.989 367.768 283.908Z" fill="#262626"/>
<path d="M375.149 366.438C378.692 366.29 378.545 368.505 377.511 366.585C377.216 366.142 377.068 365.552 377.068 365.109C376.773 364.075 376.773 363.19 377.068 362.156C377.216 361.27 377.807 360.384 378.545 359.794C378.988 359.499 379.283 359.351 379.726 359.203C380.612 358.613 377.216 357.727 377.511 358.317C377.954 358.908 378.25 359.499 378.397 360.237C378.692 361.123 378.84 362.156 378.84 363.042C378.84 363.928 378.988 364.961 378.988 365.995C378.988 366.438 378.988 367.028 378.988 367.471C378.84 367.914 378.397 368.357 378.988 368.357L381.645 368.8L381.35 368.652L384.45 371.162C384.893 368.652 386.517 366.585 388.732 365.404C389.765 364.814 390.946 364.518 392.128 364.223C392.275 364.223 393.456 364.223 393.456 364.075C393.456 363.928 392.57 363.632 392.57 363.632C392.57 363.632 392.866 364.075 393.013 364.223C394.194 366.438 392.275 369.243 390.503 370.424C389.322 371.014 387.994 371.457 386.665 371.753C385.927 371.9 385.041 371.9 384.303 372.048H383.417C381.94 372.195 383.565 371.457 385.041 373.081C383.86 371.9 382.088 371.162 380.464 371.014C379.726 371.014 377.511 371.31 378.545 372.491C380.907 375.001 382.826 378.101 383.86 381.349C384.303 382.678 384.45 384.154 384.007 385.483C383.712 386.073 383.269 386.664 382.679 386.959C382.531 386.959 382.383 387.107 382.236 387.107L382.974 387.255C382.826 387.55 380.759 384.892 380.612 384.597C379.726 383.268 379.135 381.792 378.84 380.168C378.397 378.692 378.397 377.068 378.692 375.591C378.988 374.705 379.578 373.081 380.612 373.081L375.001 370.129C374.411 372.048 373.377 373.672 372.049 375.148C370.868 376.329 368.948 378.249 367.324 378.101L369.982 378.544L371.458 379.282L371.311 378.987C371.163 378.692 371.163 378.396 371.015 378.249C370.868 377.658 370.72 377.068 370.72 376.477C370.72 375.296 371.015 373.967 371.753 372.934C372.344 371.9 373.23 371.162 374.411 370.719C374.854 370.571 375.444 370.424 375.887 370.424C375.149 369.981 376.626 370.276 375.887 370.424C376.626 370.867 379.578 371.9 380.464 370.867C381.35 369.833 379.283 368.652 378.545 368.357C375.001 366.585 370.277 365.995 366.881 368.209C364.076 370.129 362.895 373.82 364.076 377.068C364.814 379.134 366.586 380.611 368.653 381.201C371.015 382.087 373.525 381.792 375.592 380.463C378.692 378.692 381.055 375.739 382.236 372.343C382.531 371.457 381.055 370.571 380.464 370.276C379.283 369.686 377.954 369.243 376.478 369.39C371.606 369.538 371.163 375.001 372.049 378.692C373.082 383.564 376.33 387.55 380.907 389.617C384.893 391.388 391.685 391.684 391.685 385.631C391.685 381.054 388.289 376.477 385.484 373.081L378.988 372.491C382.826 376.625 389.47 376.182 394.49 374.705C398.181 373.672 402.462 369.981 400.543 365.552C398.476 360.532 391.094 359.794 386.517 360.827C382.531 361.713 378.545 364.518 377.954 368.652C377.807 370.129 380.021 370.867 381.055 371.162C382.974 371.9 385.779 372.195 386.517 369.833C386.665 368.8 386.813 367.914 386.665 366.88C386.665 365.847 386.665 364.814 386.517 363.928C386.222 359.646 383.122 356.251 378.84 355.512C374.559 354.627 370.425 356.841 370.572 361.566C370.72 366.438 374.854 370.129 379.726 369.981C379.874 369.981 380.021 369.981 380.316 369.981C381.793 369.981 381.94 368.947 381.055 367.914C378.84 366.88 377.068 366.438 375.149 366.438Z" fill="#262626"/>
<path d="M415.604 426.084C412.06 430.365 409.698 435.532 408.812 440.995C408.222 445.276 408.074 451.477 412.946 453.397C415.604 454.43 418.704 453.692 420.771 451.625C422.986 449.558 423.429 446.753 423.724 443.948C424.314 438.485 424.314 432.727 421.805 427.708L415.308 430.956C418.999 434.647 423.576 437.304 428.596 438.78C431.401 439.814 434.649 438.928 436.716 436.713C438.34 434.794 439.078 432.284 438.783 429.922C438.192 425.05 434.058 421.211 429.039 421.211C423.429 421.064 418.852 424.312 415.013 428.003L420.919 431.103C423.281 426.379 424.462 421.064 424.462 415.749C424.314 411.467 421.657 405.267 416.342 405.709C413.094 406.005 411.913 408.515 410.879 411.172C409.698 413.977 408.96 416.93 408.812 419.883C408.517 424.755 411.47 429.184 415.899 431.103C418.852 432.137 422.543 429.184 420.623 426.084C415.308 417.816 401.873 420.916 400.102 430.365C399.806 431.841 400.545 433.17 401.873 433.761C406.893 435.68 412.356 435.089 416.785 432.137C418.261 431.251 418.852 429.332 417.966 427.855C417.966 427.855 417.966 427.708 417.818 427.708C416.49 426.379 414.423 426.084 412.799 427.265C410.584 428.741 407.631 429.036 405.121 428.003L406.893 431.398C407.041 429.774 408.074 428.298 409.698 427.855C411.47 427.708 413.242 428.593 414.127 430.217L418.852 425.198C416.785 424.312 415.604 422.245 415.604 420.03C415.604 418.406 415.751 416.782 416.342 415.306C416.637 414.42 416.932 413.534 417.228 412.648C417.375 412.206 417.523 411.763 417.671 411.32C417.818 410.877 417.818 411.024 417.375 411.467L415.604 412.206C414.866 412.353 414.866 411.91 415.161 412.353C415.308 412.501 415.456 412.796 415.604 412.944C415.899 413.387 416.047 413.83 416.194 414.272C416.637 415.601 416.637 417.078 416.49 418.406C416.194 421.95 415.308 425.493 413.832 428.741C412.06 432.58 417.08 434.351 419.738 431.841C421.509 430.07 423.576 428.15 426.086 427.708C428.153 427.117 430.22 428.298 430.81 430.365C430.81 430.513 430.81 430.66 430.958 430.66C430.958 430.808 430.81 433.465 430.663 433.318C430.958 433.17 431.253 433.023 431.549 433.023L430.368 432.727C429.629 432.58 429.039 432.284 428.301 431.989C425.495 430.808 422.986 429.184 420.919 427.117C419.738 425.936 417.818 425.641 416.342 426.379C415.013 426.969 413.537 428.741 414.423 430.365C416.047 433.613 416.637 437.304 416.342 440.847C416.342 442.619 416.194 444.538 415.899 446.31C415.899 446.458 415.308 447.786 415.308 447.786C415.604 447.786 415.899 447.786 416.194 447.786C416.342 447.491 415.899 448.82 416.194 447.639C416.194 447.491 415.751 446.605 415.604 446.31C415.456 445.719 415.456 445.129 415.456 444.538C415.456 442.767 415.751 441.143 416.194 439.371C417.08 435.975 418.556 432.727 420.771 429.774C424.019 426.231 418.409 422.835 415.604 426.084Z" fill="#262626"/>
<path d="M426.823 319.046C425.937 324.656 426.085 330.266 426.97 335.729C427.266 338.239 428.004 340.749 428.742 343.111C429.923 345.916 433.171 347.835 435.829 345.916C439.815 343.111 438.781 336.172 437.896 332.186C436.715 327.461 434.057 323.18 430.366 320.079C429.185 319.046 427.413 318.455 426.085 319.636C424.904 320.817 424.756 322.737 425.642 324.065C428.594 328.199 432.876 331.152 437.748 332.333C442.472 333.367 447.935 331.595 448.821 326.28C449.559 321.113 446.459 316.241 441.439 314.617C436.272 312.845 431.104 314.912 426.528 317.274L431.695 321.556C431.99 317.126 430.219 312.993 426.97 310.04C423.722 307.235 419.441 306.349 415.307 307.235C413.092 307.825 411.026 309.154 410.878 311.664C410.878 314.617 413.092 316.241 415.159 317.865L426.97 326.428L427.118 319.932C423.132 320.374 419.441 319.341 415.602 321.26C412.207 322.884 410.287 326.723 411.321 330.414C412.354 333.957 415.455 336.615 419.293 337.058C423.132 337.501 426.675 335.286 429.185 332.481C431.695 329.676 426.97 324.213 424.018 327.313C422.837 328.642 420.917 330.266 418.998 330.119C418.555 330.119 418.26 329.971 417.965 329.823C417.669 329.528 417.522 329.38 417.817 329.676C417.522 329.233 417.522 329.233 417.669 329.528C417.522 329.971 417.817 329.085 417.669 329.233C418.555 328.199 419.736 327.461 421.065 327.166C423.722 326.723 426.675 327.166 429.333 326.871C430.661 326.723 431.4 325.099 431.4 324.065C431.4 322.589 430.661 321.26 429.48 320.374L422.541 315.355L419.146 312.993C418.26 312.402 417.374 311.811 416.636 311.073L417.226 312.845L416.488 314.321C416.931 313.731 418.26 313.731 418.998 313.731C420.031 313.731 421.213 314.026 422.098 314.469C423.722 315.355 424.756 317.274 424.756 319.046C424.608 321.703 427.118 324.656 429.923 323.327C432.728 321.998 435.681 320.522 438.782 320.817C439.815 320.965 440.848 321.408 441.587 322.146C441.291 321.851 441.882 322.589 441.734 322.294C441.587 321.999 441.882 322.737 441.882 322.884C442.03 323.18 442.03 323.623 441.882 323.918C441.439 325.689 438.634 325.542 437.01 325.099C434.5 324.361 432.138 322.737 430.514 320.67L425.789 324.656C428.299 326.575 430.071 329.233 430.957 332.186C431.4 333.662 431.695 335.138 431.695 336.762C431.695 337.353 431.695 338.091 431.547 338.682C431.547 338.534 431.4 339.715 431.252 339.567C431.104 339.42 431.252 339.272 431.843 339.272L433.467 339.863C433.909 340.01 434.5 341.782 434.057 340.306C433.909 340.01 433.909 339.567 433.762 339.125C433.614 338.386 433.319 337.648 433.171 336.91C432.728 335.138 432.581 333.219 432.433 331.3C432.138 327.756 432.285 324.213 432.728 320.817C433.024 318.898 431.843 317.126 430.071 316.388C428.594 315.798 426.97 316.684 426.528 318.16C426.528 318.308 426.38 318.603 426.38 318.75L426.823 319.046Z" fill="#262626"/>
<path d="M368.506 465.207C368.358 462.845 368.801 460.631 369.982 458.564C370.573 457.53 371.311 456.644 372.049 455.906C372.492 455.463 372.935 455.168 373.378 454.873C373.673 454.725 373.968 454.873 374.264 454.873L372.049 452.068V452.215C372.344 457.383 367.325 459.597 363.191 460.778C362.453 460.926 363.929 463.436 364.077 463.583C364.815 464.765 365.701 465.798 366.882 466.684C368.21 467.274 369.391 468.16 370.573 469.046L371.163 469.637C371.901 470.375 370.425 468.751 370.573 468.751C370.72 468.751 370.573 469.489 370.425 469.489C370.425 469.784 370.277 470.08 369.982 470.227C369.834 470.522 369.539 470.67 369.244 470.67C369.096 470.67 368.506 470.522 368.358 470.67C368.21 470.818 368.949 471.261 369.096 471.408C369.244 471.556 369.391 471.851 369.096 471.408L368.801 470.818L365.701 465.65C365.11 464.469 364.224 463.436 363.043 462.698C362.452 462.402 361.862 462.107 362.01 463.141C362.305 465.06 361.862 466.979 360.681 468.456C360.09 469.194 359.352 469.784 358.614 470.08C358.171 470.227 357.728 470.08 357.285 470.227C357.138 470.227 359.943 473.623 359.795 473.623C359.647 473.623 359.943 473.328 359.943 473.18C360.533 472.294 359.057 470.375 358.466 469.637C358.319 469.341 355.956 466.536 355.514 467.274C354.332 469.046 355.956 471.408 356.99 473.032C358.023 474.656 360.09 476.871 362.453 476.28C365.996 475.394 367.177 470.965 366.586 467.865L362.895 465.355C364.519 468.308 366.291 471.261 368.506 473.918C369.834 475.542 373.378 478.643 374.854 475.542C375.297 474.361 375.297 473.032 374.706 471.851C373.821 469.932 372.64 468.16 371.163 466.684C369.096 464.322 366.586 462.402 363.781 460.926L367.472 466.684C370.425 465.946 373.673 464.765 375.445 462.107C377.364 459.154 376.773 456.054 375.002 453.249C373.968 451.625 372.049 448.967 369.834 448.967C368.358 448.967 367.177 450.296 366.439 451.33C364.519 453.692 363.634 456.792 363.781 459.892C364.077 461.369 364.815 462.845 365.996 463.879C366.439 464.469 367.029 464.912 367.62 465.355C367.767 465.355 368.506 465.65 368.506 465.207Z" fill="#262626"/>
<path d="M346.655 230.02C359.205 180.414 388.88 180.266 395.376 180.709C397.886 179.971 400.543 179.528 403.348 179.38C409.844 179.232 416.045 181.595 420.917 185.876C421.065 185.138 421.065 184.695 421.065 184.695C421.065 184.695 444.982 186.319 461.961 233.416C456.498 235.778 450.888 237.549 444.982 239.026C448.083 254.971 450.002 271.063 450.74 287.303C434.5 304.134 358.023 295.719 356.104 287.894C355.218 284.055 355.661 258.809 361.567 233.711C356.547 232.825 351.527 231.496 346.655 230.02Z" fill="#262626"/>
<path d="M350.198 229.725C352.413 220.424 355.956 211.565 360.828 203.298C364.076 197.983 368.21 193.258 373.23 189.567C373.821 189.124 374.263 188.829 374.854 188.386L375.592 187.943L376.035 187.648C375.74 187.796 375.74 187.796 376.035 187.648C377.069 187.057 378.102 186.467 379.283 186.024L380.759 185.433L381.498 185.138C381.941 184.991 381.202 185.286 381.202 185.286L381.793 185.138C382.826 184.843 383.712 184.548 384.746 184.252L386.074 183.957L386.665 183.809C385.779 183.957 387.256 183.662 386.665 183.809C387.551 183.662 388.289 183.514 389.175 183.514C390.061 183.514 390.651 183.367 391.242 183.367H391.832C392.423 183.367 391.242 183.367 391.537 183.367H392.423H393.899C395.376 183.219 396.852 183.071 398.181 182.628C399.657 182.333 401.134 182.185 402.61 182.185C408.368 182.333 413.83 184.4 418.112 188.239C419.884 189.715 424.165 188.091 424.46 185.876L424.608 184.695L419.736 187.5C419.884 187.5 420.179 187.648 420.327 187.648C420.917 187.648 419.441 187.353 419.884 187.5C420.031 187.5 420.179 187.5 420.327 187.648L421.36 187.943C422.393 188.239 423.279 188.534 424.313 188.977C425.051 189.272 423.87 188.682 424.608 189.124L425.494 189.567C426.232 189.863 426.823 190.306 427.413 190.601C435.533 195.178 441.586 202.559 446.606 210.384C451.33 218.061 455.317 226.329 458.269 234.892L460.336 231.939C455.169 234.154 449.854 235.926 444.391 237.254C443.063 237.55 441.143 238.878 441.439 240.502C444.687 256.152 446.606 272.097 447.197 288.19L447.787 286.861C447.64 287.008 446.754 287.747 447.492 287.156L446.606 287.894C446.311 288.19 446.016 288.337 445.573 288.632L445.13 288.928C444.539 289.371 445.72 288.632 444.982 289.075C444.244 289.518 443.506 289.814 442.767 290.256L441.439 290.847C440.553 291.142 442.029 290.699 441.439 290.847L440.405 291.142C438.338 291.881 436.271 292.323 434.204 292.766L432.58 293.062L431.547 293.209C430.366 293.357 429.185 293.652 428.004 293.8C417.521 295.129 407.039 295.424 396.557 294.538C387.256 294.095 378.102 292.914 369.096 290.847C367.472 290.404 365.848 289.961 364.372 289.518C363.781 289.371 363.043 289.075 362.452 288.78C361.862 288.485 362.895 288.928 362.157 288.632C361.862 288.485 361.567 288.337 361.419 288.19C361.271 288.042 360.681 287.747 360.385 287.451C360.09 287.156 360.828 287.894 360.385 287.451C360.238 287.304 360.09 287.156 360.09 287.008C360.09 286.861 360.238 287.599 360.238 287.156C360.238 287.008 360.09 286.861 360.09 286.713C359.943 285.827 359.943 285.384 359.943 284.942C359.795 278.15 360.09 271.359 360.828 264.567C361.862 254.085 363.486 243.751 365.848 233.563C365.996 232.678 365.11 231.792 364.372 231.644C359.352 230.611 354.332 229.43 349.46 227.806C347.689 227.363 345.769 227.953 344.441 229.282C343.702 230.02 343.702 231.201 344.293 231.939C344.588 232.235 344.883 232.382 345.326 232.53C350.198 234.154 355.218 235.335 360.238 236.369L358.761 234.449C356.104 245.965 354.332 257.776 353.446 269.587C353.151 273.721 352.856 278.003 352.856 282.136C352.708 284.499 352.856 286.861 353.299 289.223C354.037 292.028 358.023 293.357 360.385 294.243C365.258 295.867 370.277 296.9 375.445 297.638C389.175 299.853 403.2 300.591 417.078 299.853C423.722 299.558 430.366 298.672 436.862 297.195C442.325 296.162 447.492 293.947 451.921 290.847C453.545 289.666 455.021 288.485 455.021 286.418C454.874 283.76 454.726 281.103 454.578 278.445C453.84 268.111 452.659 257.924 451.035 247.589C450.445 244.489 450.002 241.388 449.264 238.288L446.311 241.536C452.364 240.06 458.417 237.993 464.175 235.483C465.061 235.04 466.537 233.859 466.094 232.53C461.222 218.947 454.579 205.217 444.391 194.882C439.519 189.567 433.466 185.581 426.823 183.219C425.494 182.776 424.165 182.481 422.836 182.333C421.065 182.185 418.407 183.071 417.964 185.138L417.817 186.319L424.165 183.957C419.736 180.414 414.421 178.052 408.811 177.461C405.71 177.018 402.61 177.166 399.657 177.609C398.771 177.756 397.885 177.904 397 178.199C396.704 178.199 396.409 178.347 396.114 178.494C395.376 178.937 396.704 178.494 397 178.494C396.704 178.494 396.557 178.494 396.261 178.494C392.718 178.347 389.175 178.642 385.779 179.38C373.968 181.89 363.781 189.715 356.99 199.459C350.494 208.76 346.36 219.538 343.555 230.463C343.112 232.235 345.622 232.678 346.803 232.53C347.984 232.382 349.608 231.349 350.198 229.725Z" fill="#262626"/>
<path d="M349.46 230.315C349.46 230.315 342.374 283.908 345.769 317.865C345.769 317.865 340.159 331.152 342.964 341.044C345.769 350.936 352.561 358.76 355.956 353.888C359.352 349.016 353.299 344.144 353.446 339.125C353.594 334.105 355.218 335.286 355.809 338.829C356.399 342.373 356.547 345.03 360.976 342.52C365.405 340.01 360.976 320.818 360.976 320.818C360.976 320.818 378.102 249.656 375.297 239.321L349.46 230.315Z" fill="white"/>
<path d="M346.655 228.248C345.474 236.811 344.736 245.227 343.997 253.79C342.373 270.473 341.783 287.303 342.226 304.134C342.226 306.201 342.373 308.12 342.521 310.187C342.816 312.107 342.964 314.026 342.964 315.945C342.964 315.65 342.964 316.093 342.964 316.24C342.816 316.683 342.669 316.979 342.521 317.422C341.931 318.898 341.488 320.374 341.192 321.851C340.011 325.837 339.568 329.823 339.568 333.957C339.864 338.681 341.045 343.258 343.259 347.392C345.179 351.231 347.984 355.512 351.97 357.579C355.07 359.203 358.171 358.613 359.647 355.217C361.566 351.083 358.614 347.097 357.137 343.406C356.694 341.782 356.694 340.158 356.842 338.681C356.842 340.01 353.003 337.943 352.708 336.467C352.708 336.91 353.003 337.205 353.003 337.648C353.151 338.534 353.299 339.567 353.594 340.453C354.775 345.03 359.499 348.13 363.781 345.177C365.996 343.553 366.143 340.01 366.143 337.648C365.996 332.333 365.405 327.018 364.076 321.851L364.224 323.179C367.62 309.154 370.72 294.981 373.525 280.807C375.444 271.358 377.216 261.762 378.397 252.166C378.84 249.065 378.988 245.965 378.84 242.864C378.84 240.207 377.216 237.697 374.706 236.811C373.968 236.516 373.23 236.368 372.492 236.073L348.722 227.953C347.246 227.51 346.507 228.543 346.803 229.872C347.393 231.644 348.87 232.973 350.494 233.563L376.478 242.421L372.787 238.73C372.787 237.992 372.935 239.321 372.787 238.73C372.787 238.878 372.787 239.026 372.787 239.321C372.787 239.912 372.935 240.354 372.787 240.945C372.787 242.274 372.787 243.603 372.639 244.931C372.344 248.179 371.901 251.87 371.311 255.414C369.834 264.862 368.062 274.164 366.143 283.465C364.372 291.88 362.6 300.443 360.533 308.859C359.942 311.516 359.352 314.026 358.761 316.683C358.318 317.864 358.171 319.193 358.318 320.522C358.318 320.817 358.466 321.26 358.614 321.555C358.761 322.146 358.614 321.555 358.761 321.998C358.909 322.441 358.909 323.032 359.057 323.475C359.5 325.689 359.795 327.756 360.09 329.971C360.385 333.071 361.419 339.124 358.023 340.601C357.58 340.748 356.99 340.748 356.694 341.044C361.714 338.238 359.647 345.325 359.499 343.111C359.499 342.963 359.352 342.815 359.352 342.52C359.057 341.044 358.761 339.715 358.318 338.238C357.58 336.467 353.889 331.447 351.527 333.957C350.789 335.138 350.494 336.467 350.641 337.796C350.641 339.42 350.937 341.044 351.675 342.52C352.708 345.03 355.07 348.13 354.037 350.788C353.742 351.821 353.003 352.559 352.118 353.002C351.675 353.15 351.527 353.002 351.379 352.707C349.312 350.492 347.836 347.983 346.95 345.177C344.588 338.829 345.326 332.333 347.098 325.985C347.541 324.213 348.279 322.589 348.87 320.817C349.017 320.079 349.017 319.341 348.87 318.603C348.722 316.979 348.574 315.355 348.574 313.731C348.131 307.382 347.984 301.034 348.131 294.538C348.427 274.311 349.903 254.085 352.561 234.006L352.708 232.973C352.708 231.349 351.822 229.725 350.346 228.839C349.46 227.805 346.803 226.624 346.655 228.248Z" fill="#262626"/>
<path d="M365.406 157.825C357.433 120.177 380.76 107.776 397.591 105.118C414.422 102.461 426.233 107.923 430.071 114.715C432.876 119.734 422.985 152.067 422.985 152.067L395.967 180.857C395.967 180.709 371.459 186.467 365.406 157.825Z" fill="#262626"/>
<path d="M440.552 166.388C449.853 153.396 429.627 120.916 429.627 120.916C423.279 120.62 412.353 116.339 412.353 116.339C418.259 134.498 397.147 142.914 397.147 142.914C391.241 133.465 380.021 138.78 382.088 148.672C384.155 158.563 393.751 158.12 393.751 158.12C393.751 158.12 392.422 183.219 393.899 186.91C393.899 186.91 411.468 195.768 419.588 180.118C419.588 180.118 434.351 175.246 440.552 166.388Z" fill="white"/>
<path d="M443.8 167.274C449.705 158.563 445.424 146.309 441.88 137.599C440.109 133.317 438.042 129.036 435.827 124.902C434.499 122.54 433.317 119.144 430.365 118.701C426.969 118.258 423.573 117.52 420.325 116.486C418.849 116.043 417.52 115.601 416.191 115.158L414.715 114.567C414.124 114.272 414.42 114.419 414.863 114.567C413.091 113.829 407.776 113.977 408.809 117.077C411.024 124.016 408.662 130.66 403.495 135.532C401.723 137.156 399.656 138.632 397.589 139.813L396.851 140.108C396.998 139.961 397.589 139.666 396.851 140.108L395.817 140.551L395.079 141.29L400.542 142.175C398.327 138.484 394.489 136.122 390.207 135.975C386.221 135.679 382.235 137.451 379.872 140.551C375.443 147.195 379.725 156.201 386.516 158.859C388.878 159.744 391.241 160.335 393.75 160.187L389.912 158.268C389.321 166.388 389.174 174.656 389.469 182.776C389.469 184.4 389.617 186.024 390.207 187.5C390.65 188.386 391.831 188.829 392.717 189.124C396.998 190.896 401.575 191.634 406.004 191.339C413.239 190.896 419.587 186.762 422.835 180.266L421.211 181.595C429.626 179.233 438.632 174.361 443.8 167.274C446.014 164.321 438.928 163.288 437.304 165.502C432.579 171.998 425.05 175.394 417.815 178.347C415.896 179.085 415.453 181.004 414.124 182.481C412.943 184.105 411.467 185.286 409.695 186.172C407.185 187.353 404.233 187.5 401.575 186.91C400.246 186.614 398.77 186.172 397.441 185.729C398.327 186.024 397.146 185.581 396.851 185.433C396.703 185.433 396.556 185.286 396.408 185.286L397.441 186.172C397.294 185.876 397.441 186.614 397.441 186.172C397.441 186.024 397.441 185.876 397.294 185.581C397.146 185.138 397.146 184.548 397.146 184.105C396.998 182.924 396.998 181.742 396.998 180.414C396.851 177.166 396.998 173.918 396.998 170.67C397.146 166.388 397.294 162.107 397.441 157.825C397.589 156.201 394.636 155.906 393.603 155.906C393.012 155.906 394.784 156.053 394.193 155.906C393.898 155.906 393.455 155.906 393.16 155.758C392.274 155.61 392.865 155.61 393.16 155.758L392.422 155.61L391.683 155.315C390.798 155.02 392.274 155.61 391.388 155.168C388.583 153.839 386.516 151.329 385.926 148.229C385.187 145.276 385.926 141.88 388.583 140.256C388.14 140.404 389.174 139.961 388.583 140.256C388.731 140.256 389.764 140.108 389.026 140.108C389.912 139.961 388.583 139.961 389.469 140.108C389.026 139.961 390.059 140.256 390.059 140.256C391.536 140.994 392.865 142.175 393.75 143.652C394.932 145.276 397.589 145.276 399.213 144.538C403.347 142.766 407.185 140.256 410.433 137.008C416.339 131.545 418.554 122.982 416.044 115.305L410.138 117.815C416.191 120.177 422.687 122.54 429.036 122.835L426.378 121.506C428.593 125.197 430.66 128.888 432.432 132.727C435.68 139.666 438.78 147.195 439.518 154.872C439.813 158.416 439.666 162.254 437.599 165.207C435.532 168.16 442.323 169.488 443.8 167.274Z" fill="#262626"/>
<path d="M403.94 153.691C403.792 155.02 403.792 156.349 403.94 157.53C404.087 158.711 404.53 160.04 405.121 161.073C405.564 161.811 406.007 162.549 406.597 163.14C407.335 163.878 408.221 164.469 409.107 164.912C410.584 165.502 412.208 165.355 413.684 164.616C413.832 164.616 413.979 164.469 413.979 164.321C414.127 164.173 414.127 164.026 413.979 163.731C413.832 163.14 413.536 162.697 413.241 162.107C412.798 161.516 412.355 161.073 411.765 160.63L411.322 160.335C411.026 160.187 410.731 160.187 410.436 160.187C409.55 160.63 408.664 160.925 407.631 160.778H408.074C407.778 160.778 407.631 160.778 407.335 160.63C407.188 160.63 407.926 160.778 407.631 160.778H407.483C407.188 160.63 407.778 160.925 407.778 160.925L407.631 160.778C407.336 160.63 408.221 161.221 407.926 161.073L407.778 160.925C407.631 160.778 408.369 161.516 408.221 161.221C408.074 160.925 407.926 160.925 408.369 161.368C408.517 161.516 408.812 161.811 408.369 161.368C408.812 161.959 408.664 161.959 408.517 161.516V161.368C408.517 161.368 408.812 161.959 408.664 161.664C408.517 161.368 408.517 161.368 408.517 161.368C408.517 161.221 408.369 161.073 408.369 161.073C408.221 160.778 408.517 161.516 408.369 161.368V161.221C408.221 160.778 408.221 160.187 408.074 159.744C408.074 159.154 407.926 158.711 408.074 158.12V158.563C408.074 157.973 408.074 157.53 408.221 156.939C408.221 156.496 408.074 155.906 407.778 155.61C407.483 155.02 406.893 154.429 406.45 153.986C406.007 153.544 405.564 153.248 404.973 153.101C404.383 153.396 403.94 153.396 403.94 153.691Z" fill="#262626"/>
<path d="M426.085 140.994C429.924 143.209 434.205 144.833 438.487 145.719C453.103 149.262 454.432 154.429 449.56 157.087C444.688 159.744 424.904 155.906 424.904 155.906" fill="white"/>
<path d="M427.857 143.652C431.695 145.866 435.681 147.49 439.963 148.376C443.063 148.967 446.164 150 448.969 151.329C449.559 151.624 450.002 151.919 450.445 152.215C450.593 152.215 450.593 152.362 450.74 152.362L451.036 152.51C451.331 152.658 451.331 152.658 451.183 152.658C451.036 152.51 451.036 152.658 451.183 152.658C451.036 152.51 450.74 152.215 450.593 152.067C450.15 151.624 449.855 151.181 449.559 150.738C449.264 150.295 449.412 150.591 449.559 150.738C449.707 150.886 449.412 150.295 449.412 150.591C449.412 150.886 449.559 151.034 449.559 150.738C450.15 153.396 446.902 154.725 444.835 155.02C440.553 155.463 436.272 155.315 431.99 154.577C428.89 154.282 425.79 153.691 422.837 153.248C421.803 153.101 423.723 155.61 423.723 155.758C424.461 156.644 425.79 158.563 427.118 158.858C430.071 159.449 432.876 159.744 435.829 160.187C440.406 160.925 445.13 161.073 449.707 160.63C452.364 160.187 455.465 158.415 454.431 155.315C453.25 152.362 451.183 150 448.673 148.081C446.459 146.457 443.949 145.128 441.292 144.39C435.681 142.471 429.481 141.585 424.313 138.337C422.984 137.451 424.166 139.665 424.313 139.961C425.347 141.289 426.528 142.618 427.857 143.652Z" fill="#262626"/>
<path d="M417.374 138.484C418.555 138.484 419.441 139.37 419.441 140.551C419.441 140.699 419.441 140.699 419.441 140.847C419.146 143.061 416.488 142.766 416.045 140.847C415.75 139.961 416.193 138.927 417.079 138.632C417.226 138.484 417.226 138.484 417.374 138.484Z" fill="#262626"/>
<path d="M431.99 134.941C431.99 134.941 434.352 134.941 434.057 137.156C433.762 139.37 431.104 139.223 430.661 137.156C430.366 136.27 430.809 135.236 431.695 134.941C431.842 134.941 431.99 134.941 431.99 134.941Z" fill="#262626"/>
<path d="M370.129 148.967C369.539 151.624 368.505 154.282 367.472 156.792C366.733 158.711 365.552 160.63 364.224 162.254C363.633 162.845 363.19 163.288 362.452 163.878C363.042 163.435 361.861 164.026 362.895 163.583C363.338 163.435 363.928 163.288 364.371 163.14C363.781 163.288 364.814 163.288 364.224 163.14C364.666 163.14 363.781 162.992 363.633 162.992C359.499 161.959 355.07 156.201 355.956 151.92C356.103 151.181 356.399 150.443 356.842 149.705C357.137 149.41 357.432 149.114 357.727 148.819C357.727 148.819 358.023 148.671 357.58 148.819C357.875 148.671 357.875 148.671 357.285 148.967C358.023 148.671 356.399 149.262 357.137 148.967C357.285 148.967 355.513 149.41 356.251 149.114C355.513 149.262 356.103 149.114 356.251 149.114H356.399C357.137 149.262 357.727 149.557 358.318 150C359.794 151.477 360.533 153.544 360.385 155.61C360.237 159.006 359.351 162.402 357.727 165.502C356.251 168.603 354.184 171.408 351.822 173.77C350.936 174.656 349.903 175.542 348.869 176.427C348.279 176.723 347.836 177.166 347.54 177.313L347.245 177.461C347.098 177.609 346.212 177.756 347.098 177.609C346.212 177.756 347.836 177.461 346.95 177.609L347.245 177.461C346.95 177.461 346.95 177.461 347.245 177.461C347.098 177.313 346.95 177.461 346.507 177.313C345.621 177.018 344.883 176.427 344.44 175.689C343.407 174.065 343.111 171.998 343.554 170.079C343.997 168.603 344.735 167.274 345.769 166.388C346.212 165.945 345.769 166.24 346.359 165.945C346.507 165.797 347.54 165.207 346.655 165.65C346.802 165.502 346.95 165.502 347.245 165.355C346.507 165.65 347.983 165.207 347.245 165.355L347.836 165.059C346.802 165.502 347.54 165.207 347.836 165.059C348.574 164.912 346.95 165.355 347.688 165.059C347.983 165.059 348.574 164.912 347.54 165.059C347.688 165.059 347.983 165.059 348.131 164.912C348.722 164.912 347.54 164.912 348.279 164.912C348.869 164.912 349.607 164.912 350.198 165.059C351.527 165.355 352.708 166.24 353.298 167.422C355.661 172.294 350.936 178.79 348.279 182.481C347.54 183.514 350.936 183.071 351.084 182.924C352.708 182.628 354.037 181.89 355.218 180.857C357.58 177.904 359.204 174.656 360.385 171.112C361.123 169.193 360.975 166.979 360.237 165.059C358.17 161.221 352.855 161.516 349.164 162.254C344.588 163.288 339.125 165.65 336.911 170.227C336.025 172.294 335.877 174.508 336.615 176.575C337.501 179.085 339.863 180.709 342.521 180.414C350.493 180.266 357.432 174.361 361.861 168.307C364.224 165.059 365.995 161.221 366.881 157.382C367.472 154.577 367.767 151.034 365.995 148.524C362.6 143.799 354.332 146.457 350.936 149.853C346.359 154.282 349.755 160.63 353.889 164.026C359.056 168.307 367.029 165.502 370.867 160.63C373.525 156.939 375.592 152.658 376.625 148.229C376.625 147.933 376.773 147.638 376.773 147.343C377.363 146.014 370.572 147.195 370.129 148.967Z" fill="#262626"/>
<g opacity="0.4">
<path d="M319.783 55.9548C303.248 56.1025 286.712 57.7265 270.472 60.9745C254.232 64.0749 238.287 68.6517 222.637 74.4096C191.486 85.9254 162.991 103.642 138.779 126.526L134.35 130.807C132.873 132.284 131.545 133.76 130.068 135.384L125.934 139.961L123.867 142.323L121.948 144.685L114.271 154.429L107.184 164.616L105.413 167.126L103.789 169.784L100.541 175.099L97.2925 180.414C96.2591 182.185 95.3732 184.105 94.3398 185.876C92.4205 189.567 90.5012 193.258 88.7295 196.949L83.7098 208.317C81.9382 212.008 80.7571 215.994 79.2807 219.833L77.2138 225.591L76.1803 228.544C75.885 229.577 75.5897 230.463 75.2945 231.496C73.0799 239.469 70.4224 247.294 68.7984 255.414L66.1409 267.52L64.074 279.774L62.8929 285.975C62.5976 288.042 62.45 290.109 62.1547 292.176L60.8259 304.577C59.7925 321.113 59.3496 337.648 61.2689 354.036L61.8594 360.237L62.8929 366.29L63.9263 372.343C64.2216 374.41 64.5169 376.477 65.1074 378.396L67.9126 390.503L68.2078 391.979L68.6508 393.455L69.5366 396.408L71.3082 402.314C76.4756 417.963 83.4146 433.022 91.9776 447.196C100.688 461.221 111.023 474.066 122.686 485.729C134.35 497.392 147.194 507.875 161.072 516.733C174.95 525.591 189.714 533.269 204.921 539.322C235.629 551.723 268.257 558.219 301.328 558.662C305.462 558.81 309.596 558.515 313.73 558.515C315.797 558.515 317.864 558.367 319.931 558.219L326.131 557.777C328.198 557.629 330.265 557.334 332.332 557.038L338.385 556.3C340.452 556.005 342.519 555.71 344.439 555.267L350.492 554.086C366.732 550.985 382.677 546.556 398.031 540.798C429.035 529.43 457.825 512.599 483.071 491.339C508.169 469.932 529.429 443.8 543.75 414.125C558.218 384.302 565.748 351.674 565.896 318.455C565.896 285.237 559.695 252.461 547.736 221.605C523.523 159.006 476.132 108.219 415.452 79.8722C385.63 65.6989 353.002 57.5789 319.783 55.9548ZM319.783 55.9548C353.002 57.4312 385.63 65.4037 415.748 79.4293C445.866 93.4549 473.179 113.091 495.768 137.451C518.504 161.664 536.516 190.158 548.77 221.014C561.024 252.018 567.372 284.941 567.52 318.308C567.52 351.674 560.138 384.745 545.669 414.863C531.053 444.833 510.236 471.556 484.842 493.111C459.449 514.814 430.364 531.792 399.065 543.308C383.415 549.066 367.47 553.643 351.082 556.891L344.882 558.072C342.815 558.515 340.748 558.81 338.681 559.105L332.48 559.991C330.413 560.286 328.346 560.582 326.279 560.729L320.078 561.172C318.011 561.32 315.944 561.467 313.878 561.467L307.677 561.615C305.61 561.615 303.543 561.763 301.476 561.615C268.11 561.172 235.039 554.381 204.035 541.832C188.533 535.631 173.769 527.954 159.743 518.948C145.718 509.794 132.726 499.312 121.062 487.501C97.2925 463.879 79.7236 434.794 69.5366 402.904L67.7649 396.999L66.8791 394.046L66.4362 392.57L66.1409 391.093L63.3358 378.987C62.8929 376.92 62.45 374.853 62.1547 372.786L61.1212 366.585L60.0878 360.384L59.4972 354.184C57.5779 337.648 58.1685 320.965 59.3496 304.43L60.6783 292.028C60.9736 289.961 61.1212 287.894 61.4165 285.827L62.45 279.774L64.5169 267.52L67.322 255.414C68.946 247.294 71.6035 239.321 73.9657 231.496C74.261 230.463 74.5563 229.43 74.8516 228.544L75.885 225.591L78.0996 219.685C79.576 215.847 80.7571 211.861 82.6764 208.022L87.6961 196.654C89.4677 192.963 91.5346 189.272 93.4539 185.581C94.4874 183.809 95.3732 181.89 96.4067 180.118L99.6547 174.803L102.903 169.488L104.527 166.831L106.298 164.321L113.533 154.134L121.358 144.39L123.277 142.028L125.344 139.666L129.625 135.089C131.102 133.612 132.43 131.988 133.907 130.512L138.336 126.231C150.295 114.715 163.582 104.675 177.608 95.9647C191.781 87.2541 206.692 80.0198 222.194 74.262C237.696 68.5041 253.789 63.9273 270.029 60.8269C286.712 57.7265 303.248 56.1025 319.783 55.9548Z" fill="#F5EE30"/>
<path d="M321.112 53.8879C287.893 53.8879 254.084 60.6793 222.933 72.3427C194.586 82.6773 168.159 98.0317 145.127 117.668C124.753 135.236 107.48 156.201 94.1923 179.676C85.0388 195.03 78.0998 212.304 72.3419 229.282C66.8793 245.965 62.8931 263.091 60.2356 280.512C56.6923 301.92 55.5112 323.623 56.8399 345.325C58.021 360.68 60.3832 375.886 64.0742 390.798C65.6982 396.999 67.6175 403.199 69.8321 409.253C75.147 424.164 82.086 438.337 90.5014 451.625C107.923 478.347 130.807 501.083 157.529 518.505C184.842 536.074 215.108 548.475 246.998 555.267C274.606 561.172 303.691 563.239 331.89 559.548C356.988 556.3 381.496 549.952 404.97 540.65C433.612 529.43 460.187 513.78 483.809 494.292C506.693 475.394 526.034 452.658 540.797 426.969C556.447 399.509 565.896 368.947 568.849 337.501C571.506 305.02 568.11 272.392 558.661 241.388C549.803 211.861 536.073 184.252 517.913 159.449C499.902 135.236 477.904 114.272 452.805 97.5888C426.821 80.1675 397.884 67.7659 367.47 60.6793C352.264 56.693 336.762 54.4785 321.112 53.8879C319.34 53.7403 317.569 54.4785 316.535 55.9548C315.797 57.4312 317.273 58.1694 318.602 58.1694C350.344 59.6458 381.496 67.1753 410.433 80.3151C464.764 104.971 508.76 147.786 535.187 201.231C549.065 229.577 557.923 260.138 561.171 291.437C564.715 322.737 561.614 354.479 552.313 384.597C543.16 413.091 528.396 439.518 508.76 462.255C489.419 484.696 466.388 503.741 440.699 518.505C413.533 534.154 384.153 545.227 353.445 551.428C333.809 555.414 313.878 557.038 293.947 556.152C261.761 554.676 230.167 547.147 200.639 534.302C171.702 521.9 145.57 504.036 123.572 481.448C101.87 458.859 85.3341 431.694 75.2947 402.018C71.3085 389.912 68.3557 377.658 66.4364 365.109C63.0407 343.554 62.4502 321.851 64.8124 300.148C65.9935 287.451 67.9128 274.902 70.5703 262.5C74.8518 243.455 80.0191 224.41 87.8439 206.398C94.0447 192.225 100.836 178.199 109.694 165.355C111.318 162.992 113.09 160.63 114.714 158.12C115.6 156.939 116.486 155.611 117.372 154.429C116.781 155.168 117.519 154.282 117.372 154.429L118.7 152.805C122.244 148.376 125.787 143.947 129.625 139.666C145.57 122.097 164.025 106.89 184.547 94.7836C211.122 79.2817 240.354 68.5041 270.62 63.0415C286.417 59.9411 302.51 58.3171 318.602 58.1694C320.226 58.1694 322.441 57.5789 323.179 56.1025C323.917 54.6261 322.441 53.8879 321.112 53.8879Z" fill="#F5EE30"/>
<path d="M318.6 58.1693C350.343 59.6457 381.642 67.1752 410.579 80.1674C437.892 92.569 462.843 109.547 484.398 130.512C505.805 151.329 523.522 175.689 536.662 202.559C550.687 231.201 559.546 262.057 562.794 293.8C566.189 325.542 562.941 357.579 553.345 387.993C543.896 416.782 528.689 443.357 508.758 466.241C489.122 488.682 465.796 507.579 439.811 522.196C412.351 537.698 382.675 548.77 351.671 554.676C335.874 557.924 319.929 559.548 303.837 559.4C271.652 558.958 239.762 552.609 209.644 540.946C179.821 529.578 152.655 512.452 129.329 490.601C95.5194 458.416 73.0785 416.191 65.5489 370.128C62.0056 348.13 61.2674 325.837 63.1867 303.691C64.2202 291.142 65.9918 278.593 68.6493 266.339C70.7162 256.742 73.0785 246.998 75.8836 237.549C78.5411 227.953 81.9367 218.504 85.7753 209.203C89.3186 201.231 92.8619 193.553 96.9958 185.876C100.244 179.675 103.935 173.622 107.626 167.569C108.807 165.502 110.283 163.73 111.612 161.811L115.155 156.792L116.484 154.872C116.779 154.577 117.517 153.396 116.779 154.429C120.175 150 123.718 145.423 127.557 141.29C132.281 136.122 137.153 130.955 142.321 126.083C153.689 115.305 166.238 105.709 179.673 97.441C207.281 80.6103 237.842 68.9469 269.732 62.8937C285.677 59.941 302.065 58.3169 318.6 58.1693C320.077 58.1693 322.439 57.5788 323.177 56.1024C323.915 54.626 322.439 53.8878 321.11 53.8878C287.301 53.7402 253.049 60.6792 221.602 72.6378C191.189 83.8583 163.138 100.837 139.073 122.687C128.886 132.136 119.437 142.471 110.874 153.396C103.049 163.288 96.2576 173.918 90.4997 185.138C81.6415 202.116 74.2596 219.981 68.6493 238.288C64.2202 253.347 60.8245 268.701 58.3147 284.203C54.4761 307.678 53.5902 331.595 56.1001 355.365C57.2812 368.357 59.4958 381.054 62.8914 393.603C69.5351 418.111 80.3127 441.29 95.0765 461.959C113.679 487.796 137.301 509.351 164.762 525.591C192.961 542.274 224.112 553.938 256.445 559.696C280.658 564.125 306.199 565.601 330.707 562.353C355.658 559.105 380.166 552.904 403.788 543.898C432.577 532.826 459.447 517.324 483.365 497.835C506.691 478.938 526.475 455.906 541.682 429.922C557.479 402.314 567.371 371.752 570.471 340.01C573.719 307.53 569.733 274.164 560.579 242.864C551.869 213.042 537.991 185.138 519.536 160.04C501.376 135.532 479.231 114.272 453.837 97.2934C427.705 79.7245 398.473 67.1752 367.764 60.0886C352.557 56.6929 337.055 54.4784 321.406 53.7402C319.634 53.5925 317.862 54.4784 316.829 55.8071C315.795 57.4311 317.272 58.1693 318.6 58.1693Z" fill="#F5EE30"/>
</g>
<path d="M305.315 588.633C275.935 588.485 246.702 584.056 218.651 575.345C173.326 561.32 133.169 537.107 102.46 505.365C61.8597 463.288 18.6018 387.845 42.8144 266.634C53.7396 212.156 75.1471 166.093 106.594 129.626C131.84 100.394 163.287 77.3622 200.492 61.122C263.533 33.5137 321.555 34.9901 322.146 34.9901C392.126 38.2381 458.415 67.4705 508.022 116.929C558.071 166.979 588.337 233.563 592.914 304.282C597.786 374.558 574.607 439.371 526.034 491.634C480.709 540.65 416.486 573.869 345.472 585.532C332.185 587.599 318.75 588.633 305.315 588.633ZM320.226 40.8956C310.039 40.8956 258.366 42.2244 202.706 66.7323C166.535 82.6772 135.679 105.266 111.023 133.76C80.3145 169.341 59.3499 214.518 48.7199 267.963C24.9502 386.369 67.1747 460.188 106.742 501.231C165.206 561.763 260.728 593.357 344.586 579.627C414.272 568.259 477.313 535.483 521.752 487.501C569.144 436.418 591.733 373.081 587.008 304.577C582.431 235.335 552.904 170.079 503.888 121.063C455.315 72.7854 390.502 44.1437 321.998 40.8956H320.226Z" fill="#262626"/>
<path d="M307.679 586.418C243.604 586.271 178.643 564.715 128.594 524.41C95.0802 497.688 69.5388 462.255 54.4797 422.097C34.6962 368.652 35.7297 309.745 48.2789 254.676C61.4187 197.244 89.3223 143.061 134.204 104.085C179.086 65.1083 237.699 43.5531 296.606 38.2382C312.256 36.7618 328.053 37.2047 343.555 39.2716C372.492 43.1102 400.691 51.5256 427.118 64.0748C480.563 89.7638 524.707 131.25 553.496 183.071C581.843 234.154 595.425 294.833 588.782 353.002C582.138 411.172 553.644 464.322 511.272 504.479C468.9 544.637 414.421 570.621 357.285 581.546C340.897 584.794 324.362 586.418 307.679 586.418C305.907 586.714 304.283 587.452 303.102 588.633C302.512 589.223 301.183 590.847 302.807 590.7C335.287 590.7 367.62 584.204 398.329 573.869C426.675 564.273 453.693 550.837 478.348 534.007C502.709 517.471 524.559 497.245 542.866 474.213C561.173 451.182 575.347 425.05 584.5 397.146C593.654 368.947 597.64 339.272 596.311 309.745C594.982 279.774 589.225 250.246 579.038 222.195C568.998 194.144 554.53 167.717 536.37 143.947C518.211 120.177 496.36 99.3603 471.557 82.3819C434.5 56.6929 391.833 40.4527 347.098 34.6949C338.535 33.5138 329.972 32.7756 321.409 32.6279C301.478 32.9232 281.695 35.2854 262.354 39.5669C230.169 46.3583 199.165 58.1693 170.671 74.5571C144.244 89.9115 120.769 109.695 101.133 133.022C82.5309 155.463 67.6195 180.857 56.9896 208.022C45.1785 238.14 37.5013 269.587 34.2533 301.772C31.0053 330.414 32.0387 359.499 37.3537 387.845C41.7828 411.024 49.6077 433.465 60.6805 454.282C69.8341 471.556 81.2022 487.501 94.342 501.969C113.535 522.786 135.976 540.503 160.779 554.086C204.332 578.003 253.201 590.552 302.807 590.7C304.579 590.552 306.203 589.666 307.384 588.485C307.974 588.042 309.303 586.418 307.679 586.418Z" fill="#262626"/>
<path d="M322.589 38.6812C303.839 38.9764 285.237 41.0434 266.93 44.8819C235.187 51.2304 204.626 62.5985 176.427 78.5434C150.148 93.4549 126.673 112.943 107.038 135.827C88.5828 157.825 73.6713 182.776 63.0414 209.498C51.2304 239.321 43.5532 270.62 40.3052 302.51C37.0571 331.004 38.2382 359.794 43.5532 387.993C47.9823 410.729 55.9548 432.727 66.88 453.101C76.0336 469.932 87.2541 485.581 100.246 499.607C118.553 519.243 139.813 535.778 163.288 548.623C188.238 562.353 214.961 572.393 242.865 578.298C270.473 584.351 298.672 586.123 326.871 583.613C385.926 577.117 442.176 554.676 489.42 518.652C512.747 500.788 532.973 479.233 549.509 455.02C565.749 431.103 577.56 404.381 584.204 376.329C590.847 347.392 592.324 317.569 588.633 288.042C585.089 258.809 577.117 230.168 565.011 203.298C552.904 176.28 536.517 151.477 516.585 129.479C496.507 107.48 473.18 88.7304 447.196 73.9666C421.359 59.3505 393.455 49.1634 364.371 43.4056C350.788 40.6004 336.615 38.9764 322.589 38.6812C320.817 38.9764 319.193 39.7146 318.012 40.8957C317.422 41.4863 316.093 42.9627 317.717 42.9627C332.186 43.2579 346.506 45.0296 360.532 48.13C403.642 56.8406 444.095 75.7383 478.347 103.199C501.083 121.506 520.867 143.061 536.812 167.422C552.757 191.486 564.863 217.914 572.983 245.67C581.251 274.016 585.089 303.396 584.056 332.924C583.17 361.418 576.969 389.617 566.044 416.044C554.676 442.766 538.731 467.274 518.948 488.387C499.607 509.056 477.314 526.625 452.806 540.503C427.412 554.971 400.099 565.749 371.605 572.54C344.292 579.332 316.093 581.989 287.894 580.07C259.991 578.003 232.53 571.802 206.25 561.763C180.266 552.019 155.906 538.288 133.908 521.162C117.077 508.022 102.165 492.52 89.4686 475.394C77.3623 458.859 67.4706 440.552 60.2363 421.359C51.5256 397.737 46.3583 373.081 45.1772 347.983C43.5532 316.979 46.9489 285.827 53.8879 255.561C60.3839 226.477 71.0139 198.426 85.63 172.441C99.8033 147.638 118.11 125.345 139.813 106.742C163.583 86.8111 190.601 71.4568 219.833 61.1221C245.522 51.8209 272.392 46.0631 299.558 43.8485C305.611 43.4056 311.516 42.9627 317.569 42.9627C319.341 42.815 320.965 41.9292 322.146 40.7481C322.884 40.3052 324.213 38.6812 322.589 38.6812Z" fill="#262626"/>
<path d="M314.764 543.603H308.858V612.993H314.764V543.603Z" fill="#262626"/>
<path d="M312.255 610.926H306.349L311.96 614.617V545.227L311.221 545.818H317.127L311.517 542.127V611.517C311.517 613.288 318.013 616.093 318.013 614.617V545.227C318.013 544.341 316.389 543.308 315.798 543.013C314.765 542.274 313.584 541.684 312.403 541.536H306.497C306.054 541.536 305.759 541.536 305.759 542.127V611.517C305.759 612.402 307.383 613.436 307.973 613.731C309.007 614.469 310.188 615.06 311.369 615.207H317.275C318.899 615.207 317.422 613.731 316.979 613.141C315.503 611.959 314.027 611.221 312.255 610.926Z" fill="#262626"/>
<path d="M316.241 3.10034H310.336V72.4902H316.241V3.10034Z" fill="#262626"/>
<path d="M314.765 69.2422H308.86L312.551 74.2619V4.87205L311.517 6.49608H317.423L313.732 1.47638V71.0139C313.879 72.7855 314.913 74.4096 316.389 75.5907C317.718 76.4765 318.456 75.8859 318.456 74.4096V5.01969C318.456 3.39568 316.684 0 314.765 0H308.86C307.974 0 307.826 1.03347 307.826 1.62402V71.0139C307.826 72.6379 309.598 76.0336 311.517 76.0336H317.423C320.08 75.8859 317.275 69.2422 314.765 69.2422Z" fill="#262626"/>
<path d="M618.309 304.43H548.919V310.335H618.309V304.43Z" fill="#262626"/>
<path d="M618.309 307.382H548.919L552.61 310.335V304.43L548.919 307.382H618.309L614.618 304.43V310.335C614.618 314.321 622 314.321 622 310.335V304.43C622 302.51 619.933 301.477 618.309 301.477H548.919C547.295 301.477 545.229 302.658 545.229 304.43V310.335C545.229 312.254 547.295 313.288 548.919 313.288H618.309C619.933 313.288 622 312.107 622 310.335C622 308.563 620.081 307.382 618.309 307.382Z" fill="#262626"/>
<path d="M72.9338 304.43H3.54395V310.335H72.9338V304.43Z" fill="#262626"/>
<path d="M71.3092 308.711H1.91929L7.08662 311.073V305.168L5.01969 306.054H74.5572L69.3899 303.691V309.597C69.3899 311.959 76.6241 312.845 76.6241 310.926V305.02C76.6241 302.953 72.7855 302.658 71.4568 302.658H2.06693C1.62401 302.658 0 302.806 0 303.544V309.449C0 311.516 3.83859 311.812 5.16733 311.812H74.5572C75.5907 311.812 77.2147 311.221 76.1812 310.04C75.1477 308.859 72.7855 308.711 71.3092 308.711Z" fill="#262626"/>
<path d="M359.795 371.014C359.795 371.014 526.035 566.93 520.425 578.298C514.814 589.666 490.454 607.235 481.891 591.881C473.328 576.526 345.474 381.201 345.474 381.201L359.795 371.014Z" fill="#F5EE30"/>
<path d="M356.694 372.343L361.271 377.658C365.405 382.53 369.391 387.254 373.525 392.127C379.578 399.361 385.631 406.595 391.537 413.682C398.771 422.392 406.153 431.251 413.387 439.961C421.36 449.705 429.332 459.302 437.157 469.046C444.982 478.79 452.954 488.682 460.927 498.574C468.309 507.875 475.543 517.176 482.777 526.625C488.83 534.597 494.884 542.57 500.641 550.69C504.923 556.595 509.057 562.501 512.895 568.849C513.191 569.44 513.634 570.03 513.929 570.473C514.077 570.769 514.224 571.064 514.372 571.359C513.929 570.621 514.224 571.211 514.519 571.507C514.962 572.393 515.405 573.278 515.848 574.312C516.143 575.05 516.439 575.788 516.734 576.526C517.029 577.412 516.734 575.936 516.734 576.674C516.734 576.969 516.734 577.117 516.734 577.412C516.734 577.412 516.882 576.526 516.734 576.969C516.734 577.117 516.734 577.412 516.882 576.822C517.029 576.231 516.882 576.822 516.734 577.265L516.143 578.298C515.701 579.036 515.258 579.627 514.667 580.365C512.6 583.023 510.09 585.532 507.433 587.747C504.628 590.109 501.527 592.028 498.279 593.505C496.803 594.243 495.326 594.686 493.702 594.981C492.374 595.276 491.193 595.276 489.864 595.129L489.126 594.981C488.978 594.981 488.092 594.686 488.388 594.834C488.683 594.981 487.945 594.538 487.797 594.538C487.206 594.243 487.649 594.538 487.206 594.243C486.025 593.357 485.139 592.324 484.549 590.995C484.254 590.404 483.958 589.814 483.663 589.371C482.482 587.599 481.449 585.68 480.267 583.908C476.429 577.708 472.443 571.507 468.456 565.306C462.846 556.595 457.236 547.885 451.626 539.174C444.982 528.839 438.191 518.505 431.547 508.17C424.46 497.245 417.374 486.32 410.287 475.394C403.348 464.764 396.409 454.135 389.47 443.357C383.417 434.056 377.216 424.607 371.163 415.306C366.438 408.071 361.714 400.985 357.137 393.751L349.312 381.792L348.279 380.168L347.836 383.711L362.305 373.524C363.338 372.638 363.486 371.014 362.6 369.833C362.452 369.686 362.305 369.538 362.157 369.39C360.681 368.209 358.614 367.914 356.99 368.947L342.816 378.987C341.783 379.873 341.635 381.349 342.373 382.53C343.85 384.745 345.179 386.959 346.655 389.026L358.171 406.595C363.781 415.158 369.391 423.721 375.001 432.432C381.645 442.766 388.437 452.953 395.08 463.14C402.315 474.213 409.549 485.286 416.635 496.359C423.722 507.137 430.661 518.062 437.748 528.839C443.948 538.436 450.149 548.032 456.35 557.629C461.074 565.011 465.799 572.393 470.523 579.774C473.181 583.908 475.838 588.042 478.348 592.324C481.006 597.491 486.173 600.591 491.931 600.739C499.608 600.887 506.99 596.753 512.895 592.176C515.848 589.814 518.506 587.156 520.868 584.204C522.344 582.727 523.378 580.808 524.116 578.889C524.264 577.265 523.968 575.493 523.23 574.017C520.868 568.997 518.21 564.125 514.962 559.696C510.238 552.461 505.071 545.522 499.903 538.583C493.26 529.725 486.616 521.015 479.824 512.156C472.147 502.265 464.47 492.52 456.645 482.924C448.525 472.885 440.405 462.845 432.285 452.953C424.46 443.505 416.783 433.908 408.811 424.459C402.019 416.192 395.228 408.071 388.289 399.804C383.122 393.603 377.954 387.402 372.787 381.349C369.834 377.953 367.029 374.41 364.076 371.014C363.781 370.571 363.338 370.129 362.895 369.686C361.714 368.209 359.647 367.619 357.875 368.209C356.547 368.504 355.809 369.981 356.104 371.162C356.251 371.753 356.399 372.048 356.694 372.343Z" fill="#F5EE30"/>
<path d="M310.334 434.203C379.071 434.203 434.793 378.481 434.793 309.745C434.793 241.008 379.071 185.286 310.334 185.286C241.597 185.286 185.875 241.008 185.875 309.745C185.875 378.481 241.597 434.203 310.334 434.203Z" fill="white"/>
<path d="M204.331 380.168C219.243 401.576 240.355 417.816 264.863 426.674C289.371 435.532 316.684 437.747 342.077 431.841C409.105 416.192 450.739 349.164 435.089 281.989C426.231 243.898 399.951 212.304 364.371 196.506C340.306 185.876 313.731 182.333 287.747 186.172C219.685 196.654 173.032 260.434 183.662 328.347C185.581 340.453 189.124 352.264 194.439 363.337C197.244 369.095 200.492 374.853 204.331 380.168C204.922 381.054 206.989 381.202 207.874 381.202C208.76 381.349 209.646 381.497 210.532 381.497C210.68 381.497 211.713 381.497 211.713 381.349C172.441 324.951 186.467 247.442 242.865 208.17C251.428 202.117 260.876 197.245 270.621 193.701C293.062 185.434 318.16 183.367 341.339 189.863C365.699 196.802 387.255 210.975 403.199 230.463C446.753 283.613 438.78 362.156 385.631 405.562C377.363 412.353 368.209 417.963 358.465 422.393C336.615 432.432 311.221 436.271 287.451 431.694C263.091 426.674 240.798 414.273 223.819 396.261C219.39 391.536 215.256 386.664 211.713 381.349C211.122 380.611 209.055 380.463 208.17 380.316C207.284 380.168 206.398 380.02 205.512 380.02C205.365 380.02 204.183 380.02 204.331 380.168Z" fill="#F5EE30"/>
<path d="M309.597 349.902C298.967 340.305 289.518 329.528 281.398 317.864C275.64 309.301 270.325 299.41 272.244 289.223C272.982 285.089 275.787 280.66 280.069 280.66C283.169 280.66 285.679 283.17 287.746 285.679C293.209 292.323 297.638 299.557 301.034 307.382C308.415 293.209 316.388 278.445 329.528 269.439C333.809 266.486 339.567 264.272 344.144 267.077C347.392 268.996 348.868 272.983 348.721 276.821C348.425 280.512 347.392 284.203 345.768 287.599C336.467 309.744 325.837 331.447 311.664 350.935" fill="#262626"/>
<path d="M312.107 347.688C300.592 337.501 290.552 325.837 282.284 312.845C278.446 306.644 275.05 299.558 275.493 292.176C275.641 289.518 276.379 285.827 278.741 284.203C280.66 282.874 282.58 285.089 283.761 286.565C289.371 293.061 293.948 300.443 297.343 308.416C298.377 310.926 302.806 311.221 304.135 308.711C308.416 300.296 312.845 291.88 318.603 284.498C321.261 280.955 324.361 277.559 327.905 274.754C331.005 272.245 335.139 268.849 339.273 268.996C343.111 269.144 344.735 273.13 344.735 276.526C344.735 281.546 341.93 286.713 340.011 291.29C336.025 300.886 331.595 310.335 326.576 319.489C321.113 329.971 314.912 340.01 307.973 349.459C307.235 350.788 307.678 352.56 309.007 353.298C309.154 353.445 309.302 353.445 309.45 353.593C311.221 354.331 313.288 353.741 314.469 352.264C328.052 333.514 338.534 312.845 347.54 291.585C349.755 286.418 352.412 280.955 351.97 275.345C351.674 270.325 348.722 265.306 343.702 263.682C333.22 260.286 322.737 269.587 316.241 276.821C308.416 285.532 302.806 295.867 297.491 306.349L304.282 306.644C300.739 298.376 296.015 290.699 290.257 283.613C287.599 280.365 284.056 277.707 279.775 277.707C275.788 277.855 272.393 280.217 270.473 283.613C266.192 291.142 268.259 300.886 271.654 308.268C275.345 316.241 280.66 323.475 286.123 330.266C292.471 338.239 299.558 345.621 307.088 352.412C310.04 354.922 315.503 350.788 312.107 347.688Z" fill="#262626"/>
<path d="M273.426 257.924L268.849 253.347C268.406 252.756 267.668 252.313 267.077 252.018C266.782 251.87 266.192 251.87 266.044 252.313V252.756C266.044 253.199 266.192 253.642 266.487 254.085C266.93 254.971 267.373 255.709 268.111 256.447L272.688 261.024C273.131 261.614 273.869 262.205 274.459 262.5C274.755 262.648 275.345 262.648 275.493 262.205V261.762C275.493 261.319 275.345 260.876 275.05 260.433C274.607 259.548 274.164 258.662 273.426 257.924Z" fill="#F5EE30"/>
<path d="M257.924 264.567C257.628 264.567 257.481 264.567 257.186 264.567H258.071C257.776 264.567 257.333 264.567 257.038 264.42L257.924 264.567C257.333 264.567 256.89 264.42 256.447 264.272L257.038 264.567C256.447 264.42 256.004 264.124 255.561 263.682C255.266 263.534 254.823 263.386 254.528 263.386C254.085 263.386 253.642 263.386 253.199 263.386C252.313 263.534 251.28 263.829 250.394 264.272L249.804 264.715C249.508 265.01 249.213 265.306 249.065 265.748V266.339C249.213 266.782 249.508 267.077 249.804 267.225C250.099 267.52 250.542 267.668 250.837 267.815C251.428 268.111 252.018 268.258 252.609 268.554C253.937 268.849 255.266 268.996 256.743 268.849C257.628 268.849 258.662 268.554 259.548 267.963C259.843 267.815 260.138 267.52 260.434 267.225C260.729 267.077 260.876 266.782 260.876 266.487V265.896C260.729 265.453 260.581 265.158 260.138 265.01C259.548 264.567 258.662 264.42 257.924 264.567Z" fill="#F5EE30"/>
<path d="M401.723 295.424C402.461 309.449 403.347 324.804 395.965 337.5C395.227 339.124 395.522 340.896 396.703 342.225C397.294 342.963 399.508 344.735 400.394 343.258C408.514 329.233 407.924 312.697 407.038 297.048C406.89 295.276 405.709 293.652 403.937 292.914C402.018 292.471 401.575 294.095 401.723 295.424Z" fill="#F5EE30"/>
<path d="M390.946 349.312L385.631 359.942C385.484 360.237 385.927 360.827 386.074 360.975C386.517 361.713 386.96 362.451 387.551 363.19C388.141 363.928 388.584 364.518 389.175 365.109C389.322 365.257 390.06 365.995 390.06 365.699L395.375 355.069C395.523 354.774 395.08 354.184 394.932 354.036C394.49 353.298 394.047 352.56 393.456 351.821C392.866 351.083 392.423 350.493 391.832 349.755C391.832 349.902 391.094 349.164 390.946 349.312Z" fill="#F5EE30"/>
</svg>
