<svg width="685" height="529" viewBox="0 0 685 529" fill="none" xmlns="http://www.w3.org/2000/svg">
<path d="M353.697 482.396C349.469 484.369 344.817 485.356 340.166 485.215C333.119 484.933 310.004 480.423 299.856 492.121C289.708 503.819 316.769 506.92 321.139 506.638C325.508 506.356 356.939 487.611 356.939 487.611C358.207 484.51 353.697 482.396 353.697 482.396ZM336.079 494.517C336.079 494.517 322.548 503.256 312.682 500.437C302.816 497.618 307.467 489.584 318.883 487.893C330.3 486.201 341.012 490.148 336.079 494.517Z" fill="#262626"/>
<path d="M320.715 507.343C316.627 507.343 300.7 505.652 297.6 499.309C296.472 497.054 297.036 494.376 299.432 491.698C308.312 481.409 326.493 483.241 336.219 484.228C337.769 484.369 339.179 484.51 340.165 484.51C344.675 484.51 349.186 483.523 353.273 481.691L353.555 481.55L353.837 481.691C353.978 481.832 358.77 483.946 357.642 487.752L357.501 488.034L357.22 488.174C353.978 490.148 325.507 506.92 320.997 507.202L320.715 507.343ZM323.815 484.792C315.359 484.792 306.056 486.201 300.56 492.544C298.586 494.799 298.023 496.913 298.868 498.604C301.546 504.101 317.332 506.215 321.278 505.793C324.802 505.511 347.776 492.262 356.515 487.047C356.938 485.074 354.542 483.523 353.696 483.1C349.468 484.933 344.816 485.919 340.165 485.919C339.179 485.919 337.769 485.778 336.078 485.637C331.99 485.074 327.903 484.933 323.815 484.792ZM317.05 501.705C315.5 501.705 313.949 501.564 312.54 501.141C308.593 500.014 306.479 497.9 306.62 495.363C306.902 491.698 311.976 488.174 318.882 487.188C327.48 485.919 336.219 487.752 337.769 491.134C338.051 491.839 338.474 493.389 336.501 495.081H336.36C336.078 495.504 326.212 501.705 317.05 501.705ZM324.379 488.315C322.547 488.315 320.856 488.456 319.023 488.738C312.117 489.725 308.171 492.967 308.03 495.504C307.889 497.336 309.721 498.886 312.822 499.732C321.983 502.41 334.668 494.517 335.514 493.953C336.782 492.826 336.501 491.98 336.36 491.839C335.655 489.866 330.581 488.315 324.379 488.315Z" fill="#262626"/>
<path d="M354.824 483.101L418.954 457.448C418.954 457.448 415.29 464.637 405.424 471.825C395.557 479.013 357.079 485.778 357.079 485.778L354.824 483.101Z" fill="#F5EE30"/>
<path d="M356.939 486.483L353.697 482.819L420.505 456.18L419.66 457.871C419.519 458.153 415.854 465.201 405.988 472.53C396.122 479.859 358.912 486.342 357.362 486.624L356.939 486.483ZM356.093 483.383L357.503 484.933C361.59 484.228 395.981 477.886 405.142 471.261C409.934 467.879 414.022 463.791 417.405 458.858L356.093 483.383Z" fill="#F5EE30"/>
<path d="M360.884 489.02C360.884 489.02 337.064 511.853 337.346 514.672C337.628 517.491 346.649 534.123 362.998 525.807C379.348 517.491 368.777 503.538 367.086 499.168C365.394 494.799 369.341 490.148 369.341 490.148C366.804 488.879 363.844 488.457 360.884 489.02ZM366.381 513.263C365.676 520.733 353.978 524.961 348.199 519.183C342.42 513.404 353.555 503.397 353.555 503.397C359.616 499.591 367.227 505.793 366.381 513.263Z" fill="#262626"/>
<path d="M354.26 528.908C351.441 528.908 348.622 528.203 346.085 526.794C340.165 523.411 336.642 516.927 336.501 514.813C336.36 511.853 354.683 493.953 360.321 488.597L360.462 488.456H360.602C363.703 487.752 366.945 488.175 369.623 489.866L370.328 490.289L369.764 490.852C369.764 490.852 366.24 495.222 367.65 499.168C367.932 499.732 368.354 500.578 368.777 501.564C370.751 505.37 373.851 511.571 371.878 517.632C370.751 521.297 367.791 524.256 363.139 526.653C360.602 528.062 357.361 528.908 354.26 528.908ZM361.307 489.725C350.032 500.719 338.192 512.981 338.051 514.813C338.192 516.364 341.293 522.424 346.79 525.666C351.582 528.485 356.938 528.344 362.576 525.525C366.804 523.411 369.623 520.592 370.61 517.35C372.442 511.994 369.482 506.216 367.509 502.41C366.945 501.423 366.522 500.578 366.24 499.873C364.831 496.208 367.086 492.403 368.073 490.852C366.24 489.443 363.703 489.161 361.307 489.725ZM355.247 522.706C352.428 522.706 349.75 521.719 347.776 519.746C346.508 518.478 345.803 516.786 345.803 515.095C345.944 509.457 352.85 503.256 353.132 502.974C355.81 501.141 359.334 501.141 362.153 502.974C365.677 505.229 367.65 509.175 367.227 513.404C366.804 517.068 363.985 520.31 359.898 521.86C358.347 522.424 356.797 522.706 355.247 522.706ZM353.978 504.101C353.978 504.101 347.354 510.021 347.213 515.095C347.213 516.505 347.636 517.773 348.763 518.76C351.723 521.297 355.81 522.001 359.334 520.592C362.999 519.323 365.536 516.504 365.817 513.263C366.24 509.598 364.408 506.075 361.448 504.242C359.193 502.692 356.233 502.692 353.978 504.101Z" fill="#262626"/>
<path d="M368.213 489.725L397.53 445.045C390.342 447.582 383.717 451.247 377.656 455.898C368.213 463.227 363.844 488.738 363.844 488.738L368.213 489.725Z" fill="#F5EE30"/>
<path d="M368.638 490.571L363.141 489.302L363.282 488.597C363.423 487.611 367.792 462.804 377.376 455.334C383.437 450.683 390.343 447.018 397.531 444.481L399.505 443.777L368.638 490.571ZM364.691 488.175L367.933 488.879L395.84 446.455C389.497 448.992 383.578 452.374 378.081 456.462C369.765 462.945 365.396 484.228 364.691 488.175Z" fill="#F5EE30"/>
<path d="M370.611 476.899C370.611 476.899 369.201 477.04 369.201 478.449C369.201 479.859 370.329 479.718 370.892 479.577C372.302 479.013 372.584 476.758 370.611 476.899Z" fill="#262626"/>
<path d="M370.328 480.282C369.906 480.282 369.483 480.141 369.201 480C368.778 479.577 368.496 479.013 368.496 478.449C368.496 477.322 369.483 476.335 370.61 476.194C371.597 476.053 372.443 476.617 372.724 477.604C372.865 478.731 372.161 479.859 371.174 480.141C370.892 480.141 370.61 480.282 370.328 480.282ZM370.751 477.604C370.61 477.604 369.906 477.745 369.906 478.449C369.906 478.59 369.906 478.731 370.047 478.872C370.328 479.013 370.469 479.013 370.751 478.872C371.174 478.731 371.456 478.308 371.315 477.886C371.315 477.745 371.315 477.463 370.751 477.604Z" fill="#262626"/>
<path d="M287.17 465.341C287.17 465.341 264.901 454.207 228.114 465.482C191.328 476.758 160.32 491.98 150.735 481.127C141.151 470.274 137.205 466.892 129.453 469.851C129.453 469.851 127.479 491.98 126.493 495.363C125.506 498.745 85.6187 511.007 63.4903 493.671C63.4903 493.671 58.8391 455.475 60.5305 447.582C62.2218 439.689 100.841 425.736 127.057 426.158C153.272 426.581 145.802 445.75 163.843 448.428C181.884 451.106 227.41 423.621 257.008 425.031C286.607 426.44 298.869 430.951 298.869 430.951L287.17 465.341Z" fill="#F5EE30"/>
<path d="M94.4988 503.255C83.646 503.255 71.9475 501 63.068 494.094L62.7861 493.953V493.671C62.6451 492.121 58.1349 455.334 59.8262 447.441C61.6585 439.125 100.7 425.031 127.057 425.454C141.997 425.736 146.367 432.219 150.313 437.857C153.414 442.367 156.233 446.595 163.844 447.723C172.019 448.992 186.536 443.636 202.04 437.857C220.222 431.091 240.941 423.48 257.009 424.326C286.466 425.736 298.588 430.105 299.151 430.246L299.715 430.528L287.594 466.328L286.889 466.046C286.607 465.905 264.479 455.193 228.256 466.187C219.235 468.865 210.779 471.825 202.604 474.644C177.516 483.241 157.642 490.148 150.172 481.691C141.011 471.402 137.205 467.878 130.158 470.415C129.876 473.657 128.044 492.403 127.339 495.503C127.057 496.913 123.533 498.322 120.715 499.309C112.258 501.846 103.378 503.255 94.4988 503.255ZM64.1955 493.107C77.8672 503.537 99.2909 503.255 114.936 499.309C122.124 497.477 125.507 495.644 125.789 494.94C126.634 491.698 128.608 469.851 128.608 469.57V469.147L129.03 469.006C137.064 465.905 141.434 469.71 151.018 480.563C157.924 488.456 177.375 481.691 202.04 473.234C210.215 470.415 218.672 467.455 227.692 464.777C260.673 454.77 282.379 462.522 286.607 464.355L297.883 431.373C294.923 430.528 282.379 426.863 256.868 425.736C241.082 425.031 220.645 432.501 202.463 439.125C186.113 445.045 172.16 450.26 163.562 448.992C155.387 447.723 152.145 443.072 149.045 438.562C145.098 432.924 141.152 427.004 126.916 426.722H125.507C98.7271 426.722 62.6451 440.676 61.0947 447.582C59.6853 454.911 63.7727 489.584 64.1955 493.107Z" fill="#F5EE30"/>
<path d="M80.8267 445.891C88.1559 452.656 100.136 454.77 108.311 448.146C110.002 446.736 112.117 445.045 112.117 442.649C112.117 439.83 109.58 437.575 107.465 436.306C102.955 433.629 97.5992 433.065 92.6661 434.897C90.6929 435.743 87.733 437.716 88.7197 440.253C89.7063 442.79 94.3575 445.891 96.6126 443.636C97.8811 442.508 92.3842 438.28 90.6929 439.83L94.0756 441.24L94.9213 442.367C94.0756 440.958 97.4583 439.407 98.4449 438.984C99.9953 438.421 101.828 438.28 103.519 438.421C103.942 438.421 104.365 438.562 104.787 438.562C105.21 438.703 105.633 438.843 106.056 438.843H106.338L105.915 438.562C105.915 438.562 106.197 439.407 106.197 439.125C106.62 440.958 104.646 442.649 103.378 443.636C100.418 446.032 96.8945 447.3 93.089 447.441C91.3976 447.441 89.7063 447.159 88.1559 446.595C86.7464 446.032 85.4779 445.186 84.3504 444.199C83.5047 443.495 81.2496 442.085 80.122 442.79C78.9944 443.495 80.2629 445.327 80.8267 445.891Z" fill="white"/>
<path d="M66.3086 457.026V465.905C66.3086 466.469 67.0133 466.892 67.4362 467.033C69.1275 467.596 70.8188 467.455 72.3692 466.751C72.7921 466.469 73.3559 466.046 73.3559 465.482V456.603C73.3559 456.039 72.6511 455.616 72.2283 455.475C71.3826 455.193 70.5369 455.052 69.6913 455.193C68.8456 455.193 67.9999 455.475 67.1543 455.898C66.7314 456.039 66.3086 456.462 66.3086 457.026Z" fill="#262626"/>
<path d="M80.6853 457.871V471.825C80.6853 472.952 82.7995 473.657 83.6452 473.939C84.4908 474.221 85.1955 474.503 86.0412 474.503C86.3231 474.503 87.3097 474.503 87.3097 474.08V460.126C87.3097 458.999 85.1956 458.294 84.3499 458.012C83.5042 457.73 82.7995 457.448 81.9538 457.448C81.6719 457.448 80.6853 457.448 80.6853 457.871Z" fill="#262626"/>
<path d="M93.5123 455.334C93.3714 456.885 93.5123 458.294 93.7942 459.704C93.9352 460.267 94.358 460.69 94.7808 461.113C95.4856 461.818 96.1903 462.241 97.036 462.804L97.7407 463.227C98.1635 463.368 98.5864 463.65 99.0092 463.65C99.2911 463.65 99.8549 463.791 99.7139 463.368C99.432 461.959 99.2911 460.408 99.432 458.858C99.432 458.576 99.2911 458.435 99.1501 458.294C99.0092 458.012 98.7273 457.73 98.4454 457.589C97.7407 456.885 97.036 456.321 96.3312 455.898L95.6265 455.475C95.2037 455.334 94.7808 455.052 94.358 455.052H93.9352C93.7942 454.911 93.6533 455.052 93.5123 455.334C93.6533 455.334 93.6533 455.334 93.5123 455.334Z" fill="#262626"/>
<path d="M109.719 452.797C109.578 457.448 109.719 461.959 109.859 466.61C110 467.456 110.423 468.442 110.987 469.147C111.41 469.852 112.115 470.274 112.96 470.556C113.524 470.697 114.229 470.556 114.652 469.993C115.074 469.429 115.215 468.583 115.074 467.878C115.074 467.596 115.074 467.174 115.074 467.596V466.751V465.2C115.074 464.073 115.074 463.086 115.074 461.959C115.074 459.844 115.074 457.73 115.215 455.616C115.215 453.784 114.37 452.092 112.819 451.247C112.256 450.824 111.551 450.824 110.987 451.106C110.423 451.529 110.141 452.092 110.141 452.797H109.719Z" fill="#262626"/>
<path d="M59.4022 450.26C66.4495 454.488 74.9062 456.18 82.9401 457.307C91.2559 458.576 99.5717 458.858 107.887 458.294C114.935 457.589 122.123 455.757 128.043 451.529C133.68 447.441 137.768 440.817 134.526 433.91C130.862 426.299 119.163 424.749 112.398 428.555C111.129 429.259 112.821 429.823 113.525 429.964C115.076 430.387 116.767 430.387 118.317 429.823C120.713 428.414 121.982 428.273 124.378 429.823C126.633 431.514 128.043 433.91 128.606 436.588C129.734 442.508 125.506 447.582 120.854 450.683C111.129 457.448 97.8803 456.885 86.6047 455.334C79.4165 454.348 71.8054 453.079 65.4629 449.273C63.9125 448.569 62.3621 448.287 60.6708 448.569C60.2479 448.851 58.1337 449.414 59.4022 450.26Z" fill="#262626"/>
<path d="M127.902 445.327L127.761 492.826C127.761 495.081 134.668 495.926 134.668 494.094L134.809 446.596C134.809 444.34 127.902 443.495 127.902 445.327Z" fill="#262626"/>
<path d="M157.077 446.455C155.668 459.281 154.822 472.107 154.822 484.933C154.963 486.765 156.091 488.316 157.641 489.02C158.487 489.443 159.614 489.161 160.037 488.316C160.178 488.034 160.319 487.611 160.178 487.188C160.178 474.785 160.883 462.523 162.433 450.26C162.574 448.569 161.729 446.878 160.319 445.891C159.333 445.045 157.218 444.763 157.077 446.455Z" fill="#262626"/>
<path d="M201.898 439.407V456.603C201.898 461.536 202.462 466.892 200.63 471.543C199.22 475.207 204.999 478.872 206.69 474.926C208.804 469.57 208.382 463.65 208.382 458.012V439.407C208.241 437.575 206.69 436.025 204.717 436.025C202.885 436.025 202.039 437.575 201.898 439.407Z" fill="#262626"/>
<path d="M252.075 427.286C252.075 433.065 252.075 438.703 252.075 444.481C252.075 447.3 252.075 450.119 252.075 452.797C252.216 455.475 251.793 458.012 250.947 460.549C249.538 463.791 256.585 464.778 257.713 461.959C259.827 456.885 259.263 450.683 259.263 445.327C259.263 439.407 259.263 433.488 259.263 427.427C259.122 424.044 252.075 423.903 252.075 427.286Z" fill="#262626"/>
<path d="M289.424 428.414L284.069 448.428C283.223 451.811 282.236 455.193 281.391 458.576C280.545 461.959 279.135 466.046 282.236 468.583C284.209 470.134 288.156 470.556 290.552 470.134C293.371 469.711 295.767 467.878 296.895 465.2C299.573 459.281 299.713 452.233 300.277 445.891C300.7 442.226 301.123 438.703 301.969 435.179C302.391 433.206 301.687 431.092 300.136 429.823C298.586 428.696 296.331 428.555 294.499 428.273C290.693 427.427 291.961 434.192 295.062 434.756C296.472 435.038 297.881 435.32 299.291 435.602L297.881 434.897L298.163 435.038L296.613 432.783L296.754 433.206L296.613 431.515C296.049 435.038 295.203 438.421 294.921 442.085C294.639 445.75 294.217 449.274 293.653 452.938C293.23 455.757 292.948 459.704 291.116 462.1C289.284 464.496 285.619 463.65 283.082 462.945L284.491 463.65L284.21 463.368L285.619 465.623L285.478 465.2L285.619 466.892C286.183 460.972 288.297 454.911 289.847 449.274L294.639 431.233C295.626 428.132 290.552 424.185 289.424 428.414Z" fill="#262626"/>
<path d="M273.782 425.031L272.795 431.655C272.795 432.219 272.936 432.783 273.077 433.347C273.359 434.192 273.782 435.038 274.345 435.743C274.627 436.307 275.191 436.87 275.614 437.434C275.755 437.575 276.319 437.857 276.319 437.434L277.305 430.81C277.305 430.246 277.164 429.682 277.023 429.118C276.741 428.273 276.319 427.427 275.755 426.722C275.473 426.158 274.909 425.454 274.486 425.031C274.345 424.89 273.922 424.608 273.782 425.031Z" fill="#262626"/>
<path d="M237.133 428.273V435.602C237.274 437.434 238.542 438.985 240.234 439.548C240.938 439.83 241.643 439.689 242.207 439.267C242.771 438.844 243.053 438.139 242.912 437.434V430.105C242.771 429.259 242.489 428.414 241.925 427.709C241.361 427.004 240.656 426.441 239.811 426.159C239.106 425.877 238.401 426.018 237.838 426.441C237.415 426.863 237.133 427.568 237.133 428.273Z" fill="#262626"/>
<path d="M219.375 433.628C219.516 437.575 219.516 441.38 219.234 445.327C219.234 445.891 219.939 446.173 220.362 446.314C222.053 446.877 223.745 446.736 225.295 446.032C225.718 445.75 226.282 445.468 226.282 444.904C226.423 440.958 226.564 437.011 226.423 433.206C226.423 432.642 225.718 432.36 225.295 432.219C224.449 431.937 223.604 431.796 222.758 431.937C221.912 431.937 221.067 432.219 220.362 432.501C219.939 432.642 219.375 433.065 219.375 433.628Z" fill="#262626"/>
<path d="M188.086 445.891V453.502C188.086 453.784 189.354 453.502 189.213 453.502C190.059 453.22 190.764 452.938 191.469 452.515C192.173 452.092 192.878 451.67 193.583 451.106C193.865 450.824 194.147 450.542 194.147 450.119V442.508C194.147 442.226 192.878 442.508 193.019 442.508C192.173 442.79 191.469 443.072 190.764 443.495C190.059 443.918 189.354 444.34 188.65 444.904C188.509 445.186 188.086 445.468 188.086 445.891Z" fill="#262626"/>
<path d="M170.327 448.569L169.34 457.448C169.199 458.294 169.34 459.281 169.763 459.985C170.186 460.831 170.749 461.395 171.595 461.818C172.3 462.1 173.145 462.1 173.85 461.818C174.555 461.395 174.978 460.831 175.119 459.985L176.105 451.106C176.246 450.26 176.105 449.274 175.683 448.569C175.26 447.723 174.696 447.159 173.85 446.737C173.145 446.455 172.3 446.455 171.595 446.737C170.89 447.018 170.468 447.723 170.327 448.569Z" fill="#262626"/>
<path d="M143.828 438.985V446.596C143.828 446.877 144.674 447.159 144.674 447.3C145.379 447.582 146.224 447.864 147.07 448.146C147.352 448.146 150.594 448.992 150.594 448.569V440.958C150.594 440.676 149.748 440.394 149.748 440.253C149.043 439.971 148.198 439.689 147.352 439.407C147.07 439.548 143.828 438.562 143.828 438.985Z" fill="#262626"/>
<path d="M519.024 73.6543H86.6035V406.426H519.024V73.6543Z" fill="white"/>
<path d="M516.911 403.748H101.968C96.3306 403.748 90.6927 403.607 85.1959 403.748H84.4912L89.1424 408.681V78.1646C89.1424 77.6008 89.1424 77.037 89.1424 76.4733C89.0014 75.9095 89.1423 76.4733 88.8605 76.4733C92.3841 76.1914 96.1896 76.4733 99.7133 76.4733H521.281L516.629 71.5402V390.64C516.629 395.01 516.488 399.379 516.629 403.607V404.171C516.629 405.44 518.321 406.99 519.166 407.695C519.448 407.836 521.563 409.809 521.563 408.822V89.5812C521.563 85.2119 521.703 80.8426 521.563 76.6142C521.563 76.4733 521.563 76.1914 521.563 76.0504C521.563 74.641 518.321 71.1173 516.911 71.1173H101.968C96.3306 71.1173 90.6927 70.9764 85.1959 71.1173C84.914 71.1173 84.773 71.1173 84.4912 71.1173C84.2093 71.1173 84.2093 71.2583 84.2093 71.3992V390.499C84.2093 394.869 83.9274 399.238 84.2093 403.466V404.03C84.2093 405.44 87.451 408.963 88.8605 408.963H503.662C509.3 408.963 514.938 409.104 520.435 408.963H521.14C522.126 408.963 520.294 406.708 520.153 406.426C519.589 405.721 518.039 403.748 516.911 403.748Z" fill="#262626"/>
<path d="M160.037 74.4998L171.595 90.1448C173.427 92.5408 175.259 95.0779 177.092 97.4739C177.937 98.7424 179.347 99.4472 180.756 99.5881C185.407 99.87 190.059 99.5881 194.569 99.5881H225.718L269.27 99.4471L320.292 99.3062L374.133 99.1653L425.719 99.0243L469.976 98.8834L502.253 98.7424C507.467 98.7424 512.682 98.7424 517.757 98.7424H518.461C523.112 98.7424 521.421 92.8227 517.616 92.8227H508.595H483.93L447.566 92.9637L403.309 93.1046L354.683 93.2456L305.634 93.5275L259.968 93.6684L221.208 93.8093H193.3C188.931 93.8093 184.562 93.6684 180.192 93.8093H179.629L182.73 95.5007L165.252 72.1038C164.125 70.6943 162.292 70.1305 160.601 70.6943C159.333 71.399 158.91 72.8085 159.474 74.077C159.755 74.2179 159.896 74.3589 160.037 74.4998Z" fill="#262626"/>
<path d="M102.108 86.3394C102.108 86.3394 96.4704 86.6213 99.2893 92.541C102.108 98.4607 106.618 96.4875 107.746 92.541C108.874 88.5945 104.222 85.7756 102.108 86.3394Z" fill="#F5EE30"/>
<path d="M103.8 97.0512C102.531 97.0512 100.417 96.4875 98.7258 92.9638C97.7392 90.8496 97.5983 89.1583 98.444 87.7488C99.2896 86.6213 100.699 85.7756 102.109 85.7756C103.941 85.4937 105.773 86.1984 106.901 87.6079C108.31 88.8764 109.015 90.9906 108.451 92.9638C108.028 95.078 106.196 96.7694 104.082 97.1922L103.8 97.0512ZM102.813 87.0441C102.672 87.0441 102.531 87.0441 102.39 87.0441H102.249C101.263 87.0441 100.276 87.6079 99.5715 88.4536C99.0077 89.2992 99.1487 90.5678 99.9944 92.2591C101.122 94.5142 102.531 95.6418 103.941 95.6418C105.491 95.3599 106.76 94.0914 107.183 92.4C107.605 90.9906 107.042 89.4402 106.055 88.4536C105.068 87.6079 103.941 87.0441 102.813 87.0441Z" fill="#F5EE30"/>
<path d="M125.788 86.3394C125.788 86.3394 120.15 86.6213 122.969 92.541C125.788 98.4607 130.298 96.4875 131.426 92.541C132.553 88.5945 127.902 85.7756 125.788 86.3394Z" fill="#F5EE30"/>
<path d="M127.339 97.0512C126.07 97.0512 123.956 96.4875 122.265 92.9638C121.278 90.8496 121.137 89.1583 121.983 87.7488C122.829 86.6213 124.238 85.7756 125.648 85.7756C127.48 85.4937 129.312 86.1984 130.581 87.6079C131.99 88.8764 132.695 90.9906 132.131 92.9638C131.708 95.078 129.876 96.7694 127.762 97.1922L127.339 97.0512ZM126.352 87.0441C126.211 87.0441 126.07 87.0441 125.929 87.0441H125.789C124.802 87.0441 123.815 87.6079 123.111 88.4536C122.547 89.2992 122.688 90.5678 123.533 92.2591C124.661 94.5142 126.07 95.6418 127.48 95.6418C129.03 95.3599 130.299 94.0914 130.722 92.4C131.144 90.9906 130.581 89.4402 129.594 88.4536C128.748 87.6079 127.621 87.0441 126.352 87.0441Z" fill="#F5EE30"/>
<path d="M146.223 86.3394C146.223 86.3394 140.586 86.6213 143.405 92.541C146.223 98.4607 150.734 96.4875 151.861 92.541C152.989 88.5945 148.338 85.7756 146.223 86.3394Z" fill="#F5EE30"/>
<path d="M147.774 97.0512C146.506 97.0512 144.392 96.4875 142.7 92.9638C141.714 90.8496 141.573 89.1583 142.419 87.7488C143.264 86.6213 144.674 85.7756 146.083 85.7756C147.915 85.4937 149.748 86.1984 151.016 87.6079C152.426 88.8764 153.13 90.9906 152.567 92.9638C152.144 95.078 150.312 96.7694 148.197 97.1922L147.774 97.0512ZM146.788 87.0441C146.647 87.0441 146.506 87.0441 146.365 87.0441H146.224C145.237 87.0441 144.251 87.6079 143.546 88.4536C142.982 89.2992 143.123 90.5678 143.969 92.2591C145.097 94.5142 146.506 95.6418 147.915 95.6418C149.466 95.3599 150.734 94.0914 151.157 92.4C151.58 90.9906 151.016 89.4402 150.03 88.4536C149.184 87.6079 148.056 87.0441 146.788 87.0441Z" fill="#F5EE30"/>
<path d="M306.902 326.228H154.117C152.144 326.228 149.889 326.087 147.915 326.228H147.633L151.58 330.738V214.599C151.721 213.049 151.721 211.358 151.58 209.807V209.666L150.593 211.358H303.378C305.351 211.358 307.465 211.499 309.58 211.358H309.861L305.915 206.847V312.979C305.915 317.912 305.633 322.845 305.915 327.779V327.919C306.056 329.752 307.043 331.302 308.593 332.148C310.002 332.853 310.707 332.148 310.707 330.738V224.607C310.707 219.674 310.989 214.74 310.707 209.807V209.666C310.707 207.834 308.734 205.156 306.761 205.156H154.117C152.144 205.156 149.889 205.015 147.915 205.156H147.633C146.647 205.156 146.647 206.284 146.647 206.847V312.979C146.647 317.912 146.365 322.845 146.647 327.779V327.919C146.647 329.752 148.62 332.43 150.593 332.43H303.378C305.351 332.43 307.606 332.571 309.58 332.43H309.861C311.412 332.43 310.707 329.893 310.425 329.188C309.72 327.92 308.452 326.228 306.902 326.228Z" fill="#F5EE30"/>
<path d="M151.721 331.02L167.648 318.899L205.703 289.864L251.651 254.91L291.398 224.748C297.881 219.815 304.506 215.163 310.848 209.948L311.13 209.807C312.117 209.103 312.258 207.834 311.553 206.989C311.412 206.707 311.13 206.566 310.848 206.425C309.298 205.579 307.324 205.72 305.915 206.848L289.988 218.969L251.933 248.004L205.985 282.958L166.097 312.979C159.614 317.912 152.989 322.564 146.788 327.779L146.506 327.92C145.66 328.624 145.378 329.893 146.083 330.738C146.224 331.02 146.506 331.161 146.788 331.302C148.338 332.148 150.311 332.007 151.721 331.02Z" fill="#F5EE30"/>
<path d="M311.835 328.765L295.908 316.644L257.853 287.75L211.905 252.796L172.158 222.633L159.05 212.626C157.077 210.935 154.963 209.385 152.848 207.834C152.707 207.834 152.707 207.693 152.567 207.693C151.862 207.129 149.748 207.834 149.043 207.834C148.197 207.975 147.352 208.116 146.647 208.398C146.506 208.398 145.519 208.821 145.66 208.821L161.587 220.942L199.642 249.977L245.59 284.931L285.337 315.094L298.445 325.101C300.418 326.792 302.532 328.342 304.647 329.893L304.928 330.034C305.633 330.598 307.606 330.034 308.452 329.893C309.298 329.752 310.143 329.611 310.848 329.329C310.848 329.188 311.835 328.906 311.835 328.765Z" fill="#F5EE30"/>
<path d="M202.32 130.455C203.448 119.602 213.032 111.709 224.026 112.837L435.726 134.12C446.578 135.247 454.471 144.832 453.344 155.825C452.216 166.678 442.632 174.571 431.638 173.443L219.938 152.161C209.086 151.033 201.193 141.308 202.32 130.455Z" fill="#F5EE30"/>
<path d="M432.906 170.907L425.718 170.202L406.409 168.229L378.361 165.41L345.238 162.027L310.143 158.503L276.88 155.121L248.55 152.302L228.959 150.329C226.422 150.047 223.744 149.765 221.207 149.483C211.481 148.355 204.575 139.476 205.843 129.751C206.407 124.677 209.226 120.166 213.455 117.206C217.824 114.388 222.334 114.951 226.985 115.374L243.617 117.066L269.833 119.744L302.25 122.985L337.064 126.509L371.172 129.892L400.912 132.851L423.04 135.107L433.893 136.234C437.417 136.516 440.658 137.785 443.477 140.04C449.397 144.973 451.652 153.148 448.833 160.477C446.296 167.242 439.813 171.47 432.906 170.907C431.215 170.625 429.383 171.47 428.396 172.88C427.691 174.43 428.96 175.558 430.51 175.699C439.39 176.544 448.128 172.598 453.203 165.128C457.854 158.222 457.995 149.201 453.766 142.013C450.102 135.952 443.759 132.147 436.712 131.442L434.034 131.16L418.671 129.61L392.878 127.073L360.32 123.831L324.801 120.307L289.706 116.784L258.98 113.683L236.429 111.428L225.435 110.3C220.643 109.736 215.851 110.582 211.481 112.696C203.87 116.361 198.937 123.972 198.655 132.429C198.514 140.885 203.447 148.637 211.058 152.443C213.736 153.711 216.696 154.416 219.656 154.698L231.918 155.966L255.456 158.363L286.605 161.463L321.982 164.987L357.36 168.511L389.354 171.752L414.302 174.289L428.396 175.699L430.228 175.84C431.92 176.122 433.752 175.276 434.739 173.726C435.584 172.316 434.316 171.048 432.906 170.907Z" fill="#F5EE30"/>
<path d="M421.069 139.758C416.277 139.899 412.19 143.422 411.485 148.215C410.498 153.711 412.895 159.208 417.546 162.168C421.633 164.564 427.13 164.987 430.936 161.886C434.459 158.926 435.869 154.134 434.741 149.765C433.895 146.805 431.922 144.268 429.244 142.718C426.989 141.59 424.593 140.885 422.056 140.603C420.365 140.322 419.519 142.154 419.942 143.563C420.224 145.255 421.633 146.664 423.324 147.087C424.029 147.228 424.875 147.228 425.58 147.51L426.143 147.651C426.284 147.651 426.707 147.792 426.143 147.651C426.566 147.792 426.848 147.933 427.271 148.074C427.694 148.215 428.539 148.637 427.835 148.215C428.117 148.355 428.398 148.637 428.68 148.778C428.117 148.215 428.962 148.919 428.68 148.778L428.962 149.06C429.526 149.624 428.821 148.919 428.821 148.919L429.103 149.342C429.244 149.624 429.244 149.624 429.103 149.342L428.962 149.201L429.103 149.624C429.244 149.906 429.103 149.906 429.103 149.483C429.103 149.906 429.244 150.188 429.244 150.611C429.244 149.906 429.385 151.033 429.244 150.611V151.033C429.244 151.174 429.244 151.456 429.244 151.597V152.02C429.244 151.738 429.244 151.738 429.244 151.879C429.103 152.584 428.821 153.289 428.539 153.993C428.399 154.416 428.821 153.43 428.539 154.134C428.399 154.275 428.399 154.416 428.258 154.557C427.976 154.98 427.835 155.262 427.553 155.544C427.553 155.685 427.13 155.967 427.412 155.685C427.271 155.826 427.13 155.967 426.989 155.967C426.707 156.248 426.284 156.53 425.861 156.671C425.721 156.812 425.016 157.094 425.298 156.953C424.875 157.094 424.452 157.235 423.888 157.376C423.465 157.517 423.184 157.517 422.761 157.517C421.915 157.658 423.043 157.517 422.62 157.517H421.915C421.633 157.517 421.21 157.517 420.928 157.376C420.928 157.376 420.083 157.235 420.506 157.235C420.928 157.235 419.942 157.094 419.942 157.094C419.66 156.953 419.237 156.812 418.955 156.671C418.25 156.389 419.237 156.953 418.814 156.671L418.25 156.248C418.109 156.107 417.969 156.107 417.828 155.967C417.687 155.826 417.405 155.685 417.405 155.403L417.687 155.685C417.546 155.544 417.405 155.403 417.405 155.262C417.264 155.121 417.264 154.98 417.123 154.839C417.405 154.98 417.405 155.403 417.264 154.98C417.264 154.839 417.123 154.557 416.982 154.416C416.841 153.993 417.123 155.262 416.982 154.416C416.841 153.993 416.841 153.57 416.7 153.289C416.559 153.007 416.7 153.993 416.7 153.148C416.7 152.866 416.7 152.584 416.7 152.302C416.7 152.02 416.7 152.02 416.7 151.738C416.7 150.892 416.559 152.161 416.7 151.456C416.841 151.033 416.982 150.47 417.123 150.047C417.123 149.906 417.405 149.483 417.264 149.765C417.405 149.483 417.546 149.342 417.687 149.06C417.969 148.637 418.25 148.355 418.532 148.074C418.532 148.074 419.096 147.51 418.814 147.792C418.532 148.074 419.096 147.51 419.237 147.51C419.66 147.228 419.942 146.946 420.365 146.805C420.506 146.805 420.787 146.664 420.365 146.805C420.647 146.664 420.787 146.664 421.069 146.523C421.21 146.523 421.492 146.382 421.633 146.382C421.774 146.382 422.62 146.382 421.915 146.382C423.184 146.382 424.17 145.396 424.17 144.127C424.17 143.845 424.17 143.563 424.029 143.422C423.747 142.013 422.338 139.899 420.647 139.899L421.069 139.758Z" fill="white"/>
<path d="M426.846 157.658L432.907 165.41C433.33 165.833 433.753 166.114 434.316 166.255C435.162 166.678 436.008 166.96 436.853 167.101C437.558 167.242 438.263 167.383 438.968 167.383C439.109 167.383 439.813 167.242 439.531 166.96L433.471 159.208C433.048 158.785 432.625 158.503 432.061 158.362C431.216 157.94 430.37 157.658 429.524 157.517C428.82 157.235 428.115 157.235 427.41 157.235C427.128 157.235 426.564 157.235 426.846 157.658Z" fill="white"/>
<path d="M223.602 144.268C227.408 144.127 231.072 143.281 234.596 142.013C237.697 140.744 241.502 138.912 243.616 136.234C245.73 133.556 245.308 130.173 242.066 128.764C238.824 127.354 234.455 128.341 232.764 131.583C229.381 138.348 237.556 144.127 243.334 145.113C250.1 146.382 257.006 143.563 260.953 137.925C263.631 133.979 268 121.716 259.543 121.857C255.315 121.857 254.046 125.099 253.06 128.623C252.073 132.146 252.355 135.811 253.905 139.053C256.724 145.113 263.067 150.469 269.973 150.187C276.175 149.906 282.376 144.972 280.826 138.207C279.98 134.542 276.598 131.301 272.51 132.851C269.268 134.12 267.718 137.784 268.846 141.026C269.973 144.691 273.638 147.368 276.879 149.201C280.685 151.174 284.772 152.02 289.001 151.879C290.269 151.879 292.524 151.174 292.383 149.624C292.242 148.073 289.846 147.65 288.719 147.65C285.054 147.65 281.531 146.382 278.712 143.986C277.302 142.999 276.175 141.449 275.47 139.757C275.329 139.053 275.329 138.207 275.47 137.502C275.611 137.22 275.752 136.798 275.893 136.516C276.034 136.234 276.598 135.952 276.034 136.234L271.805 136.093C274.342 137.22 274.201 141.449 273.074 143.422C271.523 146.1 269.268 146.382 266.872 144.831C263.771 142.858 261.375 139.898 260.107 136.516C259.402 134.542 259.12 132.428 259.543 130.314C259.825 129.187 260.107 128.2 260.389 127.072C260.53 126.65 260.671 126.227 260.812 125.945C261.657 124.113 261.094 126.931 258.134 125.804L256.865 125.099C258.275 126.227 257.147 130.173 256.724 131.583C256.02 133.979 254.892 136.093 253.201 137.925C250.382 141.026 246.294 142.154 242.489 139.757C240.375 138.63 239.106 136.516 239.106 134.12C239.247 133.556 239.388 132.851 239.67 132.287L239.811 132.005C240.516 131.301 239.67 131.301 237.556 132.005C237.556 132.146 237.838 132.569 237.838 132.71C237.838 133.274 237.697 133.838 237.415 134.261C236.005 136.234 233.045 137.502 230.79 138.489C228.394 139.476 225.857 140.039 223.32 140.039C222.052 140.039 219.938 140.603 219.938 142.294C219.938 143.986 222.475 144.268 223.602 144.268Z" fill="#262626"/>
<path d="M281.955 114.951C281.955 114.951 294.217 146.664 300.137 155.543C306.056 164.423 313.808 158.08 311.976 143.563C311.976 143.563 315.641 154.416 322.688 146.1C329.735 137.784 325.93 119.461 325.93 119.461C325.93 119.461 338.333 138.066 343.689 132.006C349.045 125.945 274.062 33.3439 265.605 30.2431C257.148 27.1423 226.14 74.359 227.409 79.292C228.677 84.2251 270.679 112.696 270.679 112.696" fill="white"/>
<path d="M278.714 116.079C281.673 123.69 284.774 131.301 288.157 138.912C290.412 143.986 292.526 148.919 295.204 153.711C297.741 158.222 301.688 163.437 307.607 162.309C315.923 160.759 316.205 149.624 315.5 143.14L308.594 143.986C309.299 146.1 310.426 148.074 312.118 149.765C315.359 152.866 320.292 152.866 323.534 150.047C330.441 144.268 330.863 134.402 330.441 126.086C330.3 123.69 330.018 121.435 329.595 119.18L322.97 120.73C325.367 124.395 328.185 127.777 331.286 130.878C335.092 134.543 342.421 139.476 346.79 133.838C348.482 131.724 347.354 128.764 346.367 126.65C344.958 123.549 343.267 120.589 341.434 117.77C335.656 108.468 329.031 99.5883 322.407 90.8497C314.655 80.7017 306.762 70.6946 298.587 60.8284C291.822 52.6536 284.915 44.4787 277.727 36.8677C275.613 34.4716 273.358 32.2165 270.962 30.1023C268.425 27.9881 265.888 26.4377 262.505 27.5653C258.417 28.8338 254.894 32.3574 252.075 35.4582C247.988 39.9685 244.041 44.7606 240.517 49.6937C236.712 54.9087 233.188 60.2646 229.947 65.7615C227.691 69.1442 225.859 72.8087 224.45 76.7552C223.886 78.1647 223.886 79.7151 224.591 81.1245C225.436 82.534 226.564 83.8025 227.832 84.93C231.92 88.5946 236.148 92.1182 240.658 95.219C249.256 101.703 258.136 107.904 267.015 113.965L268.706 115.092C271.948 117.347 276.599 112.978 272.794 110.441C266.451 106.072 260.109 101.703 253.766 97.1923C248.974 93.6687 244.182 90.145 239.39 86.4804L237.98 85.3529L237.276 84.7891L236.994 84.5072C237.135 84.6481 237.276 84.6481 236.994 84.5072C236.148 83.8025 235.161 83.0978 234.316 82.2521C233.047 81.1245 232.061 79.997 230.933 78.8694C230.651 78.5875 231.497 79.4332 231.074 79.1513C230.933 79.0103 230.933 78.8694 230.933 78.8694C230.933 78.8694 230.933 78.5875 230.792 78.5875C230.651 78.5875 231.074 79.2922 230.933 79.0103C230.792 78.7284 230.792 79.856 230.933 79.2922C230.933 79.0103 231.074 78.7284 231.074 78.5875C231.074 78.4466 230.792 79.2922 231.074 78.8694C231.074 78.7284 231.215 78.5875 231.215 78.4466C231.215 78.3056 231.497 77.7418 231.638 77.4599C231.92 76.6143 232.343 75.9095 232.765 75.0639C235.021 70.5536 237.558 66.1843 240.376 61.956C243.477 57.1638 247.142 51.9488 250.806 47.2976C252.639 45.0425 254.471 42.7874 256.303 40.6732C257.149 39.6866 257.995 38.8409 258.84 37.8543L260.109 36.7267L260.673 36.163C260.814 36.022 261.377 35.5992 260.955 35.8811C261.659 35.3173 262.364 34.6126 263.21 34.1897C263.492 33.9078 263.914 33.7669 264.337 33.485C264.76 33.2031 264.619 33.3441 264.196 33.485L264.76 33.2031C265.042 33.0622 265.888 32.9212 265.183 33.0622C264.478 33.2031 265.042 33.0622 265.183 33.0622C265.888 32.9212 264.337 33.0622 264.76 33.0622C265.465 33.0622 263.773 32.7803 264.619 33.0622C264.901 33.2031 263.773 32.4984 264.196 32.9212C264.478 33.2031 264.76 33.3441 265.042 33.485C265.324 33.6259 265.465 33.7669 265.606 33.9078C265.042 33.6259 265.183 33.6259 265.606 33.9078C266.592 34.7535 267.579 35.7401 268.566 36.5858C274.908 42.7874 280.687 49.6937 286.466 56.4591C294.218 65.6205 301.829 74.9229 309.158 84.2253C316.205 93.3868 322.829 101.984 329.313 111.287C331.85 114.81 334.246 118.475 336.501 122.281C337.347 123.69 338.193 125.099 338.897 126.65C339.179 127.214 339.461 127.918 339.743 128.482L340.025 129.328C340.025 129.469 340.166 129.61 340.166 129.751C340.448 130.314 340.025 129.187 340.166 129.469C340.307 129.751 340.448 130.314 340.589 130.737C340.589 130.878 340.589 131.019 340.73 131.301C340.87 131.724 340.73 130.455 340.73 131.019C340.73 131.583 340.87 130.737 340.87 130.737C340.589 131.301 341.293 130.033 341.152 130.455C341.152 130.596 341.434 130.033 341.152 130.455C340.87 131.019 341.152 130.314 341.152 130.455C341.293 130.314 341.434 130.314 341.152 130.455C340.589 130.596 341.857 130.314 341.152 130.455C341.434 130.314 341.998 130.314 341.152 130.455C340.87 130.596 341.716 130.737 341.434 130.455L341.152 130.314C340.87 130.173 340.73 130.173 340.448 130.033C341.011 130.314 340.589 130.033 340.307 129.892C340.025 129.751 339.743 129.61 339.461 129.328C338.474 128.623 337.629 127.918 336.783 127.073C334.81 125.099 333.118 123.126 331.427 120.871L331.004 120.307C330.581 119.744 331.004 120.307 330.863 120.166C330.722 120.025 330.441 119.603 330.159 119.321L329.595 118.475C328.749 117.066 327.058 116.361 325.367 116.784C323.816 116.925 322.689 118.475 322.97 119.884C324.239 126.227 324.239 132.71 322.689 138.912C322.266 140.744 321.561 142.436 320.433 143.986C319.87 144.973 319.024 145.677 318.037 146.382C317.896 146.523 317.192 146.664 317.755 146.523C317.474 146.523 317.615 146.523 318.037 146.664C317.896 146.664 317.755 146.523 317.474 146.523C317.896 146.664 317.896 146.664 317.615 146.523C317.333 146.382 317.333 146.382 317.615 146.523L317.192 146.1C317.051 145.959 316.346 145.114 316.91 145.677C316.769 145.396 316.487 145.114 316.346 144.832C316.064 144.409 315.782 143.845 315.641 143.422C315.218 142.436 315.5 142.999 315.641 143.422C314.514 140.04 308.312 140.04 308.735 144.268C309.299 147.369 309.017 150.611 308.171 153.711C307.889 154.698 307.326 155.544 306.762 156.389C306.621 156.53 306.48 156.671 306.339 156.812C306.762 156.389 306.339 156.812 306.198 156.812C305.775 157.094 306.903 156.389 306.198 156.812C305.493 157.235 306.762 156.671 306.057 156.812C305.352 156.953 306.198 156.812 306.198 156.812C306.198 156.812 305.07 156.671 306.057 156.812C305.916 156.812 305.634 156.671 305.493 156.671C306.057 157.094 305.493 156.671 305.352 156.53C304.507 155.966 303.802 155.262 303.238 154.557C302.251 153.007 301.265 151.315 300.419 149.624C295.768 140.603 291.962 131.16 288.157 121.717C287.17 119.18 286.184 116.643 285.197 114.247C283.788 110.3 277.163 111.992 278.714 116.079Z" fill="#262626"/>
<path d="M308.03 116.502L309.863 139.898L310.144 143.281C310.285 144.973 311.131 146.664 312.541 147.65C313.668 148.355 315.078 147.932 314.937 146.382L313.104 122.985L312.822 119.602C312.681 117.911 311.836 116.22 310.426 115.233C309.158 114.528 307.889 114.951 308.03 116.502Z" fill="#262626"/>
<path d="M88.8606 289.301C88.8606 289.301 92.807 83.9433 130.439 78.0236C204.577 66.3251 229.101 89.1583 229.101 89.1583C229.101 89.1583 279.982 46.5928 286.466 41.9416C286.466 41.9416 268.284 12.484 228.255 2.33596C163.421 -14.1546 62.7857 59.1369 24.4486 144.268C-13.8885 229.399 30.0864 384.721 84.3503 393.036L88.8606 289.301Z" fill="#262626"/>
<path d="M129.594 90.4268C129.594 90.4268 138.755 114.951 156.373 121.012C173.991 127.073 210.214 133.415 207.396 152.161C204.577 170.907 178.925 168.37 165.112 159.913C165.112 159.913 151.863 207.27 120.15 209.526C88.4377 211.781 78.7125 199.659 69.8329 217.559C69.8329 217.559 36.5698 199.8 40.0934 183.873C41.3619 178.095 47.5635 122.139 97.3172 116.079C97.5991 116.079 125.224 114.247 129.594 90.4268Z" fill="white"/>
<path d="M126.07 90.7085C128.748 97.8967 132.694 104.521 137.627 110.3C141.433 115.233 146.366 119.179 152.004 121.857C157.078 123.972 162.293 125.663 167.649 126.931C173.286 128.623 179.065 130.314 184.562 132.428C189.354 134.12 194.005 136.516 198.093 139.476C201.335 142.013 203.872 145.113 204.154 149.06C204.435 153.711 202.321 158.08 198.657 160.758C194.287 163.718 188.79 163.859 183.716 163.295C177.938 162.591 172.3 160.758 167.226 157.799C165.394 156.671 162.293 156.953 161.729 159.208C161.588 159.49 161.588 159.772 161.447 160.054C161.306 160.336 161.024 161.322 161.306 160.476L160.883 161.886C159.897 164.705 158.769 167.524 157.642 170.343C154.4 178.236 149.89 185.706 144.393 192.33C141.433 195.854 137.909 199.095 134.104 201.632C130.439 204.17 126.211 205.72 121.841 206.566C110.566 208.116 99.4312 206.143 88.2965 205.156C84.0681 204.733 79.5579 204.733 75.6114 206.566C71.6649 208.398 68.7051 212.344 66.7318 216.432L72.0878 215.586C68.2822 213.472 64.7586 211.217 61.235 208.821C55.7381 204.874 49.3956 199.8 45.731 193.599C44.0396 191.062 43.3349 188.102 43.6168 185.142C43.7578 184.014 44.0396 182.746 44.3215 181.618C45.0263 177.531 45.8719 173.584 46.9995 169.638C50.2412 157.799 55.7381 145.395 64.3358 135.952C69.4098 130.314 75.7523 125.663 82.6587 122.562C88.1555 120.307 93.9343 118.757 99.854 118.193C112.68 116.361 126.211 109.736 131.285 97.192C132.13 95.0778 132.694 92.8227 133.117 90.7085C133.681 87.4668 126.775 86.4802 126.07 89.8629C124.66 97.4739 120.009 104.098 113.385 108.045C110.707 109.595 107.888 110.864 105.069 111.709C103.8 112.132 102.532 112.414 101.263 112.696L99.713 112.978L99.0083 113.119C98.3036 113.26 99.854 112.978 99.0083 113.119C92.8067 113.824 86.7461 115.233 80.8264 117.347C73.2153 120.307 66.309 124.817 60.5302 130.596C50.805 140.321 44.6034 153.006 40.657 166.114C39.3884 170.484 38.2609 174.712 37.4152 179.222C36.7105 183.169 35.8648 186.974 37.2743 190.921C39.8113 198.25 46.0129 204.029 51.9326 208.821C56.5838 212.626 61.6578 215.868 66.8728 218.828L67.7185 219.251C69.1279 220.096 72.0878 220.237 73.0744 218.405C73.92 216.573 75.0476 214.74 76.3161 213.19C76.8799 212.626 77.4437 212.062 78.0075 211.64C78.5712 211.076 77.8665 211.64 78.5712 211.217L79.5579 210.653C80.2626 210.23 79.276 210.653 80.1216 210.512C80.4035 210.371 80.8264 210.371 81.1083 210.23C81.3901 210.089 82.3768 210.089 81.5311 210.089C81.9539 209.948 82.5177 209.948 82.9405 209.948H84.35C84.6319 209.948 86.0413 209.948 85.0547 209.948C86.0413 209.948 87.028 210.089 88.0146 210.089C99.5721 211.217 111.271 213.19 122.969 211.64C142.701 208.962 155.527 191.484 163.279 174.571C165.534 169.92 167.367 164.987 168.776 160.054L163.279 161.463C173.146 167.383 186.676 170.625 197.811 167.242C203.026 165.832 207.395 162.309 209.65 157.376C211.905 152.584 211.624 147.087 209.087 142.576C206.409 138.066 201.898 134.824 197.388 132.287C192.032 129.468 186.394 127.213 180.616 125.381C174.837 123.549 169.058 121.857 163.42 120.166C161.024 119.461 158.487 118.757 156.091 117.77C153.272 116.502 150.735 114.81 148.621 112.837C143.97 108.468 140.023 103.394 136.923 97.7558C135.795 95.7826 134.808 93.8093 133.963 91.8361L133.681 91.2723C133.399 90.8495 133.963 91.6951 133.681 91.2723C133.54 90.9904 133.399 90.7085 133.399 90.5676C133.399 90.4266 133.258 90.1447 133.117 89.8629C132.412 88.3125 130.862 87.4668 129.171 87.6077C127.761 88.0306 125.506 89.0172 126.07 90.7085Z" fill="#262626"/>
<path d="M32.0588 158.08C32.0588 158.08 5.84299 161.181 3.58786 146.946C1.33274 132.71 17.2596 138.207 17.2596 138.207C17.2596 138.207 2.31936 107.622 28.8171 106.072C28.8171 106.072 10.3532 81.829 30.0856 64.3517C49.8179 46.8745 81.6716 64.3517 81.6716 64.3517C81.6716 64.3517 85.0542 33.6257 110.847 41.2367C136.64 48.8478 127.62 66.184 127.62 66.184C127.62 66.184 144.11 70.6943 143.124 81.4061C142.137 92.118 128.888 94.3731 128.888 94.3731C128.888 94.3731 120.009 123.69 97.5984 116.079L70.114 150.751C70.114 150.751 76.0337 165.55 65.6038 178.517C55.1738 191.484 28.1123 177.39 32.0588 158.08Z" fill="white"/>
<path d="M34.8777 156.812C28.6761 157.658 22.3336 157.235 16.273 155.403C12.3265 154.134 8.66191 151.738 7.3934 147.651C6.54773 145.396 6.54773 142.859 7.11151 140.462C7.3934 139.617 7.81624 138.912 8.38002 138.207C8.52097 138.066 8.80286 137.925 8.9438 137.785C8.38002 138.066 7.81624 138.207 7.25246 138.348C6.97057 138.489 6.82962 138.489 6.54773 138.489C6.82962 138.489 6.82962 138.489 6.68868 138.489C9.22569 138.348 11.6218 138.771 14.0178 139.476C14.7226 139.758 20.7832 137.785 20.5013 137.08C19.0919 134.12 17.9643 130.878 17.2596 127.636C15.9911 122.281 15.4273 115.797 18.81 111.146C19.6556 109.736 20.9242 108.609 22.3336 107.904C22.4746 107.904 23.0383 107.481 22.6155 107.763C22.4746 107.904 22.3336 107.904 22.1927 107.904C23.3202 107.622 21.9108 107.904 22.6155 107.763C23.7431 107.481 24.8706 107.34 26.1391 107.34C26.8439 107.34 32.6226 105.508 32.3407 104.944C25.7163 96.3466 21.9108 83.6615 26.1391 73.3725C29.099 66.0433 36.1462 59.4189 44.0392 58.1504C51.5093 57.0228 59.2613 58.4323 66.4495 60.6874C70.6778 61.9559 74.7653 63.5063 78.5708 65.6205C79.2755 66.0433 81.6716 65.0567 82.3763 64.7748C83.081 64.4929 85.0543 64.0701 85.0543 63.2244C85.8999 55.8953 89.1417 47.4386 95.2023 42.9283C95.7661 42.5055 96.1889 42.2236 96.7527 41.8008L97.1756 41.5189C97.1756 41.5189 97.5984 41.237 97.3165 41.3779C97.0346 41.5189 97.8803 41.237 97.3165 41.3779C96.1889 41.6598 97.1756 41.3779 97.7393 41.3779C98.585 41.237 99.2897 41.237 100.135 41.237C104.505 41.3779 108.874 42.3645 112.82 44.3378C118.74 46.8748 124.378 51.385 125.506 58.0095C126.069 61.1103 125.506 64.352 124.237 67.1709C124.096 67.3119 124.096 67.4528 124.378 67.4528C129.029 68.5804 133.258 70.9764 136.64 74.3591C141.996 79.9969 139.741 88.1718 133.398 92.1182C132.835 92.4001 132.271 92.682 131.707 92.9639C131.425 93.1048 131.848 92.9639 131.848 92.9639L131.566 93.1048C130.721 93.3867 132.13 92.9639 131.707 93.1048C131.566 93.1048 130.721 93.3867 131.284 93.2458C131.848 93.1048 131.143 93.2458 131.002 93.2458C130.298 93.5277 131.566 93.1048 131.143 93.2458C129.875 93.5277 128.606 93.8096 127.479 94.3734C126.915 94.6552 125.787 94.9371 125.647 95.5009C124.66 98.4608 123.391 101.28 121.841 103.958C120.432 106.495 118.74 108.891 116.767 111.005C115.78 112.132 114.653 113.119 113.525 113.965C112.961 114.388 112.257 114.81 111.693 115.233C111.411 115.374 111.129 115.515 110.847 115.656L110.283 115.938C110.847 115.656 110.002 115.938 110.706 115.797C110.706 115.797 110.283 115.938 110.002 115.938C109.156 116.079 108.31 116.079 107.324 116.079C105.068 115.938 102.813 115.515 100.699 114.81C99.8535 114.529 98.1622 115.233 97.3165 115.515C96.1889 115.797 95.0614 116.22 94.2157 117.066L69.1274 148.778C68.5637 149.483 66.8723 151.033 66.8723 151.879C67.0133 152.302 67.0133 152.584 67.2952 153.007C67.577 153.852 67.718 154.698 67.8589 155.544C68.2818 157.799 68.5637 160.195 68.4227 162.591C68.2818 169.074 65.8857 176.122 61.0936 180.773C60.3888 181.337 59.6841 181.9 58.9794 182.323C58.2747 182.887 59.966 182.041 59.966 182.041C59.966 182.041 59.2613 182.182 58.9794 182.182C56.7243 182.323 54.6101 182.182 52.355 181.618C41.6431 178.8 33.1864 168.229 35.3006 156.953C35.3006 156.53 32.0588 157.517 31.7769 157.517C31.0722 157.799 28.8171 158.363 28.6761 159.208C26.7029 169.779 33.8911 179.504 43.4754 183.169C48.2675 185.001 53.4825 185.142 58.2747 183.592C61.2345 182.746 64.0534 181.478 66.5904 179.645C68.9865 177.531 70.9597 174.853 72.3692 171.893C74.9062 166.396 75.7519 160.195 74.7653 154.134C74.4834 152.584 74.0605 151.315 73.6377 149.765C73.4968 149.483 73.4967 149.483 73.4967 149.624C73.4967 149.483 73.7786 149.201 73.9196 149.06L87.7322 131.724L100.84 115.092L94.3567 117.347C102.813 120.166 112.68 117.77 119.727 112.273C124.519 108.186 128.324 102.971 130.721 97.0513C131.284 95.7828 131.848 94.3733 132.271 93.1048L126.633 95.5009C131.284 94.6552 135.654 92.9639 139.741 90.4269C144.533 87.3261 148.198 81.4064 145.802 75.7686C143.828 71.1174 138.754 68.1575 134.244 66.3252C133.539 66.0433 132.694 65.7614 131.989 65.4796C131.566 65.4796 131.143 65.3386 130.861 65.0567C131.143 65.1977 130.861 65.4796 131.143 65.0567C131.284 64.6339 131.425 64.352 131.566 63.9292C132.553 61.1103 132.835 58.0095 132.13 54.9087C131.002 49.8346 127.056 46.1701 122.687 43.633C116.767 40.2503 109.438 38.1362 102.531 39.1228C96.6118 39.8275 91.1149 42.5055 86.7456 46.5929C82.0944 51.526 79.2755 58.8551 78.4298 65.4796L84.9133 63.0835C74.4834 57.4457 61.5164 54.063 49.677 55.6134C39.6699 56.8819 29.3809 61.2512 23.0383 69.2851C17.6824 76.1914 16.5548 84.7891 18.81 92.9639C20.0785 98.0379 22.4745 102.83 25.5753 107.058L31.7769 104.521C23.6021 105.085 13.0312 108.045 10.4942 116.925C8.80286 122.703 10.3533 129.328 12.1855 134.825C12.6084 136.234 13.3131 137.644 13.8769 139.053L20.3604 136.657C17.8234 135.811 15.1454 135.388 12.6084 135.67C7.81624 136.093 1.19181 138.066 0.205193 143.422C-1.76804 155.121 10.917 158.785 19.9375 159.208C23.0383 159.349 26.1391 159.349 29.3809 159.067C30.9313 158.785 32.4817 158.363 34.0321 157.658C34.173 157.799 36.1462 156.671 34.8777 156.812Z" fill="#262626"/>
<path d="M100.558 122.421C100.558 122.421 99.8533 101.421 84.4902 103.394C69.1272 105.367 57.1469 151.033 83.6446 153.288" fill="white"/>
<path d="M104.083 122.14C103.942 116.925 102.392 111.851 99.7138 107.481C95.2035 100.575 86.0421 98.4607 78.8539 102.548C72.9341 106.072 69.4105 112.696 67.1554 119.039C64.4774 126.086 63.9136 133.697 65.464 141.026C67.2963 149.342 74.4845 155.544 82.9413 156.107C84.6326 156.248 86.6058 155.544 87.1696 153.852C87.4515 152.302 86.324 150.892 84.9145 150.61C84.7736 150.61 84.6326 150.61 84.4917 150.61C83.646 150.47 82.8003 150.47 81.9547 150.188C81.109 149.906 81.9547 150.188 81.2499 150.047L80.1224 149.624L78.9948 149.201C78.7129 149.06 78.9948 149.201 79.1357 149.201L78.572 148.919C78.0082 148.496 77.3035 148.073 76.7397 147.651C76.3168 147.228 76.5987 147.51 76.7397 147.651L76.3168 147.228C76.0349 146.946 75.894 146.805 75.6121 146.523C75.0483 145.959 74.6255 145.255 74.2027 144.691C74.4845 145.114 74.0617 144.409 73.9208 144.268C73.7798 144.127 73.6389 143.704 73.4979 143.422C73.216 142.718 72.9342 142.013 72.6523 141.308C72.2294 140.04 71.8066 138.63 71.6656 137.221C71.5247 135.67 71.3838 133.979 71.3838 132.429C71.5247 129.328 71.9475 126.227 72.7932 123.126C73.4979 120.166 74.7664 117.206 76.1759 114.528C76.8806 113.26 77.7263 111.991 78.572 110.864C78.572 110.723 79.2767 109.877 78.8539 110.441C78.9948 110.159 79.2767 110.018 79.4176 109.736C79.8405 109.173 80.2633 108.75 80.8271 108.327L81.5318 107.763C82.0956 107.199 81.2499 107.904 81.6728 107.622C82.0956 107.34 82.6594 107.058 83.2232 106.776C83.7869 106.495 82.6594 106.917 83.3641 106.776L84.0688 106.495C84.7736 106.213 84.3507 106.495 84.2098 106.495C84.7736 106.495 85.3373 106.354 85.9011 106.354C87.1696 106.354 88.5791 106.636 89.7066 107.199C89.2838 106.917 90.1295 107.481 90.2704 107.622C90.5523 107.904 90.9752 108.045 91.257 108.327C90.9752 108.045 91.5389 108.609 91.6799 108.75C91.9618 109.032 92.2437 109.454 92.5256 109.736C93.5122 111.005 94.2169 112.273 94.7807 113.824C95.0626 114.669 95.3445 115.374 95.6263 116.22C95.6263 116.502 95.9082 117.347 95.9082 117.206C95.9082 117.065 96.0492 117.77 96.0492 117.911C96.472 119.603 96.613 121.294 96.7539 122.985C97.1767 126.509 104.224 126.086 104.083 122.14Z" fill="#262626"/>
<path d="M131.988 161.604C131.988 168.933 135.23 177.108 141.432 181.337C145.237 183.874 149.465 185.424 153.976 185.847C154.54 185.988 157.077 186.27 156.654 185.142C156.231 184.014 153.412 183.592 152.566 183.592L152.003 183.451C152.284 183.451 152.707 183.592 152.003 183.451C151.721 183.451 150.734 183.169 151.58 183.31C151.157 183.169 150.875 183.028 150.452 183.028C150.029 183.028 150.875 183.169 150.593 183.028L150.029 182.746L149.606 182.605C149.747 182.605 150.029 182.746 149.606 182.605L148.761 182.182C148.197 181.9 147.774 181.618 147.351 181.196C145.519 179.786 143.969 177.954 142.7 175.981C140.868 172.739 139.74 169.074 139.317 165.41C139.176 164.564 139.176 163.859 139.176 163.014C138.895 161.181 131.988 160.336 131.988 161.604Z" fill="#262626"/>
<path d="M133.68 123.408C133.68 123.408 137.203 125.24 135.089 128.341C132.975 131.442 129.169 129.046 130.015 125.804C130.297 124.254 131.706 123.126 133.257 123.267C133.398 123.267 133.539 123.267 133.68 123.408Z" fill="#262626"/>
<path d="M84.6319 382.888C73.4972 386.271 61.7988 386.412 50.5232 383.593C32.2003 378.801 36.2877 359.773 46.2948 360.901C56.3019 362.028 70.3964 367.102 81.6721 360.76" fill="white"/>
<path d="M83.9259 380.633C82.6574 381.056 81.248 381.479 79.9795 381.761L79.5566 381.902L78.4291 382.043L76.4558 382.324C74.3417 382.606 72.3684 382.888 70.2542 383.029C65.6031 383.311 60.9519 383.029 56.3007 382.183C52.3542 381.479 48.4077 380.492 45.3069 377.814C43.4746 376.264 42.0652 374.15 41.5014 371.894C41.0786 370.062 41.0786 367.948 41.7833 366.257C41.9242 365.834 42.2061 365.27 42.488 364.847C42.2061 365.27 42.9109 364.283 43.1927 364.142C43.7565 363.579 42.7699 364.565 43.3337 364.002L43.8975 363.579C43.1927 364.142 43.7565 363.579 43.8975 363.579C44.8841 363.156 43.6156 363.861 44.1794 363.438C44.4613 363.297 45.166 363.297 44.1794 363.438C44.4613 363.438 44.6022 363.438 44.8841 363.297C44.0384 363.297 45.5888 363.438 45.7298 363.438C47.8439 363.72 49.8172 364.142 51.9314 364.424C62.5023 366.398 73.496 367.948 83.3622 362.592C84.4897 361.887 85.8992 360.478 84.9126 359.068C83.9259 357.659 81.5299 358.223 80.2614 358.787C71.8046 363.438 61.6566 360.76 52.6361 359.209C48.9715 358.505 45.4479 357.8 41.9242 359.35C39.2463 360.478 37.1321 362.451 35.8636 364.847C33.4675 369.921 34.4541 375.982 38.2597 380.069C40.9376 382.747 44.3203 384.72 47.9849 385.707C53.4818 387.257 58.9786 387.962 64.6164 387.962C71.6637 388.103 78.711 387.117 85.4763 385.002C86.7449 384.58 88.5771 383.311 88.1543 381.761C87.7315 380.21 85.1944 380.21 83.9259 380.633Z" fill="#262626"/>
<path d="M76.8783 342.296C76.8783 342.296 64.1932 321.154 74.6231 312.134C85.0531 303.113 114.088 310.301 109.859 322.282C105.631 334.262 87.1673 330.457 87.1673 330.457" fill="white"/>
<path d="M79.839 340.464C77.161 335.954 75.1878 331.02 74.2012 325.946C73.4964 322.564 73.2146 318.617 74.9059 315.376C75.3287 314.671 75.7516 313.966 76.3153 313.543C76.0335 313.825 76.7382 313.12 76.8791 313.12C77.0201 313.12 77.4429 312.698 77.161 312.979C76.8791 313.261 77.5839 312.698 77.5839 312.698L78.1476 312.416H78.0067L79.1343 311.993C79.839 311.711 80.5437 311.57 81.2484 311.288C88.2957 309.879 95.6249 311.006 101.826 314.389C104.082 315.657 106.478 317.631 107.041 320.168C107.323 321.436 107.182 322.705 106.619 323.691C106.337 324.396 105.914 324.96 105.491 325.524C105.35 325.805 105.068 325.946 104.927 326.228C104.786 326.369 103.8 327.074 104.363 326.792L103.8 327.215C103.236 327.497 103.941 327.215 103.518 327.356C103.095 327.497 102.531 327.779 102.108 327.92C101.826 328.061 101.545 328.061 101.263 328.202C100.84 328.342 100.417 328.342 99.9942 328.483C98.3028 328.765 96.6115 328.906 94.7792 328.906C92.9469 328.906 91.1146 328.765 89.2823 328.342C87.591 328.202 85.8996 328.906 84.7721 330.316C84.0673 331.161 83.5036 332.853 85.054 333.276C91.2556 334.685 97.739 334.121 103.659 331.725C108.028 329.752 111.975 326.087 113.243 321.295C113.948 318.053 112.82 314.53 110.142 312.416C107.182 309.879 103.518 308.046 99.7123 307.342C95.343 306.214 90.8327 305.791 86.3225 306.214C81.6713 306.637 77.161 308.187 73.3555 311.006C69.6909 313.966 67.4358 318.335 67.4358 322.987C67.1539 330.316 70.2547 338.209 73.9193 344.41C75.1878 346.383 81.2484 342.719 79.839 340.464Z" fill="#262626"/>
<path d="M72.6515 363.015C72.6515 363.015 59.9664 341.873 70.3963 332.853C80.8263 323.832 109.861 331.02 105.633 343.001C101.404 354.981 82.9405 351.176 82.9405 351.176" fill="white"/>
<path d="M76.0352 363.438C73.2163 358.787 71.384 353.713 70.2565 348.357C69.4108 344.692 69.6927 340.746 70.9612 337.222C72.6525 333.98 75.4714 331.584 78.9951 330.739C82.2368 329.752 85.6195 329.47 89.0022 329.893C90.4116 330.034 91.8211 330.316 93.0896 330.739C94.4991 331.302 96.0495 331.866 97.318 332.712C99.5731 334.121 101.828 336.235 102.251 339.054C102.674 342.437 100.56 345.82 97.8817 347.652C94.7809 349.766 91.1164 350.753 87.3108 350.753C86.6061 350.753 85.9014 350.753 85.1967 350.753H84.2101C83.7872 350.753 84.7738 350.894 83.9282 350.753L83.2234 350.612C82.5187 350.471 84.2101 350.753 83.3644 350.612C82.9415 350.612 81.9549 350.33 83.6463 350.612C82.9415 350.471 79.6998 349.625 79.277 350.33C78.8541 351.035 81.2502 351.458 81.5321 351.599C87.7337 352.867 94.9219 353.431 100.983 351.176C104.788 349.907 107.748 346.806 108.875 342.86C109.439 339.9 108.171 336.799 105.775 334.967C102.533 332.43 98.7274 330.598 94.781 329.752C89.7069 328.343 84.4919 327.779 79.277 327.92C75.1896 327.92 71.2431 329.047 67.7195 331.161C64.3368 333.558 62.3635 337.363 62.3635 341.591C62.0816 348.78 65.1824 356.391 68.847 362.592C69.4108 363.579 72.0888 363.72 73.0754 363.861C73.7801 364.002 76.4581 364.284 76.0352 363.438Z" fill="#262626"/>
<path d="M414.162 260.407H276.599V381.338H414.162V260.407Z" fill="#F5EE30"/>
<path d="M413.174 378.942H281.249C279.417 378.942 277.585 378.801 275.893 378.942H275.612L279.981 382.043V266.045C280.122 264.494 280.122 262.803 279.981 261.252V261.111L277.444 262.944H409.369C411.201 262.944 413.033 263.085 414.725 262.944C414.865 262.944 414.865 262.944 415.006 262.944L410.778 259.843V365.834C410.778 370.767 410.496 375.7 410.778 380.492V380.633C410.778 383.593 417.543 385.425 417.543 382.043V275.911C417.543 271.119 417.825 266.045 417.543 261.252V261.111C417.543 259.138 414.865 258.011 413.174 258.011H292.525C287.028 258.011 281.39 257.87 275.752 258.011H275.471C274.343 258.011 273.075 258.574 273.075 259.843V365.834C273.075 370.767 272.793 375.7 273.075 380.492V380.633C273.075 382.606 275.752 383.734 277.444 383.734H398.093C403.59 383.734 409.228 383.875 414.865 383.734H415.147C416.557 383.734 417.966 382.888 417.402 381.338C416.557 379.928 414.865 378.942 413.174 378.942Z" fill="#F5EE30"/>
<path d="M367.791 294.234C362.858 293.811 359.193 297.758 358.489 302.409C357.925 306.355 359.193 310.443 362.012 313.261C365.536 316.362 370.61 316.926 374.697 314.671C378.221 312.98 380.476 309.456 380.758 305.509C380.758 300.576 378.221 296.066 374.134 293.388C372.583 292.402 370.61 292.684 369.2 293.952C368.355 295.08 368.496 296.771 369.623 297.617C369.764 297.757 369.905 297.898 370.046 297.898C370.187 298.039 370.328 298.039 370.469 298.18C369.905 297.617 370.328 298.039 370.469 298.18C370.61 298.321 371.033 298.744 371.315 298.885C371.596 299.026 371.737 299.449 372.019 299.59C371.596 299.026 371.878 299.449 372.019 299.59C372.16 299.731 372.301 300.013 372.442 300.154C372.583 300.295 372.724 300.717 373.006 300.999C373.288 301.281 373.429 301.986 373.147 301.422C373.429 302.127 373.57 302.972 373.711 303.677C373.711 303.818 373.711 303.959 373.711 304.1C373.711 303.677 373.711 304.523 373.711 304.1C373.711 304.523 373.711 304.805 373.711 305.228C373.711 305.65 373.57 305.932 373.57 306.214C373.57 306.355 373.429 306.637 373.288 306.919C373.147 307.201 373.006 307.483 372.865 307.765C372.865 307.765 372.442 308.328 372.724 308.047C373.006 307.765 372.724 308.047 372.583 308.187C372.442 308.328 372.16 308.751 371.878 308.892V309.174C371.456 309.597 372.16 309.033 371.878 309.174C371.596 309.315 371.315 309.597 371.033 309.738L370.61 309.879C370.046 310.161 370.751 309.879 370.751 309.879C370.751 309.879 370.046 310.161 369.905 310.161C369.764 310.161 369.2 310.302 369.764 310.161C370.328 310.02 369.623 310.161 369.623 310.161H369.059C369.764 310.02 368.496 310.02 368.496 310.02C368.496 310.02 369.341 310.302 368.778 310.02L368.355 309.879C368.073 309.738 368.073 309.597 368.496 310.02C368.355 309.879 368.073 309.879 367.932 309.738C367.791 309.597 367.509 309.597 367.509 309.456C367.509 309.315 367.932 309.879 367.65 309.597L366.945 308.892C366.382 308.328 367.227 309.315 366.945 308.892L366.663 308.469C366.522 308.187 366.241 307.765 366.1 307.483C366.1 307.342 365.818 306.919 365.959 307.342C366.1 307.765 365.818 307.06 365.818 307.06C365.677 306.778 365.677 306.496 365.536 306.214C365.536 305.932 365.395 305.65 365.395 305.228C365.395 304.805 365.395 304.946 365.395 304.805C365.254 304.1 365.395 305.228 365.395 304.664C365.395 303.818 365.395 303.113 365.536 302.409C365.536 302.268 365.677 301.986 365.536 302.409C365.677 302.127 365.677 301.986 365.818 301.704C365.959 301.422 366.1 300.999 366.382 300.576C366.663 300.154 366.663 300.154 366.382 300.576C366.522 300.435 366.663 300.154 366.804 300.013L367.086 299.731C366.804 299.872 367.509 299.308 367.086 299.731C367.368 299.59 367.509 299.449 367.509 299.449C367.932 299.449 366.663 299.59 367.368 299.449C366.522 299.449 368.073 299.308 367.368 299.449C368.919 299.59 371.033 298.744 371.174 296.912C371.033 295.22 369.623 293.811 367.932 293.811L367.791 294.234Z" fill="white"/>
<path d="M288.438 368.23C290.834 358.223 295.204 348.78 301.405 340.605C306.62 333.276 313.527 327.356 321.56 323.268C323.675 322.282 325.789 321.436 328.044 320.731L328.608 320.59L329.312 320.45C330.017 320.309 330.863 320.309 331.567 320.309C334.668 320.309 337.769 321.013 340.588 322.564C350.172 327.92 353.414 341.591 351.864 351.739C351.723 353.572 351.159 355.263 350.313 356.813C349.327 358.223 348.058 358.082 351.723 357.236C355.951 356.25 354.683 357.236 353.132 355.827C351.441 354.135 351.864 351.598 352.85 349.625C354.401 346.524 356.515 343.846 359.193 341.732C360.602 340.464 362.153 339.477 363.703 338.491C364.408 338.068 365.253 337.645 366.099 337.222C366.522 337.081 366.804 336.94 367.227 336.799C367.509 336.658 368.213 336.517 367.368 336.658C366.24 336.94 367.649 336.658 368.072 336.658C370.891 336.658 373.569 337.645 375.683 339.477C382.731 345.538 387.664 354.981 387.664 364.284C387.664 364.847 387.664 365.27 387.664 365.834C387.664 366.116 390.905 365.552 391.187 365.552C391.751 365.411 394.429 364.988 394.57 364.284C395.416 356.25 391.328 347.652 386.254 341.732C383.153 337.927 379.771 335.108 374.697 334.967C369.482 334.967 364.408 336.094 359.757 338.491C355.951 340.323 352.709 342.86 349.89 345.961C347.917 348.216 345.662 351.176 345.521 354.276C345.38 356.25 346.649 358.082 348.622 358.364C351.159 358.505 353.555 357.941 355.81 356.813C356.515 356.532 357.079 355.968 357.501 355.404C360.038 351.739 359.757 345.82 359.334 341.45C358.629 335.249 356.656 328.906 352.286 324.255C347.071 318.617 339.742 317.631 332.413 318.758C321.419 320.45 311.271 325.383 302.956 332.853C292.808 342.578 285.619 355.122 282.237 368.794C282.237 369.076 282.096 369.358 282.096 369.498C282.096 369.639 285.337 369.217 285.619 369.217C285.619 369.217 288.156 368.935 288.438 368.23Z" fill="white"/>
<path d="M527.621 457.308C518.601 410.232 423.604 373.022 423.604 373.022L426.282 349.062C429.805 344.41 444.605 328.484 433.611 322.987C422.617 317.49 406.831 341.31 395.697 343.283C384.562 345.256 345.943 339.618 333.117 345.115C333.117 345.115 321.277 348.78 328.325 358.364C335.372 367.948 342.278 364.566 342.278 364.566C342.278 364.566 320.291 362.31 322.405 376.264C324.519 390.218 370.89 388.103 370.89 388.103C370.89 388.103 367.648 397.406 351.44 402.339C335.513 407.131 341.855 424.749 366.803 417.984C386.676 412.628 393.3 402.621 393.3 402.621C393.3 402.621 422.617 440.394 444.323 457.308" fill="white"/>
<path d="M531.148 456.885C526.919 435.179 508.314 418.689 491.26 406.144C474.347 394.023 456.165 383.734 437.137 375.418C433.191 373.586 429.244 371.895 425.157 370.203L427.13 373.445L429.808 349.484L429.103 350.894C434.882 343.424 449.822 326.369 434.882 319.886C428.68 317.208 422.056 320.872 417.123 324.396C411.344 328.624 406.411 333.699 400.491 337.645C399.927 338.068 399.223 338.35 398.659 338.773C398.377 338.913 398.095 339.054 397.813 339.336C397.813 339.336 397.249 339.618 397.672 339.477L397.39 339.618C396.827 339.759 396.263 340.041 395.699 340.182C395.135 340.323 395.84 340.182 395.981 340.182L395.558 340.323L394.853 340.464C392.457 340.746 390.061 340.746 387.665 340.746H387.242H385.974H383.437L378.363 340.605C374.557 340.464 370.893 340.323 367.087 340.182C359.617 339.759 352.147 339.759 344.677 340.182C340.026 340.323 335.374 341.31 331.005 343.142C325.508 345.679 321.28 350.753 323.817 357.095C326.777 364.002 334.67 369.921 342.281 368.089C342.845 367.948 343.267 367.807 343.831 367.666C345.241 367.244 346.086 365.975 346.086 364.425C345.804 363.015 344.677 361.888 343.267 361.747C338.475 361.183 333.542 361.606 328.891 363.015C325.367 364.002 322.408 366.116 320.575 369.217C318.884 372.318 318.743 376.123 320.152 379.365C322.971 385.284 330.441 387.54 336.22 388.949C343.267 390.499 350.456 391.345 357.644 391.486C362.295 391.627 366.946 391.768 371.738 391.486L367.933 387.962C368.497 386.553 367.933 387.822 367.651 388.244C367.369 388.667 367.228 388.949 366.946 389.372C366.664 389.795 366.664 389.795 366.523 389.936C366.805 389.654 366.523 389.936 366.242 390.359C363.845 393.177 360.886 395.574 357.644 397.124C351.442 400.366 341.153 401.352 339.744 409.95C338.616 417.279 345.804 421.507 352.006 422.494C357.08 423.199 362.295 422.776 367.369 421.507C373.007 420.098 378.363 418.125 383.437 415.306C388.37 412.628 393.726 408.963 396.968 404.171L390.907 404.735C402.042 419.252 414.163 433.065 427.13 446.173C431.922 451.106 437.137 455.757 442.493 459.986C445.594 462.382 450.527 458.012 447.003 455.193C437.419 447.723 428.962 438.703 420.787 429.823C413.74 422.071 406.975 414.178 400.491 406.003C399.223 404.453 397.954 402.762 396.545 401.07C394.994 398.956 391.753 399.802 390.484 401.775L390.343 401.916C390.907 401.211 390.766 401.352 390.343 401.775C389.92 402.198 389.216 403.044 388.652 403.607C388.37 404.03 387.947 404.312 387.524 404.735L386.82 405.44L386.397 405.863C386.538 405.722 386.679 405.581 386.397 405.863C384.987 406.99 383.578 407.977 382.168 408.822C378.222 411.218 373.993 413.192 369.483 414.601C365.114 416.152 360.322 416.997 355.671 416.856C354.12 416.856 352.429 416.574 351.019 416.011C350.738 415.87 350.315 415.729 350.033 415.588L349.61 415.447C349.751 415.447 350.174 415.729 349.61 415.447L348.764 414.883C348.623 414.742 347.919 414.178 348.201 414.46C348.482 414.742 347.919 414.178 347.778 414.037C347.637 413.896 347.496 413.615 347.355 413.474C346.932 412.91 347.214 413.333 347.214 413.333C347.214 413.333 346.932 412.769 346.791 412.487C346.65 412.205 346.65 411.782 346.65 412.346C346.65 412.064 346.509 411.923 346.509 411.641C346.509 411.359 346.509 411.078 346.509 410.937C346.509 411.641 346.509 411.077 346.65 410.655C346.791 410.232 346.932 409.809 346.791 410.232C346.65 410.655 346.932 409.95 346.932 409.809C346.932 409.668 347.214 409.386 347.355 409.104C347.496 408.822 347.214 409.245 347.214 409.245C347.214 409.245 347.496 408.963 347.637 408.822C347.778 408.681 348.905 407.554 348.482 407.977C349.046 407.554 349.751 407.131 350.456 406.708C350.597 406.708 351.16 406.426 350.738 406.567C350.315 406.708 350.878 406.567 350.878 406.426L352.006 406.003C353.275 405.581 354.543 405.158 355.812 404.735C358.349 403.748 360.745 402.621 363 401.352C367.792 398.533 372.725 394.446 374.557 389.09C375.403 386.835 372.443 385.566 370.752 385.566C369.906 385.566 368.919 385.566 368.074 385.566C367.228 385.566 366.101 385.566 365.114 385.566H362.013C355.53 385.566 348.905 385.003 342.422 384.016C339.462 383.593 336.361 382.888 333.542 381.902C332.978 381.761 332.274 381.479 331.71 381.197C331.428 381.056 331.146 380.915 330.864 380.774C330.582 380.633 330.441 380.492 330.159 380.492C330.582 380.633 329.737 380.21 329.596 380.21C329.455 380.21 329.032 379.929 328.75 379.647L328.186 379.224L327.763 378.942C327.341 378.66 328.045 379.224 327.763 378.942C327.341 378.66 327.059 378.237 326.777 377.814C326.495 377.533 326.354 377.251 326.636 377.673C326.495 377.392 326.354 377.11 326.213 376.828C326.072 376.687 326.072 376.405 325.931 376.123C326.072 376.828 325.931 376.264 325.931 375.982C325.931 375.7 325.79 375.136 325.79 374.714C325.79 374.432 325.79 374.291 325.79 374.009C325.79 374.291 325.79 374.009 325.79 373.868C325.79 373.445 325.931 373.022 326.072 372.74C326.213 372.177 325.931 372.881 326.213 372.318C326.354 372.036 326.495 371.754 326.636 371.472C326.636 371.472 326.918 371.049 326.636 371.331C326.354 371.613 326.777 371.049 326.918 371.049L327.623 370.344C327.2 370.626 327.904 370.062 327.623 370.344L327.904 370.062L328.75 369.499L329.173 369.358C328.609 369.499 329.455 369.217 329.173 369.358C329.878 369.076 330.582 368.794 331.287 368.653C331.71 368.512 332.133 368.371 332.556 368.371C332.978 368.371 332.415 368.371 332.415 368.371C332.697 368.371 332.837 368.23 333.119 368.23C334.529 367.948 336.079 367.807 337.489 367.807H339.462C338.757 367.807 340.308 367.807 339.462 367.807H340.167L341.576 367.948L341.012 362.169C340.871 362.169 340.73 362.31 340.589 362.31C340.449 362.31 340.308 362.31 340.167 362.451C339.885 362.592 341.012 362.31 340.167 362.451C339.885 362.451 339.603 362.451 339.321 362.592C338.475 362.733 339.744 362.592 339.039 362.592C338.334 362.592 337.771 362.451 337.207 362.31C333.824 361.042 329.737 357.095 329.455 353.431C329.314 352.867 329.455 352.444 329.596 352.021C329.596 352.021 329.737 351.74 329.878 351.458C330.019 351.176 330.019 351.176 330.159 351.176C330.3 351.176 329.878 351.458 330.3 351.035C330.723 350.612 330.723 350.612 331.005 350.33C331.569 349.766 330.864 350.33 331.287 350.048C331.71 349.766 332.274 349.343 332.697 349.062L333.119 348.921L333.401 348.78L334.247 348.498C335.093 348.216 335.938 347.793 336.925 347.652L337.911 347.37C338.616 347.229 337.489 347.37 338.193 347.37C338.898 347.37 339.885 347.088 340.73 346.947C342.563 346.665 344.395 346.525 346.086 346.384C349.892 346.102 353.979 346.102 357.503 346.243C365.819 346.384 374.134 346.947 382.45 347.229C388.511 347.37 395.276 348.075 400.914 345.397C407.82 342.014 413.317 336.236 419.237 331.584C421.774 329.329 424.734 327.638 427.976 326.369C428.257 326.228 428.68 326.087 429.103 326.087C428.398 326.228 429.244 326.087 429.526 326.087C429.808 326.087 430.09 326.087 430.372 326.087C429.808 326.087 430.935 326.087 430.372 326.087H430.935C431.781 326.087 430.794 325.947 431.358 326.087C431.922 326.228 432.486 326.51 432.909 326.933C433.191 327.074 433.331 327.215 433.472 327.497C433.613 327.638 434.036 328.202 433.754 327.779C433.895 328.061 434.036 328.343 434.177 328.765C434.036 328.343 434.318 329.188 434.177 328.765C434.177 328.906 434.177 329.047 434.177 329.188C434.177 329.611 434.318 330.034 434.177 330.457C434.177 329.893 434.177 330.88 434.036 331.021C434.036 331.443 433.895 331.725 433.754 332.148C433.613 332.853 433.331 333.417 433.05 334.121C431.64 337.363 429.667 340.323 427.553 343.001C426.707 344.128 425.72 345.397 424.734 346.525C423.888 347.37 423.183 348.498 422.761 349.625C422.479 351.458 422.197 353.149 422.197 354.981L420.364 372.177L420.224 373.445C420.083 374.855 420.787 376.264 422.197 376.687C425.439 377.955 428.539 379.365 431.64 380.774C439.11 384.157 447.144 387.962 453.91 391.627C473.642 402.057 493.374 414.319 508.314 430.669C512.261 434.897 515.644 439.407 518.603 444.2C520.013 446.455 521.14 448.851 522.127 451.388C523.114 453.784 523.818 456.18 524.241 458.576C524.664 460.267 526.214 461.536 528.047 461.254C529.456 460.126 531.429 458.717 531.148 456.885Z" fill="#262626"/>
<path d="M341.293 368.512C351.864 369.076 362.576 369.217 373.287 368.653C374.838 368.653 376.811 367.807 376.952 365.834C376.811 364.143 375.261 362.733 373.569 362.874C362.858 363.438 352.287 363.297 341.575 362.733C339.742 362.592 338.192 363.861 337.91 365.552C337.91 367.384 339.742 368.371 341.293 368.512Z" fill="#262626"/>
<path d="M627.693 470.979C637.136 454.207 642.492 303.395 579.771 277.743C532.132 258.011 434.175 389.513 434.175 389.513C434.175 389.513 422.336 430.81 439.813 470.134" fill="white"/>
<path d="M631.217 470.979C632.909 467.878 633.613 463.932 634.177 460.408C635.164 454.348 635.869 448.287 636.291 442.226C637.419 425.031 637.278 407.836 635.728 390.64C634.318 371.331 630.935 352.303 625.298 333.839C620.224 317.631 612.894 301.14 600.773 288.878C595.276 283.24 588.793 278.871 581.464 276.052C574.98 273.656 567.933 273.797 561.168 274.924C545.382 277.884 531.005 287.327 518.461 296.912C503.521 308.61 489.426 321.436 476.6 335.39C465.325 347.37 454.472 359.632 444.183 372.458C440.8 376.546 437.559 380.633 434.317 384.862C432.907 386.271 431.78 387.962 430.652 389.654C430.088 391.063 429.807 392.473 429.666 394.023C428.82 398.11 428.115 402.339 427.692 406.567C426.142 420.098 426.565 433.91 429.102 447.3C430.652 455.334 433.048 463.227 436.431 470.697C437.418 472.811 444.042 471.402 443.478 469.852C433.048 446.314 431.357 418.829 436.713 393.741C436.854 391.768 437.559 389.936 438.686 388.385C440.8 385.566 443.055 382.747 445.311 379.928C454.19 368.653 463.633 357.659 473.218 346.947C485.621 332.994 498.87 319.886 512.964 307.623C519.589 301.845 526.636 296.348 533.965 291.415C540.308 287.045 547.073 283.381 554.261 280.421C554.966 280.139 555.812 279.857 556.516 279.575L557.785 279.153C558.067 279.012 559.194 278.73 558.49 278.871C560.04 278.448 561.59 278.025 563.282 277.743C564.268 277.602 562.718 277.743 563.846 277.602L564.973 277.461L566.101 277.32C566.242 277.32 567.651 277.179 567.087 277.179C566.523 277.179 567.651 277.179 567.792 277.179H569.906C570.047 277.179 570.893 277.179 569.906 277.179H570.611C571.316 277.179 572.02 277.32 572.584 277.461L573.289 277.602L574.275 277.743C575.544 278.025 576.812 278.448 578.081 279.012C581.464 280.562 584.705 282.394 587.806 284.508C600.914 294.093 609.371 309.174 615.15 323.973C621.915 341.591 625.721 360.196 627.976 378.942C630.09 396.701 630.795 414.46 630.231 432.219C629.949 439.266 629.526 446.173 628.821 453.079C628.398 457.73 627.553 462.522 626.284 467.033C626.002 468.301 625.439 469.57 624.875 470.838C624.17 472.107 626.848 472.389 627.553 472.389C628.258 472.389 630.513 472.107 631.217 470.979Z" fill="#262626"/>
<path d="M497.883 341.591C518.461 346.524 537.77 356.39 555.107 368.371C573.571 381.056 590.061 396.56 604.015 414.178C611.344 423.34 617.545 433.347 622.479 443.918C623.324 445.327 624.734 446.455 626.425 446.736C627.412 446.877 629.385 446.736 628.68 445.327C619.237 424.89 604.86 406.99 588.793 391.345C571.738 374.713 552.288 360.76 531.146 350.189C520.011 344.551 508.313 340.323 496.192 337.363C495.064 337.081 493.514 337.363 493.936 338.772C494.359 340.182 496.473 341.309 497.883 341.591Z" fill="#262626"/>
<path d="M479.561 367.807C482.38 369.498 485.199 371.472 487.736 373.445C490.978 375.982 494.22 378.66 497.32 381.479C504.368 387.821 510.992 394.587 517.476 401.493C530.865 415.728 543.55 430.669 556.658 445.327C562.86 452.233 569.062 458.999 575.827 465.482C576.955 466.61 578.364 467.596 579.773 468.301C580.055 468.442 582.169 469.429 581.183 468.442C567.934 455.757 556.095 441.662 543.973 427.991C530.724 412.909 517.335 397.828 502.394 384.439C494.924 377.532 486.89 371.472 478.293 366.257C478.011 366.116 476.038 364.847 475.897 365.411C475.756 365.975 479.279 367.666 479.561 367.807Z" fill="#262626"/>
<path d="M549.186 263.508L492.949 240.956C492.949 240.956 459.404 203.042 460.532 194.303C462.082 182.605 475.895 167.806 501.97 161.04C526.917 154.557 551.16 150.047 578.221 194.585C582.308 201.351 589.074 213.895 588.369 221.929C587.101 235.319 577.375 258.997 549.186 263.508Z" fill="#262626"/>
<path d="M523.112 304.523C523.112 304.523 523.112 300.294 522.69 295.079C522.267 289.865 520.293 287.468 503.944 286.482C471.667 284.65 468.003 256.038 468.003 256.038C468.003 256.038 464.056 257.729 456.445 257.165C449.962 256.601 440.518 248.286 456.163 238.138C459.687 235.742 463.633 232.5 463.915 225.734C464.338 217.137 462.929 210.23 463.633 194.726L468.003 199.941C479.701 213.895 496.897 221.929 515.078 221.929L516.488 220.942C524.945 249.695 547.214 259.279 547.214 259.279C547.214 259.279 551.16 269.005 554.12 272.951C554.12 273.374 544.395 307.624 523.112 304.523Z" fill="white"/>
<path d="M526.071 302.972C526.071 299.449 525.931 296.066 525.508 292.683C525.367 290.992 524.662 289.301 523.253 288.173C520.997 286.623 518.319 285.777 515.642 285.495C510.849 284.79 506.057 284.79 501.265 284.086C494.077 283.099 487.312 279.857 481.815 274.924C478.009 271.26 475.049 267.031 473.076 262.098C472.371 260.266 471.667 258.434 471.244 256.601C471.103 256.037 470.962 255.474 470.962 255.051C470.962 254.91 470.821 254.064 470.962 254.628C470.821 253.782 469.552 254.346 468.989 254.487C468.848 254.628 468.425 254.628 469.271 254.346L468.425 254.628C467.297 254.91 466.029 255.192 464.901 255.192C462.082 255.615 459.122 255.474 456.444 254.628C452.921 253.36 449.961 250.118 450.948 246.171C451.652 243.352 453.767 241.238 456.022 239.688C458.841 237.996 461.378 235.882 463.492 233.486C467.438 228.694 467.156 222.633 466.874 216.714C466.593 208.962 466.311 201.21 466.593 193.317L460.532 196.699C465.042 202.196 469.552 207.411 475.331 211.781C483.506 217.841 492.949 221.788 502.956 223.479C505.775 223.902 508.735 224.184 511.554 224.184C513.95 224.184 515.782 222.774 517.615 221.506L513.386 223.056C516.487 233.627 522.266 243.352 530.159 251.245C534.105 255.333 538.616 258.715 543.69 261.393C543.831 261.393 543.972 261.534 544.112 261.675C543.831 261.393 544.394 261.816 544.112 261.675C544.817 263.226 545.381 264.776 546.086 266.326C547.213 268.723 548.341 271.119 549.75 273.374C550.314 274.219 550.878 274.642 550.737 275.488C550.314 277.461 549.609 279.434 548.623 281.267C547.354 284.508 545.663 287.75 543.831 290.71C542.703 292.542 541.575 294.234 540.166 295.925C539.461 296.771 538.757 297.616 538.052 298.321C537.488 298.885 536.783 299.449 536.22 300.012L535.656 300.435C534.81 301.14 536.22 300.012 535.374 300.717L534.81 300.999C535.515 300.576 534.528 301.14 534.528 301.14C533.823 301.563 533.119 301.845 532.273 301.986C530.159 302.549 527.904 302.69 525.649 302.408C524.098 302.408 522.689 303.113 521.561 304.1C521.279 304.241 519.024 306.355 520.152 306.496C529.877 307.905 539.038 301.845 545.099 294.516C549.75 288.596 553.415 281.971 555.811 274.783C556.093 273.938 556.516 273.092 556.657 272.246C556.798 271.401 556.657 270.978 555.952 270.132C554.542 267.877 553.274 265.481 552.146 262.944C551.724 261.957 551.16 260.83 550.737 259.843C550.455 259.138 550.173 258.434 549.891 257.87C549.327 257.024 547.777 256.601 546.931 256.178C544.253 254.628 541.716 252.796 539.32 250.682C529.736 242.366 522.689 231.513 519.165 219.251C518.883 218.123 515.078 220.66 514.937 220.801L513.527 221.788L515.923 220.378C517.474 219.674 515.501 219.955 514.796 219.955C514.091 219.955 513.386 219.815 512.541 219.815C511.131 219.674 509.581 219.533 508.171 219.251C499.715 217.841 491.681 214.881 484.352 210.23C477.163 205.579 471.667 199.377 466.17 192.894C465.183 191.625 460.25 195.149 460.25 196.418C459.968 203.747 460.109 211.217 460.391 218.546C460.673 224.184 461.519 231.231 457.29 235.6C455.176 237.715 451.934 239.265 449.397 241.661C447.142 243.775 444.887 246.312 444.323 249.413C443.618 253.641 446.578 256.883 450.243 258.434C453.203 259.702 456.867 259.42 460.109 259.138C462.364 258.997 464.478 258.574 466.593 257.729L464.619 257.588C465.747 264.635 468.848 271.119 473.64 276.334C478.291 281.408 484.211 284.931 490.694 286.764C495.204 287.891 499.856 288.455 504.648 288.737C508.312 288.878 511.977 289.582 515.36 290.851C517.333 291.556 518.742 293.247 519.165 295.22C519.729 298.885 520.011 302.549 519.87 306.073C520.011 307.342 526.071 304.664 526.071 302.972Z" fill="#262626"/>
<path d="M484.776 252.232C484.776 252.373 484.776 252.514 484.776 252.655V253.078C484.776 252.796 484.776 253.359 484.776 253.078V253.359C484.635 254.487 484.354 255.756 483.931 256.883C483.367 258.434 482.662 259.843 481.817 261.252C481.676 261.534 481.394 261.957 481.112 262.239L480.83 262.662L480.689 262.803L480.407 263.085C480.125 263.367 479.843 263.789 479.561 264.071L479.139 264.494L478.857 264.635C478.434 264.917 479.139 264.353 478.857 264.635C478.575 264.917 478.434 264.917 478.152 265.058C478.011 265.058 478.011 265.199 477.87 265.199C477.447 265.34 477.588 265.34 477.87 265.199C477.588 265.34 477.306 265.481 477.165 265.622C476.883 265.763 476.742 265.763 477.447 265.481C477.306 265.481 477.165 265.622 476.883 265.622C476.602 265.622 476.32 265.763 477.306 265.481C477.165 265.481 476.883 265.622 476.742 265.622L476.32 265.763C476.461 265.622 477.165 265.622 476.602 265.763L476.038 265.904C475.474 266.045 476.602 265.904 476.179 265.904C475.756 265.904 475.333 266.045 475.051 266.045C473.36 266.185 471.809 266.749 470.541 267.736C469.413 268.863 471.528 268.863 472.091 268.723C477.87 268.3 483.79 265.904 487.454 261.111C489.428 258.434 490.696 255.474 491.119 252.232C491.26 251.527 491.401 250.682 491.401 249.977C491.401 249.554 490.273 249.554 490.132 249.554C489.287 249.554 488.441 249.695 487.595 249.977C486.891 250.541 484.776 251.104 484.776 252.232Z" fill="#262626"/>
<path d="M477.024 225.875C477.024 225.875 475.897 229.963 479.843 230.667C483.789 231.372 484.776 226.439 481.534 224.748C480.125 223.761 478.152 224.043 477.165 225.452C477.165 225.734 477.165 225.875 477.024 225.875Z" fill="#262626"/>
<path d="M561.872 222.633C561.872 222.633 492.104 232.5 510.568 288.314C510.568 288.314 465.183 302.831 494.218 343.283C523.253 383.734 562.435 331.161 562.435 331.161C562.435 331.161 558.207 363.297 596.967 353.29C635.727 343.283 612.612 302.127 612.612 302.127C612.612 302.127 665.748 327.779 678.856 279.998C691.964 232.218 650.103 237.715 650.103 237.715C650.103 237.715 667.017 209.948 643.761 199.659C620.505 189.37 581.886 218.828 581.886 218.828L561.872 222.633Z" fill="#262626"/>
<path d="M562.295 220.66C553.838 221.929 545.663 224.325 537.77 227.849C524.098 233.768 510.991 243.494 506.057 258.152C502.534 268.3 503.802 279.294 507.044 289.301L510.004 286.623C503.943 288.596 498.306 291.697 493.372 295.643C484.634 302.55 479.56 312.698 481.392 323.973C482.802 332.289 487.171 340.041 492.386 346.525C497.037 352.444 503.098 357.518 510.568 359.632C523.394 363.297 536.784 357.377 546.932 349.766C551.301 346.525 555.388 342.86 559.053 338.914C561.308 336.658 563.281 334.262 565.255 331.725C565.395 331.584 565.395 331.443 565.536 331.443L558.912 331.584C558.348 335.672 558.912 339.9 560.18 343.706C563.14 352.162 570.751 356.532 579.349 357.236C586.678 357.659 594.148 356.532 601.055 353.995C606.974 352.162 612.33 348.78 616.559 344.128C622.76 336.799 623.465 326.933 621.774 317.913C620.646 311.852 618.532 306.073 615.572 300.858L609.652 303.818C615.431 306.496 621.492 308.469 627.834 309.738C639.815 312.134 652.923 311.852 663.775 305.509C677.729 297.476 683.93 280.28 684.635 264.776C684.917 258.575 684.071 252.232 680.689 247.017C678.152 243.212 674.487 240.111 670.259 238.419C666.453 236.869 662.366 235.882 658.278 235.601C655.882 235.319 653.345 235.319 650.949 235.601H650.667L653.345 237.856C660.111 226.721 663.493 209.808 651.654 200.928C643.338 194.726 632.485 194.585 622.76 196.7C612.753 198.814 603.31 203.183 594.571 208.257C589.356 211.217 584.282 214.459 579.49 218.123L581.745 216.996L561.59 220.942C560.462 221.224 558.348 222.211 558.63 223.62C558.912 225.03 561.449 224.889 562.577 224.607C569.201 223.338 576.107 222.352 582.732 220.66C583.577 220.378 584.423 219.956 585.128 219.392C585.551 219.11 584.423 219.956 584.846 219.674C584.987 219.533 585.128 219.392 585.269 219.392C586.255 218.687 587.383 217.982 588.37 217.278C592.034 214.741 595.699 212.486 599.504 210.371C609.089 205.015 619.8 200.082 630.794 199.66C636.15 199.378 641.365 200.928 645.734 203.888C649.822 206.848 652.359 211.499 652.782 216.432C653.486 223.62 650.808 231.654 647.144 237.574C646.016 239.406 648.553 239.97 649.822 239.829C650.245 239.829 650.667 239.688 651.09 239.688H652.5C652.077 239.688 653.486 239.688 652.5 239.688H653.486C655.037 239.688 656.446 239.829 657.997 239.97L658.701 240.111C658.137 239.97 658.842 240.111 658.701 240.111L660.111 240.393C661.097 240.534 661.943 240.816 662.789 241.097L664.057 241.52C664.339 241.661 664.762 241.802 665.044 241.943C666.03 242.366 666.876 242.789 667.722 243.353C669.413 244.339 670.964 245.467 672.232 247.017C675.615 250.823 677.588 255.756 677.87 260.83C678.575 268.723 676.883 277.039 674.346 284.509C672.232 290.992 668.426 296.912 663.212 301.281C661.238 302.831 658.983 304.1 656.587 305.087C656.023 305.369 655.319 305.509 654.755 305.791C654.332 305.932 654.896 305.791 654.896 305.791L654.473 305.932L653.345 306.214C652.641 306.355 652.077 306.496 651.372 306.637L650.385 306.778C649.963 306.778 650.526 306.778 650.526 306.778L649.963 306.919C648.553 307.06 647.144 307.201 645.734 307.342H644.889H642.352C641.083 307.342 639.674 307.201 638.405 307.06L636.432 306.778L635.586 306.637L635.022 306.496C630.653 305.791 626.284 304.664 622.055 303.254L619.659 302.409C619.378 302.268 618.391 301.986 619.096 302.268L618.109 301.845L615.713 300.858L615.431 300.717C613.74 299.872 607.961 300.858 609.511 303.677C609.511 303.818 609.652 303.818 609.652 303.959C609.793 304.241 609.37 303.395 609.652 303.818C609.793 303.959 609.793 304.1 609.934 304.241C610.357 305.087 610.78 306.073 611.203 306.919C612.471 309.879 613.599 312.839 614.444 315.939C616.559 323.55 617.404 332.571 613.458 339.759C608.243 349.484 595.981 353.149 585.41 353.29C578.221 353.431 571.033 350.471 567.932 343.424C566.805 340.605 566.1 337.645 565.959 334.685C565.959 334.403 565.959 334.121 565.959 333.839C565.959 333.558 565.959 332.853 565.959 333.417C565.959 332.994 565.959 332.571 565.959 332.148C565.959 331.725 565.959 331.302 566.1 331.021C566.241 329.611 564.691 329.329 563.563 329.329C562.013 329.329 560.462 329.893 559.476 331.162C559.194 331.584 558.912 332.007 558.489 332.43C558.066 332.853 557.784 333.276 557.362 333.839L556.657 334.685L556.234 335.249C553.274 338.632 549.891 341.873 546.509 344.833C544.536 346.525 542.421 348.075 540.307 349.625C539.18 350.471 537.911 351.176 536.784 351.88C536.22 352.162 535.656 352.585 534.951 352.867C534.388 353.149 533.824 353.431 533.26 353.713C531.991 354.277 530.723 354.84 529.313 355.263L528.891 355.404H529.032L528.045 355.686C527.34 355.827 526.635 356.109 525.931 356.25L524.803 356.532C524.38 356.532 524.803 356.532 524.944 356.532H524.38C523.676 356.673 522.971 356.673 522.266 356.814C521.843 356.814 521.28 356.814 520.857 356.814C520.152 356.814 519.447 356.814 518.743 356.673C512.823 356.109 507.044 352.585 502.675 348.075C496.755 342.155 492.386 334.967 489.849 327.074C488.016 321.718 487.876 315.798 489.567 310.302C490.976 306.073 493.513 302.268 496.896 299.167C497.601 298.462 498.446 297.757 499.292 297.053L499.856 296.63L500.138 296.348C499.715 296.63 500.561 296.066 500.138 296.348C500.561 296.066 500.983 295.784 501.406 295.502C502.957 294.516 504.648 293.529 506.198 292.543L506.762 292.261C507.326 291.979 506.48 292.402 506.621 292.261L507.608 291.697C508.172 291.415 508.876 291.133 509.44 290.851C510.004 290.569 510.991 290.287 511.695 290.005C512.4 289.724 511.413 290.146 511.131 290.146C512.118 289.865 514.655 288.878 514.091 287.468C511.272 278.73 509.863 269.427 512.259 260.407C514.091 253.642 517.756 247.44 522.83 242.648C525.226 240.393 527.763 238.279 530.582 236.446C531.991 235.46 533.542 234.614 534.951 233.768L535.938 233.205L536.784 232.782L537.629 232.359L538.898 231.795C541.717 230.527 544.536 229.399 547.495 228.412L548.482 228.13H548.623L550.596 227.567C551.724 227.144 552.992 226.862 554.12 226.58C556.093 226.016 558.066 225.593 560.04 225.171L561.026 225.03C562.013 224.889 560.462 225.171 560.885 225.03L561.449 224.889C562.717 224.748 565.114 224.043 565.395 222.493C565.677 220.942 563.281 220.519 562.295 220.66Z" fill="#262626"/>
<path d="M473.924 216.15C469.695 216.855 465.326 215.163 462.648 211.64C459.124 207.129 459.829 200.082 461.802 195.008C466.735 182.464 482.662 183.592 493.374 185.142C494.643 185.424 496.052 184.578 496.334 183.31C496.334 183.028 496.334 182.887 496.334 182.605C495.911 180.773 494.502 179.504 492.669 179.222C481.394 177.672 467.722 176.544 459.265 185.706C451.654 194.022 451.09 208.962 459.829 216.714C464.198 220.66 470.118 222.492 476.038 221.788C480.548 221.365 477.306 215.586 473.924 216.15Z" fill="#262626"/>
<path d="M450.102 222.352C447.565 217.419 447.001 211.64 448.833 206.284C450.665 201.351 453.907 196.982 458.276 193.881C462.646 190.498 467.579 187.961 472.794 185.988C478.432 183.874 484.774 182.323 490.553 184.578C491.681 185.001 492.949 184.578 493.372 183.451C493.513 183.169 493.513 182.887 493.513 182.605C493.513 180.773 492.385 179.082 490.694 178.518C480.546 174.712 469.27 179.222 460.25 184.296C451.793 189.089 444.182 196.277 442.491 206.143C441.363 212.063 442.35 218.264 445.028 223.62C445.732 225.03 447.142 226.721 448.974 226.298C450.806 225.875 450.665 223.761 450.102 222.352Z" fill="#262626"/>
<path d="M491.964 296.489C483.648 303.395 475.192 310.724 471.386 321.013C469.554 325.806 469.131 331.02 470.118 335.954C471.245 340.605 473.359 344.833 476.46 348.498C479.984 352.726 484.071 356.673 488.3 360.196C490.977 362.451 496.474 358.364 493.233 355.686C485.199 348.78 475.896 340.464 476.46 328.906C477.165 316.221 487.736 307.483 496.756 300.013C497.884 299.167 498.025 297.476 497.179 296.348C497.038 296.207 496.897 296.066 496.756 295.925C495.347 295.079 493.374 295.22 491.964 296.489Z" fill="#262626"/>
<path d="M585.41 210.512C588.228 202.478 593.866 195.572 601.195 191.344C609.793 186.833 620.364 186.834 629.384 190.216C630.653 190.639 632.485 189.652 633.613 188.948C633.895 188.666 636.291 186.974 635.163 186.552C613.176 178.377 586.819 191.062 578.926 213.049C578.503 214.318 581.463 213.331 581.745 213.19C583.154 212.767 584.846 211.781 585.41 210.512Z" fill="#262626"/>
<path d="M446.579 385.848C451.09 397.265 457.291 408.117 463.493 418.688C470.54 430.387 477.728 441.662 485.198 453.079C488.722 458.717 492.386 464.214 495.91 469.852C496.333 470.556 502.394 466.892 501.83 465.905C488.158 443.918 473.359 422.635 461.097 399.661C457.996 393.882 455.177 387.821 452.64 381.761C452.358 381.479 446.156 384.58 446.579 385.848Z" fill="#262626"/>
</svg>
