<svg width="558" height="532" viewBox="0 0 558 532" fill="none" xmlns="http://www.w3.org/2000/svg">
<path d="M474.246 120.598H83.6875V372.903H474.246V120.598Z" fill="white"/>
<path d="M80.8541 119.697V340.979C80.8541 351.148 80.7254 361.446 80.8541 371.616V372.002C80.8541 373.933 82.2701 375.606 84.201 375.735H458.926C463.946 375.735 469.095 375.735 474.116 375.735H474.759C475.918 375.735 477.205 375.091 477.205 373.804V152.651C477.205 142.481 477.334 132.183 477.205 122.014V121.627C477.205 119.697 475.789 118.023 473.858 117.894H99.1333C94.113 117.894 88.9639 117.894 83.9435 117.894H83.2999C79.3094 117.894 80.9828 123.558 84.3297 123.558H459.055C464.075 123.558 469.224 123.816 474.244 123.558H474.888L471.541 119.825V368.269C471.412 369.427 471.412 370.586 471.541 371.744C471.541 371.873 471.541 372.002 471.541 372.131L473.987 370.2H99.1333C94.113 370.2 88.9639 369.942 83.9435 370.2H83.2999L86.6468 373.933V152.651C86.6468 142.481 86.7755 132.183 86.6468 122.014V121.627C86.6468 119.954 85.617 118.538 83.9435 118.023C82.6563 117.637 80.8541 118.023 80.8541 119.697Z" fill="#262626"/>
<path d="M474.246 89.832H83.6875V120.598H474.246V89.832Z" fill="#262626"/>
<path d="M475.018 87.5152H100.293C95.2726 87.5152 90.1235 87.3865 85.1031 87.5152H84.4595C82.9147 87.5152 80.5977 88.8025 80.5977 90.6047V121.37C80.5977 122.529 81.8849 123.044 82.9147 123.044H457.64C462.66 123.044 467.809 123.173 472.829 123.044H473.473C475.018 123.044 477.335 121.757 477.335 119.954V89.1887C477.335 86.0992 471.156 87.9014 471.156 90.6047V121.37L475.018 118.281H100.293C95.2726 118.281 90.1235 118.024 85.1031 118.281C84.8457 118.281 84.7169 118.281 84.4595 118.281L86.7766 119.954V89.1887L82.9147 92.2781H457.64C462.66 92.2781 467.809 92.4068 472.829 92.2781H473.473C475.146 92.2781 476.562 91.377 477.206 89.8323C477.592 88.2876 476.305 87.5152 475.018 87.5152Z" fill="#262626"/>
<path d="M444.381 98.4568L456.481 109.527L458.155 111.072C459.313 111.973 460.601 112.617 462.017 113.132C462.403 113.26 464.334 113.775 463.304 113.003L451.203 101.932L449.53 100.388C448.371 99.4866 447.084 98.7142 445.668 98.3281C445.282 98.1993 443.351 97.5557 444.381 98.4568Z" fill="white"/>
<path d="M457.767 98.7141L445.667 109.785L443.994 111.329C442.964 112.359 444.509 112.874 445.41 113.003C446.954 113.26 448.499 112.874 449.786 111.973L461.887 100.902L463.56 99.3577C464.59 98.3279 462.916 97.813 462.144 97.6843C460.599 97.4268 459.055 97.813 457.767 98.7141Z" fill="white"/>
<path d="M107.888 142.739C110.518 142.739 112.651 140.607 112.651 137.976C112.651 135.346 110.518 133.213 107.888 133.213C105.257 133.213 103.125 135.346 103.125 137.976C103.125 140.607 105.257 142.739 107.888 142.739Z" fill="#F5EE30"/>
<path d="M124.88 142.482C127.51 142.482 129.643 140.349 129.643 137.719C129.643 135.088 127.51 132.956 124.88 132.956C122.249 132.956 120.117 135.088 120.117 137.719C120.117 140.349 122.249 142.482 124.88 142.482Z" fill="#F5EE30"/>
<path d="M142.259 142.739C144.889 142.739 147.022 140.607 147.022 137.976C147.022 135.346 144.889 133.213 142.259 133.213C139.629 133.213 137.496 135.346 137.496 137.976C137.496 140.607 139.629 142.739 142.259 142.739Z" fill="#F5EE30"/>
<path d="M187.953 126.262V132.827L188.082 150.463L188.211 176.594L188.339 208.647L188.468 243.532L188.597 278.804L188.725 311.758L188.854 339.563L188.983 359.515C188.983 362.734 188.983 365.823 188.983 369.041C188.983 369.17 188.983 369.299 188.983 369.427C188.983 372.388 195.162 370.972 195.162 368.398V361.833L195.033 344.197L194.904 318.065L194.776 286.012L194.647 251.127L194.518 215.856L194.389 182.902L194.261 155.097L194.132 135.144C194.132 131.926 194.132 128.836 194.132 125.618V125.232C194.261 122.4 187.953 123.816 187.953 126.262Z" fill="#262626"/>
<path d="M315.911 236.324H215.761L220.009 238.641V177.753L218.078 179.04H318.228L313.98 176.723V237.611C313.98 239.671 320.159 241.087 320.159 238.641V177.753C320.159 176.208 316.941 175.436 315.911 175.436H215.761C214.86 175.436 213.83 175.693 213.83 176.723V237.611C213.83 239.156 217.048 239.928 218.078 239.928H318.228C319.258 239.928 320.674 239.413 319.901 238.126C319.129 236.839 317.198 236.324 315.911 236.324Z" fill="#F5EE30"/>
<path d="M433.695 236.71H333.545L337.149 239.413V178.654L334.446 180.198H434.596L430.992 177.495V238.254C430.992 239.799 432.408 240.572 433.695 240.958C434.596 241.086 437.299 241.086 437.299 239.542V178.783C437.299 176.98 435.24 176.079 433.695 176.079H333.545C332.773 176.079 330.842 176.465 330.842 177.624V238.383C330.842 240.185 332.901 241.086 334.446 241.086H434.596C435.754 241.086 437.557 240.572 437.299 239.027C437.042 237.482 434.982 236.71 433.695 236.71Z" fill="#F5EE30"/>
<path d="M316.554 286.012H216.404V346.772H316.554V286.012Z" fill="#262626"/>
<path d="M318.354 345.227H218.204L219.363 345.999V285.24L214.6 287.814H314.75L313.591 287.042V347.801C313.591 349.603 319.641 347.801 319.641 345.999V285.24C319.641 284.596 318.998 284.468 318.483 284.468H218.333C217.303 284.468 213.57 285.497 213.57 286.913V347.673C213.57 348.316 214.214 348.445 214.729 348.445H314.879C316.423 348.445 317.968 347.801 319.127 346.771C319.77 345.87 319.513 345.227 318.354 345.227Z" fill="#262626"/>
<path d="M434.082 345.227H333.932L336.507 347.158V286.398L332.774 289.102H433.052L430.478 287.171V347.93C430.478 349.475 432.795 349.861 433.953 349.732C435.498 349.732 436.657 348.574 436.785 347.029V286.27C436.785 285.111 435.112 284.339 434.211 284.339H333.932C332.259 284.339 330.199 285.111 330.199 287.042V347.801C330.199 348.96 331.873 349.732 332.774 349.732H433.052C434.468 349.732 436.399 349.217 436.785 347.672C437.171 346.128 435.369 345.227 434.082 345.227Z" fill="#F5EE30"/>
<path d="M219.107 203.369C225.801 194.487 232.881 185.862 240.218 177.495C240.347 177.366 240.862 176.852 240.733 176.465C240.604 176.079 239.832 176.465 239.575 176.465C238.159 176.98 236.743 177.753 235.713 178.782C228.118 187.407 220.909 196.289 213.958 205.429C213.186 206.587 215.117 205.944 215.503 205.686C216.919 205.429 218.206 204.528 219.107 203.369Z" fill="#F5EE30"/>
<path d="M222.068 223.837C233.525 208.647 245.626 193.972 258.498 179.941C258.756 179.684 256.052 178.268 255.795 178.139C255.538 178.01 253.092 176.594 252.706 177.109C239.833 191.14 227.732 205.687 216.276 221.005C216.147 221.134 221.425 224.609 222.068 223.837Z" fill="#F5EE30"/>
<path d="M236.874 238.254C250.776 219.203 265.193 200.409 279.868 181.872C280.126 181.615 274.848 178.139 273.947 179.169C259.143 197.577 244.855 216.371 230.952 235.422C230.695 235.937 236.23 239.284 236.874 238.254Z" fill="#F5EE30"/>
<path d="M263.005 235.809L305.871 179.941L301.108 180.713L300.593 182.387C300.207 183.803 301.752 183.674 302.653 183.417C304.198 183.031 305.356 182.001 306 180.585L306.515 178.911C306.772 177.881 305.871 177.624 305.099 177.624C303.811 177.881 302.524 178.525 301.752 179.555L258.886 235.423C258.242 236.195 257.598 237.482 259.014 237.74C260.559 237.611 261.975 236.967 263.005 235.809Z" fill="#F5EE30"/>
<path d="M291.967 236.967C299.434 223.58 308.316 211.093 318.485 199.765C317.455 199.379 316.426 199.25 315.267 199.121C314.495 199.121 312.564 198.735 312.049 199.379C301.879 210.836 292.997 223.193 285.531 236.581C285.402 236.838 288.492 237.225 288.749 237.225C289.393 237.225 291.581 237.611 291.967 236.967Z" fill="#F5EE30"/>
<path d="M345.389 287.428C343.586 306.738 347.062 325.789 348.864 344.969C348.993 346.643 350.023 348.059 351.567 348.703C352.469 349.089 353.498 348.703 353.885 347.801C354.013 347.544 354.013 347.158 354.013 346.9C352.211 328.235 348.607 309.441 350.409 290.647C350.538 289.102 349.765 287.557 348.478 286.656C347.577 286.012 345.646 285.884 345.389 287.428Z" fill="#F5EE30"/>
<path d="M363.413 288.458C360.709 306.351 360.452 324.502 362.64 342.524C363.027 345.999 369.077 346.385 368.562 342.395C366.502 324.888 366.76 307.252 369.463 289.874C369.849 286.399 363.928 284.596 363.413 288.458Z" fill="#F5EE30"/>
<path d="M384.391 286.785C384.262 306.866 384.262 326.948 384.52 347.029C384.777 348.574 385.807 349.861 387.352 350.505C388.382 351.02 389.926 350.891 389.926 349.475C389.669 329.393 389.669 309.312 389.798 289.23C389.798 286.913 384.391 283.695 384.391 286.785Z" fill="#F5EE30"/>
<path d="M403.446 286.27C402.159 305.836 402.803 325.531 405.12 345.098C405.377 347.672 411.814 348.059 411.556 345.742C409.239 326.304 408.596 306.608 409.883 286.913C410.012 284.339 403.575 283.695 403.446 286.27Z" fill="#F5EE30"/>
<path d="M334.707 309.183C359.552 304.42 384.653 302.103 409.884 302.103C416.964 302.103 424.173 302.232 431.253 302.618C432.154 302.618 434.471 302.489 434.471 301.202C434.471 299.915 432.025 299.657 431.253 299.657C405.25 298.37 379.118 299.4 353.244 302.875C345.907 303.905 338.569 305.064 331.36 306.48C330.331 306.609 329.172 307.638 330.202 308.539C331.232 309.441 333.42 309.441 334.707 309.183Z" fill="#F5EE30"/>
<path d="M336.249 331.324C361.866 332.225 387.354 331.195 412.842 328.363C419.922 327.591 427.002 326.561 434.082 325.531C435.369 325.274 436.785 323.987 436.27 322.571C435.755 321.155 433.696 320.64 432.28 320.897C407.564 324.63 382.591 326.69 357.618 326.819C350.409 326.819 343.329 326.69 336.121 326.561C334.705 326.561 332.902 327.462 332.902 329.007C332.902 330.552 334.833 331.195 336.249 331.324Z" fill="#F5EE30"/>
<path d="M240.734 143.64C233.011 142.482 223.742 149.433 226.059 157.929C227.089 161.662 230.05 164.623 233.912 165.652C238.031 166.682 242.279 165.138 245.626 162.692C247.299 161.404 248.844 159.988 250.26 158.444C251.933 156.899 253.349 154.968 254.25 152.908C255.023 151.235 254.508 149.175 253.092 148.017C250.904 146.472 247.943 147.888 246.269 149.562C244.725 151.235 243.695 153.295 243.051 155.354C242.408 157.156 241.635 159.731 243.309 161.276C244.725 162.563 247.299 162.82 249.101 163.078C251.418 163.335 253.864 163.335 256.181 162.949C265.064 161.662 272.787 156.127 276.906 148.274C278.451 145.314 280.253 140.808 279.352 137.461C277.936 132.441 272.144 135.015 269.569 137.461C263.905 142.868 263.39 151.621 268.153 157.8C270.728 160.89 274.203 163.078 278.065 164.108C282.056 165.266 287.076 165.524 290.68 163.078C292.611 161.662 294.156 159.731 294.928 157.414C295.829 155.612 296.216 153.552 296.216 151.621C296.087 149.562 294.285 148.017 292.225 148.146C291.968 148.146 291.71 148.274 291.324 148.274C288.878 148.789 286.818 150.463 285.66 152.78C284.244 156.255 285.145 160.375 288.106 162.692C291.968 165.91 297.76 165.266 302.394 164.623C303.939 164.365 305.226 163.207 305.613 161.533C305.741 159.988 304.325 159.474 303.038 159.731C299.691 160.117 294.8 160.761 292.225 157.929C291.324 156.899 290.809 155.612 290.809 154.324C290.809 154.067 291.195 152.908 291.066 152.78C290.938 152.651 290.809 152.908 290.809 152.908C289.136 152.522 290.294 152.78 290.165 153.166C290.037 153.681 290.165 154.453 289.908 155.097C289.65 155.869 289.393 156.642 289.136 157.414C288.492 158.959 288.106 159.474 286.432 159.602C282.699 159.731 279.095 158.572 276.005 156.384C273.173 154.453 271.242 151.492 270.728 148.146C270.341 145.314 270.856 141.838 273.045 139.778C272.787 140.036 273.56 139.263 273.56 139.392L273.688 139.263C273.946 139.006 273.688 139.006 273.045 139.263C273.173 139.135 273.56 140.679 273.56 140.808C273.431 142.482 273.045 144.155 272.401 145.828C271.114 149.175 268.797 152.136 265.965 154.453C262.489 157.028 258.241 158.315 253.864 158.186C252.706 158.186 251.418 158.058 250.26 157.8C249.874 157.671 248.329 157.543 248.072 157.156C247.814 156.77 248.715 154.582 248.973 154.067C249.23 153.552 249.359 153.037 249.745 152.651C249.874 152.394 250.002 152.136 250.131 152.007C250.26 151.75 250.26 151.879 249.874 152.136L248.329 152.394C249.101 152.394 247.042 154.968 246.784 155.226C245.626 156.513 244.467 157.8 243.051 158.83C240.605 160.632 237.773 161.533 235.07 159.86C232.624 158.186 230.693 154.968 231.594 152.007C232.238 149.69 234.555 148.146 237.001 148.403C238.546 148.66 240.219 148.017 241.12 146.73C241.893 145.957 242.279 144.026 240.734 143.64Z" fill="#262626"/>
<path d="M309.991 154.324L312.308 150.977C312.437 150.849 311.536 150.205 311.665 150.205C310.506 149.304 309.219 148.403 307.803 147.759L307.288 147.502C307.159 147.373 307.03 147.373 306.773 147.373L304.456 150.72C304.327 150.849 305.1 151.492 305.1 151.492C305.743 152.007 306.258 152.393 307.03 152.78C307.674 153.166 308.318 153.552 308.961 153.938L309.476 154.196C309.605 154.324 309.734 154.453 309.991 154.324Z" fill="#262626"/>
<path d="M229.149 270.05C237.516 266.961 243.309 259.237 243.824 250.355C243.824 249.582 238.16 249.196 237.516 249.325C232.367 250.87 228.892 255.504 228.634 260.91C228.763 266.06 231.852 270.565 236.615 272.496C242.923 274.942 250.003 274.684 256.31 271.981C261.331 269.921 267.51 266.961 268.926 261.168C269.569 258.722 269.054 255.504 266.737 254.088C265.321 253.316 263.777 252.929 262.232 252.929C260.687 252.543 259.014 252.672 257.469 253.187C254.766 254.474 254.38 257.564 254.38 260.267C254.38 262.97 254.38 265.802 256.053 267.862C257.726 269.921 260.816 270.694 263.39 271.337C266.995 272.367 270.728 272.753 274.461 272.625C277.164 272.625 279.739 271.337 281.541 269.278C282.957 267.476 283.729 264 281.412 262.584C279.481 261.683 277.422 261.297 275.362 261.425C274.075 261.297 272.916 262.198 272.659 263.485C272.273 266.317 273.302 269.02 275.491 270.822C278.065 272.882 282.185 273.268 285.274 273.268C288.106 273.397 290.809 271.981 292.483 269.664C291.453 269.278 290.423 269.02 289.393 268.892C288.878 268.763 286.561 268.248 286.175 268.892C285.274 270.308 283.987 271.209 282.442 271.852C282.056 271.981 281.67 271.981 281.412 272.11C280.511 272.238 280.64 272.238 282.185 272.367C283.472 272.625 283.858 272.753 283.214 272.496C282.571 272.11 281.798 271.595 281.155 271.08C279.996 269.921 279.353 268.505 279.095 266.961C278.838 265.545 278.838 263.099 280.64 262.841L277.55 262.713L277.937 262.841L275.233 262.198C276.778 262.97 276.778 265.287 276.392 266.703C275.877 268.248 274.847 269.664 273.302 270.565C270.47 272.367 266.866 272.238 264.163 270.436C260.945 268.505 260.816 264.644 260.945 261.297C260.816 259.623 261.202 257.95 261.974 256.405C262.489 255.633 263.133 255.118 263.777 254.603L264.163 254.474L260.558 253.831C260.816 254.217 261.588 254.603 261.846 254.989C263.905 257.692 263.004 261.554 261.202 264.257C259.142 267.218 255.924 268.892 252.706 270.436C251.033 271.209 249.488 271.852 247.686 272.496C246.785 272.753 245.884 273.011 244.982 273.268C244.596 273.397 244.081 273.397 243.695 273.526C243.309 273.654 241.121 273.526 242.665 273.654C244.21 273.783 242.665 273.526 242.408 273.397C242.15 273.268 241.764 273.14 241.507 272.882C240.863 272.496 240.22 272.11 239.705 271.595C238.289 270.436 237.259 269.02 236.486 267.476C233.654 261.425 236.358 254.217 242.408 251.385C242.923 251.127 243.309 250.999 243.824 250.87L237.516 249.84C237.001 258.593 231.337 266.317 222.97 269.406C222.455 269.535 225.03 270.179 225.158 270.179C226.446 270.179 227.733 270.308 229.149 270.05Z" fill="#262626"/>
<path d="M110.203 183.288C113.807 181.357 117.026 178.911 119.858 175.822C121.274 174.277 122.432 172.604 123.591 170.802C124.621 169.128 125.908 167.197 125.393 165.138C124.62 162.692 122.303 161.018 119.858 161.147C117.669 161.276 115.738 162.563 114.837 164.494C114.065 166.554 113.55 168.742 113.421 170.93C113.035 173.376 112.906 175.822 113.164 178.397C113.679 182.645 116.124 186.506 119.858 188.823C123.719 190.883 128.354 190.626 131.829 188.309C135.562 185.863 137.879 181.872 139.553 178.01C140.583 176.079 140.583 173.762 139.553 171.831C138.266 169.901 135.562 168.227 133.245 169.514C131.314 170.544 130.799 173.634 130.671 175.565C130.542 178.139 131.443 180.585 133.116 182.516C136.721 186.635 141.87 187.407 147.019 187.665C151.01 187.794 149.207 182.13 145.989 182.001C142.127 181.872 135.691 181.743 136.592 176.337C136.85 175.822 136.978 175.178 137.107 174.535C136.077 174.792 135.047 174.406 134.532 173.505L134.404 173.891C134.018 174.149 133.76 175.436 133.503 175.822C133.245 176.466 132.859 177.109 132.473 177.753C131.443 179.941 129.898 181.743 127.839 183.159C126.165 184.447 124.106 184.833 122.046 184.318C120.501 183.546 119.343 182.001 118.956 180.327C118.442 177.624 118.442 174.921 118.956 172.218C119.085 171.059 119.343 169.772 119.6 168.613C119.729 168.098 120.115 167.583 120.501 167.197L120.887 166.94C121.402 166.811 121.145 166.554 119.986 166.296L119.343 164.88C119.471 164.751 119.471 164.751 119.343 165.009C119.214 165.266 119.214 165.266 119.085 165.395C118.828 165.781 118.699 166.167 118.442 166.554C118.055 167.197 117.669 167.841 117.154 168.485C116.253 169.901 115.095 171.188 113.936 172.346C111.619 174.663 109.045 176.723 106.084 178.268C102.994 179.941 106.985 184.833 109.817 183.417L110.203 183.288Z" fill="#F5EE30"/>
<path d="M114.839 216.5C112.393 218.817 110.591 221.649 109.561 224.867C108.531 227.828 107.888 231.303 110.076 233.878C112.651 236.967 117.414 237.997 121.275 237.482C124.751 236.838 127.84 235.036 130.286 232.59C132.603 230.402 135.178 227.699 132.217 224.738C130.801 223.322 128.87 222.55 126.811 222.678C125.266 223.193 123.979 224.352 123.464 226.025C122.048 229.244 122.048 232.59 124.622 235.165C127.326 237.868 131.187 239.284 135.049 238.769C142.644 237.868 147.407 228.729 143.931 222.035C143.159 220.748 141.872 219.718 140.327 219.46C139.555 219.332 137.624 219.46 138.267 220.748C140.07 224.738 139.04 229.501 135.822 232.462C134.406 233.878 132.475 234.65 130.415 234.779C130.029 234.779 129.643 234.779 129.256 234.65C128.999 234.65 128.87 234.521 128.742 234.521C128.742 234.521 129.128 234.779 128.999 234.65C128.484 234.006 128.098 233.234 128.227 232.462C128.227 231.432 128.484 230.273 128.999 229.372C129.128 228.986 129.385 228.471 129.643 228.085C129.9 227.699 130.544 227.313 130.672 226.926L129.256 226.025C128.098 224.867 127.583 224.738 127.712 225.51C127.583 225.639 127.583 225.897 127.583 226.025C127.326 226.412 127.197 226.798 126.811 227.055C126.038 227.956 125.266 228.729 124.365 229.501C122.691 231.174 120.503 232.333 118.315 233.105C117.285 233.363 116.255 233.492 115.225 233.492C114.968 233.492 114.453 233.234 114.195 233.234C113.423 233.234 114.968 233.492 114.71 233.749C114.71 233.749 114.453 232.977 114.453 232.848C114.324 230.531 114.839 228.214 115.869 226.154C116.77 223.966 118.186 221.906 119.988 220.233C121.662 218.43 116.255 215.084 114.839 216.5Z" fill="#F5EE30"/>
<path d="M112.007 258.851C114.582 263.099 115.998 267.733 116.255 272.753C116.641 275.199 116.384 277.774 115.483 280.22C115.097 280.992 114.582 281.764 113.938 282.279C113.809 282.408 113.295 282.537 113.295 282.794C113.037 283.309 113.295 282.537 113.552 282.923C113.423 282.794 113.166 282.665 113.037 282.408C110.72 279.061 114.453 274.942 117.156 273.397C120.246 271.595 125.266 270.179 128.742 271.724C131.059 272.753 132.089 275.07 132.604 277.388C132.861 278.546 132.99 279.705 132.861 280.863C132.861 281.378 132.732 281.893 132.475 282.408C132.089 283.309 131.445 282.794 133.247 282.408L134.792 282.279L134.406 282.15L135.564 282.665C134.663 281.893 134.792 280.22 135.307 279.318C135.951 278.289 136.98 277.388 138.139 277.001C141.228 275.585 144.704 274.813 148.051 274.942C149.724 274.942 151.14 273.912 151.655 272.367C152.041 270.822 150.625 270.05 149.338 270.05C144.447 270.05 139.555 271.209 135.178 273.526C131.316 275.714 127.583 279.962 129.385 284.725C130.415 287.428 133.376 287.686 135.564 286.141C137.367 284.982 138.525 283.052 138.911 280.992C139.684 276.744 138.525 272.496 135.693 269.278C132.732 266.188 127.841 265.931 123.979 266.574C119.345 267.218 114.968 269.149 111.364 272.238C108.403 274.942 105.828 279.061 106.729 283.309C106.987 285.369 108.532 287.042 110.463 287.686C113.037 288.072 115.612 287.3 117.671 285.626C122.048 282.15 123.207 276.615 122.692 271.337C122.177 266.06 121.018 260.782 118.186 256.276C117.285 255.118 115.612 254.86 114.324 255.633C113.295 256.148 111.492 257.692 112.393 258.98L112.007 258.851Z" fill="#F5EE30"/>
<path d="M111.75 330.037C110.978 325.66 111.235 321.155 112.523 316.907C113.166 314.847 113.939 312.787 115.097 310.985C115.612 310.084 116.256 309.183 116.771 308.411C117.028 308.025 117.286 307.767 117.543 307.381C118.058 306.866 117.929 306.866 118.444 306.737L116.899 306.609C117.414 306.737 117.414 306.737 117.028 306.609C117.157 306.737 117.414 306.866 117.414 307.123C117.8 307.638 118.187 308.282 118.573 308.797C119.216 309.698 119.731 310.728 120.246 311.758C121.276 313.946 122.177 316.392 122.692 318.709C123.207 321.155 123.464 323.729 123.464 326.304C123.464 327.462 123.336 328.621 123.207 329.779C123.078 330.423 123.078 332.225 122.435 332.354L123.851 332.096C125.138 332.096 124.108 332.998 124.237 332.225C124.237 331.968 124.108 331.582 124.108 331.324C124.108 330.552 124.494 329.779 124.88 329.136C126.039 327.591 128.227 327.205 130.03 326.947C134.02 326.561 138.783 327.205 142.13 329.779C143.288 330.68 145.219 331.324 146.507 330.166C147.536 329.136 147.408 327.462 146.378 326.561C146.249 326.432 146.249 326.432 146.12 326.304C142.774 323.729 138.783 322.184 134.664 321.67C130.931 321.155 126.554 321.155 123.207 322.828C119.86 324.244 117.8 327.848 118.187 331.453C118.702 335.186 123.722 339.563 127.326 336.473C128.485 335.315 129.128 333.641 129.257 331.968C129.643 329.779 129.772 327.72 129.772 325.531C129.643 321.67 129 317.679 127.712 314.075C126.425 310.342 124.623 306.866 122.048 303.905C120.632 302.103 118.573 301.073 116.256 301.202C114.067 301.459 112.909 303.004 111.622 304.549C106.344 311.629 104.155 320.64 105.7 329.264C106.086 330.938 107.374 332.096 109.047 332.225C110.334 332.611 112.008 331.71 111.75 330.037Z" fill="#F5EE30"/>
<path d="M196.324 387.707C196.324 387.707 182.679 380.627 177.788 382.429C172.896 384.231 150.24 419.116 150.24 419.116L176.243 422.592L196.324 387.707Z" fill="white"/>
<path d="M196.197 386.29C191.82 383.973 187.057 382.042 182.294 380.755C180.106 380.24 177.145 379.468 175.085 380.626C173.927 381.399 172.768 382.3 171.867 383.458C168.52 387.32 165.302 391.311 162.47 395.43C159.123 400.064 155.905 404.698 152.687 409.461C150.885 412.036 149.211 414.61 147.409 417.314C146.894 417.957 148.439 419.245 148.825 419.502C149.726 420.274 150.885 420.789 152.172 421.047L178.175 424.522C178.432 424.522 178.69 424.522 178.818 424.265L196.454 393.885L199.029 389.637C199.93 388.221 194.394 384.746 193.622 386.033L175.986 416.413L173.541 420.789L174.184 420.532L148.181 417.056L152.815 420.789C156.935 414.353 161.311 408.045 165.688 401.866C168.778 397.618 171.738 393.37 175.085 389.251C176.244 387.835 177.402 386.548 178.69 385.261C179.719 384.36 181.135 383.845 182.551 384.102C185.641 384.488 188.73 385.389 191.562 386.805C192.206 387.063 192.978 387.449 193.622 387.706L194.266 387.964L194.909 388.221L196.325 388.994C196.969 389.251 198.771 390.281 199.029 388.994C199.286 387.706 196.969 386.677 196.197 386.29Z" fill="#262626"/>
<path d="M229.019 338.404L217.562 334.671L163.883 415.254L174.438 417.314L229.019 338.404Z" fill="#F5EE30"/>
<path d="M229.665 335.701L218.208 331.968C216.921 331.582 215.505 332.097 214.732 333.126L196.453 360.545L167.618 403.798L161.053 413.71C159.895 415.383 161.439 417.571 163.242 417.829L173.797 419.76C175.084 420.146 176.5 419.631 177.273 418.601L195.681 391.955L225.031 349.475L231.724 339.82C233.913 336.731 228.12 334.027 226.06 336.859L207.524 363.635L178.174 406.115L171.48 415.769L174.956 414.611L164.4 412.68L166.588 416.799L184.868 389.38L213.703 346.128L220.268 336.216L216.792 337.374L228.249 341.107C229.793 341.622 231.596 340.85 232.111 339.177C232.497 337.503 231.338 335.958 229.665 335.701Z" fill="#F5EE30"/>
<path d="M154.228 413.709C152.04 414.224 117.283 462.754 117.283 462.754L138.137 500.986L177.914 436.237C182.162 433.405 192.202 423.493 201.342 411.521C203.273 408.946 216.403 378.953 216.661 366.209C216.918 353.465 206.234 374.705 206.234 374.705C206.234 374.705 204.56 356.683 198.51 363.506C197.223 364.922 192.717 390.538 192.717 390.538C192.717 390.538 181.389 384.36 178.944 386.033C176.498 387.706 186.538 400.837 186.538 400.837C186.538 400.837 176.112 417.056 174.567 417.314" fill="white"/>
<path d="M153.33 411.135C150.755 411.908 148.696 415.383 147.151 417.314C144.062 421.176 141.23 425.038 138.269 428.9C131.704 437.653 125.267 446.535 118.831 455.417L114.326 461.596C113.811 462.369 113.811 463.527 114.326 464.3L132.605 497.769L135.179 502.531C136.338 504.591 139.685 503.561 140.715 502.017L154.102 480.133L175.471 445.377L180.363 437.396L179.462 438.425C182.937 435.98 186.027 433.148 188.987 430.058C193.493 425.424 197.741 420.661 201.731 415.641C203.405 413.581 204.821 411.264 205.979 408.818C207.524 405.471 209.069 401.996 210.485 398.52C213.96 390.41 216.664 382.043 218.723 373.418C219.496 370.071 220.139 366.209 219.496 362.734C218.852 359.258 214.862 358.615 212.158 360.674C209.455 362.734 207.91 365.566 206.366 368.269C205.336 370.071 204.306 371.873 203.405 373.676L209.326 374.448C208.811 369.428 207.267 356.941 199.543 359.516C195.81 360.803 194.909 364.15 194.008 367.497C192.978 371.873 192.077 376.25 191.304 380.756C190.661 383.845 190.146 386.934 189.631 390.024L194.265 387.964C192.463 386.934 190.532 386.033 188.601 385.261C185.898 384.103 182.68 382.686 179.59 383.073C171.094 383.974 177.659 393.757 180.105 397.233C181.264 399.035 182.551 400.708 183.838 402.382V399.807C182.165 402.382 180.491 404.956 178.689 407.531C177.402 409.462 176.115 411.264 174.699 413.066L173.926 414.096C173.411 414.74 174.312 413.581 173.798 414.225L173.54 414.611C173.411 414.868 173.154 414.997 172.896 415.254C172.639 415.512 172.124 415.641 173.154 414.997C172.768 415.254 174.055 414.611 173.669 414.74C172.124 415.126 171.094 416.67 171.48 418.215C171.995 419.889 173.926 420.017 175.342 419.76C177.016 419.374 178.432 417.443 179.462 416.156C180.878 414.353 182.294 412.422 183.581 410.492C185.512 407.66 187.443 404.828 189.245 401.996C189.76 401.223 189.76 400.065 189.245 399.292C187.958 397.619 186.799 396.074 185.64 394.272C184.739 392.856 183.838 391.44 182.937 390.024C182.294 388.994 181.907 387.836 181.521 386.677C181.392 386.162 181.521 387.192 181.521 386.548C181.392 387.063 181.392 387.063 181.521 386.806C181.264 387.321 180.878 387.836 180.363 388.093C180.234 388.222 179.333 388.479 179.719 388.35H179.59H180.105C180.749 388.479 181.264 388.608 181.907 388.737C182.808 388.994 183.581 389.38 184.482 389.638C186.67 390.539 188.859 391.697 191.047 392.856C192.463 393.628 195.424 392.598 195.681 390.796C196.711 384.617 197.87 378.438 199.286 372.26C199.672 370.586 200.058 368.784 200.444 367.111C200.573 366.467 200.702 365.952 200.959 365.308C201.216 364.665 201.603 363.506 201.088 364.665C200.573 364.922 201.216 364.279 201.088 364.665C201.088 364.665 201.731 364.021 201.345 364.407C200.959 364.793 201.474 364.407 201.603 364.278C201.731 364.15 200.83 364.536 201.345 364.407C200.959 364.536 200.702 364.536 200.315 364.536C200.83 364.536 199.543 364.407 200.187 364.536L199.8 364.278C199.929 364.278 199.929 364.407 200.058 364.407C200.187 364.407 200.573 364.922 199.929 364.278C200.058 364.407 200.187 364.536 200.187 364.665C200.315 364.922 200.573 365.18 200.702 365.437C200.444 364.922 200.959 365.952 200.959 366.081C201.088 366.467 201.216 366.853 201.345 367.239C201.86 369.041 202.375 370.844 202.632 372.646C202.632 372.774 202.761 373.161 202.632 372.517C202.632 372.646 202.761 372.903 202.761 373.161L202.89 374.062L203.019 374.834C203.276 377.666 207.653 378.052 208.94 375.607C209.712 374.191 210.356 372.774 211.257 371.358C212.158 369.942 212.673 368.913 213.446 367.754C213.832 367.239 214.218 366.596 214.604 366.081C214.733 365.823 214.99 365.566 215.119 365.308C215.248 365.051 214.862 365.566 215.376 365.051L215.891 364.536C216.02 364.407 216.664 363.892 216.149 364.278C215.634 364.665 216.664 364.278 216.02 364.407C215.376 364.536 214.733 364.536 214.089 364.407C213.703 364.278 213.446 364.021 213.703 364.15C213.446 364.021 213.188 363.635 213.446 363.892C213.317 363.377 213.703 364.15 213.446 363.892C213.446 364.021 213.574 364.793 213.574 364.15C213.574 364.665 213.703 365.051 213.703 365.566C213.703 368.913 213.188 372.131 212.287 375.349C210.099 383.588 207.267 391.697 203.791 399.55C203.147 401.223 202.375 402.897 201.603 404.57C200.83 406.244 200.83 406.372 200.058 407.788C198.384 410.749 196.454 413.452 194.136 416.027C190.403 420.532 186.542 424.78 182.294 428.771C180.878 430.187 179.462 431.474 177.917 432.761L177.016 433.405C177.531 433.019 176.887 433.534 176.63 433.662C176.115 434.049 175.728 434.435 175.342 434.95C173.798 437.138 172.51 439.584 171.094 441.901L150.755 474.855L140.972 490.431C139.17 493.263 137.239 496.095 135.694 499.056L135.437 499.442L140.972 498.927L122.693 465.458L120.118 460.695V463.398C123.98 457.992 127.842 452.714 131.704 447.308C138.14 438.425 144.577 429.672 151.27 421.047C151.914 420.146 152.558 419.374 153.33 418.473L153.716 417.958C154.231 417.314 153.587 418.215 153.845 417.829L154.617 416.928C155.003 416.413 155.39 416.027 155.776 415.641C155.905 415.512 156.033 415.383 156.162 415.254C156.419 414.868 155.647 415.641 155.776 415.641C156.162 415.383 155.003 416.027 155.132 415.898C156.677 415.769 157.707 414.353 157.449 412.809C157.32 411.264 155.905 410.234 154.36 410.492C153.974 410.749 153.716 410.878 153.33 411.135Z" fill="#262626"/>
<path d="M202.116 372.517C202.373 376.25 202.502 379.854 202.502 383.587C202.502 389.638 202.502 395.945 200.957 401.738C200.571 403.154 201.987 403.54 203.146 403.283C204.304 403.025 206.364 402.124 206.75 400.708C208.424 394.658 208.552 388.093 208.552 381.785C208.552 377.923 208.424 374.19 208.166 370.329C207.78 367.883 201.859 370.2 202.116 372.517Z" fill="#262626"/>
<path d="M190.142 391.955C189.885 391.826 190.657 392.084 190.142 391.955C190.399 392.084 190.786 392.212 191.043 392.341C192.073 392.727 192.974 393.242 193.875 393.886C196.578 395.688 198.509 398.391 199.282 401.609C199.797 404.313 199.797 407.145 199.153 409.719C198.895 410.878 201.213 410.234 201.727 410.105C202.5 409.848 203.272 409.59 204.045 409.204C204.431 408.947 205.074 408.561 205.203 408.046C206.233 403.669 206.104 398.777 203.53 394.916C201.856 392.598 199.668 390.796 197.093 389.638C196.45 389.38 195.806 389.123 195.162 388.994C193.618 388.865 192.202 389.252 190.914 390.153C190.271 390.539 188.983 391.569 190.142 391.955Z" fill="#262626"/>
<path d="M141.872 495.065C141.872 495.065 157.834 362.219 106.6 345.227C28.0768 319.224 4.64844 488.757 4.64844 488.757" fill="white"/>
<path d="M144.832 494.164C145.476 488.243 145.99 482.45 146.377 476.529C147.278 462.755 147.406 448.852 146.892 435.078C146.248 419.116 144.703 403.025 140.713 387.578C137.366 374.577 132.088 360.674 121.79 351.534C112.521 343.167 98.7476 340.335 86.6472 342.266C73.5171 344.326 61.4167 350.505 52.0196 360.03C42.4938 369.685 35.2851 381.785 29.3637 394.014C23.1848 407.016 18.0357 420.532 14.0451 434.435C10.5695 446.149 7.60877 457.992 5.16295 469.835C3.87568 476.142 2.71714 482.579 1.68732 488.886C1.68732 489.144 1.55859 489.53 1.55859 489.787C2.58841 489.659 3.74696 489.53 4.77677 489.144C5.29168 489.015 7.60877 488.5 7.7375 487.857C8.38113 483.48 9.1535 479.103 9.92586 474.855C11.9855 464.171 14.4313 453.615 17.1346 443.06C20.6102 429.672 25.1157 416.413 30.2647 403.54C35.5426 390.668 41.9789 378.052 50.4749 366.982C54.3367 361.961 58.7135 357.327 63.4764 353.337C65.6647 351.534 68.1105 349.861 70.6851 348.316C71.9723 347.544 73.2596 346.9 74.5469 346.257C74.9331 346.128 75.5767 345.742 76.0916 345.613C76.3491 345.484 76.4778 345.356 76.7352 345.356L77.1214 345.227C77.8938 344.969 76.4778 345.484 77.2502 345.227L77.6363 345.098C77.1214 345.227 78.4087 344.841 77.6363 345.098L78.1513 344.969C78.0225 344.969 77.3789 345.227 78.0225 344.969L78.4087 344.841C78.0225 344.969 79.1811 344.712 78.4087 344.841L79.3098 344.583C80.3396 344.326 81.8843 344.068 83.1716 343.94C86.1323 343.553 89.2218 343.553 92.1825 343.94C98.6189 344.583 104.798 346.514 110.333 349.861C121.404 356.812 127.711 369.299 131.83 381.27C136.722 395.945 138.91 411.65 139.94 427.097C140.97 441.644 141.099 456.19 140.326 470.736C139.94 478.846 139.425 487.084 138.524 495.194C138.524 495.58 138.396 495.966 138.396 496.353C139.425 496.224 140.584 496.095 141.614 495.709C142.386 495.323 144.832 494.808 144.832 494.164Z" fill="#262626"/>
<path d="M28.3315 332.869C2.45729 287.814 27.1729 262.198 47.6405 251.642C68.1081 241.087 85.615 243.146 93.3387 250.355C99.1314 255.633 99.775 301.331 99.775 301.331L77.119 349.604C77.119 349.604 48.0267 367.239 28.3315 332.869Z" fill="#262626"/>
<path d="M128.612 312.659C135.048 292.062 95.5288 258.722 95.5288 258.722C87.2902 261.039 71.4568 260.138 71.4568 260.138C86.6466 280.992 62.9608 300.687 62.9608 300.687C51.3753 291.033 39.1463 302.618 45.9688 314.204C52.7913 325.789 65.0204 321.412 65.0204 321.412C65.0204 321.412 73.7739 354.109 77.2495 358.357C77.2495 358.357 103.639 362.348 107.372 338.919C107.372 339.048 124.235 326.561 128.612 312.659Z" fill="white"/>
<path d="M131.831 312.916C133.633 306.866 131.702 300.558 128.999 295.023C125.652 288.458 121.533 282.408 116.641 276.873C112.522 272.11 108.145 267.475 103.511 263.227C102.224 261.94 100.936 260.782 99.5203 259.623C97.7181 258.078 95.1435 257.435 92.8265 258.078C88.321 258.979 83.8156 259.366 79.1814 259.366C77.2505 259.366 75.3196 259.366 73.2599 259.366L71.329 259.237C69.7843 259.108 70.9428 259.237 71.329 259.237C71.2003 259.237 67.4672 259.108 68.1108 260.009C73.0025 266.574 74.2897 274.942 71.7152 282.665C69.7843 288.2 66.5661 293.35 62.4468 297.469C61.5457 298.37 60.6447 299.271 59.6148 300.172L65.7937 300.687C61.1596 296.825 55.1094 295.409 49.1879 296.568C44.8112 297.469 41.4643 301.073 40.6919 305.45C39.9196 310.47 42.7516 315.877 46.6134 318.966C50.3465 321.67 54.8519 323.214 59.4861 323.214C62.1894 323.343 64.8927 323.086 67.4672 322.184L61.5458 321.283C63.2192 327.72 65.1501 334.156 67.081 340.464C68.3683 344.712 69.7843 348.96 71.329 353.208C71.8439 354.624 72.4876 356.168 73.2599 357.584C73.9036 358.743 75.0621 359.387 76.2207 359.387C82.5283 360.288 88.8359 359.902 94.8861 357.842C98.8766 356.555 102.481 354.238 105.184 351.148C106.729 349.346 107.888 347.158 108.789 344.969C109.304 343.682 109.69 342.395 109.947 341.107C110.076 340.464 109.947 339.949 110.462 339.434C111.621 338.275 112.908 337.246 114.195 336.344C116.384 334.414 118.443 332.483 120.503 330.294C125.394 325.274 129.771 319.61 131.831 312.916C132.088 312.144 125.909 310.856 125.394 312.401C123.077 319.481 118.314 325.531 113.165 330.809C111.234 332.74 109.175 334.671 106.986 336.473C106.085 337.117 105.184 337.76 104.283 338.533C104.026 339.305 103.768 340.078 103.768 340.85C103.511 341.622 103.382 342.523 103.125 343.296C102.61 344.712 102.095 346.128 101.322 347.415C100.035 349.732 98.1043 351.792 96.0446 353.336C94.1137 354.752 92.0541 355.782 89.737 356.555C88.7072 356.941 87.6774 357.198 86.6476 357.327C86.1326 357.456 85.6177 357.456 85.1028 357.584L84.3305 357.713H83.9443C83.5581 357.713 84.3305 357.713 83.9443 357.713C83.5581 357.713 82.9145 357.842 82.3996 357.842H81.6272C81.3697 357.842 80.7261 357.842 81.3697 357.842C80.5974 357.842 79.825 357.842 78.9239 357.842C79.9537 357.842 79.1814 357.842 78.6665 357.842H77.8941C76.993 357.713 78.6665 357.971 78.1516 357.842L80.3399 358.614C79.1814 357.07 78.409 355.267 77.7654 353.336C76.6068 350.376 75.577 347.415 74.6759 344.326C72.745 338.275 70.9428 332.096 69.2694 325.918C68.8832 324.502 68.497 323.214 68.1108 321.798C67.7247 320.382 63.2192 320.511 62.1894 320.897C61.9319 321.026 61.2883 321.155 61.417 321.155C61.5458 321.155 61.1596 321.155 61.1596 321.155L60.5159 321.283L59.8723 321.412C59.7436 321.412 59.6148 321.412 59.4861 321.412C59.2287 321.412 58.8425 321.412 58.585 321.412C59.0999 321.412 58.4563 321.412 58.3276 321.412C59.0999 321.412 57.8127 321.412 58.1988 321.412C58.585 321.412 57.4265 321.283 57.8127 321.412C56.3967 321.155 55.1094 320.511 53.9508 319.739C47.9007 315.748 44.425 305.965 50.3465 300.301C51.505 299.014 53.1785 298.241 54.8519 297.984C56.3967 297.984 58.585 299.657 59.7436 300.558C60.6447 301.202 61.6745 301.459 62.833 301.459C63.7341 301.588 65.2788 301.717 65.9225 301.073C73.9036 294.637 80.4686 283.952 79.6963 273.526C79.3101 268.634 77.5079 264 74.5472 260.138L71.329 260.91C74.6759 261.039 78.1516 261.168 81.6272 261.168C87.2912 261.297 92.8265 260.653 98.233 259.366L92.4403 258.593C96.9457 262.455 101.322 266.703 105.442 271.08C112.65 278.803 119.859 287.428 123.978 297.34C125.909 301.974 126.939 307.381 125.394 312.272C125.137 313.174 131.445 314.332 131.831 312.916Z" fill="#262626"/>
<path d="M77.1208 312.916C78.0218 317.422 80.5964 323.729 86.0029 323.858C88.32 323.729 90.5084 322.828 92.0531 321.155C92.8255 320.511 92.8255 319.353 92.1818 318.58C92.0531 318.451 92.0531 318.451 91.9244 318.323C91.0233 317.55 89.6073 317.422 88.5775 318.194C88.1913 318.451 87.9338 318.838 87.5477 319.095C87.4189 319.224 87.1615 319.353 87.0327 319.481C87.5477 319.095 87.0327 319.481 86.7753 319.61L86.2604 319.867C86.1317 319.867 86.1317 319.867 86.0029 319.996C86.3891 319.739 86.5178 319.867 86.2604 319.867L85.8742 319.996C85.7455 319.996 85.7455 319.996 85.6167 319.996C85.2306 319.996 86.2604 319.996 85.8742 319.996H85.488C85.3593 319.996 85.3593 319.996 85.2306 319.996C85.2306 319.996 85.8742 320.125 85.6167 319.996L85.2306 319.867C84.5869 319.739 85.7455 320.125 85.3593 319.867L84.9731 319.739C84.9731 319.739 84.8444 319.61 84.7157 319.61C84.7157 319.61 85.2306 319.996 84.9731 319.867C84.7157 319.739 84.5869 319.481 84.3295 319.353C84.072 319.224 83.9433 318.838 84.3295 319.481L84.072 319.224C83.9433 318.966 83.6858 318.709 83.5571 318.451C83.4284 318.194 83.2997 317.937 83.1709 317.808C82.9135 317.422 83.4284 318.323 83.1709 317.808L82.9135 317.293C82.5273 316.392 82.1411 315.362 81.7549 314.332C81.6262 313.946 81.4975 313.56 81.4975 313.174L81.3688 312.787C81.6262 313.56 81.4975 313.302 81.4975 313.174C81.24 311.886 80.2102 311.114 78.9229 311.114C77.8931 311.114 76.4771 311.758 76.6058 313.045L77.1208 312.916Z" fill="#262626"/>
<path d="M99.3926 285.884C105.314 287.042 111.364 287.428 117.286 286.785C137.496 285.24 141.486 291.419 136.337 296.697C131.188 301.974 104.027 305.579 104.027 305.579" fill="white"/>
<path d="M100.937 288.201C106.859 289.488 112.909 289.874 118.959 289.23C123.336 288.844 127.713 288.844 131.961 289.488C133.248 289.745 134.535 290.003 135.822 290.518L136.337 290.775L136.723 291.033C136.466 290.904 137.238 291.548 136.852 291.033L136.337 290.518C136.723 290.904 136.08 290.26 136.08 290.132C136.08 290.003 135.951 289.617 135.951 290.003C136.08 290.26 136.08 290.518 136.08 290.775C135.951 291.419 135.822 292.191 135.436 292.706C134.406 294.251 132.99 295.538 131.188 296.182C126.039 298.628 120.118 299.786 114.582 300.816C110.463 301.588 106.344 302.361 102.225 302.876C101.066 303.004 102.611 305.064 102.868 305.321C103.512 306.094 104.928 307.896 106.086 307.767C109.948 307.252 113.81 306.609 117.672 305.836C123.722 304.678 130.03 303.39 135.694 300.816C139.169 299.142 142.13 295.667 140.07 291.805C136.723 285.369 129.129 284.081 122.563 283.953C114.325 283.824 106.086 285.24 97.8478 283.309C96.5606 283.052 97.3329 284.596 97.5904 285.111C98.4915 286.527 99.65 287.557 100.937 288.201Z" fill="#262626"/>
<path d="M87.033 286.398C88.449 285.884 90.1224 286.656 90.6373 288.072C90.6373 288.201 90.7661 288.329 90.7661 288.458C91.4097 291.419 87.8053 292.32 86.3893 289.874C85.617 288.844 85.7457 287.3 86.7755 286.527C86.9043 286.398 87.033 286.398 87.033 286.398Z" fill="#262626"/>
<path d="M104.541 275.714C105.957 275.199 107.63 275.843 108.145 277.388C108.145 277.516 108.274 277.645 108.274 277.774C108.917 280.734 105.184 281.636 103.897 279.19C103.125 278.16 103.253 276.744 104.283 275.972C104.412 275.843 104.412 275.843 104.541 275.714Z" fill="#262626"/>
<path d="M44.6808 338.919C44.9382 342.266 44.9382 345.613 44.5521 348.96C44.2946 351.792 43.7797 354.495 42.8786 357.198C42.7499 357.585 42.4924 358.1 42.3637 358.486C42.1062 359.129 41.7201 359.644 41.4626 360.159C41.3339 360.288 41.3339 360.417 41.2052 360.545C41.0764 360.674 40.4328 361.318 40.819 361.06C41.2052 360.803 40.4328 361.189 40.4328 361.189C39.9179 361.704 40.9477 360.932 40.1753 361.318C39.7892 361.575 40.819 361.06 40.4328 361.189L40.0466 361.446C39.6604 361.575 40.6902 361.318 39.7892 361.446L39.403 361.575C39.6604 361.575 39.9179 361.446 39.403 361.575C39.0168 361.575 38.6306 361.575 38.2444 361.575C38.6306 361.575 37.8582 361.575 37.6008 361.446C37.3433 361.318 36.9572 361.318 36.571 361.318C35.7986 361.189 35.0263 360.803 34.2539 360.545C30.7783 359.001 26.9164 356.426 25.5004 352.693C25.1143 351.534 24.8568 350.247 25.1143 348.96C25.1143 348.574 25.243 348.316 25.3717 347.93C25.3717 347.801 25.5004 347.544 25.5004 347.415C25.6292 347.158 25.7579 346.9 25.8866 346.643C26.2728 345.999 25.7579 346.643 26.2728 346.128C26.5303 345.87 26.9164 345.484 26.4015 345.87C26.5303 345.742 27.3026 345.098 26.9164 345.484C26.5303 345.87 27.3026 345.227 27.3026 345.227C27.6888 344.969 26.659 345.484 27.0452 345.356L27.6888 345.098C28.075 344.969 27.1739 345.227 27.5601 345.098L27.9463 344.969C28.5899 344.841 27.5601 344.969 28.3324 344.969C28.8473 344.841 29.3623 344.969 29.7484 345.098C32.4517 345.742 34.3826 349.089 35.155 351.921C36.3135 356.684 36.4422 361.575 35.5412 366.209C34.7688 370.843 33.2241 375.22 31.0357 379.34C30.1346 381.142 28.9761 382.815 27.5601 384.36C27.1739 384.875 26.659 385.39 26.1441 385.776C25.8866 386.033 25.5004 386.291 25.243 386.548C25.7579 386.162 24.7281 386.806 24.5993 386.934C24.0844 387.192 24.5993 386.934 24.7281 386.934L24.3419 387.192C23.5695 387.578 24.4706 387.192 23.827 387.321L23.4408 387.449C23.0546 387.578 24.0844 387.449 23.3121 387.449H22.9259C22.5397 387.449 23.0546 387.449 22.7972 387.449C21.6386 387.321 20.4801 386.677 19.7077 385.776C17.9055 383.974 17.0044 381.528 17.0044 378.953C17.0044 378.567 17.0044 378.181 17.1332 377.924C17.2619 377.409 17.3906 376.894 17.5194 376.379C17.5194 376.25 17.7768 375.606 17.7768 375.735C17.7768 375.864 17.9055 375.349 18.0343 375.22C18.2917 374.705 18.5492 374.19 18.8066 373.804C19.0641 373.418 18.5492 374.19 18.9354 373.547L19.4503 372.903L19.9652 372.26C20.2226 372.002 20.7375 371.487 20.2226 372.002C20.6088 371.616 20.995 371.23 21.3812 370.844L22.0248 370.329C22.411 370.071 21.2524 370.844 21.8961 370.457L22.2823 370.2C22.6684 369.942 23.1834 369.685 23.5695 369.428C23.0546 369.814 23.1834 369.556 23.5695 369.428L24.4706 369.041L25.1143 368.784C24.2132 369.041 24.9855 368.784 25.243 368.784L26.0153 368.526C26.2728 368.398 26.9164 368.398 26.2728 368.526C26.7877 368.398 27.3026 368.398 27.6888 368.398C27.8175 368.398 28.5899 368.398 27.8175 368.398C28.075 368.398 28.3324 368.398 28.5899 368.526C28.9761 368.655 29.3623 368.655 29.7484 368.784C29.2335 368.655 29.7484 368.784 30.0059 368.913C30.2633 369.041 30.3921 369.17 30.6495 369.299C31.4219 369.685 31.9368 370.329 32.323 371.101C32.8379 372.002 33.3528 372.903 33.4815 373.933C33.9964 377.28 33.9964 380.627 33.2241 383.845C32.7092 386.162 32.0655 388.608 31.2932 390.925C30.7783 392.341 32.5804 392.598 33.6103 392.341C35.155 391.955 36.4422 390.925 36.9572 389.38C38.6306 384.746 39.5317 379.726 39.6604 374.705C39.7892 371.873 38.8881 369.041 37.2146 366.724C33.6103 362.605 27.5601 363.506 23.1833 365.694C18.0343 368.269 13.1426 372.774 11.8554 378.567C10.5681 384.36 14.1724 392.47 21.1237 391.955C25.6292 391.569 29.491 388.35 32.323 385.132C35.5412 381.142 38.1157 376.636 39.6604 371.745C41.5913 366.338 42.3637 360.674 42.1062 355.01C41.8488 350.505 40.819 345.098 37.0859 342.137C31.0357 337.117 21.8961 342.91 19.9652 349.346C17.3906 357.713 27.0452 364.922 34.3826 365.823C42.235 366.724 47.3841 360.417 49.315 353.465C50.731 348.059 51.2459 342.524 50.8597 336.988C50.8597 336.602 50.8597 336.345 50.8597 335.958C50.3448 333.77 44.5521 336.602 44.6808 338.919Z" fill="#262626"/>
<path d="M120.375 497.897C133.763 506.136 144.576 498.927 144.576 498.927C149.082 506.651 159.508 495.065 159.508 495.065C159.508 495.065 164.915 496.352 168.004 489.144C171.094 481.935 165.687 473.954 165.687 473.954C165.687 473.954 188.601 481.163 191.047 477.945C193.492 474.726 184.61 465.072 162.984 461.596C141.358 458.121 109.691 472.667 109.691 472.667L61.9332 472.152C61.9332 472.152 84.3317 365.051 56.7841 364.278C29.2365 363.506 -28.3045 508.582 24.8598 521.969C64.8939 532.139 117.157 496.996 117.157 496.996C142.645 510.255 149.468 490.817 149.468 490.817" fill="white"/>
<path d="M118.442 499.313C124.364 502.917 131.315 504.977 138.266 503.818C141.356 503.432 144.316 502.402 147.02 500.729L141.613 499.313C144.702 504.333 150.366 504.72 155.258 502.274C157.961 500.729 160.407 498.798 162.467 496.481L159.12 497.125C164.398 498.412 168.903 495.194 171.092 490.56C173.537 485.282 171.993 478.459 168.774 473.825L165.299 476.142C171.606 478.202 178.043 479.875 184.608 480.905C187.311 481.291 192.074 482.064 194.005 479.489C195.678 477.301 193.876 474.34 192.46 472.538C189.5 469.32 186.024 466.874 182.033 465.2C175.983 462.497 169.547 460.566 162.853 459.665C151.654 457.863 139.811 460.309 128.998 463.398C121.789 465.329 114.838 467.904 108.015 470.993L109.56 470.864L67.7236 470.478H61.8022L65.2778 473.31C66.8225 465.844 68.1098 458.249 69.2684 450.783C71.7142 435.722 73.2589 420.403 73.7738 405.085C74.0313 398.005 73.7738 390.796 72.744 383.845C71.9716 378.438 70.5556 372.903 67.3375 368.398C64.5055 364.407 59.6138 362.219 54.7222 362.605C50.6029 362.991 46.9986 365.437 44.0378 368.011C34.7695 376.25 28.2044 387.707 22.7979 398.648C15.4604 413.066 9.79641 428.256 5.67714 443.96C1.81533 458.635 -0.887944 474.083 0.270601 489.272C1.17169 500.729 4.77605 513.344 14.8168 520.038C21.6393 524.672 30.3928 525.96 38.5026 526.217C49.7018 526.346 60.9011 524.672 71.5854 521.325C87.5476 516.434 102.866 509.354 117.026 500.472C117.798 499.957 118.571 499.442 119.343 498.927H115.61C123.076 502.789 132.087 505.621 140.326 503.046C144.702 501.63 148.436 498.669 150.881 494.679C151.525 493.778 151.911 492.748 152.297 491.718C153.198 489.144 147.02 487.341 146.118 490.045C146.118 490.173 145.99 490.302 145.99 490.56C145.99 490.688 145.861 490.946 145.732 491.074C145.604 491.461 145.99 490.688 145.732 490.946C145.604 491.074 145.604 491.203 145.475 491.332C144.702 492.619 143.801 493.907 142.772 495.065C139.682 498.283 135.305 499.828 130.929 499.57C126.423 499.056 122.175 497.64 118.185 495.451C117.026 494.808 115.61 494.808 114.452 495.451C104.54 501.888 94.1127 507.423 83.1709 511.8C73.6451 515.919 63.6044 518.88 53.3062 520.682C43.6517 522.226 33.2248 522.741 23.8277 519.909L22.9266 519.652C22.1542 519.394 23.4415 519.909 22.6691 519.523C22.0255 519.266 21.3819 519.008 20.8669 518.751L19.9659 518.365C19.7084 518.236 19.1935 517.85 19.7084 518.236C19.0648 517.85 18.5499 517.592 18.0349 517.077C17.52 516.562 17.0051 516.305 16.619 515.919C16.3615 515.79 15.9753 515.275 16.3615 515.79C16.104 515.533 15.8466 515.275 15.5891 515.018C14.688 514.117 13.9157 513.216 13.272 512.186L12.7571 511.542C13.1433 512.057 12.4997 511.156 12.4997 511.027C12.1135 510.512 11.856 509.869 11.4699 509.354C10.8262 508.195 10.3113 507.037 9.79641 505.749C8.7666 503.175 7.99423 500.6 7.47932 497.897C4.77605 484.252 6.57823 469.963 9.2815 456.447C12.4997 441 17.3913 425.81 23.8277 411.392C29.1055 399.292 35.4131 387.192 43.9091 377.022C44.6815 375.992 45.5826 375.091 46.4837 374.19C46.8698 373.804 47.256 373.289 47.7709 372.903L48.2858 372.388L48.672 372.131C49.0582 371.744 48.672 372.131 48.8007 372.002C50.2167 370.586 51.8902 369.427 53.6924 368.398L54.2073 368.14C53.9498 368.269 54.7222 367.883 54.2073 368.14C54.4647 368.011 54.9796 367.754 55.4945 367.625C56.0095 367.496 56.2669 367.368 56.5244 367.368C55.6233 367.625 56.6531 367.368 57.0393 367.368C57.168 367.368 57.4255 367.368 57.5542 367.368C57.168 367.496 56.7818 367.368 57.4255 367.368C57.6829 367.368 57.9404 367.368 58.1978 367.368C57.5542 367.11 58.9702 367.368 58.1978 367.368L58.7127 367.496C58.584 367.368 59.6138 367.625 58.7127 367.496C58.8415 367.625 60.1287 368.269 59.3564 367.754C59.7425 368.011 60 368.269 60.3862 368.526C61.0298 368.912 60 368.14 60.5149 368.655C60.6436 368.784 60.9011 369.041 61.0298 369.17C61.1586 369.299 61.6735 369.942 61.9309 370.328C62.1884 370.715 61.6735 369.942 62.0596 370.457C62.1884 370.715 62.3171 370.972 62.4458 371.23C63.6044 373.16 64.5055 375.349 65.0204 377.537C66.4364 383.587 67.2087 389.895 67.2087 396.074C67.5949 411.006 66.0502 425.939 63.9906 440.742C62.5746 450.654 61.0298 460.566 59.0989 470.478L58.8415 472.023C58.4553 473.825 60.7724 474.984 62.3171 475.112L87.8051 475.37L104.282 475.499H109.045C109.946 475.627 110.847 475.499 111.748 475.241C115.996 473.696 119.987 471.765 124.235 470.349C131.83 467.646 139.682 465.715 147.534 464.557C156.159 463.141 165.17 463.913 173.409 466.874C176.884 467.904 180.102 469.448 183.192 471.379C183.836 471.765 184.35 472.152 184.994 472.667L185.766 473.31C186.281 473.696 185.766 473.31 186.281 473.825C186.796 474.34 186.925 474.469 187.311 474.984C187.44 475.112 187.569 475.37 187.697 475.499C187.311 474.984 187.826 475.627 187.826 475.756C187.826 475.885 188.341 477.043 188.084 476.4C188.212 476.786 188.084 477.687 188.212 477.043L188.084 477.429C188.084 477.558 188.084 477.558 188.084 477.687C187.955 477.944 188.212 477.429 188.212 477.429L188.084 477.687C188.212 477.429 188.212 477.429 188.47 477.429C187.569 477.687 188.341 477.429 188.47 477.429L187.826 477.558H187.054C187.826 477.558 186.925 477.558 186.668 477.558C185.252 477.429 183.964 477.301 182.677 477.043L182.162 476.915L181.004 476.657C180.231 476.528 179.33 476.271 178.558 476.142C177.013 475.756 175.468 475.37 173.924 474.984C171.606 474.34 169.418 473.696 167.101 473.053L166.071 472.795C164.913 472.409 161.18 473.053 162.596 475.112C165.041 478.588 166.457 483.48 165.299 487.728C164.655 489.916 163.11 492.619 161.18 493.52C160.922 493.649 160.021 493.907 160.15 493.778C160.536 493.649 158.991 493.778 159.764 493.778C160.536 493.778 159.506 493.778 159.377 493.778C158.862 493.649 160.278 493.907 159.892 493.907C158.734 493.52 157.446 493.778 156.545 494.55C155.258 495.966 153.713 497.382 152.04 498.412C151.396 498.927 150.624 499.313 149.98 499.699L149.208 499.957C149.079 499.957 148.049 500.214 148.564 500.214C148.436 500.214 147.277 500.214 148.049 500.214C147.663 500.214 147.663 500.214 148.178 500.214C147.792 500.085 147.792 500.085 148.307 500.214C148.049 500.085 148.049 500.085 148.307 500.214C148.049 499.957 148.049 499.957 148.178 500.085C147.921 499.828 147.792 499.57 147.534 499.313C146.376 497.511 143.93 496.867 141.999 497.897L141.613 498.154L141.098 498.412L140.712 498.541C140.841 498.412 141.098 498.412 140.841 498.541C139.425 499.184 138.137 499.57 136.593 499.957C131.701 500.858 126.552 499.957 122.304 497.253C121.017 496.481 119.214 495.966 117.798 496.867C117.026 497.511 116.897 498.669 117.541 499.442C117.799 499.056 118.056 499.184 118.442 499.313Z" fill="#262626"/>
<path d="M121.659 500.214C122.947 500.214 123.59 499.442 123.075 498.155C122.303 496.739 120.887 495.837 119.214 495.709C117.926 495.709 117.283 496.481 117.926 497.768C118.699 499.184 120.115 500.085 121.659 500.214Z" fill="#262626"/>
<path d="M155.516 478.073C155.516 478.073 164.655 485.025 159.506 495.194L155.516 478.073Z" fill="white"/>
<path d="M152.812 478.974C153.069 479.103 152.683 478.846 152.554 478.846C152.426 478.846 152.94 478.974 152.812 478.974C153.198 479.361 153.455 479.618 153.842 480.004C154.871 481.034 155.772 482.193 156.416 483.48C158.347 487.084 158.476 491.59 156.545 495.194C155.772 496.867 161.951 497.125 162.852 495.451C165.041 491.332 164.912 486.569 162.724 482.45C161.694 480.39 160.149 478.717 158.347 477.301C157.703 477.043 157.06 476.786 156.416 476.786C155.644 476.786 154.743 476.915 153.97 477.043C152.94 477.301 151.782 478.073 152.812 478.974Z" fill="#262626"/>
<path d="M206.107 216.242C193.106 218.173 182.679 227.828 177.272 239.413C174.44 245.85 172.638 252.672 171.995 259.752C171.48 266.06 171.737 272.754 175.342 278.289C178.688 283.567 185.125 286.785 191.046 283.695C193.621 282.279 195.552 279.834 196.324 277.002C197.225 274.041 197.225 268.763 194.136 266.961C188.472 263.485 182.55 270.05 180.104 274.427C177.015 279.962 174.827 286.012 173.926 292.32C171.608 307.124 174.827 322.314 182.936 334.929C183.323 335.572 184.481 337.246 185.382 336.216C186.283 335.186 184.996 332.998 184.481 332.226C174.44 316.778 174.44 295.667 183.451 279.705C185.64 275.972 190.531 270.179 195.423 272.625L193.106 268.892C194.264 275.199 187.699 279.962 181.907 278.932C179.59 278.546 177.659 277.13 176.629 275.071C175.728 272.625 175.342 269.922 175.599 267.218C175.985 254.088 180.748 240.057 190.66 231.046C195.809 226.283 202.117 223.194 208.939 222.164C210.355 221.906 208.296 215.985 206.107 216.242Z" fill="#F5EE30"/>
<path d="M435.24 290.904C435.24 290.904 425.714 306.737 412.713 308.668C399.712 310.599 373.709 310.47 373.323 323.858C372.936 337.246 390.958 338.662 401.642 334.671C401.642 334.671 404.861 369.17 426.487 374.834C448.113 380.498 456.48 373.289 460.342 386.806C460.342 386.806 489.434 406.243 487.375 379.597C486.989 375.478 487.89 323.343 454.163 312.787C454.163 312.787 435.112 307.896 435.24 290.904Z" fill="white"/>
<path d="M432.022 290.518C428.804 295.795 424.685 300.301 419.664 303.905C416.06 306.48 411.941 308.024 407.564 308.411C403.445 308.926 399.454 309.183 395.335 309.698C391.087 310.213 386.839 310.985 382.72 312.015C379.244 312.787 375.897 314.461 373.194 316.778C367.916 321.798 369.847 330.294 375.897 333.77C380.403 336.344 385.938 336.988 390.958 337.117C395.592 337.246 400.355 336.602 404.732 334.928L398.424 334.156C399.068 339.82 400.227 345.227 402.158 350.633C405.247 359.644 410.396 368.655 419.15 373.16C421.982 374.448 425.071 375.478 428.16 375.992C431.765 376.765 435.369 377.28 439.102 377.666C441.806 377.923 444.638 378.052 447.47 378.309L449.143 378.438H449.272L450.044 378.567C450.945 378.696 449.4 378.438 450.173 378.567C450.302 378.567 450.688 378.696 450.173 378.567C450.559 378.567 450.945 378.696 451.203 378.824C452.619 379.339 453.777 380.24 454.678 381.399C455.322 382.171 455.708 383.072 456.094 383.974C456.352 385.003 456.738 385.904 457.124 386.805C457.51 387.192 457.896 387.449 458.411 387.578C459.57 388.221 460.6 388.865 461.758 389.509C464.848 391.182 468.066 392.469 471.413 393.371C475.532 394.4 480.552 395.301 484.672 393.885C491.494 391.568 490.464 383.201 490.336 377.408C489.821 361.318 487.118 344.068 478.364 330.294C473.344 322.056 465.491 315.748 456.223 312.916L455.451 312.659C455.064 312.53 455.966 312.787 455.451 312.659L455.064 312.53L454.163 312.144C452.619 311.5 451.074 310.728 449.658 309.827C445.41 307.51 442.063 303.905 440.003 299.528C438.845 296.954 438.33 294.122 438.33 291.29C438.459 290.131 432.022 289.874 432.022 290.518C432.022 300.301 438.974 307.51 447.598 311.243C449.915 312.272 452.361 312.787 454.678 313.817C459.184 315.748 463.174 318.709 466.521 322.184C478.75 334.928 482.612 354.109 483.771 371.101C483.899 373.418 484.028 375.606 484.028 377.923C484.157 381.27 484.414 384.746 483.256 387.964C482.483 390.281 480.681 391.955 478.493 392.598C478.235 392.727 477.978 392.727 477.592 392.727C477.592 392.727 476.562 392.856 477.077 392.727C476.433 392.727 476.819 392.727 477.205 392.727C477.205 392.727 476.433 392.598 476.948 392.727C477.463 392.856 475.79 392.469 476.304 392.598C475.79 392.469 475.403 392.341 474.888 392.212C473.344 391.697 471.799 391.182 470.383 390.539C468.195 389.509 466.006 388.35 464.075 387.192C463.174 386.677 463.303 385.776 462.788 384.746C462.144 383.072 461.243 381.528 459.956 380.24C456.867 377.408 451.846 377.151 447.856 376.765C442.578 376.507 437.429 375.992 432.28 375.22C427.131 374.319 422.496 372.002 418.763 368.398C415.416 364.922 412.584 360.803 410.654 356.297C407.822 349.732 405.891 342.91 404.99 335.83C404.99 335.443 404.861 335.057 404.861 334.671C404.732 333.512 399.326 333.512 398.553 333.899C395.206 335.186 391.602 335.83 387.998 335.701C387.611 335.701 387.096 335.701 386.71 335.572C385.938 335.443 385.294 335.315 384.651 335.057C383.106 334.542 381.69 333.77 380.403 332.74C376.026 329.136 375.254 322.699 378.858 318.194C379.373 317.422 380.145 316.907 380.789 316.263C386.839 311.886 395.335 311.114 402.544 310.342C406.277 309.955 410.01 309.569 413.614 309.183C417.734 308.668 421.595 307.252 425.071 305.064C430.478 301.331 434.983 296.568 438.33 290.904C438.587 290.518 435.369 290.003 435.112 290.003C434.597 290.26 432.408 289.874 432.022 290.518Z" fill="#262626"/>
<path d="M494.327 350.376C494.327 350.376 512.091 355.911 515.567 346.257C519.042 336.602 507.2 338.404 507.2 338.404C507.2 338.404 521.488 319.095 503.209 314.59C503.209 314.59 519.171 300.172 507.714 285.497C496.258 270.823 471.928 278.932 471.928 278.932C471.928 278.932 473.473 257.177 454.679 259.108C435.885 261.039 439.875 274.298 439.875 274.298C439.875 274.298 427.775 275.328 427.131 282.794C426.488 290.26 435.37 293.607 435.37 293.607C435.37 293.607 437.816 315.233 454.293 312.788L468.968 340.335C468.968 340.335 463.046 349.861 468.581 360.159C474.117 370.457 494.584 364.278 494.327 350.376Z" fill="#262626"/>
<path d="M492.909 352.178C498.445 353.851 505.01 354.624 510.674 353.079C514.664 351.921 518.011 349.346 519.041 345.227C519.942 341.622 518.655 338.533 515.05 337.246C512.476 336.344 509.644 336.087 506.941 336.602L510.03 339.176C514.021 333.77 518.269 324.502 513.763 318.323C511.575 315.233 508.099 313.817 504.495 312.916L505.525 315.877C512.733 309.312 517.496 298.627 513.248 289.102C507.713 276.615 493.038 273.783 480.809 275.199C477.333 275.585 473.986 276.229 470.768 277.259L475.016 278.675C475.402 272.367 473.6 264.901 468.58 260.782C463.56 256.662 456.351 256.662 450.172 258.078C444.894 259.237 439.23 261.94 437.042 267.347C436.012 269.793 435.883 272.367 436.527 274.942L439.488 272.625C435.111 272.882 430.863 274.427 427.387 277.001C422.109 281.378 423.268 288.329 428.16 292.449C429.704 293.736 431.378 294.766 433.18 295.538L432.021 294.251C432.923 301.588 436.527 309.955 443.478 313.431C446.825 314.976 450.687 315.491 454.42 314.976L451.202 313.946L463.946 338.018L465.748 341.494L465.877 339.949C464.074 342.91 463.045 346.256 462.787 349.732C462.401 354.752 463.817 361.189 467.936 364.536C474.501 369.942 485.314 367.625 491.365 362.605C495.098 359.644 497.286 355.01 497.286 350.247C497.286 347.672 490.85 348.316 490.85 351.019C490.85 354.238 489.562 357.327 487.374 359.644C485.443 361.704 482.869 363.12 480.165 363.635C480.68 363.506 479.779 363.635 479.65 363.763C479.522 363.892 479.007 363.892 478.621 363.892C477.977 363.892 478.492 363.892 478.621 363.892H478.106C477.72 363.892 477.333 363.892 476.947 363.763C477.462 363.763 476.561 363.635 476.432 363.635C476.046 363.506 475.789 363.506 475.402 363.377C475.789 363.506 475.016 363.248 474.888 363.12L474.115 362.734C470.64 360.545 469.352 355.654 469.224 351.792C469.095 348.316 469.867 344.712 471.541 341.622C471.798 341.107 471.541 341.88 471.669 341.365C471.927 340.85 471.927 340.335 471.798 339.82C471.669 339.434 471.412 339.048 471.154 338.662L463.688 324.502L457.252 312.273C456.737 311.243 454.935 311.114 454.034 311.243C452.618 311.5 451.202 311.371 449.786 311.114C448.627 310.857 447.469 310.213 446.439 309.569C444.25 307.896 442.448 305.707 441.29 303.133C439.745 300.172 438.844 296.954 438.458 293.607C438.329 292.963 437.943 292.577 437.428 292.32C435.883 291.805 434.467 290.904 433.309 289.745C430.992 287.686 429.576 284.596 430.605 281.507C430.992 280.348 431.893 279.447 432.922 278.803C433.437 278.417 433.952 278.16 434.467 278.031C434.725 277.902 435.111 277.774 435.497 277.645C434.982 277.902 435.883 277.516 436.012 277.516C436.656 277.259 437.17 277.13 437.814 277.001L438.586 276.873C439.23 276.744 437.814 277.001 438.715 276.873C439.23 276.744 439.745 276.744 440.131 276.615C441.032 276.486 443.478 275.714 443.092 274.298C442.963 273.783 442.834 273.268 442.834 272.753C442.834 272.238 442.706 271.723 442.834 271.209C442.834 270.694 442.834 270.179 442.963 269.535C443.736 266.059 446.439 263.227 449.914 262.326C452.746 261.425 455.707 261.039 458.668 261.425C460.47 261.683 462.015 262.455 463.431 263.485C466.005 265.931 467.808 269.149 468.322 272.753C468.837 274.942 468.966 277.259 468.837 279.576C468.709 281.378 472.184 281.249 473.085 280.992C473.729 280.734 474.373 280.606 474.888 280.477C475.402 280.348 476.304 280.091 476.947 279.962C477.205 279.962 478.363 279.705 477.591 279.833L479.136 279.576C483.641 278.675 488.146 278.675 492.652 279.576C498.187 280.606 502.95 283.824 506.04 288.458C509.258 293.607 509.644 300.172 506.812 305.579C505.782 307.767 504.495 309.827 502.95 311.629C502.435 312.273 501.92 312.916 501.277 313.431C501.148 313.56 500.89 313.817 500.762 313.946C501.405 313.302 501.148 313.689 500.89 313.817C499.474 315.105 500.247 316.392 501.92 316.778C504.881 317.55 507.713 318.966 508.872 321.927C509.644 324.244 509.644 326.69 508.872 328.878C507.97 332.225 506.554 335.315 504.366 338.147C502.95 340.078 506.168 340.979 507.455 340.721C507.842 340.721 508.357 340.592 508.743 340.592C509.129 340.592 507.842 340.592 508.614 340.592H509.258H510.03C510.674 340.592 509.644 340.464 510.288 340.592L511.06 340.721C511.189 340.721 511.317 340.85 511.446 340.85C511.832 340.979 512.09 341.107 512.218 341.494C512.862 342.395 512.991 343.424 512.862 344.454C512.733 345.999 511.961 347.415 510.931 348.574C510.159 349.217 509.258 349.732 508.228 349.861L507.842 349.99C507.327 350.118 508.357 349.861 507.842 349.99C507.327 350.118 507.069 350.118 506.812 350.118L505.782 350.247C505.396 350.247 505.782 350.247 505.911 350.247C505.653 350.247 505.396 350.247 505.138 350.247C504.366 350.247 503.722 350.247 502.95 350.118L501.92 349.99L501.277 349.861H501.148C499.346 349.603 497.672 349.217 495.87 348.702C494.325 348.316 492.652 348.702 491.622 349.861C490.592 350.891 491.751 351.792 492.909 352.178Z" fill="#262626"/>
<path d="M451.201 316.778C451.201 316.778 454.419 302.232 464.718 305.707C475.016 309.183 477.59 342.266 458.925 340.464" fill="white"/>
<path d="M454.033 318.194C454.29 317.293 454.548 316.263 454.934 315.362C455.578 313.56 456.479 311.886 457.766 310.342C458.924 308.926 460.727 308.025 462.657 308.025C463.172 308.025 463.816 308.153 464.331 308.282C464.46 308.282 465.361 308.668 464.46 308.282C464.588 308.411 464.846 308.411 464.975 308.54L465.49 308.797C464.846 308.411 465.103 308.54 465.361 308.668C465.747 308.926 466.004 309.312 466.391 309.569C465.618 308.926 466.648 309.827 466.777 310.084C466.906 310.342 467.292 310.857 467.549 311.243C467.034 310.47 467.678 311.5 467.807 311.758C468.064 312.273 468.321 312.788 468.45 313.431C468.579 314.075 468.836 314.461 468.965 314.847C468.708 314.204 468.965 314.976 468.965 315.105C468.965 315.233 469.094 315.62 469.223 315.877C469.48 316.907 469.737 318.065 469.866 319.224C470.51 323.343 469.995 327.591 468.321 331.453C468.321 331.453 467.935 332.225 468.193 331.71C468.064 331.968 467.935 332.354 467.678 332.612C467.42 332.998 467.163 333.384 466.777 333.899L466.262 334.414C465.747 334.929 466.262 334.414 465.876 334.8C465.489 335.186 465.103 335.572 464.588 335.83C464.331 335.958 464.202 336.087 463.945 336.216C464.46 335.958 463.816 336.345 463.687 336.345C463.172 336.602 462.529 336.731 462.014 336.86C461.499 336.988 460.984 336.988 460.598 336.988C459.954 336.988 459.182 336.988 458.538 336.988C456.865 336.86 455.964 338.662 456.221 340.078C456.479 341.751 457.895 342.91 459.568 343.038C464.846 343.682 469.866 341.108 472.57 336.602C475.402 331.839 476.045 326.175 475.53 320.769C475.144 315.877 473.728 310.47 470.639 306.609C467.034 302.103 460.469 300.301 455.449 303.777C451.844 306.222 449.399 310.985 448.498 315.233C448.111 316.907 448.884 318.58 450.3 319.353C451.587 320.254 453.647 319.996 454.033 318.194Z" fill="#262626"/>
<path d="M420.438 338.533C420.309 339.048 420.18 339.434 420.051 339.82C419.923 340.206 419.794 340.85 419.537 341.236C419.537 341.365 419.408 341.494 419.408 341.622L419.279 341.751C419.15 342.137 419.408 341.494 419.279 341.751C419.15 342.008 419.022 342.395 418.893 342.781C417.606 345.742 415.417 348.187 412.585 349.732C410.526 350.762 408.209 351.148 405.891 351.019C404.862 351.019 405.119 352.693 405.377 353.208C405.763 354.109 406.535 355.267 407.565 355.396C411.813 355.654 415.803 353.98 418.764 351.019C420.824 348.831 422.24 346.128 423.141 343.296C423.398 342.652 423.527 342.137 423.656 341.494C423.785 340.335 423.27 339.176 422.497 338.404C421.854 338.018 420.695 337.374 420.438 338.533Z" fill="#262626"/>
<path d="M425.455 309.698C424.168 310.084 423.395 311.371 423.653 312.659C423.653 312.787 423.782 312.916 423.782 313.045C424.811 315.491 427.772 314.332 427.643 311.886C427.643 310.728 426.871 309.827 425.712 309.698C425.584 309.698 425.455 309.698 425.455 309.698Z" fill="#262626"/>
<path d="M554.056 520.682C554.056 520.682 531.915 369.427 480.939 369.427C429.963 369.427 384.008 522.355 384.008 522.355" fill="white"/>
<path d="M557.144 521.325C556.371 516.176 555.47 511.027 554.44 505.878C552.123 493.52 549.42 481.291 546.331 469.062C542.597 454.001 537.963 439.197 532.299 424.651C527.15 411.521 520.971 398.262 512.218 387.063C508.742 382.429 504.623 378.438 499.86 375.22C494.711 371.873 488.79 369.813 482.611 369.17C471.025 367.625 460.856 373.032 452.488 380.626C441.675 390.281 433.308 402.768 425.971 415.125C417.732 429.414 410.395 444.089 403.958 459.279C398.294 472.28 393.145 485.668 388.511 499.055C385.937 506.264 383.491 513.473 381.302 520.81L381.045 521.84C380.916 522.098 387.224 523.771 387.353 523.127C388.897 518.107 390.571 513.215 392.244 508.324C396.363 496.223 400.74 484.381 405.632 472.538C411.553 457.605 418.247 443.059 425.585 428.899C432.665 415.512 440.646 402.253 450.558 390.796C458.024 382.171 467.292 373.289 478.878 370.972C481.195 370.457 483.512 370.328 485.829 370.457H486.215C485.7 370.457 486.086 370.457 486.215 370.457C486.73 370.457 486.086 370.457 486.086 370.457C486.086 370.457 486.859 370.586 486.215 370.457C485.571 370.328 486.215 370.457 486.344 370.457C486.859 370.586 485.571 370.328 486.215 370.457C486.344 370.457 486.73 370.586 486.086 370.457L486.73 370.586C486.215 370.457 486.859 370.586 487.116 370.714L487.76 370.843C488.403 371.101 488.918 371.358 489.562 371.616C494.325 373.933 498.702 377.022 502.177 381.013C511.446 390.796 517.882 403.154 523.16 415.512C529.21 429.672 534.102 444.089 538.092 459.021C541.696 471.894 544.657 485.024 547.36 498.154C548.776 505.234 550.064 512.314 551.222 519.394L551.351 520.424C551.48 520.939 554.054 521.325 554.44 521.454C555.084 521.325 556.114 521.325 557.144 521.325Z" fill="#262626"/>
<path d="M359.035 451.942C359.035 451.942 348.48 424.394 338.954 413.324C329.428 402.253 311.535 392.599 302.266 389.638C292.998 386.677 291.325 399.035 319.516 416.799C319.516 416.799 296.602 427.097 309.475 436.623C309.475 436.623 307.93 441.901 313.466 448.595C319.001 455.289 323.764 449.367 323.764 449.367C323.764 449.367 331.101 463.527 339.984 466.359C339.984 466.359 361.738 527.247 399.584 529.178C425.845 530.594 439.232 497.769 439.232 497.769L405.634 463.656L394.564 482.064L359.035 451.942Z" fill="white"/>
<path d="M361.995 451.298C359.42 444.733 356.588 438.425 353.627 432.118C351.31 427.226 348.736 422.592 345.904 418.086C342.814 413.323 339.081 409.075 334.704 405.342C329.684 401.094 324.406 397.49 318.614 394.401C313.979 391.697 309.216 389.509 304.196 387.707C301.493 386.806 298.275 386.162 295.7 387.707C293.512 388.994 292.611 391.697 293.254 394.014C294.155 398.005 296.987 401.609 299.691 404.441C304.968 409.848 311.019 414.611 317.455 418.473L317.584 414.611C313.593 416.413 309.86 418.859 306.642 421.819C304.582 423.75 302.651 426.325 302.394 429.286C302.008 433.147 304.582 436.108 307.414 438.296L306.256 435.979C304.84 441.128 308.315 447.436 311.791 450.912C316.039 455.031 322.604 455.417 326.595 450.654L320.802 450.011C322.347 452.843 324.149 455.546 326.08 458.12C329.298 462.368 333.546 466.745 338.695 468.419L337.022 467.003C338.824 471.894 340.883 476.657 343.329 481.42C348.221 491.59 354.4 501.115 361.608 509.869C369.59 519.137 379.502 527.247 391.473 530.465C397.91 532.267 404.732 532.267 411.168 530.336C417.219 528.406 422.754 525.059 427.388 520.553C433.567 514.632 438.459 507.552 441.934 499.699L442.063 499.313C442.449 498.541 442.32 497.511 441.677 496.867L412.198 467.003L408.079 462.883C406.792 461.596 403.702 460.952 402.544 462.883L391.473 481.291L396.365 480.776L365.213 454.13L360.836 450.397C358.262 448.208 353.627 451.169 356.846 453.872L387.998 480.519L392.374 484.252C393.661 485.282 396.365 485.282 397.266 483.737L408.336 465.329H402.801L432.28 495.323L436.399 499.442L436.013 496.996C432.795 504.72 427.903 511.8 421.853 517.592C417.09 522.355 411.168 525.574 404.603 526.861C401.385 527.376 398.038 527.247 394.949 526.603C391.988 526.088 389.027 525.187 386.324 523.771C380.66 520.939 375.511 517.206 371.134 512.701C366.5 507.938 362.252 502.918 358.648 497.382C352.984 488.758 348.092 479.618 344.23 470.092C343.844 469.062 343.329 467.904 342.943 466.874C342.428 465.587 341.27 464.557 339.982 464.171C334.318 461.854 330.07 455.417 327.11 450.268C326.852 449.882 326.595 449.496 326.466 448.981C325.436 447.179 323.119 446.664 321.317 447.694C321.059 447.822 320.802 448.08 320.544 448.337C321.188 447.565 320.544 448.337 320.158 448.595C319.772 448.981 319.386 449.238 318.871 449.367C318.485 449.496 318.099 449.496 317.584 449.367C316.425 448.595 315.395 447.694 314.623 446.406C313.207 444.475 312.306 442.158 312.048 439.841C311.92 439.069 311.92 438.296 312.177 437.524C312.306 436.623 311.791 435.593 311.019 435.207C309.989 434.435 309.088 433.534 308.573 432.375C308.187 431.603 308.187 430.702 308.444 429.8C309.216 427.741 310.504 425.939 312.306 424.651C313.207 423.879 314.237 423.107 315.395 422.334C315.782 422.077 316.168 421.819 316.554 421.562C317.069 421.304 317.455 421.047 317.97 420.79C319 420.275 320.03 419.631 321.059 419.245C322.089 418.73 322.604 417.571 322.218 416.413C321.96 415.898 321.703 415.641 321.188 415.383C315.782 412.165 310.761 408.303 306.127 403.926C303.424 401.609 301.235 398.649 299.691 395.43C299.562 395.173 299.433 394.915 299.433 394.529C299.433 394.143 299.562 395.173 299.433 394.529C299.433 394.401 299.433 394.272 299.305 394.143C299.305 393.886 299.176 393.628 299.176 393.371C299.176 393.242 299.176 392.47 299.176 392.856C299.176 393.242 299.176 392.598 299.176 392.47C299.176 392.341 299.305 392.083 299.305 391.955C299.047 392.341 299.305 392.083 299.305 391.955C299.176 391.955 299.562 391.569 299.305 391.955C299.433 391.955 299.948 391.44 299.433 391.826C298.918 392.212 299.562 391.697 299.691 391.697C299.819 391.697 299.047 391.826 299.562 391.697C299.047 391.569 300.463 391.44 299.562 391.697C299.819 391.697 299.948 391.697 300.206 391.697C299.433 391.569 300.463 391.697 300.206 391.697L300.978 391.826C301.107 391.826 301.235 391.826 301.364 391.955C300.463 391.697 301.493 391.955 301.622 392.083C311.791 395.817 321.317 401.223 329.684 408.174C337.536 414.739 342.428 423.235 346.934 432.246C350.152 438.811 353.241 445.634 355.944 452.585C357.232 455.417 363.411 454.774 361.995 451.298Z" fill="#262626"/>
<path d="M320.929 423.622C319.513 424.266 318.097 425.038 316.681 425.939C313.978 427.612 311.532 429.672 309.473 432.118C308.314 433.534 307.413 435.079 306.898 436.881C306.641 437.396 306.641 438.039 306.898 438.554C307.284 439.069 307.928 439.198 308.443 439.198C309.215 439.069 309.988 438.812 310.631 438.426C311.275 438.039 311.79 437.396 312.176 436.623C312.433 435.98 312.691 435.336 312.948 434.692C313.206 434.178 312.691 435.207 312.948 434.821C313.077 434.692 313.077 434.564 313.206 434.435C313.335 434.306 313.592 433.791 313.849 433.534C313.978 433.405 314.107 433.276 314.107 433.148C314.364 432.89 313.849 433.534 313.849 433.534C313.849 433.405 313.978 433.405 313.978 433.276C314.236 433.019 314.493 432.762 314.622 432.504L315.394 431.86L315.78 431.474L316.038 431.346C316.295 431.088 315.394 431.86 315.652 431.603C316.681 430.831 317.711 430.058 318.741 429.415L319.385 429.028C319.642 428.9 318.741 429.415 318.87 429.286L318.999 429.157L319.385 428.9C319.771 428.771 320.157 428.514 320.543 428.385C320.929 428.256 321.316 427.999 321.702 427.87C322.474 427.484 323.118 426.969 323.633 426.325C324.019 425.81 324.276 425.167 324.148 424.523C323.761 422.978 322.088 423.236 320.929 423.622Z" fill="#262626"/>
<path d="M319.644 435.593C318.743 441.128 320.416 446.921 324.149 451.169C324.407 451.427 325.823 452.971 325.565 451.684C325.436 451.04 325.179 450.397 324.793 449.882C324.407 449.11 323.892 448.466 323.377 447.822C323.248 447.694 322.862 447.179 323.248 447.694C323.634 448.208 322.862 447.05 323.377 447.822C323.505 448.08 323.634 448.08 323.505 447.951L323.763 448.337C323.505 447.822 324.02 448.981 323.892 448.466C323.892 448.337 323.763 448.208 323.763 448.08C323.892 448.337 324.02 448.723 323.763 448.08C323.634 447.822 323.634 447.822 323.634 447.694C323.505 447.307 323.763 448.08 323.634 447.694C323.505 447.05 323.377 446.535 323.248 445.891C323.248 445.634 323.248 445.376 323.119 445.119C322.991 444.862 323.119 445.248 323.119 444.99C323.119 444.733 323.119 444.733 323.119 444.604C323.119 443.317 323.119 442.158 323.248 440.871C323.248 440.356 323.119 439.841 322.862 439.455C322.476 438.683 322.089 438.039 321.575 437.267C321.317 436.88 319.772 434.821 319.644 435.593Z" fill="#262626"/>
<path d="M447.598 390.796C453.004 391.568 458.153 393.886 462.401 397.49C464.59 399.292 466.649 401.48 468.194 403.926C469.868 406.372 471.026 408.947 472.571 411.392C475.532 416.027 480.166 419.502 485.572 421.047C491.365 422.849 497.415 424.136 503.465 424.909C511.318 426.196 519.17 426.196 527.022 424.909C527.537 424.78 529.082 424.651 528.181 424.136C527.28 423.622 524.834 424.136 523.804 424.265C517.754 425.295 511.704 424.523 505.783 423.493C500.247 422.463 494.326 421.562 489.177 419.374C486.86 418.472 484.671 417.056 482.74 415.383C480.681 413.323 479.007 411.006 477.72 408.432C475.403 403.798 472.185 399.678 468.194 396.331C463.56 392.727 458.025 390.539 452.232 389.766C450.687 389.638 449.143 389.638 447.727 390.024C446.439 390.41 446.439 390.667 447.598 390.796Z" fill="#262626"/>
<path d="M431.636 416.413C439.488 417.443 446.311 422.334 451.202 428.513C453.648 431.731 455.836 435.207 457.639 438.811C458.54 440.613 459.312 442.544 460.213 444.347C460.857 446.277 461.758 448.208 462.788 450.011C464.976 453.229 469.224 454.902 472.7 456.447C476.433 458.12 480.166 459.536 484.156 460.824C501.02 466.101 518.913 466.745 536.033 462.883C537.578 462.626 538.865 461.725 539.895 460.566C540.539 459.665 540.281 458.635 538.994 459.021C522.774 462.755 506.04 462.24 490.078 457.477C486.216 456.318 482.354 454.902 478.621 453.229C476.948 452.456 475.274 451.684 473.601 450.783C471.67 450.011 469.868 448.723 468.452 447.05C467.422 445.505 466.649 443.703 466.006 442.029C465.233 440.099 464.332 438.168 463.431 436.237C461.758 432.504 459.569 429.028 457.124 425.81C451.846 418.987 444.38 413.838 435.755 412.68C434.21 412.68 432.794 413.452 431.764 414.482C431.121 414.868 430.348 416.155 431.636 416.413Z" fill="#262626"/>
<path d="M442.319 499.056C443.606 497.64 444.636 496.095 445.408 494.293C447.21 491.204 448.884 488.114 450.686 485.025C454.419 478.202 458.152 471.251 461.756 464.171C462.786 462.111 463.945 460.052 464.846 457.992C465.103 457.477 459.182 455.031 458.796 455.804C456.479 460.824 453.775 465.587 451.33 470.35C447.596 477.301 443.992 484.252 440.002 490.946C438.972 493.006 437.684 494.937 436.268 496.739C436.011 496.996 438.843 498.155 439.1 498.284C439.744 498.541 441.675 499.571 442.319 499.056Z" fill="#262626"/>
<path d="M414.127 452.585C423.524 452.714 432.406 456.962 438.585 464.042C441.546 467.389 443.606 471.379 444.893 475.756C445.665 478.588 445.794 481.549 447.081 484.123C448.497 486.698 450.428 489.015 452.874 490.946C461.37 498.283 471.282 503.947 481.966 507.423C492.651 511.156 503.721 513.859 514.92 515.533C527.278 517.335 540.666 517.335 551.736 510.641C554.568 508.968 550.578 503.947 548.132 505.363C538.606 511.156 527.278 511.8 516.336 510.384C505.266 508.968 494.453 506.393 483.897 502.789C473.728 499.313 463.687 494.55 455.577 487.342C453.518 485.539 451.844 483.866 451.329 481.163C450.814 478.588 450.171 476.014 449.398 473.568C447.725 468.805 445.022 464.428 441.675 460.695C434.209 452.07 423.267 447.179 411.939 447.05C410.394 447.05 410.137 448.981 410.523 450.011C411.038 451.555 412.454 452.585 414.127 452.585Z" fill="#262626"/>
<path d="M178.817 41.4308H28.9785V149.819H178.817V41.4308Z" fill="#F5EE30"/>
<path d="M181.005 149.047H37.3452C35.4143 149.047 33.3547 148.918 31.5525 149.047H31.295L32.3249 149.304V40.9161L26.9183 42.2034H170.578C172.509 42.3321 174.44 42.3321 176.371 42.2034H176.628L175.598 41.946V150.334C175.598 150.849 181.906 150.463 181.906 149.304V40.9161C181.906 40.6587 180.876 40.6587 180.876 40.6587H49.5743C43.5241 40.6587 37.4739 40.6587 31.4238 40.6587H31.1663C30.5227 40.6587 25.7598 40.9161 25.7598 41.946V150.334C25.7598 150.592 26.7896 150.592 26.7896 150.592H158.22C164.27 150.592 170.32 150.592 176.371 150.592H176.628C178.173 150.592 179.717 150.334 181.133 149.819C182.035 149.433 182.163 149.047 181.005 149.047Z" fill="#F5EE30"/>
<path d="M52.1479 123.945C58.3268 112.36 66.1792 101.547 75.3188 92.1496C79.5668 87.7729 84.3297 83.3962 90.2511 81.7227C95.014 80.4355 100.421 81.2078 103.896 84.9409C107.629 89.0602 108.659 94.9816 107.629 100.388C107.114 103.22 106.085 105.923 104.54 108.241C103.768 109.399 102.995 110.558 101.965 111.587C101.708 111.845 101.45 112.102 101.193 112.231C101.064 112.36 100.034 112.746 100.034 112.875L101.322 113.905C102.352 115.192 102.738 115.449 102.48 114.548C102.48 114.291 102.48 113.905 102.48 113.647C102.738 111.33 104.669 109.013 106.213 107.339C108.015 105.409 110.075 103.864 112.263 102.705C116.64 100.388 121.789 99.3583 126.681 100.002C138.009 101.675 143.544 115.063 140.841 125.233C140.326 127.035 145.861 129.867 146.119 128.966C149.466 116.093 141.227 102.834 129.384 97.8136C118.442 93.0507 103.639 96.7838 97.8461 107.854C96.1726 110.944 97.2024 113.647 100.034 115.707C101.45 116.737 103.381 117.638 105.055 116.865C106.599 115.964 107.887 114.806 108.659 113.261C112.65 107.726 113.937 100.646 112.263 93.9518C110.333 87.258 104.926 82.1089 98.7471 79.1482C92.4395 76.0587 84.9733 76.5736 79.1806 80.4355C72.1006 84.8122 66.3079 91.7634 61.1588 98.1998C55.6235 105.151 50.7319 112.489 46.6126 120.341C46.0977 121.757 51.5043 125.104 52.1479 123.945Z" fill="white"/>
<path d="M121.274 73.6124C118.699 75.0284 117.154 77.6029 117.154 80.5636C117.154 83.7818 119.6 86.4851 122.432 87.7724C125.522 89.3171 130.027 89.832 132.859 87.2574C134.79 85.1978 135.562 82.3658 135.047 79.6625C134.404 76.3156 132.215 73.4836 129.255 71.8102C128.225 71.1665 126.165 70.6516 125.135 71.6815C124.106 72.7113 125.65 73.9985 126.551 74.5135C126.68 74.6422 126.809 74.6422 126.809 74.7709C126.294 74.6422 126.294 74.5135 126.551 74.6422C126.809 74.7709 127.066 75.0284 127.066 75.0284C127.066 75.0284 126.551 74.5135 126.938 74.8996L127.195 75.1571C127.324 75.2858 127.452 75.5433 127.71 75.672L127.839 75.9295L128.225 76.5731C128.354 76.8305 128.354 76.9593 128.482 77.2167C128.611 77.4742 128.611 77.4742 128.611 77.6029C128.482 77.3454 128.611 77.6029 128.611 77.7316C128.868 78.6327 128.997 79.6625 128.868 80.5636C128.868 80.3062 128.868 80.8211 128.868 80.5636C128.868 80.6924 128.868 80.8211 128.868 80.9498C128.868 81.2073 128.74 81.4647 128.74 81.5935C128.611 82.1084 128.354 82.6233 128.225 83.0094C127.839 83.9105 127.066 84.5542 126.036 84.8116C126.423 84.6829 125.65 84.8116 125.65 84.8116C125.135 84.9404 126.165 84.8116 125.522 84.8116C124.878 84.8116 126.036 84.9404 125.393 84.8116L125.007 84.6829C124.62 84.5542 125.779 84.9404 125.135 84.6829C125.007 84.6829 124.878 84.5542 124.749 84.5542C124.878 84.5542 125.522 84.9404 125.007 84.6829C124.878 84.5542 124.749 84.5542 124.749 84.5542C124.878 84.5542 125.393 84.9404 124.878 84.6829L124.62 84.4254C124.363 84.2967 124.492 84.4254 124.62 84.4254C124.878 84.5542 124.62 84.4254 124.492 84.2967L124.234 83.9105L123.977 83.6531C124.106 83.7818 124.234 84.0393 123.977 83.6531C123.848 83.5244 123.719 83.2669 123.591 83.0094L123.462 82.6233C123.462 82.752 123.591 83.0094 123.462 82.6233C123.333 82.2371 123.333 82.1084 123.333 81.8509C123.333 81.5934 123.333 81.336 123.333 80.9498C123.333 80.8211 123.333 80.6924 123.462 80.4349C123.591 79.92 123.719 79.4051 123.977 78.8902C123.977 78.7614 124.106 78.6327 124.106 78.504C124.106 78.504 124.363 78.1178 124.234 78.3753C124.363 78.1178 124.62 77.9891 124.749 77.7316C125.007 77.4742 125.135 77.3455 125.393 77.2167L125.65 76.9593C125.393 77.2167 125.779 76.9593 125.779 76.8305C127.066 76.1869 126.423 74.8996 125.522 74.1273C124.62 73.3549 122.69 72.84 121.274 73.6124Z" fill="white"/>
<path d="M351.955 70.0083C353.886 66.7901 356.203 63.8294 358.906 61.2549L357.104 55.3334C356.461 53.0163 357.362 50.5705 359.55 49.2832L367.274 45.0353C369.462 43.8767 372.037 44.2629 373.71 46.0651L377.829 50.6993C381.434 49.7982 385.167 49.412 388.9 49.412L391.861 44.1342C393.019 41.9458 395.594 40.916 398.039 41.5596L406.278 43.8767C408.724 44.5203 410.269 46.8374 410.14 49.2832L409.754 55.3334C412.972 57.2643 415.933 59.5814 418.507 62.2847L424.686 60.4825C426.874 59.8389 429.191 60.74 430.221 62.7996L434.727 71.0381C435.757 72.969 435.37 75.4149 433.697 76.9596L428.805 81.3363C429.706 84.9407 430.093 88.6738 430.093 92.4068L435.242 95.2388C437.559 96.5261 438.717 99.1007 437.945 101.675L435.757 109.399C434.984 111.973 432.667 113.647 429.964 113.518L424.171 113.261C422.24 116.479 419.923 119.44 417.22 122.014L418.893 127.549C419.666 130.124 418.507 132.827 416.19 134.114L409.11 138.105C406.793 139.392 403.961 138.877 402.159 136.946L398.297 132.57C394.693 133.471 390.959 133.986 387.226 133.857L384.394 139.006C383.107 141.323 380.533 142.353 377.958 141.709L370.106 139.521C367.66 138.877 365.986 136.432 366.115 133.857L366.373 127.936C363.154 126.005 360.194 123.688 357.619 120.984L352.856 122.529C349.767 123.43 346.549 122.143 345.004 119.311L342.043 113.904C340.498 111.072 341.013 107.597 343.459 105.408L347.064 102.19C346.162 98.5858 345.648 94.8527 345.776 91.1196L340.498 88.2876C338.31 87.129 337.28 84.4258 337.924 82.1087L340.241 73.9989C340.885 71.553 343.202 70.0083 345.648 70.1371L351.955 70.0083Z" fill="#F5EE30"/>
<path d="M433.31 19.676C434.597 17.4876 436.271 15.428 438.073 13.6258L436.914 9.50656C436.399 7.96183 437.172 6.15965 438.588 5.38729L443.865 2.42656C445.281 1.6542 447.212 1.91166 448.242 3.19893L451.074 6.41711C453.52 5.77347 456.095 5.51602 458.798 5.51602L460.729 1.91166C461.501 0.366933 463.303 -0.276704 464.977 0.109477L470.641 1.78293C472.314 2.29784 473.344 3.84257 473.344 5.51602L473.087 9.63529C475.275 10.9226 477.335 12.596 479.137 14.3982L483.385 13.1109C484.929 12.7247 486.474 13.3684 487.247 14.6556L490.336 20.3196C491.108 21.6069 490.851 23.4091 489.692 24.4389L486.345 27.3996C486.989 29.8454 487.247 32.42 487.247 34.9945L490.722 36.9254C492.267 37.8265 493.039 39.6287 492.653 41.4309L491.108 46.8374C490.593 48.6396 488.92 49.7982 486.989 49.6694L482.999 49.412C481.711 51.6003 480.038 53.66 478.236 55.4622L479.394 59.324C479.909 61.1261 479.137 62.9283 477.592 63.8294L472.829 66.5327C471.284 67.4338 469.225 67.0476 468.066 65.7603L465.363 62.7996C462.917 63.4432 460.343 63.7007 457.768 63.7007L455.837 67.305C454.936 68.8498 453.134 69.6221 451.46 69.1072L445.925 67.5625C444.252 67.0476 443.093 65.5029 443.222 63.7007L443.479 59.5814C441.291 58.2941 439.231 56.6207 437.429 54.8185L434.211 55.7196C432.151 56.3632 429.834 55.4622 428.804 53.5312L426.745 49.7982C425.715 47.8672 426.101 45.4214 427.775 44.0054L430.22 41.8171C429.577 39.3713 429.319 36.7967 429.319 34.2222L425.715 32.2913C424.17 31.5189 423.398 29.7167 423.913 28.0433L425.458 22.3793C425.972 20.7058 427.517 19.5473 429.191 19.676H433.31ZM442.964 30.1029C440.647 38.5989 445.539 47.3523 453.906 49.6694C462.402 51.9865 471.156 47.0949 473.473 38.7276C475.79 30.2316 470.898 21.4782 462.531 19.1611C460.986 18.7749 459.441 18.5175 457.897 18.5175C450.945 18.7749 444.895 23.4091 442.964 30.1029Z" fill="#F5EE30"/>
</svg>
