<svg width="557" height="557" viewBox="0 0 557 557" fill="none" xmlns="http://www.w3.org/2000/svg">
<path d="M553.979 3.19312H379.725V128.724H553.979V3.19312Z" fill="white"/>
<path d="M552.935 125.72H385.735C383.514 125.72 381.163 125.589 378.942 125.72H378.681L382.077 130.03V9.72434C382.208 8.02621 382.208 6.4587 382.077 4.76057C382.077 4.62994 382.077 4.62995 382.077 4.49932L380.771 6.19745H547.971C550.192 6.19745 552.543 6.32808 554.764 6.19745C554.894 6.19745 554.894 6.19745 555.025 6.19745L551.629 1.88681V112.004C551.629 117.098 551.498 122.193 551.629 127.287V127.548C551.629 129.247 552.413 130.683 553.849 131.598C554.503 132.12 555.548 131.99 556.07 131.206C556.331 130.945 556.331 130.553 556.331 130.161V19.9131C556.331 14.8187 556.462 9.72434 556.331 4.62995V4.36869C556.331 2.53994 555.025 0.0580557 552.935 0.0580557H385.735C383.514 0.0580557 381.163 -0.0725697 378.942 0.0580557C378.811 0.0580557 378.811 0.0580557 378.681 0.0580557C377.897 0.0580557 377.374 0.972433 377.374 1.75619V111.873C377.374 116.968 377.244 122.062 377.374 127.157V127.418C377.374 129.247 378.681 131.728 380.771 131.728H547.971C550.192 131.728 552.543 131.859 554.764 131.728H555.025C557.899 131.728 555.548 125.72 552.935 125.72Z" fill="#F5EE30"/>
<path d="M414.828 88.958L414.748 114.561L439.175 114.637L439.255 89.0347L414.828 88.958Z" fill="white"/>
<path d="M438.507 112.396H417.084H414.08L417.868 115.531V93.1941V90.0591L415.517 91.496L436.939 91.6266H439.944L436.156 88.4916V110.829V113.833C436.156 116.445 442.295 118.535 442.295 115.531L442.426 93.1941V90.0591C442.426 88.361 440.074 86.9241 438.638 86.9241H417.215H414.211C413.296 86.9241 411.859 87.0547 411.859 88.361V110.698V113.833C411.859 115.531 414.211 116.968 415.648 116.968L437.07 117.099H440.074C441.25 117.099 442.818 116.707 442.295 115.139C441.642 113.441 440.074 112.527 438.507 112.396Z" fill="#F5EE30"/>
<path d="M452.912 58.3714L452.736 114.41L477.163 114.486L477.339 58.4481L452.912 58.3714Z" fill="white"/>
<path d="M477.302 111.481L452.875 111.351L456.01 114.355V95.5451L456.14 65.3706V58.4475L452.744 61.1906L477.171 61.3212L474.036 58.3169V77.1269L473.905 107.301V114.355C473.905 118.143 480.437 118.535 480.437 114.747V95.937L480.567 65.7625V58.8394C480.567 57.1412 479.13 55.835 477.432 55.835L453.005 55.7043C451.438 55.7043 449.609 56.6187 449.609 58.4475V77.1269L449.479 107.171V114.094C449.479 115.792 450.915 117.098 452.614 117.098L477.04 117.229C478.608 117.49 480.176 116.445 480.306 114.747C480.567 113.18 479.522 111.612 477.824 111.481C477.694 111.481 477.432 111.481 477.302 111.481Z" fill="#F5EE30"/>
<path d="M492.684 41.214L492.453 114.756L516.88 114.833L517.111 41.2907L492.684 41.214Z" fill="#F5EE30"/>
<path d="M519.365 113.31L494.938 113.18L495.46 113.31L495.591 88.4915L495.721 48.7814V39.6376L490.235 42.3808H514.662L514.14 42.2501L514.009 67.069L513.878 106.779V115.923C513.878 116.445 516.883 115.4 517.144 115.27C517.797 115.008 519.887 114.225 519.887 113.31L520.018 88.4915L520.148 48.7814V39.6376C520.018 39.507 519.757 39.3764 519.626 39.507H495.33C494.154 39.6376 492.848 40.0295 491.803 40.6826C491.28 40.9439 489.843 41.597 489.843 42.2501L489.713 67.069L489.582 106.779V115.923C489.713 116.053 489.974 116.184 490.105 116.053L514.531 116.184C516.099 116.053 517.536 115.531 518.711 114.617C518.973 114.486 520.671 113.31 519.365 113.31Z" fill="#F5EE30"/>
<path d="M454.182 69.0283L467.898 60.407C468.551 60.0151 468.943 59.1008 468.551 58.4476L468.42 58.317C468.028 57.6639 466.853 56.8801 466.069 57.4026L452.353 66.0239C451.7 66.4158 451.439 67.3302 451.831 68.1139C451.831 68.1139 451.831 68.2446 451.961 68.2446C452.222 68.7671 453.398 69.4202 454.182 69.0283Z" fill="#F5EE30"/>
<path d="M455.226 74.7759C458.491 71.7715 462.802 70.0734 466.59 67.7221C470.64 65.2403 474.689 62.6277 478.346 59.754C478.869 59.3621 478.608 59.1009 478.085 59.2315C477.171 59.3621 476.387 59.754 475.734 60.4071C472.076 63.2809 468.158 65.8934 464.108 68.2446C460.189 70.4653 455.879 72.4247 452.483 75.429C451.96 75.8209 452.091 76.0822 452.744 75.9515C453.658 75.6903 454.442 75.2984 455.226 74.7759Z" fill="#F5EE30"/>
<path d="M455.095 87.8384C462.019 81.9603 470.64 78.4334 477.824 72.9471C478.477 72.4246 476.257 69.5508 475.604 69.9427C468.419 75.429 459.798 79.0865 452.875 84.9646C452.222 85.4871 454.442 88.3609 455.095 87.8384Z" fill="#F5EE30"/>
<path d="M454.05 97.8966C462.28 92.8022 470.509 87.5771 478.608 82.2215C479.783 81.4377 477.563 78.564 476.257 79.3477C468.158 84.7034 460.059 89.9284 451.699 95.0228C450.393 95.8065 452.613 98.6803 454.05 97.8966Z" fill="#F5EE30"/>
<path d="M454.965 108.347C462.933 104.297 470.509 99.5947 477.694 94.3697C478.216 93.9778 478.477 93.3247 478.085 92.6715C477.955 92.5409 477.955 92.4103 477.824 92.2796C477.04 91.7571 475.995 91.8878 475.212 92.4103C468.289 97.5047 460.974 101.946 453.267 105.865C452.613 106.257 451.96 107.171 452.483 107.824C453.136 108.738 454.05 108.869 454.965 108.347Z" fill="#F5EE30"/>
<path d="M460.973 114.747C466.72 112.788 472.207 110.175 477.432 107.04C478.085 106.648 477.824 106.257 477.17 106.257C476.256 106.257 475.342 106.518 474.558 106.91C469.855 109.783 464.761 112.135 459.536 113.963C459.144 114.094 457.968 114.486 458.491 115.008C459.013 115.531 460.45 114.878 460.973 114.747Z" fill="#F5EE30"/>
<path d="M531.38 32.1921C534.515 27.4896 537.781 22.9177 541.177 18.3458C542.091 17.0395 541.961 15.2108 540.916 14.0351C540.132 13.1208 538.303 11.9451 537.389 13.2514C533.993 17.6926 530.727 22.3952 527.592 27.0977C526.678 28.4039 526.808 30.2327 527.853 31.4083C528.245 32.0614 528.898 32.4533 529.682 32.7146C530.204 32.8452 530.858 32.5839 531.38 32.1921Z" fill="#F5EE30"/>
<path d="M525.894 15.9943C530.466 20.5662 534.776 25.3993 538.956 30.3631C540.001 31.4081 541.438 32.0612 543.006 32.3225C543.659 32.4531 545.488 32.4531 544.573 31.4081C540.393 26.4443 536.083 21.6112 531.511 16.9087C530.335 15.8637 529.029 15.2105 527.461 14.9493C526.939 14.8187 526.416 14.8187 525.894 14.9493C525.502 15.2105 525.633 15.6024 525.894 15.8637V15.9943Z" fill="#F5EE30"/>
<path d="M168.372 127.548C166.152 112.657 169.287 96.4596 178.431 84.1808C186.66 72.947 199.592 66.4157 213.569 67.722C220.492 68.2445 227.154 70.857 232.64 75.037C234.991 76.8658 239.302 80.1314 238.126 83.6583C237.865 84.3114 237.473 84.8339 236.951 85.3564C236.951 85.3564 236.298 85.7483 236.69 85.6177C235.383 85.8789 233.685 84.0502 233.032 83.1358C228.068 76.3433 234.6 68.3751 239.433 63.6726C244.396 58.8395 250.275 55.0513 256.806 52.4388C271.044 46.6913 287.895 47.2138 301.088 55.4432C302.394 56.0963 303.962 56.0963 305.268 55.4432C305.66 55.3126 308.142 53.8757 307.097 53.2226C292.597 44.34 274.832 43.6869 258.896 48.7813C250.928 51.2632 243.482 55.4432 237.081 60.7989C231.203 65.8932 222.843 74.1226 225.848 82.7439C227.023 86.5321 230.681 89.0139 234.6 88.8833C238.388 88.7527 244.005 86.5321 244.658 82.2214C245.311 78.172 241 74.6451 238.126 72.5551C234.991 70.2039 231.334 68.2445 227.546 66.9382C211.087 61.7132 193.191 65.2401 179.998 76.3433C166.805 87.8383 160.666 105.603 161.449 122.846C161.58 125.067 161.711 127.157 162.102 129.377C162.364 131.075 168.764 129.769 168.372 127.548Z" fill="#F5EE30"/>
<path d="M51.8547 163.601H208.344C221.798 163.601 232.771 174.574 232.771 188.028C232.771 201.482 221.798 212.455 208.344 212.455H51.8547C38.4003 212.455 27.4277 201.482 27.4277 188.028C27.4277 174.574 38.4003 163.601 51.8547 163.601Z" fill="#262626"/>
<path d="M207.037 209.712H51.2007C43.1019 209.712 34.7419 206.054 31.215 198.478C25.8594 186.983 32.9132 173.137 44.1469 168.304C48.327 166.475 52.507 166.475 56.9482 166.475H207.69C213.829 166.475 219.708 167.65 224.541 171.83C233.815 179.799 231.986 194.821 223.626 202.919C219.185 207.23 213.176 209.712 207.037 209.712C205.208 209.712 207.821 215.459 209.78 215.459C223.234 215.329 234.338 204.617 234.86 191.163C235.383 177.578 225.324 164.124 211.87 161.38C208.604 160.858 205.208 160.727 201.942 160.858H79.8077C70.1414 160.858 60.4751 160.858 50.8089 160.858C40.7507 160.727 31.6069 166.605 27.5575 175.749C21.9406 188.42 27.9494 204.095 39.3138 211.279C43.4938 213.892 48.327 215.329 53.2907 215.459H209.649C211.478 215.459 208.866 209.712 207.037 209.712Z" fill="#262626"/>
<path d="M66.8767 184.37C66.7461 188.289 64.3948 191.685 60.8679 193.253C57.341 194.82 53.2916 194.167 50.4179 191.685C50.6791 191.947 50.4179 191.555 50.2873 191.555C49.6341 190.902 50.6791 191.947 50.1566 191.293C50.2873 191.424 50.6791 191.816 50.1566 191.293C50.6791 191.816 50.026 191.032 50.2873 191.555C50.026 190.902 49.7648 190.118 49.7648 189.334C49.6341 187.375 50.1566 185.546 51.071 183.848C53.0304 180.452 56.6879 178.492 60.6067 178.753C62.5661 178.884 64.5254 179.668 66.0929 180.974C66.7461 181.627 65.8317 180.582 66.3542 181.235L66.4848 181.366C66.3542 181.235 66.3542 181.235 66.6154 181.497L66.4848 181.235C66.7461 181.497 66.7461 181.497 66.4848 181.235L66.6154 181.497C66.4848 181.235 66.4848 181.235 66.6154 181.497C66.8767 182.28 66.6154 181.235 66.7461 181.758C66.8767 182.019 66.8767 182.411 67.0073 182.672C66.8767 183.325 66.8767 183.848 66.8767 184.37C67.1379 185.807 67.7911 187.244 68.9667 188.289C69.3586 188.812 70.7955 189.987 70.7955 188.55C70.6648 185.546 69.7505 182.672 68.0523 180.19C66.6154 177.708 64.3948 175.618 61.9129 174.312C57.4717 172.092 52.116 173.137 48.7198 176.794C45.1929 180.974 45.4541 186.722 47.936 191.293C50.5485 196.127 55.251 200.307 61.1292 199.654C66.7461 199 70.7955 194.167 70.7955 188.55C70.5342 186.983 69.8811 185.677 68.7054 184.501C68.1829 184.109 66.8767 182.933 66.8767 184.37Z" fill="white"/>
<path d="M74.322 195.866L68.5745 190.379L67.7907 189.596C67.3988 189.204 66.8763 188.812 66.2232 188.812C65.8313 188.812 65.4395 189.204 65.4395 189.726C65.4395 190.379 65.5701 191.163 65.962 191.686C66.3538 192.469 66.8763 193.122 67.3988 193.776L73.1464 199.262L74.0607 200.046C74.4526 200.437 74.9751 200.829 75.6282 200.829C76.0201 200.829 76.412 200.437 76.412 199.915C76.412 199.262 76.2814 198.478 75.8895 197.956C75.367 197.172 74.8445 196.519 74.322 195.866Z" fill="white"/>
<path d="M120.825 172.353C114.686 171.7 104.759 174.443 106.326 182.411C107.11 186.591 110.114 189.726 113.51 192.077C115.078 193.253 116.776 194.298 118.344 195.604C119.127 196.126 119.781 196.78 120.434 197.302C121.087 197.825 121.348 198.478 120.564 196.78L120.042 195.735L119.781 195.996C119.519 196.126 119.127 196.388 118.866 196.518C114.817 198.347 110.375 199.131 105.934 198.478C104.628 198.347 105.542 200.698 105.673 201.221C106.065 202.266 107.11 204.225 108.285 204.356C112.074 204.748 115.992 204.356 119.65 203.18C121.087 202.658 123.307 202.005 123.569 200.176C123.961 197.825 122.132 195.212 120.695 193.645C117.952 190.901 114.686 188.811 111.682 186.591C111.029 186.068 110.506 185.676 109.853 185.154C109.722 185.023 109.592 184.762 109.461 184.631C109.592 184.501 109.592 185.676 109.722 185.154C109.853 184.501 109.984 183.848 110.114 183.325C110.506 182.541 110.898 181.888 111.551 181.235C114.555 178.492 119.127 177.839 123.046 178.231C124.352 178.361 123.438 176.01 123.307 175.488C123.046 174.443 122.001 172.353 120.825 172.353Z" fill="white"/>
<path d="M132.19 177.839V193.906C132.059 195.604 132.059 197.302 132.19 199C132.712 202.527 135.717 204.095 139.113 204.095C142.64 204.095 146.036 203.703 149.432 202.789C151.13 202.527 152.306 201.221 152.437 199.523C152.175 198.086 150.739 197.041 149.302 197.302C149.171 197.302 149.171 197.302 149.04 197.302C146.297 197.955 143.554 198.347 140.68 198.478C140.289 198.478 139.505 198.478 139.374 198.478C139.505 198.478 138.852 198.347 138.852 198.347C139.113 198.478 138.59 198.086 138.721 198.217C138.59 197.955 138.59 197.694 138.59 197.433C138.59 196.78 138.59 195.996 138.59 195.343V176.663C138.59 174.965 136.631 174.312 135.194 174.573C133.365 174.835 132.059 176.141 132.19 177.839Z" fill="white"/>
<path d="M137.415 191.294H150.738C152.436 191.163 153.873 189.857 154.135 188.159C154.135 186.591 152.959 185.416 151.391 185.285C151.261 185.285 151.261 185.285 151.13 185.285H137.806C136.108 185.416 134.671 186.722 134.41 188.42C134.41 189.987 135.586 191.163 137.153 191.294C137.153 191.294 137.284 191.294 137.415 191.294Z" fill="white"/>
<path d="M137.676 178.623H149.301C150.738 178.754 151.914 177.578 151.914 176.272C151.914 176.141 151.914 175.88 151.914 175.749C151.652 174.051 150.216 172.745 148.517 172.614H136.892C135.455 172.484 134.279 173.659 134.279 174.965C134.279 175.096 134.279 175.357 134.279 175.488C134.541 177.317 135.977 178.492 137.676 178.623Z" fill="white"/>
<path d="M168.372 175.227C162.756 178.1 158.837 183.456 157.922 189.726C157.008 195.212 158.314 201.352 163.67 204.095C166.674 205.401 169.94 205.924 173.206 205.532C176.863 205.401 180.39 204.487 183.525 202.919C188.097 200.176 190.579 194.951 189.926 189.726C189.273 183.064 184.048 177.839 178.823 174.182C177.778 173.398 175.949 173.79 174.773 174.051C174.512 174.182 171.769 174.965 172.683 175.618C176.863 178.492 180.913 182.15 182.611 187.113C184.309 191.293 183.786 196.127 181.174 199.784C178.561 203.18 173.859 204.356 169.94 202.658C165.237 200.699 163.931 195.212 164.192 190.51C164.715 184.501 167.719 178.753 173.206 176.01C174.251 175.488 174.12 174.835 173.075 174.573C171.377 174.312 169.809 174.573 168.372 175.227Z" fill="white"/>
<path d="M69.0973 153.804L63.3498 148.971C62.8273 148.579 62.1741 148.318 61.3904 148.187C60.6066 148.056 59.6923 148.056 58.9085 148.187L58.2554 148.318C57.8635 148.448 57.6022 148.579 57.341 148.84C57.0797 149.232 57.2104 149.624 57.6022 149.885L63.3498 154.849C63.8723 155.241 64.5254 155.502 65.3091 155.633C66.0929 155.763 67.0073 155.763 67.791 155.633L68.4442 155.502C68.836 155.371 69.0973 155.241 69.3585 154.98C69.6198 154.457 69.3585 154.196 69.0973 153.804Z" fill="#262626"/>
<path d="M78.894 154.327V143.746C78.894 143.223 78.2409 142.701 77.9796 142.309C77.3265 141.656 76.6734 141.264 75.8896 140.872C75.3671 140.611 73.1465 139.697 73.1465 140.872V151.583C73.1465 152.106 73.7996 152.628 74.0609 153.02C74.714 153.543 75.3671 154.065 76.1509 154.457C76.6734 154.588 78.894 155.633 78.894 154.327Z" fill="#262626"/>
<path d="M282.147 483.764C371.756 510.934 415.515 411.137 415.515 411.137L373.715 332.761C373.715 332.761 320.159 404.736 286.196 387.493C252.233 370.251 215.658 323.487 215.658 323.487C215.658 323.487 218.663 267.318 198.677 260.787C178.691 254.255 173.205 269.8 173.205 269.8C173.205 269.8 147.864 217.811 134.801 224.081C121.739 230.351 144.206 273.457 144.206 273.457C144.206 273.457 117.167 276.592 131.274 297.754C131.274 297.754 114.162 304.807 127.225 320.352C140.287 335.896 148.647 333.806 150.084 323.487C150.084 323.487 152.827 336.941 168.633 339.423C168.633 339.423 220.23 464.954 282.147 483.764Z" fill="white"/>
<path d="M280.972 486.115C294.296 490.296 308.404 491.863 322.25 490.557C334.137 489.25 345.763 485.854 356.343 480.368C366.01 475.404 374.892 469.004 382.73 461.558C389.653 455.027 395.923 447.842 401.54 440.266C405.981 434.388 410.03 428.118 413.557 421.717C415.255 418.713 416.823 415.708 418.26 412.573C418.913 411.136 418.26 410.222 417.607 409.046L414.21 402.385L401.017 377.566L386.126 349.612L377.113 332.631L376.721 331.847C375.806 330.149 372.41 329.234 371.104 331.063C366.663 336.941 361.83 342.558 356.866 348.044C347.069 358.756 336.358 369.206 324.34 377.304C318.723 381.223 312.584 384.228 306.052 386.318C303.309 387.232 300.305 387.624 297.431 387.624H296.386C297.17 387.624 296.125 387.624 295.864 387.624C295.08 387.624 294.296 387.493 293.643 387.363L292.598 387.232C292.337 387.101 292.076 387.101 291.814 387.101C292.206 387.232 291.161 386.971 291.031 386.84C290.639 386.71 290.247 386.579 289.855 386.448C286.067 384.881 282.409 382.921 279.013 380.57C274.833 377.827 270.653 374.823 266.734 371.818C258.766 365.548 251.32 358.756 244.267 351.571C235.123 342.427 226.763 332.631 218.533 322.834L218.142 322.311L218.795 324.271C219.448 312.253 218.795 300.366 216.966 288.479C215.66 280.772 213.7 272.543 209.128 266.142C207.038 263.007 204.165 260.656 200.768 259.088C195.413 256.868 189.665 256.345 183.918 257.39C178.039 258.697 172.161 263.138 170.071 268.885L176.08 269.147C173.468 263.791 170.594 258.566 167.589 253.472C162.495 244.589 156.878 235.445 149.563 228.13C146.559 225.256 143.163 222.383 138.983 221.468C135.194 220.554 131.145 222.121 129.055 225.518C126.965 229.045 127.096 233.747 127.618 237.666C128.402 242.76 129.708 247.724 131.537 252.557C134.149 260.133 137.284 267.579 140.942 274.633L143.424 271.106C135.325 272.02 124.091 276.462 123.699 285.997C123.438 290.7 125.528 295.01 128.01 298.799L129.708 295.533C123.569 298.015 118.344 303.632 118.866 310.555C119.389 317.217 124.875 323.095 129.577 327.406C133.496 331.063 138.591 334.851 144.208 334.329C149.694 333.806 152.306 329.104 153.09 324.14L146.689 323.879C148.779 333.937 158.446 340.599 168.112 342.166L165.499 340.468C167.328 344.779 169.157 348.959 171.116 353.139C175.949 363.719 181.175 374.039 186.791 384.228C194.106 397.682 201.944 410.745 210.565 423.285C219.448 436.608 229.637 449.018 241.001 460.252C251.19 470.179 262.946 479.323 276.27 484.548C277.837 485.201 279.405 485.593 280.972 486.115C282.409 486.507 284.369 486.377 285.152 484.94C285.675 483.634 285.022 482.066 283.715 481.544C283.585 481.544 283.454 481.413 283.454 481.413C268.563 476.841 255.892 466.914 244.789 455.81C232.118 443.14 221.277 428.64 211.48 413.618C202.466 399.641 194.237 385.273 186.661 370.512C181.958 361.238 177.386 351.833 173.206 342.297C172.814 341.252 172.423 340.337 171.9 339.423C171.247 337.986 169.81 336.941 168.243 336.811C164.063 336.157 160.144 333.937 157.27 330.802C156.225 329.757 155.311 328.451 154.658 327.144C154.396 326.622 154.135 325.969 153.874 325.446C153.743 325.185 153.743 324.924 153.613 324.793C153.351 324.14 153.743 325.185 153.482 324.532C153.351 324.14 153.221 323.617 153.09 323.226C152.568 320.482 147.081 319.829 146.689 322.964C146.559 324.532 146.036 326.099 145.253 327.536C144.861 328.189 145.253 327.667 144.861 328.059C144.73 328.189 143.946 328.842 144.469 328.451C144.208 328.581 143.946 328.712 143.685 328.973C143.163 329.234 143.685 328.973 143.816 328.973L143.163 329.104C143.946 328.842 142.901 329.104 142.64 329.104C142.118 329.104 143.424 329.234 142.64 329.104L142.118 328.973L141.595 328.842C141.726 328.842 142.248 328.973 141.595 328.842C141.073 328.712 140.55 328.451 140.158 328.32C139.766 328.189 139.505 327.928 139.113 327.797C138.591 327.536 138.068 327.144 137.676 326.752C136.631 325.969 135.586 325.185 134.672 324.271C130.753 320.613 126.051 316.041 125.397 310.555C125.136 307.681 126.181 304.807 128.402 302.979C128.663 302.717 128.924 302.456 129.316 302.195C129.447 302.064 129.577 301.934 129.708 301.803C129.316 302.064 129.969 301.542 129.708 301.803C130.1 301.542 130.753 301.15 131.276 300.758C131.798 300.366 132.059 300.366 132.451 300.105C132.843 299.844 133.627 299.582 132.321 300.105C133.496 299.582 134.933 298.276 134.019 296.839C132.059 293.965 130.361 290.7 130.231 287.173C130.231 287.042 130.231 286.781 130.231 286.65C130.231 286.389 130.231 285.997 130.361 285.736C130.492 285.475 130.492 285.214 130.492 284.822C130.492 284.43 130.622 284.56 130.622 284.299C130.492 284.43 130.492 284.56 130.622 284.299C130.884 283.777 131.014 283.254 131.276 282.862C131.406 282.601 131.537 282.34 131.798 282.079C131.537 282.601 131.929 281.817 132.059 281.687C132.451 281.295 132.843 280.903 133.235 280.511C133.366 280.38 133.627 280.119 133.888 279.989C134.149 279.858 133.757 280.119 133.757 280.119L134.28 279.727C135.325 279.205 136.37 278.682 137.415 278.16L138.199 277.768C137.676 278.029 138.068 277.899 138.329 277.768L139.897 277.245C140.811 276.984 141.595 276.723 142.509 276.462L143.816 276.2L144.338 276.07C144.73 275.939 143.424 276.2 144.077 276.07C144.338 276.07 144.599 275.939 144.861 275.939C146.559 275.809 148.388 274.372 147.343 272.412C144.469 266.926 141.987 261.309 139.766 255.562C137.937 251.12 136.501 246.548 135.325 241.846C134.802 239.625 134.411 237.405 134.149 235.053C133.888 233.355 134.019 231.526 134.411 229.828C134.541 229.436 134.541 229.175 134.672 228.783C134.411 229.436 134.802 228.391 134.933 228.13C135.064 227.738 135.325 227.477 135.456 227.085C135.064 227.738 135.717 226.824 135.847 226.693C135.978 226.563 136.501 226.171 135.847 226.693C135.978 226.563 136.109 226.432 136.37 226.432C136.631 226.301 137.546 226.04 136.631 226.301C137.023 226.171 137.937 226.171 136.892 226.171C137.154 226.171 137.546 226.171 137.807 226.171C136.762 226.301 137.676 226.171 138.068 226.301C138.46 226.432 138.721 226.563 137.937 226.301C138.068 226.301 138.329 226.432 138.46 226.432L139.374 226.824C139.505 226.824 140.158 227.216 139.374 226.824L140.158 227.216C140.811 227.608 141.595 228.13 142.248 228.653L142.771 229.045C142.248 228.653 142.64 228.914 142.771 229.045C143.293 229.436 143.685 229.828 144.077 230.22C151 236.882 156.094 244.981 160.928 253.21C164.324 258.958 167.589 264.705 170.463 270.714C171.378 272.543 175.558 273.327 176.472 270.975C176.733 270.322 176.994 269.669 177.386 269.016C177.517 268.755 177.778 268.363 177.909 268.102C178.04 267.84 178.04 267.84 178.17 267.579C178.562 267.057 177.909 267.84 178.301 267.318C178.954 266.534 179.607 265.881 180.26 265.228C180.913 264.575 181.697 263.922 182.611 263.53C183.526 262.877 184.571 262.485 185.746 262.223C188.751 261.44 192.016 261.44 195.021 262.354C196.458 262.615 197.764 263.138 199.07 263.66C198.286 263.268 199.593 263.922 199.854 264.183C200.246 264.444 200.638 264.705 201.03 265.097C200.507 264.705 201.03 265.097 201.291 265.228L201.813 265.75C202.205 266.142 202.597 266.534 202.989 267.057L203.511 267.579C203.773 267.971 203.642 267.71 203.642 267.84C204.034 268.363 204.295 268.885 204.687 269.408C207.169 273.849 208.998 278.682 209.912 283.777C211.088 289.394 211.871 295.01 212.263 300.758C212.394 303.37 212.655 305.983 212.655 308.596C212.655 311.208 212.786 312.514 212.786 314.996C212.786 317.478 212.655 320.091 212.655 322.703C212.655 324.662 214.092 325.969 215.268 327.406C222.191 336.027 229.637 344.256 237.343 352.094C248.577 363.589 260.725 374.692 274.18 383.444C279.666 387.101 285.414 390.759 291.945 392.196C297.039 393.241 302.395 392.98 307.359 391.673C318.592 388.93 328.781 382.138 337.664 374.953C346.677 367.638 355.037 359.67 362.744 351.049C367.316 345.954 371.757 340.729 375.937 335.374L376.59 334.59L370.973 333.806L385.211 360.454L407.418 402.254L412.643 411.92V409.961C411.206 413.226 409.508 416.492 407.679 419.497C405.72 422.893 403.63 426.289 401.54 429.555C398.666 433.865 396.184 437.262 393.18 441.18C385.995 450.324 377.766 458.553 368.491 465.738C358.172 473.706 346.416 479.584 333.876 482.98C319.246 486.638 304.093 486.638 289.463 482.98C287.504 482.458 285.414 481.935 283.454 481.282C282.017 480.89 280.058 480.89 279.274 482.458C278.752 483.764 279.535 485.332 280.842 485.854C280.842 486.115 280.842 486.115 280.972 486.115Z" fill="#262626"/>
<path d="M193.976 281.164C193.976 281.164 184.963 294.358 175.036 290.569C165.108 286.781 173.207 269.931 173.207 269.931" fill="white"/>
<path d="M191.363 279.205C190.188 280.903 188.881 282.34 187.444 283.777C184.832 286.389 181.436 288.61 177.778 289.132C176.864 289.263 176.08 289.263 175.166 289.132C174.774 289.132 174.251 289.002 173.859 288.871L173.076 288.61H172.945C173.337 288.871 173.729 289.132 173.99 289.394L174.251 289.655C174.512 289.916 174.512 289.916 174.382 289.655C174.382 289.916 174.382 289.655 174.251 289.524C174.121 289.394 173.99 289.263 173.99 289.002C173.598 288.349 173.337 287.826 173.206 287.042C172.553 283.907 172.814 280.642 173.859 277.507C174.382 275.547 175.166 273.588 175.949 271.629C176.211 270.975 174.121 269.539 173.598 269.277C173.076 269.016 170.855 267.318 170.594 267.84C169.679 269.669 169.026 271.498 168.504 273.457C167.589 276.723 166.936 280.511 167.851 283.777C168.504 285.736 169.679 287.565 171.377 288.741C173.598 290.831 176.341 292.267 179.346 292.921C183.526 293.704 187.575 291.745 190.841 289.132C193.061 287.304 195.021 285.344 196.588 282.993C197.241 282.34 191.886 278.552 191.363 279.205Z" fill="#262626"/>
<path d="M157.531 289.655C157.531 289.655 168.112 307.681 159.882 317.478C151.653 327.275 136.37 307.42 131.275 297.754" fill="white"/>
<path d="M155.18 288.218C155.311 288.349 155.572 288.871 155.311 288.479C155.572 289.002 155.964 289.655 156.225 290.177C157.009 291.876 157.793 293.574 158.446 295.402C160.013 299.974 161.189 305.199 160.144 310.032C159.229 313.951 156.356 318.392 151.784 318.131C150.869 318.131 149.955 317.87 149.171 317.478C148.518 317.217 147.996 316.956 147.343 316.564C146.559 316.041 147.865 316.956 147.081 316.302C146.298 315.649 147.604 316.694 146.82 316.041L145.906 315.257C144.991 314.343 144.077 313.429 143.163 312.514C139.636 308.596 136.501 304.154 134.019 299.452C133.235 298.276 132.321 297.362 131.145 296.709C130.623 296.447 129.969 295.794 129.447 295.794C129.316 295.794 128.663 295.533 128.924 295.925C131.537 300.758 134.672 305.199 138.199 309.379C142.248 314.082 147.212 318.784 153.09 321.136C154.919 322.05 157.139 322.311 159.099 321.919C161.189 321.266 163.018 319.699 164.063 317.739C166.936 312.906 166.283 306.767 164.846 301.542C163.801 297.884 162.364 294.357 160.405 290.961C159.491 289.786 158.315 288.741 157.009 288.087C156.225 287.957 154.527 287.042 155.18 288.218Z" fill="#262626"/>
<path d="M334.136 473.445C334.136 473.445 322.641 330.149 412.642 299.582C502.643 269.016 507.607 424.852 513.877 464.954" fill="#262626"/>
<path d="M337.401 473.184C337.01 468.089 336.879 462.995 336.879 458.031C336.879 452.414 337.01 446.928 337.271 441.311C337.663 434.257 338.185 428.118 338.969 421.195C340.798 405.259 344.325 389.453 349.288 374.17C354.644 358.495 362.351 342.82 372.932 330.28C384.035 316.956 398.665 306.898 415.254 301.542C417.344 300.889 419.434 300.366 421.524 299.844C422.439 299.583 423.353 299.452 424.267 299.321C423.614 299.452 425.051 299.191 425.182 299.191L426.619 298.929C428.447 298.668 430.407 298.538 432.235 298.407C433.15 298.407 433.934 298.407 434.848 298.407H436.154H436.938C438.636 298.538 440.334 298.668 442.032 298.929C442.816 299.06 443.6 299.191 444.384 299.452L445.559 299.713C444.776 299.452 446.082 299.844 445.559 299.713L446.343 299.844C447.911 300.236 449.347 300.758 450.784 301.411C451.568 301.673 452.221 302.064 453.005 302.326L453.919 302.718L454.572 302.979C455.095 303.24 454.181 302.718 454.703 303.109C466.459 309.51 474.819 320.091 480.959 331.716C488.274 345.301 493.107 360.585 496.764 375.345C500.422 390.759 503.296 406.304 505.255 421.979C506.953 434.257 508.129 446.667 509.696 458.946C509.958 461.036 510.219 463.126 510.611 465.216C511.133 468.612 517.665 468.089 517.142 464.693C515.444 453.59 514.399 442.356 513.093 431.122C511.133 415.578 508.913 400.164 505.778 384.881C502.381 368.945 498.071 353.008 491.409 338.117C485.531 325.055 477.693 312.253 466.198 303.371C454.703 294.749 440.204 291.223 426.096 293.443C408.07 296.056 390.958 304.808 377.503 316.956C364.441 328.843 354.905 343.865 347.982 359.932C341.451 375.476 336.879 391.674 334.266 408.263C332.046 422.24 330.609 436.217 330.348 450.324C330.217 457.639 330.217 465.085 330.609 472.531L330.74 473.576C331.131 477.233 337.663 476.711 337.401 473.184Z" fill="#262626"/>
<path d="M503.818 301.934C503.818 301.934 361.045 331.455 328.258 298.537C328.258 298.537 339.1 191.947 359.347 175.619C395.399 146.359 460.712 161.381 472.991 187.245C497.94 240.017 503.818 301.934 503.818 301.934Z" fill="white"/>
<path d="M501.86 299.713C497.157 300.758 492.324 301.542 487.491 302.326C475.734 304.416 463.978 306.114 452.222 307.551C437.2 309.379 422.047 310.816 406.895 311.469C392.134 312.253 377.243 311.731 362.613 309.902C356.473 309.118 350.465 307.681 344.586 305.853C344.064 305.722 345.109 305.983 344.586 305.853L344.064 305.722L343.019 305.33C342.366 305.069 341.713 304.808 341.06 304.546C339.884 304.024 338.708 303.501 337.533 302.979C337.271 302.848 336.618 302.456 337.271 302.848L336.488 302.456C335.965 302.195 335.312 301.803 334.79 301.411C334.267 301.019 333.745 300.758 333.353 300.366L332.7 299.974C333.483 300.628 332.569 299.844 332.308 299.713C331.393 299.06 330.61 298.276 329.826 297.493L331.001 299.844C331.524 295.403 332.046 290.831 332.569 286.389C333.875 275.809 335.443 265.228 337.141 254.778C339.231 242.238 341.582 229.698 344.717 217.289C347.33 206.838 350.203 196.258 355.167 186.722C356.082 184.893 357.127 183.195 358.172 181.628C358.694 180.975 359.217 180.322 359.739 179.668C360.131 179.146 360.653 178.623 361.176 178.232C366.793 173.529 373.324 169.871 380.247 167.39C401.67 160.075 424.921 160.597 445.952 168.565C448.826 169.741 451.699 171.047 454.573 172.484C456.01 173.268 457.316 174.051 458.622 174.966L460.321 176.142C460.451 176.272 461.104 176.664 460.713 176.403L461.757 177.187C462.933 178.101 463.978 179.015 465.023 180.06C465.154 180.191 465.676 180.713 465.284 180.322L465.938 181.105C466.46 181.628 466.852 182.15 467.244 182.673C468.942 184.893 470.379 187.375 471.424 189.988C475.734 199.393 479.523 209.059 482.788 218.856C488.405 235.968 492.977 253.472 496.243 271.106C498.071 280.772 499.639 290.439 500.684 300.236C500.684 300.758 500.814 301.15 500.814 301.673C501.076 304.024 506.954 306.375 506.562 303.109C504.864 286.52 501.99 270.192 497.941 253.994C494.414 238.58 489.842 223.559 484.356 208.667C481.743 201.091 478.608 193.645 474.951 186.461C472.73 182.542 469.856 179.015 466.329 176.142C457.839 168.826 447.258 164.255 436.547 161.381C424.529 158.115 411.859 156.94 399.449 157.985C386.909 158.899 374.63 162.556 363.788 168.957C360 171.047 356.604 173.79 353.73 177.056C351.771 179.668 350.073 182.412 348.766 185.416C345.109 193.515 342.235 202.005 340.145 210.627C337.533 220.554 335.443 230.743 333.483 240.932C330.479 257.521 327.997 274.241 326.038 290.961C325.776 292.79 325.646 294.488 325.385 296.317C325.385 296.709 325.254 296.97 325.254 297.362C325.254 299.06 326.952 300.236 328.128 301.281C334.006 306.375 341.451 309.379 348.897 311.469C357.78 313.821 366.793 315.258 375.937 315.911C386.387 316.694 396.837 316.825 407.156 316.433C427.534 315.649 447.781 313.69 468.028 310.686C480.045 308.988 491.932 307.028 503.819 304.677L505.517 304.416C506.954 304.154 506.562 302.456 505.909 301.673C504.995 300.105 503.427 299.452 501.86 299.713Z" fill="#262626"/>
<path d="M470.378 225.126C452.744 219.378 433.411 212.455 420.741 198.217C417.475 194.56 414.862 190.51 413.034 185.938C412.25 184.11 406.11 185.155 406.502 186.33C413.556 203.703 431.06 213.762 447.649 220.554C453.658 223.036 459.798 225.126 465.937 227.216C467.504 227.738 469.072 227.608 470.509 226.955C471.554 226.302 471.554 225.518 470.378 225.126Z" fill="#262626"/>
<path d="M476.649 215.852C460.059 205.532 442.033 194.298 433.02 176.272C431.583 173.529 425.574 175.75 427.142 178.885C436.547 197.825 455.487 209.451 472.86 220.293C475.604 221.86 480.045 217.942 476.649 215.852Z" fill="#262626"/>
<path d="M347.72 286.389C327.996 263.53 360.26 199.131 360.26 199.131C372.016 197.564 391.871 187.636 391.871 187.636C384.034 222.775 425.181 234.923 425.181 234.923C434.716 216.113 456.792 224.212 454.441 242.891C452.09 261.57 434.063 262.615 434.063 262.615C434.063 262.615 440.987 309.379 438.896 316.825C438.896 316.825 407.416 336.549 389.52 308.596C389.52 308.465 361.044 301.803 347.72 286.389Z" fill="white"/>
<path d="M350.726 285.344C346.677 280.642 345.109 274.502 344.717 268.494C344.325 261.179 344.978 253.864 346.677 246.81C349.681 233.355 353.992 220.162 359.739 207.492C360 206.838 360.262 206.316 360.523 205.663L360.784 204.879L360.915 204.487V204.357L362.09 201.875C362.482 201.091 362.743 200.438 363.135 199.785L360.523 201.222C367.838 200.177 374.892 197.433 381.554 194.69C385.603 192.992 389.783 191.163 393.702 189.204L388.607 187.506C385.603 199.132 388.738 211.41 396.837 220.162C402.715 226.563 410.03 231.657 418.129 234.792C419.957 235.576 421.917 236.36 423.876 236.882C425.182 237.274 427.534 236.752 428.187 235.445C429.493 232.702 431.452 230.22 433.934 228.392C434.457 228 434.849 227.739 435.371 227.477C435.763 227.216 436.286 226.955 436.808 226.824C437.722 226.432 438.637 226.302 439.551 226.302C440.466 226.302 441.38 226.432 442.294 226.563C443.339 226.824 444.384 227.347 445.168 227.869C446.997 229.045 448.564 230.743 449.609 232.702C452.353 237.797 451.83 244.459 449.479 249.553C447.65 253.602 444.254 256.999 440.204 258.827C439.421 259.219 440.857 258.566 440.074 258.958L439.421 259.219C438.898 259.35 438.376 259.611 437.853 259.742C437.331 259.872 437.069 260.003 436.677 260.134C436.286 260.264 435.763 260.395 436.808 260.134L436.155 260.264C435.371 260.395 434.718 260.525 433.934 260.525C432.759 260.656 430.799 261.701 431.061 263.138C433.281 277.768 435.241 292.529 436.155 307.289C436.286 309.249 436.286 311.339 436.286 313.298V314.474C436.286 313.951 436.286 314.996 436.286 315.127C436.286 315.649 436.155 316.172 436.024 316.694L437.331 315.258C436.547 315.78 435.632 316.172 434.849 316.564C434.457 316.825 434.065 316.956 433.542 317.217L432.497 317.478C431.714 317.87 432.759 317.348 432.106 317.609C430.799 318.131 429.624 318.654 428.317 319.046C427.664 319.307 426.881 319.568 426.227 319.699L425.052 319.96L424.007 320.221L423.092 320.352L421.917 320.613C421.002 320.744 420.088 320.874 419.304 321.005L417.998 321.136H417.345H417.214C416.3 321.136 415.386 321.136 414.471 321.136C412.773 321.136 411.075 320.874 409.377 320.352C405.589 319.307 402.062 317.478 399.057 314.866C397.229 313.298 395.53 311.469 394.224 309.51C393.179 308.073 392.526 306.636 390.828 306.114C385.734 304.807 380.77 303.109 375.806 301.15C366.532 297.362 357.127 292.398 350.465 284.691C348.636 282.601 342.888 284.952 345.24 287.696C350.726 293.966 358.172 298.537 365.617 302.195C371.757 305.199 378.027 307.681 384.558 309.51C385.864 309.902 387.04 310.294 388.346 310.555L386.648 309.51C389.914 314.735 394.355 319.046 399.841 322.05C404.413 324.401 409.507 325.708 414.602 325.708C422.701 325.708 430.669 323.748 437.853 319.96C439.29 319.176 441.772 318.262 442.164 316.564C442.947 313.951 442.556 310.686 442.425 307.943C442.033 298.929 440.988 289.916 439.812 280.903C439.029 274.633 438.245 268.363 437.2 262.093L434.326 264.706C442.817 264.183 451.569 258.697 455.226 250.99C458.231 244.72 459.014 236.882 455.618 230.743C452.614 225.387 447.127 221.991 440.988 221.86C432.759 221.599 425.836 226.955 422.178 234.009L426.489 232.572C426.097 232.441 425.836 232.31 425.444 232.18L424.791 231.919L423.092 231.265C419.957 229.959 416.822 228.522 413.949 226.693C406.503 222.252 399.188 215.329 395.922 206.577C393.702 200.438 393.44 193.776 395.008 187.375C395.661 184.632 391.35 184.893 389.914 185.677C381.945 189.726 373.585 193.123 364.964 195.605C363.658 195.997 362.874 196.127 361.568 196.388C360 196.65 358.172 196.65 357.127 198.087C356.996 198.348 356.735 198.74 356.604 199.001C355.559 201.091 354.645 203.181 353.73 205.402C350.334 213.108 347.33 220.815 344.717 228.784C341.321 238.45 339.231 248.639 338.186 258.827C337.402 268.363 337.925 279.336 344.456 287.042C345.501 288.218 347.199 288.61 348.636 287.957C349.681 288.087 351.771 286.651 350.726 285.344Z" fill="#262626"/>
<path d="M410.814 259.742C410.814 259.742 414.994 279.336 400.625 274.241L410.814 259.742Z" fill="white"/>
<path d="M408.463 260.395C408.594 260.917 408.724 261.57 408.724 262.223C408.724 262.877 408.855 263.53 408.855 264.183C408.855 264.313 408.855 264.313 408.855 264.444C408.855 264.575 408.855 264.052 408.855 264.313C408.855 264.575 408.855 264.705 408.855 264.836C408.855 265.228 408.855 265.62 408.855 266.012C408.855 267.579 408.594 269.277 408.202 270.845C408.071 271.237 408.202 270.975 408.202 270.845L408.071 271.106C408.071 271.237 407.941 271.367 407.941 271.498C407.81 271.89 407.549 272.151 407.287 272.543C407.026 272.935 407.418 272.412 407.418 272.412C407.418 272.543 407.287 272.543 407.287 272.673L406.895 273.065C406.634 273.457 407.287 272.804 406.765 273.196L406.504 273.327C406.373 273.457 406.112 273.457 406.634 273.196C406.504 273.196 406.504 273.327 406.373 273.327C406.112 273.457 405.72 273.457 406.504 273.327C406.242 273.327 405.981 273.457 405.85 273.457C406.504 273.196 406.373 273.327 406.112 273.327L405.72 273.457C405.72 273.457 405.459 273.457 405.328 273.457C405.72 273.457 405.85 273.457 405.589 273.457H405.328C405.067 273.457 404.675 273.457 404.414 273.457C404.414 273.457 404.936 273.588 404.544 273.457L404.022 273.327C403.238 273.196 402.454 272.935 401.801 272.673C400.625 272.412 399.319 272.804 398.535 273.718C397.752 274.502 398.144 275.286 399.058 275.678C401.67 276.723 404.544 276.853 407.157 276.07C409.377 275.417 411.206 273.98 412.251 271.89C413.819 268.755 413.819 264.967 413.427 261.44C413.296 260.656 413.166 259.742 413.035 258.958C412.774 257.913 411.076 258.043 410.292 258.305C409.508 258.566 408.071 259.35 408.463 260.395Z" fill="#262626"/>
<path d="M370.318 235.968C363.395 240.801 355.819 244.458 347.851 247.071C321.073 256.345 319.505 266.403 328.91 270.322C338.315 274.241 375.152 263.791 375.152 263.791" fill="white"/>
<path d="M368.361 233.355C360.915 238.972 351.902 242.238 343.281 245.373C337.664 247.332 332.308 250.075 327.475 253.472C324.601 255.562 321.727 258.305 320.944 261.962C319.507 268.624 326.691 273.196 332.439 273.98C336.358 274.372 340.146 274.241 344.064 273.588C348.636 273.065 353.078 272.282 357.519 271.237C363.919 269.93 370.19 268.363 376.46 266.665C380.117 265.62 376.982 260.134 373.978 261.048C369.275 262.354 364.573 263.53 359.87 264.575C355.69 265.489 351.51 266.404 347.199 267.057C343.411 267.71 339.493 268.232 335.574 268.363C334.006 268.363 332.439 268.363 330.871 268.102C330.088 267.971 331.132 268.232 330.479 268.102L329.696 267.84C329.565 267.84 328.781 267.449 329.565 267.84C329.173 267.71 328.912 267.579 328.52 267.318C328.259 267.187 327.997 266.926 327.736 266.795C327.997 266.926 328.128 267.187 327.606 266.665C327.475 266.534 327.214 266.273 327.083 266.142C327.867 266.795 327.214 266.273 326.952 266.012C326.43 265.489 327.083 266.404 326.952 266.012C326.822 265.62 326.691 264.967 326.822 265.881C326.822 265.62 326.691 265.489 326.691 265.228C326.561 264.836 326.691 265.359 326.691 265.489C326.691 265.359 326.691 265.097 326.691 264.967C326.691 264.705 326.691 264.444 326.822 264.314C326.691 264.705 326.952 263.791 326.822 264.314C326.822 264.183 326.952 264.052 326.952 263.791C326.952 263.53 327.214 263.269 327.214 263.007C327.214 262.746 327.344 262.746 327.344 262.615C327.606 261.962 327.083 263.007 327.475 262.485C328.389 261.179 329.565 259.872 330.871 258.958C335.051 255.823 339.754 253.341 344.587 251.643C353.992 247.855 363.919 244.85 372.149 238.58C373.324 237.666 373.455 236.098 372.671 234.923L372.541 234.792C371.888 233.878 369.667 232.441 368.361 233.355Z" fill="#262626"/>
<path d="M358.041 225.779C358.041 225.779 353.6 226.302 354.384 230.482C355.168 234.662 360.393 233.617 360.784 229.828C361.176 228.13 360.131 226.302 358.433 225.91C358.302 225.91 358.172 225.779 358.041 225.779Z" fill="#262626"/>
<path d="M450.523 269.147C452.221 281.426 454.442 293.574 457.185 305.722C457.838 308.334 463.455 305.33 463.063 303.109C460.451 290.961 458.23 278.813 456.401 266.534C455.879 263.922 450.131 266.796 450.523 269.147Z" fill="#262626"/>
<path d="M476.258 280.38L488.145 297.623C488.537 298.276 489.974 299.974 490.888 298.799C491.802 297.623 490.757 295.664 490.104 294.749L478.217 277.507C477.825 276.853 476.388 275.155 475.474 276.331C474.56 277.507 475.605 279.466 476.258 280.38Z" fill="#262626"/>
<path d="M482.527 248.769L482.135 248.9C481.874 248.9 483.05 248.769 482.527 248.769C482.135 248.9 481.743 248.9 481.351 248.9C480.96 248.9 480.437 248.9 480.045 248.9H478.87C478.347 248.9 476.91 248.769 475.996 248.639C474.82 248.508 473.514 248.377 472.338 248.116C467.375 247.332 462.672 245.765 458.1 243.544C455.226 241.977 450.916 246.157 454.573 248.116C459.537 250.729 465.023 252.427 470.64 253.21C474.82 253.994 479.523 254.647 483.703 253.602C485.009 253.21 486.577 251.904 486.185 250.337C485.793 248.769 483.964 248.377 482.527 248.769Z" fill="#262626"/>
<path d="M385.209 233.355L393.178 234.662C393.7 234.792 393.961 234.139 394.092 233.747C394.223 233.094 394.092 232.31 393.831 231.657C393.439 230.22 392.263 229.175 390.826 228.783L382.858 227.608C382.336 227.477 382.074 228.13 381.944 228.522C381.813 229.175 381.944 229.959 382.205 230.612C382.728 231.918 383.773 232.963 385.209 233.355Z" fill="#262626"/>
<path d="M302.917 332.108C302.917 332.108 308.534 530.659 304.093 535.884C299.651 541.109 287.764 543.068 288.679 529.353C289.593 515.637 295.994 333.153 295.994 333.153L302.917 332.108Z" fill="#262626"/>
<path d="M300.303 331.324C300.434 337.856 300.695 344.518 300.826 351.049C301.218 366.985 301.609 382.921 302.001 398.727C302.393 418.06 302.785 437.392 303.046 456.725C303.308 473.706 303.438 490.165 303.177 507.277C303.046 516.029 303.308 525.042 301.871 533.663C302.001 533.141 302.132 533.141 301.871 533.533L301.74 533.663C301.74 533.794 298.997 535.623 302.001 533.271C301.871 533.402 301.609 533.663 301.479 533.794C300.173 535.1 298.605 536.014 296.776 536.406C295.993 536.668 295.209 536.668 294.294 536.668C293.641 536.668 294.164 536.668 293.511 536.537C293.38 536.537 292.596 536.276 293.249 536.537C292.988 536.406 292.858 536.406 292.596 536.276C293.249 536.668 292.596 536.276 292.466 536.145C291.813 535.492 292.988 536.668 292.335 536.014C292.204 535.753 292.074 535.492 291.943 535.231C292.204 535.623 291.682 534.447 291.682 534.186C291.551 533.402 291.421 532.618 291.421 531.834C291.29 528.308 291.682 524.781 291.943 521.254C292.596 507.016 293.119 492.777 293.641 478.539C294.425 458.945 295.078 439.482 295.731 419.888C296.384 401.732 297.038 383.575 297.691 365.548L298.736 335.374V333.937L297.168 335.374L304.091 334.459C307.749 333.937 304.744 328.451 302.001 328.712L295.078 329.626C294.294 329.757 293.38 330.149 293.38 331.063C293.119 338.378 292.858 345.693 292.596 353.008L290.768 404.736C290.114 424.722 289.331 444.707 288.547 464.824C287.894 480.891 287.371 496.827 286.718 512.894C286.588 517.204 286.326 521.384 286.196 525.695C286.065 528.961 285.804 532.096 286.979 535.1C288.808 540.064 293.903 542.938 299.128 541.893C301.871 541.37 305.659 539.672 306.965 537.059C307.357 535.884 307.618 534.708 307.749 533.533C308.271 529.222 308.402 524.911 308.402 520.601C308.794 505.056 308.663 489.512 308.533 474.098C308.402 454.504 308.01 434.91 307.749 415.317C307.357 397.682 306.965 380.048 306.573 362.413C306.312 352.878 306.051 343.211 305.789 333.676V332.369C305.528 329.888 300.173 327.406 300.303 331.324Z" fill="#262626"/>
<path d="M450.654 463.909C450.654 463.909 421.133 300.366 472.599 316.694C524.066 333.023 558.42 545.942 496.634 552.996C434.849 560.05 289.985 480.76 275.877 457.378C261.77 433.996 269.216 430.6 269.216 430.6C269.216 430.6 257.329 411.006 269.738 405.128C269.738 405.128 266.211 390.367 271.044 383.444C275.877 376.521 290.508 376.651 290.508 376.651L291.161 399.38C291.161 399.38 298.476 405.781 304.746 394.808C304.746 394.808 305.399 373.125 307.358 367.769C309.318 362.413 325.515 351.441 323.686 372.21C321.858 392.98 346.415 414.533 347.068 436.87C347.068 436.87 439.812 464.301 450.654 463.909Z" fill="white"/>
<path d="M453.789 464.04C453.136 460.121 452.483 456.202 451.83 452.283C450.393 442.487 449.087 432.69 448.172 422.893C446.866 410.483 445.952 397.943 445.56 385.403C445.037 373.255 445.56 361.237 447.127 349.22C447.78 344.126 448.825 339.162 450.262 334.329C450.654 333.284 450.915 332.239 451.438 331.194C451.569 330.671 451.83 330.149 452.091 329.757L452.352 329.104L452.483 328.712C452.744 328.059 452.222 329.104 452.614 328.581C453.397 326.883 454.442 325.185 455.618 323.617C456.14 322.964 456.794 322.311 457.447 321.658C457.447 321.658 457.969 321.135 457.708 321.397C457.447 321.658 457.969 321.135 457.969 321.135C458.23 320.874 458.622 320.613 459.014 320.352C459.667 319.829 460.32 319.437 461.104 319.045C461.365 318.915 460.582 319.307 461.235 319.045L461.757 318.784C462.149 318.654 462.541 318.523 462.933 318.262C463.325 318 464.37 317.87 463.455 318.131C463.847 318 464.37 318 464.762 317.87C465.154 317.739 465.545 317.739 466.068 317.739H466.852C467.374 317.739 467.766 317.739 468.289 317.87L468.942 318C469.595 318 468.289 317.87 469.072 318C470.117 318.262 471.162 318.523 472.207 318.784C472.338 318.784 473.122 319.045 472.469 318.915C471.815 318.784 472.469 318.915 472.599 319.045C472.991 319.176 473.514 319.437 473.906 319.568C474.689 319.96 475.473 320.352 476.257 320.744C475.342 320.221 476.518 320.874 476.91 321.135L478.085 321.919C478.869 322.442 479.653 323.095 480.437 323.748L481.482 324.662C480.829 324.14 481.482 324.662 481.612 324.793L482.266 325.446C483.049 326.23 483.833 326.883 484.486 327.797C486.054 329.496 487.491 331.324 488.927 333.153L489.842 334.459C490.364 335.243 490.364 335.112 490.756 335.766C491.409 336.811 492.193 337.856 492.846 338.901C494.283 341.252 495.589 343.603 496.896 345.954C499.769 351.179 502.251 356.666 504.472 362.152C509.436 374.561 513.616 387.363 516.62 400.425C520.016 414.402 522.629 428.64 524.196 443.009C525.894 456.725 526.548 470.702 526.156 484.548C526.025 496.435 524.327 508.322 521.453 519.817C518.971 528.699 515.706 537.059 509.174 543.721L508.652 544.244C508.26 544.636 508.913 543.982 508.521 544.374L507.346 545.419C506.692 546.072 505.909 546.595 505.125 547.117C504.341 547.64 503.557 548.162 502.643 548.554L502.512 548.685L501.99 548.946C501.467 549.208 501.076 549.338 500.553 549.599C499.639 549.861 498.724 550.252 497.941 550.383C497.549 550.514 498.594 550.252 497.81 550.383L497.157 550.514C496.634 550.644 496.242 550.644 495.72 550.775C494.414 550.906 493.107 551.036 491.671 551.167H490.626H489.842H487.882C484.878 551.167 481.874 551.036 478.869 550.775C477.171 550.644 475.604 550.514 473.906 550.253L471.424 550.122L470.379 549.991L469.334 549.861C462.019 548.685 454.834 547.117 447.78 545.158C431.844 540.847 416.169 535.361 400.886 529.091C384.819 522.56 369.013 515.245 353.599 507.277C339.623 500.092 326.299 492.777 313.106 484.548C303.309 478.67 294.034 472.008 285.282 464.693L285.152 464.562L284.629 464.04L283.584 462.995C282.931 462.342 282.278 461.688 281.625 461.035C281.102 460.382 280.58 459.86 280.057 459.207L279.404 458.423C279.274 458.292 279.274 458.162 279.143 458.031C278.882 457.639 279.535 458.553 279.143 458.031C276.661 453.982 274.44 449.802 272.612 445.491C271.305 442.617 270.522 439.613 270.391 436.478V435.694C270.391 435.302 270.391 436.086 270.391 435.433C270.391 435.041 270.522 434.649 270.522 434.257C270.652 433.996 270.652 433.735 270.783 433.473C270.914 433.212 270.522 433.865 270.783 433.604C270.783 433.473 270.914 433.473 270.914 433.343C271.044 433.212 271.175 433.081 271.305 432.82C271.567 432.298 270.914 433.081 271.175 432.951C271.436 432.82 271.436 432.82 270.914 433.081C271.828 432.69 272.742 431.775 272.089 430.6C268.562 424.852 262.945 411.659 271.436 407.61C272.089 407.218 273.004 406.695 272.742 405.781C271.436 400.686 271.175 395.461 271.959 390.236C272.35 387.101 274.179 384.228 276.792 382.399C279.404 380.962 282.409 379.917 285.413 379.656C286.719 379.394 288.156 379.264 289.462 379.264H290.246C289.201 379.264 290.115 379.264 290.115 379.264C290.246 379.264 290.377 379.264 290.638 379.264L287.242 376.782L287.634 388.277L287.895 395.984C287.764 397.29 287.895 398.596 288.156 399.772C288.679 401.601 291.552 402.646 293.12 403.168C296.124 404.213 299.39 403.952 302.133 402.385C304.484 401.078 307.881 397.943 308.011 395.069C308.011 393.371 308.142 391.673 308.272 389.975C308.403 383.966 309.056 377.958 309.84 371.949C309.971 371.034 310.232 369.989 310.493 369.075C310.493 368.944 310.754 368.422 310.624 368.814C310.493 369.206 310.754 368.683 310.754 368.553C311.016 368.161 311.146 367.899 311.407 367.508C312.452 366.071 313.759 364.895 315.326 363.981C315.457 363.85 316.632 363.328 316.241 363.458C316.763 363.197 317.155 363.066 317.677 362.936C317.939 362.805 318.069 362.805 318.331 362.805C317.808 362.936 318.069 362.805 318.461 362.805L319.114 362.674C318.331 362.544 319.637 362.674 319.114 362.674C319.898 362.805 318.853 362.544 318.984 362.674C318.722 362.544 319.506 362.936 318.984 362.674C319.506 362.805 318.853 362.413 319.114 362.805C319.114 362.805 319.506 363.327 319.376 363.066C319.245 362.805 319.506 363.328 319.637 363.458C319.898 363.981 320.029 364.372 320.159 364.895C321.074 368.422 320.29 371.949 320.29 375.606C320.551 379.394 321.335 383.183 322.641 386.709C327.997 402.123 340.014 415.055 343.149 431.383C343.541 433.212 343.672 435.172 343.803 437.131C343.803 438.437 345.501 439.221 346.415 439.482C357.257 442.617 367.968 445.752 378.81 448.887C396.836 453.982 414.993 459.207 433.281 463.517C436.808 464.301 440.335 465.215 443.992 465.868C446.474 466.391 449.087 466.652 451.569 466.652C452.614 466.652 453.528 465.868 453.528 464.823C453.528 464.562 453.528 464.301 453.397 464.04C452.744 462.472 450.785 462.08 449.217 462.211C450.654 462.211 449.348 462.211 448.956 462.211L447.65 462.08L446.344 461.95C445.69 461.819 447.258 462.08 446.605 461.95H446.213L445.168 461.819C442.033 461.297 439.029 460.513 436.024 459.86C427.533 457.9 419.173 455.68 410.813 453.459C393.44 448.757 376.067 443.793 358.824 438.829L347.46 435.433L350.073 437.784C349.681 425.897 343.28 415.055 337.533 404.866C332.307 395.592 325.907 385.142 326.56 374.169C326.821 369.859 327.344 364.634 324.078 361.237C321.466 358.494 317.286 358.102 313.889 359.147C311.016 360.192 308.403 361.891 306.313 364.242C304.484 366.332 303.439 368.944 303.178 371.557C302.133 379.394 301.611 387.363 301.48 395.2L301.741 394.024C300.827 395.984 299.259 397.682 297.561 398.858C297.3 398.988 296.255 399.38 296.516 399.38C296.386 399.38 295.21 399.511 295.863 399.511C295.602 399.511 295.34 399.511 295.079 399.511C294.295 399.511 295.732 399.641 294.949 399.511C294.818 399.511 293.904 399.25 294.426 399.38C294.949 399.511 293.773 399.119 293.642 398.988C294.557 399.38 293.381 398.858 293.12 398.596L294.296 400.164L293.642 377.435C293.642 375.998 291.291 374.953 290.115 374.953C284.499 374.692 278.882 375.868 273.787 378.088C270.26 379.656 267.517 382.66 266.211 386.318C265.166 390.106 264.774 394.155 265.297 398.074C265.427 400.556 265.819 403.038 266.472 405.52L267.779 403.691C264.644 404.997 262.292 407.61 261.247 410.875C260.464 413.88 260.594 417.015 261.378 420.019C262.292 424.068 263.99 427.987 266.08 431.645L267.256 429.163C264.774 430.338 263.99 433.081 263.99 435.563C264.121 438.698 264.644 441.703 265.819 444.577C267.648 449.54 269.999 454.243 272.873 458.684C274.832 461.558 277.184 464.17 279.796 466.522C283.715 469.918 287.764 473.184 291.944 476.188C303.439 484.287 315.326 491.863 327.605 498.655C342.496 507.146 357.649 514.853 373.063 522.037C389.26 529.614 405.85 536.406 422.7 542.284C437.592 547.64 452.875 551.689 468.55 554.433C475.081 555.608 481.743 556.131 488.536 556.261C493.63 556.261 498.986 556.131 503.949 554.302C512.048 551.428 518.057 544.766 521.976 537.321C527.07 527.785 529.552 516.943 530.989 506.362C532.687 493.039 533.209 479.584 532.426 466.13C531.773 451.5 530.074 436.87 527.462 422.501C524.98 408.263 521.453 394.286 517.142 380.57C513.354 368.291 508.521 356.404 502.512 345.171C497.679 336.288 491.801 327.667 483.964 321.266C477.302 315.91 468.158 312.384 459.537 314.735C451.569 316.955 446.997 324.662 444.384 331.977C440.596 342.427 439.682 353.792 439.159 364.764C438.637 377.696 438.898 390.628 439.943 403.56C440.727 415.447 442.033 427.334 443.6 439.09C444.645 446.536 445.69 453.982 446.866 461.297C446.997 462.342 447.258 463.387 447.389 464.301C447.911 466.391 454.312 467.175 453.789 464.04Z" fill="#262626"/>
<path d="M279.665 418.582L273.657 405.65L272.873 403.822C272.612 403.299 269.999 404.475 269.607 404.605C269.215 404.736 266.603 405.912 266.864 406.434L272.873 419.366L273.657 421.195C273.918 421.717 276.53 420.542 276.922 420.411C277.314 420.28 279.927 419.105 279.665 418.582Z" fill="#262626"/>
<path d="M274.702 440.005L270.914 432.037L270.391 430.861C269.999 430.077 269.607 429.294 269.215 428.641C268.954 428.379 268.432 427.595 268.04 427.595C266.995 427.334 268.04 429.947 268.17 430.077L271.959 438.176L272.481 439.352C272.873 440.136 273.265 440.919 273.657 441.572C273.918 441.834 274.44 442.617 274.832 442.617C275.747 442.748 274.832 440.266 274.702 440.005Z" fill="#262626"/>
<path d="M306.933 333.919C348.091 330.947 377.961 280.123 373.648 220.401C369.336 160.678 332.475 114.673 291.316 117.645C250.158 120.617 220.289 171.441 224.601 231.163C228.914 290.886 265.775 336.891 306.933 333.919Z" fill="white"/>
<path d="M222.582 259.872C227.937 280.642 237.473 300.366 252.495 315.911C264.904 328.842 281.363 337.594 299.39 338.639C317.808 339.684 335.703 331.455 348.635 318.654C362.874 304.677 371.756 285.736 376.328 266.534C381.553 244.72 381.814 222.122 377.504 200.176C373.324 179.146 364.833 158.115 350.856 141.656C339.23 127.941 323.817 116.968 305.79 114.094C287.111 111.09 268.823 117.229 254.324 129.116C239.171 141.395 229.505 159.552 223.888 177.97C217.618 199.262 216.051 221.599 219.316 243.544C220.1 248.9 221.276 254.386 222.582 259.872C223.366 262.877 227.284 263.53 229.897 262.877C232.248 262.354 236.298 260.395 235.383 257.26C229.897 236.49 228.982 214.676 232.771 193.515C233.685 188.551 234.861 183.718 236.167 178.884C236.82 176.533 237.604 174.182 238.518 171.831L239.041 170.263C238.779 171.047 239.302 169.479 239.433 169.218C239.824 168.043 240.347 166.998 240.869 165.822C242.698 161.511 244.919 157.331 247.27 153.282C248.446 151.323 249.752 149.363 251.058 147.534C251.581 146.751 252.234 145.967 252.756 145.183C253.279 144.399 252.756 145.183 252.626 145.314L253.148 144.661C253.54 144.138 253.932 143.616 254.324 143.224C257.067 139.958 260.071 136.823 263.206 134.08L264.382 133.035C264.643 132.774 264.904 132.382 264.121 133.166C264.251 133.035 264.513 132.774 264.774 132.643C265.558 131.99 266.472 131.337 267.256 130.814C268.954 129.639 270.652 128.463 272.481 127.549L273.656 126.896C274.31 126.504 272.481 127.418 273.265 127.026L273.918 126.634C274.963 126.112 275.877 125.72 276.922 125.328C277.967 124.936 278.62 124.675 279.404 124.414L280.841 123.891C281.102 123.761 282.931 123.238 281.755 123.63C280.58 124.022 282.278 123.499 282.539 123.369L283.845 123.107C284.89 122.846 285.805 122.716 286.85 122.454C287.895 122.193 288.678 122.193 289.593 122.062C287.895 122.193 290.507 121.932 289.593 122.062L291.03 121.932C292.989 121.801 294.818 121.801 296.777 121.932C298.345 122.062 295.993 121.801 296.908 121.932L298.214 122.062C299.259 122.193 300.173 122.324 301.218 122.454C302.133 122.585 303.047 122.716 303.831 122.977C304.745 123.369 305.79 123.63 306.835 123.761C306.835 123.761 305.66 123.369 306.313 123.63L306.966 123.891L308.403 124.414C309.317 124.675 310.232 125.067 311.146 125.459C312.975 126.242 314.803 127.026 316.632 127.941L317.808 128.594C318.2 128.855 319.245 129.377 318.33 128.855C319.245 129.377 320.159 129.9 320.943 130.422C324.47 132.774 327.866 135.256 331.001 138.129C332.699 139.566 334.267 141.134 335.703 142.832C335.05 142.179 335.965 143.093 336.095 143.354C336.487 143.746 336.879 144.138 337.271 144.661C338.055 145.575 338.708 146.359 339.492 147.273C342.496 150.931 345.239 154.719 347.721 158.768C353.077 167.389 357.387 176.794 360.392 186.461C363.788 197.041 365.878 208.014 366.923 219.117C367.837 229.567 367.707 240.017 366.4 250.337C365.225 260.395 362.874 270.322 359.477 279.858L359.216 280.772C359.216 280.903 358.824 281.817 359.085 281.295C359.216 281.034 358.694 282.209 358.694 282.47C358.171 283.646 357.779 284.822 357.257 285.997C356.342 288.218 355.297 290.308 354.252 292.398C352.162 296.447 349.811 300.366 347.199 304.024C346.545 304.938 345.892 305.722 345.37 306.636C344.978 307.289 345.892 305.983 345.37 306.506L344.978 307.028C344.586 307.551 344.194 307.942 343.802 308.465C342.496 310.032 341.059 311.6 339.622 313.167C338.185 314.735 336.618 316.172 334.92 317.609L333.744 318.654C333.222 319.046 334.136 318.392 334.136 318.392C334.005 318.523 333.744 318.784 333.483 318.915C332.568 319.568 331.654 320.221 330.74 320.874C329.042 322.05 327.343 323.095 325.645 324.009C325.123 324.14 324.731 324.401 324.339 324.793C324.339 324.793 325.645 324.14 324.731 324.532L324.078 324.924C323.163 325.316 322.249 325.838 321.204 326.23C320.159 326.622 319.375 326.883 318.592 327.275L317.155 327.797C316.632 327.928 314.803 328.451 316.893 327.928C314.934 328.32 313.105 328.973 311.146 329.234C310.362 329.365 309.448 329.496 308.664 329.626C307.619 329.757 309.317 329.626 309.317 329.626C309.056 329.626 308.795 329.626 308.664 329.626L307.096 329.757C305.137 329.887 303.308 329.887 301.349 329.757C300.043 329.757 302.394 329.887 301.349 329.757L299.912 329.626C298.998 329.496 297.953 329.365 297.038 329.234C296.124 329.104 295.079 328.842 294.165 328.712C293.25 328.32 292.336 328.059 291.421 328.059C291.552 328.059 292.728 328.451 291.813 328.189L291.16 327.928L289.985 327.536C288.94 327.144 288.025 326.883 287.111 326.491C285.282 325.707 283.453 324.924 281.755 324.009L280.58 323.356L279.926 322.964C279.273 322.703 280.71 323.487 280.057 323.095C279.143 322.572 278.228 322.05 277.445 321.527C275.746 320.352 274.048 319.176 272.35 317.87C268.954 315.257 265.688 312.384 262.814 309.249C263.468 309.902 262.292 308.726 262.161 308.596C261.9 308.204 261.508 307.812 261.116 307.42C260.333 306.506 259.549 305.591 258.765 304.677C257.328 302.848 255.891 301.019 254.454 299.06C251.711 295.141 249.099 290.961 246.878 286.65C245.703 284.43 244.658 282.209 243.613 279.858C242.437 277.245 241.784 275.809 240.869 273.196C238.91 268.102 237.343 263.007 236.036 257.782C235.253 254.778 231.334 254.125 228.721 254.778C225.847 254.778 221.798 256.737 222.582 259.872Z" fill="#F5EE30"/>
<path d="M274.57 199.393C274.57 199.393 258.503 194.69 255.368 210.496C252.233 226.302 271.696 230.22 278.75 217.55C285.804 204.879 274.57 199.393 274.57 199.393Z" fill="#262626"/>
<path d="M339.754 200.568C341.975 211.671 342.366 223.036 340.93 234.27C340.538 237.013 343.15 237.405 345.371 236.752C347.591 236.098 351.772 233.617 352.163 230.743C353.862 218.856 353.6 206.838 351.249 195.082C350.726 192.339 346.938 193.384 345.24 194.298C343.673 195.082 342.366 196.127 341.191 197.433C340.538 198.086 339.493 199.393 339.754 200.568Z" fill="#F5EE30"/>
<path d="M339.231 243.675C339.492 246.94 338.578 250.075 336.879 252.949C336.618 253.341 338.578 254.255 338.447 254.125C341.19 255.431 344.195 256.345 347.199 256.999C347.591 257.129 348.897 257.39 349.158 256.999C350.856 254.255 351.64 251.12 351.51 247.855C351.51 247.332 350.203 246.81 349.942 246.679C348.505 246.026 347.068 245.504 345.631 244.981C344.195 244.459 342.627 244.067 341.19 243.805C341.06 243.805 339.231 243.414 339.231 243.675Z" fill="#F5EE30"/>
<path d="M93.9165 480.629C93.9165 480.629 78.8945 517.727 78.8945 526.087C78.8945 534.447 89.8671 539.541 102.146 539.541C114.425 539.541 130.622 533.663 130.622 524.389C130.622 515.114 113.902 480.89 113.902 480.89L93.9165 480.629Z" fill="#262626"/>
<path d="M90.9124 479.584C87.7774 487.291 84.773 495.129 82.0299 503.097C80.2011 508.452 78.2417 513.808 76.9355 519.294C76.413 521.254 76.0211 523.213 75.7598 525.303C75.6292 528.569 76.8049 531.704 78.8949 534.186C84.1199 540.456 93.6555 542.415 101.362 542.546C109.461 542.807 117.429 540.978 124.614 537.19C130.1 534.186 134.672 529.352 133.758 522.691C132.843 517.727 131.406 512.894 129.316 508.322C125.659 498.786 121.609 489.512 117.037 480.499L116.776 479.976C116.254 478.931 115.209 478.278 114.033 478.278L94.0474 478.017C92.4799 478.017 90.7818 478.8 90.7818 480.499C90.9124 482.197 92.2187 483.503 93.9168 483.634L113.902 483.895L111.159 482.066C114.556 489.12 117.821 496.304 120.826 503.489C123.046 508.583 124.875 513.677 126.443 519.033C126.704 519.947 126.965 520.862 127.096 521.776C127.226 522.168 127.226 522.691 127.357 523.082C127.357 522.429 127.488 523.736 127.357 523.082C127.357 523.344 127.357 523.605 127.357 523.736C127.357 525.826 126.443 527.916 124.875 529.222C120.042 533.794 112.596 535.753 106.196 536.406C99.403 537.19 91.043 536.537 85.4261 532.357C83.4668 531.051 82.2911 528.83 82.1605 526.479C82.1605 525.826 82.2911 525.172 82.2911 524.519C82.2911 524.389 82.2911 524.127 82.4217 523.866C82.2911 524.65 82.4217 523.866 82.4217 523.736C82.5524 523.213 82.683 522.691 82.8136 522.037C83.9893 517.074 85.6874 512.241 87.3855 507.407C90.3899 498.786 93.6555 490.165 97.0518 481.674C98.4887 478.278 92.3493 476.188 90.9124 479.584Z" fill="#262626"/>
<path d="M90.7819 480.891C92.0882 483.895 94.4395 486.377 97.3132 487.814C103.322 490.296 110.245 488.859 114.817 484.287C115.731 483.242 116.515 482.197 117.038 480.891C117.43 479.976 115.993 479.584 115.47 479.584C109.461 478.931 103.453 478.67 97.5745 478.801C95.7457 478.931 93.2638 478.931 91.6963 479.846C91.3044 480.107 90.6513 480.499 90.7819 480.891C90.7819 481.413 91.4351 481.544 91.8269 481.674C93.3945 482.066 94.962 481.936 96.3988 481.152C96.7907 480.891 95.7457 481.413 96.1376 481.283C96.007 481.283 95.2232 481.544 95.7457 481.413C96.2682 481.283 94.962 481.544 95.4845 481.413H96.2682H96.6601C97.1826 481.413 95.7457 481.413 96.5295 481.413C98.097 481.413 99.6645 481.413 101.363 481.413C103.061 481.413 104.889 481.544 106.588 481.674H107.763C107.502 481.674 108.416 481.674 107.763 481.674H108.416L110.506 481.805L112.596 481.936L111.029 480.629C110.768 481.413 110.376 482.066 109.853 482.719C108.939 484.026 107.633 485.071 106.065 485.854L105.543 485.985C105.412 485.985 104.759 486.246 105.281 486.116L104.889 486.246C104.759 486.246 104.236 486.377 104.628 486.246C103.714 486.246 105.02 486.116 104.628 486.246C104.106 486.246 104.498 486.246 104.628 486.246H104.236H103.844C103.844 486.246 104.236 486.377 103.975 486.246C103.714 486.246 103.453 486.116 103.191 485.985C103.191 485.985 102.799 485.854 103.061 485.985L102.799 485.854C101.232 485.071 99.9257 483.895 99.0113 482.589C98.6195 482.066 98.2276 481.413 97.8357 480.76C97.7051 480.629 97.5745 480.368 97.4438 480.107C97.1826 479.454 97.3132 479.846 97.4438 480.107C96.3988 478.409 90.1288 479.715 90.7819 480.891Z" fill="#262626"/>
<path d="M96.0059 430.208C96.0059 430.208 91.8259 420.28 61.6514 423.154C31.4769 426.028 -5.88197 451.108 0.779928 464.562C7.44182 478.017 55.2507 473.053 77.1958 459.207C99.1409 445.36 97.0509 435.825 96.0059 430.208Z" fill="#F5EE30"/>
<path d="M100.317 412.182C100.317 412.182 80.8541 418.582 69.2285 381.093C57.6028 343.603 72.1022 342.95 85.5566 348.567C99.0111 354.184 112.727 401.47 100.317 412.182Z" fill="#F5EE30"/>
<path d="M114.816 430.469C114.816 430.469 115.47 400.034 131.798 398.597C148.126 397.16 134.541 433.735 114.816 430.469Z" fill="#F5EE30"/>
<path d="M108.937 486.899C108.937 483.242 108.937 479.584 108.807 475.796C108.545 466.783 108.154 457.639 107.5 448.626C106.586 436.87 105.28 425.113 103.32 413.618C101.492 401.993 98.7485 390.498 94.8298 379.394C91.5641 370.381 87.2535 361.107 80.3303 354.314C79.5466 353.661 78.8935 353.008 78.1097 352.355C76.0197 350.657 70.5334 354.053 72.7541 355.882C79.8078 361.76 84.2491 370.251 87.5147 378.611C91.5641 389.322 94.5685 400.425 96.3973 411.659C98.4873 423.285 99.9241 434.91 100.839 446.667C101.622 456.072 102.145 465.607 102.406 475.012C102.537 479.454 102.275 483.895 102.537 488.336V488.467C102.798 491.471 108.937 489.512 108.937 486.899Z" fill="#262626"/>
<path d="M15.4104 457.117C21.9416 453.459 28.6035 450.324 35.3961 447.32C49.1117 441.311 63.3499 436.347 78.2412 433.996C86.0787 432.821 94.3081 432.429 101.884 433.996C103.321 434.257 105.411 433.865 105.934 432.298C106.326 430.861 105.542 429.424 104.105 429.032C103.974 429.032 103.844 429.032 103.713 428.902C88.1688 425.505 71.8406 428.902 56.8186 433.343C44.0173 437.262 31.4773 442.356 19.4598 448.365C16.9779 449.541 14.6266 450.847 12.2754 452.153C10.9691 452.937 10.0547 454.243 10.9691 455.68C12.0141 457.247 13.8429 457.77 15.4104 457.117Z" fill="#262626"/>
<path d="M130.1 407.349L105.673 438.699L102.277 443.14C99.9257 446.144 105.804 448.496 107.763 446.014L132.19 414.664L135.586 410.222C137.807 407.218 131.929 404.997 130.1 407.349Z" fill="#262626"/>
</svg>
