<svg width="568" height="553" viewBox="0 0 568 553" fill="none" xmlns="http://www.w3.org/2000/svg">
<path d="M355.673 413.842H213.28L201.679 492.579H367.273L355.673 413.842Z" fill="white"/>
<path d="M354.221 410.942H229.373C223.572 410.942 217.772 410.797 212.117 410.942H211.827C211.392 410.942 210.667 411.087 210.522 411.667L206.607 438.348L200.372 480.689L198.922 490.404C198.632 492.434 201.097 495.479 203.127 495.479H348.42C355.091 495.479 361.906 495.624 368.576 495.479H368.866C369.591 495.479 370.316 495.189 370.171 494.174L366.256 467.493L360.021 425.152L358.571 415.437C358.281 413.697 357.121 412.247 355.671 411.377C354.801 410.942 352.77 410.507 352.915 412.102L356.831 438.783L363.066 481.124L364.516 490.839L365.821 489.534H206.897C204.722 489.534 202.547 489.389 200.372 489.534H200.082L204.287 494.609L208.202 467.928L214.437 425.587L215.887 415.872L214.582 416.597H339.43C345.23 416.597 351.03 416.742 356.831 416.597H357.121C360.456 416.597 356.541 410.942 354.221 410.942Z" fill="#262626"/>
<path d="M25.6462 7.39771H542.148C554.329 7.39771 564.189 17.2579 564.189 29.4382V392.962C564.189 405.142 554.329 415.002 542.148 415.002H25.6462C13.4659 415.002 3.60571 405.142 3.60571 392.962V29.4382C3.60571 17.2579 13.4659 7.39771 25.6462 7.39771Z" fill="white"/>
<path d="M26.8083 9.71751H543.165C553.606 9.86251 560.566 18.8527 560.711 29.003C560.711 34.5131 560.711 40.0232 560.711 45.3884V373.676C560.711 379.911 560.711 386.001 560.711 392.237C560.566 403.112 552.156 412.827 540.99 412.972H37.3936C33.0435 412.972 28.8384 412.972 24.6333 412.972C14.193 412.827 7.23285 403.692 7.08785 393.687C7.08785 392.092 7.08785 390.352 7.08785 388.757V35.9631C7.08785 34.0781 7.08785 32.193 7.08785 30.453C7.08785 19.4327 15.643 9.86251 26.8083 9.71751C28.1133 9.71751 29.5634 8.99249 28.9834 7.54246C28.4033 6.09242 25.9383 5.2224 24.4883 5.2224C11.1479 5.51241 0.272689 15.3726 0.127686 29.003C0.127686 30.743 0.127686 32.338 0.127686 33.9331V388.031C0.127686 389.482 0.127686 390.932 0.127686 392.527C0.272689 406.882 13.033 417.322 26.8083 417.467C30.5784 417.467 34.4935 417.467 38.2636 417.467H540.7C542.15 417.467 543.456 417.467 544.906 417.467C557.666 416.887 567.671 406.447 567.816 393.687C567.961 387.741 567.816 381.796 567.816 375.996V45.6784C567.816 40.4582 567.816 35.2381 567.816 30.018C567.671 15.6627 554.911 5.2224 541.135 5.07739H24.4883C23.1832 5.07739 21.7332 5.80241 22.3132 7.25244C22.8932 8.84748 25.3583 9.71751 26.8083 9.71751Z" fill="#262626"/>
<path d="M25.6462 2.75732H542.148C554.329 2.75732 564.189 12.6176 564.189 24.7978V329.305H3.60571V24.7978C3.60571 12.6176 13.4659 2.75732 25.6462 2.75732Z" fill="#262626"/>
<path d="M25.7916 5.5125H538.379C539.684 5.5125 540.844 5.5125 542.149 5.5125C551.864 5.5125 559.839 12.9077 560.709 22.6229C561.144 27.988 560.854 33.4982 560.854 38.8633V329.16L564.189 326.695H26.2266C18.9764 326.695 11.5812 326.26 4.47607 326.695H3.46104L7.23113 329.74V30.1631C7.23113 23.0579 7.66614 16.3878 13.3213 10.8776C16.6564 7.68755 21.0065 5.80251 25.7916 5.5125C30.4317 5.5125 29.5617 0.0023683 25.5016 0.0023683C14.7713 -0.142635 5.20108 6.38252 1.431 16.3878C0.415971 19.4328 -0.0190412 22.6229 0.125962 25.813V314.95C0.125962 319.445 -0.164045 323.94 0.125962 328.435C0.125962 328.58 0.125962 328.87 0.125962 329.015C0.125962 330.755 2.30102 332.06 3.89605 332.06H564.624C566.219 332.06 567.959 331.48 567.959 329.595V27.988C568.104 24.798 567.814 21.6079 566.944 18.4178C563.899 7.54255 553.169 0.147372 542.004 0.0023683C538.379 0.0023683 534.609 0.0023683 530.983 0.0023683H25.5016C20.7165 0.0023683 21.7315 5.5125 25.7916 5.5125Z" fill="#262626"/>
<path d="M284.481 384.406C290.808 384.406 295.937 379.278 295.937 372.951C295.937 366.625 290.808 361.496 284.481 361.496C278.155 361.496 273.026 366.625 273.026 372.951C273.026 379.278 278.155 384.406 284.481 384.406Z" fill="white"/>
<path d="M285.057 364.831C285.637 364.831 286.072 364.831 286.652 364.976L287.522 365.121C287.522 365.121 288.102 365.266 287.667 365.121C288.102 365.266 288.682 365.411 289.117 365.701C289.117 365.701 289.987 366.136 289.407 365.846L290.132 366.281C290.277 366.426 290.567 366.571 290.712 366.716C291.147 367.006 290.132 366.136 290.857 366.861C291.002 367.006 292.017 368.166 291.437 367.441C291.727 367.876 292.017 368.311 292.307 368.746C291.872 368.166 292.162 368.456 292.307 368.746C292.452 369.036 292.597 369.471 292.742 369.761C292.887 370.051 292.887 370.631 292.742 369.906C292.742 370.196 292.887 370.341 292.887 370.631C292.887 370.921 293.032 371.211 293.032 371.356C293.032 370.776 293.032 371.501 293.032 371.646C293.032 372.661 292.887 373.531 292.597 374.401C292.017 376.141 291.002 377.736 289.552 378.896C287.377 380.781 284.477 381.506 281.576 380.926C281.286 380.926 280.851 380.781 280.561 380.636C280.271 380.491 279.981 380.491 279.691 380.346C279.546 380.346 278.821 379.911 279.401 380.201C278.966 379.911 278.531 379.621 278.241 379.331C277.516 378.751 278.531 379.621 278.096 379.186L277.516 378.606C277.516 378.606 276.936 377.881 277.226 378.316C277.516 378.751 277.081 378.026 276.936 378.026C276.791 378.026 276.791 377.736 276.646 377.446C276.501 377.156 276.501 377.156 276.646 377.446L276.356 376.866L276.211 376.286C276.211 376.141 275.921 375.271 276.066 375.996C275.921 375.561 275.921 375.126 275.776 374.691C275.631 374.256 275.776 375.416 275.776 374.401V373.676C275.776 373.386 275.776 373.096 275.776 372.951C275.921 372.371 275.776 372.951 275.921 372.516C276.356 370.486 277.371 368.746 278.966 367.296C280.706 365.701 282.881 364.976 285.057 364.831C286.217 364.831 287.232 363.816 287.232 362.656C287.232 362.366 287.232 362.221 287.087 361.931C286.797 360.481 285.347 358.161 283.606 358.306C277.806 358.306 272.731 361.786 270.701 367.296C268.526 373.531 271.136 380.346 275.921 384.406C281.431 389.482 290.132 388.902 295.062 383.391C298.107 380.056 299.267 375.416 298.107 371.066C296.657 364.251 290.712 358.306 283.461 358.306C279.836 358.161 282.011 364.831 285.057 364.831Z" fill="#262626"/>
<path d="M540.985 25.958H25.4978V307.41H540.985V25.958Z" fill="white"/>
<path d="M26.6617 29.148H521.268C527.939 29.148 534.609 29.438 541.279 29.148H542.149L538.089 24.3629V301.464C537.944 302.769 537.944 303.93 538.089 305.235C538.089 305.38 538.089 305.525 538.089 305.815L539.829 304.365H45.3671C38.697 304.365 32.0268 304.074 25.3566 304.365C25.0666 304.365 24.7766 304.365 24.4866 304.365L28.5467 309.15V62.3538C28.5467 50.8985 28.5467 39.4432 28.5467 28.133V27.6979C28.5467 25.9579 27.5317 24.2179 25.9366 23.3478C24.9216 22.7678 22.7466 22.6228 22.7466 24.3629V271.014C22.7466 282.469 22.7466 293.779 22.7466 305.235V305.815C22.7466 307.845 24.4866 310.6 26.8067 310.6H521.413C528.084 310.6 534.754 310.745 541.424 310.6H542.294C543.164 310.745 544.034 310.02 544.034 309.15V62.3538C544.034 50.8985 544.034 39.4432 544.034 28.133V27.6979C544.034 25.6679 542.439 22.9128 539.974 22.9128H45.3671C38.697 22.9128 32.0268 22.7678 25.3566 22.9128H24.4866C20.5715 22.7678 23.7616 29.148 26.6617 29.148Z" fill="#262626"/>
<path d="M64.5049 63.8037C68.1887 63.8037 71.175 60.8174 71.175 57.1335C71.175 53.4497 68.1887 50.4634 64.5049 50.4634C60.821 50.4634 57.8347 53.4497 57.8347 57.1335C57.8347 60.8174 60.821 63.8037 64.5049 63.8037Z" fill="#F5EE30"/>
<path d="M88.7241 63.5141C92.4079 63.5141 95.3943 60.5278 95.3943 56.844C95.3943 53.1602 92.4079 50.1738 88.7241 50.1738C85.0403 50.1738 82.054 53.1602 82.054 56.844C82.054 60.5278 85.0403 63.5141 88.7241 63.5141Z" fill="#F5EE30"/>
<path d="M113.23 63.8037C116.914 63.8037 119.9 60.8174 119.9 57.1335C119.9 53.4497 116.914 50.4634 113.23 50.4634C109.546 50.4634 106.56 53.4497 106.56 57.1335C106.56 60.8174 109.546 63.8037 113.23 63.8037Z" fill="#F5EE30"/>
<path d="M505.896 78.1592H62.9102V186.767H505.896V78.1592Z" fill="white"/>
<path d="M504.737 184.157H79.7323C73.9322 184.157 68.2771 184.012 62.4769 184.157H61.7519L66.392 187.202V78.5942L63.927 80.7692H489.077C494.732 80.7692 500.532 80.9142 506.332 80.7692C506.622 80.7692 506.912 80.7692 507.057 80.7692L502.417 77.8691V186.477C502.417 189.522 509.523 190.972 509.523 187.347V78.5942C509.523 76.4191 506.477 75.6941 504.882 75.6941H79.7323C73.9322 75.6941 68.2771 75.5491 62.4769 75.6941H61.7519C60.4469 75.5491 59.4319 76.5641 59.2869 77.8691V186.477C59.2869 188.652 62.3319 189.377 63.927 189.377H489.077C494.877 189.377 500.532 189.522 506.332 189.377H507.057C508.217 189.522 509.233 188.652 509.378 187.492C509.378 187.202 509.378 186.912 509.233 186.622C508.652 184.737 506.332 184.157 504.737 184.157Z" fill="#F5EE30"/>
<path d="M96.2636 168.061C151.075 127.895 218.067 107.595 285.928 110.35C292.308 110.64 298.978 110.93 304.489 114.845C309.129 118.18 312.319 123.11 313.334 128.765C314.204 134.565 312.899 140.366 309.419 145.006C308.114 146.746 306.519 148.196 304.489 149.211C303.184 149.646 301.298 149.936 300.428 148.486C299.123 146.166 302.313 144.136 303.909 142.976C306.664 141.236 309.564 139.641 312.464 138.191C318.554 135.145 325.079 132.825 331.749 131.23C344.219 128.475 357.415 128.62 369.305 133.55C379.89 137.901 389.606 145.296 395.261 155.301C396.711 157.766 397.871 160.231 398.741 162.986C399.901 166.176 406.571 163.276 405.411 160.086C401.061 147.906 391.781 138.191 380.76 131.955C368.435 125.285 354.37 122.675 340.449 124.56C332.764 125.575 325.079 127.46 317.829 130.215C314.204 131.665 310.869 133.26 307.389 135C304.054 136.595 300.863 138.481 297.963 140.656C295.353 142.686 292.598 145.876 293.033 149.356C293.468 152.111 295.643 154.431 298.398 154.866C304.924 156.171 311.014 151.821 314.784 146.891C323.194 136.015 321.599 120.645 311.304 111.655C305.504 106.725 298.398 105.42 291.003 104.985C283.608 104.55 276.213 104.405 268.673 104.55C208.931 106 150.785 124.415 101.339 157.911C98.2937 159.941 95.2486 162.116 92.2036 164.291C91.0435 165.161 90.0285 166.901 91.1885 168.206C92.3486 169.511 95.1036 168.931 96.2636 168.061Z" fill="#F5EE30"/>
<path d="M337.981 102.81C336.821 104.115 336.386 105.855 337.111 107.595C337.691 109.045 338.996 110.205 340.446 110.785C342.041 111.365 343.636 111.8 345.376 112.09C346.826 112.38 348.276 112.525 349.871 112.525C354.076 112.525 357.991 110.93 360.891 107.885C363.066 105.42 363.356 101.65 361.471 98.8948C359.296 95.4147 355.236 93.9647 351.466 92.8046C349.871 92.5146 348.276 93.0946 347.116 94.1097C346.826 94.3997 344.361 96.4297 345.666 96.8647C348.566 97.5898 351.321 98.8948 353.641 100.635C355.526 102.23 356.541 104.84 356.106 107.305C356.106 107.45 355.961 107.74 355.961 107.885C355.961 108.03 355.526 108.61 355.816 108.32C355.816 108.32 355.671 108.465 355.671 108.61C355.671 108.9 355.961 108.32 355.816 108.465L355.526 108.61C355.961 108.32 355.961 108.32 355.816 108.465C355.671 108.61 355.671 108.61 355.961 108.465C356.686 108.03 355.526 108.755 356.251 108.32C356.396 108.32 356.686 108.03 356.251 108.32C356.831 108.03 356.396 108.175 356.106 108.32C355.816 108.465 356.541 108.32 356.106 108.32H355.816L354.801 108.465C354.366 108.465 354.656 108.465 354.656 108.465H354.221H353.496C352.771 108.465 352.191 108.32 351.466 108.32C350.306 108.175 349.146 107.885 347.986 107.595C346.536 107.305 345.086 106.58 344.216 105.42C343.926 104.985 343.636 104.405 343.491 103.825C343.491 103.535 343.491 103.1 343.491 102.81C343.491 102.665 343.781 102.23 343.636 102.52C343.926 102.23 344.361 101.65 344.071 101.07C343.781 100.49 343.056 100.635 342.621 100.635C340.591 100.635 339.141 101.505 337.981 102.81Z" fill="#F5EE30"/>
<g opacity="0.34">
<path d="M145.165 240.58C146.754 218.213 129.911 198.792 107.543 197.203C85.1761 195.613 65.7553 212.457 64.1658 234.824C62.5762 257.191 79.4198 276.612 101.787 278.201C124.154 279.791 143.575 262.947 145.165 240.58Z" fill="white"/>
<path d="M141.797 238.243C141.652 253.758 132.227 268.549 117.436 273.769C102.646 278.989 85.9706 273.624 76.1104 261.589C66.1052 248.973 64.6551 231.573 72.7753 217.653C80.6055 204.312 96.1209 197.352 111.346 200.542C129.037 204.457 141.652 220.118 141.797 238.243C141.797 241.868 148.902 240.273 148.757 237.083C148.612 218.958 137.157 202.862 120.046 196.772C102.501 190.537 82.3455 196.627 70.4553 210.692C58.71 224.758 57.2599 244.623 66.6852 260.284C76.1104 275.944 95.2509 283.629 112.941 279.859C130.922 276.234 144.987 261.879 148.322 243.753C148.757 241.578 148.902 239.258 148.902 237.083C148.902 233.603 141.797 235.198 141.797 238.243Z" fill="#F5EE30"/>
</g>
<g opacity="0.34">
<path d="M227.488 278.699C249.911 278.699 268.089 260.521 268.089 238.098C268.089 215.674 249.911 197.497 227.488 197.497C205.065 197.497 186.887 215.674 186.887 238.098C186.887 260.521 205.065 278.699 227.488 278.699Z" fill="white"/>
<path d="M265.191 240.128C265.191 248.393 262.58 256.513 257.795 263.328C253.88 269.128 247.935 273.333 241.265 275.218C219.659 281.164 197.329 268.693 191.384 247.088C188.484 236.503 189.934 225.192 195.444 215.767C198.779 209.677 204.144 204.747 210.669 202.137C218.354 199.237 226.765 198.802 234.595 200.832C252.575 205.327 265.046 221.567 265.191 240.128C265.191 240.418 268.381 238.823 268.526 238.678C269.251 238.243 271.281 237.083 271.281 236.213C271.136 218.232 259.535 202.427 242.425 197.207C224.735 191.842 205.304 199.672 193.704 213.447C179.058 230.557 181.089 256.368 198.199 271.013C208.494 279.859 222.415 282.904 235.465 279.424C252.575 274.928 267.946 260.428 270.701 242.593C270.991 240.418 271.136 238.243 271.136 236.213C271.136 235.778 267.946 237.663 267.801 237.663C267.221 238.098 265.191 239.113 265.191 240.128Z" fill="#F5EE30"/>
</g>
<g opacity="0.34">
<path d="M340.455 277.829C362.878 277.829 381.056 259.651 381.056 237.228C381.056 214.805 362.878 196.627 340.455 196.627C318.032 196.627 299.854 214.805 299.854 237.228C299.854 259.651 318.032 277.829 340.455 277.829Z" fill="white"/>
<path d="M377.717 236.503C377.572 252.598 367.566 267.099 352.486 272.899C337.986 278.264 321.745 273.914 311.885 262.024C301.88 249.408 300.575 231.863 308.695 217.943C316.67 204.312 332.33 197.062 347.991 199.672C365.536 203.007 377.572 219.103 377.717 236.503C377.717 239.548 384.677 241.433 384.677 237.808C384.387 219.393 372.786 203.007 355.386 196.627C338.276 190.247 318.12 194.887 306.23 209.097C294.63 223.163 293.034 243.028 302.605 258.689C312.61 274.639 331.17 282.904 349.731 279.569C367.421 276.234 381.052 262.169 384.097 244.478C384.387 242.303 384.677 239.983 384.677 237.808C384.677 234.763 377.717 233.023 377.717 236.503Z" fill="#F5EE30"/>
</g>
<g opacity="0.34">
<path d="M461.964 278.118C484.387 278.118 502.565 259.941 502.565 237.517C502.565 215.094 484.387 196.917 461.964 196.917C439.541 196.917 421.363 215.094 421.363 237.517C421.363 259.941 439.541 278.118 461.964 278.118Z" fill="white"/>
<path d="M499.087 237.518C498.942 253.613 488.937 267.823 473.857 273.479C459.211 278.699 442.971 274.059 433.256 262.023C423.25 249.408 422.09 231.863 430.355 218.087C438.331 204.892 453.991 197.207 469.361 200.107C487.052 203.587 498.942 219.827 499.087 237.518C499.087 240.708 506.192 241.433 506.192 237.663C505.902 219.392 494.302 203.152 477.047 197.062C459.501 190.827 439.636 195.612 427.6 209.967C416 224.032 414.695 243.753 423.975 259.413C433.981 275.364 452.686 283.484 471.246 279.859C488.937 276.379 502.712 262.313 505.757 244.478C506.047 242.158 506.192 239.838 506.192 237.518C506.192 234.618 499.087 233.748 499.087 237.518Z" fill="#F5EE30"/>
</g>
<path d="M492.853 547.68L401.791 211.417C401.791 211.417 395.846 209.967 396.136 214.897C396.426 217.652 485.458 547.825 485.458 547.825H492.853V547.68Z" fill="#F5EE30"/>
<path d="M493.866 548.405H485.166L485.021 547.825C481.396 534.34 395.844 217.652 395.699 214.752C395.554 213.447 395.989 212.287 396.859 211.417C398.744 209.822 402.079 210.547 402.224 210.547L402.659 210.692L402.804 211.127L493.866 548.405ZM486.181 546.955H491.981L401.354 211.997C400.049 211.707 398.744 211.852 397.729 212.577C397.149 213.157 396.859 213.882 397.149 214.752C397.584 218.812 482.121 531.875 486.181 546.955Z" fill="#F5EE30"/>
<path d="M480.525 516.359H432.529V509.109H477.77L480.525 516.359Z" fill="#F5EE30"/>
<path d="M481.687 517.23H431.806V508.529H478.207L481.687 517.23ZM433.256 515.779H479.512L477.337 509.979H433.256V515.779Z" fill="#F5EE30"/>
<path d="M464.866 465.898H416.87V458.648H462.111L464.866 465.898Z" fill="#F5EE30"/>
<path d="M465.88 466.623H415.999V457.923H462.4L465.88 466.623ZM417.594 465.173H463.85L461.675 459.373H417.594V465.173Z" fill="#F5EE30"/>
<path d="M450.798 413.117H402.802V405.867H448.043L450.798 413.117Z" fill="#F5EE30"/>
<path d="M451.961 413.842H402.079V405.142H448.48L451.961 413.842ZM403.529 412.392H449.785L447.61 406.592H403.529V412.392Z" fill="#F5EE30"/>
<path d="M438.476 360.916H390.48V353.666H435.721L438.476 360.916Z" fill="#F5EE30"/>
<path d="M439.631 361.64H389.75V352.94H436.151L439.631 361.64ZM391.2 360.19H437.456L435.281 354.39H391.2V360.19Z" fill="#F5EE30"/>
<path d="M423.536 308.569H375.54V301.319H420.781L423.536 308.569Z" fill="#F5EE30"/>
<path d="M424.558 309.295H374.822V300.594H421.223L424.558 309.295ZM376.127 307.845H422.383L420.208 302.045H376.272L376.127 307.845Z" fill="#F5EE30"/>
<path d="M409.472 256.223H361.476V248.973H406.717L409.472 256.223Z" fill="#F5EE30"/>
<path d="M410.486 256.948H360.75V248.248H407.151L410.486 256.948ZM362.2 255.498H408.456L406.281 249.698H362.2V255.498Z" fill="#F5EE30"/>
<path d="M444.563 550.435H437.023L347.121 211.417C347.121 211.417 350.891 205.037 354.951 211.127C356.836 214.317 444.563 550.435 444.563 550.435Z" fill="#F5EE30"/>
<path d="M445.435 551.16H436.445L346.253 211.417L346.398 211.127C346.398 210.982 348.283 207.937 351.038 207.937H351.183C352.778 207.937 354.228 208.952 355.533 210.982C357.563 214.172 436.3 516.069 445.29 550.435L445.435 551.16ZM437.605 549.71H443.695C413.535 433.997 356.258 215.622 354.228 211.562C353.213 210.112 352.198 209.242 351.183 209.242C349.733 209.242 348.428 210.837 347.993 211.562L437.605 549.71Z" fill="#F5EE30"/>
<path d="M95.1034 530.425L103.369 530.86C103.369 530.86 125.844 537.095 123.669 541.735C121.494 546.375 109.169 548.405 92.9284 547.825C76.688 547.245 70.8879 542.025 76.833 530.425H95.1034Z" fill="white"/>
<path d="M94.8136 532.6L101.774 532.89C102.209 532.89 102.499 532.89 102.934 532.89C103.514 532.745 101.629 532.6 102.354 532.745C103.079 532.89 103.514 533.035 104.239 533.325C106.704 534.05 109.169 534.92 111.634 535.79L112.069 535.935L113.084 536.37C113.809 536.66 114.534 536.95 115.404 537.385C116.274 537.82 116.564 537.965 117.144 538.255L118.014 538.69C118.159 538.69 118.304 538.835 118.449 538.98C118.884 539.27 119.319 539.56 119.754 539.995C119.609 539.85 120.189 540.43 120.189 540.43C120.189 540.43 120.334 540.575 120.189 540.72C120.044 540.865 120.334 540.285 120.189 540.865C120.044 541.155 119.899 541.3 119.754 541.59C119.029 542.315 118.159 542.75 117.289 543.185C115.839 543.765 114.244 544.2 112.649 544.49C108.009 545.36 103.369 545.795 98.5837 545.65C93.9436 545.795 89.4485 545.505 84.8084 544.635C82.0533 543.91 79.5883 543.185 78.5733 540.575C77.4132 537.53 78.7183 533.905 80.1683 531.15L77.4132 532.31L95.6837 532.455C96.9887 532.455 98.8737 531.73 98.5837 530.135C98.2937 528.54 95.6837 528.105 94.3786 528.105L76.1082 527.96C75.0932 527.96 74.0782 528.395 73.3531 529.12C71.7581 532.31 70.3081 536.225 71.1781 539.85C72.0481 543.185 74.9482 545.505 77.8482 546.81C82.3434 548.695 87.1285 549.565 92.0586 549.71C98.1487 550.145 104.384 550 110.474 549.275C114.824 548.695 119.319 548.115 123.234 545.94C125.409 544.78 128.309 542.46 127.004 539.705C125.699 536.95 122.364 535.355 119.899 534.195C116.709 532.745 113.374 531.44 109.894 530.425C107.864 529.555 105.689 528.975 103.514 528.54C100.759 528.25 98.0037 528.25 95.2487 528.105C93.9436 528.105 91.6236 528.105 91.3336 529.7C91.0436 531.295 93.6536 532.455 94.8136 532.6Z" fill="#262626"/>
<path d="M103.221 484.604C103.221 484.604 96.116 524.625 97.131 526.945C98.146 529.265 114.386 534.05 111.921 534.34C110.181 534.63 105.976 538.4 91.7659 537.095C77.2655 535.935 77.9906 534.05 76.9755 531.15C75.9605 528.25 74.2205 480.979 74.2205 480.979L103.221 484.604Z" fill="white"/>
<path d="M99.7405 485.039C98.4355 492.724 97.1305 500.409 95.8254 508.094C95.1004 513.024 94.3754 517.955 93.7954 522.74C93.6504 524.045 93.5054 525.495 93.5054 526.8C93.6504 528.395 94.6654 529.845 96.2604 530.425C98.8705 531.875 101.626 533.035 104.526 534.05C105.831 534.485 106.991 535.065 108.296 535.5C108.441 535.5 108.876 535.645 108.296 535.5L109.021 535.79C110.036 536.225 109.021 536.08 108.876 535.21V533.76L109.166 533.18L110.471 532.02C110.906 531.73 113.371 531.005 110.906 531.73L110.616 531.875C110.326 532.02 109.891 532.165 109.456 532.31C108.441 532.745 107.281 533.18 106.266 533.47L105.251 533.76C105.976 533.615 104.671 533.905 104.526 533.905C103.366 534.05 102.351 534.195 101.191 534.34C98.4355 534.485 95.6804 534.485 92.7804 534.195C90.1703 534.05 87.4152 533.76 84.8052 533.18C84.0802 533.035 83.2101 532.89 82.4851 532.6C82.3401 532.6 81.6151 532.31 81.9051 532.455C82.1951 532.6 81.6151 532.31 81.4701 532.165C81.0351 531.875 81.0351 532.02 81.4701 532.165C81.3251 532.02 81.1801 531.875 81.0351 531.73C80.7451 531.44 81.0351 531.875 81.0351 531.875C80.8901 531.73 80.8901 531.585 80.7451 531.295C80.6001 530.715 80.4551 530.135 80.3101 529.555C80.3101 529.41 80.3101 529.41 80.3101 529.265C80.1651 528.975 80.4551 529.99 80.3101 529.41C80.1651 528.83 80.1651 528.685 80.1651 528.25C80.0201 527.235 80.0201 526.075 79.8751 525.06C79.5851 522.015 79.4401 518.97 79.295 515.924C78.86 508.529 78.57 501.279 78.28 493.884C78.135 489.389 77.845 484.894 77.7 480.254L73.0599 483.444L102.061 486.924C103.946 487.069 105.541 486.054 106.411 484.459C106.991 482.719 105.541 481.704 104.091 481.559L75.0899 478.079C73.4949 477.934 70.4498 479.239 70.5948 481.269C71.0299 490.839 71.4649 500.554 71.8999 510.124C72.1899 515.924 72.4799 521.725 72.9149 527.525C73.2049 530.28 73.2049 533.76 75.2349 535.79C77.265 537.82 81.0351 538.4 83.9352 538.835C89.3003 539.705 94.8104 539.995 100.321 539.705C103.656 539.415 106.991 538.835 110.036 537.53C110.761 537.24 111.486 536.95 112.211 536.66C112.646 536.37 111.776 536.66 111.631 536.805C112.066 536.66 112.501 536.66 112.791 536.515C113.951 536.225 114.966 535.355 115.546 534.195C116.561 531.44 111.921 530.28 110.181 529.555C107.426 528.54 104.671 527.38 101.916 526.075C101.481 525.785 101.046 525.495 100.611 525.205C100.176 524.915 100.466 525.06 100.466 525.205C100.321 524.77 100.611 525.495 100.466 525.35C100.466 524.77 100.466 526.075 100.466 525.35C100.466 525.06 100.466 524.77 100.466 524.48C100.611 522.305 100.901 520.13 101.191 517.955C102.641 506.789 104.526 495.624 106.556 484.459L106.701 483.734C106.991 481.994 104.526 481.414 103.366 481.559C101.481 482.139 100.176 483.299 99.7405 485.039Z" fill="#262626"/>
<path d="M76.686 533.47L84.9512 533.905C84.9512 533.905 107.427 540.14 105.252 544.78C103.077 549.42 90.7513 551.45 74.5109 550.87C58.2705 550.29 52.4704 545.07 58.4155 533.47H76.686Z" fill="white"/>
<path d="M76.3962 535.645L83.3563 535.935C83.7914 535.935 84.0814 535.935 84.5164 535.935C85.0964 535.79 83.3564 535.645 83.9364 535.79C84.5164 535.935 85.2414 536.08 85.8214 536.37C88.2865 537.095 90.7515 537.965 93.2166 538.835L93.6516 538.98L94.6666 539.415C95.3916 539.705 96.1167 539.995 96.8417 540.43L98.5817 541.3L99.4517 541.735C99.8868 542.025 99.3067 541.59 99.8867 542.025C100.322 542.315 100.757 542.605 101.192 543.04C101.047 542.895 101.627 543.475 101.627 543.475C101.627 543.475 101.772 543.62 101.627 543.765C101.482 543.91 101.772 543.33 101.627 543.91C101.482 544.2 101.337 544.345 101.192 544.635C100.467 545.36 99.5967 545.795 98.7267 546.23C97.2767 546.81 95.6816 547.245 94.0866 547.535C89.4465 548.405 84.8064 548.84 80.0213 548.695C75.3812 548.84 70.8861 548.55 66.246 547.68C63.4909 546.955 61.0258 546.23 60.0108 543.62C58.8508 540.575 60.1558 536.95 61.6058 534.195L58.8508 535.355L77.1212 535.5C78.4262 535.5 80.3113 534.775 80.0213 533.18C79.7313 531.585 77.1212 531.15 75.8162 531.15L57.6907 531.005C56.6757 530.86 55.6607 531.44 55.0807 532.165C53.4856 535.355 52.0356 539.27 52.9056 542.895C53.7756 546.23 56.6757 548.55 59.5758 549.855C64.0709 551.74 68.856 552.61 73.7861 552.755C79.8763 553.19 86.1114 553.045 92.2016 552.32C96.5517 551.74 101.047 551.16 104.962 548.985C107.137 547.825 110.037 545.505 108.732 542.75C107.427 539.995 104.092 538.4 101.627 537.24C98.4367 535.79 95.1016 534.485 91.6216 533.325C89.5915 532.455 87.4165 531.875 85.2414 531.44C82.4863 531.15 79.7313 531.15 76.9762 531.005C75.6712 531.005 73.3511 531.005 73.0611 532.745C72.7711 534.485 75.2362 535.5 76.3962 535.645Z" fill="#262626"/>
<path d="M84.9521 487.649C84.9521 487.649 77.8469 527.67 78.8619 529.99C79.877 532.31 96.1174 537.095 93.6523 537.385C91.7673 537.675 87.5622 541.445 73.3518 540.14C59.1415 538.835 59.5765 537.095 58.5615 534.195C57.5464 531.295 55.8064 484.169 55.8064 484.169L84.9521 487.649Z" fill="white"/>
<path d="M81.3288 488.084C80.0238 495.769 78.7187 503.454 77.4137 511.139C76.6887 516.07 75.9637 521 75.3836 525.785C75.2386 527.09 75.0936 528.54 75.0936 529.845C75.2386 531.44 76.2537 532.89 77.8487 533.47C80.4588 534.92 83.2138 536.08 86.1139 537.095C87.4189 537.53 88.5789 538.11 89.884 538.545L90.609 538.835C91.624 539.27 90.609 539.125 90.464 538.255V536.805L90.754 536.225L92.059 535.065C92.494 534.775 94.9591 534.05 92.494 534.775L92.059 534.92C91.769 535.065 91.334 535.21 90.899 535.355C89.884 535.79 88.724 536.225 87.7089 536.515L86.6939 536.805C87.4189 536.66 86.1139 536.95 85.9689 536.95C84.8089 537.095 83.7938 537.24 82.6338 537.385C79.8787 537.53 77.1237 537.53 74.2236 537.24C71.6136 537.095 68.8585 536.805 66.3934 536.225C65.6684 536.08 64.7984 535.935 64.0734 535.645C63.9284 535.645 63.2034 535.355 63.4934 535.5C63.7834 535.645 63.2033 535.355 63.0583 535.21C62.6233 534.92 62.6233 535.065 63.0583 535.21L62.6233 534.775C62.3333 534.485 62.6233 534.92 62.6233 534.92C62.6233 534.92 62.4783 534.63 62.3333 534.34C62.1883 533.76 62.0433 533.18 61.8983 532.6C61.8983 532.455 61.8983 532.455 61.8983 532.31C61.7533 532.02 62.0433 533.035 61.8983 532.455L61.7533 531.295C61.6083 530.28 61.6083 529.12 61.4633 528.105C61.3183 525.06 61.0283 522.015 60.8833 518.97C60.4483 511.574 60.1583 504.324 59.8683 496.929C59.7233 492.434 59.4333 487.939 59.2883 483.299L54.6482 486.489L83.6488 489.969C85.5339 490.114 87.1289 489.099 87.9989 487.504C88.579 485.764 87.1289 484.749 85.6789 484.604L56.6782 481.124C55.0832 480.979 52.0381 482.284 52.0381 484.314C52.4731 493.884 52.9081 503.599 53.3431 513.17C53.6331 518.97 53.9231 524.77 54.3581 530.57C54.6481 533.325 54.6482 536.805 56.6782 538.835C58.7083 540.865 62.4783 541.445 65.3784 541.88C70.7435 542.75 76.2537 543.04 81.7638 542.75C85.0989 542.46 88.434 541.88 91.479 540.575C92.204 540.285 92.9291 539.995 93.6541 539.705C94.0891 539.415 93.2191 539.705 93.0741 539.85C93.5091 539.705 93.7991 539.705 94.2341 539.56C95.3941 539.27 96.4091 538.4 96.8442 537.24C97.8592 534.485 93.2191 533.325 91.479 532.6C88.724 531.585 85.9689 530.425 83.2138 529.12C82.7788 528.83 82.3438 528.54 81.9088 528.25C81.4738 527.96 81.7638 528.105 81.7638 528.25C81.6188 527.815 81.9088 528.54 81.7638 528.395C81.7638 527.815 81.7638 529.12 81.7638 528.395C81.7638 528.105 81.7638 527.815 81.7638 527.525C81.9088 525.35 82.1988 523.175 82.4888 521C83.9388 509.834 85.8239 498.669 87.8539 487.504L87.9989 486.779C88.2889 485.039 85.8239 484.459 84.6639 484.604C83.0688 485.184 81.7638 486.489 81.3288 488.084Z" fill="#262626"/>
<path d="M181.522 315.385L110.47 306.685L107.425 368.456L173.257 378.316L181.522 315.385Z" fill="white"/>
<path d="M183.555 312.63L159.484 309.73L121.348 305.089L112.503 304.074C110.473 303.784 107.428 305.234 107.283 307.554L104.528 361.786L104.093 369.326C103.948 370.196 104.528 371.066 105.398 371.356L127.583 374.691L162.964 380.056L171.229 381.361C173.549 381.651 175.869 380.201 176.449 377.881L179.205 356.566L183.7 322.635L184.715 314.805C184.86 313.065 183.12 312.485 181.815 312.775C180.075 313.21 178.625 314.515 178.19 316.255L175.434 337.57L170.939 371.501L169.924 379.331L175.144 375.851L152.959 372.516L117.578 367.151L109.313 365.846L110.618 367.876L113.373 313.645L113.808 306.104L108.588 309.585L132.658 312.485L170.649 317.125L179.495 318.14C181.235 318.43 183.12 317.56 184.135 316.11C185.005 314.95 185.295 312.775 183.555 312.63Z" fill="#F5EE30"/>
<path d="M151.798 306.974C150.348 304.654 147.158 304.074 144.838 305.524C144.693 305.669 144.548 305.814 144.403 305.814C144.403 305.814 142.373 305.814 140.922 305.959C140.922 305.959 135.412 299.724 131.352 300.594C127.292 301.464 122.507 313.79 127.872 314.66C130.917 315.095 133.962 309.729 133.962 309.729C133.962 309.729 130.482 315.82 135.267 317.27C138.022 318.14 140.487 313.79 140.487 313.79C140.487 313.79 140.052 319.59 142.953 319.3C145.853 319.01 150.058 311.18 150.058 311.18" fill="white"/>
<path d="M154.989 306.105C152.234 301.754 146.434 300.594 142.084 303.349L143.679 302.914C142.519 302.914 141.359 302.914 140.198 303.059L143.534 304.51C139.473 299.869 131.063 294.214 125.843 300.304C121.783 305.09 119.028 316.11 128.018 317.415C132.223 317.995 135.413 314.37 137.298 311.035C138.168 309.44 136.283 307.555 134.978 307.12C133.383 306.395 131.643 306.83 130.628 308.28C128.888 311.325 128.598 315.385 131.353 317.995C133.673 320.315 137.443 320.895 140.344 319.3C141.794 318.285 143.099 316.835 143.824 315.24L137.008 313.21C136.863 314.805 137.008 316.255 137.443 317.85C138.458 321.185 142.084 322.925 145.419 321.91C145.564 321.91 145.564 321.91 145.709 321.765C147.884 320.605 149.624 319.01 150.929 316.835C151.799 315.53 152.669 314.08 153.539 312.63C154.409 311.035 152.524 309.295 151.219 308.715C149.624 307.99 147.884 308.425 146.869 309.875C146.434 310.745 145.854 311.615 145.274 312.63C145.564 312.195 144.984 313.065 144.839 313.21C144.549 313.645 144.259 313.935 143.969 314.37C143.389 315.095 142.809 315.82 142.084 316.4C141.794 316.69 142.519 316.11 142.084 316.4C141.939 316.545 141.794 316.545 141.504 316.69C141.649 316.545 142.084 316.545 141.649 316.545C141.504 316.545 142.374 316.545 142.519 316.545C143.099 316.69 143.679 316.98 144.114 317.415C144.259 317.56 144.404 317.995 144.259 317.56C144.114 317.125 144.404 318.285 144.259 317.705C144.259 317.56 144.114 317.27 144.114 317.125C144.114 316.98 143.969 315.965 143.969 316.69C143.969 316.4 143.969 315.965 143.969 315.53C143.969 315.095 143.969 314.805 143.969 314.515C144.259 311.325 138.748 309.585 137.153 312.485L137.008 312.63C136.718 313.065 137.443 312.05 137.008 312.63C136.573 313.21 136.138 313.645 135.703 314.225C135.413 314.515 135.993 314.08 135.703 314.225L135.123 314.515C134.833 314.66 134.978 314.515 135.123 314.515C134.688 314.515 134.978 314.515 135.268 314.515C135.558 314.515 135.848 314.515 135.993 314.66C135.268 314.515 136.283 314.95 135.993 314.66C135.703 314.37 136.428 315.095 136.138 314.805C135.848 314.515 136.573 315.53 136.138 314.805C135.703 314.08 136.138 314.95 136.138 314.95C136.138 314.805 135.993 314.66 135.993 314.515C136.138 315.24 135.993 314.37 135.993 314.08C135.993 313.79 135.993 313.5 136.138 313.21C135.993 313.79 136.138 313.21 136.283 312.92C136.428 312.195 136.718 311.615 137.153 311.035L130.483 308.28C130.483 308.28 130.338 308.425 130.338 308.57C130.338 308.715 129.758 309.295 130.483 308.425L130.338 308.715C129.903 309.44 129.323 310.165 128.743 310.745C128.598 310.89 127.728 311.615 128.163 311.325L127.728 311.615L127.583 311.76C127.293 311.905 127.293 311.905 127.728 311.76C127.583 311.76 127.438 311.905 127.293 311.905C127.293 311.905 128.598 312.05 128.018 311.905C128.598 311.905 129.033 312.195 129.323 312.63C128.743 312.05 129.613 313.21 129.323 312.485C129.758 313.21 129.468 312.485 129.323 312.195C129.178 311.615 129.323 312.775 129.323 312.195C129.323 312.05 129.323 311.905 129.323 311.76C129.323 311.325 129.323 310.89 129.468 310.455C129.468 310.31 129.758 309.15 129.613 309.875C129.758 309.44 129.758 309.15 129.903 308.715C130.193 307.845 130.483 307.12 130.918 306.395C131.063 306.105 131.208 305.815 131.498 305.525C131.788 304.799 131.208 305.96 131.643 305.38L131.933 305.09C132.078 304.8 132.368 304.509 132.658 304.219L133.093 303.784C133.238 303.639 133.673 303.349 133.093 303.784C133.383 303.639 133.528 303.494 133.818 303.349C133.818 303.494 133.093 303.639 133.528 303.494C132.803 303.494 133.963 303.349 133.528 303.494C134.253 303.494 133.528 303.494 133.383 303.494L134.108 303.639C133.963 303.639 133.383 303.349 133.963 303.639C134.253 303.784 134.543 303.929 134.833 304.074C134.108 303.639 135.413 304.219 134.833 304.074C134.978 304.219 135.123 304.219 135.268 304.364C135.703 304.654 135.993 304.945 136.428 305.09L137.008 305.525C136.428 305.089 136.718 305.38 136.863 305.38L137.878 306.25C139.328 307.7 140.489 309.005 142.954 308.86C143.969 308.86 144.984 308.86 145.854 308.715C146.724 308.57 147.594 308.28 148.319 307.7C148.464 307.7 148.754 307.555 148.899 307.555C149.044 307.555 149.334 307.555 148.899 307.555C149.189 307.555 149.189 307.555 149.044 307.555C148.609 307.265 149.189 307.845 149.334 307.555C148.754 307.41 148.754 307.41 149.044 307.555L149.189 307.7C148.174 307.12 148.899 307.555 149.044 307.7C149.624 308.135 149.044 307.555 148.899 307.555C148.754 307.555 149.479 308.135 149.479 308.135C149.769 308.425 148.899 307.41 149.189 307.845C150.204 309.44 152.089 310.165 153.974 309.875C155.279 309.585 156.004 308.425 155.714 307.12C155.134 306.83 154.989 306.54 154.989 306.105Z" fill="#262626"/>
<path d="M144.839 306.104C144.839 306.104 141.069 311.325 140.634 314.805L144.839 306.104Z" fill="white"/>
<path d="M142.809 304.364C141.939 305.524 141.214 306.684 140.634 307.844C139.473 309.73 138.603 311.905 138.313 314.08C138.313 315.53 139.183 316.69 140.634 317.125C141.649 317.56 142.809 316.98 143.099 316.11C143.099 315.965 143.244 315.82 143.244 315.675C143.244 315.385 143.389 315.095 143.389 314.805L143.244 315.385C143.824 313.21 144.839 311.18 146.144 309.294L145.854 309.73C146.144 309.15 146.579 308.569 147.014 307.989C147.739 306.829 147.449 305.379 146.434 304.654C145.419 303.929 143.679 303.204 142.809 304.364Z" fill="#262626"/>
<path d="M138.893 305.959C136.283 307.41 134.253 309.585 132.948 312.195L138.893 305.959Z" fill="white"/>
<path d="M137.15 303.785C135.41 304.655 133.96 305.96 132.655 307.555C132.075 308.425 131.495 309.295 131.06 310.165C130.915 310.455 131.35 311.18 131.35 311.47C131.64 312.05 132.075 312.63 132.51 313.21C132.8 313.645 133.235 314.08 133.815 314.225L134.105 314.37C134.25 314.37 134.395 314.37 134.395 314.08L134.83 313.355L134.685 313.5C135.845 311.325 137.586 309.585 139.761 308.28L140.196 307.99C140.486 307.845 140.196 307.12 140.196 306.975C139.906 306.395 139.616 305.815 139.181 305.235C138.746 304.655 138.311 304.22 137.876 303.785C137.876 303.93 137.586 303.64 137.15 303.785Z" fill="#262626"/>
<path d="M149.19 308.715L147.74 311.18L147.595 311.47C147.45 311.615 147.595 311.76 147.74 311.905C147.885 312.05 148.03 312.195 148.175 312.195C148.465 312.34 148.61 312.34 148.9 312.34C149.19 312.34 149.48 312.34 149.77 312.34C150.495 312.195 151.22 312.05 151.8 311.76L152.235 311.47C152.525 311.325 152.67 311.035 152.815 310.745L154.265 308.28L154.41 307.99C154.41 307.845 154.41 307.7 154.265 307.555C154.12 307.41 153.975 307.265 153.83 307.265C153.54 307.12 153.395 307.12 153.105 307.12C152.815 307.12 152.525 307.12 152.235 307.12C151.51 307.265 150.785 307.41 150.205 307.7L149.77 307.99C149.48 308.28 149.335 308.425 149.19 308.715Z" fill="#262626"/>
<path d="M31.5911 503.164C31.5911 503.164 60.0117 290.154 90.1725 294.504C90.1725 294.504 107.428 292.474 115.983 305.96C124.538 319.445 141.939 451.398 133.673 501.424C133.673 501.424 63.2018 523.755 31.5911 503.164Z" fill="white"/>
<path d="M34.7805 504.614C35.7955 497.219 36.8106 489.824 37.9706 482.574C40.5806 465.173 43.4807 447.773 46.6708 430.373C50.4409 409.492 54.646 388.757 59.5761 368.166C63.7812 350.766 68.4213 333.075 75.5265 316.545C77.7015 311.035 80.6016 305.815 84.2267 301.174C85.5317 299.579 86.9817 298.274 88.7218 297.114C89.4468 296.679 90.1718 296.389 90.8968 296.244C91.3318 296.099 91.6218 296.099 92.0569 296.099H92.9269C95.972 295.954 99.017 296.244 102.062 296.679C103.222 296.824 104.237 297.114 105.397 297.549C105.542 297.549 106.412 297.984 105.832 297.694C106.412 297.984 107.137 298.419 107.717 298.854C110.037 300.595 111.922 302.625 113.227 305.09C115.837 309.875 116.852 315.82 118.012 321.04C122.798 342.79 125.553 365.121 128.018 387.307C131.063 413.117 132.513 439.218 132.658 465.318C132.803 475.759 132.223 486.199 130.918 496.494C130.773 497.364 130.773 499.394 130.338 499.829C129.758 500.119 129.033 500.409 128.308 500.409C125.118 501.279 121.928 502.149 118.738 503.019C108.007 505.774 96.987 507.804 85.9667 508.964C73.2064 510.414 59.8661 510.994 47.1058 508.384C44.4957 507.949 41.8857 507.224 39.4206 506.354C38.4056 506.064 37.3906 505.629 36.5206 505.194C37.1006 505.484 35.5055 504.614 35.7955 504.759C35.2155 504.469 34.6355 504.179 34.2005 503.744C32.7505 502.874 31.1554 502.004 29.5604 501.569C28.5454 501.279 28.1104 501.424 29.2704 502.294C44.6407 512.154 63.2012 514.04 81.0366 513.17C96.697 512.154 112.357 509.689 127.438 505.629C130.628 504.759 133.818 504.034 136.863 503.019H137.008C140.053 484.749 139.473 465.898 138.748 447.628C137.878 425.007 135.848 402.532 133.238 380.056C131.063 361.786 128.598 343.37 124.683 325.245C123.668 320.025 122.363 314.95 120.478 309.875C116.997 301.174 106.992 296.244 98.437 294.069C94.9569 293.199 91.4769 292.764 87.9968 292.909H87.2718C87.8518 292.909 86.8367 292.909 86.5467 292.909C85.9667 292.909 85.2417 292.909 84.6617 293.054C81.4716 293.924 79.0066 296.534 76.9765 299.144C74.0764 303.205 71.6114 307.7 69.7263 312.34C66.9713 318.575 64.6512 324.955 62.6212 331.335C57.401 347.286 53.486 363.671 49.8609 380.056C45.9458 397.602 42.4657 415.292 39.4206 432.983C36.8106 447.628 34.3455 462.418 32.1704 477.209C31.0104 484.894 29.8504 492.724 28.8354 500.409C28.8354 500.699 28.6904 501.134 28.6904 501.424C28.1104 503.019 34.7805 504.759 34.7805 504.614Z" fill="#262626"/>
<path d="M111.053 361.641C111.053 361.641 119.028 397.166 135.413 395.571C151.799 393.976 154.844 376.141 154.844 376.141L142.228 374.981C142.228 374.981 125.843 298.709 101.772 300.594" fill="white"/>
<path d="M107.571 361.061C109.456 370.196 112.936 378.751 118.011 386.436C119.606 388.901 121.636 391.076 123.956 392.816C127.001 394.847 130.337 396.007 133.962 396.297C141.212 397.167 148.462 394.267 152.957 388.466C155.712 384.986 157.597 380.926 158.467 376.576C158.612 375.851 154.262 375.271 153.972 375.271L141.357 374.111L145.852 375.416C143.822 366.281 141.357 357.291 138.457 348.445C135.992 340.905 133.237 333.51 129.902 326.26C127.146 319.735 123.376 313.5 118.881 307.989C114.096 302.189 106.846 299.144 99.3058 299.579C98.1457 299.724 98.0007 300.014 99.1608 300.449C100.756 301.029 102.496 301.319 104.236 301.174C104.526 301.174 104.816 301.174 105.106 301.174C104.961 301.174 104.816 301.174 104.671 301.174L103.656 301.029C103.221 301.029 103.511 301.029 103.656 301.029C104.381 301.319 103.076 300.884 103.801 301.029C104.671 301.464 105.686 301.899 106.556 302.334C108.876 303.929 110.906 305.814 112.646 307.989C116.996 313.5 120.476 319.445 123.086 325.97C128.596 338.73 133.092 351.781 136.427 365.266C137.152 368.311 137.877 371.211 138.602 374.256C138.747 375.271 142.372 375.561 143.097 375.561L155.712 376.721L151.217 375.416C149.622 384.696 142.517 393.687 132.802 394.557C131.932 394.557 131.932 394.556 132.802 394.701C133.382 394.847 133.962 394.992 133.092 394.701C131.932 394.121 130.917 393.541 129.902 392.671C127.871 390.931 126.131 389.046 124.681 386.726C121.636 381.941 119.171 376.721 117.431 371.356C116.271 368.311 115.401 365.121 114.676 361.931C114.531 361.061 111.921 360.771 111.196 360.771C111.051 361.061 107.426 360.626 107.571 361.061Z" fill="#262626"/>
<path d="M110.039 302.334C110.039 302.334 105.544 298.419 98.0037 311.18C90.4635 323.94 90.4635 350.186 90.4635 350.186C90.4635 350.186 78.7182 353.811 72.3381 348.156C65.9579 342.5 79.5882 296.389 89.4485 294.069C99.3087 291.749 110.039 302.334 110.039 302.334Z" fill="#F5EE30"/>
<path d="M112.937 301.174C105.542 294.794 97.5669 304.799 94.3768 310.6C89.3017 319.735 87.9966 331.045 87.2716 341.485C86.9816 344.385 86.9816 347.285 86.9816 350.331L88.4316 348.155C89.3017 347.865 89.1567 348.01 88.5767 348.155C87.9966 348.3 87.4166 348.445 86.8366 348.59C85.2416 348.88 83.5015 349.025 81.9065 349.025C80.0214 349.17 78.1364 348.735 76.3964 347.865C76.1064 347.72 75.8163 347.43 75.3813 347.14C75.0913 346.85 75.6713 347.14 75.2363 346.995C74.8013 346.85 75.5263 347.43 75.3813 347.14C75.2363 346.85 75.2363 346.705 75.0913 346.56C74.8013 345.98 75.2363 346.995 75.0913 346.56C75.0913 346.415 74.9463 346.125 74.9463 345.98C74.8013 345.4 74.8013 344.965 74.6563 344.385C74.5113 343.225 74.5113 342.21 74.6563 341.05C74.8013 337.86 75.3813 334.67 75.9613 331.625C77.4114 324.375 79.5864 317.27 82.4865 310.455C83.6465 307.41 85.0966 304.654 86.8366 301.899C87.5616 300.739 88.2866 299.724 89.1567 298.709C89.5917 298.129 89.0117 298.854 89.4467 298.419L90.0267 297.839C90.4617 297.549 90.7517 297.259 91.1867 296.969C90.4617 297.549 91.1867 296.969 91.3317 296.969C91.9117 296.969 90.4617 296.969 91.4767 296.969C92.4917 296.824 93.5068 296.679 94.5218 296.824C96.6968 297.114 98.7269 297.839 100.612 298.999C102.497 300.014 104.237 301.174 105.832 302.479L106.702 303.204C106.122 302.624 106.847 303.349 106.992 303.494L107.572 304.074C108.877 305.379 110.907 305.814 112.647 305.089C113.807 304.654 114.242 303.494 113.952 302.334C113.807 302.044 113.662 301.754 113.372 301.464C107.282 295.664 98.4369 290.589 89.7367 291.749C83.3565 292.619 79.8764 299.434 77.4114 304.799C73.7863 312.34 71.1762 320.315 69.4362 328.58C68.5662 332.205 67.9862 335.83 67.6962 339.455C67.4061 342.21 67.6962 345.11 68.5662 347.72C70.4512 352.361 76.8314 353.811 81.1815 354.246C85.2416 354.536 89.1567 354.101 93.0718 352.796C93.9418 352.506 94.6668 351.636 94.5218 350.621V350.186C94.5218 349.606 94.5218 350.766 94.5218 350.331C94.5218 350.041 94.5218 349.896 94.5218 349.606C94.5218 348.3 94.6668 346.85 94.6668 345.545C94.9568 341.195 95.2468 336.845 95.9718 332.495C96.6968 327.565 97.7119 322.78 99.3069 318.14C100.902 313.5 103.512 309.15 107.137 305.814C107.717 305.379 108.297 304.944 108.877 304.654C109.457 304.364 108.442 304.654 109.167 304.509C108.297 304.509 109.892 304.364 109.167 304.509C109.167 304.509 108.152 304.364 108.877 304.509C108.587 304.364 107.862 304.219 108.442 304.364C108.732 304.509 107.427 303.784 108.007 304.074C108.297 304.219 108.587 304.509 107.427 303.639C108.732 304.944 110.762 305.379 112.502 304.654C113.662 304.364 114.242 303.204 113.952 302.044C113.517 301.754 113.227 301.319 112.937 301.174Z" fill="#F5EE30"/>
<path d="M86.8364 349.895V357.726C86.9814 358.596 87.7064 359.176 88.4315 359.176C88.8665 359.321 89.3015 359.176 89.7365 359.031C90.0265 358.886 90.3165 358.596 90.3165 358.306V350.475C90.1715 349.605 89.5915 349.025 88.7215 349.025C88.2865 348.88 87.8515 349.025 87.4164 349.17C87.1264 349.315 86.8364 349.46 86.8364 349.895Z" fill="#262626"/>
<path d="M81.6157 350.621V355.116C81.6157 355.406 81.7607 355.696 81.9057 355.986C82.0507 356.421 82.3407 356.856 82.6307 357.146C82.7757 357.436 83.0658 357.726 83.3558 358.016C83.3558 358.016 83.6458 358.306 83.6458 358.016V353.521C83.6458 353.231 83.5008 352.941 83.3558 352.651C83.2108 352.216 82.9207 351.781 82.6307 351.491C82.4857 351.201 82.1957 350.911 81.9057 350.621C81.9057 350.621 81.6157 350.331 81.6157 350.621Z" fill="#262626"/>
<path d="M75.5245 351.781L74.3645 355.841C74.2195 356.276 74.3645 356.566 74.6545 356.856C74.9445 357.146 75.3795 357.291 75.8145 357.291C76.6846 357.291 77.5546 356.711 77.8446 355.841L79.0046 351.781C79.1496 351.346 79.0046 351.056 78.7146 350.766C78.4246 350.476 77.9896 350.331 77.5546 350.331C76.5396 350.186 75.8145 350.911 75.5245 351.781Z" fill="#262626"/>
<path d="M69.5796 347.865L68.4196 352.651C68.2746 353.521 68.8546 354.391 69.5796 354.681C70.1596 354.971 71.3197 355.261 71.4647 354.391L72.6247 349.605C72.7697 348.735 72.1897 347.865 71.4647 347.575C70.8846 347.285 69.7246 346.995 69.5796 347.865Z" fill="#262626"/>
<path d="M120.189 255.934C117.869 256.079 116.854 256.224 112.069 253.323C108.154 251.003 104.239 246.363 99.0186 240.128C99.0186 240.128 72.4829 259.269 63.7827 267.969C63.7827 267.969 73.2079 289.139 80.6031 296.099C87.9983 303.06 112.069 294.939 112.069 294.939C113.084 294.069 114.099 287.689 114.824 286.819C120.044 281.019 121.204 272.609 118.014 265.504C118.014 265.504 126.569 262.314 129.614 259.559C132.224 257.529 129.904 255.209 120.189 255.934Z" fill="white"/>
<path d="M117.869 253.323C114.969 253.468 112.069 252.308 110.039 250.278C106.559 247.088 103.514 243.753 100.614 239.983C100.179 239.403 97.5686 236.793 96.5536 237.663C87.2734 244.333 77.9931 251.293 69.2929 258.543C66.5379 260.719 63.9278 263.039 61.4628 265.504C61.3178 265.794 61.3178 266.084 61.4628 266.229C63.9278 271.594 66.5379 276.959 69.5829 282.179C71.613 285.949 74.0781 289.574 76.6881 292.909C79.2982 296.244 82.3433 299.289 86.4034 300.594C93.3635 302.77 101.484 301.029 108.444 299.434C110.619 298.999 112.649 298.419 114.679 297.694C115.549 297.259 115.839 296.534 116.129 295.664C116.709 293.924 116.999 291.894 117.579 290.154C118.159 289.139 118.739 288.124 119.609 287.254C121.929 283.774 123.234 279.569 123.089 275.364C122.944 272.319 122.219 269.419 120.914 266.809V268.259C122.944 267.534 124.974 266.664 126.859 265.794C128.744 264.924 132.514 263.474 133.529 261.299C134.834 258.688 130.484 255.498 128.599 254.628C125.264 252.888 121.349 253.033 117.869 253.323C116.709 253.468 118.594 255.788 118.884 256.078C119.754 256.948 121.349 258.688 122.654 258.543C124.249 258.398 125.989 258.398 127.584 258.398C128.744 258.398 129.614 258.833 130.774 258.978C131.644 259.413 131.209 258.978 129.469 257.528C129.324 257.383 127.874 255.933 128.019 255.933C128.164 255.933 128.019 256.223 127.874 256.368C127.439 257.093 126.859 257.528 126.279 257.963C123.089 260.138 119.609 261.734 115.984 263.039C115.259 263.329 115.694 263.909 115.984 264.489C115.839 263.909 115.839 264.199 115.984 264.489C116.129 265.069 116.274 265.359 116.419 265.794C116.854 267.244 117.144 268.694 117.289 270.144C117.724 274.784 116.419 279.569 113.519 283.339C112.504 284.644 111.779 286.094 111.489 287.689C111.199 289.284 110.764 290.879 110.039 292.474C109.894 292.764 109.894 292.764 109.169 293.054L106.559 293.779C100.179 295.519 93.3635 296.969 86.6934 296.534C85.2433 296.534 83.7933 296.244 82.3433 295.809C81.9082 295.664 81.6182 295.519 81.1832 295.229L81.0382 295.084C81.1832 295.229 81.3282 295.229 81.4732 295.374C81.9082 295.664 81.3282 295.374 81.4732 295.229C81.6182 295.084 81.9082 295.664 81.6182 295.374L81.1832 294.794C79.0082 292.039 76.9781 289.139 75.2381 286.094C72.193 280.874 69.4379 275.364 66.9729 269.854V270.579C71.903 265.939 77.1231 261.444 82.6333 257.383C87.9984 253.178 93.3635 249.118 98.7286 245.203L102.064 242.738L98.0036 240.418C101.919 245.203 105.979 249.988 110.909 253.758C114.389 256.368 118.449 258.833 122.799 258.543C124.104 258.398 122.074 256.078 121.784 255.788C120.769 254.918 119.174 253.323 117.869 253.323Z" fill="#262626"/>
<path d="M107.864 255.788C107.574 255.063 106.849 254.628 106.124 254.773C105.834 254.918 105.689 255.208 105.544 255.353L106.124 257.528C107.139 258.253 108.3 257.093 107.864 255.788Z" fill="#262626"/>
<path d="M105.542 257.238C105.687 257.383 105.832 257.528 105.977 257.673L105.397 255.498C104.962 255.933 105.107 256.658 105.542 257.238Z" fill="#262626"/>
<path d="M105.831 271.594C106.846 272.754 108.151 273.769 109.601 274.349C113.081 275.944 116.706 275.074 119.751 273.044C120.331 272.754 120.766 272.319 121.201 271.884C121.346 271.739 121.781 271.304 121.491 271.014C121.056 270.289 119.026 271.449 118.736 271.594L118.446 271.739L118.591 271.594C118.446 271.594 118.301 271.884 118.156 271.884C118.446 271.739 118.591 271.739 118.301 271.739L118.156 271.884C118.011 271.884 118.011 271.884 118.301 271.884L118.011 272.029L117.576 272.174C118.011 272.174 117.431 272.174 117.286 272.174H116.416C116.126 272.174 115.981 272.174 115.691 272.029C115.401 272.029 115.111 271.884 114.821 271.739C114.241 271.594 113.806 271.304 113.226 271.159C112.066 270.579 111.196 269.854 110.326 268.839C109.746 268.114 108.006 269.129 107.571 269.419C106.991 269.709 106.556 270.144 106.121 270.579C105.976 270.869 105.541 271.304 105.831 271.594Z" fill="#262626"/>
<path d="M112.212 289.864C112.212 289.864 99.7416 292.184 92.4915 285.224C85.2413 278.264 83.0663 267.534 83.0663 267.534C91.7665 258.834 100.467 238.968 100.467 238.968C92.6365 232.588 81.6162 232.153 73.206 237.808C57.9807 247.378 57.8357 263.039 62.3308 280.439C66.8259 297.839 75.9611 298.564 75.9611 298.564C75.9611 298.564 67.2609 317.705 75.2361 312.34C104.527 292.474 116.272 305.96 116.997 299.434C117.432 295.374 116.127 290.299 114.967 287.254C114.097 287.979 113.082 288.994 112.212 289.864Z" fill="#F5EE30"/>
<path d="M112.214 286.674C106.994 287.544 100.323 287.109 95.8282 283.484C90.8981 279.424 87.7081 272.464 86.403 266.374L85.533 269.564C90.6081 264.344 94.5232 257.818 98.0033 251.438C100.033 247.813 101.918 244.043 103.513 240.128C104.238 238.823 104.093 237.228 102.933 236.358C98.8733 233.023 93.7982 230.993 88.4331 230.703C78.4278 230.123 68.5676 235.633 62.6225 243.463C57.2573 250.568 55.8073 259.413 56.5323 267.969C56.9673 272.754 57.8373 277.394 58.9974 282.034C60.0124 286.529 61.8974 290.734 64.5075 294.504C66.8276 297.839 70.7427 301.464 74.9478 301.754L72.9177 297.259C71.0327 301.029 69.5826 305.089 68.7126 309.295C68.2776 311.76 67.9876 315.095 70.8876 316.255C72.4827 316.69 74.0777 316.545 75.5278 315.675C77.7028 314.515 79.7329 313.065 81.9079 311.76C88.7231 307.7 96.1182 304.654 103.948 304.219C104.528 304.219 105.253 304.219 105.833 304.219H106.123H106.994C108.009 304.219 109.024 304.364 110.184 304.364C111.779 304.654 113.519 304.655 115.114 304.655C123.959 303.639 120.189 291.169 118.449 285.949C117.579 283.484 114.244 283.484 112.649 285.224C111.779 286.239 110.764 287.109 109.894 288.124C108.589 289.284 108.589 291.314 109.749 292.474L109.894 292.619C111.489 293.634 113.519 293.344 114.824 291.894C115.839 291.024 116.709 290.009 117.579 289.139L111.779 288.414C112.504 290.444 113.084 292.619 113.519 294.794C113.664 295.664 113.809 296.679 113.809 297.549C113.809 298.129 113.809 298.709 113.809 299.289C113.809 300.884 113.954 298.709 113.809 299.434C113.664 300.159 114.099 298.854 113.954 299.289C114.099 298.999 114.389 298.564 114.824 298.419C114.679 298.564 115.984 297.984 115.114 298.274C116.274 297.839 115.694 298.129 115.259 298.129C114.534 298.129 116.274 298.274 115.259 298.129H114.389C113.664 298.129 112.939 297.984 112.069 297.984C109.894 297.839 107.719 297.694 105.688 297.839C99.1633 298.129 92.6382 299.869 86.693 302.624C82.1979 304.799 77.7028 307.265 73.6427 310.02C73.4977 310.165 73.3527 310.165 73.2077 310.31C73.4977 310.165 74.0777 309.875 73.2077 310.31C73.7877 310.165 73.4977 310.02 74.2227 310.165C74.8027 310.31 75.3828 310.6 75.6728 311.035C75.3828 310.6 75.9628 311.76 75.8178 311.325C75.6728 310.89 75.8178 311.615 75.8178 311.615C75.8178 311.18 75.8178 310.6 75.8178 310.165C75.6728 311.035 75.8178 310.165 75.8178 310.02C75.9628 309.73 75.9628 309.295 76.1078 309.005C76.2528 308.715 76.3978 307.845 76.5428 307.265C76.9778 305.96 77.4128 304.799 77.8478 303.639C78.1378 303.059 78.2828 302.479 78.5728 301.899L78.8628 301.319C79.0078 300.884 79.1528 300.449 79.4429 300.014C80.3129 298.129 79.7329 295.809 77.4128 295.519C77.2678 295.519 76.8328 295.374 76.8328 295.374C76.8328 295.374 77.7028 295.664 76.9778 295.374C76.6878 295.229 76.3978 295.084 75.9628 294.939C75.5278 294.794 74.8027 294.359 75.2378 294.649C75.6728 294.939 74.6577 294.214 74.5127 294.069C74.0777 293.779 73.6427 293.489 73.3527 293.054L72.7727 292.474C72.7727 292.474 72.1927 291.749 72.4827 292.184C67.2626 286.384 65.6675 277.974 64.5075 270.724C63.3475 263.764 63.3475 256.078 66.6825 249.698C70.4526 242.593 77.4128 237.953 85.243 237.083C88.5781 236.938 91.9131 237.663 94.8132 239.258C95.6832 239.693 96.5533 240.128 97.2783 240.708C97.7133 240.998 98.0033 241.288 98.4383 241.578L97.8583 237.808C96.4083 241.143 94.8132 244.333 93.0732 247.523C90.3181 253.178 86.838 258.543 82.9229 263.619C81.7629 264.924 79.8779 266.229 79.8779 268.114C79.8779 268.694 80.0229 269.274 80.1679 269.999C80.7479 272.319 81.6179 274.639 82.6329 276.814C85.533 283.339 90.0281 289.574 97.1333 292.039C102.063 293.634 107.284 294.069 112.504 293.199C114.389 292.909 115.839 291.459 115.984 289.574C115.984 287.979 114.679 286.674 113.084 286.674C112.504 286.529 112.359 286.529 112.214 286.674Z" fill="#F5EE30"/>
<path d="M170.799 341.34C171.669 337.28 170.364 333.22 167.319 330.465C165.869 329.015 163.839 328.29 161.809 328.58C159.634 329.015 158.619 331.19 157.604 333.075C155.574 336.7 154.124 340.615 153.399 344.675C152.818 348.881 153.979 353.086 156.299 356.421C157.314 357.871 159.199 358.161 160.649 357.291C160.939 357.001 161.229 356.856 161.519 356.421C164.564 351.926 164.999 346.126 162.389 341.34C159.634 336.265 153.254 332.64 148.033 336.41C145.858 338.15 144.263 340.615 143.828 343.515C143.248 346.416 142.668 350.186 144.698 352.651C145.713 354.101 147.598 354.536 149.193 353.956C150.643 353.086 151.658 351.781 151.948 350.186C152.673 347.431 152.528 344.53 151.513 341.92C149.628 336.41 143.683 328.435 137.013 331.915C133.388 333.8 136.578 340.325 140.203 338.44C142.233 337.425 143.973 340.47 144.698 341.775C145.423 342.935 145.858 344.095 146.003 345.4C146.003 345.835 146.003 346.271 146.003 346.706C146.003 346.996 145.858 347.286 145.713 347.576C145.568 348.156 144.988 347.866 146.003 347.431L147.598 347.141L147.888 347.286L149.338 348.446C149.483 348.881 149.628 349.171 149.773 349.606V348.591C149.773 347.866 149.918 347.141 149.918 346.561C150.063 345.4 150.498 344.385 151.078 343.515C151.803 342.21 153.544 341.775 154.849 342.645C156.299 343.515 157.314 345.255 157.314 346.996C157.459 348.881 156.879 350.911 155.574 352.361H160.649C159.634 350.621 159.199 348.736 159.489 346.851C159.779 344.53 160.359 342.355 161.519 340.325C162.099 339.02 162.824 337.86 163.404 336.555L163.984 335.395C164.129 335.685 162.969 335.685 162.969 335.54C162.969 335.395 163.694 336.265 163.694 336.265L163.839 336.41C163.984 336.7 164.129 336.845 164.129 337.135C163.839 336.41 164.274 338.15 164.274 337.57C164.274 338.005 164.274 338.295 164.274 338.73C163.839 340.615 164.709 342.5 166.449 343.37C167.899 344.095 169.639 343.37 170.219 341.92C170.799 341.775 170.944 341.63 170.799 341.34Z" fill="#F5EE30"/>
<path d="M442.536 452.123C442.536 452.123 452.976 432.692 452.976 429.067C452.976 425.442 447.176 416.017 447.176 416.017C447.176 416.017 465.446 409.782 468.636 411.812C471.826 413.842 477.481 427.037 477.481 432.257C477.481 437.477 466.461 453.718 461.821 455.168C457.181 456.618 432.095 460.388 442.536 452.123Z" fill="white"/>
<path d="M446.014 452.703C448.334 448.353 450.509 444.003 452.684 439.653C453.989 436.898 455.294 434.142 456.164 431.242C456.889 428.632 456.019 426.457 455.004 423.992C453.699 421.237 452.249 418.482 450.654 415.872L449.639 417.177C455.004 415.147 460.514 413.697 466.025 412.827C466.605 412.682 465.735 412.827 466.46 412.827C466.895 412.827 467.33 412.827 466.605 412.827C467.185 412.827 466.17 412.682 466.315 412.682C466.025 412.537 465.735 412.392 465.59 412.392C465.445 412.392 465.59 412.247 465.735 412.537C466.75 413.697 467.62 415.002 468.345 416.307C470.52 420.222 472.26 424.282 473.42 428.632C474.145 431.532 473.71 434.577 472.26 437.188C470.375 440.958 468.055 444.583 465.445 447.918C464.285 449.368 462.98 450.818 461.675 452.268C461.239 452.703 460.659 453.138 460.079 453.573C459.934 453.718 459.644 453.863 459.354 454.008C458.919 454.298 459.209 454.153 459.064 454.153C458.629 454.298 458.194 454.443 457.759 454.443C457.034 454.588 458.049 454.443 457.469 454.443L456.309 454.733C454.859 455.023 453.264 455.313 451.814 455.458C449.639 455.748 448.769 455.748 446.739 455.893H445.289H444.854C444.419 455.893 445.579 455.893 444.854 455.893H443.694C443.259 455.893 443.984 455.893 443.984 455.893L443.404 455.748H443.259C443.984 455.893 443.114 455.748 443.114 455.748C443.114 455.748 443.694 456.038 443.404 455.893C443.404 455.748 443.114 455.893 443.259 455.458C443.694 454.298 444.999 453.283 446.014 452.703C446.884 451.833 443.839 450.818 443.549 450.818C441.954 450.383 440.359 450.673 439.054 451.543C436.879 453.283 434.994 455.893 438.329 457.488C441.664 459.083 445.869 458.938 449.494 458.793C453.264 458.648 457.034 458.068 460.804 457.343C463.85 456.908 466.75 455.603 468.925 453.428C472.26 450.093 475.015 446.323 477.335 442.118C479.075 439.073 481.54 435.302 481.25 431.677C480.525 426.892 479.075 422.252 476.61 418.047C474.87 414.422 472.84 410.797 468.635 410.217C463.705 409.492 458.484 410.942 453.699 412.102C450.654 412.972 447.609 413.842 444.709 414.857C444.274 415.002 443.259 415.437 443.694 416.162C444.999 418.337 446.159 420.512 447.174 422.687C448.189 424.862 449.784 427.617 449.059 430.227C448.189 432.837 447.174 435.447 446.014 437.768C444.564 440.668 443.114 443.713 441.664 446.613C440.794 448.208 439.924 449.948 439.054 451.543C438.184 453.138 445.144 454.443 446.014 452.703Z" fill="#262626"/>
<path d="M423.828 454.588C423.828 454.588 434.268 435.158 434.268 431.532C434.268 427.907 428.468 418.482 428.468 418.482C428.468 418.482 446.738 412.247 449.928 414.277C453.118 416.307 458.773 429.502 458.773 434.723C458.773 439.943 447.753 456.183 443.113 457.778C438.473 459.373 413.387 462.998 423.828 454.588Z" fill="white"/>
<path d="M427.458 454.733C429.778 450.383 431.953 446.033 434.128 441.683C435.433 439.073 436.594 436.318 437.609 433.417C438.479 430.662 437.464 428.342 436.304 425.732C434.998 422.977 433.548 420.222 431.953 417.612L429.778 420.367C431.808 419.642 433.838 419.062 435.724 418.482C437.464 417.902 439.349 417.467 441.089 417.032C441.524 416.887 441.959 416.887 442.394 416.742L443.264 416.597C444.134 416.452 445.004 416.307 446.019 416.162L447.034 416.017C447.469 416.017 446.744 416.017 446.744 416.017H447.324C447.469 416.017 447.614 416.017 447.759 416.017C447.904 416.017 447.034 415.872 447.469 416.017C448.049 416.162 447.179 415.872 447.179 415.872C447.179 416.162 447.904 416.597 448.049 416.887C448.629 417.612 449.064 418.337 449.644 419.207C451.964 422.977 453.559 427.037 454.719 431.387C455.589 434.142 455.444 437.333 453.994 439.943C452.254 443.713 449.934 447.193 447.469 450.528C446.309 452.123 445.004 453.573 443.699 454.878C443.264 455.313 442.829 455.748 442.249 456.183L441.959 456.473C441.379 456.908 442.104 456.473 442.104 456.473C442.104 456.473 441.814 456.618 441.669 456.618L441.959 456.473L440.654 456.763L439.929 456.908C438.914 457.198 440.364 456.908 439.494 457.053C438.044 457.343 436.449 457.633 434.998 457.778C434.128 457.923 433.113 458.068 432.243 458.068L430.793 458.213H430.358C429.343 458.213 430.793 458.213 430.213 458.213C429.343 458.213 428.473 458.213 427.603 458.213C427.168 458.213 426.733 458.213 426.298 458.213C425.863 458.213 426.588 458.213 426.588 458.213L426.008 458.068L424.993 457.923C425.573 458.068 425.138 458.068 424.848 457.778C425.138 457.923 425.283 458.068 424.848 457.778C425.718 458.503 424.993 457.923 424.993 457.923V458.068C424.848 458.068 425.138 457.633 425.138 457.633C425.573 457.053 426.008 456.618 426.588 456.183C427.313 455.893 427.748 455.023 427.458 454.298C427.313 453.718 426.733 453.428 426.153 453.283C424.413 452.703 422.528 452.848 421.078 454.008C419.048 455.603 415.858 458.793 419.048 460.968C421.803 462.853 426.153 462.563 429.488 462.418C433.258 462.273 436.884 461.693 440.509 460.968C441.814 460.678 443.264 460.388 444.569 459.953C446.454 459.228 448.194 458.068 449.644 456.473C452.979 453.138 455.734 449.368 458.199 445.308C460.084 442.118 462.694 438.203 462.549 434.288C462.404 429.792 460.229 424.862 458.199 420.802C456.604 417.467 454.574 413.117 450.659 412.247C446.019 411.377 440.799 412.972 436.304 414.132C433.258 415.002 430.213 415.872 427.313 416.887C426.298 417.177 424.268 418.192 425.138 419.642C426.443 421.817 427.603 423.847 428.618 426.167C429.343 427.617 429.923 429.212 430.358 430.662C430.503 431.242 430.648 431.822 430.503 432.257C430.503 431.677 430.358 432.837 430.358 433.127C428.763 438.928 425.573 444.438 422.818 449.658C421.948 451.253 421.078 452.993 420.208 454.588C419.338 456.183 422.238 456.618 422.963 456.763C424.848 457.053 426.588 456.183 427.458 454.733Z" fill="#262626"/>
<path d="M427.018 428.922L476.174 413.987L446.303 280.584L390.042 286.239L427.018 428.922Z" fill="#262626"/>
<path d="M426.873 429.067V428.922L389.897 286.094H390.042L446.303 280.294V280.439L476.319 413.987H476.174L426.873 429.067ZM390.332 286.384L427.163 428.632L476.029 413.842L446.158 280.729L390.332 286.384Z" fill="#262626"/>
<path d="M432.239 322.925L439.054 353.521L450.074 402.242L452.539 413.262C452.974 415.147 455.584 415.727 457.034 415.292C458.774 414.857 459.79 413.117 459.355 411.377V411.232L452.394 380.636L441.374 331.915L438.909 320.75C438.474 318.865 435.864 318.285 434.414 318.72C432.819 319.3 431.659 321.04 432.239 322.925C432.094 322.925 432.094 322.925 432.239 322.925Z" fill="white"/>
<path d="M356.256 261.733C347.7 264.053 338.71 260.573 333.925 253.178C326.82 242.013 314.93 223.598 311.304 221.132C305.794 217.217 283.754 209.822 283.464 204.747C283.174 199.672 293.034 200.687 296.079 203.007C296.079 203.007 291.004 196.337 299.269 191.552C299.269 191.552 300.719 183.287 308.114 182.852C313.335 182.562 312.9 188.507 310.289 191.262C307.244 194.307 310.434 201.702 317.105 200.687C325.37 199.237 324.645 193.437 320.295 189.522C318.7 188.217 318.12 185.897 318.99 184.012C320.73 180.387 325.37 182.272 331.315 187.782C337.26 193.292 334.07 205.617 329.865 207.792L347.555 233.893L396.566 210.692L407.152 239.983C407.152 239.983 376.701 256.223 356.256 261.733Z" fill="white"/>
<path d="M354.228 258.978C349.733 260.138 345.093 259.848 340.888 257.963C339.148 257.238 337.553 256.078 336.248 254.628C335.088 253.033 334.073 251.438 333.203 249.843C328.418 242.303 323.632 234.763 318.267 227.658C316.382 225.048 314.352 222.583 312.177 220.262C310.002 218.377 307.682 216.927 305.072 215.767C298.837 212.722 292.167 210.402 286.367 206.632C285.932 206.342 285.497 206.052 285.062 205.617C284.917 205.472 284.772 205.472 284.917 205.617C285.062 205.762 284.772 205.327 285.207 205.907C285.497 206.197 285.787 206.777 286.077 207.212C286.222 207.357 286.077 207.357 286.077 206.922C286.077 206.487 286.222 206.197 286.367 205.762C286.657 205.182 287.237 204.747 287.817 204.457C291.007 203.297 294.487 203.587 297.387 205.327C299.562 206.922 298.257 203.732 297.677 203.007L297.822 203.152C297.532 202.862 297.967 203.732 297.822 203.007C297.677 202.862 297.677 202.572 297.532 202.427C297.097 200.977 297.242 199.382 297.967 197.932C298.547 197.062 299.127 196.192 299.997 195.612C300.577 195.032 301.592 194.742 302.027 194.017C302.462 193.292 302.462 192.277 302.752 191.552C304.202 188.217 307.537 185.317 311.307 185.752C312.467 185.897 312.902 186.622 311.162 184.592C308.697 181.837 310.147 182.997 310.002 183.722C310.002 184.592 309.857 185.462 309.567 186.332C308.987 187.927 307.537 188.797 307.102 190.392C305.797 194.452 309.567 199.092 312.467 201.412C315.947 204.312 320.877 204.312 324.357 201.557C327.548 198.802 325.663 194.597 323.632 191.697C322.907 190.682 322.182 189.812 321.312 188.942C321.167 188.652 321.022 188.507 320.732 188.362C320.007 187.927 321.747 189.377 321.457 189.522C321.167 189.667 321.312 187.782 321.312 187.637C321.457 186.042 322.907 184.882 324.503 185.027H324.648C325.808 185.317 326.823 185.752 327.693 186.332C328.998 187.202 330.013 188.652 331.318 189.232C331.753 189.522 331.173 189.087 331.173 189.087C331.318 189.522 331.463 190.102 331.753 190.537C332.043 191.697 332.188 192.857 332.188 194.017C332.188 197.642 331.028 203.007 327.548 205.037C326.823 205.472 328.418 207.502 328.563 207.647L344.078 230.413L346.253 233.603C346.688 234.328 348.863 237.083 350.023 236.503L392.944 216.202L399.034 213.302L394.249 208.517L403.529 234.183L404.834 237.808V237.083C393.089 243.318 380.909 248.973 368.584 253.903C363.798 255.788 358.868 257.528 353.938 258.978C353.068 259.268 355.243 262.168 355.533 262.458C356.113 263.183 357.563 264.924 358.578 264.634C374.819 260.138 390.479 252.598 405.414 244.913C406.719 244.188 408.169 243.463 409.475 242.883C409.62 242.738 409.62 242.448 409.475 242.158L400.194 216.492L398.889 212.867C398.309 211.562 397.584 210.402 396.569 209.387C396.134 208.952 394.974 207.647 394.104 207.937L351.183 228.238L345.093 231.138L348.863 234.038L333.348 211.272L331.173 208.082L332.188 210.692C335.378 208.807 336.683 203.877 336.973 200.397C337.263 194.887 334.943 189.522 330.738 185.897C328.563 183.722 325.953 181.837 323.197 180.241C321.602 179.516 319.427 178.646 317.832 179.661C315.947 180.822 315.802 183.577 316.527 185.607C317.107 187.202 317.977 188.507 319.137 189.812C319.717 190.392 320.152 190.972 320.732 191.407C320.442 191.117 320.442 190.827 320.587 191.407C321.167 192.857 320.877 194.452 319.862 195.612C317.977 197.352 315.512 198.077 313.047 197.932C312.322 197.787 311.452 197.207 310.872 197.207C311.017 197.207 311.887 198.367 311.887 198.367C311.887 197.932 311.742 197.497 311.597 197.062C311.452 195.032 312.902 194.162 313.772 192.567C316.092 188.217 313.337 182.707 308.987 180.677C305.072 178.791 300.432 181.547 298.547 184.882C298.112 185.607 297.677 186.477 297.387 187.202C297.242 187.782 297.097 188.362 296.952 188.797C296.517 189.377 295.502 189.667 294.922 190.247C293.907 191.117 293.182 192.132 292.747 193.292C291.442 196.482 292.892 200.252 294.922 202.862L295.212 200.542C292.312 198.512 288.832 197.787 285.352 198.367C282.307 198.947 280.421 201.122 281.872 204.167C285.207 211.127 294.052 214.462 300.722 217.507C304.057 219.102 307.537 220.552 310.872 222.292C311.452 222.582 311.742 222.728 312.322 223.018C312.467 223.163 312.612 223.308 312.902 223.453C312.757 223.453 312.032 222.873 312.612 223.163C312.757 223.308 313.337 224.033 312.757 223.308C312.902 223.453 313.192 223.743 313.337 223.888L314.207 224.903C314.207 224.903 314.497 225.338 314.352 225.048C314.207 224.758 314.787 225.628 314.787 225.483C320.442 232.878 325.518 240.708 330.448 248.538C333.783 253.758 337.118 258.833 342.483 262.023C347.413 265.069 353.358 265.939 359.013 264.489C359.738 264.343 355.823 258.543 354.228 258.978Z" fill="#262626"/>
<path d="M306.809 204.457C306.518 203.877 306.229 203.442 305.794 203.007C305.068 202.137 304.488 201.122 303.908 200.107C302.603 197.787 301.298 195.177 301.878 192.567C301.878 192.277 301.443 191.987 301.298 191.842C300.718 191.552 300.138 191.262 299.558 190.972C299.268 190.827 296.948 190.102 296.803 190.682C296.223 193.437 297.528 196.192 298.833 198.512C299.413 199.527 300.138 200.542 300.863 201.557C301.298 201.992 301.588 202.572 301.878 203.152C302.023 203.442 302.748 203.732 302.893 203.877C303.473 204.167 304.198 204.457 304.923 204.602C305.068 204.747 307.099 205.182 306.809 204.457Z" fill="#262626"/>
<path d="M302.899 205.617L299.854 202.282L299.419 201.847C299.274 201.557 298.984 201.267 298.694 201.267C298.404 200.977 297.969 200.832 297.534 200.832C297.099 200.687 296.664 200.687 296.084 200.832C295.649 200.832 295.069 200.977 294.634 201.122L293.764 201.412C293.329 201.702 292.894 201.992 292.604 202.427L292.314 203.007C292.169 203.442 292.314 203.877 292.459 204.167L295.504 207.502L295.939 207.937C296.084 208.227 296.374 208.517 296.664 208.662C296.954 208.952 297.389 209.097 297.824 209.097C298.259 209.242 298.694 209.242 299.274 209.097C299.709 209.097 300.289 208.952 300.724 208.807L301.594 208.517C302.029 208.227 302.464 207.937 302.754 207.502L303.044 206.922C303.189 206.487 303.189 206.052 302.899 205.617Z" fill="#262626"/>
<path d="M410.489 158.636C410.489 158.636 403.384 164.581 397.004 163.276C390.624 161.971 378.443 157.621 375.978 163.856C373.513 170.091 381.778 173.716 387.578 173.571C387.578 173.571 383.373 190.247 392.654 196.482C401.934 202.717 407.009 200.687 406.574 207.792C406.574 207.792 417.014 221.712 420.494 208.807C421.074 206.777 430.064 182.562 415.999 171.976C415.854 172.121 407.734 166.611 410.489 158.636Z" fill="white"/>
<path d="M407.3 158.346C405.415 159.941 402.66 161.826 400.05 162.116C398.455 161.971 396.86 161.681 395.41 161.246C393.235 160.666 391.205 160.231 389.03 159.941C384.68 159.216 379.605 158.926 375.4 161.101C372.355 162.551 371.195 166.176 372.645 169.221C372.79 169.511 373.08 169.946 373.225 170.236C376.125 174.151 382.07 175.311 386.71 175.166L383.955 173.861C382.215 180.677 381.925 189.667 386.71 195.322C388.885 197.497 391.35 199.237 394.105 200.397C396.425 201.267 398.745 202.282 400.92 203.442C402.66 204.602 402.515 206.052 402.805 207.792C403.095 208.807 403.675 209.677 404.4 210.257C407.155 213.302 410.491 215.767 414.696 215.622C417.451 215.767 420.061 214.752 421.946 212.722C422.961 211.272 423.541 209.822 423.976 208.082C426.296 200.397 428.181 192.132 426.586 184.157C425.716 178.937 422.961 174.296 418.901 171.106C414.986 168.061 412.231 163.566 413.826 158.491C414.406 156.606 407.445 156.751 406.72 158.636C405.27 163.131 406.72 168.061 410.346 171.251C411.071 171.976 411.941 172.556 412.811 173.281C414.696 174.876 416.146 176.761 417.306 178.792C421.221 186.477 420.061 196.337 417.886 204.312C417.306 207.067 416.436 209.677 415.131 212.142C414.986 212.432 414.551 212.722 414.406 213.012C414.261 213.302 414.261 213.157 414.261 213.157C414.261 213.157 417.161 212.577 415.566 212.867C416.726 212.722 417.161 213.012 416.291 212.722L415.276 212.287C413.826 211.417 412.666 210.402 411.506 209.242C410.926 208.662 409.765 207.647 409.475 206.922C409.475 206.922 409.62 206.342 409.62 206.197C409.62 205.762 409.62 205.182 409.475 204.747C409.33 203.877 408.895 203.152 408.315 202.572C407.01 201.267 405.27 200.397 403.53 199.817C400.775 198.802 398.165 197.352 395.7 195.757C391.205 192.712 389.9 187.347 389.755 182.127C389.755 180.097 389.9 178.067 390.19 175.891C390.335 175.166 390.335 174.441 390.48 173.861C390.48 173.716 390.77 172.701 390.625 173.281C390.915 171.976 388.74 171.976 387.87 171.976C384.535 171.976 381.49 170.526 379.46 167.916C378.59 166.466 378.445 164.581 379.315 163.131C379.605 162.696 379.895 162.261 380.33 161.971C380.475 161.826 380.62 161.826 380.33 161.971C380.475 161.971 380.765 161.971 380.475 161.971C380.185 161.971 381.055 161.971 380.62 161.971C384.1 162.116 387.435 162.551 390.77 163.421C395.12 164.726 399.905 164.726 404.255 163.421C407.59 162.406 410.635 160.811 413.391 158.636C414.696 157.621 412.666 157.041 411.941 157.041C410.49 157.041 408.75 157.476 407.3 158.346Z" fill="#262626"/>
<path d="M428.468 196.337C428.468 196.337 435.864 201.847 439.054 197.932C442.244 194.017 436.444 192.857 436.444 192.857C436.444 192.857 446.304 186.186 438.474 180.966C438.474 180.966 448.334 176.761 445.434 168.061C442.534 159.361 429.773 159.071 429.773 159.071C429.773 159.071 434.124 149.066 424.843 146.891C415.563 144.715 415.418 151.531 415.418 151.531C415.418 151.531 409.618 150.081 408.023 153.416C406.428 156.751 410.053 159.796 410.053 159.796C410.053 159.796 407.733 170.381 415.853 171.976L418.173 187.347C415.563 189.667 414.258 193.147 414.693 196.627C415.563 202.572 426.293 202.862 428.468 196.337Z" fill="#262626"/>
<path d="M425.132 195.467C426.872 196.627 428.612 197.642 430.642 198.367C433.542 199.527 438.037 201.412 441.082 200.107C443.257 199.092 444.418 196.337 442.242 194.742C439.777 193.147 437.022 192.277 434.122 191.842L439.922 193.872C442.242 192.277 444.998 189.667 444.998 186.622C444.998 185.752 444.708 184.736 444.273 184.011C444.128 183.721 442.097 181.691 441.952 181.981C441.952 181.836 442.822 181.546 442.967 181.546C443.548 181.256 444.127 180.821 444.708 180.386C448.333 177.631 450.363 173.571 448.913 169.076C447.463 164.581 443.112 162.116 438.762 160.521C434.847 158.926 430.787 158.056 426.727 157.911L433.107 160.086C433.832 158.346 434.122 156.461 434.122 154.576C433.977 150.661 431.077 148.631 427.597 147.326C423.247 145.731 412.227 142.83 411.792 150.516L414.402 150.806C411.647 150.081 407.297 149.066 404.977 151.386C403.672 152.981 403.672 155.301 404.977 157.041C405.267 157.621 406.137 158.201 406.427 158.781C406.717 159.361 406.427 158.636 406.427 159.071C406.427 159.941 406.137 161.101 406.137 161.971C406.137 163.421 406.282 164.726 406.717 166.176C408.167 170.671 413.097 171.976 417.302 172.991L412.227 171.106L413.242 178.211L414.112 183.576C414.402 184.446 414.547 185.462 414.547 186.332C414.402 186.912 413.242 187.637 412.952 188.217C411.647 189.957 410.922 192.132 410.922 194.307C411.067 199.527 416.432 200.832 420.637 201.847C424.842 202.862 430.062 201.992 431.657 197.352C431.802 196.917 424.987 194.452 424.697 195.322C423.392 198.802 420.492 199.817 417.157 200.107C420.492 199.817 420.637 201.847 419.042 200.252C418.462 199.672 418.172 198.947 417.882 198.222C417.447 196.192 417.737 194.017 418.607 192.132C419.187 190.972 420.057 189.957 420.927 188.942C421.362 188.362 421.217 188.652 421.217 187.927C420.927 185.316 420.492 182.706 420.057 180.241L419.042 173.281C418.897 172.266 414.692 171.541 413.967 171.396C417.737 172.266 416.287 172.411 415.127 171.106C414.692 170.526 414.257 169.946 413.967 169.366C413.387 168.206 413.097 166.901 413.097 165.596C412.952 164.146 413.097 162.696 413.387 161.246L413.242 161.101C411.357 159.506 410.052 156.606 411.502 154.286C412.372 153.271 413.677 152.691 414.982 152.691C415.562 152.691 415.997 152.691 416.577 152.691C417.302 152.691 416.432 152.691 415.852 152.546C415.997 152.546 418.462 153.271 418.462 152.836C418.607 151.676 418.897 150.661 419.622 149.791C420.347 148.921 421.362 148.196 422.377 147.906C423.102 147.761 423.827 147.616 424.552 147.616C425.132 147.616 426.727 148.051 424.697 147.471C422.667 146.891 423.827 147.181 424.407 147.616C427.597 149.936 427.307 154.866 425.857 158.056C425.567 158.636 431.657 160.231 432.237 160.231C432.817 160.231 433.252 160.231 433.832 160.376C434.267 160.376 434.847 160.521 435.282 160.521C435.572 160.521 435.862 160.666 435.572 160.521C434.702 160.231 435.862 160.666 436.297 160.811C437.022 161.246 437.747 161.681 438.472 162.261C439.922 163.421 440.937 165.016 441.662 166.756C443.692 172.266 440.067 177.631 434.992 179.806C434.847 179.806 434.847 179.951 434.992 179.951C437.892 181.981 438.762 184.736 436.732 187.782C435.717 189.377 434.412 190.682 432.817 191.697C433.397 192.132 434.122 192.422 434.847 192.712C436.152 193.147 437.312 193.437 438.617 193.727C438.182 193.727 437.892 193.582 437.457 193.437C436.587 193.292 435.862 193.002 434.992 192.567L435.282 192.712C435.572 193.147 436.007 193.292 436.297 193.872C436.877 195.177 435.572 196.917 434.557 197.642C433.832 197.932 433.107 198.077 432.382 198.077C431.222 198.222 435.427 199.237 434.267 198.657C433.977 198.512 433.832 198.367 433.542 198.367C432.962 198.077 432.237 197.642 431.657 197.207C430.352 196.482 428.902 195.902 427.452 195.612C426.727 195.322 426.002 195.177 425.277 195.177C425.567 195.032 424.697 195.177 425.132 195.467Z" fill="#262626"/>
<path d="M413.68 173.426C413.68 173.426 417.595 167.046 421.8 170.381C426.005 173.716 421.8 189.667 413.39 185.752" fill="white"/>
<path d="M415.997 176.181C416.287 175.746 416.577 175.311 417.012 174.876L417.592 174.296L417.882 174.006C418.172 173.716 417.737 174.151 417.737 174.151C418.172 173.716 418.752 173.426 419.332 173.136L419.767 172.991C419.187 173.136 420.202 172.846 419.767 172.991L420.492 172.846C419.912 172.701 421.072 172.846 420.492 172.846L420.927 172.991C420.347 172.701 421.507 173.136 420.927 172.991C421.072 173.136 421.217 173.136 421.507 173.281C421.507 173.281 420.927 172.846 421.362 173.136C421.797 173.426 421.507 173.571 421.072 172.701C421.362 173.136 421.362 173.281 420.927 172.411C421.072 172.556 421.072 172.701 421.217 172.991C420.492 171.831 420.927 172.411 421.072 172.846C421.362 173.716 420.927 171.976 421.072 172.701C421.072 172.846 421.072 173.136 421.217 173.281C421.217 174.441 421.362 173.426 421.217 173.281C421.217 173.571 421.217 173.861 421.217 174.006C421.217 174.586 421.217 175.021 421.072 175.456C421.072 175.601 421.072 175.746 421.072 175.891C421.072 176.471 421.217 175.166 421.072 175.746C421.072 176.036 420.927 176.326 420.927 176.616C420.782 177.051 420.637 177.631 420.492 178.066C420.347 178.356 420.347 178.646 420.202 178.936C420.202 179.081 420.202 179.081 420.057 179.226C419.912 179.516 419.912 179.951 420.057 179.226C419.912 179.661 419.622 180.096 419.332 180.531C419.042 180.966 418.752 181.401 418.317 181.691C418.172 181.836 418.172 181.836 418.027 181.981C417.882 182.126 417.592 182.271 417.302 182.416C417.157 182.561 416.867 182.706 416.577 182.706L416.286 182.851C415.996 182.996 416.867 182.706 416.286 182.851C415.996 182.851 415.851 182.996 415.561 182.996H415.126C414.401 182.996 415.561 183.141 415.126 182.996C414.691 182.851 414.546 182.851 414.256 182.851C413.966 182.851 413.966 182.706 413.821 182.706C413.386 182.561 414.546 182.996 413.821 182.706C413.241 182.416 412.516 182.271 411.936 182.561C411.356 182.996 411.066 183.576 411.066 184.301C411.066 186.187 411.936 187.782 413.531 188.797C415.996 190.247 419.187 189.957 421.507 188.217C423.537 186.477 425.132 184.011 425.857 181.401C426.727 178.501 426.872 175.456 426.002 172.556C425.132 169.076 421.797 165.741 418.027 166.031C415.416 166.611 413.096 168.206 411.791 170.526C411.066 172.121 411.356 174.006 412.516 175.166C413.241 176.036 415.272 177.486 416.142 176.036L415.997 176.181Z" fill="#262626"/>
<path d="M393.524 179.081C393.089 179.661 392.654 180.241 392.219 180.821C391.929 181.111 391.784 181.256 391.494 181.546C391.494 181.691 391.349 181.691 391.204 181.691C391.349 181.546 391.349 181.546 391.204 181.691L390.769 181.981C390.479 182.126 390.044 182.271 389.754 182.561L389.899 182.416H389.754L389.464 182.561L389.174 182.706C388.884 182.851 389.754 182.561 389.319 182.706H389.029C388.739 182.706 389.754 182.706 389.174 182.706H389.029C388.739 182.706 389.464 182.706 389.464 182.706C389.319 182.706 389.174 182.706 389.029 182.706H389.464H389.174H389.029C388.739 182.706 389.609 182.851 389.319 182.706L388.884 182.561C389.174 182.706 388.884 182.561 388.739 182.561C387.579 181.981 386.129 181.981 384.969 182.416C384.679 182.561 384.099 182.706 384.099 183.141C384.099 183.576 384.534 183.721 384.824 183.866C387.869 185.171 391.349 185.171 394.394 183.866C395.844 183.141 397.149 182.126 398.019 180.821C398.164 180.531 398.454 180.241 398.599 179.951C399.179 179.081 397.294 178.646 396.859 178.646C396.134 178.501 395.409 178.501 394.684 178.646C394.539 178.646 393.814 178.791 393.524 179.081Z" fill="#262626"/>
<path d="M403.53 168.061C403.53 168.061 402.08 168.061 402.225 169.366C402.37 170.671 403.965 170.671 404.255 169.511C404.4 168.931 404.255 168.351 403.675 168.206C403.675 168.061 403.53 168.061 403.53 168.061Z" fill="#262626"/>
<path d="M406.863 206.777C406.863 206.777 421.943 192.421 435.139 222.872C448.334 253.323 455.439 290.154 455.439 290.154L385.402 293.199C385.402 293.054 386.562 238.823 406.863 206.777Z" fill="white"/>
<path d="M410.342 207.937C412.082 206.342 414.257 205.327 416.577 204.892C417.592 204.747 418.462 204.602 419.477 204.747L419.912 204.892C419.477 204.747 420.347 204.892 419.912 204.892H419.767C420.637 205.182 418.897 204.602 419.332 204.747C419.767 204.892 419.332 204.747 419.187 204.602L419.622 204.892C422.667 207.067 425.277 209.822 427.162 213.012C430.062 218.087 432.672 223.308 434.557 228.818C436.732 234.183 438.617 239.693 440.357 245.203C443.402 254.773 446.157 264.489 448.477 274.204C449.637 278.989 450.798 283.919 451.668 288.849L452.248 288.704L428.612 289.719L390.911 291.314L382.211 291.749L388.446 294.504C388.591 287.689 389.171 281.019 390.041 274.204C391.636 259.703 394.681 245.493 399.176 231.573C402.076 223.308 405.701 215.332 410.342 207.937C410.632 207.357 404.251 204.167 403.526 205.327C395.261 218.377 390.621 233.458 387.431 248.538C384.821 260.428 383.226 272.609 382.356 284.789C382.211 287.109 382.066 289.429 382.066 291.894C382.066 292.619 383.806 293.344 384.386 293.489C385.546 294.069 386.996 294.504 388.301 294.649L411.937 293.634L449.637 292.039L458.338 291.749C458.483 291.749 458.773 291.749 458.918 291.604C456.018 276.669 452.103 261.733 447.317 247.233C445.432 241.288 443.257 235.488 440.937 229.688C438.907 223.888 436.007 218.377 432.672 213.157C428.177 206.922 420.637 201.847 412.662 201.992C409.327 201.992 406.136 203.297 403.526 205.617C403.091 206.052 406.426 207.502 406.717 207.502C407.442 207.647 409.617 208.662 410.342 207.937Z" fill="#262626"/>
<path d="M397.149 248.393L366.698 265.068L357.128 224.322C357.128 224.322 402.949 203.587 413.969 205.182" fill="white"/>
<path d="M393.667 248.248L366.986 262.894L363.216 264.924H370.321L361.331 226.933C361.186 226.063 361.041 225.338 360.751 224.468C360.606 223.888 360.461 224.323 360.751 224.178C362.491 223.308 364.231 222.438 366.116 221.858C374.091 218.378 382.066 215.187 390.187 212.142C394.972 210.402 399.902 208.662 404.832 207.212C406.717 206.632 408.602 206.197 410.632 205.907L411.212 205.762C411.937 205.617 410.922 205.762 411.502 205.762L412.082 205.617C411.937 205.617 411.647 205.617 411.357 205.617C413.097 205.907 414.837 205.907 416.432 205.472C417.592 205.182 417.882 204.747 416.432 204.602C406.862 203.297 396.857 206.922 388.012 210.112C378.441 213.447 369.161 217.218 359.881 221.278C357.706 222.148 355.531 223.163 353.501 224.033L353.356 224.178L361.766 259.849L362.926 264.924C363.071 265.649 365.681 265.504 366.116 265.504C367.421 265.649 368.871 265.504 370.031 264.924L396.712 250.278L400.627 248.103C401.352 247.668 398.162 247.378 398.017 247.378C396.567 247.523 394.972 247.813 393.667 248.248Z" fill="#262626"/>
<path d="M366.845 220.843C371.775 232.298 376.705 244.623 374.53 257.238C374.24 259.124 381.201 257.963 381.491 256.078C383.811 243.173 379.026 230.703 373.95 218.958C373.08 217.073 366.265 219.248 366.845 220.843Z" fill="#262626"/>
<path d="M390.044 212.867C393.959 225.627 393.089 239.258 387.579 251.293C386.854 252.743 388.739 253.033 389.754 252.888C391.494 252.743 393.089 251.728 393.959 250.278C399.759 237.518 400.63 223.162 396.569 209.822C395.844 207.647 389.174 210.402 390.044 212.867Z" fill="#262626"/>
<path d="M401.499 209.387C406.574 213.157 410.78 218.087 416.435 221.132C419.19 222.582 422.09 223.597 425.28 224.032C429.05 224.612 432.82 224.322 436.445 223.307C437.895 222.872 435.575 222.437 435.14 222.437C433.545 222.147 431.805 222.147 430.21 222.582C429.63 222.727 429.05 222.872 428.47 223.017C427.89 223.162 429.775 223.162 429.05 223.017C428.035 222.727 427.02 222.437 426.005 222.147C423.83 221.277 421.8 219.972 419.915 218.522C416 215.622 412.665 211.997 408.605 209.097C407.589 208.372 405.414 208.517 404.109 208.662C403.819 208.807 401.064 209.097 401.499 209.387Z" fill="#262626"/>
<path d="M400.193 242.448C406.283 247.088 413.388 250.133 421.074 251.293C428.759 252.598 437.749 252.163 444.709 248.393C446.014 247.668 447.464 245.928 446.739 244.333C446.014 242.738 443.549 243.173 442.389 243.753C436.879 246.798 429.339 246.508 423.394 245.493C417.013 244.333 411.068 241.723 405.848 237.808C403.093 236.068 397.293 240.273 400.193 242.448Z" fill="#262626"/>
<path d="M389.608 268.984C408.313 279.134 431.514 283.919 451.234 273.624C454.424 272.029 450.074 266.228 447.319 267.679C428.904 277.394 407.588 272.899 390.043 263.328C389.173 262.603 387.868 262.893 387.143 263.763C386.998 264.053 386.853 264.343 386.853 264.633C386.563 266.518 388.158 268.114 389.608 268.984Z" fill="#262626"/>
</svg>
