<svg width="601" height="508" viewBox="0 0 601 508" fill="none" xmlns="http://www.w3.org/2000/svg">
<path d="M3.69238 111.713C3.69238 111.713 4.84465 448.032 9.74179 462.435C14.6389 476.838 302.994 333.237 311.348 317.681C319.702 302.125 305.299 10.0251 292.192 5.27202C279.085 0.518911 13.7747 97.3096 3.69238 111.713Z" fill="white"/>
<path d="M0.234863 112.721C0.234863 122.372 0.234861 132.022 0.378895 141.672C0.522928 165.438 0.666966 189.203 0.811 212.969C1.09907 243.216 1.38713 273.463 1.6752 303.71C1.96327 332.517 2.39537 361.323 2.97151 390.13C3.40361 410.151 3.69167 430.172 4.84394 450.192C5.13201 454.225 4.84394 458.978 5.99621 463.011C7.00445 466.468 12.7658 465.172 15.2144 464.74C22.128 463.299 28.8976 461.139 35.3791 458.69C45.0293 455.089 54.6796 451.2 64.1858 447.167C89.6798 436.221 114.886 424.554 139.948 412.599C167.458 399.492 194.68 385.953 221.615 371.982C243.652 360.603 265.545 349.081 287.006 336.694C293.776 332.805 300.545 328.772 307.027 324.307C309.763 322.434 313.94 319.986 315.093 316.673C316.677 311.92 316.533 306.303 316.821 301.261C317.253 291.755 317.253 282.249 317.253 272.743C317.109 245.088 316.101 217.434 314.948 189.779C313.508 158.956 311.78 128.277 309.331 97.5977C307.459 73.8322 305.586 50.0666 301.841 26.5891C300.833 20.3957 299.969 13.9141 297.664 8.00876C297.232 6.56843 296.512 5.41616 295.36 4.40792C293.776 3.39968 291.183 3.68775 289.31 3.97581C282.829 4.84002 276.347 6.28035 270.154 8.29682C259.784 11.1775 249.557 14.3462 239.331 17.8031C211.82 26.7331 184.454 36.3834 157.232 46.1777C128.569 56.5481 100.05 67.3506 71.8196 78.4412C51.6549 86.5071 31.2021 94.429 11.7576 104.511C9.16495 105.808 6.57235 107.248 4.12377 108.832C2.68344 109.697 1.38713 110.705 0.234863 112.001C-1.34951 114.162 5.56411 113.441 6.57235 111.857C6.71638 111.713 6.86041 111.425 7.14848 111.281C7.72461 110.561 6.86041 111.425 7.58058 110.849C8.30075 110.273 9.16495 109.697 10.0292 109.12L10.7493 108.688L10.8934 108.544L12.7658 107.392C14.2061 106.528 15.6465 105.808 17.0868 105.087C25.2967 100.91 33.7947 97.1656 41.5725 93.8529C66.7784 83.0503 92.4164 73.112 118.054 63.4617C146.717 52.6592 175.38 42.1448 204.331 32.2064C217.006 27.7414 229.825 23.5644 242.644 19.3874C252.438 16.2187 261.368 13.482 271.594 10.6014C275.051 9.59314 278.652 8.72893 282.109 7.86473L284.125 7.43263C284.989 7.28859 283.261 7.57666 284.269 7.43263L285.278 7.28859C286.286 7.14456 287.294 7.00052 288.302 6.85649C286.862 7.00052 288.302 6.85649 288.59 6.85649C289.454 6.85649 287.87 6.85649 288.878 6.85649C289.31 6.85649 288.59 6.85649 288.59 6.85649C288.59 6.85649 288.734 6.8565 288.734 7.00053C288.734 7.14456 288.302 6.56843 288.59 7.00053C288.734 7.14456 288.734 7.14456 288.878 7.28859C289.022 7.43263 289.022 7.57667 289.166 7.7207C289.31 8.00877 289.599 8.44086 289.743 8.72893C290.175 9.59313 290.463 10.4573 290.751 11.3215C292.623 17.9471 294.064 24.7167 294.784 31.4863C296.368 42.1448 297.52 52.8032 298.673 63.4617C301.553 91.9804 303.57 120.643 305.154 149.162C306.883 178.977 308.323 208.936 309.043 238.751C309.619 260.5 310.339 282.393 309.187 304.142C308.899 308.751 308.899 313.648 307.459 317.969C307.315 318.257 307.315 318.401 307.171 318.545C307.603 317.825 307.027 318.689 306.883 318.833L306.306 319.554L305.874 319.986C305.298 320.562 306.306 319.698 305.73 320.13C303.858 321.714 301.985 323.01 299.969 324.451C293.055 329.06 287.15 332.517 279.948 336.694C270.154 342.311 260.36 347.784 250.421 353.113C225.36 366.509 200.154 379.472 174.66 392.147C148.013 405.398 121.223 418.217 94.1448 430.604C73.548 439.966 53.0952 449.328 31.6342 457.106C29.9058 457.826 28.0334 458.402 26.1609 458.978L23.7124 459.842L22.5601 460.275L21.9839 460.419C20.6876 460.851 19.2473 461.139 17.951 461.571L16.2226 462.003L15.3584 462.147C14.9263 462.291 14.4942 462.291 13.9181 462.291C15.2144 462.147 13.63 462.147 13.486 462.291C13.3419 462.435 11.9016 462.435 13.774 462.291C13.63 462.291 13.486 462.291 13.3419 462.291C13.0539 462.291 12.7658 462.435 13.486 462.291C13.486 462.291 13.1979 462.291 13.0539 462.147C12.7658 461.859 13.1979 462.579 12.9098 462.003C12.6218 461.427 13.0539 462.435 12.7658 461.859C12.6218 461.427 12.4777 460.851 12.4777 460.419C11.7576 455.521 11.4695 450.624 11.3255 445.727C10.8934 436.941 10.6053 428.155 10.3172 419.369C9.59705 393.731 9.16495 368.237 8.73285 342.599C8.30075 312.352 7.86865 281.961 7.72462 251.714C7.43655 224.347 7.29251 196.837 7.14848 169.471C7.00445 152.475 7.00444 135.479 6.86041 118.483C6.86041 116.178 6.86041 113.729 6.86041 111.425C7.14848 109.264 0.234863 110.417 0.234863 112.721Z" fill="#F5EE30"/>
<path d="M300.977 41.1364L19.535 159.388C19.535 159.388 15.0699 122.371 16.9423 116.178C18.8148 109.985 289.598 1.52714 294.783 3.25555C299.969 4.98395 300.977 41.1364 300.977 41.1364Z" fill="#F5EE30"/>
<path d="M299.105 38.1118L291.615 41.2805L271.163 49.9226L240.916 62.5975L203.899 78.1532L163.425 95.1491L122.664 112.289L84.495 128.277L52.2314 141.816L29.042 151.466C25.4412 153.051 21.5522 154.347 18.0954 156.075L17.6633 156.219L21.9843 160.684C21.2642 154.779 20.688 148.874 20.1119 142.968C19.6798 138.359 19.2477 133.606 19.1037 128.853C18.9596 126.837 18.9596 124.964 18.9596 122.948C18.9596 121.651 18.9596 120.355 19.1037 119.203C19.1037 119.059 19.1037 118.771 19.2477 118.627C19.2477 118.195 19.5358 118.195 19.2477 118.771L19.3917 118.627C19.2477 119.203 19.1037 118.915 19.5358 118.483C19.9679 118.05 20.9761 117.618 21.6963 117.186C24.2889 115.746 27.0255 114.45 29.7622 113.153C39.4124 108.544 49.0627 104.367 58.857 100.19C72.6842 94.2849 86.6555 88.3796 100.627 82.6182C116.759 75.8486 132.89 69.2231 149.166 62.7416C165.586 56.116 182.006 49.4905 198.426 43.0089C213.405 37.1036 228.385 31.1982 243.22 25.4368C254.599 20.9718 266.121 16.6508 277.5 12.4738C281.245 11.0335 284.99 9.73716 288.879 8.44086L291.039 7.72069L291.471 7.57664C291.327 7.57664 292.048 7.43261 291.471 7.57664L292.336 7.28858C293.2 7.00051 294.064 6.71245 294.928 6.56841C295.216 6.56841 295.504 6.42438 295.792 6.42438C296.225 6.28035 296.081 6.56842 295.648 6.42438C295.072 6.28035 294.64 5.84824 294.352 5.27211C294.352 5.41614 294.784 5.99228 294.352 5.27211C294.496 5.56017 294.64 5.99228 294.784 6.28035C294.496 5.56018 294.784 6.28035 294.928 6.56841C295.072 6.85648 295.072 7.28859 295.216 7.72069C295.504 8.58489 295.648 9.44909 295.792 10.3133C297.233 18.3792 297.953 26.4451 298.241 34.655C298.241 36.3834 298.385 37.9678 298.385 39.6962C298.529 41.4246 299.537 43.153 301.122 44.0172C302.418 44.7373 303.426 44.1612 303.282 42.5768C303.138 36.6715 302.85 30.7661 302.274 24.8607C301.842 20.2516 301.266 15.7866 300.401 11.3215C299.681 8.00875 298.673 4.4079 296.369 1.8153C294.352 -0.489243 292.768 -0.201167 290.319 0.519002C287.294 1.3832 284.414 2.39144 281.533 3.39968C271.451 6.85648 261.368 10.7454 251.43 14.4903C237.171 19.9635 222.911 25.4368 208.652 31.0541C192.088 37.5357 175.668 44.1612 159.248 50.7868C142.541 57.5563 125.689 64.3259 108.981 71.2395C94.0012 77.433 79.1657 83.6264 64.3303 89.8199C53.2397 94.573 42.005 99.3261 31.0585 104.223C27.6017 105.808 24.0008 107.392 20.688 109.12C18.8156 109.985 17.0872 110.993 15.3588 112.145C14.6386 112.865 14.0625 113.729 14.0625 114.882C13.7744 118.483 13.7744 122.083 14.0625 125.684C14.4946 134.614 15.3588 143.544 16.367 152.475C16.5111 154.203 16.7991 155.931 16.9432 157.66C17.0872 159.388 19.1037 163.133 21.2642 162.125L28.7539 158.956L49.3507 150.314L79.5978 137.639L116.614 122.083L157.088 105.087L197.85 87.9475L235.874 71.9597L268.138 58.4205L291.327 48.7703C294.928 47.1859 298.817 45.8896 302.274 44.1612L302.706 44.0172C305.155 43.297 301.554 37.1036 299.105 38.1118Z" fill="#F5EE30"/>
<path d="M35.9545 126.837C34.2261 125.684 31.7775 125.828 30.1932 127.269C28.1767 128.997 26.1602 131.878 29.473 135.335C33.938 139.656 40.7076 130.293 35.9545 126.837Z" fill="#262626"/>
<path d="M37.5394 125.828C36.2431 124.964 34.8028 124.388 33.2184 124.1C32.0662 123.812 30.9139 123.812 29.9057 124.1C28.3213 124.532 27.025 125.396 26.0167 126.693C25.1525 127.701 24.5764 128.853 24.4324 130.149C24.4324 131.878 25.1525 133.606 26.4488 134.902C28.8974 137.639 33.0744 139.512 36.6752 137.927C38.5477 137.063 39.844 135.479 40.5641 133.606C40.9963 132.598 41.1403 131.302 40.8522 130.149C40.4201 128.565 39.5559 127.125 38.2596 126.26C37.5394 125.684 36.6752 125.252 35.811 124.964C35.0909 124.676 34.3707 124.532 33.5065 124.676C33.0744 124.82 32.4983 125.108 32.6423 125.684C32.7863 126.26 33.2184 126.837 33.6505 127.269L33.9386 127.413C34.3707 127.701 33.3625 126.837 33.6505 127.125L33.9386 127.557C33.3625 126.981 33.6505 127.125 33.7946 127.413L33.9386 127.557C34.0826 127.701 34.0826 127.845 34.2267 128.133L34.0826 127.557C34.2267 128.277 34.3707 128.997 34.2267 129.717V129.285C33.9386 130.581 33.3625 131.878 32.4983 132.886L32.7863 132.598C32.2102 133.318 31.49 133.75 30.6258 134.182L31.0579 134.038C30.9139 134.182 30.6258 134.182 30.4818 134.182H30.1937H30.0497C30.0497 134.182 30.7699 134.182 30.4818 134.182H30.1937C29.7616 134.182 31.0579 134.326 30.6258 134.182H30.4818C30.1937 134.182 31.49 134.47 31.0579 134.326H30.9139C30.4818 134.182 31.9221 134.758 31.49 134.614H31.202C30.9139 134.47 30.6258 134.182 31.7781 134.902L31.49 134.758C31.202 134.614 32.2102 135.335 31.9221 135.191L31.7781 135.047L31.6341 134.902C31.346 134.614 32.0662 135.479 31.9221 135.191C31.7781 134.902 31.6341 134.902 31.49 134.614L31.346 134.326C31.7781 134.758 31.6341 134.614 31.49 134.47C31.346 134.182 31.0579 133.75 31.0579 133.462L31.202 134.038C31.0579 133.462 30.9139 132.886 31.0579 132.31V132.742C31.346 131.59 31.7781 130.726 32.6423 129.861L32.3542 130.149C32.9304 129.429 33.7946 128.853 34.6588 128.421L34.2267 128.565C34.5147 128.421 34.8028 128.277 35.2349 128.277H35.523C35.811 128.277 35.667 128.277 35.2349 128.277C35.3789 128.277 35.523 128.277 35.667 128.277C36.0991 128.277 34.8028 128.133 35.523 128.277C36.2431 128.421 34.5147 127.989 35.2349 128.277C35.9551 128.565 34.2267 127.845 34.9468 128.133C34.2267 127.701 34.0826 127.701 34.3707 127.845L34.5147 127.989C35.2349 128.565 36.2431 128.853 37.1073 128.997C37.5394 129.141 38.5477 129.141 38.9798 128.853C40.1321 127.701 38.1156 126.26 37.5394 125.828Z" fill="#262626"/>
<path d="M58.1364 119.635C56.408 118.483 53.9594 118.627 52.3751 120.067C50.3586 121.795 48.3421 124.676 51.6549 127.989C56.1199 132.598 62.8895 123.236 58.1364 119.635Z" fill="#262626"/>
<path d="M60.7288 117.474C58.7124 116.034 56.1198 115.602 53.6712 116.178C51.6547 116.754 49.7823 118.05 48.3419 119.635C47.1897 120.931 46.4695 122.372 46.3255 124.1C46.1814 126.116 46.9016 128.133 48.3419 129.429C49.3502 130.725 50.9345 131.59 52.5189 131.878C54.2473 132.166 55.9757 131.878 57.5601 131.158C60.0087 130.005 61.8811 127.989 62.7453 125.396C63.3214 123.956 63.4655 122.516 63.1774 121.075C62.7453 119.635 62.0251 118.339 60.7288 117.474C60.0087 116.898 59.1445 116.754 58.2803 116.754C57.272 116.754 56.4078 117.186 55.6877 117.762C54.9675 118.195 54.5354 119.059 54.5354 119.779C54.5354 120.499 54.8235 121.363 55.3996 121.795C55.6877 121.939 55.8317 122.083 55.9757 122.372L55.3996 121.795C55.6877 122.083 55.9757 122.516 56.1198 122.804L55.8317 122.083C55.9757 122.516 56.1198 123.092 56.1198 123.524V122.804C56.1198 123.38 56.1197 123.956 55.9757 124.532L56.1198 123.812C55.9757 124.388 55.6877 125.108 55.3996 125.684L55.8317 124.964C55.5436 125.54 55.1115 125.972 54.6794 126.404L55.2555 125.828C54.9675 126.116 54.5354 126.404 54.1033 126.693L54.8235 126.26C54.5354 126.404 54.2473 126.693 53.8152 126.693L54.6794 126.404C54.3914 126.548 54.1033 126.548 53.8152 126.548L54.8235 126.404C54.5354 126.404 54.2473 126.404 54.1033 126.404H54.9675C54.6794 126.404 54.3913 126.404 54.2473 126.26L55.1115 126.548C54.8234 126.404 54.5354 126.26 54.2473 126.116L54.9675 126.548C54.5354 126.26 54.1033 125.972 53.8152 125.54L54.3913 126.116C53.9592 125.684 53.6712 125.108 53.3831 124.532L53.6712 125.252C53.5271 124.82 53.3831 124.388 53.3831 123.956V124.676C53.3831 124.244 53.3831 123.812 53.5271 123.38L53.3831 124.1C53.5271 123.668 53.6712 123.236 53.9593 122.804L53.5271 123.524C53.8152 122.948 54.2473 122.516 54.6794 122.083L54.1033 122.66C54.5354 122.227 54.9675 121.939 55.3996 121.651L54.6794 122.083C54.9675 121.939 55.2556 121.795 55.5436 121.651L54.6794 121.939C54.9675 121.795 55.3996 121.651 55.8317 121.651L54.8235 121.795C55.1115 121.795 55.5436 121.795 55.8317 121.795L54.9675 121.651C55.2556 121.651 55.5436 121.651 55.9757 121.795L55.1115 121.507C55.3996 121.651 55.6876 121.795 55.9757 121.939L55.2555 121.507L55.5436 121.651C56.2638 122.227 57.128 122.372 57.9922 122.372C59.0004 122.372 59.8646 121.939 60.5848 121.363C61.305 120.931 61.7371 120.067 61.7371 119.347C61.7371 118.771 61.305 117.906 60.7288 117.474Z" fill="#262626"/>
<path d="M77.8691 112.577C76.1407 111.425 73.6921 111.569 72.1077 113.009C70.0912 114.738 68.0748 117.618 71.3875 121.075C75.8526 125.54 82.6222 116.178 77.8691 112.577Z" fill="#262626"/>
<path d="M79.31 110.705C77.2936 109.264 74.7009 108.688 72.3964 109.264C70.812 109.697 69.2277 110.705 68.2194 112.001C67.3552 113.009 66.6351 114.306 66.491 115.746C66.347 116.754 66.491 117.906 66.9231 118.771C67.3552 119.923 68.0754 121.075 68.9396 121.939C70.2359 123.38 71.8203 124.388 73.6927 124.82C75.133 125.108 76.7174 124.964 78.1578 124.244C79.166 123.812 80.0302 123.092 80.7504 122.228C81.4705 121.363 82.0467 120.355 82.4788 119.203C82.9109 118.051 82.9109 116.754 82.7668 115.602C82.6228 114.594 82.1907 113.73 81.7586 113.009C80.8944 112.145 80.1742 111.425 79.31 110.705C78.5899 110.273 77.7256 109.985 76.8614 109.841C76.1413 109.841 75.4211 110.129 74.989 110.561C74.1248 112.001 75.4211 113.73 76.5734 114.594L76.8614 114.738L76.1413 114.162C76.2853 114.306 76.4293 114.45 76.5734 114.738L75.9972 114.018C76.1413 114.162 76.2853 114.45 76.4294 114.594L75.9972 113.874C76.1413 114.162 76.2853 114.45 76.2853 114.738L76.1413 114.018C76.2853 114.45 76.2853 114.882 76.2853 115.314V114.594C76.2853 115.314 75.9972 116.034 75.7092 116.754L75.9972 116.178C75.5651 117.042 74.989 117.906 74.2688 118.627L74.7009 118.195C74.1248 118.627 73.5487 119.059 72.9725 119.347L73.5487 119.059C73.2606 119.203 72.8285 119.347 72.3964 119.347H73.1166C72.8285 119.347 72.5404 119.347 72.2524 119.347L73.1166 119.491C72.8285 119.491 72.6845 119.347 72.5404 119.347L73.4046 119.635C73.1166 119.491 72.9725 119.491 72.8285 119.347L73.6927 119.779C73.4046 119.635 73.2606 119.491 73.1166 119.347L73.8367 119.923C73.5487 119.635 73.2606 119.347 72.9725 118.915L73.5487 119.635C73.2606 119.347 73.1166 119.059 72.9725 118.771L73.4046 119.491C73.2606 119.203 73.1166 118.771 72.9725 118.483L73.1166 119.203C72.9725 118.771 72.9725 118.483 72.9725 118.051V118.771C72.9725 118.195 73.1166 117.762 73.4046 117.186L73.1166 117.762C73.5487 116.898 74.1248 116.034 74.989 115.314L74.5569 115.746C74.989 115.314 75.5652 114.882 76.2853 114.594L75.7092 114.882C76.1413 114.738 76.7174 114.594 77.1495 114.594H76.4294C76.8615 114.594 77.1495 114.594 77.5816 114.594L76.7174 114.45C77.0055 114.45 77.2935 114.594 77.5816 114.594L76.7174 114.306C77.0055 114.45 77.1495 114.45 77.4376 114.594L76.5734 114.162L76.8614 114.306C77.5816 114.882 78.4458 115.17 79.31 115.17C80.0302 115.314 80.7504 115.026 81.1825 114.45C81.7586 113.297 80.4623 111.425 79.31 110.705Z" fill="#262626"/>
<path d="M16.0786 160.685C16.0786 163.565 16.2226 166.446 16.2226 169.327C16.3667 176.528 16.5107 183.73 16.6548 190.932C16.9428 201.446 17.0869 212.105 17.3749 222.619L18.2391 260.932L19.2474 302.702C19.5354 316.817 19.9675 330.932 20.2556 345.048C20.5437 358.155 20.8317 371.262 21.2638 384.513C21.5519 395.747 21.84 406.982 21.984 418.073L22.5601 442.414C22.7042 446.447 22.7042 450.48 22.8482 454.513C22.8482 454.801 22.8482 454.945 22.8482 455.233C22.8482 458.978 29.9058 457.682 29.9058 454.513C29.9058 451.633 29.7618 448.752 29.7618 445.871C29.6178 438.67 29.4737 431.468 29.3297 424.266C29.0416 413.752 28.7536 403.093 28.6095 392.579L27.7453 354.266L26.7371 312.496C26.449 298.381 26.0169 284.265 25.7289 270.15C25.4408 257.043 25.1527 243.936 24.7206 230.685C24.4326 219.45 24.1445 208.36 24.0005 197.125C23.8564 189.059 23.5684 180.849 23.4243 172.783C23.2803 168.75 23.2803 164.717 23.1363 160.685V159.964C23.1363 156.219 16.0786 157.516 16.0786 160.685Z" fill="#F5EE30"/>
<path d="M50.3585 244.08C50.3585 244.08 136.923 204.903 143.404 205.479C149.886 206.055 148.301 301.837 143.404 306.735C138.507 311.632 57.4162 351.385 53.0951 342.167C48.7741 332.949 47.1898 245.232 50.3585 244.08Z" fill="#262626"/>
<path d="M51.511 244.368C60.7292 240.191 69.8033 236.158 79.0215 232.125C87.2314 228.524 95.4413 224.924 103.651 221.467C111.717 218.01 118.199 215.273 126.265 212.105C129.289 210.952 132.17 209.8 135.195 208.648H135.339L136.203 208.36L137.931 207.784C138.219 207.64 138.651 207.64 138.939 207.495C138.363 207.64 139.516 207.351 139.804 207.207C140.524 207.063 139.084 207.351 140.092 207.207C140.524 207.207 140.092 207.207 139.948 207.207C140.092 207.207 140.236 207.207 140.236 207.207C139.948 207.495 140.092 207.063 140.236 207.207C140.38 207.351 140.524 207.495 140.524 207.64C141.244 209.08 141.82 210.52 141.964 212.105C142.972 218.298 143.549 224.635 143.693 230.973C143.981 239.615 144.125 248.401 143.981 257.043C143.837 265.685 144.125 274.471 143.549 283.113C143.261 289.595 142.684 296.076 141.676 302.414C141.532 303.998 141.1 305.582 140.524 307.167C140.38 307.311 140.38 307.455 140.236 307.743C140.38 307.455 140.236 307.743 139.948 307.887L139.66 308.175C139.516 308.319 140.092 307.887 139.66 308.175C139.228 308.463 138.939 308.607 138.651 308.895C137.787 309.471 136.923 310.047 135.915 310.48C136.203 310.336 136.059 310.48 135.627 310.624L134.763 311.056L132.89 312.064C129.865 313.648 126.841 315.233 123.672 316.817C108.404 324.595 92.7047 331.508 76.7169 337.558L76.1408 337.702C76.861 337.414 76.1408 337.702 75.9968 337.702L74.7005 338.134L71.9638 338.998C71.0996 339.286 70.3794 339.574 69.5152 339.718L68.7951 339.862C68.9391 339.862 69.3712 339.718 68.7951 339.862L67.4988 340.151C66.7786 340.295 66.0584 340.583 65.3383 340.727L64.6181 340.871L63.7539 341.015C63.1778 341.159 62.6016 341.303 62.0255 341.303C61.5934 341.447 61.1613 341.447 60.7292 341.447C59.5769 341.591 57.8485 341.735 56.8403 340.727C56.1201 339.43 55.544 337.99 55.544 336.55C54.5357 330.212 53.8156 323.731 53.5275 317.249C52.9514 308.319 52.5193 299.245 52.3752 290.171C52.2312 281.097 52.0872 272.455 52.0872 263.525C51.9431 257.475 52.2312 251.57 52.8073 245.52C52.9514 244.944 52.9514 243.936 53.0954 243.504C53.5275 241.776 53.6715 242.928 50.5028 244.224C50.9349 244.08 53.8156 242.928 53.6715 242.208C53.5275 241.487 50.3588 242.784 50.0707 242.784C47.4781 243.792 46.6139 244.368 46.1818 246.961C45.8937 249.265 45.6057 251.57 45.6057 253.874C45.1736 261.652 45.1736 269.43 45.3176 277.352C45.4616 295.212 45.8937 313.216 47.6221 330.932C47.9102 333.813 48.1983 336.55 48.7744 339.286C49.0625 340.583 49.2065 342.455 50.2147 343.319C51.223 344.183 53.5275 344.327 54.9678 344.183C57.8485 343.895 60.8732 343.319 63.7539 342.599C71.8198 340.295 79.7416 337.558 87.5195 334.389C96.4496 330.788 105.092 326.899 113.878 322.866C121.223 319.41 128.569 315.809 135.771 311.92C138.219 310.624 140.812 309.183 143.116 307.743C144.557 307.023 145.853 306.159 146.861 305.006C147.582 303.71 148.014 302.27 148.158 300.829C148.734 298.237 149.022 295.5 149.31 292.907C150.174 284.986 150.462 277.064 150.75 269.142C151.614 251.714 151.326 234.286 150.03 217.002C149.886 214.265 149.454 211.528 149.022 208.792C148.878 207.207 148.446 205.623 147.582 204.327C146.717 203.319 145.421 203.751 144.269 203.895C141.82 204.471 139.516 205.191 137.211 206.055C121.367 211.672 106.1 218.442 90.6882 225.068C77.5811 230.685 64.4741 236.446 51.367 242.352L49.2065 243.36C48.7744 243.504 46.6139 244.512 47.19 245.088C47.7662 245.664 51.0789 244.656 51.511 244.368Z" fill="#262626"/>
<path d="M88.2397 303.422C88.6718 295.932 87.6635 288.442 86.5113 281.097C86.0792 277.496 85.503 273.751 85.359 270.15C85.215 268.134 85.215 266.117 85.215 264.245C85.215 263.236 85.359 262.228 85.359 261.22C85.359 260.788 85.503 260.356 85.503 259.924C85.503 259.203 86.2232 258.915 84.7829 259.636L82.1903 260.644C85.0709 259.78 88.8158 261.652 91.4084 262.66C94.4331 263.813 97.4578 264.965 100.339 266.117C104.66 267.702 110.997 269.862 111.285 275.479C111.429 278.504 109.557 281.241 107.972 283.689C106.1 286.426 104.227 289.018 102.211 291.611C98.178 296.94 94.1451 302.126 89.68 307.167C88.6718 308.463 90.9763 308.319 91.5525 308.175C93.2809 307.887 94.7212 307.023 95.8735 305.726C101.779 298.813 107.396 291.611 112.725 284.121C115.03 280.953 117.911 277.208 117.767 273.031C117.623 269.718 115.318 267.269 112.581 265.541C109.125 263.669 105.524 262.228 101.779 261.076C97.7459 259.492 93.713 257.619 89.392 257.043C85.6471 256.611 79.5977 257.763 78.7335 262.084C78.1573 266.261 78.0133 270.582 78.5894 274.903C79.4536 285.274 81.9022 295.5 81.3261 305.87C81.4701 307.455 88.0956 305.294 88.2397 303.422Z" fill="white"/>
<path d="M53.2399 171.055C53.2399 171.055 276.492 75.1284 280.093 78.5853C283.694 82.0421 283.838 124.1 283.838 128.709C283.838 133.318 57.1288 216.137 52.5197 218.586C47.9106 221.035 53.2399 171.055 53.2399 171.055Z" fill="white"/>
<path d="M55.1124 173.792L63.3223 170.335L85.2154 160.973C95.7299 156.508 106.244 152.043 116.759 147.577C129.146 142.392 141.533 137.063 153.775 131.878C166.594 126.549 179.557 121.075 192.376 115.746C204.475 110.705 216.43 105.808 228.529 100.911C238.323 96.8776 248.262 92.9887 258.2 89.2438C261.801 87.8035 265.546 86.5072 269.29 85.0669L271.595 84.2026C272.027 84.0586 273.035 83.7706 271.883 84.0586L273.035 83.6265C274.188 83.1944 275.34 82.7623 276.492 82.4742C277.356 82.1862 278.221 81.8981 279.085 81.7541L279.949 81.6101C280.813 81.466 279.805 81.6101 279.661 81.6101C280.237 81.6101 278.509 81.322 278.365 81.1779C278.221 81.0339 277.932 80.8899 277.644 80.7458C277.932 81.0339 277.068 80.0257 277.356 80.4578C277.932 81.1779 277.212 79.8816 277.5 80.7458C277.788 81.61 278.077 82.6183 278.221 83.6265C278.365 84.2026 278.365 84.7788 278.509 85.3549C278.509 85.643 278.509 85.9311 278.653 86.2191C278.509 85.499 278.797 86.7953 278.797 86.9393C280.381 100.046 280.381 113.297 280.525 126.405C280.525 127.125 280.525 127.701 280.525 128.421C280.525 128.421 280.957 126.549 281.389 126.549C281.245 126.693 281.101 126.837 280.957 126.837C280.525 127.269 281.821 126.405 281.389 126.549C281.245 126.549 281.101 126.693 280.957 126.837C279.229 127.845 277.356 128.709 275.484 129.573C268.426 132.742 261.369 135.623 254.311 138.503C243.941 142.68 233.426 146.857 222.912 150.89C210.381 155.787 197.706 160.541 185.031 165.294C171.924 170.191 158.673 175.232 145.566 180.129L108.117 194.1L77.1495 205.767C70.3799 208.36 63.4663 210.808 56.6967 213.401C54.9683 213.977 53.384 214.697 51.7996 215.273C51.5115 215.417 51.0794 215.561 50.7913 215.705C50.7913 215.129 53.2399 215.561 53.528 215.561C53.8161 215.561 54.3922 216.138 54.3922 216.138C54.3922 216.138 54.9683 217.002 54.6803 216.426C54.3922 215.849 54.8243 217.29 54.8243 216.714C54.8243 216.426 54.6802 216.138 54.5362 215.849C54.5362 215.705 54.5362 215.561 54.3922 215.273C54.2481 214.553 54.3922 215.705 54.3922 215.273C53.9601 209.8 54.1041 204.183 54.5362 198.709C54.8243 192.372 55.4004 186.034 55.9766 179.697C56.2646 176.816 56.5527 173.792 56.8408 170.911C57.2729 166.734 50.0712 166.59 49.6391 170.767C48.6308 180.561 47.7666 190.211 47.1905 200.006C46.6144 205.623 46.7584 211.24 47.3345 216.858C47.9107 220.747 50.7913 222.619 54.5362 221.179C58.7132 219.45 62.8902 217.866 67.0672 216.282C75.7092 212.969 84.3512 209.8 93.1372 206.487L127.993 193.524C141.244 188.627 154.496 183.586 167.603 178.689C180.854 173.792 194.105 168.75 207.5 163.565C219.455 158.956 231.266 154.347 243.22 149.738C252.294 146.137 261.369 142.536 270.299 138.791C275.196 136.919 279.949 134.758 284.414 132.31C285.278 131.878 285.998 131.302 286.719 130.437C287.295 129.285 287.583 127.989 287.295 126.693C287.295 120.643 287.151 114.594 286.863 108.544C286.575 101.343 286.286 93.9969 285.422 86.7953C284.99 83.3384 284.846 76.4248 280.669 75.2726C278.941 74.9845 277.068 75.2726 275.34 75.8487C272.603 76.5689 270.011 77.5771 267.274 78.5853C259.208 81.466 251.142 84.6347 243.076 87.8035C231.986 92.2685 220.895 96.7336 209.805 101.343C196.986 106.528 184.167 111.857 171.492 117.186C158.529 122.66 145.421 128.133 132.458 133.606C120.648 138.647 108.693 143.689 96.8821 148.73C87.664 152.619 78.4458 156.508 69.2277 160.54L53.384 167.31L51.3675 168.174C49.7831 168.894 49.0629 170.623 49.7831 172.207C49.7831 172.351 49.9271 172.351 49.9271 172.495C51.0794 174.224 53.2399 174.8 55.1124 173.792Z" fill="#F5EE30"/>
<path d="M72.5391 173.071C69.3704 175.232 66.7778 178.256 65.4815 181.857C64.4732 184.018 65.0494 186.61 66.7778 188.195C68.2181 189.347 69.9465 190.211 71.8189 190.499C73.9795 190.931 76.284 191.22 78.4445 191.22C80.605 191.364 82.9095 191.22 85.0701 190.499C87.3746 189.635 89.103 187.619 89.3911 185.17C89.6791 183.298 89.3911 181.425 88.6709 179.697C86.3664 174.944 81.3252 172.063 76.14 172.639C74.6996 172.783 72.8272 174.08 73.4033 175.664C74.1235 177.248 75.9959 178.256 77.7243 177.968C78.3005 177.968 77.5803 178.112 77.5803 177.968C77.7243 177.968 77.8684 177.968 78.0124 177.968C78.1564 177.968 78.3005 177.968 78.5885 177.968C79.0206 177.968 78.3005 177.968 78.3005 177.824C78.3005 177.68 79.3087 178.112 79.3087 178.112C79.3087 178.112 79.7408 178.257 79.4527 178.112C79.1647 177.968 79.7408 178.256 79.7408 178.256C79.7408 178.256 80.0289 178.401 80.1729 178.545C80.3169 178.689 79.7408 178.256 80.0289 178.401C80.3169 178.545 80.461 178.833 80.749 178.977C80.8931 179.121 81.0371 179.265 81.1811 179.409C81.1811 179.409 80.8931 179.121 81.0371 179.265C81.1811 179.409 81.4692 179.985 81.7573 180.273C81.7573 180.273 82.0453 180.705 81.9013 180.417C81.7573 180.129 82.0453 180.705 82.0453 180.705C82.1894 180.993 82.1894 181.281 82.3334 181.569C82.3334 181.857 82.4774 182.145 82.4774 182.433C82.4774 182.722 82.4774 182.145 82.4774 182.577V183.442C82.4774 183.73 82.4774 184.018 82.3334 184.45C82.3334 184.594 82.3334 184.738 82.1894 184.882C82.1894 184.738 82.3334 184.594 82.1894 185.026C82.1894 185.17 82.0453 185.314 82.0453 185.314C81.9013 185.746 82.3334 185.026 82.0453 185.458C81.9013 185.602 81.9013 185.602 81.7573 185.746C82.3334 185.17 81.4692 185.89 81.9013 185.602C82.3334 185.314 81.4692 185.89 81.3252 185.746C81.1811 185.602 82.0453 185.746 81.4692 185.746H80.8931H80.461C80.3169 185.746 79.8848 185.89 80.3169 185.746C80.749 185.602 80.3169 185.746 80.1729 185.746H79.1647C77.5803 185.746 75.8519 185.602 74.2675 185.314L73.8354 185.17C72.9712 185.026 73.9795 185.17 73.9795 185.17C73.8354 185.026 73.4033 185.026 73.1152 185.026C72.8272 184.882 72.5391 184.882 72.3951 184.738C73.5474 184.882 72.251 184.882 72.251 184.594C72.251 184.306 72.8272 185.026 72.3951 184.738C72.3951 184.738 72.107 184.594 72.107 184.45C72.107 184.306 72.5391 184.738 72.251 184.594C71.963 184.45 72.107 184.162 72.107 184.45C72.107 184.738 72.107 184.306 72.107 184.306C71.963 184.738 72.107 184.306 72.107 184.162C72.107 183.874 72.251 183.586 72.3951 183.298C72.6831 182.577 72.9712 181.857 73.4033 181.281C73.5474 180.993 73.8354 180.705 73.9795 180.417C73.6914 180.705 74.1235 180.129 73.9795 180.417L74.4116 179.841C74.8437 179.265 75.2758 178.689 75.8519 178.256L76.284 177.824C76.284 177.824 76.8601 177.248 76.5721 177.536C76.284 177.824 76.7161 177.536 76.7161 177.392L77.4363 176.96C78.5885 176.384 78.8766 174.944 78.3005 173.935C78.1564 173.647 78.0124 173.503 77.7243 173.215C76.14 172.495 74.1235 172.207 72.5391 173.071Z" fill="#F5EE30"/>
<path d="M71.9634 189.779L67.4983 200.582C67.2103 201.158 70.8111 201.158 71.0992 201.158C71.9634 201.158 72.8276 201.014 73.6918 200.87C73.9798 200.726 74.556 200.726 74.7 200.294L79.1651 189.491C79.4531 188.915 75.8523 188.915 75.5642 188.915C74.7 188.915 73.8358 189.059 72.9716 189.203C72.5395 189.347 72.1074 189.347 71.9634 189.779Z" fill="#F5EE30"/>
<path d="M105.091 167.886C108.548 171.487 112.293 175.088 116.181 178.401C117.622 179.553 120.647 182.146 122.375 180.129C122.951 179.121 123.383 177.969 123.527 176.816C123.815 175.664 123.959 174.368 124.247 173.071C124.679 170.623 124.968 168.174 125.256 165.726C125.256 165.15 125.4 164.573 125.4 163.997C125.4 163.709 124.968 163.997 125.256 163.997C126.408 164.429 127.416 165.15 128.424 165.726C132.745 168.03 137.354 169.903 142.108 171.343C142.828 171.631 143.692 171.343 143.98 170.623V170.479C145.564 165.726 142.972 160.685 144.556 155.931C145.42 153.483 139.659 149.162 138.795 152.043C137.21 156.796 139.803 161.837 138.219 166.59L140.235 165.726C137.066 164.718 133.898 163.565 130.873 162.125C129.433 161.405 127.992 160.685 126.552 159.82C125.256 158.812 123.671 158.236 122.087 158.092C118.63 158.092 119.206 162.845 118.918 165.294C118.63 167.166 118.342 168.894 118.054 170.623C117.766 171.775 117.766 174.512 116.758 175.232L117.766 174.8H117.334L118.774 175.088C117.91 174.368 117.19 173.648 116.47 172.927C115.461 172.063 114.597 171.199 113.589 170.191C111.716 168.318 109.844 166.446 107.972 164.573C107.107 163.709 105.091 162.557 103.939 163.565C102.786 164.573 104.371 167.022 105.091 167.886Z" fill="#F5EE30"/>
<path d="M153.487 147.433C157.664 150.89 161.409 154.779 164.722 159.1C165.874 160.684 170.915 160.685 171.635 158.668C173.364 154.203 175.092 149.738 176.965 145.273C177.109 144.841 177.397 144.553 177.541 144.121C177.685 143.256 173.076 143.544 174.948 144.697C175.812 145.273 176.821 145.849 177.685 146.425C179.557 147.721 181.43 149.018 183.302 150.458C185.031 152.187 187.479 152.907 189.928 152.475C191.08 152.331 192.088 151.754 192.808 150.89C193.24 149.882 193.384 148.874 193.24 147.866C193.24 142.968 193.096 138.071 192.664 133.318C192.52 131.014 185.319 131.446 185.463 133.75C185.751 136.631 185.895 139.368 186.039 142.248C186.039 143.689 186.183 144.985 186.183 146.425C186.183 147.145 186.471 149.738 186.039 150.17L188.199 149.306L187.767 149.45H190.504L190.072 149.306L191.368 149.882C190.072 149.018 188.919 148.154 187.767 147.145C186.471 146.137 185.031 145.129 183.59 144.265C180.565 142.248 177.397 140.232 173.508 141.384C170.339 142.392 169.763 145.561 168.611 148.298C167.314 151.61 166.018 154.923 164.722 158.236L171.635 157.804C168.179 153.195 164.146 149.018 159.681 145.417C158.384 144.409 156.08 144.553 154.783 145.129C153.487 145.417 152.191 146.425 153.487 147.433Z" fill="#F5EE30"/>
<path d="M201.161 127.989C205.482 132.454 209.948 136.631 214.557 140.664C215.709 141.672 221.182 141.816 221.182 139.656C221.47 134.758 222.622 130.005 224.495 125.54C224.639 125.396 224.639 125.252 224.783 125.108C221.326 124.82 220.318 124.964 221.614 125.684C222.19 126.116 222.622 126.405 223.199 126.693L226.511 128.709L233.281 133.03C234.577 133.894 239.618 134.326 239.907 132.022C240.627 125.252 241.059 118.339 241.203 111.569C241.203 109.409 234.001 109.553 234.001 111.857C234.001 118.771 233.569 125.54 232.849 132.31L239.474 131.302L230.544 125.54C227.232 123.524 224.351 121.363 220.318 122.804C217.437 123.812 216.573 127.413 215.853 130.005C214.989 133.174 214.413 136.487 214.269 139.8L220.894 138.791C216.573 134.903 212.396 131.014 208.219 126.837C206.923 125.828 205.338 125.54 203.754 125.828C203.034 125.972 200.153 126.837 201.161 127.989Z" fill="#F5EE30"/>
<path d="M318.838 109.121C318.838 109.121 315.669 98.7501 307.603 99.0382C299.538 99.3262 270.011 125.252 274.188 127.845C278.365 130.438 292.48 131.446 296.945 129.285C301.41 127.125 305.731 118.051 305.731 118.051L305.155 126.116L348.653 118.339C348.653 118.339 348.365 104.511 352.686 95.7254C356.431 87.9476 351.246 76.857 341.739 90.1081C339.147 93.7089 337.274 97.5978 335.978 101.919L334.106 108.256C333.962 108.256 324.888 93.2768 318.838 109.121Z" fill="white"/>
<path d="M321.431 108.689C319.415 102.207 313.221 94.1411 305.443 95.7255C302.563 96.5897 299.826 97.886 297.377 99.6144C293.921 101.775 290.752 104.223 287.583 106.816C284.414 109.409 281.246 112.289 278.221 115.17C275.916 117.331 273.9 119.635 272.172 122.228C270.587 124.964 270.011 128.277 273.036 130.438C276.493 133.03 281.966 133.318 286.143 133.606C290.896 133.894 296.801 134.182 300.69 130.87C304.003 127.845 306.74 124.1 308.468 119.923L302.851 116.61L302.275 124.676C302.131 126.693 303.859 129.717 306.308 129.285L344.332 122.516L349.806 121.508C351.246 121.219 351.534 119.779 351.534 118.627C351.534 118.339 351.534 117.907 351.534 119.059C351.534 118.915 351.534 118.627 351.534 118.483C351.534 117.619 351.534 116.754 351.534 115.89C351.678 113.298 351.966 110.561 352.254 107.968C352.686 104.944 353.407 102.063 354.559 99.1823C355.711 96.8778 356.431 94.4292 356.719 91.9806C356.863 87.5156 354.991 81.3221 349.806 80.4579C343.612 79.5937 339.003 87.2275 336.555 91.6925C334.25 96.3016 332.522 101.055 331.225 106.096L336.267 106.816C334.394 103.791 331.802 101.199 328.777 99.4704C326.616 98.3181 324.168 98.1741 322.007 99.1823C318.982 100.623 317.254 104.223 316.102 107.104C314.95 109.985 319.991 115.026 321.575 111.137C322.439 109.121 323.448 106.528 325.608 105.376C326.04 105.232 326.616 105.088 327.048 105.232C327.336 105.232 327.625 105.376 327.192 105.232C327.336 105.232 327.48 105.376 327.769 105.376L328.201 105.52C328.777 105.808 328.057 105.376 328.345 105.52C328.633 105.664 328.921 105.952 329.209 106.096L329.641 106.384C329.209 105.952 329.929 106.672 329.641 106.384C330.073 106.816 330.649 107.392 331.081 107.968L331.657 108.689C331.225 107.968 332.234 109.265 331.657 108.689L331.946 109.265C332.81 110.705 336.122 112.721 336.987 109.985C337.851 106.96 338.715 103.647 339.867 100.767C341.02 97.5979 342.748 94.5732 344.765 91.6925C346.061 89.6761 347.933 88.2357 350.094 87.2275C350.238 87.2275 350.526 87.2275 350.67 87.0835C350.958 87.0835 350.814 87.0835 350.526 86.9394C350.67 87.0835 350.814 87.0835 350.958 87.2275C350.67 86.9394 350.814 86.7954 350.814 87.0835C350.814 86.9394 350.238 86.5073 350.67 86.9394C350.526 86.6514 351.102 87.3715 350.67 86.9394C350.814 87.2275 350.958 87.9477 350.814 87.3715C350.958 87.8036 350.958 88.2357 350.958 88.6678C350.958 89.532 350.958 90.3962 350.67 91.2604C350.238 93.2769 348.942 95.4374 348.221 97.4539C347.357 100.335 346.781 103.215 346.349 106.096C345.773 109.841 345.629 113.73 345.629 117.475L347.357 114.594L309.332 121.363L303.859 122.372L307.892 126.981L308.468 118.915C308.612 116.322 304.723 112.001 302.851 115.602C301.554 118.339 299.97 120.787 297.954 123.092C297.377 123.812 296.801 124.388 296.081 124.964C295.505 125.396 294.929 125.684 294.353 125.829C292.48 126.261 290.608 126.549 288.735 126.549C284.702 126.693 280.67 126.261 276.925 125.252C276.204 125.108 275.628 124.676 274.908 124.388C274.188 124.1 275.052 124.388 275.052 124.532C275.34 124.82 275.628 125.108 275.772 125.396C276.349 126.117 276.493 126.837 276.493 127.701C276.493 127.269 276.493 127.845 276.349 127.989C276.349 127.845 276.493 127.701 276.493 127.413C276.637 127.269 276.637 127.125 276.781 126.837C276.925 126.549 276.637 127.125 276.637 127.125L276.925 126.693C280.237 121.796 284.991 117.619 289.6 113.73C294.641 109.553 299.97 105.088 306.019 102.495C306.308 102.351 306.596 102.207 306.884 102.207C306.308 102.351 306.884 102.207 307.172 102.063C307.604 101.919 308.036 101.775 308.468 101.775C310.052 101.775 311.637 102.351 312.645 103.503C312.789 103.647 313.365 104.223 313.509 104.512L313.797 104.944C314.229 105.376 313.365 104.223 313.941 105.088C314.373 105.808 314.806 106.528 315.238 107.248C315.382 107.392 315.382 107.536 315.526 107.68C315.526 107.536 315.238 107.104 315.382 107.536L315.67 108.256C315.814 108.544 315.814 108.689 315.958 108.977C316.39 110.417 318.118 112.145 319.847 111.857C321.575 111.569 321.863 110.129 321.431 108.689Z" fill="#262626"/>
<path d="M322.295 111.569C321.719 110.129 320.999 108.689 320.279 107.392C319.847 106.528 319.414 105.808 318.694 105.088C318.118 104.512 317.398 103.935 316.534 103.647C316.102 103.503 315.237 103.359 314.805 103.791C314.373 104.223 314.373 104.944 314.517 105.52C314.805 106.384 315.237 107.104 315.814 107.824L315.237 107.104C315.237 107.248 315.381 107.248 315.381 107.392L314.949 106.672C315.67 107.968 316.39 109.409 316.966 110.849C316.966 110.993 317.11 111.137 317.11 111.281C317.254 111.713 317.542 112.001 317.83 112.433C318.118 112.865 318.406 113.154 318.838 113.442C319.126 113.73 319.558 113.874 319.991 114.018C320.279 114.162 320.711 114.306 320.999 114.306C321.575 114.306 322.151 114.018 322.295 113.442C322.727 112.865 322.583 112.145 322.295 111.569Z" fill="#262626"/>
<path d="M261.08 130.582C261.08 130.582 377.028 110.705 379.476 111.857C381.925 113.009 384.085 121.651 382.213 124.1C380.34 126.549 265.69 145.417 263.961 145.129C262.233 144.841 243.94 140.52 243.94 140.52L261.08 130.582Z" fill="#F5EE30"/>
<path d="M263.241 133.03L276.924 130.726C287.727 128.853 298.386 127.125 309.188 125.252C321.431 123.236 333.818 121.22 346.061 119.203C355.423 117.763 364.785 116.178 374.291 115.026L378.468 114.45L379.188 114.306C378.468 114.45 378.9 114.306 379.332 114.306H380.341C381.349 114.162 379.621 114.162 379.332 114.018L378.036 113.298L377.748 113.01C377.892 113.298 378.036 113.586 378.324 113.874C378.612 114.594 378.9 115.458 379.188 116.178C379.765 117.763 379.909 119.347 379.621 121.076C379.621 121.22 379.476 121.508 379.476 121.652C379.332 122.228 378.9 122.228 379.476 121.796L379.332 121.94C378.9 122.084 379.909 121.796 379.476 121.94L379.044 122.084L377.892 122.372C376.74 122.66 375.444 122.948 374.291 123.236C370.402 124.1 366.513 124.82 362.625 125.541C351.39 127.701 340.011 129.718 328.777 131.59C316.534 133.75 304.291 135.767 292.048 137.783C283.406 139.224 274.908 140.664 266.266 141.96C265.258 142.104 264.105 142.248 263.097 142.392C262.809 142.392 262.521 142.392 262.233 142.537C262.521 142.537 262.377 142.537 262.809 142.537C263.529 142.537 262.665 142.537 262.377 142.392L260.937 142.104L257.048 141.24L247.83 139.08L243.221 138.071L246.677 142.681L263.817 132.742C266.266 131.302 260.649 127.125 258.344 128.421L241.204 138.36C238.756 139.8 243.653 142.681 244.661 142.969C249.414 144.121 254.311 145.273 259.208 146.281C261.945 147.146 264.682 147.434 267.562 147.29C274.764 146.425 281.966 145.129 289.167 143.977C301.266 141.96 313.365 139.944 325.464 137.927C337.563 135.911 349.806 133.75 361.904 131.446C368.962 130.15 376.308 129.141 383.221 126.981C384.086 126.837 384.806 126.405 385.382 125.829C387.254 123.38 386.102 118.771 385.094 116.178C383.653 112.001 380.485 108.977 376.02 109.409C368.242 109.985 360.464 111.425 352.686 112.578C340.443 114.45 328.2 116.466 316.102 118.483C304.147 120.499 292.192 122.516 280.237 124.532L259.929 127.989L258.92 128.133C257.336 128.421 257.912 130.294 258.776 131.158C259.929 132.598 261.657 133.174 263.241 133.03Z" fill="#F5EE30"/>
<path d="M308.468 139.656C308.468 139.656 307.604 149.306 302.563 149.306C297.522 149.306 289.744 139.656 279.949 134.47C270.155 129.285 266.41 140.232 272.028 150.17C277.645 160.108 289.888 174.224 300.258 183.298C310.629 192.372 320.567 191.796 320.567 191.796C320.567 191.796 328.201 417.065 398.777 395.459C469.354 373.854 474.251 248.833 474.251 248.833L399.353 279.08C393.736 229.677 354.127 131.734 354.127 131.734" fill="white"/>
<path d="M305.155 140.808C305.155 141.528 305.011 142.248 304.723 142.824C304.435 144.265 303.859 145.705 303.139 147.001C302.995 147.289 302.851 147.289 302.995 147.289C303.283 147.145 303.715 147.001 304.003 146.857C304.147 146.857 304.003 146.857 303.715 146.857C303.283 146.713 302.995 146.569 302.563 146.425C300.834 145.561 299.25 144.553 297.666 143.257C293.489 139.8 289.168 136.487 284.558 133.462C280.093 130.726 275.196 129.285 270.443 132.598C266.986 135.191 265.258 139.512 265.978 143.689C266.554 148.586 269.003 152.763 271.884 156.796C278.365 166.158 285.855 174.944 294.353 182.722C300.69 188.771 309.476 194.821 318.839 194.244L317.11 192.948C317.254 197.989 317.542 203.031 317.974 208.072C318.838 220.747 319.847 233.278 321.287 245.809C323.015 262.228 325.32 278.504 328.345 294.636C331.225 311.344 335.402 327.908 340.588 344.184C345.053 357.579 350.526 371.262 359.168 382.497C365.938 391.283 375.012 398.484 386.39 399.204C393.304 399.637 400.218 397.476 406.555 394.739C415.485 390.706 423.695 385.233 430.753 378.32C444.58 365.068 453.942 347.64 460.712 329.924C466.905 313.504 471.37 296.508 473.963 279.224C475.691 269.142 476.843 259.06 477.564 248.977C477.564 248.545 477.564 247.969 477.564 247.537C477.564 245.953 474.971 246.241 474.107 246.529L448.757 256.611L408.427 272.887L399.209 276.632L402.666 277.64C401.226 266.261 398.921 255.171 396.041 244.08C392.728 231.261 388.983 218.442 384.806 205.911C377.892 184.594 370.258 163.421 362.193 142.536C360.608 138.359 358.88 134.038 357.151 129.861C356.143 127.413 349.662 130.582 350.814 133.318C355.567 145.273 360.176 157.228 364.497 169.327C373.283 193.38 381.493 217.578 388.119 242.352C391.575 254.739 394.168 267.27 395.897 280.089C396.041 281.673 398.201 281.529 399.353 281.097L424.703 270.87L465.033 254.595L474.251 250.85L470.794 249.841C470.506 256.755 469.786 263.813 468.778 270.582C466.761 286.426 463.304 301.982 458.695 317.249C453.222 334.821 445.876 352.105 434.498 366.797C429.168 373.855 422.831 379.904 415.485 384.945C415.053 385.233 414.621 385.521 414.189 385.809L413.901 385.953L413.325 386.385C412.316 386.962 411.308 387.538 410.3 388.114C409.292 388.69 408.427 389.122 407.419 389.554C406.123 390.274 405.691 390.418 404.683 390.85C402.522 391.715 400.362 392.579 398.201 393.155L397.193 393.443C398.201 393.155 397.049 393.443 396.761 393.587C396.041 393.731 395.32 393.875 394.6 394.019C393.88 394.163 393.304 394.163 392.728 394.307C392.152 394.451 393.016 394.307 392.44 394.307H391.287C389.991 394.307 388.839 394.307 387.543 394.163H387.11C386.39 394.019 387.543 394.163 387.11 394.163L386.246 394.019C385.67 393.875 384.95 393.731 384.374 393.587C383.222 393.299 382.069 392.867 380.917 392.435C379.909 392.003 378.901 391.571 377.892 390.995C376.74 390.418 375.732 389.698 374.58 388.834C372.419 387.25 370.403 385.521 368.53 383.505C359.744 374.287 353.839 361.468 349.23 349.369C343.612 333.957 339.291 318.258 336.123 302.126C332.81 285.85 330.361 269.43 328.345 253.01C326.76 239.615 325.464 226.076 324.456 212.681C323.88 205.623 323.448 198.565 323.16 191.652V190.788C323.015 189.923 322.295 189.347 321.431 189.491C314.229 189.923 306.74 185.314 301.41 180.417C293.201 172.927 285.711 164.718 279.229 155.643C276.493 151.755 273.324 147.578 272.46 142.824C272.028 140.952 272.028 138.936 272.604 136.919C272.748 136.343 273.036 135.911 273.324 135.479C273.612 135.191 273.324 135.479 273.18 135.479C273.036 135.479 274.044 135.047 273.18 135.479C272.892 135.623 273.036 135.479 273.324 135.479C275.34 135.767 277.213 136.631 278.941 137.783C281.246 139.224 283.55 140.808 285.711 142.536C289.168 145.273 292.624 148.586 296.513 150.602C300.978 152.763 306.308 151.178 308.756 146.857C310.196 144.265 311.205 141.384 311.349 138.359C311.493 136.775 308.756 137.063 307.892 137.351C306.884 137.927 305.587 139.224 305.155 140.808Z" fill="#262626"/>
<path d="M372.418 449.472C372.418 449.472 448.036 228.092 493.983 229.965C539.93 231.837 598.839 396.18 584.436 466.18C570.033 536.181 396.04 501.18 372.418 449.472Z" fill="#262626"/>
<path d="M375.588 448.176C376.596 445.151 377.749 441.982 378.757 438.958C381.637 430.748 384.662 422.538 387.687 414.472C392.008 402.949 396.473 391.427 401.226 379.904C406.555 366.509 412.173 353.258 418.078 340.151C424.127 326.611 430.321 313.216 437.09 299.965C443.14 288.01 449.765 276.2 456.967 264.965C460.136 260.068 463.449 255.315 466.905 250.706C469.786 246.817 472.955 243.216 476.412 239.903C477.132 239.183 477.996 238.463 478.86 237.743L480.012 236.734L480.589 236.158C481.165 235.726 480.445 236.302 480.733 236.014C481.453 235.438 482.317 234.862 483.037 234.286C483.181 234.142 484.045 233.71 483.037 234.286C483.181 234.142 483.325 233.998 483.613 233.998L484.766 233.278C485.486 232.845 484.189 233.566 484.622 233.278L485.198 232.989L485.774 232.701C486.494 232.269 485.198 232.845 485.63 232.701L486.782 232.269C487.358 231.981 486.062 232.413 486.638 232.269L487.214 232.125L487.79 231.981C487.07 232.125 488.222 231.837 487.79 231.981C488.078 231.837 488.51 231.837 488.943 231.837L489.519 231.693C489.087 231.693 489.231 231.693 489.519 231.693H490.671C499.457 231.693 507.667 238.031 513.572 244.08C522.934 253.442 530.28 264.821 536.762 276.344C544.828 290.891 551.741 305.871 557.503 321.426C563.84 338.134 569.169 355.274 573.49 372.702C577.667 389.122 580.548 405.83 582.276 422.682C583.573 436.653 584.005 450.912 581.556 464.74C580.836 469.925 578.964 474.966 576.371 479.575C575.075 481.736 573.49 483.752 571.762 485.625C571.042 486.489 570.322 487.209 569.313 488.073C568.881 488.505 568.305 488.937 567.873 489.369C567.153 489.946 567.441 489.802 566.721 490.234L565.136 491.386L564.416 491.962L563.984 492.25C564.272 491.962 564.272 492.106 563.984 492.25C563.408 492.538 562.832 492.97 562.256 493.258L561.392 493.69C561.103 493.834 560.239 494.267 561.103 493.834C559.807 494.555 558.655 495.131 557.359 495.707C556.926 495.995 557.935 495.563 556.926 495.851L556.062 496.283L554.046 497.003L552.894 497.435C552.749 497.435 552.605 497.579 552.461 497.579L550.301 498.299C548.861 498.732 547.42 499.164 545.98 499.596C544.828 499.884 543.387 500.316 541.803 500.604C540.219 500.892 538.634 501.18 537.05 501.468C523.223 503.629 509.251 503.917 495.28 502.621C480.445 501.324 465.609 498.732 451.206 494.699C437.523 490.954 424.271 485.913 411.596 479.575C401.226 474.246 391 467.764 383.078 459.122C380.053 455.81 377.46 452.065 375.444 447.888C374.868 446.591 368.386 449.76 368.962 451.056C373.283 460.563 381.637 467.908 389.991 473.814C401.082 481.448 413.181 487.497 426 492.106C440.115 497.291 454.807 501.324 469.642 503.773C484.333 506.365 499.313 507.518 514.292 507.086C527.688 506.509 541.371 504.493 553.902 499.596C564.704 495.275 575.363 488.793 581.844 478.855C588.47 468.629 589.478 455.954 589.766 444.143C589.91 428.299 588.614 412.455 585.733 396.9C579.54 361.612 568.881 327.187 554.046 294.492C547.708 280.377 540.075 266.981 531.288 254.306C524.807 245.376 517.173 236.302 507.235 231.261C503.634 229.389 499.601 228.38 495.568 228.236C491.535 228.524 487.646 229.677 484.189 231.549C475.691 235.87 468.778 243.072 462.728 250.418C455.095 260.068 448.325 270.438 442.276 281.097C435.074 293.628 428.448 306.447 422.255 319.554C415.773 333.237 409.58 346.92 403.675 360.891C398.201 373.71 393.016 386.529 387.975 399.636C383.942 409.863 380.053 420.233 376.308 430.604C374.148 436.509 371.987 442.414 369.971 448.464C369.683 449.184 369.395 450.048 369.107 450.768C368.674 451.921 371.699 450.912 371.843 450.768C373.139 450.336 375.156 449.472 375.588 448.176Z" fill="#262626"/>
<path d="M389.702 317.681C389.702 317.681 345.916 334.101 346.924 308.751C347.501 291.035 399.641 290.171 401.225 300.829C402.809 311.488 389.702 317.681 389.702 317.681Z" fill="white"/>
<path d="M388.119 314.369C382.213 316.673 376.02 318.257 369.682 319.122C365.073 319.986 360.176 319.842 355.567 318.834C354.703 318.69 353.839 318.402 353.119 317.969C352.254 317.537 351.39 317.105 350.67 316.529C350.526 316.385 349.662 315.521 350.094 316.097C349.95 315.953 349.806 315.665 349.662 315.521C349.086 314.801 350.094 316.097 349.662 315.377C349.23 314.657 350.094 316.097 349.662 315.377C349.518 315.233 349.23 314.369 349.662 315.233C349.662 315.089 349.518 314.801 349.518 314.513C349.518 314.225 349.518 314.369 349.518 314.657L349.374 314.081C348.365 310.48 349.806 306.591 352.975 304.43C356.719 301.694 361.04 299.821 365.65 298.957C370.979 297.661 376.452 297.085 381.925 297.229C386.534 297.229 391.287 297.805 395.753 298.957C396.617 299.245 397.481 299.533 398.201 299.965C398.633 300.109 399.065 300.397 399.353 300.685C399.497 300.685 399.93 301.118 399.497 300.685C399.641 300.829 399.785 300.973 400.074 301.117C400.362 301.262 400.362 301.694 400.074 300.973C400.218 301.262 400.506 301.694 399.93 300.685C400.218 301.262 399.497 299.821 399.785 300.397C399.641 300.253 399.353 299.245 399.497 299.533C399.209 299.245 399.497 299.965 399.497 300.253C399.497 300.685 399.497 301.262 399.353 301.694C399.209 302.414 399.065 303.278 398.777 303.998C396.761 308.463 392.44 312.208 388.119 314.369C386.246 315.233 389.271 321.858 391.143 320.85C395.464 318.834 399.065 315.377 401.514 311.344C404.395 305.727 403.674 298.381 398.345 294.636C394.744 292.043 389.991 291.323 385.67 290.891C379.765 290.315 373.715 290.459 367.81 291.323C359.6 292.475 345.485 295.644 344.765 306.015C344.333 312.064 346.637 318.834 351.534 322.723C355.567 325.747 360.608 326.467 365.505 326.323C370.835 326.179 376.02 325.315 381.205 324.019C384.374 323.299 387.543 322.434 390.567 321.282L390.999 321.138C393.016 320.274 390.135 313.648 388.119 314.369Z" fill="#262626"/>
<path d="M581.556 314.945C581.556 314.945 630.095 492.394 556.926 463.011C483.757 433.628 450.629 392.291 450.629 392.291C423.695 394.883 413.037 375.295 413.037 375.295C413.037 375.295 380.629 377.743 369.106 367.085C357.584 356.426 368.818 348.649 381.205 347.352C393.592 346.056 411.164 342.023 411.164 342.023C385.526 348.505 395.609 327.188 395.609 327.188C395.609 327.188 378.757 334.965 371.843 332.373C364.929 329.78 367.234 314.945 384.374 301.261C401.514 287.578 413.613 300.541 413.613 300.541C413.613 300.541 420.238 289.019 434.93 292.908C449.621 296.796 466.041 339.286 466.041 339.286L508.675 362.764C508.675 362.764 492.255 258.339 525.671 254.307C559.087 250.274 575.939 284.41 581.556 314.945Z" fill="white"/>
<path d="M578.531 313.361C579.54 317.249 580.548 320.994 581.412 324.883C583.716 334.389 585.733 343.896 587.461 353.546C589.766 365.933 591.638 378.32 592.935 390.707C594.231 402.805 594.519 415.048 593.799 427.291C593.079 436.653 591.494 446.88 586.165 454.802C581.844 461.571 574.21 465.172 566.288 464.308C558.943 463.588 552.749 460.419 545.98 457.538C534.745 452.641 523.798 447.024 513.14 440.974C497.728 432.044 483.325 421.674 470.074 410.007C464.313 404.966 458.983 399.493 453.942 393.731C453.798 393.731 453.798 393.587 453.798 393.443C452.358 392.147 450.773 391.139 448.901 390.563C447.461 390.275 446.02 390.275 444.58 390.563C439.683 390.707 434.786 390.13 430.033 388.402C429.312 388.114 428.448 387.826 428.016 387.538C427.44 387.25 426.864 386.962 426.288 386.674C425.135 385.953 423.983 385.089 422.831 384.225C420.958 382.641 419.374 380.912 417.934 379.04C417.358 378.32 416.781 377.455 416.349 376.735C415.629 375.871 414.621 375.151 413.469 374.575C412.46 373.855 411.308 373.423 410.156 373.279C399.497 373.999 388.119 373.711 377.892 370.83C376.596 370.398 375.156 369.966 373.859 369.39L373.139 369.102C372.995 368.958 372.851 368.958 372.707 368.813C372.563 368.813 372.563 368.669 372.419 368.669C372.131 368.381 371.699 368.237 371.411 367.949C368.386 365.213 365.793 360.892 368.098 356.859C370.115 353.258 374.291 351.385 378.036 350.233C382.501 348.937 387.255 348.793 391.864 348.073C399.209 346.92 406.555 345.48 413.901 343.896L407.995 340.295C405.547 341.015 403.098 341.303 400.506 341.447C399.641 341.447 398.633 341.447 397.769 341.303C397.337 341.303 397.049 341.159 396.617 341.159C396.185 341.159 396.185 340.871 396.329 341.159C396.905 341.735 397.625 342.023 398.345 342.311C398.201 342.167 398.345 342.311 398.057 342.023C397.769 341.591 397.481 341.303 397.337 340.871C396.905 339.863 396.617 338.854 396.617 337.846C396.617 334.822 397.193 331.797 398.633 329.06C399.065 328.052 393.304 325.171 392.296 325.603C388.119 327.476 383.654 329.06 379.189 330.212C376.452 331.077 373.427 331.365 370.547 331.077C368.674 330.933 372.275 331.365 372.563 332.517C372.563 332.661 372.131 331.941 372.131 331.797C371.555 330.933 371.267 329.924 371.267 328.916C370.691 322.579 375.012 316.097 378.901 311.488C384.662 304.574 392.728 297.373 402.234 297.085C403.962 296.941 405.691 297.229 407.275 297.661C407.707 297.805 408.139 297.949 408.572 298.093C409.58 298.525 407.995 297.805 408.86 298.237C409.148 298.381 409.004 298.237 408.716 298.093L409.436 298.525C408.716 298.093 409.58 298.669 409.724 298.669C409.148 298.237 410.012 298.957 410.156 299.101C410.732 299.677 410.012 298.957 410.444 299.389L410.588 299.533C411.164 300.109 416.061 303.566 416.637 302.558C418.366 299.821 420.814 297.517 423.839 296.076C426.72 294.636 429.744 294.06 432.913 294.204C434.498 294.348 436.082 294.636 437.666 295.068C436.946 294.924 438.242 295.356 437.378 294.924C436.082 294.348 438.098 295.068 436.802 294.636C436.946 294.78 437.378 294.78 436.802 294.636C437.234 295.068 437.09 294.78 437.378 295.068C441.555 298.237 444.58 302.846 447.461 307.167C450.629 312.208 453.654 317.538 456.247 323.011C458.119 327.044 459.992 330.933 461.72 335.11C462.152 335.974 462.44 336.982 462.872 337.846C463.736 338.999 464.745 339.719 466.041 340.295C472.955 344.184 480.012 347.929 486.926 351.818L508.387 363.628C508.531 363.772 511.988 365.501 511.844 364.637C510.835 358.155 510.115 351.673 509.539 345.048C508.099 331.365 507.667 317.537 508.099 303.854C508.243 296.941 509.107 290.027 510.259 283.113C511.268 277.352 512.996 271.735 515.733 266.406C517.893 262.373 521.206 258.772 525.671 257.187C529.272 256.179 533.017 255.891 536.761 256.323C540.938 256.611 544.971 257.619 548.86 259.348C556.206 263.093 562.255 271.159 566.432 278.504C571.33 287.29 574.93 296.797 577.235 306.591C577.523 308.607 577.955 310.912 578.531 313.361C578.675 314.369 581.268 315.521 582.132 315.953C582.42 316.097 584.869 317.249 584.725 316.529C581.124 297.085 573.634 276.056 557.646 263.381C549.581 257.043 539.642 252.578 529.272 252.146C523.222 252.002 517.461 252.866 513.14 257.331C509.395 261.22 507.235 266.55 505.65 271.591C503.778 278.216 502.626 284.986 502.193 291.755C501.185 306.447 501.329 321.138 502.77 335.686C503.202 341.303 503.778 346.776 504.498 352.394C504.642 355.13 505.074 358.011 505.65 360.748C505.65 360.892 505.65 361.036 505.65 361.18L509.107 362.188L471.802 341.591L466.473 338.71L469.354 340.871C465.753 331.653 461.576 322.723 456.535 314.225C449.621 302.558 438.963 288.299 423.551 290.603C418.222 291.467 413.613 294.492 410.732 298.957L416.781 301.982C412.893 298.093 407.851 295.356 402.522 294.06C392.44 291.467 383.51 297.373 376.596 304.142C371.267 309.472 364.641 317.393 365.361 325.603C365.938 332.373 374.436 335.542 380.485 334.966C386.966 334.101 393.304 332.085 399.209 329.204L392.872 325.747C391.72 328.196 390.999 330.789 390.855 333.381C390.711 335.254 391.143 337.27 392.152 338.854C394.168 341.735 397.913 343.752 401.226 344.616C405.547 345.912 410.156 345.192 414.477 344.04C415.341 343.896 412.893 342.167 412.748 342.167C411.884 341.591 409.868 340.151 408.572 340.439C401.802 342.023 394.888 343.32 387.975 344.472C382.934 345.336 377.748 345.48 372.851 346.92C368.962 348.073 364.353 350.089 362.337 353.834C360.176 358.011 362.913 362.476 365.938 365.357C369.25 368.525 373.139 370.974 377.46 372.558C384.95 375.727 393.16 376.735 401.082 377.311C406.267 377.6 411.452 377.6 416.493 377.311L410.3 374.143C411.884 376.879 413.901 379.328 416.349 381.488C422.399 387.106 429.744 391.139 437.666 393.299C442.996 394.74 448.613 395.172 454.086 394.596L448.181 391.571C451.494 395.604 455.094 399.349 458.839 402.805C469.066 412.6 480.156 421.386 491.823 429.452C509.827 441.695 528.84 452.209 548.716 460.851C558.367 465.172 570.321 471.077 581.268 467.765C588.326 465.604 592.791 459.843 595.527 453.361C599.128 444.719 600.136 435.213 600.568 425.851C600.856 414.472 600.424 403.238 599.128 392.003C597.976 380.768 596.247 369.678 594.087 358.443C592.358 349.369 590.486 340.295 588.47 331.365C587.461 326.756 586.453 322.003 585.013 317.537C585.013 317.393 584.869 317.105 584.869 316.961C584.581 315.809 582.132 314.801 581.268 314.369C580.692 313.793 578.243 312.64 578.531 313.361Z" fill="#262626"/>
<path d="M509.251 364.924C509.827 365.212 510.547 365.501 511.123 365.789C510.115 365.212 511.412 365.933 511.844 366.077L513.572 366.941C516.453 368.381 519.333 369.966 522.214 371.55C528.263 374.719 534.457 378.031 540.506 381.344C542.667 382.497 544.827 383.649 546.988 384.657C547.852 385.089 550.013 385.665 550.157 384.081C550.301 382.497 547.996 381.2 546.988 380.768C546.412 380.48 545.691 380.192 545.115 379.904L544.395 379.616L542.667 378.752L534.025 374.143C527.975 370.83 521.782 367.661 515.732 364.348C513.572 363.196 511.411 362.044 509.251 361.035C508.387 360.603 506.226 360.027 506.082 361.468C505.938 362.908 508.387 364.492 509.251 364.924Z" fill="#262626"/>
<path d="M305.73 450.192C305.73 450.192 285.134 349.225 287.006 343.752C288.879 338.278 396.184 319.41 406.122 319.266C416.06 319.122 433.632 419.801 428.591 428.875C423.55 437.95 309.331 457.394 305.73 450.192Z" fill="#F5EE30"/>
<path d="M309.188 450.913C306.74 438.814 304.291 426.715 301.986 414.616C298.242 395.46 294.497 376.303 291.616 357.147C291.184 354.266 290.752 351.385 290.464 348.505C290.32 347.64 290.32 346.632 290.32 345.768C290.32 345.48 290.32 345.192 290.32 345.048C290.32 344.472 290.176 345.48 290.32 345.336C290.464 345.192 290.176 345.336 290.176 345.336C290.464 344.904 290.752 345.048 289.888 345.48C290.176 345.336 290.464 345.192 290.752 345.048C291.616 344.616 292.48 344.328 293.344 343.896C293.488 343.896 294.497 343.463 293.632 343.751L294.497 343.463L296.513 342.887C298.097 342.455 299.682 342.023 301.266 341.591C320.423 336.55 340.011 332.949 359.456 329.348C369.106 327.62 378.756 325.891 388.263 324.307C391.863 323.731 395.608 323.155 399.209 322.578L403.242 322.002L404.826 321.858L405.547 321.714C404.682 321.714 406.267 321.714 405.547 321.714H406.411C407.419 321.57 405.979 321.57 405.547 321.426C406.123 321.57 404.538 320.85 405.115 321.282C405.691 321.714 404.25 320.562 404.826 321.138C404.97 321.282 405.115 321.426 405.259 321.426C404.394 320.85 404.971 321.138 405.259 321.426C405.547 321.714 405.835 322.146 405.979 322.578L406.267 323.155L406.555 323.875C407.275 325.171 407.851 326.467 408.283 327.908C411.308 335.974 413.613 344.328 415.485 352.682C420.238 372.27 423.407 392.147 425.135 412.167C425.423 415.624 425.567 418.937 425.567 422.394C425.567 423.546 425.423 424.554 425.279 425.707C425.279 426.427 425.279 425.563 425.279 425.851C425.279 426.139 425.135 426.283 425.135 426.571C425.135 426.859 424.847 427.147 424.847 427.435C424.847 427.723 425.279 427.003 424.991 427.291C424.703 427.579 424.847 427.435 424.703 427.579C424.559 427.723 424.415 427.723 424.415 427.867C423.839 428.443 424.559 427.723 424.415 427.867C423.551 428.443 422.687 428.875 421.822 429.307C420.67 429.884 419.374 430.316 418.078 430.748L417.069 431.036L416.493 431.18C416.061 431.324 417.213 431.036 416.493 431.18C415.773 431.324 414.909 431.756 414.045 431.9C395.608 437.661 376.308 440.974 357.151 444.143C347.357 445.727 337.419 447.168 327.624 448.176C325.752 448.32 324.456 448.464 322.151 448.608C320.279 448.752 318.406 448.896 316.678 448.896C313.941 449.04 311.205 448.896 308.468 448.752C309.764 448.752 308.324 448.752 307.892 448.608C307.46 448.464 306.019 448.032 307.604 448.608L307.748 448.752C307.172 448.464 308.756 449.328 308.18 449.04C307.604 448.752 308.9 449.616 308.612 449.328C308.612 449.328 309.044 450.048 309.188 450.192C308.324 448.608 306.74 447.6 304.867 447.6C303.571 447.6 301.698 448.464 302.563 450.048C305.155 454.801 312.789 454.225 317.398 454.225C326.04 453.937 334.682 453.073 343.324 451.921C364.209 449.328 384.95 445.439 405.403 440.542C412.748 438.958 419.806 436.797 426.72 434.061C428.592 433.484 430.176 432.332 431.473 431.036C432.769 429.452 432.769 427.003 432.913 425.13C433.345 417.497 432.337 409.863 431.329 402.229C430.032 391.571 428.304 380.912 426.287 370.254C424.271 360.027 422.111 349.801 419.23 339.718C418.078 335.83 416.925 332.085 415.485 328.34C414.477 325.603 413.18 323.155 411.596 320.706C410.156 318.402 407.563 316.961 404.682 316.961C402.522 317.105 400.217 317.249 398.057 317.681C390.135 318.69 382.357 319.986 374.435 321.426C353.262 325.027 332.089 328.916 311.205 333.669C303.715 335.109 296.369 337.126 289.167 339.43C287.295 339.863 285.711 340.727 284.27 341.879C283.262 343.031 283.406 344.76 283.55 346.056C283.982 352.826 285.278 359.595 286.431 366.221C288.159 376.447 290.032 386.529 292.048 396.756C295.217 413.464 298.53 430.172 301.842 446.88C301.986 447.744 302.274 448.752 302.419 449.76C302.851 451.345 304.291 452.641 306.019 452.929C306.884 452.785 309.476 452.641 309.188 450.913Z" fill="#F5EE30"/>
<path d="M321.72 421.098C324.168 410.727 328.489 400.789 334.539 391.859C339.724 384.225 347.214 375.295 356.864 373.711C357.152 373.711 357.44 373.711 357.728 373.567C357.584 373.855 356.864 372.702 356.72 372.99C356.72 373.134 357.44 374.143 357.44 374.287C358.16 375.583 358.88 377.023 359.457 378.32C360.609 380.768 361.473 383.361 362.193 386.097C363.201 389.842 363.489 394.307 361.905 397.764C361.185 399.349 359.889 400.789 358.304 401.509C357.872 401.653 356.864 401.797 356.576 402.085C356.288 402.373 356.576 401.941 356.72 402.229C356.288 401.509 356.144 400.645 356 399.781C355.856 395.172 360.033 391.715 364.354 391.139C374.436 389.554 384.374 396.9 389.127 405.254C390.136 406.694 391.72 407.703 393.448 407.991C394.889 408.135 395.465 407.126 394.745 405.83C388.695 395.316 376.741 386.818 364.498 386.097C358.592 385.809 352.255 387.826 350.238 393.875C348.222 399.925 353.119 406.406 359.312 406.838C365.218 407.414 368.675 402.085 369.251 396.9C369.971 390.995 367.955 384.945 365.65 379.616C364.354 376.591 362.913 373.278 360.465 370.974C357.728 368.525 353.983 367.805 350.67 368.957C344.909 370.83 339.724 374.287 335.691 378.752C325.465 389.41 318.695 403.526 315.382 417.785C314.806 420.377 321.144 423.69 321.72 421.098Z" fill="white"/>
<path d="M373.427 363.772C371.698 364.636 370.546 366.221 370.402 368.093C370.258 369.677 370.834 371.118 371.987 372.27C375.011 375.295 380.052 374.863 383.941 375.151C385.094 375.295 386.39 375.295 387.542 375.151C389.703 374.719 391.719 373.854 393.592 372.558C395.176 371.262 396.04 369.533 396.328 367.517C396.904 360.459 391.575 354.266 384.517 353.69C384.085 353.69 383.509 353.69 383.077 353.69C381.493 353.834 379.908 354.41 378.468 355.274C378.036 355.562 376.163 357.002 377.748 356.858C383.509 356.426 388.406 361.323 389.559 366.797C389.847 368.237 389.847 369.677 389.559 371.118C389.415 371.838 389.126 372.414 388.838 373.134C388.838 373.278 388.694 373.278 388.694 373.422C387.686 375.007 393.592 371.982 392.007 371.982C391.575 371.982 390.999 371.982 390.567 371.982C387.11 371.838 383.221 372.126 380.052 370.398C378.612 369.677 377.748 368.381 377.316 366.797C377.172 366.077 377.172 365.356 377.316 364.78C377.46 364.492 377.46 364.204 377.604 363.916C377.748 363.772 377.604 364.06 377.748 363.772L377.892 363.628C377.172 364.06 377.172 364.204 377.46 363.916C377.748 363.628 379.62 362.332 378.18 362.332C376.452 362.332 374.867 362.908 373.427 363.772Z" fill="white"/>
<path d="M384.23 301.262C384.23 301.262 363.346 315.089 366.37 328.628C369.395 342.167 397.193 328.34 402.523 323.443" fill="white"/>
<path d="M381.349 299.965C378.036 302.27 375.012 304.718 372.131 307.599C367.666 312.064 363.201 317.681 362.625 324.163C362.337 326.9 363.057 329.78 364.641 331.941C366.658 334.101 369.25 335.398 372.131 335.686C378.324 336.838 384.806 334.965 390.567 332.805C395.896 330.789 401.658 328.196 405.835 324.307C406.987 323.299 404.25 322.146 403.674 322.002C402.378 321.57 400.217 321.282 399.065 322.291C395.752 324.883 392.008 327.044 387.975 328.628C385.526 329.78 382.933 330.644 380.341 331.365C379.189 331.653 377.892 331.941 376.74 332.229C376.308 332.229 375.588 332.373 375.012 332.373H374.291H374.003C374.291 332.373 374.291 332.373 373.859 332.373H373.283C372.275 332.373 374.003 332.517 372.995 332.373C372.995 332.373 371.987 332.229 372.563 332.373C373.139 332.517 372.275 332.229 372.275 332.229C372.995 332.517 372.275 332.229 372.131 332.085C371.987 331.941 372.563 332.373 372.131 332.085C371.843 331.941 371.555 331.653 371.267 331.365C369.97 329.492 369.394 327.044 369.826 324.739C370.547 318.978 374.291 313.937 378.324 309.904C381.061 307.023 384.086 304.574 387.254 302.27C389.703 300.974 383.077 298.813 381.349 299.965Z" fill="#262626"/>
<path d="M429.601 318.978C429.601 318.978 416.926 347.928 400.65 344.184C384.374 340.439 404.539 308.319 413.613 298.957C422.687 289.595 434.786 292.908 434.786 292.908" fill="white"/>
<path d="M426.288 317.825C424.127 322.579 421.535 327.044 418.366 331.221C415.917 334.677 412.893 337.702 409.58 340.151C407.996 341.303 406.123 342.167 404.251 342.743C403.387 343.031 402.522 343.175 401.658 343.319C401.082 343.319 400.65 343.319 400.074 343.319C399.642 343.175 399.21 343.175 398.778 343.175C398.778 343.175 400.794 343.896 400.938 343.896C401.802 344.184 401.37 344.184 401.082 343.896C400.794 343.607 400.506 343.607 400.362 343.319C399.786 342.887 399.354 342.311 398.922 341.591C398.201 340.295 397.913 338.71 397.913 337.27C398.057 333.525 398.922 329.78 400.506 326.323C403.819 318.113 408.428 310.48 414.189 303.566C417.646 299.245 421.679 295.644 427.296 294.204C429.601 293.628 431.905 293.34 434.354 293.484C434.786 293.484 435.218 293.484 435.65 293.628C435.794 293.628 436.802 293.772 436.37 293.772L437.09 293.916L436.658 293.772C437.09 293.916 438.963 294.492 438.099 293.628C437.234 292.764 434.642 292.187 433.49 291.899C424.848 289.451 415.485 292.187 409.436 298.957C403.243 306.015 398.201 313.936 394.456 322.579C391.864 328.484 388.407 338.71 395.753 342.743C400.218 345.192 405.979 346.776 411.02 345.336C415.197 343.896 418.942 341.447 421.823 338.134C426.72 332.949 430.609 326.9 433.346 320.274C433.202 319.842 426.576 317.105 426.288 317.825Z" fill="#262626"/>
<path d="M417.933 153.483C423.263 152.763 429.312 151.178 433.345 143.833C437.522 136.055 439.826 128.853 445.588 117.186C446.884 114.594 448.324 111.857 449.909 108.832L452.069 117.186C457.687 139.224 472.666 157.66 492.975 167.598L494.991 167.31C488.942 204.183 513.572 219.306 513.572 219.306C513.572 219.306 508.387 246.961 508.963 246.529L508.531 247.105C504.786 251.138 477.707 278.792 457.111 264.677C457.111 264.677 459.415 260.068 461.72 253.874C464.024 247.681 463.16 243.936 445.3 233.998C410.011 214.409 421.534 180.129 421.534 180.129C421.534 180.129 416.205 179.985 407.995 175.088C400.937 170.911 394.888 156.364 417.933 153.483Z" fill="white"/>
<path d="M420.958 154.347C424.991 154.059 428.736 152.619 432.049 150.314C435.794 147.29 437.81 142.969 439.827 138.648C444.436 128.853 448.469 118.915 453.654 109.265L446.596 107.68C448.757 116.322 451.061 124.964 455.238 132.886C462.728 147.146 474.395 158.668 488.654 166.158C491.535 167.742 494.992 168.318 498.304 167.886L491.823 166.158C488.942 184.306 493.119 203.895 507.667 216.138C508.675 217.002 509.683 217.866 510.835 218.586L510.403 218.154C509.539 222.763 508.675 227.372 507.811 232.125C507.235 235.15 506.658 238.319 506.226 241.488C506.082 242.496 505.074 245.232 506.082 245.809C507.091 246.385 508.243 246.673 509.539 246.817C510.259 246.961 511.844 247.393 512.564 246.961L505.794 245.376C502.049 249.409 498.016 253.154 493.551 256.323C487.07 261.22 479.436 265.685 471.37 266.982C469.354 267.414 467.337 267.414 465.321 267.126C465.609 267.126 465.465 267.126 465.177 267.126C464.745 266.982 464.313 266.838 463.88 266.693C462.728 266.117 461.576 265.541 460.424 264.821L460.856 265.253C462.728 261.508 464.313 257.619 465.753 253.73C466.617 251.858 466.617 249.697 465.897 247.681C464.745 244.656 461.864 242.64 459.415 240.767C454.662 237.311 449.333 234.862 444.436 231.549C430.321 222.907 422.255 207.064 423.551 190.644C423.695 187.187 424.271 183.874 425.279 180.561C425.567 179.697 419.95 178.833 419.374 178.833C419.806 178.833 420.094 178.689 419.518 178.833C419.95 178.833 420.238 178.833 419.662 178.833C420.814 178.977 419.086 178.689 419.806 178.833C417.934 178.257 416.061 177.537 414.189 176.672C411.596 175.52 409.292 173.792 407.563 171.631C404.683 167.742 404.395 162.413 408.139 158.956C411.452 155.932 416.493 154.923 420.958 154.347C422.399 154.059 420.238 153.339 419.95 153.195C418.366 152.619 416.781 152.331 415.053 152.331C408.571 153.195 397.769 155.643 398.201 164.141C398.489 171.199 405.115 174.944 410.732 177.393C414.909 179.265 419.374 180.417 423.983 180.705L418.078 178.977C412.748 196.549 418.654 215.706 433.057 227.084C437.81 230.973 443.14 233.566 448.325 236.878C451.638 238.895 455.382 241.2 457.831 244.512C459.271 246.385 459.703 248.977 458.839 251.282C457.399 255.603 455.671 259.636 453.654 263.669C453.654 263.813 453.798 263.957 454.086 264.101C462.728 269.862 474.395 270.726 484.189 267.27C492.543 264.245 499.889 258.916 506.514 253.01C508.675 251.138 510.691 249.121 512.708 246.961C512.996 246.673 509.827 245.665 509.827 245.665C508.963 245.521 506.802 244.8 505.794 245.232L512.276 246.529L512.708 246.961C512.708 246.529 512.708 245.953 512.852 245.521C512.996 244.512 513.14 243.504 513.284 242.496C513.86 239.327 514.292 236.302 514.868 233.134C515.733 228.669 516.453 224.204 517.317 219.738C517.317 219.594 517.173 219.306 516.885 219.306C516.741 219.162 516.165 218.73 516.453 219.018C515.877 218.586 515.156 218.154 514.724 217.578C512.708 215.85 510.835 214.121 509.251 212.105C503.778 205.479 500.033 197.413 498.593 188.771C497.44 181.714 497.584 174.512 498.737 167.598C498.881 166.446 492.975 165.726 492.255 165.87L490.239 166.158L496.288 167.454C476.123 157.372 461.288 139.224 455.671 117.331C454.95 114.594 454.23 111.713 453.51 108.977C453.222 107.824 447.028 106.528 446.452 107.392C441.411 116.61 437.378 126.261 433.057 135.911C431.185 139.944 429.312 144.553 425.856 147.578C422.687 150.17 418.942 151.611 414.909 152.043C413.469 152.187 415.629 153.051 416.061 153.195C417.646 154.059 419.23 154.491 420.958 154.347Z" fill="#262626"/>
<path d="M499.313 168.607C499.313 168.607 474.107 246.673 541.947 279.224C571.042 293.196 597.832 272.743 593.943 239.615C596.68 227.66 580.116 180.273 579.252 171.055C573.202 106.096 543.387 98.03 511.7 91.6925C478.572 85.067 454.95 94.2851 446.885 106.672C445.732 108.544 445.444 112.289 445.732 117.331C447.029 114.738 448.469 112.001 450.053 108.977L452.214 117.331C457.831 139.368 472.811 157.804 493.119 167.742" fill="white"/>
<path d="M495.999 167.886C494.127 173.792 492.975 179.841 492.255 186.035C490.382 199.43 490.958 212.969 493.983 226.076C497.872 242.64 506.946 257.619 519.765 268.71C534.889 281.673 556.638 292.331 576.226 282.969C584.724 278.792 591.35 271.591 594.807 262.805C596.679 258.051 597.687 253.01 597.831 247.825C597.831 246.529 597.831 245.088 597.831 243.648C597.831 242.208 597.399 240.623 597.543 239.183C597.543 238.319 597.831 237.023 597.831 236.014C597.831 228.38 595.815 220.747 594.086 213.545C591.926 204.903 589.477 196.261 587.029 187.619C585.444 181.858 583.428 176.096 582.708 170.191C581.411 158.524 579.683 147.001 575.794 135.911C570.465 120.643 561.103 107.392 546.843 99.4703C540.794 96.3016 534.456 93.853 527.831 92.1246C519.333 89.8201 510.691 88.0916 501.905 87.0834C490.382 85.7871 478.283 86.2192 467.049 89.8201C458.839 92.4127 450.773 96.4456 445.3 103.359C444.003 104.8 442.995 106.672 442.563 108.544C441.987 111.425 441.843 114.306 442.131 117.186C442.275 120.931 447.604 120.931 449.044 117.907C450.485 114.882 451.925 112.289 453.365 109.553H446.452C448.468 117.33 450.341 125.108 453.798 132.454C458.695 142.824 465.752 152.043 474.394 159.388C479.436 163.709 485.053 167.31 490.958 170.191C492.687 170.911 494.703 170.479 495.855 169.039C496.72 167.886 496.576 166.302 495.567 165.438C495.423 165.294 495.135 165.15 494.991 165.006C475.403 155.211 460.999 137.495 455.526 116.322L453.365 107.968C452.501 104.656 447.748 105.664 446.452 107.968C445.012 110.705 443.571 113.586 442.131 116.322L449.044 117.042C448.756 114.306 448.756 111.425 449.333 108.688C449.477 108.256 449.621 107.968 449.765 107.536C449.909 107.392 450.053 107.248 450.053 106.96C450.629 106.24 451.061 105.664 451.637 104.944C452.645 103.791 453.798 102.639 455.094 101.775C456.39 100.767 457.831 99.7584 459.415 98.8942C467.625 94.2851 477.131 92.4127 486.637 92.1246C497.152 91.6925 507.378 93.4209 517.605 95.7254C520.773 96.4456 523.942 97.1658 527.111 98.174C528.695 98.6061 530.135 99.0382 531.72 99.6144C531.288 99.4703 532.296 99.7584 531.72 99.6144L532.152 99.7584C532.584 99.9024 532.872 100.046 533.304 100.19C534.024 100.479 534.889 100.767 535.609 101.055C548.284 106.096 558.798 115.746 564.704 128.133C568.881 136.919 571.761 146.281 573.346 155.932C574.786 163.709 575.074 171.631 577.09 179.265C581.267 195.109 586.453 210.664 589.333 226.796C589.621 228.525 589.909 230.253 590.053 231.981C590.198 232.701 590.198 233.422 590.198 234.142V234.718C590.198 234.718 590.198 234.286 590.198 234.574C590.198 234.862 590.198 235.294 590.198 235.726C590.198 236.878 590.053 237.887 589.909 239.039C589.765 241.488 590.198 244.224 590.198 246.673C590.053 255.747 587.317 264.821 580.979 271.591C575.506 277.352 568.016 280.665 560.094 280.521C550.3 280.521 541.082 275.912 533.016 270.582C519.045 261.652 508.386 248.257 502.769 232.557C498.448 219.882 496.864 206.343 498.016 192.948C498.304 187.907 499.024 183.01 500.032 178.113C500.32 176.384 500.753 174.656 501.185 172.928L501.617 171.055C501.329 172.207 501.761 170.623 501.761 170.335C501.761 170.047 501.905 169.615 502.049 169.183C503.345 165.15 496.432 164.285 495.279 167.742L495.999 167.886Z" fill="#262626"/>
<path d="M448.325 151.034C448.325 151.034 444.868 155.067 448.901 158.092C452.934 161.117 456.823 156.076 454.087 152.331C453.078 150.458 450.63 149.738 448.757 150.746C448.613 150.746 448.469 150.89 448.325 151.034Z" fill="#262626"/>
<path d="M451.205 139.512C441.843 136.343 436.946 126.117 440.114 116.754C440.258 116.178 440.547 115.602 440.835 115.026C443.139 109.985 447.028 104.944 452.213 102.783C457.398 100.623 462.872 101.199 467.913 102.495C471.082 103.359 475.403 98.3182 471.082 97.1659C459.991 94.1412 447.892 96.5898 440.258 105.52C436.514 109.841 433.345 115.026 432.481 120.787C431.76 125.541 432.769 130.438 435.217 134.615C438.098 139.512 442.707 143.113 448.036 144.697C451.205 145.849 455.526 140.808 451.205 139.512Z" fill="#262626"/>
<path d="M420.095 132.022C419.95 122.372 424.848 113.298 433.058 108.112C441.123 102.927 451.494 102.207 460.712 102.351C462.44 102.351 464.169 101.487 464.169 99.6144C464.025 97.7419 462.584 96.1576 460.712 96.0135C449.477 95.7255 437.955 96.8777 428.16 102.927C418.654 109.121 413.037 119.779 413.181 131.158C413.325 134.903 420.239 136.343 420.095 132.022Z" fill="#262626"/>
<path d="M485.63 182.722C485.63 182.722 491.391 159.821 506.371 170.911C521.35 182.002 502.914 204.759 487.934 206.92" fill="white"/>
<path d="M488.511 184.594C489.807 179.265 493.552 171.055 500.033 170.335C504.93 169.759 508.387 173.36 508.963 177.969C509.684 183.874 506.515 189.635 502.77 193.956C498.305 199.142 492.255 203.463 485.486 204.615C484.19 204.759 486.206 207.064 486.494 207.352C487.358 208.216 489.087 209.8 490.383 209.512C497.153 208.504 503.202 204.183 507.667 199.286C511.844 194.677 515.589 188.051 514.581 181.426C513.428 174.08 506.083 167.886 499.169 165.87C494.128 164.43 489.807 167.022 486.926 171.199C484.91 174.08 483.469 177.393 482.605 180.849C482.317 182.434 488.078 186.323 488.511 184.594Z" fill="#262626"/>
<path d="M450.197 198.71C453.078 199.43 456.103 199.142 458.551 197.701C460.712 196.405 462.152 194.389 462.728 192.084C463.16 190.356 463.16 188.627 462.728 186.899C462.44 186.323 462.008 185.747 461.432 185.458C460.712 184.882 459.704 184.594 458.839 184.45C458.119 184.306 455.527 184.018 455.815 185.603C455.959 186.611 456.103 187.475 456.103 188.483V188.051C456.103 189.779 455.527 191.508 454.518 192.804L454.807 192.516C454.086 193.524 453.078 194.389 452.07 194.965L452.502 194.677C452.07 194.821 451.638 195.109 451.206 195.253L450.63 195.397C450.197 195.541 451.206 195.253 450.774 195.397H450.485H449.765C449.333 195.397 450.63 195.397 450.053 195.397H449.765H449.477C449.045 195.397 450.341 195.541 449.909 195.541L449.189 195.397C448.469 195.253 447.605 195.253 446.885 195.397C446.453 195.541 446.02 195.973 446.164 196.405C446.741 197.557 448.901 198.277 450.197 198.71Z" fill="#262626"/>
<path d="M555.197 161.549C548.715 161.261 542.09 160.397 535.752 159.1C529.415 157.66 523.51 154.923 518.18 151.178C512.851 147.29 507.666 142.969 502.913 138.359C497.583 133.462 492.398 128.421 487.357 123.092C486.061 121.796 484.188 121.363 482.46 121.796C481.596 121.94 480.876 122.804 481.164 123.668C481.164 124.1 481.452 124.388 481.74 124.676C489.806 133.174 498.448 141.24 507.378 148.874C511.555 152.475 516.164 155.644 521.061 158.236C526.102 160.829 531.431 162.557 536.905 163.709C543.242 164.862 549.58 165.582 556.061 166.014C557.357 166.158 559.374 165.726 559.086 163.997C558.798 162.269 556.349 161.549 555.197 161.549Z" fill="#262626"/>
<path d="M529.415 200.87C536.761 218.442 545.691 235.15 556.206 250.994C557.358 252.578 564.128 251.714 563.119 250.274C552.605 234.43 543.675 217.722 536.329 200.15C535.609 198.566 528.551 198.998 529.415 200.87Z" fill="#262626"/>
</svg>
